<svg xmlns="http://www.w3.org/2000/svg" width="101" height="100.091" viewBox="0 0 101 100.091">
  <g id="Grupo_973374" data-name="Grupo 973374" transform="translate(-1088 -3682)">
    <circle id="Elipse_5279" data-name="Elipse 5279" cx="50.046" cy="50.046" r="50.046" transform="translate(1088 3682)" fill="#0f58b9"/>
    <g id="auditoria" transform="translate(1107.69 3695.126)">
      <g id="Grupo_946763" data-name="Grupo 946763" transform="translate(1.313 1.312)">
        <g id="Grupo_946761" data-name="Grupo 946761" transform="translate(0 0)">
          <path id="Trazado_678408" data-name="Trazado 678408" d="M111.362,16H150.04a1.585,1.585,0,0,1,1.16.481l6.966,6.966a1.585,1.585,0,0,1,.481,1.16V77.771a1.644,1.644,0,0,1-1.641,1.641H111.362a1.644,1.644,0,0,1-1.641-1.641V17.641A1.644,1.644,0,0,1,111.362,16Z" transform="translate(-94.379 -16)" fill="#b1b1b5" fill-rule="evenodd"/>
          <path id="Trazado_678409" data-name="Trazado 678409" d="M359.605,16.867v6.144a1.644,1.644,0,0,0,1.641,1.641h6.144a1.644,1.644,0,0,0-.338-.481l-6.966-6.966a1.647,1.647,0,0,0-.481-.338Z" transform="translate(-303.265 -16.725)" fill="#a79ba7" fill-rule="evenodd"/>
          <path id="Trazado_678410" data-name="Trazado 678410" d="M64.607,62.755h38.678a1.585,1.585,0,0,1,1.16.481l6.966,6.966a1.585,1.585,0,0,1,.481,1.16v53.164a1.644,1.644,0,0,1-1.641,1.641H64.607a1.644,1.644,0,0,1-1.641-1.641V64.4A1.644,1.644,0,0,1,64.607,62.755Z" transform="translate(-55.295 -55.084)" fill="#d1d1d6" fill-rule="evenodd"/>
          <path id="Trazado_678411" data-name="Trazado 678411" d="M312.85,63.621v6.144a1.644,1.644,0,0,0,1.641,1.641h6.144a1.644,1.644,0,0,0-.338-.481l-6.966-6.966A1.645,1.645,0,0,0,312.85,63.621Z" transform="translate(-264.181 -55.808)" fill="#a79ba7" fill-rule="evenodd"/>
          <path id="Trazado_678412" data-name="Trazado 678412" d="M17.853,109.509H56.531a1.585,1.585,0,0,1,1.16.481l6.966,6.966a1.585,1.585,0,0,1,.481,1.16V171.28A1.644,1.644,0,0,1,63.5,172.92H17.853a1.644,1.644,0,0,1-1.641-1.641V111.15a1.644,1.644,0,0,1,1.641-1.641Z" transform="translate(-16.212 -94.167)" fill="#eceff1" fill-rule="evenodd"/>
          <path id="Trazado_678413" data-name="Trazado 678413" d="M17.853,109.509h2.514V172.92H17.853a1.644,1.644,0,0,1-1.641-1.641V111.15A1.644,1.644,0,0,1,17.853,109.509Z" transform="translate(-16.212 -94.167)" fill="#d1d1d6" fill-rule="evenodd"/>
          <path id="Trazado_678414" data-name="Trazado 678414" d="M266.1,110.376v6.144a1.644,1.644,0,0,0,1.641,1.641h6.144a1.644,1.644,0,0,0-.338-.481l-6.966-6.966A1.645,1.645,0,0,0,266.1,110.376Z" transform="translate(-225.097 -94.892)" fill="#a79ba7" fill-rule="evenodd"/>
        </g>
        <g id="Grupo_946762" data-name="Grupo 946762" transform="translate(23.938 24.735)">
          <path id="Trazado_678415" data-name="Trazado 678415" d="M366.472,357.615l-3.262,3.05-10.078-9.78,2.846-3.455Z" transform="translate(-321.792 -317.789)" fill="#a79ba7" fill-rule="evenodd"/>
          <path id="Trazado_678416" data-name="Trazado 678416" d="M377.371,357.614l-3.262,3.05-.781-.758,2.452-2.293-9.611-9.326.707-.858Z" transform="translate(-332.691 -317.788)" fill="#837683" fill-rule="evenodd"/>
          <path id="Trazado_678417" data-name="Trazado 678417" d="M408.13,407.191l3.506-3.613a1.612,1.612,0,0,0-.034-2.273l-9.711-9.423a1.612,1.612,0,0,0-2.273.034l-3.506,3.613a1.612,1.612,0,0,0,.034,2.273l9.711,9.423a1.612,1.612,0,0,0,2.273-.034Z" transform="translate(-357.342 -354.569)" fill="#ecba78" fill-rule="evenodd"/>
          <path id="Trazado_678418" data-name="Trazado 678418" d="M430.121,407.192l3.506-3.613a1.612,1.612,0,0,0-.034-2.273l-9.711-9.423a1.614,1.614,0,0,0-1.915-.243,1.6,1.6,0,0,1,.324.243L432,401.306a1.612,1.612,0,0,1,.034,2.273l-3.506,3.613a1.6,1.6,0,0,1-.358.277A1.614,1.614,0,0,0,430.121,407.192Z" transform="translate(-379.333 -354.569)" fill="#e3a76f" fill-rule="evenodd"/>
          <circle id="Elipse_5288" data-name="Elipse 5288" cx="17.683" cy="17.683" r="17.683" transform="translate(0 33.845) rotate(-73.142)" fill="#ffe177"/>
          <path id="Trazado_678419" data-name="Trazado 678419" d="M292.422,193.289a17.683,17.683,0,0,1,0,35.366c-.267,0-.532-.007-.8-.019a17.682,17.682,0,0,0,0-35.328C291.891,193.3,292.156,193.289,292.422,193.289Z" transform="translate(-270.378 -188.937)" fill="#ffd064" fill-rule="evenodd"/>
          <circle id="Elipse_5289" data-name="Elipse 5289" cx="12.555" cy="12.555" r="12.555" transform="translate(7.164 31.734) rotate(-77.993)" fill="#eceff1"/>
          <path id="Trazado_678420" data-name="Trazado 678420" d="M232.508,224.544c.267,0,.532.009.8.026a12.554,12.554,0,0,0,0,25.058c-.263.016-.528.026-.8.026a12.555,12.555,0,0,1,0-25.11Z" transform="translate(-210.463 -215.064)" fill="#d1d1d6" fill-rule="evenodd"/>
        </g>
      </g>
      <path id="Trazado_678421" data-name="Trazado 678421" d="M66.746,56.085A11.243,11.243,0,1,0,55.5,67.326,11.256,11.256,0,0,0,66.746,56.085Zm2.625,0A13.868,13.868,0,1,1,55.5,42.216,13.884,13.884,0,0,1,69.371,56.085ZM86.8,81.727,77.094,72.3a.288.288,0,0,0-.2-.082h-.005a.282.282,0,0,0-.206.089l-3.506,3.613a.3.3,0,0,0,0,.416l9.711,9.423a.3.3,0,0,0,.419-.005l3.5-3.614a.3.3,0,0,0-.007-.417Zm-22-2.643V72.643A18.877,18.877,0,0,1,59.758,74.6v4.484Zm-7.67,7.67h-46.3V25.968H49.205v6.614a1.313,1.313,0,0,0,1.313,1.312h6.615v3.265c-.538-.046-1.081-.07-1.631-.07a18.905,18.905,0,0,0-6.32,1.083H16.774a1.312,1.312,0,0,0,0,2.625H44.242a19.161,19.161,0,0,0-4.1,4.125H16.774a1.312,1.312,0,0,0,0,2.625H38.537a18.9,18.9,0,0,0-1.512,4.126H16.774a1.312,1.312,0,0,0,0,2.625H36.592c-.055.589-.084,1.185-.084,1.787a19.316,19.316,0,0,0,.143,2.339H16.774a1.313,1.313,0,0,0,0,2.626H37.167a18.838,18.838,0,0,0,1.66,4.125H16.774a1.312,1.312,0,0,0,0,2.625H40.561a19.1,19.1,0,0,0,4.473,4.127H16.774a1.312,1.312,0,0,0,0,2.625H51.048a19,19,0,0,0,4.454.53c.55,0,1.093-.026,1.631-.07ZM18.5,23.343H50.518a1.309,1.309,0,0,1,.928.384l7.926,7.927a1.311,1.311,0,0,1,.385.927v4.987A18.874,18.874,0,0,1,64.8,39.527v-13.3H58.19a1.312,1.312,0,0,1-1.312-1.313V18.3H18.5Zm7.672-7.672V10.626H64.548V17.24a1.312,1.312,0,0,0,1.312,1.313h6.616V47.558a19.137,19.137,0,0,0-5.047-6.248v-16.4a1.314,1.314,0,0,0-.385-.928l-7.927-7.926a1.314,1.314,0,0,0-.927-.385Zm41,.256h3.446l-3.446-3.445Zm5.3,50.622V64.61c-.219.43-.45.852-.7,1.263ZM59.5,23.6V20.153L62.948,23.6Zm-7.672,7.67h3.445l-3.445-3.446ZM71.873,56.085A16.37,16.37,0,1,1,55.5,39.714,16.391,16.391,0,0,1,71.873,56.085ZM73.806,71.5l-3.558-3.453q-.579.713-1.226,1.37l3.507,3.4ZM88.7,83.973l-3.506,3.613a2.928,2.928,0,0,1-4.13.063l-9.711-9.424a2.926,2.926,0,0,1-.559-3.437l-.773-.75H67.429V80.4a1.313,1.313,0,0,1-1.313,1.313H59.758v6.358a1.311,1.311,0,0,1-1.312,1.312H9.521a1.312,1.312,0,0,1-1.313-1.312V24.656a1.312,1.312,0,0,1,1.313-1.312h6.357V16.984a1.315,1.315,0,0,1,1.313-1.313H23.55V9.313A1.312,1.312,0,0,1,24.862,8h41a1.314,1.314,0,0,1,.929.384l7.926,7.928a1.309,1.309,0,0,1,.385.927V69.1l.724.7a2.916,2.916,0,0,1,3.1.622l9.711,9.422a2.925,2.925,0,0,1,.063,4.13ZM16.774,34.045H35.537a1.313,1.313,0,0,0,0-2.626H16.774a1.313,1.313,0,0,0,0,2.626ZM52.505,79.989a1.312,1.312,0,0,0-1.313-1.312H16.774a1.312,1.312,0,0,0,0,2.625H51.192A1.312,1.312,0,0,0,52.505,79.989Z" transform="translate(-8.208 -8.001)" fill-rule="evenodd"/>
    </g>
  </g>
</svg>
