<svg xmlns="http://www.w3.org/2000/svg" width="101" height="101" viewBox="0 0 101 101">
  <g id="Grupo_973375" data-name="Grupo 973375" transform="translate(-1087.935 -2335.935)">
    <circle id="Elipse_5272" data-name="Elipse 5272" cx="50.5" cy="50.5" r="50.5" transform="translate(1087.935 2335.934)" fill="#0f58b9"/>
    <g id="licencias" transform="translate(1097.958 2351.171)">
      <path id="Trazado_678245" data-name="Trazado 678245" d="M96.016,40.008v72.985h54.063V40.008Zm0,0" transform="translate(-79.792 -33.25)" fill="#e8e8e8"/>
      <path id="Trazado_678246" data-name="Trazado 678246" d="M147.375,49.469l-9.461-9.461h-41.9v70.281h51.36Zm0,0" transform="translate(-79.792 -33.25)" fill="#afafaf"/>
      <path id="Trazado_678247" data-name="Trazado 678247" d="M64.016,80.992h54.063V20.172L105.914,8.008h-41.9Zm0,0" transform="translate(-53.199 -6.656)" fill="#f4fbff"/>
      <path id="Trazado_678248" data-name="Trazado 678248" d="M324.18,20.172H312.016V8.008Zm0,0" transform="translate(-259.3 -6.656)" fill="#e8e8e8"/>
      <path id="Trazado_678249" data-name="Trazado 678249" d="M164.617,176.008l-44.6,44.6h44.6Zm0,0" transform="translate(-99.738 -146.273)" fill="#e8e8e8"/>
      <path id="Trazado_678250" data-name="Trazado 678250" d="M212.4,341.523H185.367a1.352,1.352,0,0,1-1.352-1.352V329.359a1.352,1.352,0,0,1,1.352-1.352H212.4a1.352,1.352,0,0,1,1.352,1.352v10.813A1.352,1.352,0,0,1,212.4,341.523Zm-25.68-2.7h24.328v-8.109H186.719Zm0,0" transform="translate(-152.925 -272.594)" fill="#636363"/>
      <path id="Trazado_678251" data-name="Trazado 678251" d="M216.016,360.008h5.406v2.7h-5.406Zm0,0" transform="translate(-179.519 -299.187)" fill="#348fd9"/>
      <path id="Trazado_678252" data-name="Trazado 678252" d="M264.016,360.008h10.813v2.7H264.016Zm0,0" transform="translate(-219.41 -299.187)" fill="#636363"/>
      <path id="Trazado_678253" data-name="Trazado 678253" d="M248.016,224.12l8.109-8.109,18.922,18.922-8.109,8.109Zm0,0" transform="translate(-206.113 -179.519)" fill="#e0e0de"/>
      <path id="Trazado_678254" data-name="Trazado 678254" d="M324.289,144.008a8.11,8.11,0,0,0-8.109,8.109v.676l-12.164,12.84,6.758,6.758,12.84-12.164h.676a8.109,8.109,0,1,0,0-16.219Zm0,0" transform="translate(-252.652 -119.68)" fill="#95573a"/>
      <path id="Trazado_678255" data-name="Trazado 678255" d="M224.02,268.059,228.074,264,247,282.926l-4.055,4.055Zm0,0" transform="translate(-186.171 -219.403)" fill="#ebebe9"/>
      <path id="Trazado_678256" data-name="Trazado 678256" d="M344.307,148.246c-5.6,14.16-14.349,20.921-20.2,24.3l3.364,3.364,12.84-12.164h.676a8.11,8.11,0,0,0,3.322-15.5Zm0,0" transform="translate(-269.347 -123.202)" fill="#8f4d2e"/>
      <path id="Trazado_678257" data-name="Trazado 678257" d="M195.983,60.584a2.3,2.3,0,0,0-3.067-3.067,2.3,2.3,0,0,0-4.333,0,2.3,2.3,0,0,0-3.059,3.067,2.3,2.3,0,0,0,0,4.333,2.3,2.3,0,0,0,3.067,3.059,2.3,2.3,0,0,0,4.333,0,2.3,2.3,0,0,0,3.059-3.067,2.3,2.3,0,0,0,0-4.325Zm0,0" transform="translate(-152.906 -46.527)" fill="#ffb531"/>
      <path id="Trazado_678258" data-name="Trazado 678258" d="M86.992,70.874A14.856,14.856,0,0,0,64.016,58.422v24.9A14.856,14.856,0,0,0,86.992,70.874Zm0,0" transform="translate(-53.199 -46.546)" fill="#afafaf"/>
      <path id="Trazado_678259" data-name="Trazado 678259" d="M328.016,80.008h9.461v2.7h-9.461Zm0,0" transform="translate(-272.597 -66.492)" fill="#afafaf"/>
      <g id="Grupo_946723" data-name="Grupo 946723" transform="translate(17.575 27.031)">
        <path id="Trazado_678260" data-name="Trazado 678260" d="M152.016,232.008h13.516v2.7H152.016Zm0,0" transform="translate(-143.906 -219.844)" fill="#3fb7c7"/>
        <path id="Trazado_678261" data-name="Trazado 678261" d="M104.016,264.008h16.219v2.7H104.016Zm0,0" transform="translate(-104.016 -246.437)" fill="#3fb7c7"/>
        <path id="Trazado_678262" data-name="Trazado 678262" d="M104.016,200.008H132.4v2.7H104.016Zm0,0" transform="translate(-104.016 -193.25)" fill="#636363"/>
        <path id="Trazado_678263" data-name="Trazado 678263" d="M104.016,296.008h8.109v2.7h-8.109Zm0,0" transform="translate(-104.016 -273.031)" fill="#3fb7c7"/>
        <path id="Trazado_678264" data-name="Trazado 678264" d="M104.016,328.008h10.813v2.7H104.016Zm0,0" transform="translate(-104.016 -299.625)" fill="#3fb7c7"/>
        <path id="Trazado_678265" data-name="Trazado 678265" d="M104.016,360.008h10.813v2.7H104.016Zm0,0" transform="translate(-104.016 -326.219)" fill="#3fb7c7"/>
        <path id="Trazado_678266" data-name="Trazado 678266" d="M104.016,392.008h10.813v2.7H104.016Zm0,0" transform="translate(-104.016 -352.812)" fill="#3fb7c7"/>
        <path id="Trazado_678267" data-name="Trazado 678267" d="M104.016,232.008h5.406v2.7h-5.406Zm0,0" transform="translate(-104.016 -219.844)" fill="#3fb7c7"/>
        <path id="Trazado_678268" data-name="Trazado 678268" d="M168.016,296.008h5.406v2.7h-5.406Zm0,0" transform="translate(-157.203 -273.031)" fill="#3fb7c7"/>
        <path id="Trazado_678269" data-name="Trazado 678269" d="M168.016,160.008h5.406v2.7h-5.406Zm0,0" transform="translate(-157.203 -160.008)" fill="#636363"/>
        <path id="Trazado_678270" data-name="Trazado 678270" d="M216.016,160.008h10.813v2.7H216.016Zm0,0" transform="translate(-197.094 -160.008)" fill="#3fb7c7"/>
      </g>
      <path id="Trazado_678271" data-name="Trazado 678271" d="M37.75,54.875A14.867,14.867,0,1,1,22.883,40.008,14.867,14.867,0,0,1,37.75,54.875Zm0,0" transform="translate(-6.66 -33.25)" fill="#7eb457"/>
      <path id="Trazado_678272" data-name="Trazado 678272" d="M39.37,98.174a1.352,1.352,0,0,1-.956-.4l-4.055-4.055,1.911-1.911,3.1,3.1,12.56-12.56,1.911,1.911L40.325,97.778A1.352,1.352,0,0,1,39.37,98.174Zm0,0" transform="translate(-28.553 -68.44)" fill="#ffb531"/>
      <path id="Trazado_678273" data-name="Trazado 678273" d="M192.867,112.174a14.689,14.689,0,0,0-.892-2.838A2.264,2.264,0,0,0,192.867,112.174Zm0,0" transform="translate(-159.382 -90.865)" fill="#f98500"/>
      <path id="Trazado_678274" data-name="Trazado 678274" d="M185.544,96.38a14.928,14.928,0,0,0-1.384-2.47A2.249,2.249,0,0,0,185.544,96.38Zm0,0" transform="translate(-153.018 -78.046)" fill="#f98500"/>
      <path id="Trazado_678275" data-name="Trazado 678275" d="M390.773,46.875V33.359a1.352,1.352,0,0,0-1.352-1.352h-5.406v2.7h4.055V46.875Zm0,0" transform="translate(-319.136 -26.602)"/>
      <path id="Trazado_678276" data-name="Trazado 678276" d="M56.016,240.008V273.8a1.352,1.352,0,0,0,1.352,1.352H111.43a1.352,1.352,0,0,0,1.352-1.352v-9.461h-2.7v8.109H58.719V240.008Zm0,0" transform="translate(-46.55 -199.461)"/>
      <path id="Trazado_678277" data-name="Trazado 678277" d="M99.825.143C99.783.124,99.743.113,99.7.1a1.344,1.344,0,0,0-.35-.07.515.515,0,0,0-.084-.02h-41.9a1.352,1.352,0,0,0-1.352,1.352v2.7h2.7V2.711h39.2V13.523a1.352,1.352,0,0,0,1.352,1.352h10.813v6.758h2.7V13.523c0-.028-.015-.054-.017-.084a1.316,1.316,0,0,0-.07-.35c-.015-.044-.026-.084-.045-.126a1.343,1.343,0,0,0-.27-.4L100.216.4a1.354,1.354,0,0,0-.391-.261Zm8.342,12.029h-7.55V4.622Zm0,0" transform="translate(-46.55 -0.008)"/>
      <path id="Trazado_678278" data-name="Trazado 678278" d="M184.016,329.359v10.813a1.352,1.352,0,0,0,1.352,1.352h17.57v-2.7H186.719v-8.109h6.758v-2.7h-8.109A1.352,1.352,0,0,0,184.016,329.359Zm0,0" transform="translate(-152.925 -272.594)"/>
      <path id="Trazado_678279" data-name="Trazado 678279" d="M216.016,360.008h8.109v2.7h-8.109Zm0,0" transform="translate(-179.519 -299.187)"/>
      <path id="Trazado_678280" data-name="Trazado 678280" d="M151.43,136.008a9.473,9.473,0,0,0-9.461,9.461v.135l-6.893,7.277-4.315-4.315a1.351,1.351,0,0,0-1.911,0l-12.164,12.164a1.352,1.352,0,0,0,0,1.911l18.922,18.922a1.352,1.352,0,0,0,1.911,0l4.055-4.055,7.154-7.151v21.065H96.016v2.7h54.063a1.352,1.352,0,0,0,1.352-1.352V160.336h-2.7v6.2l-4.711-4.711,7.279-6.893h.135a9.461,9.461,0,1,0,0-18.922ZM136.563,178.7l-17.011-17.011,2.144-2.144,17.011,17.011Zm10.253-10.253-6.2,6.2-17.011-17.011,6.2-6.2,3.411,3.411-3.041,3.209a1.352,1.352,0,0,0,.026,1.892l6.758,6.758a1.351,1.351,0,0,0,1.884.026l3.21-3.041Zm4.614-16.219h-.676a1.354,1.354,0,0,0-.93.37L137.94,163.85l-4.892-4.892,11.259-11.884a1.351,1.351,0,0,0,.365-.93v-.676a6.758,6.758,0,1,1,6.758,6.758Zm0,0" transform="translate(-79.792 -113.031)"/>
      <path id="Trazado_678281" data-name="Trazado 678281" d="M152.016,232.008h13.516v2.7H152.016Zm0,0" transform="translate(-126.332 -192.812)"/>
      <path id="Trazado_678282" data-name="Trazado 678282" d="M104.016,264.008h16.219v2.7H104.016Zm0,0" transform="translate(-86.441 -219.406)"/>
      <path id="Trazado_678283" data-name="Trazado 678283" d="M176.016,200.008h16.219v2.7H176.016Zm0,0" transform="translate(-146.277 -166.219)"/>
      <path id="Trazado_678284" data-name="Trazado 678284" d="M104.016,296.008h8.109v2.7h-8.109Zm0,0" transform="translate(-86.441 -246)"/>
      <path id="Trazado_678285" data-name="Trazado 678285" d="M104.016,328.008h10.813v2.7H104.016Zm0,0" transform="translate(-86.441 -272.594)"/>
      <path id="Trazado_678286" data-name="Trazado 678286" d="M104.016,360.008h10.813v2.7H104.016Zm0,0" transform="translate(-86.441 -299.187)"/>
      <path id="Trazado_678287" data-name="Trazado 678287" d="M104.016,392.008h10.813v2.7H104.016Zm0,0" transform="translate(-86.441 -325.781)"/>
      <path id="Trazado_678288" data-name="Trazado 678288" d="M104.016,232.008h5.406v2.7h-5.406Zm0,0" transform="translate(-86.441 -192.812)"/>
      <path id="Trazado_678289" data-name="Trazado 678289" d="M168.016,296.008h5.406v2.7h-5.406Zm0,0" transform="translate(-139.628 -246)"/>
      <path id="Trazado_678290" data-name="Trazado 678290" d="M200.016,160.008h13.516v2.7H200.016Zm0,0" transform="translate(-166.222 -132.977)"/>
      <path id="Trazado_678291" data-name="Trazado 678291" d="M16.213,64.434A16.219,16.219,0,0,0,32.4,48.783a3.573,3.573,0,0,0,2.621.819,3.666,3.666,0,0,0,5.628,0,3.666,3.666,0,0,0,3.979-3.979,3.666,3.666,0,0,0,0-5.628,3.666,3.666,0,0,0-3.979-3.979,3.666,3.666,0,0,0-5.628,0,3.666,3.666,0,0,0-3.979,3.979,3.509,3.509,0,0,0-.54.557A16.219,16.219,0,1,0,16.213,64.434ZM33.061,41.917a1.351,1.351,0,0,0,.768-1.852A.946.946,0,0,1,35.093,38.8a1.351,1.351,0,0,0,1.852-.768.946.946,0,0,1,1.784,0,1.351,1.351,0,0,0,1.853.768.946.946,0,0,1,1.263,1.264,1.351,1.351,0,0,0,.768,1.852.946.946,0,0,1,0,1.784,1.351,1.351,0,0,0-.768,1.853.909.909,0,0,1-.186,1.081.92.92,0,0,1-1.082.187,1.351,1.351,0,0,0-1.852.768.946.946,0,0,1-1.784,0,1.348,1.348,0,0,0-.757-.8,1.378,1.378,0,0,0-.517-.1,1.323,1.323,0,0,0-.579.135.946.946,0,0,1-1.263-1.264,1.352,1.352,0,0,0-.768-1.853.946.946,0,0,1,0-1.784ZM16.213,34.7A13.516,13.516,0,1,1,2.7,48.215,13.515,13.515,0,0,1,16.213,34.7Zm0,0" transform="translate(0.01 -26.59)"/>
      <path id="Trazado_678292" data-name="Trazado 678292" d="M38.414,97.778a1.352,1.352,0,0,0,1.911,0L53.841,84.263,51.93,82.352,39.37,94.912l-3.1-3.1-1.911,1.911Zm0,0" transform="translate(-28.553 -68.44)"/>
    </g>
  </g>
</svg>
