<svg xmlns="http://www.w3.org/2000/svg" width="92" height="92" viewBox="0 0 92 92">
  <g id="Grupo_973427" data-name="Grupo 973427" transform="translate(-741 -2336)">
    <circle id="Elipse_5271" data-name="Elipse 5271" cx="46" cy="46" r="46" transform="translate(741 2336)" fill="#0f58b9"/>
    <g id="Support_Color_Line_Outline" data-name="Support_Color Line Outline" transform="translate(760.273 2350.422)">
      <g id="_15_Request_Support" data-name="15_Request Support" transform="translate(0)">
        <path id="Trazado_678213" data-name="Trazado 678213" d="M59.108,72.181H4V1H52.219l6.888,6.888Z" transform="translate(-2.852 0.148)" fill="#f4fbff"/>
        <path id="Trazado_678214" data-name="Trazado 678214" d="M53.186,10.216V7.888L46.3,1H43.989v9.216Z" transform="translate(3.069 0.148)" fill="#e6e6e6"/>
        <path id="Trazado_678215" data-name="Trazado 678215" d="M7.444,17.073V1H4V72.181H59.108V68.736A51.663,51.663,0,0,1,7.444,17.073Z" transform="translate(-2.852 0.148)" fill="#e4f6ff"/>
        <path id="Trazado_678216" data-name="Trazado 678216" d="M59.256,73.477H4.148A1.148,1.148,0,0,1,3,72.329V1.148A1.148,1.148,0,0,1,4.148,0H52.367a1.148,1.148,0,0,1,.812.336l6.889,6.889a1.148,1.148,0,0,1,.336.812V20.665h-2.3V8.512L51.892,2.3H5.3V71.181H58.108V47.071h2.3V72.329A1.148,1.148,0,0,1,59.256,73.477Z" transform="translate(-3 0)"/>
        <path id="Trazado_678217" data-name="Trazado 678217" d="M53.186,10.216V7.888L46.3,1H43.989v9.216Z" transform="translate(3.069 0.148)" fill="#f2f2f2"/>
        <path id="Trazado_678218" data-name="Trazado 678218" d="M8,31h6.888v6.888H8Z" transform="translate(-2.26 4.59)" fill="#f29500"/>
        <path id="Trazado_678219" data-name="Trazado 678219" d="M8,42h6.888v6.888H8Z" transform="translate(-2.26 6.219)" fill="#f29500"/>
        <path id="Trazado_678220" data-name="Trazado 678220" d="M8,53h6.888v6.888H8Z" transform="translate(-2.26 7.848)" fill="#f29500"/>
        <path id="Trazado_678221" data-name="Trazado 678221" d="M53.334,11.512h-9.2a1.148,1.148,0,0,1-1.148-1.148V1.148A1.148,1.148,0,0,1,44.136,0h2.31a1.148,1.148,0,0,1,.812.336l6.889,6.889a1.148,1.148,0,0,1,.336.812v2.327A1.148,1.148,0,0,1,53.334,11.512Zm-8.05-2.3h6.9v-.7L45.971,2.3h-.689Z" transform="translate(2.921 0)"/>
        <ellipse id="Elipse_5285" data-name="Elipse 5285" cx="12.922" cy="12.542" rx="12.922" ry="12.542" transform="translate(15.693 5.824)" fill="#f4b400"/>
        <path id="Trazado_678222" data-name="Trazado 678222" d="M33.073,26.537A12.629,12.629,0,0,1,22.589,6.868,12.629,12.629,0,1,0,40.113,24.392a12.566,12.566,0,0,1-7.04,2.145Z" transform="translate(-0.927 1.017)" fill="#f29500"/>
        <g id="Grupo_946720" data-name="Grupo 946720" transform="translate(4.592 4.592)">
          <path id="Trazado_678223" data-name="Trazado 678223" d="M29.776,31.554A13.777,13.777,0,1,1,34.511,4.836l-.79,2.156a11.5,11.5,0,1,0,3.833,2.342l1.557-1.688a13.777,13.777,0,0,1-9.336,23.908Z" transform="translate(-5.666 -4)"/>
          <path id="Trazado_678224" data-name="Trazado 678224" d="M15.037,39.185H8.148A1.148,1.148,0,0,1,7,38.037V31.148A1.148,1.148,0,0,1,8.148,30h2.3v2.3H9.3v4.592h4.592V35.863h2.3v2.173A1.148,1.148,0,0,1,15.037,39.185Z" transform="translate(-7 -0.15)"/>
          <path id="Trazado_678225" data-name="Trazado 678225" d="M15.037,50.185H8.148A1.148,1.148,0,0,1,7,49.037V42.148A1.148,1.148,0,0,1,8.148,41h2.3v2.3H9.3v4.592h4.592V46.863h2.3v2.173A1.148,1.148,0,0,1,15.037,50.185Z" transform="translate(-7 1.479)"/>
          <path id="Trazado_678226" data-name="Trazado 678226" d="M15.037,61.185H8.148A1.148,1.148,0,0,1,7,60.037V53.148A1.148,1.148,0,0,1,8.148,52h2.3v2.3H9.3v4.592h4.592V57.863h2.3v2.173A1.148,1.148,0,0,1,15.037,61.185Z" transform="translate(-7 3.108)"/>
          <path id="Trazado_678227" data-name="Trazado 678227" d="M0,0H8.118V2.3H0Z" transform="translate(3.775 33.629) rotate(-45)"/>
          <path id="Trazado_678228" data-name="Trazado 678228" d="M0,0H8.118V2.3H0Z" transform="translate(3.774 46.256) rotate(-45)"/>
          <path id="Trazado_678229" data-name="Trazado 678229" d="M0,0H8.93V2.3H0Z" transform="translate(3.773 58.883) rotate(-45)"/>
          <path id="Trazado_678230" data-name="Trazado 678230" d="M18,33H34.073v2.3H18Z" transform="translate(-5.371 0.295)"/>
          <path id="Trazado_678231" data-name="Trazado 678231" d="M18,44H28.333v2.3H18Z" transform="translate(-5.371 1.923)"/>
          <path id="Trazado_678232" data-name="Trazado 678232" d="M18,55H36.369v2.3H18Z" transform="translate(-5.371 3.552)"/>
          <path id="Trazado_678233" data-name="Trazado 678233" d="M43.393,44.759a1.148,1.148,0,0,1-.813-.344l-4.937-4.937a1.148,1.148,0,0,1,0-1.623L54.112,21.379a1.147,1.147,0,0,1,1.623,0l4.937,4.943a1.148,1.148,0,0,1,0,1.623L44.2,44.414A1.148,1.148,0,0,1,43.393,44.759Zm-3.317-6.085,3.317,3.319,14.849-14.86-3.318-3.318Z" transform="translate(-2.512 -1.476)"/>
        </g>
        <path id="Trazado_678234" data-name="Trazado 678234" d="M0,0H23.3V6.988H0Z" transform="translate(40.524 41.781) rotate(-45)" fill="#f4b400"/>
        <path id="Trazado_678235" data-name="Trazado 678235" d="M43.393,44.759a1.148,1.148,0,0,1-.813-.344l-4.937-4.937a1.148,1.148,0,0,1,0-1.623L54.112,21.379a1.147,1.147,0,0,1,1.623,0l4.937,4.943a1.148,1.148,0,0,1,0,1.623L44.2,44.414A1.148,1.148,0,0,1,43.393,44.759Zm-3.317-6.085,3.317,3.319,14.849-14.86-3.318-3.318Z" transform="translate(2.08 3.116)" fill="#383838"/>
        <path id="Trazado_678236" data-name="Trazado 678236" d="M57.593,27.436,52.656,22.5l2.461-2.476a3.495,3.495,0,1,1,4.942,4.942Z" transform="translate(4.353 2.813)" fill="#db4437"/>
        <path id="Trazado_678237" data-name="Trazado 678237" d="M57.741,28.745a1.148,1.148,0,0,1-.812-.336l-4.937-4.937a1.148,1.148,0,0,1,0-1.623l2.47-2.475a4.642,4.642,0,1,1,6.561,6.561l-2.471,2.471A1.148,1.148,0,0,1,57.741,28.745ZM54.423,22.66l3.318,3.319L59.4,24.315A2.348,2.348,0,0,0,59.4,21a2.4,2.4,0,0,0-3.317,0Z" transform="translate(4.205 2.652)" fill="#383838"/>
        <path id="Trazado_678238" data-name="Trazado 678238" d="M34,45.85,40.589,44.2l-4.941-4.941Z" transform="translate(1.59 5.814)" fill="#f4b400"/>
        <path id="Trazado_678239" data-name="Trazado 678239" d="M34.148,47.146a1.148,1.148,0,0,1-1.114-1.427l1.647-6.589a1.148,1.148,0,0,1,1.925-.533l4.937,4.937a1.148,1.148,0,0,1-.534,1.926l-6.584,1.651a1.148,1.148,0,0,1-.278.034Zm2.27-5.491-.689,2.765,2.766-.689Z" transform="translate(1.442 5.666)" fill="#383838"/>
        <path id="Trazado_678240" data-name="Trazado 678240" d="M0,0H4.659V6.988H0Z" transform="translate(37.229 45.073) rotate(-45)" fill="#db4437"/>
        <path id="Trazado_678241" data-name="Trazado 678241" d="M40.524,45.923a1.148,1.148,0,0,1-.812-.336L34.775,40.65a1.148,1.148,0,0,1,0-1.623l3.295-3.294a1.148,1.148,0,0,1,1.623,0l4.937,4.937a1.148,1.148,0,0,1,0,1.623l-3.294,3.294A1.148,1.148,0,0,1,40.524,45.923Zm-3.318-6.085,3.318,3.318,1.67-1.67-3.317-3.318Z" transform="translate(1.655 5.241)" fill="#383838"/>
        <path id="Trazado_678242" data-name="Trazado 678242" d="M26.069,22.5a1.148,1.148,0,0,1-.812-.336l-3.493-3.493,1.623-1.623,2.681,2.681,8.389-8.39,1.623,1.623-9.2,9.2A1.148,1.148,0,0,1,26.069,22.5Z" transform="translate(-0.221 1.678)" fill="#383838"/>
        <path id="Trazado_678243" data-name="Trazado 678243" d="M51,37h2.3v2.3H51Z" transform="translate(4.108 5.479)" fill="#383838"/>
        <path id="Trazado_678244" data-name="Trazado 678244" d="M29,44h2.3v2.3H29Z" transform="translate(0.85 6.515)" fill="#383838"/>
      </g>
    </g>
  </g>
</svg>
