<svg xmlns="http://www.w3.org/2000/svg" width="89" height="89" viewBox="0 0 89 89">
  <g id="Grupo_973422" data-name="Grupo 973422" transform="translate(-1087.935 -2336.125)">
    <circle id="Elipse_5272" data-name="Elipse 5272" cx="44.5" cy="44.5" r="44.5" transform="translate(1087.935 2336.125)" fill="#0f58b9"/>
    <g id="licencias" transform="translate(1096.786 2349.39)">
      <path id="Trazado_678245" data-name="Trazado 678245" d="M96.016,40.008V104.46h47.742V40.008Zm0,0" transform="translate(-81.689 -34.04)" fill="#e8e8e8"/>
      <path id="Trazado_678246" data-name="Trazado 678246" d="M141.371,48.363l-8.355-8.355h-37v62.065h45.355Zm0,0" transform="translate(-81.689 -34.04)" fill="#afafaf"/>
      <path id="Trazado_678247" data-name="Trazado 678247" d="M64.016,72.46h47.742V18.75L101.016,8.008h-37Zm0,0" transform="translate(-54.463 -6.814)" fill="#f4fbff"/>
      <path id="Trazado_678248" data-name="Trazado 678248" d="M322.758,18.75H312.016V8.008Zm0,0" transform="translate(-265.463 -6.814)" fill="#e8e8e8"/>
      <path id="Trazado_678249" data-name="Trazado 678249" d="M159.4,176.008,120.016,215.4H159.4Zm0,0" transform="translate(-102.108 -149.75)" fill="#e8e8e8"/>
      <path id="Trazado_678250" data-name="Trazado 678250" d="M209.08,339.943H185.209a1.194,1.194,0,0,1-1.194-1.194V329.2a1.194,1.194,0,0,1,1.194-1.194H209.08a1.194,1.194,0,0,1,1.194,1.194v9.548A1.194,1.194,0,0,1,209.08,339.943ZM186.4,337.556h21.484v-7.161H186.4Zm0,0" transform="translate(-156.56 -279.072)" fill="#636363"/>
      <path id="Trazado_678251" data-name="Trazado 678251" d="M216.016,360.008h4.774v2.387h-4.774Zm0,0" transform="translate(-183.786 -306.298)" fill="#348fd9"/>
      <path id="Trazado_678252" data-name="Trazado 678252" d="M264.016,360.008h9.548v2.387h-9.548Zm0,0" transform="translate(-224.624 -306.298)" fill="#636363"/>
      <path id="Trazado_678253" data-name="Trazado 678253" d="M248.016,223.172l7.161-7.161,16.71,16.71-7.161,7.161Zm0,0" transform="translate(-211.012 -183.785)" fill="#e0e0de"/>
      <path id="Trazado_678254" data-name="Trazado 678254" d="M321.919,144.008a7.162,7.162,0,0,0-7.161,7.161v.6L304.016,163.1l5.968,5.968,11.339-10.742h.6a7.161,7.161,0,1,0,0-14.323Zm0,0" transform="translate(-258.657 -122.524)" fill="#95573a"/>
      <path id="Trazado_678255" data-name="Trazado 678255" d="M224.02,267.585,227.6,264l16.71,16.71-3.581,3.581Zm0,0" transform="translate(-190.596 -224.617)" fill="#ebebe9"/>
      <path id="Trazado_678256" data-name="Trazado 678256" d="M341.945,148.246c-4.945,12.5-12.671,18.475-17.84,21.462l2.971,2.97,11.339-10.742h.6a7.161,7.161,0,0,0,2.934-13.69Zm0,0" transform="translate(-275.749 -126.13)" fill="#8f4d2e"/>
      <path id="Trazado_678257" data-name="Trazado 678257" d="M194.582,60.046a2.029,2.029,0,0,0-2.708-2.708,2.029,2.029,0,0,0-3.827,0,2.029,2.029,0,0,0-2.7,2.708,2.029,2.029,0,0,0,0,3.827,2.029,2.029,0,0,0,2.708,2.7,2.029,2.029,0,0,0,3.827,0,2.029,2.029,0,0,0,2.7-2.708,2.029,2.029,0,0,0,0-3.82Zm0,0" transform="translate(-156.54 -47.633)" fill="#ffb531"/>
      <path id="Trazado_678258" data-name="Trazado 678258" d="M84.306,69.136a13.119,13.119,0,0,0-20.29-11V80.132a13.119,13.119,0,0,0,20.29-11Zm0,0" transform="translate(-54.463 -47.652)" fill="#afafaf"/>
      <path id="Trazado_678259" data-name="Trazado 678259" d="M328.016,80.008h8.355v2.387h-8.355Zm0,0" transform="translate(-279.076 -68.072)" fill="#afafaf"/>
      <g id="Grupo_946723" data-name="Grupo 946723" transform="translate(15.52 23.871)">
        <path id="Trazado_678260" data-name="Trazado 678260" d="M152.016,232.008h11.936v2.387H152.016Zm0,0" transform="translate(-144.854 -221.266)" fill="#3fb7c7"/>
        <path id="Trazado_678261" data-name="Trazado 678261" d="M104.016,264.008h14.323v2.387H104.016Zm0,0" transform="translate(-104.016 -248.492)" fill="#3fb7c7"/>
        <path id="Trazado_678262" data-name="Trazado 678262" d="M104.016,200.008H129.08v2.387H104.016Zm0,0" transform="translate(-104.016 -194.04)" fill="#636363"/>
        <path id="Trazado_678263" data-name="Trazado 678263" d="M104.016,296.008h7.161v2.387h-7.161Zm0,0" transform="translate(-104.016 -275.717)" fill="#3fb7c7"/>
        <path id="Trazado_678264" data-name="Trazado 678264" d="M104.016,328.008h9.548v2.387h-9.548Zm0,0" transform="translate(-104.016 -302.943)" fill="#3fb7c7"/>
        <path id="Trazado_678265" data-name="Trazado 678265" d="M104.016,360.008h9.548v2.387h-9.548Zm0,0" transform="translate(-104.016 -330.169)" fill="#3fb7c7"/>
        <path id="Trazado_678266" data-name="Trazado 678266" d="M104.016,392.008h9.548v2.387h-9.548Zm0,0" transform="translate(-104.016 -357.395)" fill="#3fb7c7"/>
        <path id="Trazado_678267" data-name="Trazado 678267" d="M104.016,232.008h4.774v2.387h-4.774Zm0,0" transform="translate(-104.016 -221.266)" fill="#3fb7c7"/>
        <path id="Trazado_678268" data-name="Trazado 678268" d="M168.016,296.008h4.774v2.387h-4.774Zm0,0" transform="translate(-158.467 -275.717)" fill="#3fb7c7"/>
        <path id="Trazado_678269" data-name="Trazado 678269" d="M168.016,160.008h4.774v2.387h-4.774Zm0,0" transform="translate(-158.467 -160.008)" fill="#636363"/>
        <path id="Trazado_678270" data-name="Trazado 678270" d="M216.016,160.008h9.548v2.387h-9.548Zm0,0" transform="translate(-199.306 -160.008)" fill="#3fb7c7"/>
      </g>
      <path id="Trazado_678271" data-name="Trazado 678271" d="M34.274,53.137A13.129,13.129,0,1,1,21.145,40.008,13.129,13.129,0,0,1,34.274,53.137Zm0,0" transform="translate(-6.818 -34.04)" fill="#7eb457"/>
      <path id="Trazado_678272" data-name="Trazado 678272" d="M38.784,96.325a1.194,1.194,0,0,1-.844-.35l-3.581-3.581,1.688-1.688,2.737,2.737L49.876,82.352l1.688,1.688L39.628,95.975A1.194,1.194,0,0,1,38.784,96.325Zm0,0" transform="translate(-29.232 -70.066)" fill="#ffb531"/>
      <path id="Trazado_678273" data-name="Trazado 678273" d="M192.74,111.843a12.972,12.972,0,0,0-.788-2.507A2,2,0,0,0,192.74,111.843Zm0,0" transform="translate(-163.17 -93.025)" fill="#f98500"/>
      <path id="Trazado_678274" data-name="Trazado 678274" d="M185.378,96.091a13.182,13.182,0,0,0-1.222-2.181A1.986,1.986,0,0,0,185.378,96.091Zm0,0" transform="translate(-156.655 -79.9)" fill="#f98500"/>
      <path id="Trazado_678275" data-name="Trazado 678275" d="M389.983,45.137V33.2a1.194,1.194,0,0,0-1.194-1.194h-4.774v2.387H387.6V45.137Zm0,0" transform="translate(-326.721 -27.234)"/>
      <path id="Trazado_678276" data-name="Trazado 678276" d="M56.016,240.008v29.839a1.194,1.194,0,0,0,1.194,1.194h47.742a1.194,1.194,0,0,0,1.194-1.194v-8.355h-2.387v7.161H58.4V240.008Zm0,0" transform="translate(-47.657 -204.201)"/>
      <path id="Trazado_678277" data-name="Trazado 678277" d="M94.7.127C94.666.11,94.631.1,94.592.088a1.187,1.187,0,0,0-.309-.062.455.455,0,0,0-.074-.018h-37A1.194,1.194,0,0,0,56.016,1.2V3.588H58.4V2.395H93.016v9.548a1.194,1.194,0,0,0,1.194,1.194h9.548V19.1h2.387V11.943c0-.025-.013-.048-.015-.074a1.162,1.162,0,0,0-.062-.309c-.013-.038-.023-.074-.04-.111a1.186,1.186,0,0,0-.238-.35L95.049.357A1.2,1.2,0,0,0,94.7.127ZM102.07,10.75H95.4V4.083Zm0,0" transform="translate(-47.657 -0.008)"/>
      <path id="Trazado_678278" data-name="Trazado 678278" d="M184.016,329.2v9.548a1.194,1.194,0,0,0,1.194,1.194h15.516v-2.387H186.4v-7.161h5.968v-2.387h-7.161A1.194,1.194,0,0,0,184.016,329.2Zm0,0" transform="translate(-156.56 -279.072)"/>
      <path id="Trazado_678279" data-name="Trazado 678279" d="M216.016,360.008h7.161v2.387h-7.161Zm0,0" transform="translate(-183.786 -306.298)"/>
      <path id="Trazado_678280" data-name="Trazado 678280" d="M144.951,136.008a8.366,8.366,0,0,0-8.355,8.355v.119l-6.087,6.426L126.7,147.1a1.193,1.193,0,0,0-1.688,0l-10.742,10.742a1.194,1.194,0,0,0,0,1.688l16.71,16.71a1.194,1.194,0,0,0,1.688,0l3.581-3.581,6.317-6.315v18.6H96.016v2.387h47.742a1.194,1.194,0,0,0,1.194-1.194V157.492h-2.387v5.474L138.4,158.8l6.428-6.087h.119a8.355,8.355,0,1,0,0-16.71Zm-13.129,37.7L116.8,158.685l1.893-1.893,15.022,15.022Zm9.054-9.054-5.474,5.474L120.381,155.1l5.474-5.474,3.012,3.012-2.686,2.834a1.194,1.194,0,0,0,.023,1.671l5.968,5.968a1.193,1.193,0,0,0,1.664.023l2.835-2.686Zm4.075-14.323h-.6a1.2,1.2,0,0,0-.821.327L133.039,160.6l-4.32-4.32,9.942-10.495a1.193,1.193,0,0,0,.322-.821v-.6a5.968,5.968,0,1,1,5.968,5.968Zm0,0" transform="translate(-81.689 -115.717)"/>
      <path id="Trazado_678281" data-name="Trazado 678281" d="M152.016,232.008h11.936v2.387H152.016Zm0,0" transform="translate(-129.334 -197.395)"/>
      <path id="Trazado_678282" data-name="Trazado 678282" d="M104.016,264.008h14.323v2.387H104.016Zm0,0" transform="translate(-88.496 -224.62)"/>
      <path id="Trazado_678283" data-name="Trazado 678283" d="M176.016,200.008h14.323v2.387H176.016Zm0,0" transform="translate(-149.754 -170.169)"/>
      <path id="Trazado_678284" data-name="Trazado 678284" d="M104.016,296.008h7.161v2.387h-7.161Zm0,0" transform="translate(-88.496 -251.846)"/>
      <path id="Trazado_678285" data-name="Trazado 678285" d="M104.016,328.008h9.548v2.387h-9.548Zm0,0" transform="translate(-88.496 -279.072)"/>
      <path id="Trazado_678286" data-name="Trazado 678286" d="M104.016,360.008h9.548v2.387h-9.548Zm0,0" transform="translate(-88.496 -306.298)"/>
      <path id="Trazado_678287" data-name="Trazado 678287" d="M104.016,392.008h9.548v2.387h-9.548Zm0,0" transform="translate(-88.496 -333.524)"/>
      <path id="Trazado_678288" data-name="Trazado 678288" d="M104.016,232.008h4.774v2.387h-4.774Zm0,0" transform="translate(-88.496 -197.395)"/>
      <path id="Trazado_678289" data-name="Trazado 678289" d="M168.016,296.008h4.774v2.387h-4.774Zm0,0" transform="translate(-142.947 -251.846)"/>
      <path id="Trazado_678290" data-name="Trazado 678290" d="M200.016,160.008h11.936v2.387H200.016Zm0,0" transform="translate(-170.173 -136.137)"/>
      <path id="Trazado_678291" data-name="Trazado 678291" d="M14.316,60.641a14.323,14.323,0,0,0,14.3-13.821,3.155,3.155,0,0,0,2.314.723,3.237,3.237,0,0,0,4.97,0,3.238,3.238,0,0,0,3.514-3.514,3.237,3.237,0,0,0,0-4.97A3.238,3.238,0,0,0,35.9,35.546a3.237,3.237,0,0,0-4.97,0,3.238,3.238,0,0,0-3.514,3.514,3.1,3.1,0,0,0-.477.492,14.323,14.323,0,1,0-12.621,21.09ZM29.195,40.756a1.193,1.193,0,0,0,.678-1.636A.835.835,0,0,1,30.989,38a1.193,1.193,0,0,0,1.636-.678.836.836,0,0,1,1.576,0A1.193,1.193,0,0,0,35.838,38a.835.835,0,0,1,1.115,1.116,1.193,1.193,0,0,0,.678,1.636.836.836,0,0,1,0,1.576,1.193,1.193,0,0,0-.678,1.636.8.8,0,0,1-.164.955.813.813,0,0,1-.955.165,1.193,1.193,0,0,0-1.636.678.836.836,0,0,1-1.576,0,1.191,1.191,0,0,0-.668-.7,1.217,1.217,0,0,0-.457-.091,1.169,1.169,0,0,0-.511.119.835.835,0,0,1-1.115-1.116,1.194,1.194,0,0,0-.678-1.636.835.835,0,0,1,0-1.575ZM14.316,34.383A11.936,11.936,0,1,1,2.381,46.319,11.935,11.935,0,0,1,14.316,34.383Zm0,0" transform="translate(0.01 -27.222)"/>
      <path id="Trazado_678292" data-name="Trazado 678292" d="M37.94,95.975a1.194,1.194,0,0,0,1.688,0L51.563,84.039l-1.688-1.688L38.784,93.443l-2.737-2.737-1.688,1.688Zm0,0" transform="translate(-29.232 -70.066)"/>
    </g>
  </g>
</svg>
