<svg id="Grupo_973785" data-name="Grupo 973785" xmlns="http://www.w3.org/2000/svg" xmlns:xlink="http://www.w3.org/1999/xlink" width="385.518" height="326" viewBox="0 0 385.518 326">
  <defs>
    <clipPath id="clip-path">
      <path id="Trazado_699185" data-name="Trazado 699185" d="M0,0H385.518V326H0Z" fill="none"/>
    </clipPath>
    <clipPath id="clip-path-2">
      <rect id="Rectángulo_339783" data-name="Rectángulo 339783" width="385.518" height="326" fill="none"/>
    </clipPath>
  </defs>
  <g id="Grupo_973780" data-name="Grupo 973780">
    <g id="Enmascarar_grupo_88" data-name="Enmascarar grupo 88" clip-path="url(#clip-path)">
      <path id="Trazado_699095" data-name="Trazado 699095" d="M116.08,103.219l-24.17-39.9q-1.092.651-2.172,1.324l24.17,39.909q1.075-.68,2.172-1.328" transform="translate(37.07 26.155)" fill="#ae5b26"/>
      <path id="Trazado_699096" data-name="Trazado 699096" d="M152.089,97.373l-3.172-46.522A126.442,126.442,0,0,0,91.275,68.462l24.17,39.9a80.065,80.065,0,0,1,36.644-10.994" transform="translate(37.705 21.006)" fill="#fcb040"/>
      <path id="Trazado_699097" data-name="Trazado 699097" d="M139.383,97.331a80.169,80.169,0,0,1,49.053,16.679l26.147-38.7a126.593,126.593,0,0,0-75.2-24.615c-2.456,0-4.895.078-7.317.215l3.171,46.522q2.06-.1,4.146-.1" transform="translate(54.556 20.944)" fill="#f7941d"/>
      <path id="Trazado_699098" data-name="Trazado 699098" d="M190.4,126.752l39.168-25.344A127.868,127.868,0,0,0,198.1,68.117l-26.147,38.7A80.882,80.882,0,0,1,190.4,126.752" transform="translate(71.035 28.139)" fill="#c78c3a"/>
      <path id="Trazado_699099" data-name="Trazado 699099" d="M244.306,91.676l-39.168,25.345a80.527,80.527,0,0,1-67.5,124.475c-.456,0-.9-.027-1.358-.035v46.652c.452,0,.9.016,1.358.016A127.189,127.189,0,0,0,244.306,91.676" transform="translate(56.298 37.871)" fill="#f16e2a"/>
      <path id="Trazado_699100" data-name="Trazado 699100" d="M93.876,168.375a80.325,80.325,0,0,1,27.331-60.437L89.511,73.7a127.167,127.167,0,0,0,83.554,221.835V248.888a80.532,80.532,0,0,1-79.189-80.513" transform="translate(19.516 30.446)" fill="#ef3f36"/>
      <path id="Trazado_699101" data-name="Trazado 699101" d="M111.011,106.573,79.3,72.318c-.681.585-1.352,1.18-2.021,1.779l31.7,34.235c.673-.593,1.342-1.188,2.035-1.759" transform="translate(31.924 29.874)" fill="#049447"/>
      <path id="Trazado_699102" data-name="Trazado 699102" d="M118.681,103.993,94.511,64.084A127.619,127.619,0,0,0,78.751,75.66l31.711,34.255a80.748,80.748,0,0,1,8.219-5.922" transform="translate(32.532 26.473)" fill="#f6ed31"/>
      <path id="Trazado_699103" data-name="Trazado 699103" d="M57.783,66.2l12.011.707,15.54,9.719" transform="translate(23.87 27.347)" fill="none" stroke="#3d3d3d" stroke-miterlimit="10" stroke-width="1"/>
      <path id="Trazado_699104" data-name="Trazado 699104" d="M53.783,36.7,85.578,50.83l12.011,32.5" transform="translate(22.218 15.16)" fill="none" stroke="#3d3d3d" stroke-miterlimit="10" stroke-width="1"/>
      <path id="Trazado_699181" data-name="Trazado 699181" d="M2.183,0,0,42.468" transform="translate(126.809 48.326)" fill="none" stroke="#3d3d3d" stroke-width="1"/>
      <path id="Trazado_699105" data-name="Trazado 699105" d="M111.783,67.82l55.111-30.382V33.2" transform="translate(46.177 13.714)" fill="none" stroke="#3d3d3d" stroke-miterlimit="10" stroke-width="1"/>
      <path id="Trazado_699182" data-name="Trazado 699182" d="M0,16.251,26.142,0" transform="translate(241.333 74.469)" fill="none" stroke="#3d3d3d" stroke-width="1"/>
      <path id="Trazado_699106" data-name="Trazado 699106" d="M199.783,93.656,222.393,76.7h11.3" transform="translate(82.53 31.684)" fill="none" stroke="#3d3d3d" stroke-miterlimit="10" stroke-width="1"/>
      <path id="Trazado_699183" data-name="Trazado 699183" d="M0,0,9.892,26.849" transform="translate(315.521 244.747)" fill="none" stroke="#3d3d3d" stroke-width="1"/>
      <path id="Trazado_699184" data-name="Trazado 699184" d="M6.311-6.977H3.8V0H2.771V-6.977H.263V-7.82H6.311ZM9.326-4.92a2.978,2.978,0,0,0-.489-.038,1.309,1.309,0,0,0-1.327.833V0H6.517V-5.812h.967L7.5-5.14a1.547,1.547,0,0,1,1.386-.779,1.015,1.015,0,0,1,.44.075ZM13.4,0a2.087,2.087,0,0,1-.14-.612,2.217,2.217,0,0,1-1.654.72A2.051,2.051,0,0,1,10.2-.379a1.573,1.573,0,0,1-.551-1.233,1.643,1.643,0,0,1,.69-1.41,3.254,3.254,0,0,1,1.942-.5h.967V-3.98a1.116,1.116,0,0,0-.312-.83,1.252,1.252,0,0,0-.918-.309,1.449,1.449,0,0,0-.892.269.791.791,0,0,0-.36.65h-1a1.371,1.371,0,0,1,.309-.841,2.108,2.108,0,0,1,.838-.642,2.819,2.819,0,0,1,1.163-.236,2.3,2.3,0,0,1,1.574.5,1.812,1.812,0,0,1,.591,1.383v2.675a3.27,3.27,0,0,0,.2,1.273V0ZM11.754-.757A1.746,1.746,0,0,0,12.64-1a1.462,1.462,0,0,0,.607-.628V-2.82h-.779q-1.826,0-1.826,1.069a.9.9,0,0,0,.312.73A1.2,1.2,0,0,0,11.754-.757Zm4.984-5.054.032.73a2.118,2.118,0,0,1,1.74-.838q1.842,0,1.858,2.079V0h-.994V-3.846a1.338,1.338,0,0,0-.287-.929,1.152,1.152,0,0,0-.878-.3,1.434,1.434,0,0,0-.849.258,1.751,1.751,0,0,0-.569.677V0H15.8V-5.812Zm8.513,4.27a.732.732,0,0,0-.3-.626,2.921,2.921,0,0,0-1.058-.384,5,5,0,0,1-1.2-.387,1.7,1.7,0,0,1-.655-.537,1.285,1.285,0,0,1-.212-.741,1.508,1.508,0,0,1,.6-1.208,2.36,2.36,0,0,1,1.544-.494,2.428,2.428,0,0,1,1.6.51A1.621,1.621,0,0,1,26.191-4.1h-1a.9.9,0,0,0-.346-.7,1.3,1.3,0,0,0-.873-.3,1.358,1.358,0,0,0-.849.236.744.744,0,0,0-.306.618.6.6,0,0,0,.285.542,3.5,3.5,0,0,0,1.029.349,5.359,5.359,0,0,1,1.206.4,1.759,1.759,0,0,1,.685.556,1.367,1.367,0,0,1,.223.792,1.487,1.487,0,0,1-.623,1.249,2.613,2.613,0,0,1-1.617.47A2.926,2.926,0,0,1,22.77-.14a2.009,2.009,0,0,1-.841-.69,1.664,1.664,0,0,1-.3-.959h.994a1.029,1.029,0,0,0,.4.792,1.552,1.552,0,0,0,.986.293,1.6,1.6,0,0,0,.905-.228A.7.7,0,0,0,25.251-1.542Zm7.2-1.3A3.48,3.48,0,0,1,31.842-.7,1.945,1.945,0,0,1,30.2.107a2.131,2.131,0,0,1-1.665-.671v2.8H27.54V-5.812h.908l.048.645a2.047,2.047,0,0,1,1.687-.752,1.982,1.982,0,0,1,1.657.79,3.518,3.518,0,0,1,.61,2.2Zm-.994-.113a2.568,2.568,0,0,0-.419-1.552,1.35,1.35,0,0,0-1.149-.569,1.461,1.461,0,0,0-1.354.8V-1.5A1.464,1.464,0,0,0,29.9-.7a1.343,1.343,0,0,0,1.136-.567A2.8,2.8,0,0,0,31.455-2.954Zm1.993-.005A3.433,3.433,0,0,1,33.783-4.5a2.5,2.5,0,0,1,.935-1.053,2.544,2.544,0,0,1,1.367-.371,2.451,2.451,0,0,1,1.92.822,3.162,3.162,0,0,1,.733,2.186v.07a3.463,3.463,0,0,1-.325,1.523,2.467,2.467,0,0,1-.929,1.05A2.573,2.573,0,0,1,36.1.107a2.445,2.445,0,0,1-1.915-.822,3.146,3.146,0,0,1-.733-2.175Zm1,.118A2.486,2.486,0,0,0,34.9-1.289,1.435,1.435,0,0,0,36.1-.7,1.427,1.427,0,0,0,37.3-1.3a2.719,2.719,0,0,0,.446-1.662,2.482,2.482,0,0,0-.454-1.55A1.443,1.443,0,0,0,36.085-5.1a1.427,1.427,0,0,0-1.187.585A2.7,2.7,0,0,0,34.447-2.841ZM42.793-4.92a2.978,2.978,0,0,0-.489-.038,1.309,1.309,0,0,0-1.327.833V0h-.994V-5.812h.967l.016.671a1.547,1.547,0,0,1,1.386-.779,1.015,1.015,0,0,1,.44.075Zm2.794-2.3v1.407h1.085v.768H45.587v3.609a.807.807,0,0,0,.145.524.61.61,0,0,0,.494.175A2.406,2.406,0,0,0,46.7-.8V0a2.9,2.9,0,0,1-.763.107,1.237,1.237,0,0,1-1-.4,1.731,1.731,0,0,1-.338-1.144v-3.6H43.535v-.768h1.058V-7.219ZM50.244.107a2.539,2.539,0,0,1-1.923-.776,2.881,2.881,0,0,1-.741-2.076v-.183a3.487,3.487,0,0,1,.33-1.544,2.577,2.577,0,0,1,.924-1.063,2.323,2.323,0,0,1,1.286-.384,2.177,2.177,0,0,1,1.762.747,3.232,3.232,0,0,1,.628,2.138v.414H48.574a2.066,2.066,0,0,0,.5,1.388A1.579,1.579,0,0,0,50.3-.7a1.731,1.731,0,0,0,.892-.215,2.24,2.24,0,0,0,.639-.569l.607.473A2.44,2.44,0,0,1,50.244.107ZM50.12-5.1a1.325,1.325,0,0,0-1.01.438,2.128,2.128,0,0,0-.5,1.227h2.911v-.075a1.893,1.893,0,0,0-.408-1.174A1.248,1.248,0,0,0,50.12-5.1Z" transform="translate(0 266.758)"/>
    </g>
  </g>
  <path id="Trazado_699166" data-name="Trazado 699166" d="M4.845-2.626H5.93v.811H4.845V0h-1V-1.815H.285V-2.4l3.5-5.419H4.845Zm-3.432,0H3.846V-6.461l-.118.215ZM11.73-3.335a4.545,4.545,0,0,1-.6,2.594A2.12,2.12,0,0,1,9.271.107a2.136,2.136,0,0,1-1.853-.83A4.313,4.313,0,0,1,6.794-3.2V-4.528a4.443,4.443,0,0,1,.6-2.562A2.137,2.137,0,0,1,9.26-7.928a2.156,2.156,0,0,1,1.858.808,4.288,4.288,0,0,1,.612,2.495Zm-.994-1.359a3.641,3.641,0,0,0-.354-1.84A1.22,1.22,0,0,0,9.26-7.111a1.2,1.2,0,0,0-1.112.575,3.555,3.555,0,0,0-.36,1.767v1.59a3.7,3.7,0,0,0,.368,1.872,1.218,1.218,0,0,0,1.115.6,1.2,1.2,0,0,0,1.093-.569,3.566,3.566,0,0,0,.373-1.794Zm2.39,4.173a.622.622,0,0,1,.153-.43.583.583,0,0,1,.459-.172.6.6,0,0,1,.465.172.61.61,0,0,1,.158.43.577.577,0,0,1-.158.414.612.612,0,0,1-.465.167.594.594,0,0,1-.459-.167A.588.588,0,0,1,13.127-.521Zm6.58-2.917a2.431,2.431,0,0,1-.744.6,2.018,2.018,0,0,1-.948.226,2.084,2.084,0,0,1-1.179-.333,2.165,2.165,0,0,1-.776-.937,3.2,3.2,0,0,1-.274-1.335,3.256,3.256,0,0,1,.3-1.413,2.19,2.19,0,0,1,.846-.961,2.412,2.412,0,0,1,1.278-.333,2.184,2.184,0,0,1,1.829.867,3.784,3.784,0,0,1,.669,2.366v.29a5.055,5.055,0,0,1-.9,3.333A3.467,3.467,0,0,1,17.08.005h-.193V-.838H17.1a2.736,2.736,0,0,0,1.891-.641A2.748,2.748,0,0,0,19.707-3.437Zm-1.531,0a1.534,1.534,0,0,0,.921-.306,1.8,1.8,0,0,0,.615-.757v-.4a2.734,2.734,0,0,0-.424-1.59A1.266,1.266,0,0,0,18.213-7.1a1.276,1.276,0,0,0-1.053.5,2.072,2.072,0,0,0-.4,1.324,2.156,2.156,0,0,0,.384,1.319A1.216,1.216,0,0,0,18.176-3.437Zm8.8.1a4.545,4.545,0,0,1-.6,2.594,2.12,2.12,0,0,1-1.864.849,2.136,2.136,0,0,1-1.853-.83A4.313,4.313,0,0,1,22.043-3.2V-4.528a4.443,4.443,0,0,1,.6-2.562,2.137,2.137,0,0,1,1.869-.838,2.156,2.156,0,0,1,1.858.808,4.288,4.288,0,0,1,.612,2.495Zm-.994-1.359a3.641,3.641,0,0,0-.354-1.84,1.22,1.22,0,0,0-1.123-.577,1.2,1.2,0,0,0-1.112.575,3.555,3.555,0,0,0-.36,1.767v1.59A3.7,3.7,0,0,0,23.4-1.308a1.218,1.218,0,0,0,1.115.6,1.2,1.2,0,0,0,1.093-.569,3.566,3.566,0,0,0,.373-1.794Zm4.9-1.622a1.587,1.587,0,0,1,.448-1.16,1.545,1.545,0,0,1,1.152-.457,1.536,1.536,0,0,1,1.157.459,1.642,1.642,0,0,1,.443,1.19V-5.9a1.566,1.566,0,0,1-.448,1.157A1.546,1.546,0,0,1,32.5-4.3a1.58,1.58,0,0,1-1.155-.448,1.6,1.6,0,0,1-.457-1.2Zm.741.411a1.016,1.016,0,0,0,.236.692.8.8,0,0,0,.634.272.782.782,0,0,0,.615-.264,1.05,1.05,0,0,0,.234-.721V-6.32a1.042,1.042,0,0,0-.231-.694.778.778,0,0,0-.628-.275.778.778,0,0,0-.628.275,1.075,1.075,0,0,0-.231.716ZM34.7-1.917a1.578,1.578,0,0,1,.448-1.157A1.55,1.55,0,0,1,36.3-3.529a1.564,1.564,0,0,1,1.155.451,1.619,1.619,0,0,1,.451,1.2V-1.5a1.578,1.578,0,0,1-.448,1.157,1.543,1.543,0,0,1-1.147.454,1.58,1.58,0,0,1-1.155-.448,1.6,1.6,0,0,1-.457-1.2Zm.741.417a1.024,1.024,0,0,0,.236.7.8.8,0,0,0,.634.272A.776.776,0,0,0,36.926-.8a1.068,1.068,0,0,0,.231-.724v-.4a1.021,1.021,0,0,0-.234-.694.787.787,0,0,0-.626-.269.8.8,0,0,0-.62.266,1.036,1.036,0,0,0-.239.719Zm-2.712.91-.564-.354,3.819-6.112.564.354Z" transform="translate(10.168 282.019)"/>
  <path id="Trazado_699167" data-name="Trazado 699167" d="M5.226-2.046H1.95L1.214,0H.15L3.137-7.82h.9L7.031,0H5.973ZM2.261-2.89H4.92L3.588-6.547Zm5.43-.064A3.416,3.416,0,0,1,8.32-5.116a2.01,2.01,0,0,1,1.665-.8,2,2,0,0,1,1.66.752l.048-.645H12.6V-.14a2.364,2.364,0,0,1-.669,1.778,2.468,2.468,0,0,1-1.8.65,2.989,2.989,0,0,1-1.23-.269,2.117,2.117,0,0,1-.918-.736L8.5.688a1.943,1.943,0,0,0,1.563.79A1.522,1.522,0,0,0,11.2,1.069,1.56,1.56,0,0,0,11.6-.081v-.5A2.042,2.042,0,0,1,9.974.107,1.985,1.985,0,0,1,8.323-.714,3.591,3.591,0,0,1,7.691-2.954Zm1,.113a2.606,2.606,0,0,0,.4,1.544,1.309,1.309,0,0,0,1.128.561A1.456,1.456,0,0,0,11.6-1.59V-4.243a1.473,1.473,0,0,0-1.37-.833A1.321,1.321,0,0,0,9.1-4.512,2.838,2.838,0,0,0,8.69-2.841ZM16.908-4.92a2.978,2.978,0,0,0-.489-.038,1.309,1.309,0,0,0-1.327.833V0H14.1V-5.812h.967l.016.671a1.547,1.547,0,0,1,1.386-.779,1.015,1.015,0,0,1,.44.075Zm.443,1.96A3.433,3.433,0,0,1,17.687-4.5a2.5,2.5,0,0,1,.935-1.053,2.544,2.544,0,0,1,1.367-.371,2.451,2.451,0,0,1,1.92.822,3.162,3.162,0,0,1,.733,2.186v.07a3.462,3.462,0,0,1-.325,1.523,2.467,2.467,0,0,1-.929,1.05A2.573,2.573,0,0,1,20,.107a2.445,2.445,0,0,1-1.915-.822,3.146,3.146,0,0,1-.733-2.175Zm1,.118A2.486,2.486,0,0,0,18.8-1.289,1.435,1.435,0,0,0,20-.7,1.427,1.427,0,0,0,21.2-1.3a2.719,2.719,0,0,0,.446-1.662,2.482,2.482,0,0,0-.454-1.55A1.443,1.443,0,0,0,19.989-5.1a1.427,1.427,0,0,0-1.187.585A2.7,2.7,0,0,0,18.351-2.841Zm10.447,0A3.48,3.48,0,0,1,28.191-.7a1.945,1.945,0,0,1-1.644.811,2.131,2.131,0,0,1-1.665-.671v2.8h-.994V-5.812H24.8l.048.645a2.047,2.047,0,0,1,1.687-.752,1.982,1.982,0,0,1,1.657.79,3.518,3.518,0,0,1,.61,2.2ZM27.8-2.954a2.568,2.568,0,0,0-.419-1.552,1.35,1.35,0,0,0-1.149-.569,1.461,1.461,0,0,0-1.354.8V-1.5A1.464,1.464,0,0,0,26.246-.7a1.343,1.343,0,0,0,1.136-.567A2.8,2.8,0,0,0,27.8-2.954ZM32.471.107a2.539,2.539,0,0,1-1.923-.776,2.881,2.881,0,0,1-.741-2.076v-.183a3.487,3.487,0,0,1,.33-1.544,2.577,2.577,0,0,1,.924-1.063,2.323,2.323,0,0,1,1.286-.384,2.177,2.177,0,0,1,1.762.747,3.232,3.232,0,0,1,.628,2.138v.414H30.8a2.066,2.066,0,0,0,.5,1.388A1.579,1.579,0,0,0,32.525-.7a1.731,1.731,0,0,0,.892-.215,2.24,2.24,0,0,0,.639-.569l.607.473A2.44,2.44,0,0,1,32.471.107ZM32.348-5.1a1.325,1.325,0,0,0-1.01.438,2.128,2.128,0,0,0-.5,1.227h2.911v-.075a1.893,1.893,0,0,0-.408-1.174A1.248,1.248,0,0,0,32.348-5.1ZM38.218-.7a1.431,1.431,0,0,0,.929-.322,1.134,1.134,0,0,0,.44-.806h.94a1.8,1.8,0,0,1-.344.951,2.264,2.264,0,0,1-.846.72,2.441,2.441,0,0,1-1.12.269A2.394,2.394,0,0,1,36.33-.685a3.155,3.155,0,0,1-.7-2.167v-.167a3.5,3.5,0,0,1,.312-1.509,2.373,2.373,0,0,1,.894-1.026,2.54,2.54,0,0,1,1.378-.365,2.331,2.331,0,0,1,1.625.585,2.092,2.092,0,0,1,.69,1.52h-.94a1.369,1.369,0,0,0-.427-.927,1.328,1.328,0,0,0-.948-.363,1.391,1.391,0,0,0-1.174.545,2.56,2.56,0,0,0-.416,1.576v.188a2.509,2.509,0,0,0,.414,1.547A1.4,1.4,0,0,0,38.218-.7Zm7.015.129a2.111,2.111,0,0,1-1.7.682,1.807,1.807,0,0,1-1.415-.54,2.336,2.336,0,0,1-.491-1.6V-5.812h.994v3.754q0,1.321,1.074,1.321a1.487,1.487,0,0,0,1.515-.849V-5.812H46.2V0h-.945ZM51.3,0a2.087,2.087,0,0,1-.14-.612A2.217,2.217,0,0,1,49.5.107a2.051,2.051,0,0,1-1.41-.486,1.573,1.573,0,0,1-.551-1.233,1.643,1.643,0,0,1,.69-1.41,3.254,3.254,0,0,1,1.942-.5h.967V-3.98a1.116,1.116,0,0,0-.312-.83,1.252,1.252,0,0,0-.918-.309,1.449,1.449,0,0,0-.892.269.791.791,0,0,0-.36.65h-1a1.371,1.371,0,0,1,.309-.841,2.108,2.108,0,0,1,.838-.642,2.819,2.819,0,0,1,1.163-.236,2.3,2.3,0,0,1,1.574.5,1.812,1.812,0,0,1,.591,1.383v2.675a3.27,3.27,0,0,0,.2,1.273V0ZM49.648-.757A1.746,1.746,0,0,0,50.534-1a1.462,1.462,0,0,0,.607-.628V-2.82h-.779q-1.826,0-1.826,1.069a.9.9,0,0,0,.312.73A1.2,1.2,0,0,0,49.648-.757ZM56.5-4.92a2.978,2.978,0,0,0-.489-.038,1.309,1.309,0,0,0-1.327.833V0h-.994V-5.812h.967l.016.671a1.547,1.547,0,0,1,1.386-.779,1.015,1.015,0,0,1,.44.075ZM58.494,0H57.5V-5.812h.994ZM57.42-7.353a.593.593,0,0,1,.148-.408.555.555,0,0,1,.438-.167.563.563,0,0,1,.44.167.587.587,0,0,1,.15.408.568.568,0,0,1-.15.4.573.573,0,0,1-.44.161.565.565,0,0,1-.438-.161A.573.573,0,0,1,57.42-7.353Zm2.4,4.394A3.433,3.433,0,0,1,60.157-4.5a2.5,2.5,0,0,1,.935-1.053,2.544,2.544,0,0,1,1.367-.371,2.451,2.451,0,0,1,1.92.822,3.162,3.162,0,0,1,.733,2.186v.07a3.462,3.462,0,0,1-.325,1.523,2.467,2.467,0,0,1-.929,1.05,2.573,2.573,0,0,1-1.388.376,2.445,2.445,0,0,1-1.915-.822,3.146,3.146,0,0,1-.733-2.175Zm1,.118a2.486,2.486,0,0,0,.448,1.552,1.435,1.435,0,0,0,1.2.585,1.427,1.427,0,0,0,1.2-.594,2.719,2.719,0,0,0,.446-1.662,2.482,2.482,0,0,0-.454-1.55A1.443,1.443,0,0,0,62.458-5.1a1.427,1.427,0,0,0-1.187.585A2.7,2.7,0,0,0,60.82-2.841Z" transform="translate(9.049 83.061)"/>
  <path id="Trazado_699168" data-name="Trazado 699168" d="M5.554-3.335a4.545,4.545,0,0,1-.6,2.594A2.12,2.12,0,0,1,3.094.107a2.136,2.136,0,0,1-1.853-.83A4.313,4.313,0,0,1,.618-3.2V-4.528a4.443,4.443,0,0,1,.6-2.562,2.137,2.137,0,0,1,1.869-.838,2.156,2.156,0,0,1,1.858.808,4.288,4.288,0,0,1,.612,2.495ZM4.56-4.694a3.641,3.641,0,0,0-.354-1.84,1.22,1.22,0,0,0-1.123-.577,1.2,1.2,0,0,0-1.112.575,3.555,3.555,0,0,0-.36,1.767v1.59a3.7,3.7,0,0,0,.368,1.872,1.218,1.218,0,0,0,1.115.6,1.2,1.2,0,0,0,1.093-.569A3.566,3.566,0,0,0,4.56-3.067ZM6.95-.521A.622.622,0,0,1,7.1-.951a.583.583,0,0,1,.459-.172.6.6,0,0,1,.465.172.61.61,0,0,1,.158.43.577.577,0,0,1-.158.414.612.612,0,0,1-.465.167A.594.594,0,0,1,7.1-.107.588.588,0,0,1,6.95-.521ZM12.987,0h-1V-6.623l-2,.736v-.9l2.847-1.069h.156Zm7.96-7.262L17.708,0H16.667l3.228-7H15.662V-7.82h5.285Zm3.765.945a1.587,1.587,0,0,1,.448-1.16,1.545,1.545,0,0,1,1.152-.457,1.536,1.536,0,0,1,1.157.459,1.642,1.642,0,0,1,.443,1.19V-5.9a1.566,1.566,0,0,1-.448,1.157,1.546,1.546,0,0,1-1.141.448,1.58,1.58,0,0,1-1.155-.448,1.6,1.6,0,0,1-.457-1.2Zm.741.411a1.016,1.016,0,0,0,.236.692.8.8,0,0,0,.634.272.782.782,0,0,0,.615-.264,1.05,1.05,0,0,0,.234-.721V-6.32a1.042,1.042,0,0,0-.231-.694.778.778,0,0,0-.628-.275.778.778,0,0,0-.628.275,1.075,1.075,0,0,0-.231.716Zm3.067,3.988a1.578,1.578,0,0,1,.448-1.157,1.55,1.55,0,0,1,1.152-.454,1.564,1.564,0,0,1,1.155.451,1.619,1.619,0,0,1,.451,1.2V-1.5a1.578,1.578,0,0,1-.448,1.157,1.543,1.543,0,0,1-1.147.454,1.58,1.58,0,0,1-1.155-.448,1.6,1.6,0,0,1-.457-1.2Zm.741.417a1.024,1.024,0,0,0,.236.7.8.8,0,0,0,.634.272A.776.776,0,0,0,30.75-.8a1.068,1.068,0,0,0,.231-.724v-.4a1.021,1.021,0,0,0-.234-.694.787.787,0,0,0-.626-.269.8.8,0,0,0-.62.266,1.036,1.036,0,0,0-.239.719Zm-2.712.91-.564-.354L29.8-7.058l.564.354Z" transform="translate(29.982 98.322)"/>
  <path id="Trazado_699169" data-name="Trazado 699169" d="M2.24-7.82,4.8-1.439,7.353-7.82H8.69V0H7.659V-3.045l.1-3.287L5.188,0H4.4L1.837-6.316l.1,3.271V0H.908V-7.82ZM11.435,0h-.994V-5.812h.994ZM10.361-7.353a.593.593,0,0,1,.148-.408.555.555,0,0,1,.438-.167.563.563,0,0,1,.44.167.587.587,0,0,1,.15.408.568.568,0,0,1-.15.4.573.573,0,0,1-.44.161.565.565,0,0,1-.438-.161A.573.573,0,0,1,10.361-7.353Zm3.6,1.542.032.73a2.118,2.118,0,0,1,1.74-.838q1.842,0,1.858,2.079V0H16.6V-3.846a1.338,1.338,0,0,0-.287-.929,1.152,1.152,0,0,0-.878-.3,1.434,1.434,0,0,0-.849.258,1.751,1.751,0,0,0-.569.677V0h-.994V-5.812ZM21.506.107a2.539,2.539,0,0,1-1.923-.776,2.881,2.881,0,0,1-.741-2.076v-.183a3.487,3.487,0,0,1,.33-1.544A2.577,2.577,0,0,1,20.1-5.535a2.323,2.323,0,0,1,1.286-.384,2.177,2.177,0,0,1,1.762.747,3.232,3.232,0,0,1,.628,2.138v.414H19.835a2.066,2.066,0,0,0,.5,1.388A1.579,1.579,0,0,0,21.56-.7a1.731,1.731,0,0,0,.892-.215,2.24,2.24,0,0,0,.639-.569l.607.473A2.44,2.44,0,0,1,21.506.107ZM21.382-5.1a1.325,1.325,0,0,0-1.01.438,2.128,2.128,0,0,0-.5,1.227h2.911v-.075a1.893,1.893,0,0,0-.408-1.174A1.248,1.248,0,0,0,21.382-5.1Zm6.349.183a2.978,2.978,0,0,0-.489-.038,1.309,1.309,0,0,0-1.327.833V0h-.994V-5.812h.967l.016.671a1.547,1.547,0,0,1,1.386-.779,1.015,1.015,0,0,1,.44.075Zm.443,1.96A3.433,3.433,0,0,1,28.51-4.5a2.5,2.5,0,0,1,.935-1.053,2.544,2.544,0,0,1,1.367-.371,2.451,2.451,0,0,1,1.92.822,3.162,3.162,0,0,1,.733,2.186v.07a3.463,3.463,0,0,1-.325,1.523,2.467,2.467,0,0,1-.929,1.05,2.573,2.573,0,0,1-1.388.376,2.445,2.445,0,0,1-1.915-.822,3.146,3.146,0,0,1-.733-2.175Zm1,.118a2.486,2.486,0,0,0,.448,1.552,1.435,1.435,0,0,0,1.2.585,1.427,1.427,0,0,0,1.2-.594,2.719,2.719,0,0,0,.446-1.662,2.482,2.482,0,0,0-.454-1.55A1.443,1.443,0,0,0,30.812-5.1a1.427,1.427,0,0,0-1.187.585A2.7,2.7,0,0,0,29.173-2.841Z" transform="translate(30.872 39.261)"/>
  <path id="Trazado_699170" data-name="Trazado 699170" d="M3.916,0h-1V-6.623l-2,.736v-.9L3.76-7.858h.156ZM6.95-.521A.622.622,0,0,1,7.1-.951a.583.583,0,0,1,.459-.172.6.6,0,0,1,.465.172.61.61,0,0,1,.158.43.577.577,0,0,1-.158.414.612.612,0,0,1-.465.167A.594.594,0,0,1,7.1-.107.588.588,0,0,1,6.95-.521Zm7.9.521H9.722V-.714l2.707-3.008a6.431,6.431,0,0,0,.83-1.109,1.851,1.851,0,0,0,.228-.884,1.4,1.4,0,0,0-.371-1,1.3,1.3,0,0,0-.988-.392,1.535,1.535,0,0,0-1.152.422,1.611,1.611,0,0,0-.411,1.174H9.571a2.307,2.307,0,0,1,.7-1.746,2.579,2.579,0,0,1,1.861-.666,2.478,2.478,0,0,1,1.724.572,1.951,1.951,0,0,1,.634,1.523,4.474,4.474,0,0,1-1.472,2.75L10.919-.811h3.926ZM20.8-3.335a4.545,4.545,0,0,1-.6,2.594,2.12,2.12,0,0,1-1.864.849,2.136,2.136,0,0,1-1.853-.83A4.313,4.313,0,0,1,15.866-3.2V-4.528a4.443,4.443,0,0,1,.6-2.562,2.137,2.137,0,0,1,1.869-.838,2.156,2.156,0,0,1,1.858.808A4.288,4.288,0,0,1,20.8-4.625Zm-.994-1.359a3.641,3.641,0,0,0-.354-1.84,1.22,1.22,0,0,0-1.123-.577,1.2,1.2,0,0,0-1.112.575,3.555,3.555,0,0,0-.36,1.767v1.59a3.7,3.7,0,0,0,.368,1.872,1.218,1.218,0,0,0,1.115.6,1.2,1.2,0,0,0,1.093-.569,3.566,3.566,0,0,0,.373-1.794Zm4.9-1.622a1.587,1.587,0,0,1,.448-1.16,1.545,1.545,0,0,1,1.152-.457,1.536,1.536,0,0,1,1.157.459,1.642,1.642,0,0,1,.443,1.19V-5.9a1.566,1.566,0,0,1-.448,1.157,1.546,1.546,0,0,1-1.141.448,1.58,1.58,0,0,1-1.155-.448,1.6,1.6,0,0,1-.457-1.2Zm.741.411a1.016,1.016,0,0,0,.236.692.8.8,0,0,0,.634.272.782.782,0,0,0,.615-.264,1.05,1.05,0,0,0,.234-.721V-6.32a1.042,1.042,0,0,0-.231-.694.778.778,0,0,0-.628-.275.778.778,0,0,0-.628.275,1.075,1.075,0,0,0-.231.716Zm3.067,3.988a1.578,1.578,0,0,1,.448-1.157,1.55,1.55,0,0,1,1.152-.454,1.564,1.564,0,0,1,1.155.451,1.619,1.619,0,0,1,.451,1.2V-1.5a1.578,1.578,0,0,1-.448,1.157,1.543,1.543,0,0,1-1.147.454,1.58,1.58,0,0,1-1.155-.448,1.6,1.6,0,0,1-.457-1.2Zm.741.417a1.024,1.024,0,0,0,.236.7.8.8,0,0,0,.634.272A.776.776,0,0,0,30.75-.8a1.068,1.068,0,0,0,.231-.724v-.4a1.021,1.021,0,0,0-.234-.694.787.787,0,0,0-.626-.269.8.8,0,0,0-.62.266,1.036,1.036,0,0,0-.239.719Zm-2.712.91-.564-.354L29.8-7.058l.564.354Z" transform="translate(33.518 54.522)"/>
  <path id="Trazado_699171" data-name="Trazado 699171" d="M6.66-2.481A2.877,2.877,0,0,1,5.744-.567,3,3,0,0,1,3.7.107,2.756,2.756,0,0,1,1.474-.886,4,4,0,0,1,.639-3.545V-4.3a4.456,4.456,0,0,1,.389-1.917,2.909,2.909,0,0,1,1.1-1.27,3.073,3.073,0,0,1,1.654-.443,2.826,2.826,0,0,1,2,.7A2.912,2.912,0,0,1,6.66-5.307H5.624a2.247,2.247,0,0,0-.583-1.358,1.763,1.763,0,0,0-1.254-.42,1.845,1.845,0,0,0-1.55.731,3.356,3.356,0,0,0-.561,2.08v.758a3.45,3.45,0,0,0,.532,2.027A1.718,1.718,0,0,0,3.7-.736a1.984,1.984,0,0,0,1.319-.389,2.161,2.161,0,0,0,.61-1.356Zm.988-.478A3.433,3.433,0,0,1,7.984-4.5a2.5,2.5,0,0,1,.935-1.053,2.544,2.544,0,0,1,1.367-.371,2.451,2.451,0,0,1,1.92.822,3.162,3.162,0,0,1,.733,2.186v.07a3.462,3.462,0,0,1-.325,1.523,2.467,2.467,0,0,1-.929,1.05A2.573,2.573,0,0,1,10.3.107,2.445,2.445,0,0,1,8.382-.714,3.146,3.146,0,0,1,7.648-2.89Zm1,.118A2.486,2.486,0,0,0,9.1-1.289,1.435,1.435,0,0,0,10.3-.7,1.427,1.427,0,0,0,11.5-1.3a2.719,2.719,0,0,0,.446-1.662,2.482,2.482,0,0,0-.454-1.55A1.443,1.443,0,0,0,10.286-5.1,1.427,1.427,0,0,0,9.1-4.517,2.7,2.7,0,0,0,8.647-2.841Zm6.478-2.97.032.73a2.118,2.118,0,0,1,1.74-.838q1.842,0,1.858,2.079V0h-.994V-3.846a1.338,1.338,0,0,0-.287-.929,1.152,1.152,0,0,0-.878-.3,1.434,1.434,0,0,0-.849.258,1.751,1.751,0,0,0-.569.677V0h-.994V-5.812Zm8.513,4.27a.732.732,0,0,0-.3-.626,2.921,2.921,0,0,0-1.058-.384,5,5,0,0,1-1.2-.387,1.7,1.7,0,0,1-.655-.537,1.285,1.285,0,0,1-.212-.741,1.508,1.508,0,0,1,.6-1.208,2.36,2.36,0,0,1,1.544-.494,2.428,2.428,0,0,1,1.6.51A1.621,1.621,0,0,1,24.578-4.1h-1a.9.9,0,0,0-.346-.7,1.3,1.3,0,0,0-.873-.3,1.358,1.358,0,0,0-.849.236.744.744,0,0,0-.306.618.6.6,0,0,0,.285.542,3.5,3.5,0,0,0,1.029.349,5.359,5.359,0,0,1,1.206.4,1.759,1.759,0,0,1,.685.556,1.367,1.367,0,0,1,.223.792,1.487,1.487,0,0,1-.623,1.249,2.613,2.613,0,0,1-1.617.47A2.926,2.926,0,0,1,21.157-.14a2.009,2.009,0,0,1-.841-.69,1.664,1.664,0,0,1-.3-.959h.994a1.029,1.029,0,0,0,.4.792,1.552,1.552,0,0,0,.986.293A1.6,1.6,0,0,0,23.3-.932.7.7,0,0,0,23.638-1.542Zm3.636-5.677v1.407h1.085v.768H27.274v3.609a.807.807,0,0,0,.145.524.61.61,0,0,0,.494.175A2.406,2.406,0,0,0,28.386-.8V0a2.9,2.9,0,0,1-.763.107,1.237,1.237,0,0,1-1-.4,1.731,1.731,0,0,1-.338-1.144v-3.6H25.223v-.768h1.058V-7.219Zm5.054,2.3a2.978,2.978,0,0,0-.489-.038,1.309,1.309,0,0,0-1.327.833V0H29.52V-5.812h.967l.016.671a1.547,1.547,0,0,1,1.386-.779,1.015,1.015,0,0,1,.44.075Zm4.5,4.345a2.111,2.111,0,0,1-1.7.682,1.807,1.807,0,0,1-1.415-.54,2.336,2.336,0,0,1-.491-1.6V-5.812h.994v3.754q0,1.321,1.074,1.321A1.487,1.487,0,0,0,36.8-1.584V-5.812H37.8V0h-.945ZM41.637-.7a1.431,1.431,0,0,0,.929-.322,1.134,1.134,0,0,0,.44-.806h.94a1.8,1.8,0,0,1-.344.951,2.264,2.264,0,0,1-.846.72,2.441,2.441,0,0,1-1.12.269,2.394,2.394,0,0,1-1.888-.792,3.155,3.155,0,0,1-.7-2.167v-.167a3.5,3.5,0,0,1,.312-1.509,2.373,2.373,0,0,1,.894-1.026,2.54,2.54,0,0,1,1.378-.365,2.331,2.331,0,0,1,1.625.585,2.092,2.092,0,0,1,.69,1.52h-.94a1.369,1.369,0,0,0-.427-.927,1.328,1.328,0,0,0-.948-.363,1.391,1.391,0,0,0-1.174.545,2.56,2.56,0,0,0-.416,1.576v.188a2.509,2.509,0,0,0,.414,1.547A1.4,1.4,0,0,0,41.637-.7Zm5.758,0a1.431,1.431,0,0,0,.929-.322,1.134,1.134,0,0,0,.44-.806h.94a1.8,1.8,0,0,1-.344.951,2.264,2.264,0,0,1-.846.72,2.441,2.441,0,0,1-1.12.269,2.394,2.394,0,0,1-1.888-.792,3.155,3.155,0,0,1-.7-2.167v-.167a3.5,3.5,0,0,1,.312-1.509,2.373,2.373,0,0,1,.894-1.026,2.54,2.54,0,0,1,1.378-.365,2.331,2.331,0,0,1,1.625.585,2.092,2.092,0,0,1,.69,1.52h-.94a1.369,1.369,0,0,0-.427-.927,1.328,1.328,0,0,0-.948-.363,1.391,1.391,0,0,0-1.174.545A2.56,2.56,0,0,0,45.8-2.981v.188a2.509,2.509,0,0,0,.414,1.547A1.4,1.4,0,0,0,47.395-.7ZM51.9,0h-.994V-5.812H51.9ZM50.827-7.353a.593.593,0,0,1,.148-.408.555.555,0,0,1,.438-.167.563.563,0,0,1,.44.167.587.587,0,0,1,.15.408.568.568,0,0,1-.15.4.573.573,0,0,1-.44.161.565.565,0,0,1-.438-.161A.573.573,0,0,1,50.827-7.353Zm2.4,4.394A3.433,3.433,0,0,1,53.563-4.5,2.5,2.5,0,0,1,54.5-5.548a2.544,2.544,0,0,1,1.367-.371,2.451,2.451,0,0,1,1.92.822,3.162,3.162,0,0,1,.733,2.186v.07a3.463,3.463,0,0,1-.325,1.523,2.467,2.467,0,0,1-.929,1.05,2.573,2.573,0,0,1-1.388.376,2.445,2.445,0,0,1-1.915-.822,3.146,3.146,0,0,1-.733-2.175Zm1,.118a2.486,2.486,0,0,0,.448,1.552,1.435,1.435,0,0,0,1.2.585,1.427,1.427,0,0,0,1.2-.594,2.719,2.719,0,0,0,.446-1.662,2.482,2.482,0,0,0-.454-1.55A1.443,1.443,0,0,0,55.865-5.1a1.427,1.427,0,0,0-1.187.585A2.7,2.7,0,0,0,54.227-2.841ZM60.7-5.812l.032.73a2.118,2.118,0,0,1,1.74-.838q1.842,0,1.858,2.079V0h-.994V-3.846a1.338,1.338,0,0,0-.287-.929,1.152,1.152,0,0,0-.878-.3,1.434,1.434,0,0,0-.849.258,1.751,1.751,0,0,0-.569.677V0h-.994V-5.812ZM68.245.107a2.539,2.539,0,0,1-1.923-.776,2.881,2.881,0,0,1-.741-2.076v-.183a3.487,3.487,0,0,1,.33-1.544,2.577,2.577,0,0,1,.924-1.063,2.323,2.323,0,0,1,1.286-.384,2.177,2.177,0,0,1,1.762.747,3.232,3.232,0,0,1,.628,2.138v.414H66.575a2.066,2.066,0,0,0,.5,1.388A1.579,1.579,0,0,0,68.3-.7a1.731,1.731,0,0,0,.892-.215,2.24,2.24,0,0,0,.639-.569l.607.473A2.44,2.44,0,0,1,68.245.107ZM68.122-5.1a1.325,1.325,0,0,0-1.01.438,2.128,2.128,0,0,0-.5,1.227h2.911v-.075a1.893,1.893,0,0,0-.408-1.174A1.248,1.248,0,0,0,68.122-5.1Zm6.923,3.561a.732.732,0,0,0-.3-.626,2.921,2.921,0,0,0-1.058-.384,5,5,0,0,1-1.2-.387,1.7,1.7,0,0,1-.655-.537,1.285,1.285,0,0,1-.212-.741,1.508,1.508,0,0,1,.6-1.208,2.36,2.36,0,0,1,1.544-.494,2.428,2.428,0,0,1,1.6.51A1.621,1.621,0,0,1,75.985-4.1h-1a.9.9,0,0,0-.346-.7,1.3,1.3,0,0,0-.873-.3,1.358,1.358,0,0,0-.849.236.744.744,0,0,0-.306.618.6.6,0,0,0,.285.542,3.5,3.5,0,0,0,1.029.349,5.359,5.359,0,0,1,1.206.4,1.759,1.759,0,0,1,.685.556,1.367,1.367,0,0,1,.223.792,1.487,1.487,0,0,1-.623,1.249A2.613,2.613,0,0,1,73.8.107,2.926,2.926,0,0,1,72.563-.14a2.009,2.009,0,0,1-.841-.69,1.664,1.664,0,0,1-.3-.959h.994a1.029,1.029,0,0,0,.4.792A1.552,1.552,0,0,0,73.8-.7,1.6,1.6,0,0,0,74.7-.932.7.7,0,0,0,75.045-1.542Z" transform="translate(87.543 19.472)"/>
  <path id="Trazado_699172" data-name="Trazado 699172" d="M5.554-3.335a4.545,4.545,0,0,1-.6,2.594A2.12,2.12,0,0,1,3.094.107a2.136,2.136,0,0,1-1.853-.83A4.313,4.313,0,0,1,.618-3.2V-4.528a4.443,4.443,0,0,1,.6-2.562,2.137,2.137,0,0,1,1.869-.838,2.156,2.156,0,0,1,1.858.808,4.288,4.288,0,0,1,.612,2.495ZM4.56-4.694a3.641,3.641,0,0,0-.354-1.84,1.22,1.22,0,0,0-1.123-.577,1.2,1.2,0,0,0-1.112.575,3.555,3.555,0,0,0-.36,1.767v1.59a3.7,3.7,0,0,0,.368,1.872,1.218,1.218,0,0,0,1.115.6,1.2,1.2,0,0,0,1.093-.569A3.566,3.566,0,0,0,4.56-3.067ZM6.95-.521A.622.622,0,0,1,7.1-.951a.583.583,0,0,1,.459-.172.6.6,0,0,1,.465.172.61.61,0,0,1,.158.43.577.577,0,0,1-.158.414.612.612,0,0,1-.465.167A.594.594,0,0,1,7.1-.107.588.588,0,0,1,6.95-.521Zm7.675-2.814a4.545,4.545,0,0,1-.6,2.594,2.12,2.12,0,0,1-1.864.849,2.136,2.136,0,0,1-1.853-.83A4.313,4.313,0,0,1,9.689-3.2V-4.528a4.443,4.443,0,0,1,.6-2.562,2.137,2.137,0,0,1,1.869-.838,2.156,2.156,0,0,1,1.858.808,4.288,4.288,0,0,1,.612,2.495Zm-.994-1.359a3.641,3.641,0,0,0-.354-1.84,1.22,1.22,0,0,0-1.123-.577,1.2,1.2,0,0,0-1.112.575,3.555,3.555,0,0,0-.36,1.767v1.59a3.7,3.7,0,0,0,.368,1.872,1.218,1.218,0,0,0,1.115.6,1.2,1.2,0,0,0,1.093-.569,3.566,3.566,0,0,0,.373-1.794Zm3.711.3h.747A1.641,1.641,0,0,0,19.2-4.764a1.238,1.238,0,0,0,.4-.972,1.213,1.213,0,0,0-1.37-1.375,1.425,1.425,0,0,0-1.029.368,1.288,1.288,0,0,0-.384.975h-.994A2,2,0,0,1,16.5-7.313a2.475,2.475,0,0,1,1.727-.615,2.446,2.446,0,0,1,1.735.585,2.115,2.115,0,0,1,.628,1.627,1.717,1.717,0,0,1-.33.988,1.994,1.994,0,0,1-.9.714,1.922,1.922,0,0,1,1,.677,1.88,1.88,0,0,1,.352,1.155,2.133,2.133,0,0,1-.687,1.67,2.575,2.575,0,0,1-1.789.618,2.643,2.643,0,0,1-1.791-.6,1.978,1.978,0,0,1-.69-1.574h1a1.278,1.278,0,0,0,.4.988,1.532,1.532,0,0,0,1.08.371,1.5,1.5,0,0,0,1.1-.376,1.449,1.449,0,0,0,.381-1.08A1.315,1.315,0,0,0,19.3-3.207a1.825,1.825,0,0,0-1.208-.376h-.747Zm7.369-1.923a1.587,1.587,0,0,1,.448-1.16,1.545,1.545,0,0,1,1.152-.457,1.536,1.536,0,0,1,1.157.459,1.642,1.642,0,0,1,.443,1.19V-5.9a1.566,1.566,0,0,1-.448,1.157,1.546,1.546,0,0,1-1.141.448,1.58,1.58,0,0,1-1.155-.448,1.6,1.6,0,0,1-.457-1.2Zm.741.411a1.016,1.016,0,0,0,.236.692.8.8,0,0,0,.634.272.782.782,0,0,0,.615-.264,1.05,1.05,0,0,0,.234-.721V-6.32a1.042,1.042,0,0,0-.231-.694.778.778,0,0,0-.628-.275.778.778,0,0,0-.628.275,1.075,1.075,0,0,0-.231.716Zm3.067,3.988a1.578,1.578,0,0,1,.448-1.157,1.55,1.55,0,0,1,1.152-.454,1.564,1.564,0,0,1,1.155.451,1.619,1.619,0,0,1,.451,1.2V-1.5a1.578,1.578,0,0,1-.448,1.157,1.543,1.543,0,0,1-1.147.454,1.58,1.58,0,0,1-1.155-.448,1.6,1.6,0,0,1-.457-1.2Zm.741.417a1.024,1.024,0,0,0,.236.7.8.8,0,0,0,.634.272A.776.776,0,0,0,30.75-.8a1.068,1.068,0,0,0,.231-.724v-.4a1.021,1.021,0,0,0-.234-.694.787.787,0,0,0-.626-.269.8.8,0,0,0-.62.266,1.036,1.036,0,0,0-.239.719Zm-2.712.91-.564-.354L29.8-7.058l.564.354Z" transform="translate(114.772 34.733)"/>
  <path id="Trazado_699173" data-name="Trazado 699173" d="M3.776-3.164H1.939V0H.9V-7.82H3.491a3.064,3.064,0,0,1,2.033.6,2.164,2.164,0,0,1,.712,1.751,2.105,2.105,0,0,1-.395,1.273,2.357,2.357,0,0,1-1.1.811L6.58-.064V0H5.473ZM1.939-4.007H3.523a1.787,1.787,0,0,0,1.222-.4A1.346,1.346,0,0,0,5.2-5.47a1.418,1.418,0,0,0-.432-1.114,1.831,1.831,0,0,0-1.249-.393H1.939Zm8,4.114A2.539,2.539,0,0,1,8.014-.669a2.881,2.881,0,0,1-.741-2.076v-.183A3.487,3.487,0,0,1,7.6-4.471a2.577,2.577,0,0,1,.924-1.063,2.323,2.323,0,0,1,1.286-.384,2.177,2.177,0,0,1,1.762.747A3.232,3.232,0,0,1,12.2-3.035v.414H8.266a2.066,2.066,0,0,0,.5,1.388A1.579,1.579,0,0,0,9.99-.7a1.731,1.731,0,0,0,.892-.215,2.24,2.24,0,0,0,.639-.569l.607.473A2.44,2.44,0,0,1,9.937.107ZM9.813-5.1a1.325,1.325,0,0,0-1.01.438,2.128,2.128,0,0,0-.5,1.227h2.911v-.075A1.893,1.893,0,0,0,10.8-4.686,1.248,1.248,0,0,0,9.813-5.1Zm6.923,3.561a.732.732,0,0,0-.3-.626,2.921,2.921,0,0,0-1.058-.384,5,5,0,0,1-1.2-.387,1.7,1.7,0,0,1-.655-.537,1.285,1.285,0,0,1-.212-.741,1.508,1.508,0,0,1,.6-1.208,2.36,2.36,0,0,1,1.544-.494,2.428,2.428,0,0,1,1.6.51A1.621,1.621,0,0,1,17.676-4.1h-1a.9.9,0,0,0-.346-.7,1.3,1.3,0,0,0-.873-.3,1.358,1.358,0,0,0-.849.236.744.744,0,0,0-.306.618.6.6,0,0,0,.285.542,3.5,3.5,0,0,0,1.029.349,5.359,5.359,0,0,1,1.206.4,1.759,1.759,0,0,1,.685.556,1.367,1.367,0,0,1,.223.792,1.487,1.487,0,0,1-.623,1.249,2.613,2.613,0,0,1-1.617.47A2.926,2.926,0,0,1,14.255-.14a2.009,2.009,0,0,1-.841-.69,1.664,1.664,0,0,1-.3-.959H14.1A1.029,1.029,0,0,0,14.5-1,1.552,1.552,0,0,0,15.49-.7,1.6,1.6,0,0,0,16.4-.932.7.7,0,0,0,16.736-1.542ZM20.1,0H19.11V-5.812H20.1ZM19.03-7.353a.593.593,0,0,1,.148-.408.555.555,0,0,1,.438-.167.563.563,0,0,1,.44.167.587.587,0,0,1,.15.408.568.568,0,0,1-.15.4.573.573,0,0,1-.44.161.565.565,0,0,1-.438-.161A.573.573,0,0,1,19.03-7.353Zm2.422,4.4a3.4,3.4,0,0,1,.634-2.151,2,2,0,0,1,1.66-.814,2.016,2.016,0,0,1,1.617.7V-8.25h.994V0h-.913l-.048-.623a2.024,2.024,0,0,1-1.66.73A1.985,1.985,0,0,1,22.089-.72a3.443,3.443,0,0,1-.636-2.159Zm.994.113a2.578,2.578,0,0,0,.408,1.547,1.32,1.32,0,0,0,1.128.559,1.45,1.45,0,0,0,1.38-.849V-4.254a1.461,1.461,0,0,0-1.37-.822,1.326,1.326,0,0,0-1.139.564A2.838,2.838,0,0,0,22.446-2.841ZM30.309.107a2.539,2.539,0,0,1-1.923-.776,2.881,2.881,0,0,1-.741-2.076v-.183a3.487,3.487,0,0,1,.33-1.544A2.577,2.577,0,0,1,28.9-5.535a2.323,2.323,0,0,1,1.286-.384,2.177,2.177,0,0,1,1.762.747,3.232,3.232,0,0,1,.628,2.138v.414H28.639a2.066,2.066,0,0,0,.5,1.388A1.579,1.579,0,0,0,30.363-.7a1.731,1.731,0,0,0,.892-.215,2.24,2.24,0,0,0,.639-.569l.607.473A2.44,2.44,0,0,1,30.309.107ZM30.186-5.1a1.325,1.325,0,0,0-1.01.438,2.128,2.128,0,0,0-.5,1.227h2.911v-.075a1.893,1.893,0,0,0-.408-1.174A1.248,1.248,0,0,0,30.186-5.1Zm4.479-.709.032.73a2.118,2.118,0,0,1,1.74-.838q1.842,0,1.858,2.079V0H37.3V-3.846a1.338,1.338,0,0,0-.287-.929,1.152,1.152,0,0,0-.878-.3,1.434,1.434,0,0,0-.849.258,1.751,1.751,0,0,0-.569.677V0h-.994V-5.812ZM42.125-.7a1.431,1.431,0,0,0,.929-.322,1.134,1.134,0,0,0,.44-.806h.94a1.8,1.8,0,0,1-.344.951,2.264,2.264,0,0,1-.846.72,2.441,2.441,0,0,1-1.12.269,2.394,2.394,0,0,1-1.888-.792,3.155,3.155,0,0,1-.7-2.167v-.167a3.5,3.5,0,0,1,.312-1.509,2.373,2.373,0,0,1,.894-1.026,2.54,2.54,0,0,1,1.378-.365,2.331,2.331,0,0,1,1.625.585,2.092,2.092,0,0,1,.69,1.52H43.5a1.369,1.369,0,0,0-.427-.927A1.328,1.328,0,0,0,42.12-5.1a1.391,1.391,0,0,0-1.174.545,2.56,2.56,0,0,0-.416,1.576v.188a2.509,2.509,0,0,0,.414,1.547A1.4,1.4,0,0,0,42.125-.7Zm4.506.7h-.994V-5.812h.994ZM45.558-7.353a.593.593,0,0,1,.148-.408.555.555,0,0,1,.438-.167.563.563,0,0,1,.44.167.587.587,0,0,1,.15.408.568.568,0,0,1-.15.4.573.573,0,0,1-.44.161.565.565,0,0,1-.438-.161A.573.573,0,0,1,45.558-7.353ZM51.81,0a2.087,2.087,0,0,1-.14-.612,2.217,2.217,0,0,1-1.654.72,2.051,2.051,0,0,1-1.41-.486,1.573,1.573,0,0,1-.551-1.233,1.643,1.643,0,0,1,.69-1.41,3.254,3.254,0,0,1,1.942-.5h.967V-3.98a1.116,1.116,0,0,0-.312-.83,1.252,1.252,0,0,0-.918-.309,1.449,1.449,0,0,0-.892.269.791.791,0,0,0-.36.65h-1a1.371,1.371,0,0,1,.309-.841,2.108,2.108,0,0,1,.838-.642,2.819,2.819,0,0,1,1.163-.236,2.3,2.3,0,0,1,1.574.5,1.812,1.812,0,0,1,.591,1.383v2.675a3.27,3.27,0,0,0,.2,1.273V0ZM50.161-.757A1.746,1.746,0,0,0,51.047-1a1.462,1.462,0,0,0,.607-.628V-2.82h-.779q-1.826,0-1.826,1.069a.9.9,0,0,0,.312.73A1.2,1.2,0,0,0,50.161-.757ZM55.285,0h-.994V-8.25h.994Z" transform="translate(258.344 59.749)"/>
  <path id="Trazado_699174" data-name="Trazado 699174" d="M3.916,0h-1V-6.623l-2,.736v-.9L3.76-7.858h.156Zm6.811-7.826v.843h-.183A2.616,2.616,0,0,0,8.7-6.295,2.861,2.861,0,0,0,7.9-4.42a2.121,2.121,0,0,1,1.687-.709,2.028,2.028,0,0,1,1.63.72,2.776,2.776,0,0,1,.61,1.858,2.767,2.767,0,0,1-.658,1.934A2.266,2.266,0,0,1,9.4.107,2.232,2.232,0,0,1,7.584-.755a3.417,3.417,0,0,1-.7-2.221v-.381a5.148,5.148,0,0,1,.921-3.3,3.383,3.383,0,0,1,2.742-1.168ZM9.421-4.3A1.585,1.585,0,0,0,8.481-4a1.6,1.6,0,0,0-.6.768v.365A2.565,2.565,0,0,0,8.32-1.305,1.3,1.3,0,0,0,9.4-.714a1.263,1.263,0,0,0,1.055-.494A2.05,2.05,0,0,0,10.844-2.5a2.051,2.051,0,0,0-.389-1.3A1.248,1.248,0,0,0,9.421-4.3ZM13.127-.521a.622.622,0,0,1,.153-.43.583.583,0,0,1,.459-.172.6.6,0,0,1,.465.172.61.61,0,0,1,.158.43.577.577,0,0,1-.158.414.612.612,0,0,1-.465.167.594.594,0,0,1-.459-.167A.588.588,0,0,1,13.127-.521Zm7.82-6.741L17.708,0H16.667l3.228-7H15.662V-7.82h5.285ZM27.2,0H22.075V-.714l2.707-3.008a6.431,6.431,0,0,0,.83-1.109,1.851,1.851,0,0,0,.228-.884,1.4,1.4,0,0,0-.371-1,1.3,1.3,0,0,0-.988-.392,1.535,1.535,0,0,0-1.152.422,1.611,1.611,0,0,0-.411,1.174h-.994a2.307,2.307,0,0,1,.7-1.746,2.579,2.579,0,0,1,1.861-.666,2.478,2.478,0,0,1,1.724.572,1.951,1.951,0,0,1,.634,1.523,4.474,4.474,0,0,1-1.472,2.75L23.273-.811H27.2Zm3.69-6.316a1.587,1.587,0,0,1,.448-1.16,1.545,1.545,0,0,1,1.152-.457,1.536,1.536,0,0,1,1.157.459,1.642,1.642,0,0,1,.443,1.19V-5.9a1.566,1.566,0,0,1-.448,1.157A1.546,1.546,0,0,1,32.5-4.3a1.58,1.58,0,0,1-1.155-.448,1.6,1.6,0,0,1-.457-1.2Zm.741.411a1.016,1.016,0,0,0,.236.692.8.8,0,0,0,.634.272.782.782,0,0,0,.615-.264,1.05,1.05,0,0,0,.234-.721V-6.32a1.042,1.042,0,0,0-.231-.694.778.778,0,0,0-.628-.275.778.778,0,0,0-.628.275,1.075,1.075,0,0,0-.231.716ZM34.7-1.917a1.578,1.578,0,0,1,.448-1.157A1.55,1.55,0,0,1,36.3-3.529a1.564,1.564,0,0,1,1.155.451,1.619,1.619,0,0,1,.451,1.2V-1.5a1.578,1.578,0,0,1-.448,1.157,1.543,1.543,0,0,1-1.147.454,1.58,1.58,0,0,1-1.155-.448,1.6,1.6,0,0,1-.457-1.2Zm.741.417a1.024,1.024,0,0,0,.236.7.8.8,0,0,0,.634.272A.776.776,0,0,0,36.926-.8a1.068,1.068,0,0,0,.231-.724v-.4a1.021,1.021,0,0,0-.234-.694.787.787,0,0,0-.626-.269.8.8,0,0,0-.62.266,1.036,1.036,0,0,0-.239.719Zm-2.712.91-.564-.354,3.819-6.112.564.354Z" transform="translate(270.172 75.01)"/>
  <path id="Trazado_699175" data-name="Trazado 699175" d="M2.014,0H.983V-7.82H2.014ZM4.684-5.812l.032.73a2.118,2.118,0,0,1,1.74-.838q1.842,0,1.858,2.079V0H7.321V-3.846a1.338,1.338,0,0,0-.287-.929,1.152,1.152,0,0,0-.878-.3,1.434,1.434,0,0,0-.849.258,1.751,1.751,0,0,0-.569.677V0H3.744V-5.812ZM9.571-2.954a3.4,3.4,0,0,1,.634-2.151,2,2,0,0,1,1.66-.814,2.016,2.016,0,0,1,1.617.7V-8.25h.994V0h-.913l-.048-.623a2.024,2.024,0,0,1-1.66.73A1.985,1.985,0,0,1,10.208-.72a3.443,3.443,0,0,1-.636-2.159Zm.994.113a2.578,2.578,0,0,0,.408,1.547A1.32,1.32,0,0,0,12.1-.736a1.45,1.45,0,0,0,1.38-.849V-4.254a1.461,1.461,0,0,0-1.37-.822,1.326,1.326,0,0,0-1.139.564A2.838,2.838,0,0,0,10.565-2.841ZM19.6-.575a2.111,2.111,0,0,1-1.7.682,1.807,1.807,0,0,1-1.415-.54A2.336,2.336,0,0,1,16-2.03V-5.812h.994v3.754q0,1.321,1.074,1.321a1.487,1.487,0,0,0,1.515-.849V-5.812h.994V0h-.945Zm5.86-.967a.732.732,0,0,0-.3-.626A2.921,2.921,0,0,0,24.1-2.551a5,5,0,0,1-1.2-.387,1.7,1.7,0,0,1-.655-.537,1.285,1.285,0,0,1-.212-.741,1.508,1.508,0,0,1,.6-1.208,2.36,2.36,0,0,1,1.544-.494,2.428,2.428,0,0,1,1.6.51A1.621,1.621,0,0,1,26.4-4.1h-1a.9.9,0,0,0-.346-.7,1.3,1.3,0,0,0-.873-.3,1.358,1.358,0,0,0-.849.236.744.744,0,0,0-.306.618.6.6,0,0,0,.285.542,3.5,3.5,0,0,0,1.029.349,5.359,5.359,0,0,1,1.206.4,1.759,1.759,0,0,1,.685.556,1.367,1.367,0,0,1,.223.792,1.487,1.487,0,0,1-.623,1.249,2.613,2.613,0,0,1-1.617.47A2.926,2.926,0,0,1,22.983-.14a2.009,2.009,0,0,1-.841-.69,1.664,1.664,0,0,1-.3-.959h.994a1.029,1.029,0,0,0,.4.792,1.552,1.552,0,0,0,.986.293,1.6,1.6,0,0,0,.905-.228A.7.7,0,0,0,25.464-1.542ZM29.1-7.219v1.407h1.085v.768H29.1v3.609a.807.807,0,0,0,.145.524.61.61,0,0,0,.494.175A2.406,2.406,0,0,0,30.212-.8V0a2.9,2.9,0,0,1-.763.107,1.237,1.237,0,0,1-1-.4,1.731,1.731,0,0,1-.338-1.144v-3.6H27.049v-.768h1.058V-7.219Zm5.054,2.3a2.978,2.978,0,0,0-.489-.038,1.309,1.309,0,0,0-1.327.833V0h-.994V-5.812h.967l.016.671a1.547,1.547,0,0,1,1.386-.779,1.015,1.015,0,0,1,.44.075ZM36.147,0h-.994V-5.812h.994ZM35.073-7.353a.593.593,0,0,1,.148-.408.555.555,0,0,1,.438-.167.563.563,0,0,1,.44.167.587.587,0,0,1,.15.408.568.568,0,0,1-.15.4.573.573,0,0,1-.44.161.565.565,0,0,1-.438-.161A.573.573,0,0,1,35.073-7.353ZM41.325,0a2.087,2.087,0,0,1-.14-.612,2.217,2.217,0,0,1-1.654.72,2.051,2.051,0,0,1-1.41-.486,1.573,1.573,0,0,1-.551-1.233,1.643,1.643,0,0,1,.69-1.41,3.254,3.254,0,0,1,1.942-.5h.967V-3.98a1.116,1.116,0,0,0-.312-.83,1.252,1.252,0,0,0-.918-.309,1.449,1.449,0,0,0-.892.269.791.791,0,0,0-.36.65h-1A1.371,1.371,0,0,1,38-5.041a2.108,2.108,0,0,1,.838-.642A2.819,2.819,0,0,1,40-5.919a2.3,2.3,0,0,1,1.574.5,1.812,1.812,0,0,1,.591,1.383v2.675a3.27,3.27,0,0,0,.2,1.273V0ZM39.676-.757A1.746,1.746,0,0,0,40.563-1a1.462,1.462,0,0,0,.607-.628V-2.82h-.779q-1.826,0-1.826,1.069a.9.9,0,0,0,.312.73A1.2,1.2,0,0,0,39.676-.757ZM44.8,0h-.994V-8.25H44.8Z" transform="translate(309.623 285.847)"/>
  <path id="Trazado_699176" data-name="Trazado 699176" d="M5.774,0H.65V-.714L3.357-3.722a6.431,6.431,0,0,0,.83-1.109,1.851,1.851,0,0,0,.228-.884,1.4,1.4,0,0,0-.371-1,1.3,1.3,0,0,0-.988-.392A1.535,1.535,0,0,0,1.9-6.69a1.611,1.611,0,0,0-.411,1.174H.5a2.307,2.307,0,0,1,.7-1.746,2.579,2.579,0,0,1,1.861-.666,2.478,2.478,0,0,1,1.724.572,1.951,1.951,0,0,1,.634,1.523,4.474,4.474,0,0,1-1.472,2.75L1.848-.811H5.774Zm4.861-3.437a2.431,2.431,0,0,1-.744.6,2.018,2.018,0,0,1-.948.226,2.084,2.084,0,0,1-1.179-.333,2.165,2.165,0,0,1-.776-.937,3.2,3.2,0,0,1-.274-1.335,3.256,3.256,0,0,1,.3-1.413,2.19,2.19,0,0,1,.846-.961,2.412,2.412,0,0,1,1.278-.333,2.184,2.184,0,0,1,1.829.867,3.784,3.784,0,0,1,.669,2.366v.29a5.055,5.055,0,0,1-.9,3.333A3.467,3.467,0,0,1,8.008.005H7.815V-.838h.209a2.736,2.736,0,0,0,1.891-.641A2.748,2.748,0,0,0,10.635-3.437Zm-1.531,0a1.534,1.534,0,0,0,.921-.306A1.8,1.8,0,0,0,10.64-4.5v-.4a2.734,2.734,0,0,0-.424-1.59A1.266,1.266,0,0,0,9.142-7.1a1.276,1.276,0,0,0-1.053.5,2.072,2.072,0,0,0-.4,1.324,2.156,2.156,0,0,0,.384,1.319A1.216,1.216,0,0,0,9.1-3.437ZM13.127-.521a.622.622,0,0,1,.153-.43.583.583,0,0,1,.459-.172.6.6,0,0,1,.465.172.61.61,0,0,1,.158.43.577.577,0,0,1-.158.414.612.612,0,0,1-.465.167.594.594,0,0,1-.459-.167A.588.588,0,0,1,13.127-.521Zm4.216-3.873h.747A1.641,1.641,0,0,0,19.2-4.764a1.238,1.238,0,0,0,.4-.972,1.213,1.213,0,0,0-1.37-1.375,1.425,1.425,0,0,0-1.029.368,1.288,1.288,0,0,0-.384.975h-.994A2,2,0,0,1,16.5-7.313a2.475,2.475,0,0,1,1.727-.615,2.446,2.446,0,0,1,1.735.585,2.115,2.115,0,0,1,.628,1.627,1.717,1.717,0,0,1-.33.988,1.994,1.994,0,0,1-.9.714,1.922,1.922,0,0,1,1,.677,1.88,1.88,0,0,1,.352,1.155,2.133,2.133,0,0,1-.687,1.67,2.575,2.575,0,0,1-1.789.618,2.643,2.643,0,0,1-1.791-.6,1.978,1.978,0,0,1-.69-1.574h1a1.278,1.278,0,0,0,.4.988,1.532,1.532,0,0,0,1.08.371,1.5,1.5,0,0,0,1.1-.376,1.449,1.449,0,0,0,.381-1.08A1.315,1.315,0,0,0,19.3-3.207a1.825,1.825,0,0,0-1.208-.376h-.747Zm8.631-3.432v.843h-.183a2.616,2.616,0,0,0-1.848.688,2.861,2.861,0,0,0-.795,1.875,2.121,2.121,0,0,1,1.687-.709,2.028,2.028,0,0,1,1.63.72,2.776,2.776,0,0,1,.61,1.858,2.767,2.767,0,0,1-.658,1.934,2.266,2.266,0,0,1-1.764.725,2.232,2.232,0,0,1-1.821-.862,3.417,3.417,0,0,1-.7-2.221v-.381a5.148,5.148,0,0,1,.921-3.3A3.383,3.383,0,0,1,25.8-7.826ZM24.669-4.3a1.585,1.585,0,0,0-.94.306,1.6,1.6,0,0,0-.6.768v.365a2.565,2.565,0,0,0,.435,1.558,1.3,1.3,0,0,0,1.085.591,1.263,1.263,0,0,0,1.055-.494A2.05,2.05,0,0,0,26.093-2.5a2.051,2.051,0,0,0-.389-1.3A1.248,1.248,0,0,0,24.669-4.3Zm6.22-2.014a1.587,1.587,0,0,1,.448-1.16,1.545,1.545,0,0,1,1.152-.457,1.536,1.536,0,0,1,1.157.459,1.642,1.642,0,0,1,.443,1.19V-5.9a1.566,1.566,0,0,1-.448,1.157A1.546,1.546,0,0,1,32.5-4.3a1.58,1.58,0,0,1-1.155-.448,1.6,1.6,0,0,1-.457-1.2Zm.741.411a1.016,1.016,0,0,0,.236.692.8.8,0,0,0,.634.272.782.782,0,0,0,.615-.264,1.05,1.05,0,0,0,.234-.721V-6.32a1.042,1.042,0,0,0-.231-.694.778.778,0,0,0-.628-.275.778.778,0,0,0-.628.275,1.075,1.075,0,0,0-.231.716ZM34.7-1.917a1.578,1.578,0,0,1,.448-1.157A1.55,1.55,0,0,1,36.3-3.529a1.564,1.564,0,0,1,1.155.451,1.619,1.619,0,0,1,.451,1.2V-1.5a1.578,1.578,0,0,1-.448,1.157,1.543,1.543,0,0,1-1.147.454,1.58,1.58,0,0,1-1.155-.448,1.6,1.6,0,0,1-.457-1.2Zm.741.417a1.024,1.024,0,0,0,.236.7.8.8,0,0,0,.634.272A.776.776,0,0,0,36.926-.8a1.068,1.068,0,0,0,.231-.724v-.4a1.021,1.021,0,0,0-.234-.694.787.787,0,0,0-.626-.269.8.8,0,0,0-.62.266,1.036,1.036,0,0,0-.239.719Zm-2.712.91-.564-.354,3.819-6.112.564.354Z" transform="translate(315.397 301.109)"/>
  <g id="Grupo_973782" data-name="Grupo 973782">
    <g id="Grupo_973781" data-name="Grupo 973781" clip-path="url(#clip-path-2)">
      <text id="No" transform="translate(214.803 9.162)" font-size="12" font-family="Roboto-Regular, Roboto"><tspan x="0" y="0">No</tspan></text>
    </g>
  </g>
  <path id="Trazado_699177" data-name="Trazado 699177" d="M2.014,0H.983V-7.82H2.014ZM3.5-2.954a3.4,3.4,0,0,1,.634-2.151A2,2,0,0,1,5.8-5.919a2.016,2.016,0,0,1,1.617.7V-8.25h.994V0H7.493L7.444-.623a2.024,2.024,0,0,1-1.66.73A1.985,1.985,0,0,1,4.138-.72,3.443,3.443,0,0,1,3.5-2.879Zm.994.113A2.578,2.578,0,0,0,4.9-1.294a1.32,1.32,0,0,0,1.128.559,1.45,1.45,0,0,0,1.38-.849V-4.254a1.461,1.461,0,0,0-1.37-.822A1.326,1.326,0,0,0,4.9-4.512,2.838,2.838,0,0,0,4.5-2.841ZM12.359.107a2.539,2.539,0,0,1-1.923-.776,2.881,2.881,0,0,1-.741-2.076v-.183a3.487,3.487,0,0,1,.33-1.544,2.577,2.577,0,0,1,.924-1.063,2.323,2.323,0,0,1,1.286-.384A2.177,2.177,0,0,1,14-5.172a3.232,3.232,0,0,1,.628,2.138v.414H10.688a2.066,2.066,0,0,0,.5,1.388A1.579,1.579,0,0,0,12.413-.7,1.731,1.731,0,0,0,13.3-.918a2.24,2.24,0,0,0,.639-.569l.607.473A2.44,2.44,0,0,1,12.359.107ZM12.235-5.1a1.325,1.325,0,0,0-1.01.438,2.128,2.128,0,0,0-.5,1.227h2.911v-.075a1.893,1.893,0,0,0-.408-1.174A1.248,1.248,0,0,0,12.235-5.1Zm4.479-.709.032.73a2.118,2.118,0,0,1,1.74-.838q1.842,0,1.858,2.079V0h-.994V-3.846a1.338,1.338,0,0,0-.287-.929,1.152,1.152,0,0,0-.878-.3,1.434,1.434,0,0,0-.849.258,1.751,1.751,0,0,0-.569.677V0h-.994V-5.812Zm6.478-1.407v1.407h1.085v.768H23.192v3.609a.807.807,0,0,0,.145.524.61.61,0,0,0,.494.175A2.406,2.406,0,0,0,24.3-.8V0a2.9,2.9,0,0,1-.763.107,1.237,1.237,0,0,1-1-.4A1.731,1.731,0,0,1,22.2-1.439v-3.6H21.141v-.768H22.2V-7.219ZM26.517,0h-.994V-5.812h.994ZM25.443-7.353a.593.593,0,0,1,.148-.408.555.555,0,0,1,.438-.167.563.563,0,0,1,.44.167.587.587,0,0,1,.15.408.568.568,0,0,1-.15.4.573.573,0,0,1-.44.161.565.565,0,0,1-.438-.161A.573.573,0,0,1,25.443-7.353ZM28.44,0V-5.043h-.918v-.768h.918v-.494A2.019,2.019,0,0,1,29-7.82a2.156,2.156,0,0,1,1.571-.542,4.731,4.731,0,0,1,1.52.328L31.92-7.2a3.443,3.443,0,0,0-1.278-.269,1.251,1.251,0,0,0-.921.287,1.185,1.185,0,0,0-.282.862v.5h1.187v.768H29.439V0Zm4.141,0h-1V-5.812h1Zm3.948-.7a1.431,1.431,0,0,0,.929-.322,1.134,1.134,0,0,0,.44-.806h.94a1.8,1.8,0,0,1-.344.951,2.264,2.264,0,0,1-.846.72,2.441,2.441,0,0,1-1.12.269,2.394,2.394,0,0,1-1.888-.792,3.155,3.155,0,0,1-.7-2.167v-.167a3.5,3.5,0,0,1,.312-1.509,2.373,2.373,0,0,1,.894-1.026,2.54,2.54,0,0,1,1.378-.365,2.331,2.331,0,0,1,1.625.585,2.092,2.092,0,0,1,.69,1.52H37.9a1.369,1.369,0,0,0-.427-.927,1.328,1.328,0,0,0-.948-.363,1.391,1.391,0,0,0-1.174.545,2.56,2.56,0,0,0-.416,1.576v.188a2.509,2.509,0,0,0,.414,1.547A1.4,1.4,0,0,0,36.529-.7Zm7.015.7a2.087,2.087,0,0,1-.14-.612,2.217,2.217,0,0,1-1.654.72,2.051,2.051,0,0,1-1.41-.486,1.573,1.573,0,0,1-.551-1.233,1.643,1.643,0,0,1,.69-1.41,3.254,3.254,0,0,1,1.942-.5h.967V-3.98a1.116,1.116,0,0,0-.312-.83,1.252,1.252,0,0,0-.918-.309,1.449,1.449,0,0,0-.892.269.791.791,0,0,0-.36.65h-1a1.371,1.371,0,0,1,.309-.841,2.108,2.108,0,0,1,.838-.642,2.819,2.819,0,0,1,1.163-.236,2.3,2.3,0,0,1,1.574.5,1.812,1.812,0,0,1,.591,1.383v2.675a3.27,3.27,0,0,0,.2,1.273V0ZM41.895-.757A1.746,1.746,0,0,0,42.781-1a1.462,1.462,0,0,0,.607-.628V-2.82h-.779q-1.826,0-1.826,1.069a.9.9,0,0,0,.312.73A1.2,1.2,0,0,0,41.895-.757Zm3.8-2.2a3.4,3.4,0,0,1,.634-2.151,2,2,0,0,1,1.66-.814,2.016,2.016,0,0,1,1.617.7V-8.25H50.6V0h-.913L49.64-.623a2.024,2.024,0,0,1-1.66.73A1.985,1.985,0,0,1,46.334-.72,3.443,3.443,0,0,1,45.7-2.879Zm.994.113A2.578,2.578,0,0,0,47.1-1.294a1.32,1.32,0,0,0,1.128.559,1.45,1.45,0,0,0,1.38-.849V-4.254a1.461,1.461,0,0,0-1.37-.822,1.326,1.326,0,0,0-1.139.564A2.838,2.838,0,0,0,46.691-2.841Zm5.188-.118A3.433,3.433,0,0,1,52.215-4.5a2.5,2.5,0,0,1,.935-1.053,2.544,2.544,0,0,1,1.367-.371,2.451,2.451,0,0,1,1.92.822,3.162,3.162,0,0,1,.733,2.186v.07a3.463,3.463,0,0,1-.325,1.523,2.467,2.467,0,0,1-.929,1.05,2.573,2.573,0,0,1-1.388.376,2.445,2.445,0,0,1-1.915-.822,3.146,3.146,0,0,1-.733-2.175Zm1,.118a2.486,2.486,0,0,0,.448,1.552,1.435,1.435,0,0,0,1.2.585,1.427,1.427,0,0,0,1.2-.594,2.719,2.719,0,0,0,.446-1.662,2.482,2.482,0,0,0-.454-1.55A1.443,1.443,0,0,0,54.517-5.1a1.427,1.427,0,0,0-1.187.585A2.7,2.7,0,0,0,52.878-2.841Z" transform="translate(189.399 23.423)"/>
  <path id="Trazado_699178" data-name="Trazado 699178" d="M4.549-7.826v.843H4.367a2.616,2.616,0,0,0-1.848.688A2.861,2.861,0,0,0,1.724-4.42a2.121,2.121,0,0,1,1.687-.709,2.028,2.028,0,0,1,1.63.72,2.776,2.776,0,0,1,.61,1.858A2.767,2.767,0,0,1,4.992-.618,2.266,2.266,0,0,1,3.228.107,2.232,2.232,0,0,1,1.407-.755a3.417,3.417,0,0,1-.7-2.221v-.381a5.148,5.148,0,0,1,.921-3.3A3.383,3.383,0,0,1,4.372-7.826ZM3.244-4.3A1.585,1.585,0,0,0,2.3-4a1.6,1.6,0,0,0-.6.768v.365a2.565,2.565,0,0,0,.435,1.558,1.3,1.3,0,0,0,1.085.591,1.263,1.263,0,0,0,1.055-.494A2.05,2.05,0,0,0,4.667-2.5a2.051,2.051,0,0,0-.389-1.3A1.248,1.248,0,0,0,3.244-4.3ZM6.95-.521A.622.622,0,0,1,7.1-.951a.583.583,0,0,1,.459-.172.6.6,0,0,1,.465.172.61.61,0,0,1,.158.43.577.577,0,0,1-.158.414.612.612,0,0,1-.465.167A.594.594,0,0,1,7.1-.107.588.588,0,0,1,6.95-.521Zm4.216-3.873h.747a1.641,1.641,0,0,0,1.106-.371,1.238,1.238,0,0,0,.4-.972,1.213,1.213,0,0,0-1.37-1.375,1.425,1.425,0,0,0-1.029.368,1.288,1.288,0,0,0-.384.975H9.646a2,2,0,0,1,.679-1.544,2.475,2.475,0,0,1,1.727-.615,2.446,2.446,0,0,1,1.735.585,2.115,2.115,0,0,1,.628,1.627,1.717,1.717,0,0,1-.33.988,1.994,1.994,0,0,1-.9.714,1.922,1.922,0,0,1,1,.677,1.88,1.88,0,0,1,.352,1.155,2.133,2.133,0,0,1-.687,1.67,2.575,2.575,0,0,1-1.789.618,2.643,2.643,0,0,1-1.791-.6,1.978,1.978,0,0,1-.69-1.574h1a1.278,1.278,0,0,0,.4.988,1.532,1.532,0,0,0,1.08.371,1.5,1.5,0,0,0,1.1-.376,1.449,1.449,0,0,0,.381-1.08,1.315,1.315,0,0,0-.419-1.047,1.825,1.825,0,0,0-1.208-.376h-.747Zm8,4.394h-1V-6.623l-2,.736v-.9l2.847-1.069h.156Zm5.548-6.316a1.587,1.587,0,0,1,.448-1.16,1.545,1.545,0,0,1,1.152-.457,1.536,1.536,0,0,1,1.157.459,1.642,1.642,0,0,1,.443,1.19V-5.9a1.566,1.566,0,0,1-.448,1.157,1.546,1.546,0,0,1-1.141.448,1.58,1.58,0,0,1-1.155-.448,1.6,1.6,0,0,1-.457-1.2Zm.741.411a1.016,1.016,0,0,0,.236.692.8.8,0,0,0,.634.272.782.782,0,0,0,.615-.264,1.05,1.05,0,0,0,.234-.721V-6.32a1.042,1.042,0,0,0-.231-.694.778.778,0,0,0-.628-.275.778.778,0,0,0-.628.275,1.075,1.075,0,0,0-.231.716Zm3.067,3.988a1.578,1.578,0,0,1,.448-1.157,1.55,1.55,0,0,1,1.152-.454,1.564,1.564,0,0,1,1.155.451,1.619,1.619,0,0,1,.451,1.2V-1.5a1.578,1.578,0,0,1-.448,1.157,1.543,1.543,0,0,1-1.147.454,1.58,1.58,0,0,1-1.155-.448,1.6,1.6,0,0,1-.457-1.2Zm.741.417a1.024,1.024,0,0,0,.236.7.8.8,0,0,0,.634.272A.776.776,0,0,0,30.75-.8a1.068,1.068,0,0,0,.231-.724v-.4a1.021,1.021,0,0,0-.234-.694.787.787,0,0,0-.626-.269.8.8,0,0,0-.62.266,1.036,1.036,0,0,0-.239.719Zm-2.712.91-.564-.354L29.8-7.058l.564.354Z" transform="translate(205.92 38.684)"/>
  <g id="Grupo_973784" data-name="Grupo 973784">
    <g id="Grupo_973783" data-name="Grupo 973783" clip-path="url(#clip-path-2)">
      <path id="Trazado_699186" data-name="Trazado 699186" d="M6.66-2.481A2.877,2.877,0,0,1,5.744-.567,3,3,0,0,1,3.7.107,2.756,2.756,0,0,1,1.474-.886,4,4,0,0,1,.639-3.545V-4.3a4.456,4.456,0,0,1,.389-1.917,2.909,2.909,0,0,1,1.1-1.27,3.073,3.073,0,0,1,1.654-.443,2.826,2.826,0,0,1,2,.7A2.912,2.912,0,0,1,6.66-5.307H5.624a2.247,2.247,0,0,0-.583-1.358,1.763,1.763,0,0,0-1.254-.42,1.845,1.845,0,0,0-1.55.731,3.356,3.356,0,0,0-.561,2.08v.758a3.45,3.45,0,0,0,.532,2.027A1.718,1.718,0,0,0,3.7-.736a1.984,1.984,0,0,0,1.319-.389,2.161,2.161,0,0,0,.61-1.356Zm.988-.478A3.433,3.433,0,0,1,7.984-4.5a2.5,2.5,0,0,1,.935-1.053,2.544,2.544,0,0,1,1.367-.371,2.451,2.451,0,0,1,1.92.822,3.162,3.162,0,0,1,.733,2.186v.07a3.462,3.462,0,0,1-.325,1.523,2.467,2.467,0,0,1-.929,1.05A2.573,2.573,0,0,1,10.3.107,2.445,2.445,0,0,1,8.382-.714,3.146,3.146,0,0,1,7.648-2.89Zm1,.118A2.486,2.486,0,0,0,9.1-1.289,1.435,1.435,0,0,0,10.3-.7,1.427,1.427,0,0,0,11.5-1.3a2.719,2.719,0,0,0,.446-1.662,2.482,2.482,0,0,0-.454-1.55A1.443,1.443,0,0,0,10.286-5.1,1.427,1.427,0,0,0,9.1-4.517,2.7,2.7,0,0,0,8.647-2.841Zm6.472-2.97.027.645a2.146,2.146,0,0,1,1.724-.752,1.662,1.662,0,0,1,1.66.935,2.2,2.2,0,0,1,.755-.677,2.229,2.229,0,0,1,1.1-.258q1.912,0,1.944,2.025V0h-.994V-3.835a1.334,1.334,0,0,0-.285-.932,1.254,1.254,0,0,0-.956-.309,1.318,1.318,0,0,0-.918.33,1.34,1.34,0,0,0-.424.889V0h-1V-3.808a1.109,1.109,0,0,0-1.241-1.268,1.329,1.329,0,0,0-1.337.833V0H14.18V-5.812ZM26.238.107a2.539,2.539,0,0,1-1.923-.776,2.881,2.881,0,0,1-.741-2.076v-.183a3.487,3.487,0,0,1,.33-1.544,2.577,2.577,0,0,1,.924-1.063,2.323,2.323,0,0,1,1.286-.384,2.177,2.177,0,0,1,1.762.747A3.232,3.232,0,0,1,28.5-3.035v.414H24.567a2.066,2.066,0,0,0,.5,1.388A1.579,1.579,0,0,0,26.292-.7a1.731,1.731,0,0,0,.892-.215,2.24,2.24,0,0,0,.639-.569l.607.473A2.44,2.44,0,0,1,26.238.107ZM26.114-5.1a1.325,1.325,0,0,0-1.01.438,2.128,2.128,0,0,0-.5,1.227h2.911v-.075A1.893,1.893,0,0,0,27.1-4.686,1.248,1.248,0,0,0,26.114-5.1Zm6.349.183a2.978,2.978,0,0,0-.489-.038,1.309,1.309,0,0,0-1.327.833V0h-.994V-5.812h.967l.016.671a1.547,1.547,0,0,1,1.386-.779,1.015,1.015,0,0,1,.44.075ZM35.506-.7a1.431,1.431,0,0,0,.929-.322,1.134,1.134,0,0,0,.44-.806h.94a1.8,1.8,0,0,1-.344.951,2.264,2.264,0,0,1-.846.72,2.441,2.441,0,0,1-1.12.269,2.394,2.394,0,0,1-1.888-.792,3.155,3.155,0,0,1-.7-2.167v-.167a3.5,3.5,0,0,1,.312-1.509,2.373,2.373,0,0,1,.894-1.026A2.54,2.54,0,0,1,35.5-5.919a2.331,2.331,0,0,1,1.625.585,2.092,2.092,0,0,1,.69,1.52h-.94a1.369,1.369,0,0,0-.427-.927A1.328,1.328,0,0,0,35.5-5.1a1.391,1.391,0,0,0-1.174.545,2.56,2.56,0,0,0-.416,1.576v.188a2.509,2.509,0,0,0,.414,1.547A1.4,1.4,0,0,0,35.506-.7Zm4.506.7h-.994V-5.812h.994ZM38.938-7.353a.593.593,0,0,1,.148-.408.555.555,0,0,1,.438-.167.563.563,0,0,1,.44.167.587.587,0,0,1,.15.408.568.568,0,0,1-.15.4.573.573,0,0,1-.44.161.565.565,0,0,1-.438-.161A.573.573,0,0,1,38.938-7.353ZM45.19,0a2.087,2.087,0,0,1-.14-.612A2.217,2.217,0,0,1,43.4.107a2.051,2.051,0,0,1-1.41-.486,1.573,1.573,0,0,1-.551-1.233,1.643,1.643,0,0,1,.69-1.41,3.254,3.254,0,0,1,1.942-.5h.967V-3.98a1.116,1.116,0,0,0-.312-.83,1.252,1.252,0,0,0-.918-.309,1.449,1.449,0,0,0-.892.269.791.791,0,0,0-.36.65h-1a1.371,1.371,0,0,1,.309-.841,2.108,2.108,0,0,1,.838-.642,2.819,2.819,0,0,1,1.163-.236,2.3,2.3,0,0,1,1.574.5,1.812,1.812,0,0,1,.591,1.383v2.675a3.27,3.27,0,0,0,.2,1.273V0ZM43.541-.757A1.746,1.746,0,0,0,44.427-1a1.462,1.462,0,0,0,.607-.628V-2.82h-.779q-1.826,0-1.826,1.069a.9.9,0,0,0,.312.73A1.2,1.2,0,0,0,43.541-.757ZM48.665,0h-.994V-8.25h.994ZM54.88-1.456l1.354-4.356H57.3L54.96.9q-.542,1.45-1.724,1.45l-.188-.016-.371-.07V1.456l.269.021a1.322,1.322,0,0,0,.787-.2A1.477,1.477,0,0,0,54.2.526l.22-.591L52.344-5.812h1.085Z" transform="translate(319.004 101.426)"/>
    </g>
  </g>
  <path id="Trazado_699179" data-name="Trazado 699179" d="M5.661-2.841A3.48,3.48,0,0,1,5.054-.7,1.945,1.945,0,0,1,3.411.107,2.131,2.131,0,0,1,1.746-.564v2.8H.752V-5.812H1.66l.048.645a2.047,2.047,0,0,1,1.687-.752,1.982,1.982,0,0,1,1.657.79,3.518,3.518,0,0,1,.61,2.2Zm-.994-.113a2.568,2.568,0,0,0-.419-1.552A1.35,1.35,0,0,0,3.1-5.076a1.461,1.461,0,0,0-1.354.8V-1.5A1.464,1.464,0,0,0,3.11-.7,1.343,1.343,0,0,0,4.246-1.27,2.8,2.8,0,0,0,4.667-2.954ZM10.511-.575a2.111,2.111,0,0,1-1.7.682,1.807,1.807,0,0,1-1.415-.54A2.336,2.336,0,0,1,6.9-2.03V-5.812H7.9v3.754Q7.9-.736,8.97-.736a1.487,1.487,0,0,0,1.515-.849V-5.812h.994V0h-.945ZM9.706-8.25h1.2L9.469-6.671l-.8,0Zm8.2,5.409A3.455,3.455,0,0,1,17.295-.7a1.956,1.956,0,0,1-1.644.808,2.026,2.026,0,0,1-1.7-.779L13.9,0h-.913V-8.25h.994v3.078a2.014,2.014,0,0,1,1.66-.747,1.968,1.968,0,0,1,1.662.8,3.559,3.559,0,0,1,.6,2.191Zm-.994-.113a2.685,2.685,0,0,0-.392-1.568,1.3,1.3,0,0,0-1.128-.553,1.459,1.459,0,0,0-1.413.913v2.514A1.5,1.5,0,0,0,15.4-.736a1.291,1.291,0,0,0,1.112-.553A2.855,2.855,0,0,0,16.914-2.954ZM20.238,0h-.994V-8.25h.994Zm2.669,0h-.994V-5.812h.994ZM21.833-7.353a.593.593,0,0,1,.148-.408.555.555,0,0,1,.438-.167.563.563,0,0,1,.44.167.587.587,0,0,1,.15.408.568.568,0,0,1-.15.4.573.573,0,0,1-.44.161.565.565,0,0,1-.438-.161A.573.573,0,0,1,21.833-7.353Zm5,6.649a1.431,1.431,0,0,0,.929-.322,1.134,1.134,0,0,0,.44-.806h.94a1.8,1.8,0,0,1-.344.951,2.264,2.264,0,0,1-.846.72,2.441,2.441,0,0,1-1.12.269,2.394,2.394,0,0,1-1.888-.792,3.155,3.155,0,0,1-.7-2.167v-.167a3.5,3.5,0,0,1,.312-1.509,2.373,2.373,0,0,1,.894-1.026,2.54,2.54,0,0,1,1.378-.365,2.331,2.331,0,0,1,1.625.585,2.092,2.092,0,0,1,.69,1.52H28.2a1.369,1.369,0,0,0-.427-.927,1.328,1.328,0,0,0-.948-.363,1.391,1.391,0,0,0-1.174.545,2.56,2.56,0,0,0-.416,1.576v.188a2.509,2.509,0,0,0,.414,1.547A1.4,1.4,0,0,0,26.829-.7Zm3.164-2.256A3.433,3.433,0,0,1,30.328-4.5a2.5,2.5,0,0,1,.935-1.053,2.544,2.544,0,0,1,1.367-.371,2.451,2.451,0,0,1,1.92.822,3.162,3.162,0,0,1,.733,2.186v.07a3.463,3.463,0,0,1-.325,1.523,2.467,2.467,0,0,1-.929,1.05A2.573,2.573,0,0,1,32.64.107a2.445,2.445,0,0,1-1.915-.822,3.146,3.146,0,0,1-.733-2.175Zm1,.118a2.486,2.486,0,0,0,.448,1.552,1.435,1.435,0,0,0,1.2.585,1.427,1.427,0,0,0,1.2-.594,2.719,2.719,0,0,0,.446-1.662,2.482,2.482,0,0,0-.454-1.55A1.443,1.443,0,0,0,32.629-5.1a1.427,1.427,0,0,0-1.187.585A2.7,2.7,0,0,0,30.991-2.841Z" transform="translate(331.58 116.687)"/>
  <path id="Trazado_699180" data-name="Trazado 699180" d="M1.106-3.921l.4-3.9H5.511V-6.9H2.347L2.111-4.77a2.524,2.524,0,0,1,1.305-.338,2.158,2.158,0,0,1,1.7.706,2.768,2.768,0,0,1,.628,1.909,2.672,2.672,0,0,1-.653,1.9,2.379,2.379,0,0,1-1.823.7A2.472,2.472,0,0,1,1.574-.467a2.294,2.294,0,0,1-.747-1.59h.94a1.578,1.578,0,0,0,.478,1.012A1.486,1.486,0,0,0,3.266-.7a1.341,1.341,0,0,0,1.088-.473,1.976,1.976,0,0,0,.395-1.305,1.814,1.814,0,0,0-.427-1.26,1.452,1.452,0,0,0-1.136-.475,1.638,1.638,0,0,0-1.021.285L1.9-3.717ZM6.95-.521A.622.622,0,0,1,7.1-.951a.583.583,0,0,1,.459-.172.6.6,0,0,1,.465.172.61.61,0,0,1,.158.43.577.577,0,0,1-.158.414.612.612,0,0,1-.465.167A.594.594,0,0,1,7.1-.107.588.588,0,0,1,6.95-.521Zm4.216-3.873h.747a1.641,1.641,0,0,0,1.106-.371,1.238,1.238,0,0,0,.4-.972,1.213,1.213,0,0,0-1.37-1.375,1.425,1.425,0,0,0-1.029.368,1.288,1.288,0,0,0-.384.975H9.646a2,2,0,0,1,.679-1.544,2.475,2.475,0,0,1,1.727-.615,2.446,2.446,0,0,1,1.735.585,2.115,2.115,0,0,1,.628,1.627,1.717,1.717,0,0,1-.33.988,1.994,1.994,0,0,1-.9.714,1.922,1.922,0,0,1,1,.677,1.88,1.88,0,0,1,.352,1.155,2.133,2.133,0,0,1-.687,1.67,2.575,2.575,0,0,1-1.789.618,2.643,2.643,0,0,1-1.791-.6,1.978,1.978,0,0,1-.69-1.574h1a1.278,1.278,0,0,0,.4.988,1.532,1.532,0,0,0,1.08.371,1.5,1.5,0,0,0,1.1-.376,1.449,1.449,0,0,0,.381-1.08,1.315,1.315,0,0,0-.419-1.047,1.825,1.825,0,0,0-1.208-.376h-.747ZM21.022,0H15.9V-.714l2.707-3.008a6.431,6.431,0,0,0,.83-1.109,1.851,1.851,0,0,0,.228-.884,1.4,1.4,0,0,0-.371-1,1.3,1.3,0,0,0-.988-.392,1.535,1.535,0,0,0-1.152.422,1.611,1.611,0,0,0-.411,1.174h-.994a2.307,2.307,0,0,1,.7-1.746A2.579,2.579,0,0,1,18.3-7.928a2.478,2.478,0,0,1,1.724.572,1.951,1.951,0,0,1,.634,1.523,4.474,4.474,0,0,1-1.472,2.75L17.1-.811h3.926Zm3.69-6.316a1.587,1.587,0,0,1,.448-1.16,1.545,1.545,0,0,1,1.152-.457,1.536,1.536,0,0,1,1.157.459,1.642,1.642,0,0,1,.443,1.19V-5.9a1.566,1.566,0,0,1-.448,1.157,1.546,1.546,0,0,1-1.141.448,1.58,1.58,0,0,1-1.155-.448,1.6,1.6,0,0,1-.457-1.2Zm.741.411a1.016,1.016,0,0,0,.236.692.8.8,0,0,0,.634.272.782.782,0,0,0,.615-.264,1.05,1.05,0,0,0,.234-.721V-6.32a1.042,1.042,0,0,0-.231-.694.778.778,0,0,0-.628-.275.778.778,0,0,0-.628.275,1.075,1.075,0,0,0-.231.716Zm3.067,3.988a1.578,1.578,0,0,1,.448-1.157,1.55,1.55,0,0,1,1.152-.454,1.564,1.564,0,0,1,1.155.451,1.619,1.619,0,0,1,.451,1.2V-1.5a1.578,1.578,0,0,1-.448,1.157,1.543,1.543,0,0,1-1.147.454,1.58,1.58,0,0,1-1.155-.448,1.6,1.6,0,0,1-.457-1.2Zm.741.417a1.024,1.024,0,0,0,.236.7.8.8,0,0,0,.634.272A.776.776,0,0,0,30.75-.8a1.068,1.068,0,0,0,.231-.724v-.4a1.021,1.021,0,0,0-.234-.694.787.787,0,0,0-.626-.269.8.8,0,0,0-.62.266,1.036,1.036,0,0,0-.239.719Zm-2.712.91-.564-.354L29.8-7.058l.564.354Z" transform="translate(335.217 131.948)"/>
</svg>
