<svg xmlns="http://www.w3.org/2000/svg" xmlns:xlink="http://www.w3.org/1999/xlink" width="476.148" height="386.377" viewBox="0 0 476.148 386.377">
  <defs>
    <clipPath id="clip-path">
      <path id="Trazado_696866" data-name="Trazado 696866" d="M506.708,531.267s-4.179-19.33-18.111-41.211q-4.919-7.732-10.36-15.043a250.739,250.739,0,0,0-28.612-32.178,254.057,254.057,0,0,0-30.87-24.95A259.645,259.645,0,0,0,305.9,374.62a263.213,263.213,0,0,0-93.714,4.536c-1.748.4-3.5.791-5.25,1.231-2.029.51-4.064.951-6.041,1.595C68.084,425.228,30.56,531.1,30.56,531.1Z" transform="translate(-30.56 -372.365)" fill="none"/>
    </clipPath>
  </defs>
  <g id="ORGANIZACIÓN" transform="translate(-30.56 -10.073)">
    <g id="Capa_1" data-name="Capa 1" transform="translate(30.56 0)">
      <g id="Grupo_972650" data-name="Grupo 972650" transform="translate(26.845 28.057)" opacity="0.93">
        <path id="Trazado_696856" data-name="Trazado 696856" d="M92.04,409.33s-31.61-35.674-14.13-86.486c7.879-22.9,25.773-42.723,24.223-67.284-.88-13.977-8.127-26.175-12.612-39.2-10.08-29.288-5.289-64.681,12.051-89.038s46.512-36.682,73.4-31c8.95,1.888,17.748,5.62,26.838,5.206,18.392-.848,32.593-17.831,47.252-30.66,17.945-15.7,39.712-26.436,62.238-26.87a69.86,69.86,0,0,1,59.354,30.953c9.958,15,14.564,34.175,25.307,48.439,22.462,29.824,64.407,29.735,88.7,57.587,6.322,7.247,11.311,16.708,11.547,26.985.255,11.413-5.231,21.786-10.067,31.744-10.105,20.8-18.3,44.994-13.148,68.081,4.37,19.559,17.588,34.9,23.974,53.7,6.622,19.515-1.078,48.356-1.078,48.356l-403.831-.5Z" transform="translate(-72.64 -43.98)" fill="#e9eff8"/>
      </g>
      <g id="Grupo_972654" data-name="Grupo 972654" transform="translate(0 237.548)" clip-path="url(#clip-path)">
        <g id="Grupo_972653" data-name="Grupo 972653" transform="translate(-19.496 -0.695)">
          <path id="Trazado_696857" data-name="Trazado 696857" d="M510.08,561.7a247.332,247.332,0,0,0-31.272-72.738q-4.919-7.732-10.36-15.043a250.741,250.741,0,0,0-28.612-32.178,254.059,254.059,0,0,0-30.87-24.95A259.645,259.645,0,0,0,296.114,373.53a263.212,263.212,0,0,0-93.714,4.536c-1.748.4-3.5.791-5.25,1.231-2.029.51-4.038,1.046-6.041,1.595A260.866,260.866,0,0,0,26.525,515.645,248.738,248.738,0,0,0,34.283,753.33C87.4,843.618,194.413,893.945,303.335,874.022q8.555-1.569,17.11-3.7c1.321-.332,2.622-.689,3.93-1.04C439.026,838.655,515.93,737.158,517.563,625.83a247.962,247.962,0,0,0-7.477-64.12Z" transform="translate(0.001 -371.275)" fill="#83cacb"/>
          <g id="Grupo_972651" data-name="Grupo 972651" transform="translate(78.608 32.015)" opacity="0.08">
            <path id="Trazado_696858" data-name="Trazado 696858" d="M554.693,579.874a247.332,247.332,0,0,0-31.272-72.738q-4.919-7.732-10.36-15.043a250.744,250.744,0,0,0-28.612-32.178,254.059,254.059,0,0,0-30.87-24.95,257.989,257.989,0,0,0-22-13.505c.236.223.478.427.715.651a250.254,250.254,0,0,1,28.612,32.178q5.445,7.3,10.36,15.043a248.748,248.748,0,0,1,38.749,136.858c-1.633,111.328-78.531,212.818-193.188,243.452-1.308.351-2.609.708-3.93,1.04q-8.555,2.153-17.11,3.7A261.057,261.057,0,0,1,123.22,826.8c57.887,54.308,140.724,80.751,224.722,65.383q8.555-1.569,17.11-3.7c1.321-.332,2.622-.689,3.93-1.04C483.633,856.818,560.537,755.321,562.17,643.994a247.965,247.965,0,0,0-7.477-64.12Z" transform="translate(-123.22 -421.46)" fill="#383838"/>
          </g>
          <g id="Grupo_972652" data-name="Grupo 972652" transform="translate(26.539 0)" opacity="0.6">
            <path id="Trazado_696859" data-name="Trazado 696859" d="M764.712,628.5A247.329,247.329,0,0,0,733.44,555.76c-4.536,3.413-8.6,7.317-11.081,12.357a29.3,29.3,0,0,0-1.6,4.07,95.8,95.8,0,0,0-2.411,10.96,150.828,150.828,0,0,1-11.579,35.7c-2.239,4.772-4.772,10.213-2.718,15.068,1.391,3.292,4.561,5.4,7.049,7.961a23.414,23.414,0,0,1,5.588,22.283c-.868,3.037-2.348,6.36-.906,9.167,1.608,3.132,5.614,3.515,9.1,4.612a14.4,14.4,0,0,1,1.78.663c9.844,4.485,8.261,20.644,17.384,26.462,3.9,2.488,9.059,2.4,13.352.67s7.84-4.919,10.934-8.363c1.365-1.518,2.635-3.107,3.853-4.746a247.964,247.964,0,0,0-7.477-64.12Z" transform="translate(-281.17 -438.069)" fill="#a8d3b4"/>
            <path id="Trazado_696860" data-name="Trazado 696860" d="M579.728,870.918a15.548,15.548,0,0,0-6.137-3.394c-10.647-3.33-22.149-1.882-33.211-3.285-21.46-2.724-40.05-15.923-60.707-22.347-6.124-1.907-12.6-3.222-18.941-2.271-4.8.715-9.352,2.7-14.169,3.234-10.316,1.142-21.263-4.364-30.806-.287-7.993,3.413-12.083,12.759-12.044,21.454l-.88,4.523q-1.521,13.56-3.049,27.125c-.555,4.957-1.11,10.035.064,14.883a31.463,31.463,0,0,0,4.95,10.277A57.993,57.993,0,0,0,427.412,940.1c5.378,2.565,11.438,4.5,15.119,9.193,6.2,7.9,2.781,19,1.671,29.167-.077.721-.147,1.442-.2,2.156-1.244,17.224,7.8,34.583,3.668,51.348-.951,3.853-2.105,8.855.185,11.528q8.555-1.569,17.11-3.7c1.321-.332,2.622-.689,3.93-1.04a24.759,24.759,0,0,0,6.245-6.041c3.049-4.306,4.44-9.569,7.2-14.067,5.1-8.325,14.443-13.327,19.674-21.569,3.9-6.156,5.193-13.6,8.351-20.172,9.1-18.96,32.535-28.644,39.482-48.5,2.2-6.277,2.533-13.129,5.078-19.272,4.293-10.379,14.1-17.18,22.22-24.944,2.616-2.5,5.289-5.71,4.759-9.288a6.908,6.908,0,0,0-2.163-3.962Z" transform="translate(-171.055 -540.728)" fill="#a8d3b4"/>
            <path id="Trazado_696861" data-name="Trazado 696861" d="M444.91,545.671l-10.086-3.923a3.651,3.651,0,0,0-4.931,2.9c-.134.893-.274,1.786-.447,2.673-.172.906-.376,1.805-.593,2.737a3.669,3.669,0,0,0,3.655,4.5l11.579-.294a3.663,3.663,0,0,0,3.451-4.555l-.357-1.423a3.728,3.728,0,0,0-2.258-2.609Z" transform="translate(-181.771 -432.905)" fill="#a8d3b4"/>
            <path id="Trazado_696862" data-name="Trazado 696862" d="M500.289,404.635c7.515,4.657,9.563,4.376,15.119-1.276a3.227,3.227,0,0,0-1.2-5.308c-4.344-1.563-6.641-1.4-13.231.791a3.22,3.22,0,0,0-.689,5.786Z" transform="translate(-207.122 -380.595)" fill="#a8d3b4"/>
            <path id="Trazado_696863" data-name="Trazado 696863" d="M265.512,686.186a127.331,127.331,0,0,0-34.551-18.22c-2.788-.957-5.69-1.863-7.936-3.77-4.434-3.764-5.148-10.3-8.319-15.164a17.3,17.3,0,0,0-15.126-7.662c-8.651.485-18.322,7.19-24.969,1.633-5.85-4.887-2.813-14.5,1.793-20.574,4.651-6.137,10.622-11.477,17.818-14.213s15.706-2.584,22.226,1.512c2.488,1.563,4.683,3.668,7.451,4.651,7.706,2.718,15.681-4.81,17.563-12.765s-.07-16.268.121-24.433a47.417,47.417,0,0,1,21.435-38.143c4.97-3.183,10.89-5.773,13.486-11.075,4.319-8.816-3.011-19.84.549-28.995,3.254-8.376,14.979-13.626,13.3-22.449-1.563-8.229-12.58-9.257-20.695-11.336a35.133,35.133,0,0,1-15.413-8.517c-3.368-3.2-6.59-7.317-11.215-7.751a16.3,16.3,0,0,0-5.352.708q-5.856,1.464-11.725,2.922c-4.025,1-8.274,2.131-11.151,5.123-5.2,5.4-3.923,14.634-8.523,20.555-5.837,7.509-19.368,4.989-23.732-3.464s-.408-19.547,7.241-25.192,17.952-6.609,27.3-4.88c4.466.823,8.918,2.214,13.448,1.907,10.571-.714,18.9-11.681,17.805-22.226s-10.462-19.272-20.944-20.8c-4.785-.7-9.658-.1-14.494-.281a7.7,7.7,0,0,1-3.847-.893c-4.67-2.941-.938-11.859-2.877-16.057A260.865,260.865,0,0,0,41.6,521.093c.064.351.115.7.2,1.053,1.244,5.48,4.408,10.284,6.954,15.291a73.056,73.056,0,0,1,6.418,47.17c-1.4,6.915-3.617,14.813.587,20.478,1.461,1.971,3.541,3.375,5.461,4.906a44.069,44.069,0,0,1,13.154,17.492c2.322,5.6,3.6,11.872,7.681,16.351,11.5,12.612,35.482,2.348,47.859,14.1,7.324,6.96,7.375,18.915,13.811,26.7,5.895,7.126,15.961,9.288,25.2,9.046s18.392-2.437,27.629-2.105c12.178.447,23.751,5.238,35.782,7.183s26.034.23,33.5-9.4a2.377,2.377,0,0,0,.689-2.061,2.458,2.458,0,0,0-1-1.136Z" transform="translate(-41.6 -376.729)" fill="#a8d3b4"/>
            <path id="Trazado_696864" data-name="Trazado 696864" d="M320.874,382.149c4.459,3.158,10.162,3.764,15.54,4.708s11.126,2.6,14.373,6.986c4.242,5.735,2.864,14.29,7.215,19.942,2.59,3.362,6.743,5.059,10.7,6.615q19.54,7.674,39.087,15.343c2.163.849,4.963,1.569,6.533-.147a5.452,5.452,0,0,0,1.085-3.2,38.858,38.858,0,0,0-2.1-16.988c-1.582-4.4-4-8.727-3.738-13.39.287-5.2,3.853-9.671,4.778-14.788.855-4.746-.689-9.627-3.362-13.7a263.214,263.214,0,0,0-93.714,4.536A12.415,12.415,0,0,0,320.874,382.149Z" transform="translate(-141.408 -371.275)" fill="#a8d3b4"/>
            <path id="Trazado_696865" data-name="Trazado 696865" d="M684.375,515.645c.447-.4.9-.8,1.346-1.206,3.151-2.89,6.118-6.15,7.049-10.271a14.106,14.106,0,0,0,.236-4.421A250.739,250.739,0,0,0,664.4,467.57a254.061,254.061,0,0,0-30.87-24.95,24.6,24.6,0,0,0-9.371,3.145,8.235,8.235,0,0,0-3.464,3.33c-1.582,3.356,1.033,7.241,4.07,9.371,4.128,2.89,9.123,4.191,13.735,6.2s9.212,5.135,10.8,9.914c1.506,4.529-.013,9.563,1.008,14.232.81,3.719,3.158,6.89,5.448,9.933q6.019,8.009,12.038,16.025c1.627,2.169,3.451,4.466,6.067,5.18,3.821,1.04,7.553-1.684,10.52-4.3Z" transform="translate(-251.091 -397.106)" fill="#a8d3b4"/>
          </g>
        </g>
      </g>
      <path id="Trazado_696867" data-name="Trazado 696867" d="M495.245,490.186q-4.919-7.732-10.36-15.043a250.74,250.74,0,0,0-28.612-32.178,254.056,254.056,0,0,0-30.87-24.95A259.645,259.645,0,0,0,312.551,374.75a263.212,263.212,0,0,0-93.714,4.536c-1.748.4-3.5.791-5.25,1.231-2.029.51-4.038,1.046-6.041,1.595C133.033,402.667,77.226,460.719,54.26,499.844c-1.927,3.279,75.7-97.816,229.66-101.222,126.064-2.788,225.258,113.445,211.332,91.558Z" transform="translate(-39.128 -134.864)" fill="#d1deed" opacity="0.65"/>
      <g id="Grupo_972657" data-name="Grupo 972657" transform="translate(38.155 75.501)">
        <g id="Grupo_972655" data-name="Grupo 972655" transform="translate(50.927 25.894)">
          <path id="Trazado_661157" data-name="Trazado 661157" d="M258.8,228.58h.255a3.292,3.292,0,0,1,3.292,3.292v6.341h-7.1v-6.086a3.561,3.561,0,0,1,3.553-3.547" transform="translate(-200.993 -184.154)" fill="#3e3f71" fill-rule="evenodd"/>
          <path id="Trazado_661158" data-name="Trazado 661158" d="M246.01,232.858c-.453.23-.9.453-1.34.683a3.531,3.531,0,0,0-1.321,2.756v6.086c3.088-1.62,5.633-2.794,7.1-3.521.179-.089.344-.083.491-.16v-6.086a3.543,3.543,0,0,1,1.238-2.686c-1.818.829-4.038,1.863-6.169,2.922" transform="translate(-196.684 -184.642)" fill="#7071b2" fill-rule="evenodd"/>
          <path id="Trazado_661159" data-name="Trazado 661159" d="M243.343,247.355h6.852c.077-.045.166-.083.242-.128,3.681-1.907,6.52-3.1,7.585-3.547h-7.1c-1.212.147-6.284,2.992-7.592,3.675" transform="translate(-196.677 -189.621)" fill="#464f73" fill-rule="evenodd"/>
          <path id="Trazado_661160" data-name="Trazado 661160" d="M253.13,245.76c.944,0,1.7.344,1.7.766,0,26.9-.159,53.976-.159,80.942h-3.158c0-26.972-.1-54-.1-80.942,0-.421.759-.766,1.7-.766" transform="translate(-199.606 -190.374)" fill="#9598cb" fill-rule="evenodd"/>
          <path id="Trazado_661161" data-name="Trazado 661161" d="M253.13,245.76a3.3,3.3,0,0,1,.434.026c-.734.089-1.276.383-1.276.74,0,26.947.1,53.964.1,80.942h-.868c0-26.972-.1-54-.1-80.942,0-.421.759-.766,1.7-.766" transform="translate(-199.606 -190.374)" fill="#2e73b8" fill-rule="evenodd"/>
          <path id="Trazado_661162" data-name="Trazado 661162" d="M228.828,236.984l-5.722,1.588-3.483,4.606-46.315,3.758-1.978-1.116,57.683-11.049-.191,2.214Z" transform="translate(-170.609 -186.395)" fill="#6a68ac" fill-rule="evenodd"/>
          <path id="Trazado_661163" data-name="Trazado 661163" d="M261.99,235.936l3.757,4.319,5.454,1.129,22.443,38.781-.153,2.182L259.98,236.683l2.01-.753Z" transform="translate(-202.705 -186.815)" fill="#6a68ac" fill-rule="evenodd"/>
          <path id="Trazado_661164" data-name="Trazado 661164" d="M260.37,207.89l2.035-5.244-1.518-5.25,23.406-37.269,1.971-.868L261.952,209.3l-1.576-1.4Z" transform="translate(-202.847 -159.056)" fill="#6a68ac" fill-rule="evenodd"/>
          <path id="Trazado_661165" data-name="Trazado 661165" d="M228.948,205.752h0a2.981,2.981,0,0,1,.868.561l22.724-46.761-1.378.606-23.323,37.135,1.493,5.161v.134l-1.148,2.96a2.934,2.934,0,0,1,.772.2m-3.285,4.574-3.464.97-3.439,4.549-.057.077h-.1L172.3,219.672l-.121-.026L170.2,218.53l.064-.4,54.793-10.494a2.892,2.892,0,0,1,2.679-2.112l1.174-3.024-1.5-5.186-.026-.089.051-.077,23.406-37.269.1-.077,1.971-.868.274.287-23.049,47.437a2.76,2.76,0,0,1,.383.663,2.893,2.893,0,0,1,0,2.214h0l-.019.051,2.246,2.584,5.384,1.116.089.019.045.077,22.449,38.774.026.121-.153,2.188-.383.108-31.8-43.323a2.887,2.887,0,0,1-1.671-.172h0a2.866,2.866,0,0,1-1.065-.759m-3.649.581,3.381-.944a2.852,2.852,0,0,1-.427-1.876l-54.059,10.354,1.423.8,46.149-3.738,3.426-4.529.115-.077Zm10.443,1.6-2.188-2.514a2.874,2.874,0,0,1-1.327,1.1c-.038.013-.07.032-.108.045l31.355,42.729.108-1.544-22.366-38.64-5.359-1.11-.115-.064Z" transform="translate(-170.2 -158.94)" fill="#639dd5" fill-rule="evenodd"/>
          <path id="Trazado_661166" data-name="Trazado 661166" d="M265.857,213.526l22.424,38.749-.1,1.78.389.53.153-2.182-22.449-38.787-.421-.089ZM246.8,215.836l3.458-4.568-.478.134-3.381,4.472.4-.032Zm13.914-3.477-2.271-2.609a2.673,2.673,0,0,0,.077-2.22,2.7,2.7,0,0,0-.44-.721l23.106-47.559-.51.223-22.864,47.067-.108.23a2.486,2.486,0,0,1,.23.344,2.873,2.873,0,0,1,.23,2.322c-.032.089-.064.179-.1.268l.242.287,2,2.3.4.077Z" transform="translate(-197.789 -159.052)" fill="#2e73b8" fill-rule="evenodd"/>
        </g>
        <g id="Grupo_972656" data-name="Grupo 972656">
          <path id="Trazado_661157-2" data-name="Trazado 661157" d="M210.277,212.59h.344a4.464,4.464,0,0,1,4.459,4.459v8.58h-9.6v-8.236a4.814,4.814,0,0,1,4.8-4.8" transform="translate(-132.046 -152.47)" fill="#3e3f71" fill-rule="evenodd"/>
          <path id="Trazado_661158-2" data-name="Trazado 661158" d="M192.968,218.375c-.612.306-1.218.612-1.812.925a4.807,4.807,0,0,0-1.786,3.726v8.236c4.172-2.188,7.623-3.783,9.6-4.759.242-.121.466-.115.663-.217V218.05a4.779,4.779,0,0,1,1.671-3.63c-2.456,1.116-5.467,2.52-8.344,3.955" transform="translate(-126.214 -153.133)" fill="#7071b2" fill-rule="evenodd"/>
          <path id="Trazado_661159-2" data-name="Trazado 661159" d="M189.37,238h9.276c.108-.057.223-.115.332-.172,4.982-2.584,8.823-4.2,10.264-4.8h-9.6c-1.64.2-8.5,4.051-10.271,4.976" transform="translate(-126.214 -159.867)" fill="#464f73" fill-rule="evenodd"/>
          <path id="Trazado_661160-2" data-name="Trazado 661160" d="M202.6,235.84c1.276,0,2.309.459,2.309,1.033,0,36.4-.217,73.032-.217,109.522h-4.268c0-36.5-.128-73.064-.128-109.522,0-.574,1.033-1.033,2.309-1.033" transform="translate(-130.171 -160.888)" fill="#9598cb" fill-rule="evenodd"/>
          <path id="Trazado_661161-2" data-name="Trazado 661161" d="M202.6,235.84c.2,0,.389.013.587.032-1,.115-1.722.523-1.722,1,0,36.458.128,73.025.128,109.522h-1.167c0-36.5-.128-73.064-.128-109.522,0-.574,1.033-1.033,2.309-1.033" transform="translate(-130.171 -160.888)" fill="#2e73b8" fill-rule="evenodd"/>
          <path id="Trazado_661162-2" data-name="Trazado 661162" d="M169.717,223.956l-7.745,2.156-4.714,6.233-62.665,5.084-2.673-1.506,78.052-14.953-.255,2.992Z" transform="translate(-90.931 -155.504)" fill="#6a68ac" fill-rule="evenodd"/>
          <path id="Trazado_661163-2" data-name="Trazado 661163" d="M214.578,222.54l5.084,5.85,7.381,1.525,30.372,52.477-.211,2.954L211.86,223.554l2.718-1.014Z" transform="translate(-134.356 -156.073)" fill="#6a68ac" fill-rule="evenodd"/>
          <path id="Trazado_661164-2" data-name="Trazado 661164" d="M212.39,184.59l2.75-7.1-2.061-7.107,31.674-50.429,2.667-1.174-32.9,67.7-2.131-1.9Z" transform="translate(-134.548 -118.506)" fill="#6a68ac" fill-rule="evenodd"/>
          <path id="Trazado_661165-2" data-name="Trazado 661165" d="M169.871,181.7h0a3.947,3.947,0,0,1,1.174.759l30.749-63.278-1.869.823-31.559,50.244,2.022,6.979v.185l-1.557,4.006a3.912,3.912,0,0,1,1.04.274m-4.446,6.188-4.689,1.308-4.657,6.156-.077.108-.128.013-62.665,5.072-.166-.032-2.673-1.512.089-.529,74.142-14.2a3.812,3.812,0,0,1,.159-.453,3.911,3.911,0,0,1,3.464-2.405l1.588-4.089-2.029-7.017-.038-.128.07-.108,31.668-50.429.128-.108,2.667-1.174.37.389-31.189,64.19a3.852,3.852,0,0,1,.523.9,3.921,3.921,0,0,1,0,2.992h0l-.032.07,3.037,3.5,7.285,1.506.128.026.064.108L212.842,244.5l.038.159-.2,2.96-.517.147-43.023-58.621a3.911,3.911,0,0,1-2.258-.23h0a3.8,3.8,0,0,1-1.435-1.033m-4.938.785,4.574-1.276a3.734,3.734,0,0,1-.306-.593,3.88,3.88,0,0,1-.268-1.939L91.352,198.865l1.92,1.085,62.442-5.059,4.638-6.131.153-.1Zm14.13,2.163-2.96-3.4a3.883,3.883,0,0,1-1.8,1.493c-.045.019-.1.038-.147.057l42.43,57.817.147-2.092-30.258-52.286-7.253-1.5-.159-.089Z" transform="translate(-90.37 -118.35)" fill="#639dd5" fill-rule="evenodd"/>
          <path id="Trazado_661166-2" data-name="Trazado 661166" d="M219.818,192.223l30.341,52.433-.128,2.411.523.714.211-2.954L220.392,192.35l-.568-.121Zm-25.786,3.12,4.676-6.182-.644.179-4.574,6.048.542-.045Zm18.832-4.708-3.075-3.534a3.609,3.609,0,0,0,.108-3,3.54,3.54,0,0,0-.593-.976L240.57,118.77l-.689.3-30.934,63.686-.147.306a3.362,3.362,0,0,1,.313.472,3.889,3.889,0,0,1,.306,3.139c-.038.121-.089.242-.134.357l.332.383,2.7,3.113.549.1Z" transform="translate(-127.705 -118.502)" fill="#2e73b8" fill-rule="evenodd"/>
        </g>
      </g>
      <path id="Trazado_661139" data-name="Trazado 661139" d="M225.312,461.05c47.157,0,85.376,2.271,85.376,5.072s-38.226,5.072-85.376,5.072-85.382-2.271-85.382-5.072,38.226-5.072,85.382-5.072" transform="translate(-70.158 -166.926)" fill="#d1deed" fill-rule="evenodd" opacity="0.65"/>
      <g id="Grupo_972659" data-name="Grupo 972659" transform="translate(281.84 76.363)">
        <path id="Trazado_696868" data-name="Trazado 696868" d="M574.646,172.159H539.208l-1.384-15.77,37.237-15.17a1.257,1.257,0,0,0-.415-2.443H531.827l-6.513-18.239h0a1.257,1.257,0,0,0-2.367,0l-6.513,18.245H473.615a1.259,1.259,0,0,0-.478,2.424l37.294,15.2-1.384,15.77H473.609a1.256,1.256,0,0,0-.491,2.411l34.43,14.628-1.888,21.467L495.79,238.99h0l-12.765,36.618a1.254,1.254,0,0,0,2.207,1.148l25.058-36.2h27.661L563,276.731a1.252,1.252,0,0,0,2.226-1.1l-22.641-64.955L540.7,189.2l34.347-14.59a1.249,1.249,0,0,0,.848-1.187,1.265,1.265,0,0,0-1.257-1.263Zm-73.338,65.88,22.819-14.609,22.819,14.609H501.308Zm34-47.82-11.183,7.553-11.183-7.553h22.373Zm-24.3,19.445,13.116-8.861,13.116,8.861Zm26.047,2.514-12.931,8.281L511.2,212.177h25.862ZM509.9,191.2l11.981,8.1-13.493,9.116L509.9,191.2Zm-2.329,21.639,14.226,9.11-22.4,14.335Zm18.883,9.11,14.239-9.11,8.178,23.457Zm-.083-22.653,11.987-8.1,1.512,17.218-13.5-9.116ZM537.811,187.7H510.45l-.23-.1,1.136-12.931h25.556l1.136,12.925Zm-5.4-30.87-8.281,5.62-8.281-5.62Zm1.569,15.323H514.284l9.844-6.679Zm-7.617-8.191,9.065-6.156,1.148,13.084-10.22-6.934Zm-12.81-9.646,4.651-13.027h11.853l4.651,13.027H513.544Zm8.351,9.646L511.687,170.9l1.148-13.084,9.065,6.156Zm46.334-22.679-31,12.625-4.51-12.625h35.508Zm-44.1-16.593,5.027,14.079H519.1l5.027-14.079Zm-8.6,16.593-4.51,12.625-31-12.625h35.508Zm-35.75,33.384h29.046l-1.046,11.9-28-11.9Zm8.651,93.063,9.473-27.183h9.346l-18.819,27.183Zm52.579-27.183h9.346l9.473,27.183Zm-.536-53.983-1.046-11.9h29.046l-28.006,11.9Z" transform="translate(-472.355 -119.702)" fill="#b7c0e2"/>
        <rect id="Rectángulo_339143" data-name="Rectángulo 339143" width="5.123" height="3.005" transform="translate(97.66 45.612)" fill="#b7c0e2"/>
        <rect id="Rectángulo_339144" data-name="Rectángulo 339144" width="5.123" height="3.005" transform="translate(0.775 45.612)" fill="#b7c0e2"/>
        <rect id="Rectángulo_339145" data-name="Rectángulo 339145" width="5.123" height="3.005" transform="translate(0.775 40.317)" fill="#b7c0e2"/>
        <rect id="Rectángulo_339146" data-name="Rectángulo 339146" width="5.123" height="3.005" transform="translate(97.66 40.317)" fill="#b7c0e2"/>
        <rect id="Rectángulo_339147" data-name="Rectángulo 339147" width="5.123" height="3.005" transform="translate(97.66 11.922)" fill="#b7c0e2"/>
        <rect id="Rectángulo_339148" data-name="Rectángulo 339148" width="5.123" height="3.005" transform="translate(97.66 6.627)" fill="#b7c0e2"/>
        <rect id="Rectángulo_339149" data-name="Rectángulo 339149" width="5.123" height="3.005" transform="translate(0.775 6.627)" fill="#b7c0e2"/>
        <rect id="Rectángulo_339150" data-name="Rectángulo 339150" width="5.123" height="3.005" transform="translate(0.775 11.922)" fill="#b7c0e2"/>
      </g>
      <g id="Grupo_972660" data-name="Grupo 972660" transform="translate(188.486 42.126)">
        <path id="Trazado_696869" data-name="Trazado 696869" d="M460.887,135.2H414.164l-1.824-20.791,49.09-20a1.657,1.657,0,0,0-.549-3.222H404.429l-8.587-24.05h0a1.657,1.657,0,0,0-3.12-.006l-8.593,24.05H327.678a1.655,1.655,0,0,0-.625,3.19L376.226,114.4,374.4,135.191H327.678a1.659,1.659,0,0,0-.651,3.183l45.4,19.285-2.488,28.306-13.008,37.326v.006L340.1,271.57a1.652,1.652,0,0,0,2.909,1.512l33.033-47.725h36.471l33.02,47.693a1.653,1.653,0,0,0,2.941-1.454l-29.856-85.638-2.488-28.306,45.281-19.24a1.662,1.662,0,0,0-.536-3.234ZM364.194,222.06l30.092-19.26,30.085,19.26Zm44.835-63.048-14.749,9.958-14.749-9.958Zm-32.044,25.633,17.295-11.681,17.288,11.681Zm34.341,3.317-17.046,10.915-17.046-10.915h34.1Zm-35.8-27.668,15.8,10.673-17.792,12.019,1.99-22.685Zm-3.069,28.529,18.762,12.006-29.53,18.9,10.775-30.908Zm24.9,12.012,18.768-12.012L426.9,219.75l-29.55-18.915Zm-.108-29.869,15.808-10.673,1.99,22.7-17.8-12.019Zm15.081-15.279H376.251l-.306-.128,1.5-17.046h33.7l1.5,17.046-.313.134Zm-7.119-40.7-10.915,7.407-10.915-7.407Zm2.067,20.2H381.31l12.982-8.81Zm-10.041-10.8,11.955-8.115,1.518,17.256ZM380.34,111.67l6.137-17.18h15.63l6.137,17.18h-27.9Zm11.011,12.721-13.467,9.142,1.512-17.25,11.955,8.115ZM452.441,94.5l-40.867,16.65L405.628,94.5h46.812ZM394.292,72.615l6.628,18.564H387.658l6.628-18.564ZM382.956,94.5l-5.946,16.65L336.144,94.5h46.812Zm-47.138,44.018h38.3L372.736,154.2Zm11.406,122.7,12.491-35.84h12.319l-24.816,35.84Zm69.319-35.84h12.319l12.491,35.846-24.816-35.846Zm-.708-71.175-1.378-15.681h38.3Z" transform="translate(-326.018 -66.034)" fill="#464f73"/>
        <rect id="Rectángulo_339151" data-name="Rectángulo 339151" width="6.756" height="3.955" transform="translate(128.757 60.143)" fill="#464f73"/>
        <rect id="Rectángulo_339152" data-name="Rectángulo 339152" width="6.749" height="3.955" transform="translate(1.022 60.143)" fill="#464f73"/>
        <rect id="Rectángulo_339153" data-name="Rectángulo 339153" width="6.749" height="3.955" transform="translate(1.022 53.158)" fill="#464f73"/>
        <rect id="Rectángulo_339154" data-name="Rectángulo 339154" width="6.756" height="3.955" transform="translate(128.757 53.158)" fill="#464f73"/>
        <rect id="Rectángulo_339155" data-name="Rectángulo 339155" width="6.756" height="3.962" transform="translate(128.757 15.723)" fill="#464f73"/>
        <rect id="Rectángulo_339156" data-name="Rectángulo 339156" width="6.756" height="3.962" transform="translate(128.757 8.738)" fill="#464f73"/>
        <rect id="Rectángulo_339157" data-name="Rectángulo 339157" width="6.749" height="3.962" transform="translate(1.022 8.738)" fill="#464f73"/>
        <rect id="Rectángulo_339158" data-name="Rectángulo 339158" width="6.749" height="3.962" transform="translate(1.022 15.723)" fill="#464f73"/>
      </g>
      <g id="Grupo_972661" data-name="Grupo 972661" transform="translate(83.481 208.754)">
        <path id="Trazado_661167" data-name="Trazado 661167" d="M224.53,405.69l7.968-.6v11.272H224.53Z" transform="translate(-184.269 -355.42)" fill="#63b2d6" fill-rule="evenodd"/>
        <rect id="Rectángulo_338209" data-name="Rectángulo 338209" width="18.979" height="2.003" transform="translate(34.755 60.943)" fill="#63b2d6"/>
        <path id="Trazado_661168" data-name="Trazado 661168" d="M161.43,328.844l72.241-1.614,18.985,44.012-72.451,4.7Z" transform="translate(-161.424 -327.23)" fill="#9cc6d5" fill-rule="evenodd"/>
        <path id="Trazado_661169" data-name="Trazado 661169" d="M168,333.275l10.52-.23q1.177,2.976,2.36,5.927c.791,1.971,1.595,3.936,2.392,5.9l-10.564.364c-.791-1.99-1.588-3.974-2.36-5.965s-1.576-3.994-2.348-5.99m11.764,29.633c3.515-.191,7.043-.37,10.558-.555.785,1.933,1.576,3.866,2.348,5.8s1.557,3.853,2.354,5.773l-10.558.689c-.791-1.939-1.582-3.891-2.36-5.837s-1.569-3.9-2.348-5.863m55.8-2.941,10.558-.555c.766,1.825,1.544,3.649,2.316,5.467s1.557,3.63,2.341,5.429l-10.564.689c-.791-1.824-1.569-3.668-2.341-5.5s-1.55-3.681-2.316-5.525m-13.952.74c.766,1.869,1.55,3.745,2.322,5.614s1.569,3.719,2.348,5.582l10.558-.689c-.791-1.831-1.569-3.681-2.341-5.518s-1.55-3.694-2.328-5.544c-3.515.191-7.043.37-10.558.555m-13.945.734,10.552-.555c.772,1.882,1.557,3.764,2.328,5.633s1.563,3.738,2.354,5.6q-5.292.344-10.564.683c-.785-1.882-1.563-3.777-2.341-5.665s-1.563-3.789-2.335-5.69M193.7,362.2c.778,1.933,1.569,3.86,2.348,5.786s1.557,3.834,2.348,5.748q5.273-.345,10.564-.683c-.791-1.888-1.588-3.8-2.36-5.69s-1.569-3.809-2.335-5.716L193.7,362.2m-19.84-14,10.571-.4c.791,1.952,1.582,3.911,2.36,5.856s1.569,3.9,2.354,5.837q-5.292.258-10.564.523c-.791-1.958-1.595-3.923-2.373-5.895s-1.569-3.949-2.354-5.926m55.826-2.092c3.521-.134,7.043-.262,10.564-.4.8,1.85,1.614,3.694,2.38,5.525s1.563,3.668,2.341,5.493q-5.292.268-10.571.523c-.772-1.844-1.557-3.7-2.335-5.563s-1.576-3.719-2.38-5.582m-13.965.523c.8,1.895,1.6,3.783,2.373,5.665s1.569,3.77,2.348,5.646L231,357.414c-.772-1.856-1.563-3.726-2.335-5.582s-1.576-3.738-2.373-5.608q-5.292.191-10.577.4m-13.945.517,10.571-.4c.791,1.895,1.595,3.8,2.373,5.69s1.563,3.783,2.341,5.665q-5.292.258-10.564.523c-.785-1.9-1.576-3.821-2.348-5.729s-1.576-3.834-2.36-5.761m-13.952.529q1.187,2.928,2.36,5.844c.778,1.946,1.569,3.885,2.354,5.812q5.282-.258,10.571-.53c-.785-1.914-1.588-3.828-2.36-5.741s-1.576-3.853-2.36-5.78c-3.528.134-7.043.268-10.564.4m35.8-15.61q5.263-.124,10.526-.236,1.177,2.794,2.392,5.588c.81,1.856,1.659,3.706,2.488,5.55l-10.564.364q-1.244-2.8-2.462-5.614c-.81-1.869-1.608-3.764-2.392-5.652m-13.92.306c.778,1.914,1.576,3.834,2.38,5.741s1.627,3.8,2.437,5.7q5.282-.191,10.558-.364c-.817-1.882-1.646-3.757-2.45-5.639s-1.595-3.777-2.38-5.671l-10.545.23m-13.907.313,10.539-.23q1.167,2.88,2.373,5.754c.8,1.914,1.627,3.821,2.437,5.729q-5.282.191-10.558.37c-.8-1.933-1.633-3.86-2.418-5.786s-1.588-3.879-2.373-5.824m-13.907.306q1.177,2.966,2.354,5.914c.785,1.958,1.595,3.917,2.392,5.875l10.564-.364c-.8-1.933-1.62-3.872-2.411-5.818s-1.588-3.891-2.373-5.837l-10.526.23" transform="translate(-163.802 -328.892)" fill="#d4ecfb" fill-rule="evenodd"/>
        <path id="Trazado_661170" data-name="Trazado 661170" d="M252.646,372.154l-72.451,4.7L161.42,329.75V336.3l17.154,43.852,74.072-5.576v-2.424Z" transform="translate(-161.42 -328.142)" fill="#63b2d6" fill-rule="evenodd"/>
      </g>
      <g id="Grupo_972662" data-name="Grupo 972662" transform="translate(17.352 228.735)">
        <path id="Trazado_661171" data-name="Trazado 661171" d="M141.28,462.381l10.545-.791v14.915H141.28Z" transform="translate(-87.999 -395.856)" fill="#33837e" fill-rule="evenodd"/>
        <rect id="Rectángulo_338210" data-name="Rectángulo 338210" width="25.109" height="2.654" transform="translate(45.996 80.649)" fill="#33837e"/>
        <path id="Trazado_661172" data-name="Trazado 661172" d="M57.76,360.681l95.609-2.131L178.5,416.8l-95.883,6.22L57.76,360.681Z" transform="translate(-57.76 -358.55)" fill="#63b2d6" fill-rule="evenodd"/>
        <path id="Trazado_661173" data-name="Trazado 661173" d="M66.47,366.52l13.926-.306q1.55,3.923,3.132,7.834c1.046,2.609,2.112,5.212,3.171,7.808q-7.014.239-13.984.485c-1.046-2.635-2.1-5.263-3.132-7.9s-2.086-5.282-3.107-7.93m15.566,39.214q6.985-.373,13.977-.734c1.033,2.558,2.08,5.123,3.107,7.674s2.067,5.1,3.113,7.636q-7,.45-13.971.906c-1.046-2.571-2.1-5.155-3.12-7.719s-2.08-5.174-3.113-7.764m73.848-3.891q6.986-.354,13.977-.734c1.014,2.411,2.041,4.829,3.062,7.228s2.054,4.8,3.1,7.183q-7,.459-13.977.912c-1.046-2.418-2.073-4.848-3.1-7.273s-2.054-4.874-3.069-7.317m-18.468.97c1.014,2.475,2.048,4.957,3.075,7.426s2.073,4.925,3.113,7.387q6.985-.459,13.971-.906c-1.046-2.424-2.08-4.868-3.1-7.3s-2.054-4.887-3.081-7.336q-6.985.373-13.977.734m-18.456.97q6.966-.364,13.971-.734c1.021,2.488,2.061,4.976,3.088,7.458s2.061,4.95,3.113,7.413q-7,.459-13.977.906-1.56-3.742-3.1-7.5c-1.021-2.507-2.073-5.021-3.088-7.54m-18.462.976c1.033,2.552,2.08,5.1,3.107,7.649s2.067,5.078,3.107,7.611q6.985-.459,13.977-.906c-1.053-2.507-2.1-5.021-3.12-7.528s-2.073-5.04-3.088-7.566q-7,.373-13.977.734M74.253,386.226q6.985-.268,13.99-.53c1.046,2.59,2.092,5.18,3.12,7.757s2.08,5.161,3.12,7.719l-13.984.689c-1.046-2.59-2.105-5.193-3.132-7.8s-2.08-5.225-3.113-7.847m73.887-2.775q6.985-.258,13.977-.529c1.072,2.443,2.131,4.887,3.151,7.3s2.073,4.855,3.094,7.273l-13.99.689c-1.027-2.443-2.067-4.9-3.094-7.362s-2.086-4.925-3.145-7.387m-18.481.7c1.065,2.5,2.118,5.008,3.139,7.5s2.08,4.989,3.107,7.47q6.985-.344,13.977-.7c-1.027-2.456-2.073-4.925-3.094-7.387s-2.086-4.944-3.139-7.426q-7,.258-14,.529m-18.456.689q6.976-.258,13.99-.523c1.053,2.513,2.105,5.027,3.132,7.534s2.073,5.008,3.1,7.5q-7,.335-13.977.7c-1.046-2.52-2.086-5.059-3.113-7.585s-2.086-5.072-3.132-7.623m-18.468.7c1.046,2.577,2.092,5.161,3.126,7.732s2.073,5.142,3.12,7.694q6.985-.344,13.99-.7c-1.046-2.533-2.1-5.065-3.126-7.6s-2.086-5.091-3.132-7.649l-13.977.523M140.1,364.842q6.966-.163,13.939-.313,1.56,3.7,3.164,7.4c1.072,2.45,2.195,4.906,3.3,7.349q-7.014.249-13.984.485c-1.091-2.482-2.182-4.957-3.254-7.438s-2.118-4.982-3.164-7.477m-18.417.4q1.55,3.809,3.145,7.6c1.053,2.514,2.156,5.033,3.228,7.547q7-.239,13.971-.485c-1.078-2.488-2.182-4.97-3.247-7.464s-2.112-5-3.151-7.5l-13.945.306m-18.4.408,13.945-.306q1.55,3.818,3.132,7.611c1.065,2.539,2.15,5.059,3.228,7.579q-7,.249-13.971.485c-1.065-2.552-2.156-5.1-3.2-7.662s-2.1-5.135-3.132-7.713m-18.4.415q1.55,3.923,3.113,7.821c1.04,2.6,2.112,5.18,3.164,7.777,4.651-.159,9.32-.319,13.977-.485-1.065-2.558-2.143-5.129-3.19-7.694s-2.1-5.142-3.132-7.725l-13.939.306" transform="translate(-60.914 -360.715)" fill="#c1e3f9" fill-rule="evenodd"/>
        <path id="Trazado_661174" data-name="Trazado 661174" d="M178.5,418.013l-95.883,6.22L57.76,361.9v8.663l22.7,58.04,98.026-7.381v-3.209Z" transform="translate(-57.76 -359.763)" fill="#33837e" fill-rule="evenodd"/>
      </g>
      <g id="Grupo_972665" data-name="Grupo 972665" transform="translate(155.186 140.644)">
        <path id="Trazado_119994" data-name="Trazado 119994" d="M334.257,264.833a7.47,7.47,0,0,1,8.753-1.659c5.2,2.788,11.84,12.829,19.974,12.561,8.172-.274,10.73-5.142,12.88-8.172s1.569-5.257,3.024-6.89,3.3.172,1.021,5.869c-1.078,2.73-4.842,16.829-14.488,18.941-12.638,2.775-36.758-13.333-31.17-20.65" transform="translate(-295.4 -234.814)" fill="#f8c4b3"/>
        <path id="Trazado_119995" data-name="Trazado 119995" d="M335.673,262.19s-4.861,4.261,1.276,11.674,9.844,9.792,9.844,9.792,5.812-2.424,10.564-11.081c0,0-15.706-17.371-21.684-10.386" transform="translate(-295.553 -234.972)" fill="#eda502"/>
        <path id="Trazado_119996" data-name="Trazado 119996" d="M305.147,276.076c3.6,13.327,1.62,22.692,0,27.77,3.758,1.206,1.518,3.222,1.416,3.477-5.32,11.036,27.738,4.5,33.543-4.44,2-3.075.089-6.973.447-12.874.128-1.327.166-2.667.172-3.981a73.483,73.483,0,0,0-1.091-15.955c-2.6-12.178-14.054-12.772-21.02-11.8-3.164.44-7.292.976-10.456,2.839l-.019.019c-3.7,2.239-5.671,5.04-2.992,14.947" transform="translate(-284.713 -234.039)" fill="#f9b313"/>
        <path id="Trazado_119997" data-name="Trazado 119997" d="M314.041,269.474c1.429,6.048,6.533,24.51-8.191,33.741,0,0,24.389,17.856,38.34,2.405,0,0-2.807-26.353-6.7-36.822-1.123-3.011-4.1-12.236-9.442-10.9,0,0,9.41,14.819,5.116,18.736s-8.344.619-10.239-2.328c-3.043-4.746-6.29-15.706-6.29-15.706l-5.69,1.448a60.59,60.59,0,0,1,3.094,9.429" transform="translate(-285.417 -233.969)" fill="#1c2745"/>
        <path id="Trazado_119998" data-name="Trazado 119998" d="M325.661,244.62s3.126,4.906-.2,8.185c-3.419,3.349,12.287,9.269,11.528,6.258-.97-3.9-3.292-5.978-1.946-10.762l-9.378-3.675Z" transform="translate(-292.341 -229.21)" fill="#f5b2a0"/>
        <path id="Trazado_119999" data-name="Trazado 119999" d="M332.675,226.83c3.451,3.132,7.336,17.11,3.84,20.261-1.544,1.378-7.955-.038-12.089-6.137-1.7-2.5-3.84-7.215-1.365-12.032,1.135-2.182,5.614-5.735,9.62-2.092" transform="translate(-291.241 -222.201)" fill="#f8c4b3"/>
        <path id="Trazado_120000" data-name="Trazado 120000" d="M333.932,227.191c.963,1.659.8,2.08-4.357,3.56s-6.105,1.244-5.4,2.424c2.041,3.49-1.8,3.254.7,7.387s-2.271,2.054-4.676-1.3c-.472-.676-3.151-3.923-1.282-9.7,2.15-6.762,11.451-8.421,15.024-2.367" transform="translate(-289.908 -221.548)" fill="#1d1c3a"/>
        <path id="Trazado_120001" data-name="Trazado 120001" d="M326.44,236.914s15.968-4.51,15.228-9.486c-.459-3.069-9.722-1.869-9.722-1.869l-5.5,11.355Z" transform="translate(-292.871 -222.225)" fill="#ededeb" stroke="#fffdf9" stroke-miterlimit="10" stroke-width="0.25"/>
        <path id="Trazado_120002" data-name="Trazado 120002" d="M333.306,226.107c-1.276,4.8-5.046,7.445-14.832,10.571,0,0-5.295-9.493,1.569-14.52,6.06-4.427,14.079.874,13.263,3.942" transform="translate(-289.281 -220.464)" fill="#fff" stroke="#e4e4e2" stroke-miterlimit="10" stroke-width="0.25"/>
        <path id="Trazado_120003" data-name="Trazado 120003" d="M290.063,392.515c-3.317,12.95-7.19,40.605-.829,40.765s9.907-1.78,6.239-2.807-3.815-1.435-3.7-2.462c1.576-13.352,22.462-34.181,24.235-50.053.6-5.423,1.008-10.379,1.289-14.736,2.373,11.63.625,23.98.836,28.063.67,14.513,3.77,41.951,10.73,42,7.413.051,11.049-2,6.316-2.979-4.1-.861-3.923-1.059-3.853-2.067,1-14.654,8.1-41.747,9.467-59.163,1.576-20.1-47.852,12.127-50.729,23.451" transform="translate(-278.165 -271.934)" fill="#f8c4b3"/>
        <path id="Trazado_120004" data-name="Trazado 120004" d="M347.167,468.21s5.525,2.188,8.938,0c0,0,6.233.842,2.322,2.354-3.93,1.518-11.489,2.769-11.26-2.354" transform="translate(-300.374 -310.162)" fill="#f9b313"/>
        <path id="Trazado_120005" data-name="Trazado 120005" d="M286.927,468.99s5.531,2.182,8.944,0c0,0,6.233.848,2.3,2.354s-11.47,2.781-11.241-2.354" transform="translate(-278.564 -310.445)" fill="#f9b313"/>
        <path id="Trazado_120006" data-name="Trazado 120006" d="M334.924,319.21c-12.67,8.446-30.379,7.592-37.281,6.252-1.863,15.068-13.186,71.609-14.462,79.367,5.563,1.844,7.407,2.233,9.014,2.233,26.857-34.628,23.776-49.473,24.057-53.836,1.014,5.033-2.3,29.664,3.49,53.836,1.946,1.257,7.828,2.883,12.044,0,.211-1.55,8.089-29.3,7.917-51.016-.115-14.813-2.6-24.982-4.785-36.828" transform="translate(-277.209 -256.216)" fill="#1c2745"/>
        <path id="Trazado_120007" data-name="Trazado 120007" d="M307.059,343.1a12.507,12.507,0,0,0,8.58-10.36l-1.046-.077a11.235,11.235,0,0,1-7.853,9.448l.325,1Z" transform="translate(-285.739 -261.086)" fill="#fff"/>
        <path id="Trazado_120008" data-name="Trazado 120008" d="M360.16,340.053l.319-1a11.4,11.4,0,0,1-7.853-9.442l-1.046.083a12.516,12.516,0,0,0,8.58,10.367" transform="translate(-301.973 -259.981)" fill="#fff"/>
        <rect id="Rectángulo_34224" data-name="Rectángulo 34224" width="45.249" height="26.13" transform="translate(0 73.042)" fill="#c1e3f9"/>
        <rect id="Rectángulo_34225" data-name="Rectángulo 34225" width="17.55" height="26.13" transform="translate(45.249 73.042)" fill="#4da0bf"/>
        <rect id="Rectángulo_34226" data-name="Rectángulo 34226" width="6.501" height="12.74" transform="translate(2.737 64.851)" fill="#c1e3f9"/>
        <rect id="Rectángulo_34227" data-name="Rectángulo 34227" width="48.362" height="1.563" transform="translate(5.984 66.669)" fill="#464f73"/>
        <rect id="Rectángulo_34228" data-name="Rectángulo 34228" width="6.501" height="12.74" transform="translate(51.099 64.851)" fill="#4da0bf"/>
        <path id="Trazado_120009" data-name="Trazado 120009" d="M307.1,264.661a6.056,6.056,0,0,1,3.362,6.915c-.893,5.563-7.859,14.679-5.078,21.939s7.987,8.057,11.387,9.059,5.231-.217,7.145.581.88,3.043-4.963,2.769c-2.8-.14-16.682.874-21.6-7.158-6.45-10.513,1.416-36.841,9.754-34.1" transform="translate(-281.482 -236.396)" fill="#f8c4b3"/>
        <path id="Trazado_120010" data-name="Trazado 120010" d="M305.69,261.33s-3.853-.727-8.619,7.145c-4.753,7.84-5.742,11.923-5.742,11.923s3.987,4.485,13.282,6.06c0,0,10.456-20.535,1.078-25.129" transform="translate(-280.16 -235.254)" fill="#eda502"/>
        <path id="Trazado_661243" data-name="Trazado 661243" d="M334.1,244.883c-2.08-.708-1.805-.612-3.407-.013a2.189,2.189,0,0,1,2.6-.657c.51.153.6.147.8.663" transform="translate(-294.41 -229.001)" fill="#1d1c3a" fill-rule="evenodd"/>
        <g id="Grupo_972663" data-name="Grupo 972663" transform="translate(37.699 15.745)">
          <path id="Trazado_661244" data-name="Trazado 661244" d="M333.664,246.354a.72.72,0,0,1-.727-.542.5.5,0,0,1,.415-.663.725.725,0,0,1,.727.542.5.5,0,0,1-.4.67h-.013" transform="translate(-332.915 -245.146)" fill="#1d1c3a" fill-rule="evenodd"/>
          <path id="Trazado_661245" data-name="Trazado 661245" d="M333.767,246.187a.259.259,0,0,1-.262-.191.178.178,0,0,1,.147-.236.259.259,0,0,1,.262.191.176.176,0,0,1-.147.236h0" transform="translate(-333.126 -245.367)" fill="#bcdaf3" fill-rule="evenodd"/>
          <path id="Trazado_661246" data-name="Trazado 661246" d="M333.749,245.514s-.064-.019-.07-.051.013-.064.038-.064a.449.449,0,0,1,.453.338.053.053,0,0,1-.038.064.069.069,0,0,1-.07-.051.318.318,0,0,0-.313-.236h0" transform="translate(-333.191 -245.237)" fill="#bcdaf3" fill-rule="evenodd"/>
        </g>
        <path id="Trazado_661247" data-name="Trazado 661247" d="M339.471,243.355c1.4-1.34,1.218-1.167,3.017-1.167a2.285,2.285,0,0,0-2.718.306c-.364.306-.447.332-.3.868" transform="translate(-297.564 -228.219)" fill="#1d1c3a" fill-rule="evenodd"/>
        <g id="Grupo_972664" data-name="Grupo 972664" transform="translate(42.848 14.462)">
          <path id="Trazado_661248" data-name="Trazado 661248" d="M341.812,244.331a.517.517,0,0,0,.313-.727.7.7,0,0,0-.778-.453.517.517,0,0,0-.313.727h0a.7.7,0,0,0,.772.453h0" transform="translate(-340.986 -243.135)" fill="#1d1c3a" fill-rule="evenodd"/>
          <path id="Trazado_661249" data-name="Trazado 661249" d="M341.888,244.178a.189.189,0,0,0,.115-.262.251.251,0,0,0-.274-.159.183.183,0,0,0-.108.262.247.247,0,0,0,.274.159" transform="translate(-341.209 -243.358)" fill="#bcdaf3" fill-rule="evenodd"/>
          <path id="Trazado_661250" data-name="Trazado 661250" d="M341.487,243.554s.045-.038.032-.07a.069.069,0,0,0-.077-.045.32.32,0,0,0-.2.447h0a.069.069,0,0,0,.077.045h0a.048.048,0,0,0,.032-.064h0a.225.225,0,0,1,.134-.313" transform="translate(-341.07 -243.245)" fill="#bcdaf3" fill-rule="evenodd"/>
        </g>
        <path id="Trazado_661251" data-name="Trazado 661251" d="M339.809,248.454h-.1a.085.085,0,0,1-.1-.089h0a.1.1,0,0,1,.1-.1h.07c.389-.1.619-.236.663-.383.057-.2-.223-.5-.523-.823a3.177,3.177,0,0,1-.944-1.506.1.1,0,0,1,.083-.108h0a.1.1,0,0,1,.108.083,3.056,3.056,0,0,0,.893,1.41c.364.4.657.708.568,1.008-.064.223-.332.383-.823.51" transform="translate(-297.411 -229.51)" fill="#f29475"/>
        <path id="Trazado_661252" data-name="Trazado 661252" d="M341.085,252.73c-1.984.663-5.04-.447-2.01-.51a5.914,5.914,0,0,0,2.207-.568c1.053-.427.351.9-.2,1.078" transform="translate(-296.984 -231.726)" fill="#fff" fill-rule="evenodd"/>
      </g>
      <g id="Grupo_972666" data-name="Grupo 972666" transform="translate(252.268 203.944)">
        <rect id="Rectángulo_338211" data-name="Rectángulo 338211" width="112.476" height="80.885" transform="translate(17.046 7.304)" fill="#162334"/>
        <path id="Trazado_661194" data-name="Trazado 661194" d="M432.494,319.69h16.829l5.314,88.566H426Z" transform="translate(-426 -319.69)" fill="#468b83" fill-rule="evenodd"/>
        <path id="Trazado_661195" data-name="Trazado 661195" d="M612.034,319.69h16.829l5.314,88.566H605.54Z" transform="translate(-491.004 -319.69)" fill="#468b83" fill-rule="evenodd"/>
        <path id="Trazado_661196" data-name="Trazado 661196" d="M488.868,363.656a13.564,13.564,0,0,1,9.595,23.157h0a13.569,13.569,0,0,1-19.189-19.189h0a13.515,13.515,0,0,1,9.595-3.974m7.623,5.946a10.781,10.781,0,0,0-15.247,0h-.006a10.79,10.79,0,1,0,15.26,0h0" transform="translate(-443.848 -335.606)" fill="#639dd5" fill-rule="evenodd"/>
        <path id="Trazado_661197" data-name="Trazado 661197" d="M489.727,387.248c-7.4,11.77-7.962,23.68-7.649,38.487l-22.921.4c-.306-14.692,2.316-27.751,7.19-37.8a50.094,50.094,0,0,1,6.035-9.614,36.327,36.327,0,0,1,12.631-10.175,10.642,10.642,0,0,1,8.446,12.459,10.436,10.436,0,0,1-.434,1.588,52.794,52.794,0,0,0-3.3,4.651" transform="translate(-437.996 -337.38)" fill="#a7cdee" fill-rule="evenodd"/>
        <path id="Trazado_661198" data-name="Trazado 661198" d="M534.672,363.66a13.569,13.569,0,0,1,9.6,23.164h0a13.569,13.569,0,0,1-19.189-19.189h0a13.515,13.515,0,0,1,9.595-3.974m7.623,5.946a10.781,10.781,0,0,0-15.247,0h0a10.788,10.788,0,1,0,15.253.006" transform="translate(-460.434 -335.61)" fill="#639dd5" fill-rule="evenodd"/>
        <path id="Trazado_661199" data-name="Trazado 661199" d="M535.546,387.248c-7.4,11.77-7.962,23.68-7.649,38.487l-22.921.4c-.313-14.692,2.316-27.751,7.19-37.8a50.094,50.094,0,0,1,6.035-9.614,36.326,36.326,0,0,1,12.631-10.175A10.636,10.636,0,0,1,539.284,381a10.1,10.1,0,0,1-.44,1.6,52.726,52.726,0,0,0-3.292,4.651" transform="translate(-454.585 -337.38)" fill="#a7cdee" fill-rule="evenodd"/>
        <path id="Trazado_661200" data-name="Trazado 661200" d="M580.479,363.66a13.569,13.569,0,0,1,9.6,23.164h0a13.569,13.569,0,1,1-19.24-19.138l.051-.051h0a13.5,13.5,0,0,1,9.595-3.974m7.623,5.946a10.781,10.781,0,0,0-15.247,0h0a10.788,10.788,0,1,0,15.253.006" transform="translate(-477.011 -335.61)" fill="#639dd5" fill-rule="evenodd"/>
        <path id="Trazado_661201" data-name="Trazado 661201" d="M581.356,387.248c-7.4,11.77-7.961,23.68-7.649,38.487l-22.921.4c-.313-14.692,2.316-27.751,7.19-37.8a50.092,50.092,0,0,1,6.035-9.614,36.362,36.362,0,0,1,12.625-10.175,10.648,10.648,0,0,1,8.453,12.459,10.429,10.429,0,0,1-.434,1.588,52.78,52.78,0,0,0-3.3,4.651" transform="translate(-471.17 -337.38)" fill="#a7cdee" fill-rule="evenodd"/>
        <path id="Trazado_661202" data-name="Trazado 661202" d="M438,451.93a21.6,21.6,0,0,1,2.226.115,6.521,6.521,0,0,1,4.893-1.958,6.792,6.792,0,0,1,4.5,1.557,6.588,6.588,0,0,1,4.549-1.671c2.864,0,5.231,1.569,5.684,3.624a5.193,5.193,0,0,1,3.088-.268,5.088,5.088,0,0,1,7.1-1.18,5.3,5.3,0,0,1,.549.453c1.027-1.869,3.509-3.19,6.411-3.19a8.717,8.717,0,0,1,3.847.861,8.539,8.539,0,0,1,4.166-1.027c2.9,0,5.384,1.314,6.411,3.183a5.1,5.1,0,0,1,7.2.191,6.117,6.117,0,0,1,.447.542,5.163,5.163,0,0,1,3.094.274c.447-2.054,2.82-3.624,5.678-3.624a6.57,6.57,0,0,1,4.549,1.671,6.776,6.776,0,0,1,4.466-1.557,7.963,7.963,0,0,1,5.531-2.048c2.9,0,5.391,1.321,6.411,3.19a5.09,5.09,0,0,1,7.2.2,4.471,4.471,0,0,1,.44.536,5.482,5.482,0,0,1,1.116-.115,5.1,5.1,0,0,1,1.971.389c.447-2.054,2.82-3.624,5.684-3.624a6.6,6.6,0,0,1,4.549,1.671,6.792,6.792,0,0,1,4.5-1.557,6.521,6.521,0,0,1,4.893,1.958,21.688,21.688,0,0,1,2.226-.115c5.34,0,9.671,1.882,9.671,4.2a1.329,1.329,0,0,1-.026.274H428.76c1.231-1.71,4.893-2.947,9.231-2.947" transform="translate(-426.999 -366.101)" fill="#a7cdee" fill-rule="evenodd"/>
        <path id="Trazado_661203" data-name="Trazado 661203" d="M470.2,425.763a.283.283,0,0,1-.281-.281,66.034,66.034,0,0,1,14.794-42.513.281.281,0,1,1,.44.351,65.488,65.488,0,0,0-14.673,42.162.279.279,0,0,1-.281.281" transform="translate(-441.898 -342.563)" fill="#deecf9"/>
        <path id="Trazado_661204" data-name="Trazado 661204" d="M479.521,411.636h-.051a.273.273,0,0,1-.223-.325h0c.5-2.813,3.1-8.529,5.837-11.981a.277.277,0,1,1,.434.344c-2.641,3.336-5.244,9.046-5.722,11.732a.28.28,0,0,1-.274.23" transform="translate(-445.276 -348.486)" fill="#deecf9"/>
        <path id="Trazado_661205" data-name="Trazado 661205" d="M482.426,437.926a.276.276,0,0,1-.274-.236,44.144,44.144,0,0,1,1.78-19.464.275.275,0,0,1,.338-.191h.006a.282.282,0,0,1,.185.351A43.5,43.5,0,0,0,482.7,437.6a.28.28,0,0,1-.23.319h-.045" transform="translate(-446.191 -355.293)" fill="#deecf9"/>
        <path id="Trazado_661206" data-name="Trazado 661206" d="M514.6,425.769a.283.283,0,0,1-.281-.281,66.034,66.034,0,0,1,14.794-42.513.282.282,0,0,1,.4-.026.277.277,0,0,1,.038.376,65.447,65.447,0,0,0-14.666,42.162.279.279,0,0,1-.281.281" transform="translate(-457.974 -342.569)" fill="#deecf9"/>
        <path id="Trazado_661207" data-name="Trazado 661207" d="M524.841,413.073h-.051a.273.273,0,0,1-.223-.325h0c.523-2.96,2.641-10.564,5.148-14.724a.279.279,0,1,1,.478.287h0c-2.469,4.1-4.561,11.6-5.078,14.532a.28.28,0,0,1-.274.23" transform="translate(-461.685 -348.002)" fill="#deecf9"/>
        <path id="Trazado_661208" data-name="Trazado 661208" d="M526.913,427.876a.276.276,0,0,1-.274-.236c-.778-4.931.032-15.387,8.281-37.192a.281.281,0,1,1,.523.2c-8.2,21.69-9.014,32.038-8.249,36.905a.28.28,0,0,1-.23.319h-.045" transform="translate(-462.353 -345.243)" fill="#deecf9"/>
        <path id="Trazado_661209" data-name="Trazado 661209" d="M559,425.763a.283.283,0,0,1-.281-.281,66.034,66.034,0,0,1,14.794-42.513.281.281,0,1,1,.44.351,65.488,65.488,0,0,0-14.673,42.162.279.279,0,0,1-.281.281" transform="translate(-474.049 -342.563)" fill="#deecf9"/>
        <path id="Trazado_661210" data-name="Trazado 661210" d="M566.121,421.524h-.051a.27.27,0,0,1-.223-.319h0c.038-.2,3.8-20.223,7.33-21.952a.279.279,0,0,1,.376.128.273.273,0,0,1-.128.37h0c-2.667,1.308-6.086,16.248-7.03,21.55a.28.28,0,0,1-.274.23" transform="translate(-476.63 -348.485)" fill="#deecf9"/>
        <path id="Trazado_661211" data-name="Trazado 661211" d="M571.226,437.928a.276.276,0,0,1-.274-.236,44.144,44.144,0,0,1,1.78-19.464.276.276,0,0,1,.344-.185h0a.283.283,0,0,1,.185.351,43.592,43.592,0,0,0-1.761,19.215.28.28,0,0,1-.236.319h-.045" transform="translate(-478.342 -355.295)" fill="#deecf9"/>
      </g>
      <g id="Grupo_972670" data-name="Grupo 972670" transform="translate(382.406 172.742)">
        <g id="Grupo_972667" data-name="Grupo 972667" transform="translate(20.728 23.215)" opacity="0.73">
          <path id="Trazado_696870" data-name="Trazado 696870" d="M665.679,312.88c4.249,0,4.255-5.71,0-5.71s-4.255,5.71,0,5.71Z" transform="translate(-662.487 -307.17)" fill="#78c3ad"/>
        </g>
        <g id="Grupo_972668" data-name="Grupo 972668" transform="translate(39.726 0.632)" opacity="0.73">
          <path id="Trazado_696871" data-name="Trazado 696871" d="M695.459,277.48c4.249,0,4.255-5.71,0-5.71s-4.255,5.71,0,5.71Z" transform="translate(-692.268 -271.77)" fill="#78c3ad"/>
        </g>
        <g id="Grupo_972669" data-name="Grupo 972669" opacity="0.73">
          <path id="Trazado_696872" data-name="Trazado 696872" d="M631.593,273.638a1.438,1.438,0,1,0,0-2.858,1.438,1.438,0,1,0,0,2.858Z" transform="translate(-629.995 -270.78)" fill="#78c3ad"/>
        </g>
      </g>
      <g id="Grupo_972674" data-name="Grupo 972674" transform="translate(258.277 10.073)">
        <g id="Grupo_972671" data-name="Grupo 972671" transform="translate(0 19.38)" opacity="0.73">
          <path id="Trazado_696873" data-name="Trazado 696873" d="M435.426,49.206c-.23,4.242,5.474,4.555,5.7.306s-5.474-4.555-5.7-.306Z" transform="translate(-435.419 -46.169)" fill="#78c3ad"/>
        </g>
        <g id="Grupo_972672" data-name="Grupo 972672" transform="translate(21.537 39.558)" opacity="0.73">
          <path id="Trazado_696874" data-name="Trazado 696874" d="M469.186,80.836c-.23,4.242,5.474,4.555,5.7.306s-5.474-4.555-5.7-.306Z" transform="translate(-469.179 -77.799)" fill="#78c3ad"/>
        </g>
        <g id="Grupo_972673" data-name="Grupo 972673" transform="translate(27.224)" opacity="0.73">
          <path id="Trazado_696875" data-name="Trazado 696875" d="M478.1,17.308a1.437,1.437,0,1,0,2.852.153,1.437,1.437,0,1,0-2.852-.153Z" transform="translate(-478.095 -15.789)" fill="#78c3ad"/>
        </g>
      </g>
      <g id="Grupo_972678" data-name="Grupo 972678" transform="translate(0.41 207.589)">
        <g id="Grupo_972675" data-name="Grupo 972675" transform="translate(0 3.993)" opacity="0.73">
          <path id="Trazado_696876" data-name="Trazado 696876" d="M31.947,333.173c-2.4,3.362,1.557,6.194,3.962,2.832s-1.557-6.194-3.962-2.832Z" transform="translate(-31.203 -331.663)" fill="#78c3ad"/>
        </g>
        <g id="Grupo_972676" data-name="Grupo 972676" transform="translate(4.944 30.213)" opacity="0.73">
          <path id="Trazado_696877" data-name="Trazado 696877" d="M39.7,374.273c-2.4,3.362,1.557,6.194,3.962,2.832s-1.557-6.194-3.962-2.832Z" transform="translate(-38.953 -372.763)" fill="#78c3ad"/>
        </g>
        <g id="Grupo_972677" data-name="Grupo 972677" transform="translate(31.07)" opacity="0.73">
          <path id="Trazado_696878" data-name="Trazado 696878" d="M80.279,326.16c-1.2,1.684.778,3.1,1.984,1.416s-.778-3.1-1.984-1.416Z" transform="translate(-79.906 -325.403)" fill="#78c3ad"/>
        </g>
      </g>
    </g>
  </g>
</svg>
