<svg id="Grupo_973567" data-name="Grupo 973567" xmlns="http://www.w3.org/2000/svg" xmlns:xlink="http://www.w3.org/1999/xlink" width="163" height="163" viewBox="0 0 163 163">
  <defs>
    <clipPath id="clip-path">
      <rect id="Rectángulo_339649" data-name="Rectángulo 339649" width="163" height="163" fill="none"/>
    </clipPath>
  </defs>
  <g id="Grupo_973566" data-name="Grupo 973566" clip-path="url(#clip-path)">
    <path id="Trazado_698898" data-name="Trazado 698898" d="M163,81.5A81.5,81.5,0,1,1,81.5,0,81.5,81.5,0,0,1,163,81.5" fill="#cfb7ff"/>
    <path id="Trazado_698899" data-name="Trazado 698899" d="M122.783,160.672H111.6v-7.435H81.739v.615c0,2.759.013,5.517-.006,8.276a5.882,5.882,0,0,1-1.164,3.822,5.789,5.789,0,0,1-4.647,2.165q-5.421.064-10.844,0a5.58,5.58,0,0,1-5.726-5.948q-.015-11.86,0-23.72V125.307a36.4,36.4,0,0,1-21.272-17.272,35.59,35.59,0,0,1-4.573-22.591,37.284,37.284,0,0,1,72.578-6.865h5.489V59.98h11.211c0-.911,0-1.759,0-2.607a10.508,10.508,0,0,1,.038-1.4,3.7,3.7,0,0,1,4.064-3.474c2.8-.02,5.6-.005,8.4-.005h9.445A3.8,3.8,0,0,1,148.9,56.65q0,5.216,0,10.432a3.785,3.785,0,0,1-4.039,4.063q-9.037.016-18.074,0a3.737,3.737,0,0,1-4.006-4.01c0-1.124,0-2.248,0-3.409h-7.447V82.3H92.967v-3.68h1.216a26.161,26.161,0,0,0-25.15-14.9c-13.986.58-25.274,13.2-24.637,27.238a26.328,26.328,0,0,0,25.657,24.964c12.812.264,22.927-8.954,25.5-18.631H92.971V93.559H115.3v18.58h7.487c0-1.1-.019-2.183.008-3.265a6.117,6.117,0,0,1,.187-1.436,3.643,3.643,0,0,1,3.869-2.717c1.613-.021,3.226,0,4.839,0q6.53,0,13.06,0a3.8,3.8,0,0,1,4.157,4.17q0,5.187,0,10.374a3.8,3.8,0,0,1-4.115,4.1q-8.979.008-17.957,0a3.752,3.752,0,0,1-4.047-4.087c0-1.1,0-2.206,0-3.352h-11.17V97.262c-1.494,0-2.925-.013-4.355.022-.119,0-.293.311-.336.5a37.445,37.445,0,0,1-4.428,11.328A37.058,37.058,0,0,1,90.513,121.3a36.1,36.1,0,0,1-8.2,3.82.706.706,0,0,0-.582.812c.022,3.9.013,7.809.013,11.714v.607H92.9v-7.4h7.438c.052-.2.094-.346.128-.494A3.715,3.715,0,0,1,104.5,127.1c1.049-.014,2.1,0,3.148,0H122.4a4.365,4.365,0,0,1,2.542.7,3.666,3.666,0,0,1,1.561,3.165q.057,5.507,0,11.015a3.692,3.692,0,0,1-3.859,3.756q-9.212.048-18.423,0a3.693,3.693,0,0,1-3.827-3.951q-.006-3.264,0-6.528v-.665H96.7V142H81.772v7.45h33.54v7.456h7.472c0-1.039-.018-2.08.007-3.119a7.024,7.024,0,0,1,.176-1.554,3.59,3.59,0,0,1,3.611-2.745c.193-.013.388-.011.582-.011q8.8,0,17.607,0a3.789,3.789,0,0,1,4.135,4.132q.006,5.216,0,10.432a3.793,3.793,0,0,1-4.077,4.083q-9.008.012-18.015,0a3.746,3.746,0,0,1-4.027-4.049c0-1.106,0-2.213,0-3.4M102.195,78.6a33.595,33.595,0,1,0-31.818,44.763c17.163.16,30.2-12.435,32.863-26.109-1.095,0-2.18.021-3.264-.01a.664.664,0,0,0-.77.559,41.426,41.426,0,0,1-1.777,4.854,28.958,28.958,0,0,1-15.57,14.661,28.314,28.314,0,0,1-17.622,1.6,29.045,29.045,0,0,1-15.116-8.454c-6.321-6.854-9.265-14.877-8.171-24.21a28.729,28.729,0,0,1,5.969-14.573,29.639,29.639,0,0,1,20.771-11.58,28.834,28.834,0,0,1,15.053,2.483,28.163,28.163,0,0,1,10.727,8.2,33.226,33.226,0,0,1,4.588,7.533c.05.115.189.27.289.272,1.277.018,2.555.012,3.849.012m-39.113,59.71v23.891c0,1.586.64,2.207,2.233,2.2q5.244-.012,10.488,0c1.556,0,2.2-.624,2.2-2.175q0-11.65,0-23.3v-.616Zm82.047-29.82H126.547v11.117H145.13Zm-40.961,33.477h18.583V130.854H104.169Zm22.389-74.6h18.581V56.253H126.558Zm-.016,96.985h18.583V153.238H126.542Zm-63.417-38.08v8.233H77.982v-8.233a33.55,33.55,0,0,1-14.857,0" transform="translate(-17.675 -27.937)" fill="#161615"/>
    <path id="Trazado_698900" data-name="Trazado 698900" d="M110.45,116.664h-5.055l3.442,3.491-7.878,7.878-3.341-3.442-.163.095v4.988h-11.2v-5l-.162-.081-3.407,3.484-7.874-7.871,3.414-3.393-.065-.135H73.216V105.474H78.2l-3.4-3.462,7.984-7.957,3.442,3.569V92.437H97.4v5.1l3.443-3.593,7.976,7.994-3.45,3.326.119.172h4.96ZM101,99.073a14.476,14.476,0,0,1-1.263,1.367,3.669,3.669,0,0,1-5.917-2.12,21.183,21.183,0,0,1-.174-2.145H89.966c0,.481.022.926,0,1.368A3.6,3.6,0,0,1,88,100.816a3.678,3.678,0,0,1-4.363-.6c-.353-.326-.648-.715-1.031-1.143l-2.615,2.812c2.042,2.3,2.378,3.173,1.8,4.81-.822,2.339-2.784,2.536-4.881,2.507v3.719c.508,0,.935-.022,1.359,0a3.5,3.5,0,0,1,3.2,1.782,3.725,3.725,0,0,1-.792,4.814c-.251.259-.542.478-.815.715l.248-.061,2.483,2.771c1.38-1.6,2.9-2.629,5.04-1.794,2.223.868,2.37,2.791,2.35,4.785h3.711c-.023-1.886.052-3.72,2.048-4.653,2.265-1.058,3.909.015,5.24,1.6l2.737-2.664c-1.433-1.32-2.657-2.75-1.778-4.939.887-2.209,2.78-2.394,4.78-2.371v-3.722c-.482,0-.927.013-1.37,0a3.644,3.644,0,0,1-3.567-2.729,3.534,3.534,0,0,1,.786-3.364c.363-.446.787-.843,1.2-1.28L101,99.073" transform="translate(-38.966 -49.196)" fill="#161615"/>
    <path id="Trazado_698901" data-name="Trazado 698901" d="M160.976,115.764h29.8c0-1.125-.018-2.207.008-3.288a6.172,6.172,0,0,1,.184-1.437,3.645,3.645,0,0,1,3.865-2.723c1.438-.021,2.876,0,4.314,0h13.584a3.8,3.8,0,0,1,4.163,4.164q0,5.187,0,10.374a3.8,3.8,0,0,1-4.107,4.111q-8.979.01-17.957,0a3.754,3.754,0,0,1-4.055-4.081c0-1.1,0-2.207,0-3.354h-29.8Zm33.564,7.427h18.583V112.072H194.54Z" transform="translate(-85.672 -57.641)" fill="#161615"/>
    <path id="Trazado_698902" data-name="Trazado 698902" d="M106.42,82.842c-1.294,0-2.572.006-3.849-.012-.1,0-.238-.157-.289-.272a33.226,33.226,0,0,0-4.588-7.533,28.156,28.156,0,0,0-10.727-8.2,28.836,28.836,0,0,0-15.053-2.483,29.639,29.639,0,0,0-20.772,11.58A28.728,28.728,0,0,0,45.174,90.5c-1.094,9.333,1.85,17.356,8.171,24.21a29.04,29.04,0,0,0,15.116,8.454,28.314,28.314,0,0,0,17.622-1.6,28.958,28.958,0,0,0,15.57-14.66,41.518,41.518,0,0,0,1.776-4.855c.146-.434.328-.572.77-.559,1.084.03,2.169.01,3.264.01-2.662,13.675-15.7,26.269-32.863,26.109A33.584,33.584,0,1,1,106.42,82.842" transform="translate(-21.901 -32.174)" fill="#7125c8"/>
    <path id="Trazado_698903" data-name="Trazado 698903" d="M97.066,235.954h14.924v.616q0,11.649,0,23.3c0,1.551-.646,2.177-2.2,2.175q-5.244-.008-10.488,0c-1.592,0-2.233-.617-2.233-2.2V235.954" transform="translate(-51.659 -125.576)" fill="#0b428a"/>
    <path id="Trazado_698904" data-name="Trazado 698904" d="M251.316,183.324H232.733V172.207h18.583Zm-14.862-3.751h3.679v-3.646h-3.679Zm7.463,0H247.6v-3.646h-3.679Z" transform="translate(-123.862 -91.65)" fill="#dee9f0"/>
    <path id="Trazado_698905" data-name="Trazado 698905" d="M184.9,220.005h18.583v11.117H184.9Zm7.38,3.75h-3.66v3.658h3.66Zm7.465,0h-3.663v3.658h3.663Z" transform="translate(-98.403 -117.088)" fill="#ece3ff"/>
    <path id="Trazado_698906" data-name="Trazado 698906" d="M232.757,60.532h18.581V71.649H232.757Zm14.872,3.74h-3.68v3.649h3.68Zm-11.155,3.662h3.666V64.259h-3.666Z" transform="translate(-123.875 -32.215)" fill="#10458b"/>
    <path id="Trazado_698907" data-name="Trazado 698907" d="M232.723,267.855h18.583v11.118H232.723Zm3.727,7.4h3.676v-3.664H236.45Zm7.471-.008h3.66V271.58h-3.66Z" transform="translate(-123.857 -142.554)" fill="#25ffff"/>
    <path id="Trazado_698908" data-name="Trazado 698908" d="M97.157,210.219a33.551,33.551,0,0,0,14.857,0v8.233H97.157Z" transform="translate(-51.708 -111.88)" fill="#2e0877"/>
    <path id="Trazado_698909" data-name="Trazado 698909" d="M105.2,103.325l2.772,2.741c-.413.437-.837.834-1.2,1.28a3.535,3.535,0,0,0-.787,3.364,3.645,3.645,0,0,0,3.567,2.729c.444.015.888,0,1.371,0v3.722c-2-.023-3.893.161-4.78,2.371-.879,2.19.344,3.619,1.778,4.939l-2.738,2.664c-1.33-1.584-2.974-2.658-5.239-1.6-2,.933-2.071,2.767-2.048,4.653H94.186c.02-1.993-.127-3.916-2.35-4.785-2.138-.835-3.66.2-5.04,1.794l-2.483-2.771-.247.061c.273-.237.564-.456.815-.715a3.725,3.725,0,0,0,.792-4.814,3.5,3.5,0,0,0-3.2-1.782c-.424-.025-.85,0-1.359,0v-3.719c2.1.029,4.059-.169,4.881-2.507.576-1.637.24-2.513-1.8-4.81l2.615-2.812c.383.428.678.817,1.031,1.143a3.677,3.677,0,0,0,4.363.6,3.6,3.6,0,0,0,1.963-3.273c.026-.442,0-.887,0-1.368h3.678a21.18,21.18,0,0,0,.175,2.145,3.669,3.669,0,0,0,5.917,2.12,14.476,14.476,0,0,0,1.263-1.367M88.575,115.191a7.563,7.563,0,0,0,7.42,7.562,7.445,7.445,0,1,0-.008-14.89,7.571,7.571,0,0,0-7.412,7.328" transform="translate(-43.169 -53.448)" fill="#fce182"/>
    <path id="Trazado_698910" data-name="Trazado 698910" d="M232.725,116.357h18.583v11.119H232.725Zm7.394,3.746h-3.66v3.658h3.66Zm7.463,0h-3.661v3.658h3.661Z" transform="translate(-123.858 -61.926)" fill="#2e0877"/>
    <rect id="Rectángulo_339639" data-name="Rectángulo 339639" width="3.679" height="3.646" transform="translate(112.592 84.277)" fill="#161615"/>
    <rect id="Rectángulo_339640" data-name="Rectángulo 339640" width="3.679" height="3.646" transform="translate(120.055 84.277)" fill="#161615"/>
    <rect id="Rectángulo_339641" data-name="Rectángulo 339641" width="3.66" height="3.658" transform="translate(90.214 106.667)" fill="#161615"/>
    <rect id="Rectángulo_339642" data-name="Rectángulo 339642" width="3.663" height="3.658" transform="translate(97.674 106.665)" fill="#161615"/>
    <rect id="Rectángulo_339643" data-name="Rectángulo 339643" width="3.68" height="3.649" transform="translate(120.074 32.057)" fill="#161615"/>
    <rect id="Rectángulo_339644" data-name="Rectángulo 339644" width="3.666" height="3.675" transform="translate(112.598 32.044)" fill="#161615"/>
    <rect id="Rectángulo_339645" data-name="Rectángulo 339645" width="3.676" height="3.664" transform="translate(112.593 129.038)" fill="#161615"/>
    <rect id="Rectángulo_339646" data-name="Rectángulo 339646" width="3.66" height="3.669" transform="translate(120.064 129.026)" fill="#161615"/>
    <path id="Trazado_698911" data-name="Trazado 698911" d="M97.065,123.65a7.571,7.571,0,0,1,7.412-7.328,7.445,7.445,0,1,1-7.412,7.328m7.449,3.864a3.726,3.726,0,0,0,3.726-3.676,3.806,3.806,0,0,0-3.611-3.817,3.664,3.664,0,0,0-3.831,3.549,3.776,3.776,0,0,0,3.715,3.944" transform="translate(-51.659 -61.907)" fill="#161615"/>
    <rect id="Rectángulo_339647" data-name="Rectángulo 339647" width="3.66" height="3.658" transform="translate(112.601 58.177)" fill="#161615"/>
    <rect id="Rectángulo_339648" data-name="Rectángulo 339648" width="3.661" height="3.658" transform="translate(120.063 58.176)" fill="#161615"/>
  </g>
</svg>
