<svg xmlns="http://www.w3.org/2000/svg" xmlns:xlink="http://www.w3.org/1999/xlink" width="66.602" height="66.595" viewBox="0 0 66.602 66.595">
  <defs>
    <clipPath id="clip-path">
      <rect x="3" y="3" width="60.608" height="60.595" fill="none"/>
    </clipPath>
  </defs>
  <g id="Grupo_973435" data-name="Grupo 973435" transform="translate(0.001)">
    <g id="Grupo_973437" data-name="Grupo 973437">
      <g id="Grupo_de_desplazamiento_1" data-name="Grupo de desplazamiento 1" transform="translate(0 0.006)" clip-path="url(#clip-path)" style="isolation: isolate">
        <g id="Grupo_973436" data-name="Grupo 973436">
          <g id="Trazado_661253" data-name="Trazado 661253" transform="translate(0 0)">
            <path id="Trazado_661253-2" data-name="Trazado 661253" d="M607.667,51.575c-8.134,1.959-18.48-8.172-18.48-18.264s8.381-18.785,18.473-18.785a19.187,19.187,0,0,1,18.812,18.785c0,10.092-8.713,18.271-18.806,18.271h0m33.179-15.528c.077-.906.121-1.818.121-2.743s-.045-1.837-.121-2.743c-11.534-3.624-13.544-8.319-7.879-18.9a33.076,33.076,0,0,0-3.662-3.662c-4.364,2.335-7.719,3.362-10.711,2.915-3.56-.523-6.06-4.013-8.191-10.794C609.5.055,608.586.01,607.661.01s-1.837.051-2.743.121C601.294,11.665,596.6,13.675,586.022,8a33.082,33.082,0,0,0-3.662,3.662c5.659,10.583,3.655,15.279-7.879,18.9-.077.906-.121,1.818-.121,2.743s.045,1.837.121,2.743c11.534,3.624,13.544,8.319,7.879,18.9a33.081,33.081,0,0,0,3.662,3.662c10.577-5.665,15.279-3.655,18.9,7.879.906.07,1.818.121,2.743.121s1.837-.045,2.743-.121c3.624-11.534,8.319-13.544,18.9-7.879a33.082,33.082,0,0,0,3.662-3.662c-5.665-10.577-3.655-15.272,7.879-18.9" transform="translate(-574.36 -0.01)" fill="#fcc505" fill-rule="evenodd"/>
          </g>
        </g>
      </g>
      <path id="Trazado_661254" data-name="Trazado 661254" d="M584.252,53.332a30.391,30.391,0,0,0,3.394,3.387c9.792-5.237,14.137-3.387,17.492,7.292.836.07,1.684.115,2.539.115s1.7-.045,2.539-.115c3.356-10.679,7.7-12.536,17.492-7.292a31.451,31.451,0,0,0,3.387-3.387c-5.244-9.792-3.387-14.137,7.292-17.492.07-.836.115-1.684.115-2.539s-.045-1.7-.115-2.539c-10.673-3.349-12.536-7.7-7.292-17.492a31.451,31.451,0,0,0-3.387-3.387c-9.792,5.244-14.143,3.387-17.492-7.292-.836-.07-1.684-.115-2.539-.115s-1.7.045-2.539.115c-3.356,10.679-7.7,12.536-17.492,7.292a31.516,31.516,0,0,0-3.394,3.387c5.244,9.792,3.388,14.137-7.292,17.492-.07.836-.115,1.684-.115,2.539s.045,1.7.115,2.539c10.679,3.349,12.536,7.7,7.292,17.492m-9.761-17.288c-.077-.906-.121-1.818-.121-2.743s.045-1.837.121-2.743c11.534-3.624,13.544-8.319,7.879-18.9A33.082,33.082,0,0,1,586.032,8c10.583,5.665,15.279,3.655,18.9-7.879C605.834.045,606.746,0,607.671,0s1.837.051,2.743.121c3.623,11.534,8.319,13.544,18.9,7.872a33.071,33.071,0,0,1,3.662,3.662c-5.659,10.583-3.655,15.279,7.879,18.9.077.906.121,1.818.121,2.743s-.045,1.837-.121,2.743c-11.534,3.624-13.544,8.319-7.879,18.9a33.071,33.071,0,0,1-3.662,3.662c-10.577-5.665-15.279-3.655-18.9,7.879-.906.07-1.818.121-2.743.121s-1.837-.045-2.743-.121c-3.624-11.534-8.319-13.543-18.9-7.879a33.083,33.083,0,0,1-3.662-3.662c5.665-10.577,3.655-15.272-7.879-18.9" transform="translate(-574.371)" fill="#70c6d9" fill-rule="evenodd"/>
      <path id="Trazado_661255" data-name="Trazado 661255" d="M617.386,56.355a13.333,13.333,0,1,0-13.333-13.333h0a13.331,13.331,0,0,0,13.333,13.333h0m0-29.5A16.169,16.169,0,1,1,601.22,43.028h0A16.172,16.172,0,0,1,617.386,26.85h0" transform="translate(-584.085 -9.722)" fill="#70c6d9" fill-rule="evenodd"/>
    </g>
  </g>
</svg>
