<svg xmlns="http://www.w3.org/2000/svg" width="29.722" height="29.766" viewBox="0 0 29.722 29.766">
  <path id="Trazado_661257" data-name="Trazado 661257" d="M113.461,128.231l-1.537.893a1.1,1.1,0,0,0-.4,1.493l.338.587c.4.689.223,1,.1,1.11-.344.306-.663.638-.976.97-.1.1-.389.427-1.174-.026l-.536-.313a1.094,1.094,0,0,0-1.493.4l-.893,1.537a1.094,1.094,0,0,0,.4,1.493l.536.306c.734.427.714.644.619.957-.128.427-.268.855-.357,1.3-.083.4-.045.676-1.046.676h-.612a1.094,1.094,0,0,0-1.091,1.091v1.78a1.1,1.1,0,0,0,1.091,1.091h.612c1,0,.957.287,1.046.676.1.44.23.868.357,1.3.1.313.108.529-.619.957l-.536.306a1.1,1.1,0,0,0-.4,1.493l.893,1.537a1.1,1.1,0,0,0,1.493.4l.536-.313c.785-.453,1.078-.121,1.174-.026.319.332.638.663.976.97.121.115.3.421-.1,1.11l-.338.587a1.094,1.094,0,0,0,.4,1.493l1.537.893a1.094,1.094,0,0,0,1.493-.4l.338-.581c.408-.7.81-.67.976-.619.491.153.951.255,1.448.389.191.051.5.185.5,1.014v.625a1.094,1.094,0,0,0,1.091,1.091h1.78a1.094,1.094,0,0,0,1.091-1.091v-.625c0-.829.319-.97.5-1.014.5-.134.957-.23,1.448-.389.166-.057.568-.083.976.619l.338.581a1.1,1.1,0,0,0,1.493.4l1.537-.893a1.1,1.1,0,0,0,.4-1.493l-.338-.587c-.4-.689-.23-1-.1-1.11.344-.306.663-.638.976-.97.1-.1.389-.434,1.174.026l.536.313a1.094,1.094,0,0,0,1.493-.4l.893-1.537a1.087,1.087,0,0,0-.4-1.493h0l-.529-.313c-.734-.427-.714-.644-.625-.957.128-.427.268-.855.357-1.3.083-.4.045-.676,1.046-.676h.612a1.1,1.1,0,0,0,1.091-1.091v-1.78a1.1,1.1,0,0,0-1.091-1.091h-.612c-1,0-.957-.287-1.046-.676-.1-.44-.23-.868-.357-1.3-.1-.313-.115-.529.625-.957l.529-.306a1.094,1.094,0,0,0,.4-1.493l-.893-1.537a1.1,1.1,0,0,0-1.493-.4l-.536.313c-.785.453-1.078.121-1.174.026-.319-.332-.638-.663-.976-.97-.121-.115-.3-.421.1-1.11l.338-.587a1.094,1.094,0,0,0-.4-1.493l-1.537-.893a1.1,1.1,0,0,0-1.493.4l-.338.581c-.408.7-.81.67-.976.619-.491-.153-.951-.255-1.448-.389-.185-.051-.5-.185-.5-1.014v-.625a1.094,1.094,0,0,0-1.091-1.091h-1.78a1.094,1.094,0,0,0-1.091,1.091v.625c0,.836-.319.97-.5,1.014-.5.134-.957.236-1.448.389-.166.051-.568.083-.976-.619l-.338-.581a1.1,1.1,0,0,0-1.493-.4m6.743,11.011a2.351,2.351,0,1,1-2.354,2.348h0a2.351,2.351,0,0,1,2.354-2.348m-7.368,2.348a.5.5,0,1,1,1.008,0,6.372,6.372,0,0,0,6.367,6.367.5.5,0,0,1,0,1.008,7.367,7.367,0,0,1-7.368-7.368m14.641-1.187a.5.5,0,0,1-.44.555.5.5,0,0,1-.549-.4,6.364,6.364,0,0,0-5.186-5.238.5.5,0,0,1,.166-1,7.381,7.381,0,0,1,6.016,6.073m-7.273-7.547a8.727,8.727,0,1,1-8.733,8.727,8.723,8.723,0,0,1,8.733-8.727" transform="translate(-105.34 -126.7)" fill="#70a3e0" fill-rule="evenodd"/>
</svg>
