<svg xmlns="http://www.w3.org/2000/svg" width="44.49" height="44.567" viewBox="0 0 44.49 44.567">
  <g id="Grupo_973434" data-name="Grupo 973434" transform="translate(-125.018 -17.926)">
    <path id="Trazado_661256" data-name="Trazado 661256" d="M238.683,30.377l-2.3,1.34a1.636,1.636,0,0,0-.593,2.233l.51.874c.6,1.033.338,1.5.153,1.665-.51.459-.989.957-1.461,1.455-.14.147-.587.644-1.761-.038l-.8-.466a1.639,1.639,0,0,0-2.233.587l-1.34,2.3a1.645,1.645,0,0,0,.593,2.239l.8.459c1.1.638,1.072.97.931,1.435-.191.638-.4,1.282-.536,1.939-.121.593-.07,1.014-1.563,1.014h-.912a1.636,1.636,0,0,0-1.633,1.633v2.66a1.636,1.636,0,0,0,1.633,1.633h.912c1.493,0,1.442.421,1.563,1.008.14.663.344,1.3.536,1.939.14.466.166.791-.931,1.435l-.8.466a1.641,1.641,0,0,0-.593,2.233l1.34,2.3a1.636,1.636,0,0,0,2.233.593l.8-.466c1.174-.683,1.614-.185,1.761-.038.472.5.951,1,1.461,1.455.191.166.447.632-.153,1.665l-.51.874a1.636,1.636,0,0,0,.593,2.233l2.3,1.34a1.636,1.636,0,0,0,2.233-.593l.5-.874c.612-1.046,1.212-1.008,1.461-.925.734.236,1.416.383,2.169.581.274.07.753.274.753,1.525v.938a1.636,1.636,0,0,0,1.633,1.633H250.1a1.636,1.636,0,0,0,1.633-1.633V70.1c0-1.25.472-1.448.753-1.525.759-.2,1.442-.351,2.175-.581.255-.077.855-.121,1.461.925l.5.874a1.641,1.641,0,0,0,2.233.593l2.3-1.34a1.636,1.636,0,0,0,.593-2.233l-.51-.874c-.6-1.033-.338-1.5-.153-1.665.517-.459.989-.957,1.467-1.455.14-.147.587-.644,1.761.038l.8.466a1.636,1.636,0,0,0,2.233-.593l1.34-2.3A1.636,1.636,0,0,0,268.1,58.2l-.8-.466c-1.1-.638-1.072-.97-.931-1.435.191-.638.4-1.282.536-1.939.121-.587.07-1.008,1.563-1.008h.912a1.636,1.636,0,0,0,1.633-1.633V49.05a1.636,1.636,0,0,0-1.633-1.633h-.912c-1.493,0-1.442-.421-1.563-1.014-.14-.663-.344-1.3-.536-1.939-.14-.466-.166-.791.931-1.435l.8-.459a1.642,1.642,0,0,0,.593-2.239l-1.34-2.3a1.635,1.635,0,0,0-2.233-.587l-.8.466c-1.174.683-1.614.185-1.761.038-.472-.5-.951-1-1.467-1.455-.191-.166-.447-.632.153-1.665l.51-.874a1.636,1.636,0,0,0-.593-2.233l-2.3-1.34a1.636,1.636,0,0,0-2.233.593l-.5.874c-.612,1.046-1.212,1.008-1.461.925-.734-.236-1.416-.383-2.175-.581-.274-.07-.753-.274-.753-1.518v-.938A1.636,1.636,0,0,0,250.1,28.1h-2.667a1.636,1.636,0,0,0-1.633,1.633v.938c0,1.25-.472,1.448-.753,1.518-.759.2-1.435.351-2.169.581-.255.083-.855.121-1.461-.925l-.5-.874a1.641,1.641,0,0,0-2.233-.593m10.1,6.934c7.222,0,12.465,5.863,12.465,13.084S256,62.728,248.781,62.728s-12.4-6.456-12.4-13.678,5.881-12.85,12.4-11.732" transform="translate(-101.512 -10.174)" fill="#70c6d9" fill-rule="evenodd"/>
  </g>
</svg>
