<svg xmlns="http://www.w3.org/2000/svg" width="90.947" height="90.947" viewBox="0 0 90.947 90.947">
  <g id="Grupo_973428" data-name="Grupo 973428" transform="translate(-390 -3682)">
    <circle id="Elipse_5277" data-name="Elipse 5277" cx="45.474" cy="45.474" r="45.474" transform="translate(390 3682)" fill="#0f58b9"/>
    <g id="procedimiento" transform="translate(409.732 3697.139)">
      <path id="Trazado_678439" data-name="Trazado 678439" d="M51.37,69.8H3V12.213L12.213,3H51.37V28.371" transform="translate(-1.848 -1.848)" fill="#f4f4f2"/>
      <circle id="Elipse_5290" data-name="Elipse 5290" cx="23.033" cy="23.033" r="23.033" transform="translate(21.881 11.517)" fill="#4a8cdd"/>
      <circle id="Elipse_5291" data-name="Elipse 5291" cx="18.426" cy="18.426" r="18.426" transform="translate(26.488 16.123)" fill="#5cccbc"/>
      <path id="Trazado_678440" data-name="Trazado 678440" d="M25.7,64.038A33.214,33.214,0,0,0,44.46,69.8H3V12.213L12.213,3H44.46A33.4,33.4,0,0,0,25.7,64.038Z" transform="translate(-1.848 -1.848)" fill="#e2e2e2"/>
      <path id="Trazado_678441" data-name="Trazado 678441" d="M12.213,3v9.213H3Z" transform="translate(-1.848 -1.848)" fill="#4a8cdd"/>
      <path id="Trazado_678442" data-name="Trazado 678442" d="M31.91,34.426A18.426,18.426,0,0,1,46.881,16.334,18.9,18.9,0,0,0,43.426,16a18.426,18.426,0,1,0,0,36.853,18.9,18.9,0,0,0,3.455-.334A18.426,18.426,0,0,1,31.91,34.426Z" transform="translate(1.488 0.123)" fill="#3eb5a7"/>
      <ellipse id="Elipse_5292" data-name="Elipse 5292" cx="2.925" cy="1.44" rx="2.925" ry="1.44" transform="translate(31.932 23.005) rotate(-28.821)" fill="#f7f7f7"/>
      <circle id="Elipse_5293" data-name="Elipse 5293" cx="1.152" cy="1.152" r="1.152" transform="translate(30.978 27.056) rotate(-73.795)" fill="#f7f7f7"/>
      <path id="Trazado_678443" data-name="Trazado 678443" d="M54.033,35.82V31.213h-2.6a9.536,9.536,0,0,0-.979-2.372L52.294,27l-3.259-3.259-1.843,1.843A9.536,9.536,0,0,0,44.82,24.6V22H40.213v2.6a9.536,9.536,0,0,0-2.372.979L36,23.739,32.739,27l1.843,1.843a9.536,9.536,0,0,0-.979,2.372H31V35.82h2.6a9.536,9.536,0,0,0,.979,2.372l-1.843,1.843L36,43.294l1.843-1.843a9.536,9.536,0,0,0,2.372.979v2.6H44.82v-2.6a9.536,9.536,0,0,0,2.372-.979l1.843,1.843,3.259-3.259-1.843-1.843a9.536,9.536,0,0,0,.979-2.372Z" transform="translate(2.398 1.033)" fill="#fad55c"/>
      <path id="Trazado_678444" data-name="Trazado 678444" d="M52.517,35.82V31.213h-2.6a9.536,9.536,0,0,0-.979-2.372L50.778,27l-3.259-3.259-1.843,1.843A9.535,9.535,0,0,0,43.3,24.6V22H41V45.033h2.3v-2.6a9.536,9.536,0,0,0,2.372-.979l1.843,1.843,3.259-3.259-1.843-1.843a9.536,9.536,0,0,0,.979-2.372Z" transform="translate(3.915 1.033)" fill="#edc045"/>
      <circle id="Elipse_5294" data-name="Elipse 5294" cx="4.607" cy="4.607" r="4.607" transform="translate(40.308 29.943)" fill="#5cccbc"/>
      <path id="Trazado_678445" data-name="Trazado 678445" d="M52.673,13.09V3.152A1.152,1.152,0,0,0,51.521,2H12.365a1.152,1.152,0,0,0-.818.334L2.334,11.547A1.152,1.152,0,0,0,2,12.365V69.948A1.152,1.152,0,0,0,3.152,71.1h48.37a1.152,1.152,0,0,0,1.152-1.152V60.009a24.185,24.185,0,0,0,0-46.918ZM11.213,5.927v5.286H5.927ZM50.37,68.8H4.3V13.517h8.062a1.152,1.152,0,0,0,1.152-1.152V4.3H50.37v8.338a24.392,24.392,0,0,0-3.455-.276,24.058,24.058,0,0,0-14.142,4.607H6.607v2.3H30.02a26.037,26.037,0,0,0-2.061,2.3H6.607v2.3H26.358a21.167,21.167,0,0,0-1.255,2.3H6.607v2.3h17.54a19.648,19.648,0,0,0-.691,2.3H6.607v2.3h16.4a21.662,21.662,0,0,0-.219,2.3H6.607v2.3H22.787a21.662,21.662,0,0,0,.219,2.3H6.607v2.3H23.455a19.647,19.647,0,0,0,.691,2.3H11.213v2.3H25.1a21.168,21.168,0,0,0,1.255,2.3H11.213v2.3H27.958a26.039,26.039,0,0,0,2.061,2.3H11.213v2.3H32.772a24.185,24.185,0,0,0,3.9,2.3H11.213v2.3H48.066a21.662,21.662,0,0,0,2.3-.219ZM46.915,58.431A21.881,21.881,0,1,1,68.8,36.55,21.881,21.881,0,0,1,46.915,58.431Z" transform="translate(-2 -2)"/>
      <path id="Trazado_678446" data-name="Trazado 678446" d="M43.578,17.3H44.73V15H43.578A19.578,19.578,0,0,0,24,34.578h2.3A17.275,17.275,0,0,1,43.578,17.3Z" transform="translate(1.336 -0.028)"/>
      <path id="Trazado_678447" data-name="Trazado 678447" d="M41,49.275v2.3A19.578,19.578,0,0,0,60.578,32h-2.3A17.275,17.275,0,0,1,41,49.275Z" transform="translate(3.915 2.55)"/>
      <path id="Trazado_678448" data-name="Trazado 678448" d="M46.123,45.185V43.434a10.546,10.546,0,0,0,1-.415l1.3,1.232a1.152,1.152,0,0,0,1.624,0l3.259-3.259a1.152,1.152,0,0,0,0-1.624l-1.232-1.244a10.546,10.546,0,0,0,.415-1h1.693a1.152,1.152,0,0,0,1.152-1.152V31.365a1.152,1.152,0,0,0-1.152-1.152H52.434a10.545,10.545,0,0,0-.415-1l1.232-1.244a1.152,1.152,0,0,0,0-1.624l-3.259-3.259a1.127,1.127,0,0,0-1.624,0l-1.244,1.232q-.484-.219-1-.415V22.152A1.152,1.152,0,0,0,44.972,21H40.365a1.152,1.152,0,0,0-1.152,1.152V23.9a10.546,10.546,0,0,0-1,.415l-1.244-1.232a1.152,1.152,0,0,0-1.624,0l-3.259,3.259a1.152,1.152,0,0,0,0,1.624l1.232,1.244a10.546,10.546,0,0,0-.415,1H31.152A1.152,1.152,0,0,0,30,31.365v4.607a1.152,1.152,0,0,0,1.152,1.152H32.9a10.546,10.546,0,0,0,.415,1l-1.232,1.3a1.152,1.152,0,0,0,0,1.624l3.259,3.259a1.127,1.127,0,0,0,1.624,0l1.244-1.232a10.546,10.546,0,0,0,1,.415v1.693a1.152,1.152,0,0,0,1.152,1.152h4.607A1.152,1.152,0,0,0,46.123,45.185Zm-2.3-2.6v1.451h-2.3V42.582a1.152,1.152,0,0,0-.864-1.152,7.6,7.6,0,0,1-2.073-.864,1.152,1.152,0,0,0-1.394.184L36.15,41.776l-1.624-1.624,1.025-1.036a1.152,1.152,0,0,0,.207-1.359,7.75,7.75,0,0,1-.864-2.073,1.152,1.152,0,0,0-1.152-.864H32.3v-2.3h1.451a1.152,1.152,0,0,0,1.152-.864,7.751,7.751,0,0,1,.864-2.073,1.152,1.152,0,0,0-.184-1.394L34.561,27.15l1.624-1.624,1.036,1.025a1.152,1.152,0,0,0,1.394.184,7.6,7.6,0,0,1,2.073-.864,1.152,1.152,0,0,0,.864-1.152V23.3h2.3v1.451a1.152,1.152,0,0,0,.864,1.152,7.6,7.6,0,0,1,2.073.864,1.152,1.152,0,0,0,1.394-.184l1.036-1.025,1.624,1.624L49.82,28.221a1.152,1.152,0,0,0-.242,1.359,7.751,7.751,0,0,1,.864,2.073,1.152,1.152,0,0,0,1.152.864h1.44v2.3H51.582a1.152,1.152,0,0,0-1.152.864,7.751,7.751,0,0,1-.864,2.073,1.152,1.152,0,0,0,.184,1.394l1.025,1.036L49.152,41.81l-1.036-1.025a1.152,1.152,0,0,0-1.359-.207,7.6,7.6,0,0,1-2.073.864A1.152,1.152,0,0,0,43.82,42.582Z" transform="translate(2.246 0.881)"/>
      <path id="Trazado_678449" data-name="Trazado 678449" d="M45.834,28.681a5.758,5.758,0,1,0,1.692,4.077,5.758,5.758,0,0,0-1.692-4.077ZM44.2,35.2a3.547,3.547,0,0,1-4.883,0,3.455,3.455,0,1,1,4.883,0Z" transform="translate(3.158 1.791)"/>
      <path id="Trazado_678450" data-name="Trazado 678450" d="M43,15h2.3v2.3H43Z" transform="translate(4.218 -0.028)"/>
      <path id="Trazado_678451" data-name="Trazado 678451" d="M37,47h2.3v2.3H37Z" transform="translate(3.308 4.825)"/>
      <path id="Trazado_678452" data-name="Trazado 678452" d="M20,7h9.213V9.3H20Z" transform="translate(0.73 -1.242)"/>
      <path id="Trazado_678453" data-name="Trazado 678453" d="M17,11H33.123v2.3H17Z" transform="translate(0.275 -0.635)"/>
      <path id="Trazado_678454" data-name="Trazado 678454" d="M6,39H8.3v2.3H6Z" transform="translate(-1.393 3.611)"/>
      <path id="Trazado_678455" data-name="Trazado 678455" d="M6,43H8.3v2.3H6Z" transform="translate(-1.393 4.218)"/>
      <path id="Trazado_678456" data-name="Trazado 678456" d="M6,47H8.3v2.3H6Z" transform="translate(-1.393 4.825)"/>
      <path id="Trazado_678457" data-name="Trazado 678457" d="M6,51H8.3v2.3H6Z" transform="translate(-1.393 5.431)"/>
      <path id="Trazado_678458" data-name="Trazado 678458" d="M10,55H46.853v2.3H10Z" transform="translate(-0.787 6.038)"/>
      <path id="Trazado_678459" data-name="Trazado 678459" d="M6,55H8.3v2.3H6Z" transform="translate(-1.393 6.038)"/>
    </g>
  </g>
</svg>
