<svg xmlns="http://www.w3.org/2000/svg" width="100.671" height="100.671" viewBox="0 0 100.671 100.671">
  <g id="Grupo_973371" data-name="Grupo 973371" transform="translate(7448 8210)">
    <circle id="Elipse_5282" data-name="Elipse 5282" cx="50.336" cy="50.336" r="50.336" transform="translate(-7448 -8210)" fill="#0f58b9"/>
    <g id="requisitos" transform="translate(-7431.497 -8194.577)">
      <g id="Grupo_946754" data-name="Grupo 946754" transform="translate(1.327 1.33)">
        <g id="Grupo_946752" data-name="Grupo 946752" transform="translate(65.753 10.019)">
          <path id="Trazado_678354" data-name="Trazado 678354" d="M432.631,123.658V76.235c0-1.479.908-2.685,2.021-2.685H441.1c1.113,0,2.022,1.206,2.022,2.685v47.424l-4.691,9.033a.626.626,0,0,1-1.111,0Z" transform="translate(-432.631 -73.55)" fill="#fad808" fill-rule="evenodd"/>
          <g id="Grupo_946751" data-name="Grupo 946751">
            <path id="Trazado_678355" data-name="Trazado 678355" d="M432.63,81.376h10.492V76.235c0-1.479-.908-2.685-2.022-2.685h-6.449c-1.113,0-2.021,1.206-2.021,2.685v5.141Z" transform="translate(-432.63 -73.55)" fill="#292e33" fill-rule="evenodd"/>
            <path id="Trazado_678356" data-name="Trazado 678356" d="M443.136,393.907H432.649l4.688,9.027a.626.626,0,0,0,1.111,0Z" transform="translate(-432.646 -343.793)" fill="#292e33" fill-rule="evenodd"/>
          </g>
        </g>
        <g id="Grupo_946753" data-name="Grupo 946753" transform="translate(0 0)">
          <path id="Trazado_678357" data-name="Trazado 678357" d="M70.231,43.229a3.26,3.26,0,0,1,3.254,3.254v65.335a3.26,3.26,0,0,1-3.254,3.254H15.549a3.26,3.26,0,0,1-3.254-3.254V46.483a3.26,3.26,0,0,1,3.254-3.254Z" transform="translate(-12.295 -37.953)" fill="#994f1f" fill-rule="evenodd"/>
          <path id="Trazado_678358" data-name="Trazado 678358" d="M46.191,78.379v58.736a1.254,1.254,0,0,0,1.251,1.251H88.47a1.208,1.208,0,0,0,.885-.367l7.056-7.055a1.209,1.209,0,0,0,.366-.885V78.379a1.254,1.254,0,0,0-1.251-1.251H47.442a1.254,1.254,0,0,0-1.251,1.251Z" transform="translate(-40.889 -66.549)" fill="#eff4f7" fill-rule="evenodd"/>
          <path id="Trazado_678359" data-name="Trazado 678359" d="M319.777,419.439v7.054a1.254,1.254,0,0,0,.366-.258l7.056-7.055a1.25,1.25,0,0,0,.258-.367H320.4a.627.627,0,0,0-.626.626Z" transform="translate(-271.677 -354.784)" fill="#d8d8d8" fill-rule="evenodd"/>
          <path id="Trazado_678360" data-name="Trazado 678360" d="M124.884,14.776h6.651a5.276,5.276,0,0,1,10.553,0h6.651a1.254,1.254,0,0,1,1.252,1.251v5.338a1.254,1.254,0,0,1-1.252,1.251H124.884a1.254,1.254,0,0,1-1.251-1.251V16.028a1.254,1.254,0,0,1,1.251-1.251Z" transform="translate(-106.216 -9.5)" fill="#2d2829" fill-rule="evenodd"/>
        </g>
        <path id="Trazado_678361" data-name="Trazado 678361" d="M97.694,369.065h6.661a.627.627,0,0,1,.626.626v6.661a.627.627,0,0,1-.626.626H97.694a.627.627,0,0,1-.626-.626v-6.661A.627.627,0,0,1,97.694,369.065Z" transform="translate(-83.807 -312.818)" fill="#e03" fill-rule="evenodd"/>
        <path id="Trazado_678362" data-name="Trazado 678362" d="M97.694,288.072h6.661a.627.627,0,0,1,.626.626v6.66a.627.627,0,0,1-.626.626H97.694a.627.627,0,0,1-.626-.626V288.7A.627.627,0,0,1,97.694,288.072Z" transform="translate(-83.807 -244.495)" fill="#fad808" fill-rule="evenodd"/>
        <path id="Trazado_678363" data-name="Trazado 678363" d="M97.694,207.079h6.661a.627.627,0,0,1,.626.626v6.66a.627.627,0,0,1-.626.626H97.694a.627.627,0,0,1-.626-.626V207.7A.627.627,0,0,1,97.694,207.079Z" transform="translate(-83.807 -176.172)" fill="#22c269" fill-rule="evenodd"/>
        <path id="Trazado_678364" data-name="Trazado 678364" d="M97.694,126.087h6.661a.627.627,0,0,1,.626.626v6.661a.627.627,0,0,1-.626.626H97.694a.627.627,0,0,1-.626-.626v-6.661A.627.627,0,0,1,97.694,126.087Z" transform="translate(-83.807 -107.849)" fill="#1980f2" fill-rule="evenodd"/>
      </g>
      <path id="Trazado_678365" data-name="Trazado 678365" d="M76.139,69.674l-3.055-5.882h6.109Zm-3.918-8.541V21.5h7.835V61.132Zm.694-47.455h6.448c.244,0,.694.515.694,1.355v3.811H72.221V15.033C72.221,14.192,72.671,13.677,72.915,13.677Zm6.448-2.659H72.914c-1.844,0-3.349,1.8-3.349,4.014V62.457a1.355,1.355,0,0,0,.148.612l5.246,10.1a1.331,1.331,0,0,0,2.361,0l5.246-10.1a1.355,1.355,0,0,0,.148-.612V15.033C82.713,12.819,81.215,11.018,79.363,11.018ZM31.9,65.321a1.333,1.333,0,0,1,1.335-1.33h9.916a1.33,1.33,0,0,1,0,2.66H33.236A1.333,1.333,0,0,1,31.9,65.321Zm0-5.578a1.333,1.333,0,0,1,1.335-1.33H53.068a1.33,1.33,0,0,1,0,2.66H33.236A1.333,1.333,0,0,1,31.9,59.743Zm-6.92,5.415H19.727V59.905H24.98Zm1.335-7.913H18.4a1.331,1.331,0,0,0-1.328,1.33v7.912a1.331,1.331,0,0,0,1.328,1.33h7.916a1.331,1.331,0,0,0,1.328-1.33V58.576A1.331,1.331,0,0,0,26.315,57.246Zm5.585-4.6a1.333,1.333,0,0,1,1.335-1.329h9.916a1.33,1.33,0,0,1,0,2.659H33.236a1.333,1.333,0,0,1-1.335-1.33Zm0-5.577a1.333,1.333,0,0,1,1.335-1.33H53.068a1.33,1.33,0,0,1,0,2.66H33.236A1.333,1.333,0,0,1,31.9,47.074Zm-6.92,5.415H19.727V47.235H24.98Zm1.335-7.912H18.4a1.331,1.331,0,0,0-1.328,1.33v7.912a1.331,1.331,0,0,0,1.328,1.33h7.916a1.331,1.331,0,0,0,1.328-1.33V45.906A1.331,1.331,0,0,0,26.315,44.576Zm5.585-4.6a1.333,1.333,0,0,1,1.335-1.33h9.916a1.33,1.33,0,0,1,0,2.66H33.236A1.333,1.333,0,0,1,31.9,39.98Zm0-5.577a1.333,1.333,0,0,1,1.335-1.33H53.068a1.33,1.33,0,0,1,0,2.659H33.236A1.332,1.332,0,0,1,31.9,34.4Zm-6.92,5.415H19.727V34.566H24.98Zm1.335-7.912H18.4a1.331,1.331,0,0,0-1.328,1.33v7.912a1.331,1.331,0,0,0,1.328,1.33h7.916a1.331,1.331,0,0,0,1.328-1.33V33.236A1.331,1.331,0,0,0,26.315,31.906ZM31.9,27.311a1.333,1.333,0,0,1,1.335-1.33h9.916a1.33,1.33,0,0,1,0,2.659H33.236a1.333,1.333,0,0,1-1.335-1.33Zm0-5.577a1.333,1.333,0,0,1,1.335-1.33H53.068a1.33,1.33,0,0,1,0,2.66H33.236a1.333,1.333,0,0,1-1.335-1.33ZM19.727,21.9H24.98v5.252H19.727Zm-2.656-1.33v7.912A1.331,1.331,0,0,0,18.4,29.808h7.916a1.331,1.331,0,0,0,1.328-1.329V20.566a1.331,1.331,0,0,0-1.328-1.329H18.4A1.331,1.331,0,0,0,17.071,20.566ZM65,76.2V10.86A1.925,1.925,0,0,0,63.08,8.935H50.242v2.643H61.029a1.331,1.331,0,0,1,1.328,1.33v53.45a1.325,1.325,0,0,1-.391.94l-7.784,7.789a1.339,1.339,0,0,1-.944.389H10.446A1.332,1.332,0,0,1,9.11,74.146V12.908a1.333,1.333,0,0,1,1.335-1.33H21.225V8.935H8.395A1.927,1.927,0,0,0,6.469,10.86V76.2a1.927,1.927,0,0,0,1.926,1.924H63.08A1.925,1.925,0,0,0,65,76.2Zm-7.179-8.507-3.246,3.249V67.688ZM48.914,16.776H22.553a1.331,1.331,0,0,1-1.328-1.33V14.237H11.774V72.816H51.909V66.358a1.331,1.331,0,0,1,1.328-1.33H59.7V14.237H50.242v1.209a1.331,1.331,0,0,1-1.328,1.33ZM23.888,8.935h6.574a1.331,1.331,0,0,0,1.328-1.33,3.947,3.947,0,1,1,7.894,0,1.326,1.326,0,0,0,1.328,1.33h6.574v5.181h-23.7V8.935ZM63.08,6.275H42.208a6.606,6.606,0,0,0-12.941,0H8.395A4.585,4.585,0,0,0,3.813,10.86V76.2a4.586,4.586,0,0,0,4.582,4.584H63.08A4.59,4.59,0,0,0,67.661,76.2V10.86A4.59,4.59,0,0,0,63.08,6.275Z" transform="translate(-3.813 -0.999)" fill-rule="evenodd"/>
    </g>
  </g>
</svg>
