<svg id="Grupo_973565" data-name="Grupo 973565" xmlns="http://www.w3.org/2000/svg" xmlns:xlink="http://www.w3.org/1999/xlink" width="163" height="163" viewBox="0 0 163 163">
  <defs>
    <clipPath id="clip-path">
      <rect id="Rectángulo_339638" data-name="Rectángulo 339638" width="163" height="163" fill="none"/>
    </clipPath>
    <clipPath id="clip-path-2">
      <rect id="Rectángulo_339628" data-name="Rectángulo 339628" width="11.202" height="18.58" fill="#12263f"/>
    </clipPath>
  </defs>
  <g id="Grupo_973564" data-name="Grupo 973564" clip-path="url(#clip-path)">
    <path id="Trazado_698874" data-name="Trazado 698874" d="M163,81.5A81.5,81.5,0,1,1,81.5,0,81.5,81.5,0,0,1,163,81.5" fill="#cfb7ff"/>
    <path id="Trazado_698875" data-name="Trazado 698875" d="M115.206,96.826v.779q0,9.417-.01,18.832c0,.456.1.675.576.81q8.708,2.454,17.4,4.963a.932.932,0,0,0,1.109-.3,20.277,20.277,0,0,1,4.786-3.777.771.771,0,0,0,.38-.492c.024-2.562.017-5.124.017-7.723-4.854-.3-7.813-2.889-9.132-7.491h-3.9A35.456,35.456,0,0,1,129,87.5h-2.144c-2.689,0-4.181-1.5-4.181-4.193q0-1.429,0-2.857a3.785,3.785,0,0,1,4.08-4.141c1.516-.022,3.032-.011,4.548,0a.621.621,0,0,0,.668-.4,18.57,18.57,0,0,1,34.78,3.061,19.526,19.526,0,0,1,.712,5.469c-.035,1.961.078,3.938-.131,5.881a23.52,23.52,0,0,1-7.218,15.174,31.805,31.805,0,0,1-5.662,4.175c-.881.523-.862.536-.706,1.519.152.958.254,1.925.429,2.879a2.413,2.413,0,0,0,.437,1.047,24.4,24.4,0,0,1,5.364,15.613c.065,13.332.021,26.664.021,40v.714h-31.7v-14.86h-9.34v14.89h-.657c-17.066,0-34.132.034-51.2-.017-6.759-.021-11.468-3.342-14.249-9.437a13.354,13.354,0,0,1-1.08-5.569c-.021-15.023-.069-30.046.018-45.069A14.709,14.709,0,0,1,62.4,97.545c1.04-.292,2.132-.394,3.191-.624a1.7,1.7,0,0,0,.784-.424q1.7-1.643,3.343-3.335a.513.513,0,0,1,.818-.073c1.917,1.393,3.856,2.756,5.792,4.123a3.757,3.757,0,0,0,.548.265c.427-2.612.847-5.138,1.246-7.668.053-.334.163-.455.512-.454q4.811.018,9.622,0c.4,0,.539.154.6.526.387,2.454.79,4.905,1.19,7.357a1.5,1.5,0,0,0,.093.232,5.927,5.927,0,0,0,.647-.349c1.9-1.347,3.806-2.691,5.687-4.067.317-.232.482-.2.728.054,1.063,1.081,2.157,2.132,3.2,3.23a1.511,1.511,0,0,0,1.221.5c4.3-.016,8.591-.009,12.887-.009Zm-.024,29.855h-.876q-23.589,0-47.177,0a14.616,14.616,0,0,1-11.336-4.807,2.438,2.438,0,0,0-.3-.23v.546c0,11.545-.018,23.089.028,34.634a11.057,11.057,0,0,0,11.415,10.915c4.743-.029,9.486-.006,14.229-.008.146,0,.293-.028.478-.047V149.053h7.454v-18.6h14.939v18.6h3.688c.418-4.565,2.971-6.994,7.463-7.48ZM122.7,152.8h.677c5.617,0,11.233.02,16.849-.007a13.185,13.185,0,0,0,10.646-5.134,24.579,24.579,0,0,0,5.027-10.952,31.4,31.4,0,0,0,.168-9.058,20.252,20.252,0,0,0-2.087-6.928c-.155-.312-.268-.477-.63-.167q-3.56,3.056-7.154,6.072c-1.169.985-2.354,1.95-3.615,2.992l-3.52-7.032a4.644,4.644,0,0,0-.494.312c-3.331,2.814-5.7,6.266-6.281,10.633a75.54,75.54,0,0,0-.265,7.963c0,.028.047.058.09.108,2.585,0,5.188.007,7.791-.015a.7.7,0,0,0,.506-.33c1.368-2.7,2.712-5.41,4.07-8.114.265-.528.472-1.343.88-1.473.428-.136,1.074.382,1.614.635s1.059.528,1.6.8c-.158.352-.266.623-.4.881-1.5,2.96-3.024,5.906-4.495,8.88a4.181,4.181,0,0,1-4.12,2.477c-5.383-.018-10.767-.007-16.15-.007h-.71Zm-59.715-36.98c2.164.357,4.3.759,6.45,1.043.985.13,1.7.4,1.844,1.489a.8.8,0,0,0,.132.322,2.02,2.02,0,0,1-.322,2.781A14.4,14.4,0,0,0,70,122.936c3.764,0,7.4,0,11.032-.006a6.758,6.758,0,0,0,.963-.139c-5.571-.767-8.175-6.159-7.813-10.017a9.327,9.327,0,1,1,10.886,10.083H96.914a17.612,17.612,0,0,0-1.166-1.6,1.731,1.731,0,0,1-.282-2.374c.357-.548.434-1.382.9-1.724a4.889,4.889,0,0,1,1.968-.394l5.643-.935v-4.4c-.154-.032-.284-.063-.414-.085-2.259-.374-4.517-.757-6.778-1.113a.933.933,0,0,1-.886-.753,7.112,7.112,0,0,0-.619-1.565,1.255,1.255,0,0,1,.181-1.523c1.291-1.75,2.54-3.532,3.8-5.3.154-.216.38-.411.088-.7-.95-.943-1.888-1.9-2.849-2.864-.209.134-.391.24-.562.363-1.834,1.309-3.671,2.613-5.493,3.938a.844.844,0,0,1-1,.11,12.692,12.692,0,0,0-1.886-.761.84.84,0,0,1-.674-.757c-.116-.787-.247-1.571-.378-2.356-.274-1.641-.551-3.281-.835-4.969-1.249,0-2.453.044-3.652-.017-.646-.033-.8.232-.888.8-.336,2.206-.72,4.4-1.075,6.608a.74.74,0,0,1-.582.683,13.188,13.188,0,0,0-1.884.762,1,1,0,0,1-1.171-.1c-1.791-1.3-3.6-2.576-5.406-3.859-.169-.12-.342-.233-.594-.4l-2.942,3.207c.058.082.2.288.345.492,1.274,1.787,2.538,3.581,3.831,5.354a.964.964,0,0,1,.1,1.118,14.3,14.3,0,0,0-.724,1.838.821.821,0,0,1-.727.637q-2.212.356-4.423.726-1.453.24-2.9.484Zm52.193,40.724a7.563,7.563,0,0,1-5.989-3.255,1.038,1.038,0,0,0-.989-.5q-11.073.018-22.148.009h-.656v14.9h29.782Zm33.607-61.586V87.538a1.871,1.871,0,0,0-.232-.037c-5.054,0-10.107-.007-15.161.013a.723.723,0,0,0-.543.366,45.726,45.726,0,0,0-1.742,4.866c-.492,1.921-.729,3.906-1.094,5.957h3.855v1.864a5.635,5.635,0,0,0,5.6,5.592q3.412,0,6.823,0h.6V109.9h-3.675v6.368c2.227-.643,4.416-1.3,6.621-1.9.519-.142.666-.327.585-.867-.556-3.684-1.076-7.373-1.616-11.06a1.11,1.11,0,0,1,.361-1.089c.757-.7,1.483-1.43,2.2-2.171a4.846,4.846,0,0,0,.861-1.093c.842-1.645-.118-3.322-1.831-3.139-.5.053-1.009.008-1.619.008m-16.757,72.727h24.184V146.1c-.1.165-.146.229-.186.293a32.228,32.228,0,0,1-2.239,3.535,17.685,17.685,0,0,1-14.061,6.6c-2.35.029-4.7,0-7.052,0h-.646ZM163.69,83.741c.223-5.621-4.112-12.764-10.817-14.387A14.964,14.964,0,0,0,135.88,76.3h.652q6.006,0,12.012,0a4.04,4.04,0,0,1,2.514.772,3.9,3.9,0,0,1,1.465,3.221c.03,1.139.007,2.28.007,3.444Zm-52.243,16.819c-2.38,0-4.692-.007-7,.014a.841.841,0,0,0-.557.31c-.445.563-.853,1.156-1.27,1.741q-1.37,1.921-2.733,3.848c-.159.225-.446.516.124.61,2.394.393,4.786.795,7.182,1.171.4.062.566.188.563.62q-.024,4.723,0,9.446c0,.438-.141.619-.575.684-1.4.209-2.8.455-4.195.683-1.118.182-2.237.361-3.459.558.549.78,1.07,1.477,1.543,2.207a1,1,0,0,0,.951.508c2.974-.019,5.948-.009,8.922-.011.167,0,.335-.022.51-.033Zm41.588,5.561c1.958-.513,5.916-4.223,7.818-7.384a19.745,19.745,0,0,0,2.855-11.2h-11.18c0,1.264-.017,2.485.019,3.706a.8.8,0,0,0,.407.527,5.749,5.749,0,0,1,1.672,9.194,21.045,21.045,0,0,1-1.591,1.619,1.065,1.065,0,0,0-.372,1.077c.137.8.246,1.609.372,2.456m-52.8,28.074h-7.39v14.852h7.39Zm-32.9-27.18c-.013-.089-.006-.136-.025-.163-1.3-1.84-2.591-3.684-3.913-5.508a.66.66,0,0,0-.6-.114,11.377,11.377,0,0,0-7.3,11.733A11.534,11.534,0,0,0,65.18,122.9a.628.628,0,0,0,.5-.185c.518-.679,1.007-1.38,1.49-2.084a1.265,1.265,0,0,0,.108-.409c-2.515-.413-4.963-.829-7.417-1.206-.479-.073-.653-.228-.649-.73q.032-4.694,0-9.388c0-.45.145-.6.577-.662,2.508-.39,5.011-.81,7.548-1.226m16.136,12.209a5.571,5.571,0,0,0,5.6-5.452,5.607,5.607,0,1,0-5.6,5.452m35.467,3.715v.716c0,1.729.011,3.458-.008,5.186a.552.552,0,0,0,.489.636q4.453,1.243,8.894,2.528c.4.117.555.01.64-.384a19.848,19.848,0,0,1,2.085-5.345c.126-.23.263-.454.453-.781l-16.256-4.649v2.093Zm29.829-42.865H126.449v3.663h22.318Zm-29.811,61.494h9.312c0-1.862.009-3.684-.019-5.506,0-.139-.249-.349-.419-.4-2.488-.734-4.983-1.449-7.477-2.164-.451-.129-.908-.24-1.4-.369Zm-.047,3.773c-1.284,0-2.525,0-3.765,0a3.684,3.684,0,0,0-3.662,3.31,3.758,3.758,0,0,0,3.162,4.107c1.4.126,2.824.025,4.266.025Zm24.872-21.548,6.866-5.72-.08-.131a66.212,66.212,0,0,0-8.37,2.674l1.584,3.177" transform="translate(-27.534 -34.655)" fill="#161615"/>
    <path id="Trazado_698876" data-name="Trazado 698876" d="M154.4,68.637H142.838v7.441h7.391v3.7H139.068V68.653h-3.719V83.516h-3.725v-18.6h7.41v-3.7h3.742v3.653c.251.012.439.029.627.029,3.479,0,6.958,0,10.436.008a.691.691,0,0,0,.771-.477,5.367,5.367,0,0,1,6.309-3.045,5.545,5.545,0,1,1-6.52,7.261m7.063-1.844a1.822,1.822,0,0,0-1.81-1.925,1.89,1.89,0,1,0-.067,3.779,1.8,1.8,0,0,0,1.878-1.854" transform="translate(-70.051 -32.574)" fill="#161615"/>
    <path id="Trazado_698877" data-name="Trazado 698877" d="M74.182,84.6H62.566a5.585,5.585,0,0,1-3.086,3.226,5.312,5.312,0,0,1-3.585.293,5.694,5.694,0,0,1-4.124-5.91,5.582,5.582,0,0,1,10.806-1.358H77.858V92.021H74.182ZM59.241,82.75a1.821,1.821,0,0,0-1.816-1.92,1.89,1.89,0,1,0-.057,3.779,1.8,1.8,0,0,0,1.873-1.859" transform="translate(-27.546 -41.073)" fill="#161615"/>
    <path id="Trazado_698878" data-name="Trazado 698878" d="M115.093,75h-3.7V56.008a5.8,5.8,0,0,1-3.369-3.368,5.2,5.2,0,0,1,1.245-5.792,5.252,5.252,0,0,1,5.572-1.383,5.2,5.2,0,0,1,3.863,4.3,5.5,5.5,0,0,1-3.139,5.982.7.7,0,0,0-.474.778q.013,8.856.006,17.712Zm.007-24.171a1.879,1.879,0,1,0-1.9,1.83,1.823,1.823,0,0,0,1.9-1.83" transform="translate(-57.279 -24.051)" fill="#161615"/>
    <path id="Trazado_698879" data-name="Trazado 698879" d="M83.753,68.562V61.169h3.684v3.7h7.458v3.7Z" transform="translate(-44.574 -32.555)" fill="#161615"/>
    <rect id="Rectángulo_339625" data-name="Rectángulo 339625" width="3.649" height="3.68" transform="translate(83.976 43.524)" fill="#161615"/>
    <rect id="Rectángulo_339626" data-name="Rectángulo 339626" width="3.665" height="3.654" transform="translate(69.049 21.156)" fill="#161615"/>
    <rect id="Rectángulo_339627" data-name="Rectángulo 339627" width="3.652" height="3.681" transform="translate(39.187 21.133)" fill="#161615"/>
    <path id="Trazado_698880" data-name="Trazado 698880" d="M119.448,190.989v14.884c-4.491.485-7.045,2.915-7.463,7.48H108.3v-18.6H93.359v18.6H85.9v18.628c-.185.019-.332.047-.478.048-4.743,0-9.486-.021-14.229.007a11.057,11.057,0,0,1-11.415-10.915c-.045-11.544-.028-23.089-.028-34.634v-.546a2.44,2.44,0,0,1,.3.23A14.614,14.614,0,0,0,71.4,190.985q23.588.017,47.177,0Zm-29.861,7.5H71v3.661H89.587Zm-18.61,11.114H89.565v-3.66H70.977Zm11.146,3.814H71v3.66H82.123Zm0,7.455H70.991v3.657H82.12Z" transform="translate(-31.8 -98.963)" fill="#25ffff"/>
    <path id="Trazado_698881" data-name="Trazado 698881" d="M203.432,215.69v-7.462h.71c5.383,0,10.766-.012,16.15.007a4.182,4.182,0,0,0,4.12-2.477c1.47-2.974,3-5.921,4.495-8.88.131-.259.239-.53.4-.881-.537-.27-1.06-.547-1.6-.8s-1.185-.771-1.614-.635c-.409.13-.615.944-.88,1.472-1.358,2.7-2.7,5.416-4.07,8.114a.7.7,0,0,1-.506.33c-2.6.021-5.207.014-7.791.014-.044-.051-.091-.08-.09-.109a75.54,75.54,0,0,1,.265-7.963c.58-4.367,2.949-7.819,6.281-10.633a4.722,4.722,0,0,1,.494-.312l3.52,7.033c1.26-1.042,2.446-2.007,3.615-2.992q3.588-3.024,7.154-6.073c.362-.311.474-.145.63.167a20.243,20.243,0,0,1,2.087,6.928,31.393,31.393,0,0,1-.168,9.057,24.576,24.576,0,0,1-5.027,10.952,13.183,13.183,0,0,1-10.646,5.134c-5.616.027-11.233.007-16.849.007Z" transform="translate(-108.268 -97.542)" fill="#7125c8"/>
    <path id="Trazado_698882" data-name="Trazado 698882" d="M75.779,147.632v-4.4q1.451-.242,2.9-.484,2.212-.366,4.423-.726a.819.819,0,0,0,.727-.637,14.419,14.419,0,0,1,.724-1.838.965.965,0,0,0-.1-1.118c-1.293-1.773-2.557-3.567-3.831-5.354-.145-.2-.287-.41-.345-.492l2.942-3.207c.251.171.425.284.594.4,1.8,1.283,3.615,2.557,5.406,3.859a1,1,0,0,0,1.17.1,13.141,13.141,0,0,1,1.885-.763.741.741,0,0,0,.582-.684c.355-2.2.739-4.4,1.075-6.608.086-.564.242-.829.888-.8,1.2.062,2.4.018,3.652.018.284,1.688.561,3.328.835,4.969.131.785.262,1.569.378,2.356a.84.84,0,0,0,.674.757,12.71,12.71,0,0,1,1.886.76.842.842,0,0,0,1-.11c1.823-1.325,3.66-2.629,5.493-3.938.171-.122.354-.229.562-.363.96.967,1.9,1.921,2.849,2.864.292.29.066.485-.088.7-1.264,1.771-2.513,3.552-3.8,5.3a1.255,1.255,0,0,0-.181,1.523,7.112,7.112,0,0,1,.619,1.565.932.932,0,0,0,.886.753c2.262.356,4.52.739,6.779,1.113.131.022.26.053.414.085v4.4l-5.643.935a4.881,4.881,0,0,0-1.968.394c-.469.342-.546,1.177-.9,1.724a1.731,1.731,0,0,0,.282,2.374,17.577,17.577,0,0,1,1.166,1.6H97.865a9.35,9.35,0,1,0-10.886-10.083c-.362,3.857,2.242,9.25,7.813,10.017a6.767,6.767,0,0,1-.963.139c-3.633.01-7.267.006-11.032.006a14.357,14.357,0,0,1,1.085-1.48,2.019,2.019,0,0,0,.322-2.781.8.8,0,0,1-.131-.321c-.145-1.085-.859-1.359-1.844-1.489-2.15-.284-4.286-.685-6.45-1.042" transform="translate(-40.33 -66.464)" fill="#2e0877"/>
    <path id="Trazado_698883" data-name="Trazado 698883" d="M153.47,256.3v11.155H123.688v-14.9h.656q11.074,0,22.148-.008a1.036,1.036,0,0,1,.989.5,7.56,7.56,0,0,0,5.989,3.255m-26.063,7.413h3.654v-3.664h-3.654Zm7.478.007h3.649v-3.679h-3.649Zm7.459-.015H146v-3.66h-3.66Z" transform="translate(-65.827 -134.408)" fill="#0b428a"/>
    <path id="Trazado_698884" data-name="Trazado 698884" d="M237.837,120.427a16.194,16.194,0,0,0,1.62-.008c1.713-.182,2.673,1.494,1.831,3.139a4.838,4.838,0,0,1-.861,1.093c-.714.741-1.441,1.474-2.2,2.171a1.112,1.112,0,0,0-.361,1.089c.539,3.686,1.06,7.376,1.616,11.06.081.539-.065.726-.585.867-2.2.6-4.394,1.254-6.621,1.9v-6.368h3.675v-3.746h-.6q-3.411,0-6.822,0a5.635,5.635,0,0,1-5.6-5.592c0-.6,0-1.2,0-1.864h-3.856c.364-2.051.6-4.037,1.094-5.957a45.827,45.827,0,0,1,1.742-4.865.722.722,0,0,1,.543-.367c5.054-.019,10.107-.015,15.161-.013a1.816,1.816,0,0,1,.231.037Zm-13.067-3.7a1.933,1.933,0,0,0-1.822,1.84,1.985,1.985,0,0,0,1.8,1.821,1.831,1.831,0,1,0,.026-3.661" transform="translate(-116.588 -60.121)" fill="#e5dbee"/>
    <path id="Trazado_698885" data-name="Trazado 698885" d="M223.372,259.824V248.672h.646c2.351,0,4.7.024,7.052-.005a17.685,17.685,0,0,0,14.061-6.6,32.225,32.225,0,0,0,2.239-3.535l.186-.294v21.588Z" transform="translate(-118.88 -126.791)" fill="#7125c8"/>
    <path id="Trazado_698886" data-name="Trazado 698886" d="M259.42,87.989H248.258c0-1.163.024-2.3-.007-3.444a3.9,3.9,0,0,0-1.465-3.221,4.041,4.041,0,0,0-2.514-.772q-6.006-.006-12.012,0h-.651A14.965,14.965,0,0,1,248.6,73.6c6.7,1.624,11.039,8.767,10.817,14.387" transform="translate(-123.264 -38.903)" fill="#7125c8"/>
    <path id="Trazado_698887" data-name="Trazado 698887" d="M165.811,140.882v22.355c-.174.012-.342.033-.51.033-2.974,0-5.948-.007-8.922.011a.994.994,0,0,1-.951-.508c-.473-.729-.993-1.427-1.543-2.207,1.223-.2,2.341-.376,3.46-.558,1.4-.228,2.794-.474,4.195-.683.434-.065.577-.246.575-.684q-.025-4.723,0-9.446c0-.432-.167-.558-.564-.621-2.4-.376-4.788-.777-7.181-1.17-.57-.094-.282-.385-.124-.61q1.358-1.93,2.734-3.848c.418-.585.824-1.178,1.27-1.741a.841.841,0,0,1,.557-.31c2.312-.021,4.625-.014,7.005-.014" transform="translate(-81.899 -74.978)" fill="#5cbdd2"/>
    <g id="Grupo_973563" data-name="Grupo 973563" transform="translate(124.99 52.885)" style="isolation: isolate">
      <g id="Grupo_973562" data-name="Grupo 973562">
        <g id="Grupo_973561" data-name="Grupo 973561" clip-path="url(#clip-path-2)">
          <path id="Trazado_698888" data-name="Trazado 698888" d="M267.7,131.632c-.127-.848-.236-1.655-.372-2.456a1.063,1.063,0,0,1,.372-1.077,21.215,21.215,0,0,0,1.591-1.619,5.749,5.749,0,0,0-1.672-9.194.8.8,0,0,1-.408-.527c-.036-1.22-.019-2.442-.019-3.706h11.18a19.746,19.746,0,0,1-2.855,11.2c-1.9,3.16-5.86,6.871-7.817,7.384" transform="translate(-267.19 -113.052)" fill="#12263f"/>
        </g>
      </g>
    </g>
    <rect id="Rectángulo_339629" data-name="Rectángulo 339629" width="7.39" height="14.852" transform="translate(65.31 99.539)" fill="#0b428a"/>
    <path id="Trazado_698889" data-name="Trazado 698889" d="M71.557,148.068c-2.536.415-5.04.835-7.548,1.226-.431.067-.58.213-.577.662q.029,4.694,0,9.387c0,.5.171.657.65.73,2.454.377,4.9.792,7.417,1.206a1.265,1.265,0,0,1-.108.409c-.483.7-.972,1.405-1.49,2.084a.627.627,0,0,1-.5.185,11.533,11.533,0,0,1-9.675-9.942,11.377,11.377,0,0,1,7.3-11.733.66.66,0,0,1,.6.114c1.322,1.823,2.615,3.668,3.913,5.508.019.028.012.074.025.163" transform="translate(-31.755 -75.71)" fill="#25ffff"/>
    <path id="Trazado_698890" data-name="Trazado 698890" d="M113.194,168.022a5.716,5.716,0,0,1-5.607-5.777,5.607,5.607,0,0,1,11.209.325,5.571,5.571,0,0,1-5.6,5.452" transform="translate(-57.257 -83.454)" fill="#25ffff"/>
    <path id="Trazado_698891" data-name="Trazado 698891" d="M191.182,186.341h-3.7v-2.093l16.256,4.649c-.19.327-.327.551-.453.781a19.829,19.829,0,0,0-2.085,5.345c-.085.393-.236.5-.64.384q-4.441-1.285-8.895-2.528a.552.552,0,0,1-.489-.636c.02-1.729.008-3.457.008-5.186Z" transform="translate(-99.778 -98.058)" fill="#7125c8"/>
    <rect id="Rectángulo_339630" data-name="Rectángulo 339630" width="22.318" height="3.663" transform="translate(98.915 45.418)" fill="#7125c8"/>
    <path id="Trazado_698892" data-name="Trazado 698892" d="M186.869,236.611v7.443c-1.442,0-2.864.1-4.266-.025a3.757,3.757,0,0,1-3.161-4.107,3.683,3.683,0,0,1,3.662-3.311c1.241,0,2.481,0,3.765,0" transform="translate(-95.494 -125.925)" fill="#e5dbee"/>
    <path id="Trazado_698893" data-name="Trazado 698893" d="M246.7,183.89l-1.584-3.177a66.212,66.212,0,0,1,8.37-2.674l.08.131-6.866,5.72" transform="translate(-130.451 -94.753)" fill="#7125c8"/>
    <path id="Trazado_698894" data-name="Trazado 698894" d="M191.134,70.96a1.8,1.8,0,0,1-1.878,1.854,1.89,1.89,0,1,1,1.878-1.854" transform="translate(-99.723 -36.741)" fill="#fce182"/>
    <path id="Trazado_698895" data-name="Trazado 698895" d="M63.478,86.91a1.8,1.8,0,0,1-1.873,1.859,1.89,1.89,0,1,1,1.873-1.859" transform="translate(-31.783 -45.232)" fill="#fce182"/>
    <path id="Trazado_698896" data-name="Trazado 698896" d="M119.328,55.03a1.807,1.807,0,0,1-1.9,1.83,1.889,1.889,0,1,1,1.9-1.83" transform="translate(-61.508 -28.25)" fill="#fce182"/>
    <rect id="Rectángulo_339631" data-name="Rectángulo 339631" width="18.588" height="3.661" transform="translate(39.199 99.53)" fill="#161615"/>
    <rect id="Rectángulo_339632" data-name="Rectángulo 339632" width="18.588" height="3.66" transform="translate(39.177 106.984)" fill="#161615"/>
    <rect id="Rectángulo_339633" data-name="Rectángulo 339633" width="11.124" height="3.66" transform="translate(39.199 114.458)" fill="#161615"/>
    <rect id="Rectángulo_339634" data-name="Rectángulo 339634" width="11.13" height="3.657" transform="translate(39.19 121.913)" fill="#161615"/>
    <rect id="Rectángulo_339635" data-name="Rectángulo 339635" width="3.654" height="3.664" transform="translate(61.579 125.641)" fill="#161615"/>
    <rect id="Rectángulo_339636" data-name="Rectángulo 339636" width="3.649" height="3.679" transform="translate(69.057 125.633)" fill="#161615"/>
    <rect id="Rectángulo_339637" data-name="Rectángulo 339637" width="3.66" height="3.66" transform="translate(76.516 125.638)" fill="#161615"/>
    <path id="Trazado_698897" data-name="Trazado 698897" d="M229.187,121.017a1.831,1.831,0,1,1-.026,3.661,1.985,1.985,0,0,1-1.8-1.821,1.933,1.933,0,0,1,1.822-1.84" transform="translate(-121.005 -64.406)" fill="#161615"/>
  </g>
</svg>
