<svg xmlns="http://www.w3.org/2000/svg" xmlns:xlink="http://www.w3.org/1999/xlink" width="94" height="94" viewBox="0 0 94 94">
  <defs>
    <clipPath id="clip-path">
      <circle id="Elipse_5568" data-name="Elipse 5568" cx="47" cy="47" r="47" transform="translate(855.441 1977)" fill="#0f58b9"/>
    </clipPath>
  </defs>
  <g id="Grupo_971805" data-name="Grupo 971805" transform="translate(-755.441 -1977)">
    <g id="Enmascarar_grupo_45" data-name="Enmascarar grupo 45" transform="translate(-100)" clip-path="url(#clip-path)">
      <circle id="Elipse_5640" data-name="Elipse 5640" cx="49.833" cy="49.833" r="49.833" transform="translate(852.607 1976.992)" fill="#25ffff"/>
      <path id="Trazado_697774" data-name="Trazado 697774" d="M99.8,103.281c0,16.813-20.276,34.6-51.926,34.6S-8.54,118.519-8.54,101.706,16.22,76.99,47.877,76.99,99.8,86.468,99.8,103.281Z" transform="translate(854.818 1956.143)" fill="#2e0877"/>
    </g>
    <g id="costo" transform="translate(772.047 1994.998)">
      <g id="Grupo_971769" data-name="Grupo 971769" transform="translate(31.873 0)">
        <path id="Trazado_663338" data-name="Trazado 663338" d="M267.68,79.671h28.914v43.021c0,4.453-6.473,6.8-14.457,6.8s-14.457-2.344-14.457-6.8Z" transform="translate(-267.68 -71.608)" fill="#f5b945" fill-rule="evenodd"/>
        <g id="Grupo_971768" data-name="Grupo 971768" transform="translate(0 0)">
          <ellipse id="Elipse_5565" data-name="Elipse 5565" cx="14.457" cy="8.063" rx="14.457" ry="8.063" fill="#fdcd56"/>
          <path id="Trazado_663339" data-name="Trazado 663339" d="M306.59,36.484a16.873,16.873,0,0,0-8.5,2.085c-.786.478-2.416,1.685-2.416,2.84s1.63,2.362,2.416,2.84a18.347,18.347,0,0,0,16.991,0c.786-.478,2.416-1.685,2.416-2.841s-1.63-2.362-2.416-2.84A16.874,16.874,0,0,0,306.59,36.484Z" transform="translate(-292.133 -33.89)" fill="#f5b945" fill-rule="evenodd"/>
          <path id="Trazado_663340" data-name="Trazado 663340" d="M359.069,52.983a.884.884,0,1,1,.824-1.565,3.157,3.157,0,0,0,.61.262,2.672,2.672,0,0,0,.735.084,2.719,2.719,0,0,0,.97-.16,2.719,2.719,0,0,0-.97-.16,4.316,4.316,0,0,1-1.88-.4,1.615,1.615,0,0,1,0-3.066,3.757,3.757,0,0,1,.986-.316.884.884,0,0,1,1.74.006c.156.028.313.062.463.1a3.006,3.006,0,0,1,1.126.5.885.885,0,1,1-1.143,1.35,1.737,1.737,0,0,0-.427-.145,3.832,3.832,0,0,0-.866-.131,2.693,2.693,0,0,0-.971.163,2.717,2.717,0,0,0,.971.16,4.316,4.316,0,0,1,1.88.4,1.615,1.615,0,0,1,0,3.066,3.8,3.8,0,0,1-.994.32.884.884,0,0,1-1.719.013,3.815,3.815,0,0,1-.38-.087,4.763,4.763,0,0,1-.956-.4Zm3.36-1.379c.016.021.024.032.024,0S362.444,51.583,362.428,51.6Zm-2.4-2.092c0,.032.008.021.024,0C360.033,49.491,360.024,49.479,360.024,49.512Z" transform="translate(-346.781 -43.019)" fill="#daa33b" fill-rule="evenodd"/>
        </g>
        <path id="Trazado_663341" data-name="Trazado 663341" d="M282.137,173.395c7.984,0,14.457-2.344,14.457-6.8v-5.965c0,4.453-6.473,6.8-14.457,6.8s-14.457-2.344-14.457-6.8V166.6C267.68,171.051,274.153,173.395,282.137,173.395Zm0-23.86c7.984,0,14.457-2.344,14.457-6.8v-5.965c0,4.453-6.473,6.8-14.457,6.8s-14.457-2.344-14.457-6.8v5.965C267.68,147.191,274.153,149.535,282.137,149.535Zm0,11.93c-7.984,0-14.457-2.344-14.457-6.8V148.7c0,4.453,6.473,6.8,14.457,6.8s14.457-2.344,14.457-6.8v5.965C296.594,159.121,290.122,161.465,282.137,161.465Z" transform="translate(-267.68 -121.478)" fill="#daa33b" fill-rule="evenodd"/>
      </g>
      <g id="Grupo_971771" data-name="Grupo 971771" transform="translate(0 5.965)">
        <path id="Trazado_663342" data-name="Trazado 663342" d="M44.914,122.465H16v37.6c0,4.453,6.473,6.8,14.457,6.8s14.457-2.344,14.457-6.8Z" transform="translate(-16 -114.947)" fill="#f5b945" fill-rule="evenodd"/>
        <g id="Grupo_971770" data-name="Grupo 971770" transform="translate(0 0)">
          <ellipse id="Elipse_5566" data-name="Elipse 5566" cx="14.457" cy="8.063" rx="14.457" ry="8.063" fill="#fdcd56"/>
          <path id="Trazado_663343" data-name="Trazado 663343" d="M54.911,83.586a16.874,16.874,0,0,0-8.5,2.085C45.63,86.149,44,87.356,44,88.512s1.63,2.362,2.416,2.84a16.873,16.873,0,0,0,8.5,2.085,16.873,16.873,0,0,0,8.5-2.085c.786-.478,2.416-1.685,2.416-2.84s-1.63-2.362-2.416-2.84A16.874,16.874,0,0,0,54.911,83.586Z" transform="translate(-40.454 -80.992)" fill="#f5b945" fill-rule="evenodd"/>
          <path id="Trazado_663344" data-name="Trazado 663344" d="M107.389,100.085a.884.884,0,1,1,.824-1.565,3.164,3.164,0,0,0,.61.262,2.671,2.671,0,0,0,.735.084,2.719,2.719,0,0,0,.97-.16,2.719,2.719,0,0,0-.97-.16,4.316,4.316,0,0,1-1.88-.4,1.615,1.615,0,0,1,0-3.066,3.759,3.759,0,0,1,.986-.316.884.884,0,0,1,1.74.006c.156.028.313.062.463.1a3.006,3.006,0,0,1,1.126.5.885.885,0,0,1-1.143,1.35,1.736,1.736,0,0,0-.427-.145,3.832,3.832,0,0,0-.866-.131,2.693,2.693,0,0,0-.971.163,2.717,2.717,0,0,0,.971.16,4.315,4.315,0,0,1,1.88.4,1.615,1.615,0,0,1,0,3.066,3.8,3.8,0,0,1-.994.32.884.884,0,0,1-1.719.013,3.814,3.814,0,0,1-.38-.087A4.764,4.764,0,0,1,107.389,100.085Zm3.36-1.379c.016.021.024.032.024,0S110.764,98.685,110.748,98.706Zm-2.4-2.092c0,.032.008.021.024,0C108.353,96.593,108.344,96.581,108.344,96.614Z" transform="translate(-95.101 -90.121)" fill="#daa33b" fill-rule="evenodd"/>
        </g>
        <path id="Trazado_663345" data-name="Trazado 663345" d="M44.914,207.736c0,4.453-6.473,6.8-14.457,6.8S16,212.189,16,207.736V213.7c0,4.453,6.473,6.8,14.457,6.8s14.457-2.344,14.457-6.8Zm0-23.86c0,4.453-6.473,6.8-14.457,6.8S16,188.329,16,183.876v5.965c0,4.453,6.473,6.8,14.457,6.8s14.457-2.344,14.457-6.8Zm0,11.93v5.965c0,4.453-6.473,6.8-14.457,6.8S16,206.224,16,201.771v-5.965c0,4.453,6.473,6.8,14.457,6.8S44.914,200.259,44.914,195.806Z" transform="translate(-16 -168.581)" fill="#daa33b" fill-rule="evenodd"/>
      </g>
      <g id="Grupo_971772" data-name="Grupo 971772" transform="translate(11.839 29.123)">
        <circle id="Elipse_5567" data-name="Elipse 5567" cx="13.116" cy="13.116" r="13.116" transform="translate(0 18.546) rotate(-45)" fill="#38a8d2"/>
        <path id="Trazado_663346" data-name="Trazado 663346" d="M215.935,324.79l-1.774,5.279a.127.127,0,0,0,.121.167c1.954-.009,3.414-.161,5.353-.174a.127.127,0,0,1,.1.2l-8.585,10.968a.127.127,0,0,1-.22-.117l2.233-6.894a.127.127,0,0,0-.121-.166h-5.318a.127.127,0,0,1-.122-.16l2.534-9.182a.125.125,0,0,1,.122-.093h5.556a.127.127,0,0,1,.12.167Z" transform="translate(-195.173 -314.662)" fill="#fdcd56" fill-rule="evenodd"/>
      </g>
    </g>
  </g>
</svg>
