<svg xmlns="http://www.w3.org/2000/svg" xmlns:xlink="http://www.w3.org/1999/xlink" width="100.091" height="100.091" viewBox="0 0 100.091 100.091">
  <defs>
    <clipPath id="clip-path">
      <path id="path1581" d="M0-682.665H81.221v81.221H0Z" transform="translate(0 682.665)"/>
    </clipPath>
  </defs>
  <g id="Grupo_973376" data-name="Grupo 973376" transform="translate(591.969 3777)">
    <circle id="Elipse_5653" data-name="Elipse 5653" cx="50.046" cy="50.046" r="50.046" transform="translate(-591.969 -3777)" fill="#0f58b9"/>
    <g id="g1575" transform="translate(-582.534 -3766.334)">
      <g id="g1577" transform="translate(0 0)">
        <g id="g1579" clip-path="url(#clip-path)">
          <g id="g1585" transform="translate(40.61 1.585)">
            <path id="path1587" d="M-180.232-254.8a19.19,19.19,0,0,0,7.437-15.187,19.223,19.223,0,0,0-19.223-19.223h-12.554Z" transform="translate(204.572 289.214)" fill="#ffcb7c"/>
          </g>
          <g id="g1589" transform="translate(16.815 15.046)">
            <path id="path1591" d="M-390.266-206.3l-6.377-9.644v-2.427a33.343,33.343,0,0,0-3.975-15.789,17.524,17.524,0,0,1-.83,11.867,30.813,30.813,0,0,1-6.45,9.424,30.787,30.787,0,0,1-10.873,7.043,15.331,15.331,0,0,0-9.877,15.294.2.2,0,1,1,0,.025,9.919,9.919,0,0,1-10.125,10.641l-4.2,10.3H-414.4l3.99-10.3h9.029a5.435,5.435,0,0,0,5.435-5.435v-4.519l-5.988-2.27,5.971-2.7h.017v-5.71l5.25-3.6a1.593,1.593,0,0,0,.427-2.192" transform="translate(442.968 234.159)" fill="#ffd4be"/>
          </g>
          <g id="g1593" transform="translate(72.606 55.311)">
            <path id="path1595" d="M-52.051-23.494h-5.443A1.586,1.586,0,0,1-59.08-25.08a1.586,1.586,0,0,1,1.586-1.586h5.443a1.586,1.586,0,0,1,1.586,1.586,1.586,1.586,0,0,1-1.586,1.586" transform="translate(59.08 26.667)"/>
          </g>
          <g id="g1597" transform="translate(70.8 46.774)">
            <path id="path1599" d="M-11.752-34.87a1.587,1.587,0,0,1-1.486-1.03,1.586,1.586,0,0,1,.929-2.042l4.1-1.535a1.586,1.586,0,0,1,2.042.929A1.586,1.586,0,0,1-7.1-36.507l-4.1,1.535a1.584,1.584,0,0,1-.556.1" transform="translate(13.34 39.579)"/>
          </g>
          <g id="g1601" transform="translate(70.8 62.312)">
            <path id="path1603" d="M-42.095-34.871a1.584,1.584,0,0,1-.556-.1l-4.1-1.535a1.586,1.586,0,0,1-.929-2.042,1.586,1.586,0,0,1,2.042-.929l4.1,1.535a1.586,1.586,0,0,1,.929,2.042,1.587,1.587,0,0,1-1.486,1.03" transform="translate(47.779 39.58)"/>
          </g>
          <g id="g1605" transform="translate(1.586 1.588)">
            <path id="path1607" d="M-321.353-4.313a37.056,37.056,0,0,0-6.56-.583A36.908,36.908,0,0,0-364.75,31.968a36.77,36.77,0,0,0,13.929,28.821c6.607,5.253,16.226-.163,15.623-8.575,0,.008,0,.007,0-.025A15.332,15.332,0,0,1-325.322,36.9a30.783,30.783,0,0,0,10.872-7.043A30.807,30.807,0,0,0-308,20.429,17.929,17.929,0,0,0-321.353-4.313" transform="translate(364.75 4.896)" fill="#ffcb7c"/>
          </g>
          <g id="g1609" transform="translate(0 -0.001)">
            <path id="path1611" d="M-483.411-248.983l-.554-.837v-1.95a35.049,35.049,0,0,0-4.079-16.376,19.652,19.652,0,0,0-1.528-3.753,19.585,19.585,0,0,0-7.087-7.534h1.131A17.656,17.656,0,0,1-477.891-261.8a17.514,17.514,0,0,1-5.519,12.814m1.772,2.68a20.667,20.667,0,0,0,6.92-15.494,20.833,20.833,0,0,0-20.809-20.809H-510.27l0,0a38.159,38.159,0,0,0-21.4,6.54,1.586,1.586,0,0,0-.429,2.2,1.586,1.586,0,0,0,2.2.429,35,35,0,0,1,19.631-6,35.578,35.578,0,0,1,6.279.558,16.378,16.378,0,0,1,11.618,8.466,16.051,16.051,0,0,1,.563,14.078,29.164,29.164,0,0,1-6.119,8.939,29.081,29.081,0,0,1-10.313,6.681,16.84,16.84,0,0,0-8.226,6.647,16.748,16.748,0,0,0-2.672,10.231h0l0,.037a8.262,8.262,0,0,1-4.45,8,7.7,7.7,0,0,1-8.6-.775,35.1,35.1,0,0,1-13.33-27.581,35,35,0,0,1,6-19.657,1.586,1.586,0,0,0-.429-2.2,1.586,1.586,0,0,0-2.2.429,38.161,38.161,0,0,0-6.541,21.433,38.25,38.25,0,0,0,14.528,30.062,11.072,11.072,0,0,0,4.252,2.1l-3.434,8.423a1.586,1.586,0,0,0,.87,2.068,1.581,1.581,0,0,0,.6.118,1.587,1.587,0,0,0,1.47-.988l3.8-9.332a11.26,11.26,0,0,0,4.5-1.29,11.4,11.4,0,0,0,6.135-11.017c0-.008,0-.016,0-.024a13.669,13.669,0,0,1,8.856-13.71,32.23,32.23,0,0,0,11.432-7.4,32.327,32.327,0,0,0,6.781-9.909,19.4,19.4,0,0,0,1.087-3.217,31.733,31.733,0,0,1,.679,6.5v2.427a1.588,1.588,0,0,0,.263.875l6.375,9.653-5.25,3.6a1.586,1.586,0,0,0-.688,1.308v4.679l-5.056,2.288a1.586,1.586,0,0,0-.932,1.495,1.586,1.586,0,0,0,1.023,1.434l4.964,1.882v3.424a3.853,3.853,0,0,1-3.849,3.849H-505.6a1.586,1.586,0,0,0-1.586,1.586,1.586,1.586,0,0,0,1.586,1.586h3.965l-3.153,8.138a1.586,1.586,0,0,0,.906,2.052,1.583,1.583,0,0,0,.573.108,1.587,1.587,0,0,0,1.48-1.014l3.6-9.285h7.942a7.03,7.03,0,0,0,7.022-7.022v-4.52a1.585,1.585,0,0,0-1.024-1.482h0l-2.416-.916,2.383-1.078a1.585,1.585,0,0,0,1.058-1.494v-4.875l4.561-3.132a3.2,3.2,0,0,0,.853-4.375Z" transform="translate(548.692 282.606)"/>
          </g>
          <g id="g1613" transform="translate(10.809 10.811)">
            <path id="path1615" d="M-11.747-23.494a1.594,1.594,0,0,1-1.122-.465,1.6,1.6,0,0,1-.465-1.122,1.6,1.6,0,0,1,.465-1.122,1.6,1.6,0,0,1,1.122-.465,1.6,1.6,0,0,1,1.122.465,1.592,1.592,0,0,1,.465,1.122,1.589,1.589,0,0,1-.465,1.122,1.592,1.592,0,0,1-1.122.465" transform="translate(13.333 26.667)"/>
          </g>
        </g>
      </g>
    </g>
  </g>
</svg>
