<svg id="Grupo_973794" data-name="Grupo 973794" xmlns="http://www.w3.org/2000/svg" xmlns:xlink="http://www.w3.org/1999/xlink" width="440" height="340.571" viewBox="0 0 440 340.571">
  <defs>
    <clipPath id="clip-path">
      <rect id="Rectángulo_339785" data-name="Rectángulo 339785" width="440" height="340.571" fill="none"/>
    </clipPath>
    <clipPath id="clip-path-2">
      <path id="Trazado_699205" data-name="Trazado 699205" d="M0,0H440V340.571H0Z" fill="none"/>
    </clipPath>
  </defs>
  <path id="Trazado_699187" data-name="Trazado 699187" d="M6.176-2.418H2.3L1.435,0H.178L3.707-9.242H4.773L8.309,0H7.059Zm-3.5-1H5.814L4.24-7.738Zm13.544.482A3.4,3.4,0,0,1,15.134-.67a3.547,3.547,0,0,1-2.422.8,3.257,3.257,0,0,1-2.625-1.174A4.724,4.724,0,0,1,9.1-4.189v-.889a5.266,5.266,0,0,1,.46-2.266,3.438,3.438,0,0,1,1.3-1.5,3.632,3.632,0,0,1,1.955-.524,3.34,3.34,0,0,1,2.361.822,3.441,3.441,0,0,1,1.035,2.276H14.992a2.655,2.655,0,0,0-.689-1.6,2.084,2.084,0,0,0-1.482-.5,2.181,2.181,0,0,0-1.831.864,3.966,3.966,0,0,0-.663,2.459v.9a4.077,4.077,0,0,0,.628,2.4,2.031,2.031,0,0,0,1.758.889,2.345,2.345,0,0,0,1.558-.46,2.554,2.554,0,0,0,.72-1.6ZM19.1-3.618V0H17.88V-9.242h3.409a3.425,3.425,0,0,1,2.377.774,2.625,2.625,0,0,1,.86,2.05,2.591,2.591,0,0,1-.841,2.073,3.578,3.578,0,0,1-2.409.727Zm0-1h2.19a2.19,2.19,0,0,0,1.5-.461,1.686,1.686,0,0,0,.521-1.332,1.742,1.742,0,0,0-.521-1.323,2.051,2.051,0,0,0-1.428-.515H19.1Zm8.557-4.627L30.677-1.7,33.7-9.242h1.581V0H34.06V-3.6l.114-3.885L31.14,0h-.933L27.179-7.465,27.3-3.6V0H26.081V-9.242Z" transform="translate(20.425 315.554)"/>
  <g id="Grupo_973787" data-name="Grupo 973787">
    <g id="Grupo_973786" data-name="Grupo 973786" clip-path="url(#clip-path)">
      <text id="_37_" data-name="37 %" transform="translate(27.512 333.531)" font-size="13" font-family="Roboto-Regular, Roboto"><tspan x="0" y="0">37 %</tspan></text>
    </g>
  </g>
  <path id="Trazado_699188" data-name="Trazado 699188" d="M7.9-1.212A2.815,2.815,0,0,1,6.586-.206,5.3,5.3,0,0,1,4.627.127,3.8,3.8,0,0,1,2.622-.4,3.531,3.531,0,0,1,1.266-1.911,5.207,5.207,0,0,1,.774-4.177v-.806A4.861,4.861,0,0,1,1.749-8.22,3.4,3.4,0,0,1,4.488-9.369a3.507,3.507,0,0,1,2.33.74A3.222,3.222,0,0,1,7.9-6.532H6.678A2.015,2.015,0,0,0,4.494-8.373a2.157,2.157,0,0,0-1.857.861A4.2,4.2,0,0,0,2-5.018v.756A3.939,3.939,0,0,0,2.71-1.788,2.3,2.3,0,0,0,4.634-.87a4.248,4.248,0,0,0,1.2-.152,1.855,1.855,0,0,0,.851-.513V-3.605H4.545v-1H7.9ZM13.984,0a2.467,2.467,0,0,1-.165-.724,2.62,2.62,0,0,1-1.955.851A2.424,2.424,0,0,1,10.2-.448,1.859,1.859,0,0,1,9.547-1.9a1.942,1.942,0,0,1,.816-1.666,3.846,3.846,0,0,1,2.295-.594H13.8V-4.7a1.319,1.319,0,0,0-.368-.981,1.48,1.48,0,0,0-1.085-.365,1.712,1.712,0,0,0-1.054.317.935.935,0,0,0-.425.768H9.687a1.621,1.621,0,0,1,.365-.993,2.491,2.491,0,0,1,.99-.759A3.331,3.331,0,0,1,12.416-7a2.715,2.715,0,0,1,1.86.594,2.141,2.141,0,0,1,.7,1.635v3.161a3.865,3.865,0,0,0,.241,1.5V0ZM12.035-.9a2.064,2.064,0,0,0,1.047-.286,1.728,1.728,0,0,0,.717-.743V-3.333h-.92q-2.158,0-2.158,1.263a1.069,1.069,0,0,0,.368.863A1.415,1.415,0,0,0,12.035-.9Zm8.779-.927a.864.864,0,0,0-.359-.74,3.452,3.452,0,0,0-1.25-.454,5.912,5.912,0,0,1-1.416-.457,2.014,2.014,0,0,1-.774-.635,1.518,1.518,0,0,1-.251-.876,1.782,1.782,0,0,1,.714-1.428A2.789,2.789,0,0,1,19.3-7a2.87,2.87,0,0,1,1.895.6,1.915,1.915,0,0,1,.727,1.542H20.744a1.06,1.06,0,0,0-.409-.832A1.534,1.534,0,0,0,19.3-6.03a1.606,1.606,0,0,0-1,.279.879.879,0,0,0-.362.73.712.712,0,0,0,.336.641,4.139,4.139,0,0,0,1.216.413,6.334,6.334,0,0,1,1.425.47,2.079,2.079,0,0,1,.809.657,1.615,1.615,0,0,1,.263.936,1.758,1.758,0,0,1-.736,1.476,3.089,3.089,0,0,1-1.911.555,3.459,3.459,0,0,1-1.46-.292,2.375,2.375,0,0,1-.993-.816,1.966,1.966,0,0,1-.359-1.133H17.7a1.216,1.216,0,0,0,.473.936,1.835,1.835,0,0,0,1.165.346,1.894,1.894,0,0,0,1.07-.27A.829.829,0,0,0,20.814-1.822ZM23.207-3.5a4.057,4.057,0,0,1,.4-1.815,2.96,2.96,0,0,1,1.1-1.244A3.007,3.007,0,0,1,26.324-7a2.9,2.9,0,0,1,2.269.971,3.736,3.736,0,0,1,.866,2.583v.083a4.092,4.092,0,0,1-.384,1.8,2.916,2.916,0,0,1-1.1,1.241,3.041,3.041,0,0,1-1.641.444,2.889,2.889,0,0,1-2.263-.971,3.718,3.718,0,0,1-.866-2.571Zm1.181.14a2.938,2.938,0,0,0,.53,1.834,1.7,1.7,0,0,0,1.419.692,1.686,1.686,0,0,0,1.422-.7A3.213,3.213,0,0,0,28.285-3.5a2.933,2.933,0,0,0-.536-1.831,1.705,1.705,0,0,0-1.425-.7,1.686,1.686,0,0,0-1.4.692A3.189,3.189,0,0,0,24.388-3.358ZM32.208,0H31.034V-9.75h1.174Zm3.155,0H34.188V-6.868h1.174Zm-1.27-8.69a.7.7,0,0,1,.175-.482.655.655,0,0,1,.517-.2.666.666,0,0,1,.521.2.694.694,0,0,1,.178.482.671.671,0,0,1-.178.476.678.678,0,0,1-.521.19.667.667,0,0,1-.517-.19A.678.678,0,0,1,34.093-8.69Zm4.259,1.822L38.391-6A2.5,2.5,0,0,1,40.447-7q2.177,0,2.2,2.457V0H41.469V-4.545a1.581,1.581,0,0,0-.34-1.1A1.361,1.361,0,0,0,40.092-6a1.7,1.7,0,0,0-1,.3,2.069,2.069,0,0,0-.673.8V0H37.242V-6.868ZM48.655,0a2.467,2.467,0,0,1-.165-.724,2.62,2.62,0,0,1-1.955.851,2.424,2.424,0,0,1-1.666-.574A1.859,1.859,0,0,1,44.218-1.9a1.942,1.942,0,0,1,.816-1.666,3.846,3.846,0,0,1,2.295-.594h1.143V-4.7a1.319,1.319,0,0,0-.368-.981,1.48,1.48,0,0,0-1.085-.365,1.712,1.712,0,0,0-1.054.317.935.935,0,0,0-.425.768H44.357a1.621,1.621,0,0,1,.365-.993,2.491,2.491,0,0,1,.99-.759A3.331,3.331,0,0,1,47.087-7a2.715,2.715,0,0,1,1.86.594,2.141,2.141,0,0,1,.7,1.635v3.161a3.865,3.865,0,0,0,.241,1.5V0ZM46.706-.9a2.064,2.064,0,0,0,1.047-.286,1.728,1.728,0,0,0,.717-.743V-3.333h-.92q-2.158,0-2.158,1.263a1.069,1.069,0,0,0,.368.863A1.415,1.415,0,0,0,46.706-.9Zm8.779-.927a.865.865,0,0,0-.359-.74,3.452,3.452,0,0,0-1.25-.454,5.912,5.912,0,0,1-1.416-.457,2.014,2.014,0,0,1-.774-.635,1.518,1.518,0,0,1-.251-.876,1.782,1.782,0,0,1,.714-1.428A2.789,2.789,0,0,1,53.974-7a2.87,2.87,0,0,1,1.895.6A1.915,1.915,0,0,1,56.6-4.85H55.415a1.06,1.06,0,0,0-.409-.832,1.534,1.534,0,0,0-1.031-.349,1.605,1.605,0,0,0-1,.279.879.879,0,0,0-.362.73.712.712,0,0,0,.336.641,4.139,4.139,0,0,0,1.216.413,6.334,6.334,0,0,1,1.425.47,2.079,2.079,0,0,1,.809.657,1.615,1.615,0,0,1,.263.936,1.758,1.758,0,0,1-.736,1.476,3.089,3.089,0,0,1-1.911.555,3.459,3.459,0,0,1-1.46-.292,2.375,2.375,0,0,1-.993-.816A1.966,1.966,0,0,1,51.2-2.114h1.174a1.216,1.216,0,0,0,.473.936,1.835,1.835,0,0,0,1.165.346,1.894,1.894,0,0,0,1.07-.27A.829.829,0,0,0,55.485-1.822Z" transform="translate(15.052 33.415)"/>
  <path id="Trazado_699189" data-name="Trazado 699189" d="M5.726-3.1H7.008v.958H5.726V0H4.545V-2.146H.336v-.692l4.139-6.4h1.25Zm-4.056,0H4.545V-7.636l-.14.254Zm12.194-.838a5.371,5.371,0,0,1-.7,3.066,2.506,2.506,0,0,1-2.2,1,2.524,2.524,0,0,1-2.19-.981A5.1,5.1,0,0,1,8.03-3.783V-5.351a5.251,5.251,0,0,1,.7-3.028,2.525,2.525,0,0,1,2.209-.99,2.548,2.548,0,0,1,2.2.955,5.068,5.068,0,0,1,.724,2.948ZM12.689-5.548a4.3,4.3,0,0,0-.419-2.174A1.442,1.442,0,0,0,10.943-8.4a1.423,1.423,0,0,0-1.314.679A4.2,4.2,0,0,0,9.2-5.637v1.879a4.372,4.372,0,0,0,.435,2.212,1.439,1.439,0,0,0,1.317.714A1.42,1.42,0,0,0,12.248-1.5a4.214,4.214,0,0,0,.441-2.12Zm5.8-1.917a1.875,1.875,0,0,1,.53-1.371,1.826,1.826,0,0,1,1.362-.54,1.815,1.815,0,0,1,1.368.543,1.94,1.94,0,0,1,.524,1.406v.451a1.851,1.851,0,0,1-.53,1.368,1.827,1.827,0,0,1-1.349.53,1.867,1.867,0,0,1-1.365-.53,1.89,1.89,0,0,1-.54-1.412Zm.876.486a1.2,1.2,0,0,0,.279.818.942.942,0,0,0,.749.321.924.924,0,0,0,.727-.312A1.24,1.24,0,0,0,21.392-7v-.464a1.231,1.231,0,0,0-.273-.821.919.919,0,0,0-.743-.324.919.919,0,0,0-.743.324,1.27,1.27,0,0,0-.273.846Zm3.625,4.713a1.865,1.865,0,0,1,.53-1.368,1.832,1.832,0,0,1,1.362-.536,1.848,1.848,0,0,1,1.365.533,1.913,1.913,0,0,1,.533,1.416v.451A1.865,1.865,0,0,1,26.244-.4a1.824,1.824,0,0,1-1.355.536A1.867,1.867,0,0,1,23.524-.4a1.89,1.89,0,0,1-.54-1.412Zm.876.493a1.21,1.21,0,0,0,.279.824.942.942,0,0,0,.749.321.917.917,0,0,0,.73-.315,1.262,1.262,0,0,0,.273-.856V-2.27a1.207,1.207,0,0,0-.276-.821.93.93,0,0,0-.74-.318.939.939,0,0,0-.733.315,1.225,1.225,0,0,0-.282.849ZM20.655-.7l-.667-.419L24.5-8.341l.667.419Z" transform="translate(34.168 51.392)"/>
  <path id="Trazado_699190" data-name="Trazado 699190" d="M6.3-4.272H2.292V-1H6.944V0H1.073V-9.242H6.881v1H2.292v2.977H6.3ZM9.553,0H8.379V-9.75H9.553Zm4.729.127A3,3,0,0,1,12.01-.79a3.4,3.4,0,0,1-.876-2.453v-.216a4.121,4.121,0,0,1,.39-1.825,3.045,3.045,0,0,1,1.092-1.257A2.745,2.745,0,0,1,14.136-7a2.572,2.572,0,0,1,2.082.882,3.82,3.82,0,0,1,.743,2.526V-3.1H12.308A2.441,2.441,0,0,0,12.9-1.457a1.866,1.866,0,0,0,1.444.625A2.045,2.045,0,0,0,15.4-1.085a2.648,2.648,0,0,0,.755-.673l.717.559A2.884,2.884,0,0,1,14.282.127ZM14.136-6.03a1.566,1.566,0,0,0-1.193.517,2.515,2.515,0,0,0-.6,1.45h3.44v-.089A2.237,2.237,0,0,0,15.3-5.538,1.475,1.475,0,0,0,14.136-6.03Zm6.938,5.2a1.692,1.692,0,0,0,1.1-.381,1.34,1.34,0,0,0,.521-.952H23.8A2.13,2.13,0,0,1,23.4-1.041a2.676,2.676,0,0,1-1,.851,2.885,2.885,0,0,1-1.323.317,2.829,2.829,0,0,1-2.231-.936,3.729,3.729,0,0,1-.828-2.561v-.2a4.135,4.135,0,0,1,.368-1.784A2.8,2.8,0,0,1,19.44-6.563,3,3,0,0,1,21.068-7a2.755,2.755,0,0,1,1.92.692,2.473,2.473,0,0,1,.816,1.8H22.693a1.618,1.618,0,0,0-.5-1.095,1.57,1.57,0,0,0-1.12-.428,1.644,1.644,0,0,0-1.387.644,3.026,3.026,0,0,0-.492,1.863V-3.3a2.965,2.965,0,0,0,.489,1.828A1.651,1.651,0,0,0,21.074-.832Zm5.643-7.7v1.663H28v.908H26.717V-1.7a.953.953,0,0,0,.171.62.721.721,0,0,0,.584.207,2.843,2.843,0,0,0,.559-.076V0a3.424,3.424,0,0,1-.9.126,1.462,1.462,0,0,1-1.187-.476,2.045,2.045,0,0,1-.4-1.352V-5.96h-1.25v-.908h1.25V-8.531ZM32.69-5.814a3.519,3.519,0,0,0-.578-.044,1.547,1.547,0,0,0-1.568.984V0H29.371V-6.868h1.143l.019.793A1.829,1.829,0,0,1,32.17-7a1.2,1.2,0,0,1,.521.089ZM35.045,0H33.871V-6.868h1.174Zm-1.27-8.69a.7.7,0,0,1,.175-.482.655.655,0,0,1,.517-.2.666.666,0,0,1,.521.2.694.694,0,0,1,.178.482.671.671,0,0,1-.178.476.678.678,0,0,1-.521.19.667.667,0,0,1-.517-.19A.678.678,0,0,1,33.776-8.69Zm5.9,7.858a1.692,1.692,0,0,0,1.1-.381,1.34,1.34,0,0,0,.521-.952h1.111A2.13,2.13,0,0,1,42-1.041,2.676,2.676,0,0,1,41-.19a2.885,2.885,0,0,1-1.323.317,2.829,2.829,0,0,1-2.231-.936,3.729,3.729,0,0,1-.828-2.561v-.2a4.135,4.135,0,0,1,.368-1.784,2.8,2.8,0,0,1,1.057-1.212A3,3,0,0,1,39.673-7a2.755,2.755,0,0,1,1.92.692,2.473,2.473,0,0,1,.816,1.8H41.3a1.618,1.618,0,0,0-.5-1.095,1.57,1.57,0,0,0-1.12-.428,1.644,1.644,0,0,0-1.387.644,3.026,3.026,0,0,0-.492,1.863V-3.3a2.965,2.965,0,0,0,.489,1.828A1.651,1.651,0,0,0,39.679-.832ZM45,0H43.831V-6.868H45Zm-1.27-8.69a.7.7,0,0,1,.175-.482.655.655,0,0,1,.517-.2.666.666,0,0,1,.521.2.694.694,0,0,1,.178.482.671.671,0,0,1-.178.476.678.678,0,0,1-.521.19.667.667,0,0,1-.517-.19A.678.678,0,0,1,43.735-8.69Zm2.863,5.2a4.023,4.023,0,0,1,.749-2.542A2.369,2.369,0,0,1,49.309-7a2.382,2.382,0,0,1,1.911.825V-9.75h1.174V0H51.314l-.057-.736A2.391,2.391,0,0,1,49.3.127,2.346,2.346,0,0,1,47.35-.851,4.069,4.069,0,0,1,46.6-3.4Zm1.174.133a3.046,3.046,0,0,0,.482,1.828,1.56,1.56,0,0,0,1.333.66,1.713,1.713,0,0,0,1.631-1V-5.027A1.726,1.726,0,0,0,49.6-6a1.567,1.567,0,0,0-1.346.667A3.354,3.354,0,0,0,47.772-3.358ZM58.456,0a2.467,2.467,0,0,1-.165-.724,2.62,2.62,0,0,1-1.955.851,2.424,2.424,0,0,1-1.666-.574A1.859,1.859,0,0,1,54.019-1.9a1.942,1.942,0,0,1,.816-1.666,3.846,3.846,0,0,1,2.295-.594h1.143V-4.7a1.319,1.319,0,0,0-.368-.981,1.48,1.48,0,0,0-1.085-.365,1.712,1.712,0,0,0-1.054.317.935.935,0,0,0-.425.768H54.158a1.621,1.621,0,0,1,.365-.993,2.491,2.491,0,0,1,.99-.759A3.331,3.331,0,0,1,56.888-7a2.715,2.715,0,0,1,1.86.594,2.141,2.141,0,0,1,.7,1.635v3.161a3.865,3.865,0,0,0,.241,1.5V0ZM56.507-.9a2.064,2.064,0,0,0,1.047-.286,1.728,1.728,0,0,0,.717-.743V-3.333h-.92q-2.158,0-2.158,1.263a1.069,1.069,0,0,0,.368.863A1.415,1.415,0,0,0,56.507-.9ZM61-3.491a4.023,4.023,0,0,1,.749-2.542A2.369,2.369,0,0,1,63.711-7a2.382,2.382,0,0,1,1.911.825V-9.75H66.8V0H65.717L65.66-.736A2.391,2.391,0,0,1,63.7.127a2.346,2.346,0,0,1-1.946-.978A4.069,4.069,0,0,1,61-3.4Zm1.174.133a3.046,3.046,0,0,0,.482,1.828,1.56,1.56,0,0,0,1.333.66,1.713,1.713,0,0,0,1.631-1V-5.027A1.726,1.726,0,0,0,64-6a1.567,1.567,0,0,0-1.346.667A3.354,3.354,0,0,0,62.175-3.358Z" transform="translate(303.103 299.744)"/>
  <path id="Trazado_699191" data-name="Trazado 699191" d="M6.563-3.942a5.371,5.371,0,0,1-.7,3.066,2.506,2.506,0,0,1-2.2,1,2.524,2.524,0,0,1-2.19-.981A5.1,5.1,0,0,1,.73-3.783V-5.351a5.251,5.251,0,0,1,.7-3.028,2.525,2.525,0,0,1,2.209-.99,2.548,2.548,0,0,1,2.2.955,5.068,5.068,0,0,1,.724,2.948ZM5.389-5.548A4.3,4.3,0,0,0,4.97-7.722,1.442,1.442,0,0,0,3.644-8.4a1.423,1.423,0,0,0-1.314.679A4.2,4.2,0,0,0,1.9-5.637v1.879a4.372,4.372,0,0,0,.435,2.212,1.439,1.439,0,0,0,1.317.714A1.42,1.42,0,0,0,4.948-1.5a4.214,4.214,0,0,0,.441-2.12ZM8.214-.616a.735.735,0,0,1,.181-.508.689.689,0,0,1,.543-.2.71.71,0,0,1,.549.2.721.721,0,0,1,.187.508.681.681,0,0,1-.187.489.723.723,0,0,1-.549.2.7.7,0,0,1-.543-.2A.7.7,0,0,1,8.214-.616Zm9.071-3.326a5.371,5.371,0,0,1-.7,3.066,2.506,2.506,0,0,1-2.2,1,2.524,2.524,0,0,1-2.19-.981,5.1,5.1,0,0,1-.736-2.929V-5.351a5.251,5.251,0,0,1,.7-3.028,2.525,2.525,0,0,1,2.209-.99,2.548,2.548,0,0,1,2.2.955,5.068,5.068,0,0,1,.724,2.948ZM16.11-5.548a4.3,4.3,0,0,0-.419-2.174A1.442,1.442,0,0,0,14.365-8.4a1.423,1.423,0,0,0-1.314.679,4.2,4.2,0,0,0-.425,2.088v1.879a4.372,4.372,0,0,0,.435,2.212,1.439,1.439,0,0,0,1.317.714A1.42,1.42,0,0,0,15.669-1.5a4.214,4.214,0,0,0,.441-2.12Zm7.287-3.7v1h-.216A3.092,3.092,0,0,0,21-7.439a3.381,3.381,0,0,0-.939,2.215,2.507,2.507,0,0,1,1.993-.838,2.4,2.4,0,0,1,1.927.851,3.281,3.281,0,0,1,.72,2.2A3.27,3.27,0,0,1,23.921-.73a2.678,2.678,0,0,1-2.085.857A2.638,2.638,0,0,1,19.684-.892a4.038,4.038,0,0,1-.825-2.625v-.451a6.084,6.084,0,0,1,1.089-3.9,4,4,0,0,1,3.24-1.381ZM21.855-5.084a1.874,1.874,0,0,0-1.111.362,1.885,1.885,0,0,0-.7.908v.432a3.032,3.032,0,0,0,.514,1.841,1.541,1.541,0,0,0,1.282.7,1.493,1.493,0,0,0,1.247-.584,2.423,2.423,0,0,0,.454-1.53,2.424,2.424,0,0,0-.46-1.539A1.475,1.475,0,0,0,21.855-5.084Zm7.351-2.38a1.875,1.875,0,0,1,.53-1.371,1.826,1.826,0,0,1,1.362-.54,1.815,1.815,0,0,1,1.368.543,1.94,1.94,0,0,1,.524,1.406v.451a1.851,1.851,0,0,1-.53,1.368,1.827,1.827,0,0,1-1.349.53,1.867,1.867,0,0,1-1.365-.53,1.89,1.89,0,0,1-.54-1.412Zm.876.486a1.2,1.2,0,0,0,.279.818.942.942,0,0,0,.749.321.924.924,0,0,0,.727-.312A1.24,1.24,0,0,0,32.113-7v-.464a1.231,1.231,0,0,0-.273-.821.919.919,0,0,0-.743-.324.919.919,0,0,0-.743.324,1.27,1.27,0,0,0-.273.846Zm3.625,4.713a1.865,1.865,0,0,1,.53-1.368A1.832,1.832,0,0,1,35.6-4.17a1.848,1.848,0,0,1,1.365.533A1.913,1.913,0,0,1,37.5-2.222v.451A1.865,1.865,0,0,1,36.966-.4,1.824,1.824,0,0,1,35.61.133,1.867,1.867,0,0,1,34.246-.4a1.89,1.89,0,0,1-.54-1.412Zm.876.493a1.21,1.21,0,0,0,.279.824.942.942,0,0,0,.749.321.917.917,0,0,0,.73-.315,1.262,1.262,0,0,0,.273-.856V-2.27a1.207,1.207,0,0,0-.276-.821.93.93,0,0,0-.74-.318.939.939,0,0,0-.733.315,1.225,1.225,0,0,0-.282.849ZM31.376-.7l-.667-.419,4.513-7.224.667.419Z" transform="translate(322.055 317.721)"/>
  <path id="Trazado_699192" data-name="Trazado 699192" d="M6.17-4.082H2.292V0H1.073V-9.242H6.8v1H2.292v3.167H6.17Zm5.875,3.4a2.494,2.494,0,0,1-2.012.806A2.135,2.135,0,0,1,8.36-.511,2.761,2.761,0,0,1,7.779-2.4V-6.868H8.953v4.437q0,1.562,1.27,1.562a1.758,1.758,0,0,0,1.79-1v-5h1.174V0H12.07Zm5.776.806A3,3,0,0,1,15.549-.79a3.4,3.4,0,0,1-.876-2.453v-.216a4.121,4.121,0,0,1,.39-1.825,3.045,3.045,0,0,1,1.092-1.257A2.745,2.745,0,0,1,17.675-7a2.572,2.572,0,0,1,2.082.882A3.82,3.82,0,0,1,20.5-3.586V-3.1H15.847a2.441,2.441,0,0,0,.594,1.641,1.866,1.866,0,0,0,1.444.625,2.045,2.045,0,0,0,1.054-.254,2.648,2.648,0,0,0,.755-.673l.717.559A2.884,2.884,0,0,1,17.821.127ZM17.675-6.03a1.566,1.566,0,0,0-1.193.517,2.515,2.515,0,0,0-.6,1.45h3.44v-.089a2.237,2.237,0,0,0-.482-1.387A1.475,1.475,0,0,0,17.675-6.03ZM23.134,0H21.96V-9.75h1.174ZM35.525-4.323a5.717,5.717,0,0,1-.457,2.371A3.462,3.462,0,0,1,33.773-.406a3.563,3.563,0,0,1-1.955.533,3.532,3.532,0,0,1-1.936-.536,3.545,3.545,0,0,1-1.311-1.53,5.486,5.486,0,0,1-.479-2.3v-.667a5.649,5.649,0,0,1,.463-2.355,3.532,3.532,0,0,1,1.311-1.565,3.517,3.517,0,0,1,1.939-.543,3.583,3.583,0,0,1,1.958.536,3.455,3.455,0,0,1,1.3,1.555,5.745,5.745,0,0,1,.457,2.371Zm-1.212-.6a4.144,4.144,0,0,0-.66-2.523,2.177,2.177,0,0,0-1.847-.879,2.154,2.154,0,0,0-1.819.879A4.059,4.059,0,0,0,29.3-5v.679a4.15,4.15,0,0,0,.67,2.5,2.163,2.163,0,0,0,1.844.911,2.154,2.154,0,0,0,1.828-.86,4.126,4.126,0,0,0,.667-2.466ZM38.445,0H37.27V-6.868h1.174Zm-1.27-8.69a.7.7,0,0,1,.175-.482.655.655,0,0,1,.517-.2.666.666,0,0,1,.521.2.694.694,0,0,1,.178.482.671.671,0,0,1-.178.476.678.678,0,0,1-.521.19.667.667,0,0,1-.517-.19A.678.678,0,0,1,37.175-8.69ZM41.6,0H40.425V-9.75H41.6Z" transform="translate(300.317 257.304)"/>
  <path id="Trazado_699193" data-name="Trazado 699193" d="M4.627,0H3.447V-7.827l-2.368.87V-8.023L4.443-9.287h.184Zm6.557-7.465a1.875,1.875,0,0,1,.53-1.371,1.826,1.826,0,0,1,1.362-.54,1.815,1.815,0,0,1,1.368.543,1.94,1.94,0,0,1,.524,1.406v.451a1.851,1.851,0,0,1-.53,1.368,1.827,1.827,0,0,1-1.349.53,1.867,1.867,0,0,1-1.365-.53,1.89,1.89,0,0,1-.54-1.412Zm.876.486a1.2,1.2,0,0,0,.279.818.942.942,0,0,0,.749.321.924.924,0,0,0,.727-.312A1.24,1.24,0,0,0,14.092-7v-.464a1.231,1.231,0,0,0-.273-.821.919.919,0,0,0-.743-.324.919.919,0,0,0-.743.324,1.27,1.27,0,0,0-.273.846Zm3.625,4.713a1.865,1.865,0,0,1,.53-1.368,1.832,1.832,0,0,1,1.362-.536,1.848,1.848,0,0,1,1.365.533,1.913,1.913,0,0,1,.533,1.416v.451A1.865,1.865,0,0,1,18.945-.4a1.824,1.824,0,0,1-1.355.536A1.867,1.867,0,0,1,16.225-.4a1.89,1.89,0,0,1-.54-1.412Zm.876.493a1.21,1.21,0,0,0,.279.824.942.942,0,0,0,.749.321.917.917,0,0,0,.73-.315,1.262,1.262,0,0,0,.273-.856V-2.27a1.207,1.207,0,0,0-.276-.821.93.93,0,0,0-.74-.318.939.939,0,0,0-.733.315,1.225,1.225,0,0,0-.282.849ZM13.355-.7l-.667-.419L17.2-8.341l.667.419Z" transform="translate(315.238 275.28)"/>
  <path id="Trazado_699194" data-name="Trazado 699194" d="M6.176-2.418H2.3L1.435,0H.178L3.707-9.242H4.773L8.309,0H7.059Zm-3.5-1H5.814L4.24-7.738ZM10.645,0H9.471V-9.75h1.174Zm4.634-.832a1.692,1.692,0,0,0,1.1-.381,1.34,1.34,0,0,0,.521-.952h1.111A2.13,2.13,0,0,1,17.6-1.041a2.676,2.676,0,0,1-1,.851,2.885,2.885,0,0,1-1.323.317,2.829,2.829,0,0,1-2.231-.936,3.729,3.729,0,0,1-.828-2.561v-.2a4.135,4.135,0,0,1,.368-1.784,2.8,2.8,0,0,1,1.057-1.212A3,3,0,0,1,15.272-7a2.755,2.755,0,0,1,1.92.692,2.473,2.473,0,0,1,.816,1.8H16.9a1.618,1.618,0,0,0-.5-1.095,1.57,1.57,0,0,0-1.12-.428,1.644,1.644,0,0,0-1.387.644,3.026,3.026,0,0,0-.492,1.863V-3.3a2.965,2.965,0,0,0,.489,1.828A1.651,1.651,0,0,0,15.279-.832ZM19.018-3.5a4.057,4.057,0,0,1,.4-1.815,2.96,2.96,0,0,1,1.1-1.244A3.007,3.007,0,0,1,22.134-7a2.9,2.9,0,0,1,2.269.971A3.736,3.736,0,0,1,25.27-3.44v.083a4.092,4.092,0,0,1-.384,1.8,2.916,2.916,0,0,1-1.1,1.241,3.041,3.041,0,0,1-1.641.444,2.889,2.889,0,0,1-2.263-.971,3.718,3.718,0,0,1-.866-2.571Zm1.181.14a2.938,2.938,0,0,0,.53,1.834,1.7,1.7,0,0,0,1.419.692,1.686,1.686,0,0,0,1.422-.7A3.213,3.213,0,0,0,24.1-3.5a2.933,2.933,0,0,0-.536-1.831,1.705,1.705,0,0,0-1.425-.7,1.686,1.686,0,0,0-1.4.692A3.189,3.189,0,0,0,20.2-3.358Zm7.719-2.679A2.5,2.5,0,0,1,29.948-7q2.177,0,2.2,2.457V0H30.97V-4.545a1.581,1.581,0,0,0-.34-1.1A1.361,1.361,0,0,0,29.593-6a1.7,1.7,0,0,0-1,.3,2.069,2.069,0,0,0-.673.8V0H26.743V-9.75h1.174ZM33.592-3.5a4.057,4.057,0,0,1,.4-1.815,2.96,2.96,0,0,1,1.1-1.244A3.007,3.007,0,0,1,36.708-7a2.9,2.9,0,0,1,2.269.971,3.736,3.736,0,0,1,.866,2.583v.083a4.092,4.092,0,0,1-.384,1.8,2.916,2.916,0,0,1-1.1,1.241,3.041,3.041,0,0,1-1.641.444,2.889,2.889,0,0,1-2.263-.971,3.718,3.718,0,0,1-.866-2.571Zm1.181.14a2.938,2.938,0,0,0,.53,1.834,1.7,1.7,0,0,0,1.419.692,1.686,1.686,0,0,0,1.422-.7A3.213,3.213,0,0,0,38.67-3.5a2.933,2.933,0,0,0-.536-1.831,1.705,1.705,0,0,0-1.425-.7,1.686,1.686,0,0,0-1.4.692A3.189,3.189,0,0,0,34.772-3.358ZM42.593,0H41.418V-9.75h1.174Z" transform="translate(378.053 236.225)"/>
  <g id="Grupo_973789" data-name="Grupo 973789">
    <g id="Enmascarar_grupo_89" data-name="Enmascarar grupo 89" clip-path="url(#clip-path-2)">
      <path id="Trazado_699204" data-name="Trazado 699204" d="M7.871-2.933A3.4,3.4,0,0,1,6.789-.67a3.547,3.547,0,0,1-2.422.8A3.257,3.257,0,0,1,1.742-1.047,4.724,4.724,0,0,1,.755-4.189v-.889a5.266,5.266,0,0,1,.46-2.266,3.438,3.438,0,0,1,1.3-1.5,3.632,3.632,0,0,1,1.955-.524,3.34,3.34,0,0,1,2.361.822A3.441,3.441,0,0,1,7.871-6.271H6.646a2.655,2.655,0,0,0-.689-1.6,2.084,2.084,0,0,0-1.482-.5,2.181,2.181,0,0,0-1.831.864A3.966,3.966,0,0,0,1.98-5.05v.9a4.077,4.077,0,0,0,.628,2.4A2.031,2.031,0,0,0,4.367-.87a2.345,2.345,0,0,0,1.558-.46,2.554,2.554,0,0,0,.72-1.6ZM13.59,0a2.467,2.467,0,0,1-.165-.724A2.62,2.62,0,0,1,11.47.127,2.424,2.424,0,0,1,9.8-.448,1.859,1.859,0,0,1,9.153-1.9a1.942,1.942,0,0,1,.816-1.666,3.846,3.846,0,0,1,2.295-.594h1.143V-4.7a1.319,1.319,0,0,0-.368-.981,1.48,1.48,0,0,0-1.085-.365,1.712,1.712,0,0,0-1.054.317.935.935,0,0,0-.425.768H9.293a1.621,1.621,0,0,1,.365-.993,2.491,2.491,0,0,1,.99-.759A3.331,3.331,0,0,1,12.022-7a2.715,2.715,0,0,1,1.86.594,2.141,2.141,0,0,1,.7,1.635v3.161a3.865,3.865,0,0,0,.241,1.5V0ZM11.642-.9a2.064,2.064,0,0,0,1.047-.286,1.728,1.728,0,0,0,.717-.743V-3.333h-.92q-2.158,0-2.158,1.263a1.069,1.069,0,0,0,.368.863A1.415,1.415,0,0,0,11.642-.9Zm8.1-4.919a3.519,3.519,0,0,0-.578-.044,1.547,1.547,0,0,0-1.568.984V0H16.421V-6.868h1.143l.019.793A1.829,1.829,0,0,1,19.221-7a1.2,1.2,0,0,1,.521.089Zm6.894,2.457a4.084,4.084,0,0,1-.724,2.53,2.312,2.312,0,0,1-1.942.955,2.394,2.394,0,0,1-2.012-.92L21.9,0H20.82V-9.75h1.174v3.637A2.381,2.381,0,0,1,23.956-7a2.326,2.326,0,0,1,1.965.946,4.206,4.206,0,0,1,.714,2.59ZM25.46-3.491A3.173,3.173,0,0,0,25-5.345,1.534,1.534,0,0,0,23.664-6a1.724,1.724,0,0,0-1.669,1.079v2.971A1.772,1.772,0,0,0,23.677-.87a1.526,1.526,0,0,0,1.314-.654A3.375,3.375,0,0,0,25.46-3.491ZM32.354-.679a2.494,2.494,0,0,1-2.012.806,2.135,2.135,0,0,1-1.673-.638A2.761,2.761,0,0,1,28.088-2.4V-6.868h1.174v4.437q0,1.562,1.27,1.562a1.758,1.758,0,0,0,1.79-1v-5H33.5V0H32.379ZM38.6-5.814a3.519,3.519,0,0,0-.578-.044,1.547,1.547,0,0,0-1.568.984V0H35.28V-6.868h1.143l.019.793A1.829,1.829,0,0,1,38.08-7a1.2,1.2,0,0,1,.521.089ZM43.419,0a2.467,2.467,0,0,1-.165-.724A2.62,2.62,0,0,1,41.3.127a2.424,2.424,0,0,1-1.666-.574A1.859,1.859,0,0,1,38.982-1.9,1.942,1.942,0,0,1,39.8-3.571a3.846,3.846,0,0,1,2.295-.594h1.143V-4.7a1.319,1.319,0,0,0-.368-.981,1.48,1.48,0,0,0-1.085-.365,1.712,1.712,0,0,0-1.054.317.935.935,0,0,0-.425.768H39.121a1.621,1.621,0,0,1,.365-.993,2.491,2.491,0,0,1,.99-.759A3.331,3.331,0,0,1,41.851-7a2.715,2.715,0,0,1,1.86.594,2.141,2.141,0,0,1,.7,1.635v3.161A3.865,3.865,0,0,0,44.65-.1V0ZM41.47-.9a2.064,2.064,0,0,0,1.047-.286,1.728,1.728,0,0,0,.717-.743V-3.333h-.92q-2.158,0-2.158,1.263a1.069,1.069,0,0,0,.368.863A1.415,1.415,0,0,0,41.47-.9ZM47.36-6.868,47.4-6A2.5,2.5,0,0,1,49.455-7q2.177,0,2.2,2.457V0H50.477V-4.545a1.581,1.581,0,0,0-.34-1.1A1.361,1.361,0,0,0,49.1-6a1.7,1.7,0,0,0-1,.3,2.069,2.069,0,0,0-.673.8V0H46.25V-6.868Zm7.655-1.663v1.663H56.3v.908H55.016V-1.7a.953.953,0,0,0,.171.62.721.721,0,0,0,.584.207,2.843,2.843,0,0,0,.559-.076V0a3.424,3.424,0,0,1-.9.126,1.462,1.462,0,0,1-1.187-.476,2.045,2.045,0,0,1-.4-1.352V-5.96h-1.25v-.908h1.25V-8.531Zm5.5,8.658A3,3,0,0,1,58.247-.79a3.4,3.4,0,0,1-.876-2.453v-.216a4.121,4.121,0,0,1,.39-1.825,3.045,3.045,0,0,1,1.092-1.257A2.745,2.745,0,0,1,60.373-7a2.572,2.572,0,0,1,2.082.882A3.82,3.82,0,0,1,63.2-3.586V-3.1H58.545a2.441,2.441,0,0,0,.594,1.641,1.866,1.866,0,0,0,1.444.625,2.045,2.045,0,0,0,1.054-.254,2.648,2.648,0,0,0,.755-.673l.717.559A2.884,2.884,0,0,1,60.519.127ZM60.373-6.03a1.566,1.566,0,0,0-1.193.517,2.515,2.515,0,0,0-.6,1.45h3.44v-.089a2.237,2.237,0,0,0-.482-1.387A1.475,1.475,0,0,0,60.373-6.03Z" transform="translate(366.346 254.189)"/>
    </g>
  </g>
  <path id="Trazado_699195" data-name="Trazado 699195" d="M6.824,0H.768V-.844L3.967-4.4A7.6,7.6,0,0,0,4.948-5.71a2.188,2.188,0,0,0,.27-1.044A1.658,1.658,0,0,0,4.78-7.941,1.531,1.531,0,0,0,3.612-8.4a1.814,1.814,0,0,0-1.362.5,1.9,1.9,0,0,0-.486,1.387H.59a2.726,2.726,0,0,1,.822-2.063,3.047,3.047,0,0,1,2.2-.787,2.928,2.928,0,0,1,2.038.676,2.306,2.306,0,0,1,.749,1.8,5.287,5.287,0,0,1-1.739,3.25L2.184-.958h4.64Zm4.361-7.465a1.875,1.875,0,0,1,.53-1.371,1.826,1.826,0,0,1,1.362-.54,1.815,1.815,0,0,1,1.368.543,1.94,1.94,0,0,1,.524,1.406v.451a1.851,1.851,0,0,1-.53,1.368,1.827,1.827,0,0,1-1.349.53,1.867,1.867,0,0,1-1.365-.53,1.89,1.89,0,0,1-.54-1.412Zm.876.486a1.2,1.2,0,0,0,.279.818.942.942,0,0,0,.749.321.924.924,0,0,0,.727-.312A1.24,1.24,0,0,0,14.092-7v-.464a1.231,1.231,0,0,0-.273-.821.919.919,0,0,0-.743-.324.919.919,0,0,0-.743.324,1.27,1.27,0,0,0-.273.846Zm3.625,4.713a1.865,1.865,0,0,1,.53-1.368,1.832,1.832,0,0,1,1.362-.536,1.848,1.848,0,0,1,1.365.533,1.913,1.913,0,0,1,.533,1.416v.451A1.865,1.865,0,0,1,18.945-.4a1.824,1.824,0,0,1-1.355.536A1.867,1.867,0,0,1,16.225-.4a1.89,1.89,0,0,1-.54-1.412Zm.876.493a1.21,1.21,0,0,0,.279.824.942.942,0,0,0,.749.321.917.917,0,0,0,.73-.315,1.262,1.262,0,0,0,.273-.856V-2.27a1.207,1.207,0,0,0-.276-.821.93.93,0,0,0-.74-.318.939.939,0,0,0-.733.315,1.225,1.225,0,0,0-.282.849ZM13.355-.7l-.667-.419L17.2-8.341l.667.419Z" transform="translate(393.481 272.166)"/>
  <path id="Trazado_699196" data-name="Trazado 699196" d="M1.073,0V-9.242H4.094a3.507,3.507,0,0,1,2.263.622,2.242,2.242,0,0,1,.759,1.841,1.877,1.877,0,0,1-.368,1.146,2.387,2.387,0,0,1-1,.771,2.143,2.143,0,0,1,1.184.8,2.286,2.286,0,0,1,.435,1.4A2.472,2.472,0,0,1,6.557-.711,3.334,3.334,0,0,1,4.278,0ZM2.292-4.323V-1H4.3a1.938,1.938,0,0,0,1.343-.441,1.549,1.549,0,0,0,.492-1.216q0-1.669-1.815-1.669Zm0-.978H4.132a1.93,1.93,0,0,0,1.279-.4,1.344,1.344,0,0,0,.479-1.088A1.321,1.321,0,0,0,5.446-7.9a2.182,2.182,0,0,0-1.352-.347h-1.8ZM10.258,0H9.083V-6.868h1.174ZM8.988-8.69a.7.7,0,0,1,.175-.482.655.655,0,0,1,.517-.2.666.666,0,0,1,.521.2.694.694,0,0,1,.178.482.671.671,0,0,1-.178.476.678.678,0,0,1-.521.19.667.667,0,0,1-.517-.19A.678.678,0,0,1,8.988-8.69ZM11.826-3.5a4.057,4.057,0,0,1,.4-1.815,2.96,2.96,0,0,1,1.1-1.244A3.007,3.007,0,0,1,14.942-7a2.9,2.9,0,0,1,2.269.971,3.736,3.736,0,0,1,.866,2.583v.083a4.092,4.092,0,0,1-.384,1.8A2.916,2.916,0,0,1,16.6-.317a3.041,3.041,0,0,1-1.641.444,2.889,2.889,0,0,1-2.263-.971,3.718,3.718,0,0,1-.866-2.571Zm1.181.14a2.938,2.938,0,0,0,.53,1.834,1.7,1.7,0,0,0,1.419.692,1.686,1.686,0,0,0,1.422-.7A3.213,3.213,0,0,0,16.9-3.5a2.933,2.933,0,0,0-.536-1.831,1.705,1.705,0,0,0-1.425-.7,1.686,1.686,0,0,0-1.4.692A3.189,3.189,0,0,0,13.006-3.358Zm6.259-.133a4.023,4.023,0,0,1,.749-2.542A2.369,2.369,0,0,1,21.976-7a2.382,2.382,0,0,1,1.911.825V-9.75h1.174V0H23.981l-.057-.736a2.391,2.391,0,0,1-1.961.863,2.346,2.346,0,0,1-1.946-.978A4.069,4.069,0,0,1,19.265-3.4Zm1.174.133a3.046,3.046,0,0,0,.482,1.828,1.56,1.56,0,0,0,1.333.66,1.713,1.713,0,0,0,1.631-1V-5.027A1.726,1.726,0,0,0,22.268-6a1.567,1.567,0,0,0-1.346.667A3.354,3.354,0,0,0,20.439-3.358ZM28.158,0H26.984V-6.868h1.174Zm-1.27-8.69a.7.7,0,0,1,.175-.482.655.655,0,0,1,.517-.2.666.666,0,0,1,.521.2.694.694,0,0,1,.178.482.671.671,0,0,1-.178.476.678.678,0,0,1-.521.19.667.667,0,0,1-.517-.19A.678.678,0,0,1,26.889-8.69Zm6,8.817A3,3,0,0,1,30.615-.79a3.4,3.4,0,0,1-.876-2.453v-.216a4.121,4.121,0,0,1,.39-1.825,3.045,3.045,0,0,1,1.092-1.257A2.745,2.745,0,0,1,32.741-7a2.572,2.572,0,0,1,2.082.882,3.82,3.82,0,0,1,.743,2.526V-3.1H30.913a2.441,2.441,0,0,0,.594,1.641,1.866,1.866,0,0,0,1.444.625A2.045,2.045,0,0,0,34-1.085a2.648,2.648,0,0,0,.755-.673l.717.559A2.884,2.884,0,0,1,32.887.127ZM32.741-6.03a1.566,1.566,0,0,0-1.193.517,2.515,2.515,0,0,0-.6,1.45h3.44v-.089a2.237,2.237,0,0,0-.482-1.387A1.475,1.475,0,0,0,32.741-6.03Zm.571-3.72h1.422l-1.7,1.866-.946,0Zm7.611,7.928a.865.865,0,0,0-.359-.74,3.452,3.452,0,0,0-1.25-.454A5.912,5.912,0,0,1,37.9-3.472a2.014,2.014,0,0,1-.774-.635,1.518,1.518,0,0,1-.251-.876,1.782,1.782,0,0,1,.714-1.428A2.789,2.789,0,0,1,39.413-7a2.87,2.87,0,0,1,1.895.6,1.915,1.915,0,0,1,.727,1.542H40.854a1.06,1.06,0,0,0-.409-.832,1.534,1.534,0,0,0-1.031-.349,1.605,1.605,0,0,0-1,.279.879.879,0,0,0-.362.73.712.712,0,0,0,.336.641,4.139,4.139,0,0,0,1.216.413,6.334,6.334,0,0,1,1.425.47,2.079,2.079,0,0,1,.809.657A1.615,1.615,0,0,1,42.1-1.9a1.758,1.758,0,0,1-.736,1.476,3.089,3.089,0,0,1-1.911.555,3.459,3.459,0,0,1-1.46-.292A2.375,2.375,0,0,1,37-.981a1.966,1.966,0,0,1-.359-1.133h1.174a1.216,1.216,0,0,0,.473.936,1.835,1.835,0,0,0,1.165.346,1.894,1.894,0,0,0,1.07-.27A.829.829,0,0,0,40.923-1.822ZM46.478.127A3,3,0,0,1,44.205-.79a3.4,3.4,0,0,1-.876-2.453v-.216a4.121,4.121,0,0,1,.39-1.825,3.045,3.045,0,0,1,1.092-1.257A2.745,2.745,0,0,1,46.332-7a2.572,2.572,0,0,1,2.082.882,3.82,3.82,0,0,1,.743,2.526V-3.1H44.5A2.441,2.441,0,0,0,45.1-1.457a1.866,1.866,0,0,0,1.444.625,2.045,2.045,0,0,0,1.054-.254,2.648,2.648,0,0,0,.755-.673l.717.559A2.884,2.884,0,0,1,46.478.127ZM46.332-6.03a1.566,1.566,0,0,0-1.193.517,2.515,2.515,0,0,0-.6,1.45h3.44v-.089A2.237,2.237,0,0,0,47.5-5.538,1.475,1.475,0,0,0,46.332-6.03ZM51.791,0H50.616V-9.75h1.174Z" transform="translate(315.61 204.588)"/>
  <path id="Trazado_699197" data-name="Trazado 699197" d="M5.726-3.1H7.008v.958H5.726V0H4.545V-2.146H.336v-.692l4.139-6.4h1.25Zm-4.056,0H4.545V-7.636l-.14.254Zm9.515-4.361a1.875,1.875,0,0,1,.53-1.371,1.826,1.826,0,0,1,1.362-.54,1.815,1.815,0,0,1,1.368.543,1.94,1.94,0,0,1,.524,1.406v.451a1.851,1.851,0,0,1-.53,1.368,1.827,1.827,0,0,1-1.349.53,1.867,1.867,0,0,1-1.365-.53,1.89,1.89,0,0,1-.54-1.412Zm.876.486a1.2,1.2,0,0,0,.279.818.942.942,0,0,0,.749.321.924.924,0,0,0,.727-.312A1.24,1.24,0,0,0,14.092-7v-.464a1.231,1.231,0,0,0-.273-.821.919.919,0,0,0-.743-.324.919.919,0,0,0-.743.324,1.27,1.27,0,0,0-.273.846Zm3.625,4.713a1.865,1.865,0,0,1,.53-1.368,1.832,1.832,0,0,1,1.362-.536,1.848,1.848,0,0,1,1.365.533,1.913,1.913,0,0,1,.533,1.416v.451A1.865,1.865,0,0,1,18.945-.4a1.824,1.824,0,0,1-1.355.536A1.867,1.867,0,0,1,16.225-.4a1.89,1.89,0,0,1-.54-1.412Zm.876.493a1.21,1.21,0,0,0,.279.824.942.942,0,0,0,.749.321.917.917,0,0,0,.73-.315,1.262,1.262,0,0,0,.273-.856V-2.27a1.207,1.207,0,0,0-.276-.821.93.93,0,0,0-.74-.318.939.939,0,0,0-.733.315,1.225,1.225,0,0,0-.282.849ZM13.355-.7l-.667-.419L17.2-8.341l.667.419Z" transform="translate(336.329 222.565)"/>
  <path id="Trazado_699198" data-name="Trazado 699198" d="M7.9-1.212A2.815,2.815,0,0,1,6.586-.206,5.3,5.3,0,0,1,4.627.127,3.8,3.8,0,0,1,2.622-.4,3.531,3.531,0,0,1,1.266-1.911,5.207,5.207,0,0,1,.774-4.177v-.806A4.861,4.861,0,0,1,1.749-8.22,3.4,3.4,0,0,1,4.488-9.369a3.507,3.507,0,0,1,2.33.74A3.222,3.222,0,0,1,7.9-6.532H6.678A2.015,2.015,0,0,0,4.494-8.373a2.157,2.157,0,0,0-1.857.861A4.2,4.2,0,0,0,2-5.018v.756A3.939,3.939,0,0,0,2.71-1.788,2.3,2.3,0,0,0,4.634-.87a4.248,4.248,0,0,0,1.2-.152,1.855,1.855,0,0,0,.851-.513V-3.605H4.545v-1H7.9ZM13.984,0a2.467,2.467,0,0,1-.165-.724,2.62,2.62,0,0,1-1.955.851A2.424,2.424,0,0,1,10.2-.448,1.859,1.859,0,0,1,9.547-1.9a1.942,1.942,0,0,1,.816-1.666,3.846,3.846,0,0,1,2.295-.594H13.8V-4.7a1.319,1.319,0,0,0-.368-.981,1.48,1.48,0,0,0-1.085-.365,1.712,1.712,0,0,0-1.054.317.935.935,0,0,0-.425.768H9.687a1.621,1.621,0,0,1,.365-.993,2.491,2.491,0,0,1,.99-.759A3.331,3.331,0,0,1,12.416-7a2.715,2.715,0,0,1,1.86.594,2.141,2.141,0,0,1,.7,1.635v3.161a3.865,3.865,0,0,0,.241,1.5V0ZM12.035-.9a2.064,2.064,0,0,0,1.047-.286,1.728,1.728,0,0,0,.717-.743V-3.333h-.92q-2.158,0-2.158,1.263a1.069,1.069,0,0,0,.368.863A1.415,1.415,0,0,0,12.035-.9Zm8.779-.927a.864.864,0,0,0-.359-.74,3.452,3.452,0,0,0-1.25-.454,5.912,5.912,0,0,1-1.416-.457,2.014,2.014,0,0,1-.774-.635,1.518,1.518,0,0,1-.251-.876,1.782,1.782,0,0,1,.714-1.428A2.789,2.789,0,0,1,19.3-7a2.87,2.87,0,0,1,1.895.6,1.915,1.915,0,0,1,.727,1.542H20.744a1.06,1.06,0,0,0-.409-.832A1.534,1.534,0,0,0,19.3-6.03a1.606,1.606,0,0,0-1,.279.879.879,0,0,0-.362.73.712.712,0,0,0,.336.641,4.139,4.139,0,0,0,1.216.413,6.334,6.334,0,0,1,1.425.47,2.079,2.079,0,0,1,.809.657,1.615,1.615,0,0,1,.263.936,1.758,1.758,0,0,1-.736,1.476,3.089,3.089,0,0,1-1.911.555,3.459,3.459,0,0,1-1.46-.292,2.375,2.375,0,0,1-.993-.816,1.966,1.966,0,0,1-.359-1.133H17.7a1.216,1.216,0,0,0,.473.936,1.835,1.835,0,0,0,1.165.346,1.894,1.894,0,0,0,1.07-.27A.829.829,0,0,0,20.814-1.822ZM34.023,0H32.8L28.146-7.122V0H26.92V-9.242h1.225l4.666,7.154V-9.242h1.212Zm6.221,0a2.467,2.467,0,0,1-.165-.724,2.62,2.62,0,0,1-1.955.851,2.424,2.424,0,0,1-1.666-.574A1.859,1.859,0,0,1,35.807-1.9a1.942,1.942,0,0,1,.816-1.666,3.846,3.846,0,0,1,2.295-.594H40.06V-4.7a1.319,1.319,0,0,0-.368-.981,1.48,1.48,0,0,0-1.085-.365,1.712,1.712,0,0,0-1.054.317.935.935,0,0,0-.425.768H35.947a1.621,1.621,0,0,1,.365-.993,2.491,2.491,0,0,1,.99-.759A3.331,3.331,0,0,1,38.676-7a2.715,2.715,0,0,1,1.86.594,2.141,2.141,0,0,1,.7,1.635v3.161a3.865,3.865,0,0,0,.241,1.5V0ZM38.3-.9a2.064,2.064,0,0,0,1.047-.286,1.728,1.728,0,0,0,.717-.743V-3.333h-.92q-2.158,0-2.158,1.263a1.069,1.069,0,0,0,.368.863A1.415,1.415,0,0,0,38.3-.9Zm6.373-7.636v1.663h1.282v.908H44.668V-1.7a.953.953,0,0,0,.171.62.721.721,0,0,0,.584.207,2.843,2.843,0,0,0,.559-.076V0a3.424,3.424,0,0,1-.9.126,1.462,1.462,0,0,1-1.187-.476,2.045,2.045,0,0,1-.4-1.352V-5.96h-1.25v-.908h1.25V-8.531ZM51.562-.679A2.494,2.494,0,0,1,49.55.127a2.135,2.135,0,0,1-1.673-.638A2.761,2.761,0,0,1,47.3-2.4V-6.868h1.174v4.437q0,1.562,1.27,1.562a1.758,1.758,0,0,0,1.79-1v-5H52.7V0H51.587Zm6.246-5.135a3.519,3.519,0,0,0-.578-.044,1.547,1.547,0,0,0-1.568.984V0H54.488V-6.868h1.143l.019.793A1.829,1.829,0,0,1,57.288-7a1.2,1.2,0,0,1,.521.089ZM62.627,0a2.467,2.467,0,0,1-.165-.724,2.62,2.62,0,0,1-1.955.851A2.424,2.424,0,0,1,58.84-.448,1.859,1.859,0,0,1,58.19-1.9a1.942,1.942,0,0,1,.816-1.666A3.846,3.846,0,0,1,61.3-4.164h1.143V-4.7a1.319,1.319,0,0,0-.368-.981,1.48,1.48,0,0,0-1.085-.365,1.712,1.712,0,0,0-1.054.317.935.935,0,0,0-.425.768H58.329a1.621,1.621,0,0,1,.365-.993,2.491,2.491,0,0,1,.99-.759A3.331,3.331,0,0,1,61.059-7a2.715,2.715,0,0,1,1.86.594,2.141,2.141,0,0,1,.7,1.635v3.161a3.865,3.865,0,0,0,.241,1.5V0ZM60.678-.9a2.064,2.064,0,0,0,1.047-.286,1.728,1.728,0,0,0,.717-.743V-3.333h-.92q-2.158,0-2.158,1.263a1.069,1.069,0,0,0,.368.863A1.415,1.415,0,0,0,60.678-.9Zm6.056.9H65.559V-9.75h1.174Z" transform="translate(317.947 158.536)"/>
  <path id="Trazado_699199" data-name="Trazado 699199" d="M5.376-9.249v1H5.161a3.092,3.092,0,0,0-2.184.813,3.381,3.381,0,0,0-.939,2.215,2.507,2.507,0,0,1,1.993-.838,2.4,2.4,0,0,1,1.927.851,3.281,3.281,0,0,1,.72,2.2A3.27,3.27,0,0,1,5.9-.73,2.678,2.678,0,0,1,3.815.127,2.638,2.638,0,0,1,1.663-.892,4.038,4.038,0,0,1,.838-3.517v-.451a6.084,6.084,0,0,1,1.089-3.9,4,4,0,0,1,3.24-1.381ZM3.834-5.084a1.874,1.874,0,0,0-1.111.362,1.885,1.885,0,0,0-.7.908v.432a3.032,3.032,0,0,0,.514,1.841,1.541,1.541,0,0,0,1.282.7,1.493,1.493,0,0,0,1.247-.584,2.423,2.423,0,0,0,.454-1.53A2.424,2.424,0,0,0,5.056-4.5,1.475,1.475,0,0,0,3.834-5.084Zm7.351-2.38a1.875,1.875,0,0,1,.53-1.371,1.826,1.826,0,0,1,1.362-.54,1.815,1.815,0,0,1,1.368.543,1.94,1.94,0,0,1,.524,1.406v.451a1.851,1.851,0,0,1-.53,1.368,1.827,1.827,0,0,1-1.349.53,1.867,1.867,0,0,1-1.365-.53,1.89,1.89,0,0,1-.54-1.412Zm.876.486a1.2,1.2,0,0,0,.279.818.942.942,0,0,0,.749.321.924.924,0,0,0,.727-.312A1.24,1.24,0,0,0,14.092-7v-.464a1.231,1.231,0,0,0-.273-.821.919.919,0,0,0-.743-.324.919.919,0,0,0-.743.324,1.27,1.27,0,0,0-.273.846Zm3.625,4.713a1.865,1.865,0,0,1,.53-1.368,1.832,1.832,0,0,1,1.362-.536,1.848,1.848,0,0,1,1.365.533,1.913,1.913,0,0,1,.533,1.416v.451A1.865,1.865,0,0,1,18.945-.4a1.824,1.824,0,0,1-1.355.536A1.867,1.867,0,0,1,16.225-.4a1.89,1.89,0,0,1-.54-1.412Zm.876.493a1.21,1.21,0,0,0,.279.824.942.942,0,0,0,.749.321.917.917,0,0,0,.73-.315,1.262,1.262,0,0,0,.273-.856V-2.27a1.207,1.207,0,0,0-.276-.821.93.93,0,0,0-.74-.318.939.939,0,0,0-.733.315,1.225,1.225,0,0,0-.282.849ZM13.355-.7l-.667-.419L17.2-8.341l.667.419Z" transform="translate(347.415 176.513)"/>
  <path id="Trazado_699200" data-name="Trazado 699200" d="M3.421-4.3,2.292-3.123V0H1.073V-9.242H2.292v4.57L6.4-9.242H7.871L4.234-5.161,8.157,0H6.7ZM11.568.127A3,3,0,0,1,9.3-.79,3.4,3.4,0,0,1,8.42-3.244v-.216a4.121,4.121,0,0,1,.39-1.825A3.045,3.045,0,0,1,9.9-6.541,2.745,2.745,0,0,1,11.422-7a2.572,2.572,0,0,1,2.082.882,3.82,3.82,0,0,1,.743,2.526V-3.1H9.594a2.441,2.441,0,0,0,.594,1.641,1.866,1.866,0,0,0,1.444.625,2.045,2.045,0,0,0,1.054-.254,2.648,2.648,0,0,0,.755-.673l.717.559A2.884,2.884,0,0,1,11.568.127ZM11.422-6.03a1.566,1.566,0,0,0-1.193.517,2.515,2.515,0,0,0-.6,1.45h3.44v-.089a2.237,2.237,0,0,0-.482-1.387A1.475,1.475,0,0,0,11.422-6.03Zm7.5.216a3.519,3.519,0,0,0-.578-.044,1.547,1.547,0,0,0-1.568.984V0H15.605V-6.868h1.143l.019.793A1.829,1.829,0,0,1,18.4-7a1.2,1.2,0,0,1,.521.089ZM19.449-3.5a4.057,4.057,0,0,1,.4-1.815,2.96,2.96,0,0,1,1.1-1.244A3.007,3.007,0,0,1,22.566-7a2.9,2.9,0,0,1,2.269.971A3.736,3.736,0,0,1,25.7-3.44v.083a4.092,4.092,0,0,1-.384,1.8,2.916,2.916,0,0,1-1.1,1.241,3.041,3.041,0,0,1-1.641.444,2.889,2.889,0,0,1-2.263-.971,3.718,3.718,0,0,1-.866-2.571Zm1.181.14a2.938,2.938,0,0,0,.53,1.834,1.7,1.7,0,0,0,1.419.692A1.686,1.686,0,0,0,24-1.533,3.213,3.213,0,0,0,24.527-3.5a2.933,2.933,0,0,0-.536-1.831,1.705,1.705,0,0,0-1.425-.7,1.686,1.686,0,0,0-1.4.692A3.189,3.189,0,0,0,20.63-3.358ZM31.173-1.822a.864.864,0,0,0-.359-.74,3.452,3.452,0,0,0-1.25-.454,5.912,5.912,0,0,1-1.416-.457,2.014,2.014,0,0,1-.774-.635,1.518,1.518,0,0,1-.251-.876,1.782,1.782,0,0,1,.714-1.428A2.789,2.789,0,0,1,29.663-7a2.87,2.87,0,0,1,1.895.6,1.915,1.915,0,0,1,.727,1.542H31.1a1.06,1.06,0,0,0-.409-.832,1.534,1.534,0,0,0-1.031-.349,1.606,1.606,0,0,0-1,.279.879.879,0,0,0-.362.73.712.712,0,0,0,.336.641,4.139,4.139,0,0,0,1.216.413,6.334,6.334,0,0,1,1.425.47,2.079,2.079,0,0,1,.809.657,1.615,1.615,0,0,1,.263.936,1.758,1.758,0,0,1-.736,1.476A3.089,3.089,0,0,1,29.7.127a3.459,3.459,0,0,1-1.46-.292,2.375,2.375,0,0,1-.993-.816,1.966,1.966,0,0,1-.359-1.133h1.174a1.216,1.216,0,0,0,.473.936A1.835,1.835,0,0,0,29.7-.832a1.894,1.894,0,0,0,1.07-.27A.829.829,0,0,0,31.173-1.822ZM36.727.127A3,3,0,0,1,34.455-.79a3.4,3.4,0,0,1-.876-2.453v-.216a4.121,4.121,0,0,1,.39-1.825,3.045,3.045,0,0,1,1.092-1.257A2.745,2.745,0,0,1,36.581-7a2.572,2.572,0,0,1,2.082.882,3.82,3.82,0,0,1,.743,2.526V-3.1H34.753a2.441,2.441,0,0,0,.594,1.641,1.866,1.866,0,0,0,1.444.625,2.045,2.045,0,0,0,1.054-.254,2.648,2.648,0,0,0,.755-.673l.717.559A2.884,2.884,0,0,1,36.727.127ZM36.581-6.03a1.566,1.566,0,0,0-1.193.517,2.515,2.515,0,0,0-.6,1.45h3.44v-.089a2.237,2.237,0,0,0-.482-1.387A1.475,1.475,0,0,0,36.581-6.03Zm5.294-.838L41.914-6A2.5,2.5,0,0,1,43.97-7q2.177,0,2.2,2.457V0H44.992V-4.545a1.581,1.581,0,0,0-.34-1.1A1.361,1.361,0,0,0,43.615-6a1.7,1.7,0,0,0-1,.3,2.069,2.069,0,0,0-.673.8V0H40.765V-6.868Zm8.912,7A3,3,0,0,1,48.515-.79a3.4,3.4,0,0,1-.876-2.453v-.216a4.121,4.121,0,0,1,.39-1.825,3.045,3.045,0,0,1,1.092-1.257A2.745,2.745,0,0,1,50.642-7a2.572,2.572,0,0,1,2.082.882,3.82,3.82,0,0,1,.743,2.526V-3.1H48.813a2.441,2.441,0,0,0,.594,1.641,1.866,1.866,0,0,0,1.444.625A2.045,2.045,0,0,0,51.9-1.085a2.648,2.648,0,0,0,.755-.673l.717.559A2.884,2.884,0,0,1,50.788.127ZM50.642-6.03a1.566,1.566,0,0,0-1.193.517,2.515,2.515,0,0,0-.6,1.45h3.44v-.089a2.237,2.237,0,0,0-.482-1.387A1.475,1.475,0,0,0,50.642-6.03ZM60.29-1.72l1.6-5.148h1.257L60.385,1.06q-.641,1.714-2.038,1.714l-.222-.019-.438-.083V1.72L58,1.746a1.563,1.563,0,0,0,.93-.241,1.746,1.746,0,0,0,.549-.882l.26-.7-2.45-6.792h1.282ZM71.468-9.242h1.225V-2.7a2.711,2.711,0,0,1-.8,2.076,2.974,2.974,0,0,1-2.123.749,3.056,3.056,0,0,1-2.146-.7,2.544,2.544,0,0,1-.768-1.974h1.219a1.694,1.694,0,0,0,.435,1.238,1.685,1.685,0,0,0,1.26.444A1.634,1.634,0,0,0,71-1.346a1.844,1.844,0,0,0,.473-1.333ZM77.435.127A3,3,0,0,1,75.163-.79a3.4,3.4,0,0,1-.876-2.453v-.216a4.121,4.121,0,0,1,.39-1.825,3.045,3.045,0,0,1,1.092-1.257A2.745,2.745,0,0,1,77.289-7a2.572,2.572,0,0,1,2.082.882,3.82,3.82,0,0,1,.743,2.526V-3.1H75.461a2.441,2.441,0,0,0,.594,1.641A1.866,1.866,0,0,0,77.5-.832a2.045,2.045,0,0,0,1.054-.254,2.648,2.648,0,0,0,.755-.673l.717.559A2.884,2.884,0,0,1,77.435.127ZM77.289-6.03a1.566,1.566,0,0,0-1.193.517,2.515,2.515,0,0,0-.6,1.45h3.44v-.089a2.237,2.237,0,0,0-.482-1.387A1.475,1.475,0,0,0,77.289-6.03Zm5.776-2.5v1.663h1.282v.908H83.065V-1.7a.953.953,0,0,0,.171.62.721.721,0,0,0,.584.207,2.843,2.843,0,0,0,.559-.076V0a3.424,3.424,0,0,1-.9.126,1.462,1.462,0,0,1-1.187-.476,2.045,2.045,0,0,1-.4-1.352V-5.96h-1.25v-.908h1.25V-8.531ZM89.515,0V-5.96H88.429v-.908h1.085v-.7A2.339,2.339,0,0,1,90.1-9.28a2.23,2.23,0,0,1,1.669-.6,3.1,3.1,0,0,1,.806.107l-.063.946a3.373,3.373,0,0,0-.635-.057A1.146,1.146,0,0,0,91-8.552a1.356,1.356,0,0,0-.311.958v.726h1.466v.908H90.689V0ZM97.69-.679a2.494,2.494,0,0,1-2.012.806,2.135,2.135,0,0,1-1.673-.638A2.761,2.761,0,0,1,93.425-2.4V-6.868H94.6v4.437q0,1.562,1.27,1.562a1.758,1.758,0,0,0,1.79-1v-5h1.174V0H97.716Zm5.776.806a3,3,0,0,1-2.272-.917,3.4,3.4,0,0,1-.876-2.453v-.216a4.121,4.121,0,0,1,.39-1.825A3.045,3.045,0,0,1,101.8-6.541,2.745,2.745,0,0,1,103.321-7a2.572,2.572,0,0,1,2.082.882,3.82,3.82,0,0,1,.743,2.526V-3.1h-4.653a2.441,2.441,0,0,0,.594,1.641,1.866,1.866,0,0,0,1.444.625,2.045,2.045,0,0,0,1.054-.254,2.648,2.648,0,0,0,.755-.673l.717.559A2.884,2.884,0,0,1,103.467.127Zm-.146-6.157a1.566,1.566,0,0,0-1.193.517,2.515,2.515,0,0,0-.6,1.45h3.44v-.089a2.237,2.237,0,0,0-.482-1.387A1.475,1.475,0,0,0,103.321-6.03ZM108.78,0h-1.174V-9.75h1.174Z" transform="translate(286.487 90.284)"/>
  <path id="Trazado_699201" data-name="Trazado 699201" d="M4.627,0H3.447V-7.827l-2.368.87V-8.023L4.443-9.287h.184Zm9.236-3.942a5.371,5.371,0,0,1-.7,3.066,2.506,2.506,0,0,1-2.2,1,2.524,2.524,0,0,1-2.19-.981A5.1,5.1,0,0,1,8.03-3.783V-5.351a5.251,5.251,0,0,1,.7-3.028,2.525,2.525,0,0,1,2.209-.99,2.548,2.548,0,0,1,2.2.955,5.068,5.068,0,0,1,.724,2.948ZM12.689-5.548a4.3,4.3,0,0,0-.419-2.174A1.442,1.442,0,0,0,10.943-8.4a1.423,1.423,0,0,0-1.314.679A4.2,4.2,0,0,0,9.2-5.637v1.879a4.372,4.372,0,0,0,.435,2.212,1.439,1.439,0,0,0,1.317.714A1.42,1.42,0,0,0,12.248-1.5a4.214,4.214,0,0,0,.441-2.12Zm5.8-1.917a1.875,1.875,0,0,1,.53-1.371,1.826,1.826,0,0,1,1.362-.54,1.815,1.815,0,0,1,1.368.543,1.94,1.94,0,0,1,.524,1.406v.451a1.851,1.851,0,0,1-.53,1.368,1.827,1.827,0,0,1-1.349.53,1.867,1.867,0,0,1-1.365-.53,1.89,1.89,0,0,1-.54-1.412Zm.876.486a1.2,1.2,0,0,0,.279.818.942.942,0,0,0,.749.321.924.924,0,0,0,.727-.312A1.24,1.24,0,0,0,21.392-7v-.464a1.231,1.231,0,0,0-.273-.821.919.919,0,0,0-.743-.324.919.919,0,0,0-.743.324,1.27,1.27,0,0,0-.273.846Zm3.625,4.713a1.865,1.865,0,0,1,.53-1.368,1.832,1.832,0,0,1,1.362-.536,1.848,1.848,0,0,1,1.365.533,1.913,1.913,0,0,1,.533,1.416v.451A1.865,1.865,0,0,1,26.244-.4a1.824,1.824,0,0,1-1.355.536A1.867,1.867,0,0,1,23.524-.4a1.89,1.89,0,0,1-.54-1.412Zm.876.493a1.21,1.21,0,0,0,.279.824.942.942,0,0,0,.749.321.917.917,0,0,0,.73-.315,1.262,1.262,0,0,0,.273-.856V-2.27a1.207,1.207,0,0,0-.276-.821.93.93,0,0,0-.74-.318.939.939,0,0,0-.733.315,1.225,1.225,0,0,0-.282.849ZM20.655-.7l-.667-.419L24.5-8.341l.667.419Z" transform="translate(335.999 108.26)"/>
  <g id="Grupo_973791" data-name="Grupo 973791">
    <g id="Enmascarar_grupo_90" data-name="Enmascarar grupo 90" clip-path="url(#clip-path-2)">
      <path id="Trazado_699206" data-name="Trazado 699206" d="M8.081-3.079A3.27,3.27,0,0,1,6.979-.73,3.868,3.868,0,0,1,4.361.127a3.478,3.478,0,0,1-2.8-1.2A4.906,4.906,0,0,1,.546-4.354v-.565a5.54,5.54,0,0,1,.47-2.349A3.52,3.52,0,0,1,2.358-8.826a3.761,3.761,0,0,1,2.028-.543,3.768,3.768,0,0,1,2.577.857,3.515,3.515,0,0,1,1.13,2.406h-1.9a1.93,1.93,0,0,0-.5-1.3,1.845,1.845,0,0,0-1.3-.4,1.618,1.618,0,0,0-1.425.682,3.824,3.824,0,0,0-.486,2.117v.7a4.093,4.093,0,0,0,.454,2.19,1.588,1.588,0,0,0,1.431.692,1.88,1.88,0,0,0,1.317-.4,1.821,1.821,0,0,0,.5-1.247ZM8.925-3.5a4.073,4.073,0,0,1,.394-1.822,2.881,2.881,0,0,1,1.133-1.238A3.306,3.306,0,0,1,12.168-7a3.128,3.128,0,0,1,2.269.851,3.414,3.414,0,0,1,.981,2.311l.013.47a3.59,3.59,0,0,1-.882,2.536,3.067,3.067,0,0,1-2.368.955A3.082,3.082,0,0,1,9.81-.825a3.653,3.653,0,0,1-.885-2.59Zm1.834.13a2.567,2.567,0,0,0,.368,1.5,1.215,1.215,0,0,0,1.054.518,1.217,1.217,0,0,0,1.041-.512A2.809,2.809,0,0,0,13.6-3.5a2.542,2.542,0,0,0-.375-1.488,1.217,1.217,0,0,0-1.054-.528,1.2,1.2,0,0,0-1.041.524A2.857,2.857,0,0,0,10.759-3.367Zm7.49-3.5.057.793A2.4,2.4,0,0,1,20.281-7a1.993,1.993,0,0,1,1.625.641,2.991,2.991,0,0,1,.546,1.917V0H20.617V-4.393a1.19,1.19,0,0,0-.254-.847,1.137,1.137,0,0,0-.844-.263,1.262,1.262,0,0,0-1.162.66V0H16.523V-6.868ZM27.562-1.9a.591.591,0,0,0-.333-.53,3.785,3.785,0,0,0-1.07-.346q-2.45-.514-2.45-2.082a1.887,1.887,0,0,1,.759-1.527A3.06,3.06,0,0,1,26.451-7a3.293,3.293,0,0,1,2.092.616,1.94,1.94,0,0,1,.784,1.6H27.492a.888.888,0,0,0-.254-.651,1.075,1.075,0,0,0-.793-.257,1.1,1.1,0,0,0-.717.209.661.661,0,0,0-.254.533.565.565,0,0,0,.289.492,2.971,2.971,0,0,0,.974.324,7.958,7.958,0,0,1,1.155.308,1.9,1.9,0,0,1,1.454,1.847,1.792,1.792,0,0,1-.806,1.52,3.478,3.478,0,0,1-2.082.581,3.632,3.632,0,0,1-1.533-.308,2.572,2.572,0,0,1-1.051-.844,1.962,1.962,0,0,1-.381-1.158h1.739a.958.958,0,0,0,.362.749,1.435,1.435,0,0,0,.9.26,1.328,1.328,0,0,0,.8-.2A.622.622,0,0,0,27.562-1.9ZM34.639-.7A2.3,2.3,0,0,1,32.76.127a2.17,2.17,0,0,1-1.685-.635,2.71,2.71,0,0,1-.594-1.86v-4.5h1.834v4.442q0,1.074.978,1.074A1.325,1.325,0,0,0,34.576-2V-6.868h1.841V0H34.69Zm4.881-6.17.057.768A2.414,2.414,0,0,1,41.552-7a1.832,1.832,0,0,1,1.822,1.047A2.358,2.358,0,0,1,45.437-7a2.049,2.049,0,0,1,1.663.651,2.991,2.991,0,0,1,.546,1.958V0H45.8V-4.38a1.308,1.308,0,0,0-.229-.854,1.013,1.013,0,0,0-.806-.27,1.145,1.145,0,0,0-1.143.787L43.634,0H41.8V-4.374a1.292,1.292,0,0,0-.235-.863,1.023,1.023,0,0,0-.8-.267,1.189,1.189,0,0,0-1.13.647V0H37.8V-6.868ZM48.769-3.5a4.073,4.073,0,0,1,.394-1.822A2.881,2.881,0,0,1,50.3-6.557,3.306,3.306,0,0,1,52.013-7a3.128,3.128,0,0,1,2.269.851,3.414,3.414,0,0,1,.981,2.311l.013.47a3.59,3.59,0,0,1-.882,2.536,3.067,3.067,0,0,1-2.368.955,3.082,3.082,0,0,1-2.371-.952,3.653,3.653,0,0,1-.885-2.59Zm1.834.13a2.567,2.567,0,0,0,.368,1.5,1.215,1.215,0,0,0,1.054.518,1.217,1.217,0,0,0,1.041-.512A2.809,2.809,0,0,0,53.441-3.5a2.542,2.542,0,0,0-.375-1.488,1.217,1.217,0,0,0-1.054-.528,1.2,1.2,0,0,0-1.041.524A2.857,2.857,0,0,0,50.6-3.367ZM62.8.127A3.372,3.372,0,0,1,60.344-.8,3.294,3.294,0,0,1,59.4-3.269v-.178a4.149,4.149,0,0,1,.4-1.85,2.935,2.935,0,0,1,1.133-1.257A3.18,3.18,0,0,1,62.6-7a2.85,2.85,0,0,1,2.219.889,3.611,3.611,0,0,1,.809,2.52v.749H61.255a1.7,1.7,0,0,0,.536,1.079,1.621,1.621,0,0,0,1.133.406,1.98,1.98,0,0,0,1.657-.768l.9,1.009A2.754,2.754,0,0,1,64.365-.2,3.665,3.665,0,0,1,62.8.127Zm-.209-5.643a1.146,1.146,0,0,0-.885.37,1.915,1.915,0,0,0-.435,1.058h2.552v-.147a1.366,1.366,0,0,0-.33-.947A1.183,1.183,0,0,0,62.594-5.516Zm5.764-1.352.057.793A2.4,2.4,0,0,1,70.389-7a1.993,1.993,0,0,1,1.625.641,2.991,2.991,0,0,1,.546,1.917V0H70.726V-4.393a1.19,1.19,0,0,0-.254-.847,1.137,1.137,0,0,0-.844-.263,1.262,1.262,0,0,0-1.162.66V0H66.631V-6.868Zm8.753,7A3.372,3.372,0,0,1,74.652-.8,3.294,3.294,0,0,1,73.7-3.269v-.178a4.149,4.149,0,0,1,.4-1.85,2.935,2.935,0,0,1,1.133-1.257A3.18,3.18,0,0,1,76.908-7a2.85,2.85,0,0,1,2.219.889,3.611,3.611,0,0,1,.809,2.52v.749H75.563A1.7,1.7,0,0,0,76.1-1.758a1.621,1.621,0,0,0,1.133.406,1.98,1.98,0,0,0,1.657-.768l.9,1.009A2.754,2.754,0,0,1,78.673-.2,3.665,3.665,0,0,1,77.111.127ZM76.9-5.516a1.146,1.146,0,0,0-.885.37,1.915,1.915,0,0,0-.435,1.058h2.552v-.147a1.366,1.366,0,0,0-.33-.947A1.183,1.183,0,0,0,76.9-5.516Zm7.935.368a4.984,4.984,0,0,0-.66-.051,1.344,1.344,0,0,0-1.365.7V0H80.977V-6.868H82.71l.051.819A1.7,1.7,0,0,1,84.291-7a1.922,1.922,0,0,1,.571.083Zm.378,1.663a4.025,4.025,0,0,1,.752-2.545A2.437,2.437,0,0,1,87.995-7a2.138,2.138,0,0,1,1.758.774l.076-.647h1.663v6.64a2.935,2.935,0,0,1-.409,1.568,2.629,2.629,0,0,1-1.152,1.016,4.05,4.05,0,0,1-1.739.349,3.766,3.766,0,0,1-1.473-.3,2.614,2.614,0,0,1-1.085-.778L86.446.508a2.149,2.149,0,0,0,1.663.768,1.573,1.573,0,0,0,1.136-.39,1.464,1.464,0,0,0,.406-1.108V-.59a2.122,2.122,0,0,1-1.669.717,2.431,2.431,0,0,1-2-.968,4.024,4.024,0,0,1-.765-2.568Zm1.834.137a2.506,2.506,0,0,0,.375,1.465,1.191,1.191,0,0,0,1.028.531,1.274,1.274,0,0,0,1.2-.629V-4.874A1.271,1.271,0,0,0,88.465-5.5a1.2,1.2,0,0,0-1.038.54A2.825,2.825,0,0,0,87.049-3.348ZM94.882,0H93.048V-6.868h1.834Zm-.54-9.655h2L94.584-7.687H93.092ZM100.443,0a2.037,2.037,0,0,1-.184-.616,2.22,2.22,0,0,1-1.733.743,2.439,2.439,0,0,1-1.673-.584A1.878,1.878,0,0,1,96.19-1.93,1.941,1.941,0,0,1,97-3.605a3.994,3.994,0,0,1,2.339-.59h.844v-.394a1.132,1.132,0,0,0-.244-.762.961.961,0,0,0-.771-.286,1.093,1.093,0,0,0-.727.222.755.755,0,0,0-.263.609H96.342a1.843,1.843,0,0,1,.368-1.1,2.434,2.434,0,0,1,1.041-.8A3.794,3.794,0,0,1,99.262-7a3,3,0,0,1,2.015.638,2.232,2.232,0,0,1,.746,1.793v2.977A3.284,3.284,0,0,0,102.3-.108V0ZM98.925-1.276a1.58,1.58,0,0,0,.749-.181,1.188,1.188,0,0,0,.508-.486V-3.123H99.5q-1.377,0-1.466.952l-.006.108a.734.734,0,0,0,.241.565A.937.937,0,0,0,98.925-1.276Zm13.927-2.095a4.119,4.119,0,0,1-.72,2.542,2.31,2.31,0,0,1-1.946.955A2.14,2.14,0,0,1,108.5-.6V2.641H106.67V-6.868h1.7l.063.673a2.156,2.156,0,0,1,1.739-.8,2.326,2.326,0,0,1,1.974.939,4.231,4.231,0,0,1,.7,2.59ZM111.018-3.5a2.7,2.7,0,0,0-.34-1.479,1.106,1.106,0,0,0-.987-.521,1.2,1.2,0,0,0-1.187.66v2.812a1.222,1.222,0,0,0,1.2.679Q111.018-1.352,111.018-3.5ZM113.7-3.5a4.073,4.073,0,0,1,.394-1.822,2.881,2.881,0,0,1,1.133-1.238A3.306,3.306,0,0,1,116.946-7a3.127,3.127,0,0,1,2.269.851,3.414,3.414,0,0,1,.981,2.311l.013.47a3.59,3.59,0,0,1-.882,2.536,3.067,3.067,0,0,1-2.368.955,3.082,3.082,0,0,1-2.371-.952,3.653,3.653,0,0,1-.885-2.59Zm1.834.13a2.567,2.567,0,0,0,.368,1.5,1.215,1.215,0,0,0,1.054.518A1.217,1.217,0,0,0,118-1.864a2.809,2.809,0,0,0,.375-1.637A2.542,2.542,0,0,0,118-4.988a1.217,1.217,0,0,0-1.054-.528,1.2,1.2,0,0,0-1.041.524A2.857,2.857,0,0,0,115.537-3.367ZM125.2-5.148a4.984,4.984,0,0,0-.66-.051,1.344,1.344,0,0,0-1.365.7V0h-1.834V-6.868h1.733l.051.819A1.7,1.7,0,0,1,124.653-7a1.922,1.922,0,0,1,.571.083ZM132.479.127a3.372,3.372,0,0,1-2.46-.927,3.294,3.294,0,0,1-.949-2.469v-.178a4.149,4.149,0,0,1,.4-1.85A2.935,2.935,0,0,1,130.6-6.554,3.18,3.18,0,0,1,132.276-7a2.85,2.85,0,0,1,2.219.889,3.611,3.611,0,0,1,.809,2.52v.749H130.93a1.7,1.7,0,0,0,.536,1.079,1.621,1.621,0,0,0,1.133.406,1.98,1.98,0,0,0,1.657-.768l.9,1.009a2.754,2.754,0,0,1-1.117.911A3.665,3.665,0,0,1,132.479.127Zm-.209-5.643a1.146,1.146,0,0,0-.885.37,1.915,1.915,0,0,0-.435,1.058H133.5v-.147a1.366,1.366,0,0,0-.33-.947A1.183,1.183,0,0,0,132.27-5.516Zm5.764-1.352.057.793A2.4,2.4,0,0,1,140.065-7a1.993,1.993,0,0,1,1.625.641,2.991,2.991,0,0,1,.546,1.917V0H140.4V-4.393a1.19,1.19,0,0,0-.254-.847A1.137,1.137,0,0,0,139.3-5.5a1.262,1.262,0,0,0-1.162.66V0h-1.834V-6.868Zm8.753,7a3.372,3.372,0,0,1-2.46-.927,3.294,3.294,0,0,1-.949-2.469v-.178a4.149,4.149,0,0,1,.4-1.85,2.935,2.935,0,0,1,1.133-1.257A3.18,3.18,0,0,1,146.584-7a2.85,2.85,0,0,1,2.219.889,3.611,3.611,0,0,1,.809,2.52v.749h-4.374a1.7,1.7,0,0,0,.536,1.079,1.621,1.621,0,0,0,1.133.406,1.98,1.98,0,0,0,1.657-.768l.9,1.009a2.754,2.754,0,0,1-1.117.911A3.665,3.665,0,0,1,146.787.127Zm-.209-5.643a1.146,1.146,0,0,0-.885.37,1.915,1.915,0,0,0-.435,1.058h2.552v-.147a1.366,1.366,0,0,0-.33-.947A1.183,1.183,0,0,0,146.577-5.516Zm7.935.368a4.984,4.984,0,0,0-.66-.051,1.344,1.344,0,0,0-1.365.7V0h-1.834V-6.868h1.733l.051.819A1.7,1.7,0,0,1,153.966-7a1.922,1.922,0,0,1,.571.083Zm.378,1.663a4.025,4.025,0,0,1,.752-2.545A2.437,2.437,0,0,1,157.67-7a2.138,2.138,0,0,1,1.758.774l.076-.647h1.663v6.64a2.935,2.935,0,0,1-.409,1.568,2.629,2.629,0,0,1-1.152,1.016,4.05,4.05,0,0,1-1.739.349,3.766,3.766,0,0,1-1.473-.3,2.614,2.614,0,0,1-1.085-.778l.813-1.117a2.149,2.149,0,0,0,1.663.768,1.573,1.573,0,0,0,1.136-.39,1.464,1.464,0,0,0,.406-1.108V-.59a2.122,2.122,0,0,1-1.669.717,2.431,2.431,0,0,1-2-.968,4.024,4.024,0,0,1-.765-2.568Zm1.834.137a2.506,2.506,0,0,0,.375,1.465,1.191,1.191,0,0,0,1.028.531,1.274,1.274,0,0,0,1.2-.629V-4.874A1.271,1.271,0,0,0,158.14-5.5a1.2,1.2,0,0,0-1.038.54A2.825,2.825,0,0,0,156.724-3.348ZM165.738.127a3.372,3.372,0,0,1-2.46-.927,3.294,3.294,0,0,1-.949-2.469v-.178a4.149,4.149,0,0,1,.4-1.85,2.935,2.935,0,0,1,1.133-1.257A3.18,3.18,0,0,1,165.535-7a2.85,2.85,0,0,1,2.219.889,3.611,3.611,0,0,1,.809,2.52v.749h-4.374a1.7,1.7,0,0,0,.536,1.079,1.621,1.621,0,0,0,1.133.406,1.98,1.98,0,0,0,1.657-.768l.9,1.009A2.754,2.754,0,0,1,167.3-.2,3.665,3.665,0,0,1,165.738.127Zm-.209-5.643a1.146,1.146,0,0,0-.885.37,1.915,1.915,0,0,0-.435,1.058h2.552v-.147a1.366,1.366,0,0,0-.33-.947A1.183,1.183,0,0,0,165.529-5.516Zm.165-4.234h2l-1.758,1.968h-1.492ZM171.8-8.557v1.688h1.174v1.346H171.8v3.428a.818.818,0,0,0,.146.546.733.733,0,0,0,.559.165,2.925,2.925,0,0,0,.54-.044v1.39a3.776,3.776,0,0,1-1.111.165,1.752,1.752,0,0,1-1.968-1.949v-3.7h-1V-6.868h1V-8.557ZM175.932,0h-1.841V-6.868h1.841Zm-1.949-8.646a.9.9,0,0,1,.276-.679,1.037,1.037,0,0,1,.752-.267,1.04,1.04,0,0,1,.749.267.9.9,0,0,1,.279.679.9.9,0,0,1-.282.686,1.042,1.042,0,0,1-.746.267,1.042,1.042,0,0,1-.746-.267A.9.9,0,0,1,173.984-8.646ZM180.3-1.352a1.2,1.2,0,0,0,.825-.279.979.979,0,0,0,.33-.743h1.72a2.353,2.353,0,0,1-.381,1.279,2.513,2.513,0,0,1-1.025.9,3.208,3.208,0,0,1-1.438.321,2.982,2.982,0,0,1-2.323-.936,3.705,3.705,0,0,1-.851-2.587v-.121A3.663,3.663,0,0,1,178-6.049,2.947,2.947,0,0,1,180.319-7a2.889,2.889,0,0,1,2.066.733,2.6,2.6,0,0,1,.79,1.952h-1.72a1.261,1.261,0,0,0-.33-.871,1.1,1.1,0,0,0-.838-.335,1.1,1.1,0,0,0-.968.467,2.708,2.708,0,0,0-.327,1.516v.191a2.742,2.742,0,0,0,.324,1.526A1.119,1.119,0,0,0,180.3-1.352ZM183.937-3.5a4.073,4.073,0,0,1,.394-1.822,2.881,2.881,0,0,1,1.133-1.238A3.306,3.306,0,0,1,187.181-7a3.128,3.128,0,0,1,2.269.851,3.414,3.414,0,0,1,.981,2.311l.013.47a3.59,3.59,0,0,1-.882,2.536,3.067,3.067,0,0,1-2.368.955,3.082,3.082,0,0,1-2.371-.952,3.653,3.653,0,0,1-.885-2.59Zm1.834.13a2.567,2.567,0,0,0,.368,1.5,1.215,1.215,0,0,0,1.054.518,1.217,1.217,0,0,0,1.041-.512,2.809,2.809,0,0,0,.375-1.637,2.542,2.542,0,0,0-.375-1.488,1.217,1.217,0,0,0-1.054-.528,1.2,1.2,0,0,0-1.041.524A2.857,2.857,0,0,0,185.771-3.367Z" transform="translate(218.712 9.836)"/>
    </g>
  </g>
  <path id="Trazado_699202" data-name="Trazado 699202" d="M8.081-3.079A3.27,3.27,0,0,1,6.979-.73,3.868,3.868,0,0,1,4.361.127a3.478,3.478,0,0,1-2.8-1.2A4.906,4.906,0,0,1,.546-4.354v-.565a5.54,5.54,0,0,1,.47-2.349A3.52,3.52,0,0,1,2.358-8.826a3.761,3.761,0,0,1,2.028-.543,3.768,3.768,0,0,1,2.577.857,3.515,3.515,0,0,1,1.13,2.406h-1.9a1.93,1.93,0,0,0-.5-1.3,1.845,1.845,0,0,0-1.3-.4,1.618,1.618,0,0,0-1.425.682,3.824,3.824,0,0,0-.486,2.117v.7a4.093,4.093,0,0,0,.454,2.19,1.588,1.588,0,0,0,1.431.692,1.88,1.88,0,0,0,1.317-.4,1.821,1.821,0,0,0,.5-1.247ZM8.925-3.5a4.073,4.073,0,0,1,.394-1.822,2.881,2.881,0,0,1,1.133-1.238A3.306,3.306,0,0,1,12.168-7a3.128,3.128,0,0,1,2.269.851,3.414,3.414,0,0,1,.981,2.311l.013.47a3.59,3.59,0,0,1-.882,2.536,3.067,3.067,0,0,1-2.368.955A3.082,3.082,0,0,1,9.81-.825a3.653,3.653,0,0,1-.885-2.59Zm1.834.13a2.567,2.567,0,0,0,.368,1.5,1.215,1.215,0,0,0,1.054.518,1.217,1.217,0,0,0,1.041-.512A2.809,2.809,0,0,0,13.6-3.5a2.542,2.542,0,0,0-.375-1.488,1.217,1.217,0,0,0-1.054-.528,1.2,1.2,0,0,0-1.041.524A2.857,2.857,0,0,0,10.759-3.367Zm7.49-3.5.057.793A2.4,2.4,0,0,1,20.281-7a1.993,1.993,0,0,1,1.625.641,2.991,2.991,0,0,1,.546,1.917V0H20.617V-4.393a1.19,1.19,0,0,0-.254-.847,1.137,1.137,0,0,0-.844-.263,1.262,1.262,0,0,0-1.162.66V0H16.523V-6.868ZM27.562-1.9a.591.591,0,0,0-.333-.53,3.785,3.785,0,0,0-1.07-.346q-2.45-.514-2.45-2.082a1.887,1.887,0,0,1,.759-1.527A3.06,3.06,0,0,1,26.451-7a3.293,3.293,0,0,1,2.092.616,1.94,1.94,0,0,1,.784,1.6H27.492a.888.888,0,0,0-.254-.651,1.075,1.075,0,0,0-.793-.257,1.1,1.1,0,0,0-.717.209.661.661,0,0,0-.254.533.565.565,0,0,0,.289.492,2.971,2.971,0,0,0,.974.324,7.958,7.958,0,0,1,1.155.308,1.9,1.9,0,0,1,1.454,1.847,1.792,1.792,0,0,1-.806,1.52,3.478,3.478,0,0,1-2.082.581,3.632,3.632,0,0,1-1.533-.308,2.572,2.572,0,0,1-1.051-.844,1.962,1.962,0,0,1-.381-1.158h1.739a.958.958,0,0,0,.362.749,1.435,1.435,0,0,0,.9.26,1.328,1.328,0,0,0,.8-.2A.622.622,0,0,0,27.562-1.9ZM34.639-.7A2.3,2.3,0,0,1,32.76.127a2.17,2.17,0,0,1-1.685-.635,2.71,2.71,0,0,1-.594-1.86v-4.5h1.834v4.442q0,1.074.978,1.074A1.325,1.325,0,0,0,34.576-2V-6.868h1.841V0H34.69Zm4.881-6.17.057.768A2.414,2.414,0,0,1,41.552-7a1.832,1.832,0,0,1,1.822,1.047A2.358,2.358,0,0,1,45.437-7a2.049,2.049,0,0,1,1.663.651,2.991,2.991,0,0,1,.546,1.958V0H45.8V-4.38a1.308,1.308,0,0,0-.229-.854,1.013,1.013,0,0,0-.806-.27,1.145,1.145,0,0,0-1.143.787L43.634,0H41.8V-4.374a1.292,1.292,0,0,0-.235-.863,1.023,1.023,0,0,0-.8-.267,1.189,1.189,0,0,0-1.13.647V0H37.8V-6.868ZM48.769-3.5a4.073,4.073,0,0,1,.394-1.822A2.881,2.881,0,0,1,50.3-6.557,3.306,3.306,0,0,1,52.013-7a3.128,3.128,0,0,1,2.269.851,3.414,3.414,0,0,1,.981,2.311l.013.47a3.59,3.59,0,0,1-.882,2.536,3.067,3.067,0,0,1-2.368.955,3.082,3.082,0,0,1-2.371-.952,3.653,3.653,0,0,1-.885-2.59Zm1.834.13a2.567,2.567,0,0,0,.368,1.5,1.215,1.215,0,0,0,1.054.518,1.217,1.217,0,0,0,1.041-.512A2.809,2.809,0,0,0,53.441-3.5a2.542,2.542,0,0,0-.375-1.488,1.217,1.217,0,0,0-1.054-.528,1.2,1.2,0,0,0-1.041.524A2.857,2.857,0,0,0,50.6-3.367ZM60.087,0V-5.522H59.065V-6.868h1.022v-.317a2.576,2.576,0,0,1,.8-2,3.205,3.205,0,0,1,2.212-.7,7.338,7.338,0,0,1,2.082.375l-.267,1.517a8.123,8.123,0,0,0-.965-.238,4.741,4.741,0,0,0-.736-.054q-1.282,0-1.282,1.136v.279H63.28v1.346H61.928V0Zm5.948,0H64.194V-6.868h1.841ZM69.24-6.868l.057.793A2.4,2.4,0,0,1,71.271-7a1.993,1.993,0,0,1,1.625.641,2.991,2.991,0,0,1,.546,1.917V0H71.608V-4.393a1.19,1.19,0,0,0-.254-.847A1.137,1.137,0,0,0,70.51-5.5a1.262,1.262,0,0,0-1.162.66V0H67.514V-6.868ZM78.813,0a2.037,2.037,0,0,1-.184-.616A2.22,2.22,0,0,1,76.9.127a2.439,2.439,0,0,1-1.673-.584A1.878,1.878,0,0,1,74.56-1.93a1.941,1.941,0,0,1,.809-1.676,3.994,3.994,0,0,1,2.339-.59h.844v-.394a1.132,1.132,0,0,0-.244-.762.961.961,0,0,0-.771-.286,1.093,1.093,0,0,0-.727.222.755.755,0,0,0-.263.609H74.712a1.843,1.843,0,0,1,.368-1.1,2.434,2.434,0,0,1,1.041-.8A3.794,3.794,0,0,1,77.632-7a3,3,0,0,1,2.015.638,2.232,2.232,0,0,1,.746,1.793v2.977a3.284,3.284,0,0,0,.273,1.479V0ZM77.3-1.276a1.58,1.58,0,0,0,.749-.181,1.188,1.188,0,0,0,.508-.486V-3.123h-.686q-1.377,0-1.466.952l-.006.108a.734.734,0,0,0,.241.565A.937.937,0,0,0,77.3-1.276ZM83.738,0H81.9V-9.75h1.841Zm1.6-.9a.924.924,0,0,1,.3-.711,1.047,1.047,0,0,1,.74-.273,1.056,1.056,0,0,1,.746.273.924.924,0,0,1,.3.711.911.911,0,0,1-.292.7,1.06,1.06,0,0,1-.749.27A1.052,1.052,0,0,1,85.63-.2.911.911,0,0,1,85.338-.9Zm0-5.2a.924.924,0,0,1,.3-.711,1.047,1.047,0,0,1,.74-.273,1.056,1.056,0,0,1,.746.273.924.924,0,0,1,.3.711.911.911,0,0,1-.292.7,1.06,1.06,0,0,1-.749.27,1.052,1.052,0,0,1-.743-.27A.911.911,0,0,1,85.338-6.1Zm8.931,2.622h1.047V-2H94.269V0H92.435V-2h-3.79l-.083-1.155,3.853-6.087h1.854Zm-3.878,0h2.044V-6.741l-.121.209Zm10.2-.216a2.316,2.316,0,0,1-1.676.7,2.477,2.477,0,0,1-1.961-.841A3.324,3.324,0,0,1,96.218-6.1a3.54,3.54,0,0,1,.4-1.666,2.91,2.91,0,0,1,1.108-1.181,3.073,3.073,0,0,1,1.6-.422,2.939,2.939,0,0,1,1.625.457,3,3,0,0,1,1.1,1.314,4.718,4.718,0,0,1,.4,1.961v.679A5.346,5.346,0,0,1,101.3-1.327,4.344,4.344,0,0,1,98.046.083L97.6.089v-1.53L98-1.447Q100.395-1.555,100.591-3.694Zm-1.225-.7a1.283,1.283,0,0,0,.765-.229,1.527,1.527,0,0,0,.486-.552v-.755a2.522,2.522,0,0,0-.355-1.447,1.1,1.1,0,0,0-.952-.514,1.071,1.071,0,0,0-.908.5,2.146,2.146,0,0,0-.355,1.266,2.088,2.088,0,0,0,.346,1.241A1.127,1.127,0,0,0,99.366-4.393Zm9.82.914h1.047V-2h-1.047V0h-1.834V-2h-3.79l-.083-1.155,3.853-6.087h1.854Zm-3.878,0h2.044V-6.741l-.121.209ZM111.389-.9a.924.924,0,0,1,.3-.711,1.047,1.047,0,0,1,.74-.273,1.056,1.056,0,0,1,.746.273.924.924,0,0,1,.3.711.911.911,0,0,1-.292.7,1.06,1.06,0,0,1-.749.27,1.052,1.052,0,0,1-.743-.27A.911.911,0,0,1,111.389-.9Zm3.878-3.644.533-4.7h5.18v1.53H117.3l-.229,1.987a2.908,2.908,0,0,1,1.39-.349,2.664,2.664,0,0,1,2.069.819,3.271,3.271,0,0,1,.749,2.292,3.351,3.351,0,0,1-.378,1.6,2.666,2.666,0,0,1-1.082,1.1,3.379,3.379,0,0,1-1.663.39,3.588,3.588,0,0,1-1.555-.34,2.759,2.759,0,0,1-1.133-.955,2.6,2.6,0,0,1-.441-1.4h1.815a1.356,1.356,0,0,0,.4.9,1.278,1.278,0,0,0,.9.321,1.128,1.128,0,0,0,.958-.448,2.073,2.073,0,0,0,.336-1.266,1.714,1.714,0,0,0-.387-1.206,1.421,1.421,0,0,0-1.1-.419,1.588,1.588,0,0,0-1.06.343l-.178.165ZM127.88-3.479h1.047V-2H127.88V0h-1.834V-2h-3.79l-.083-1.155,3.853-6.087h1.854Zm-3.878,0h2.044V-6.741l-.121.209ZM134.367,0h-1.834V-7.071l-2.19.679V-7.884l3.828-1.371h.2Zm10.156-7.7h-2.831V0h-1.9V-7.7H137V-9.242h7.528ZM146.6-9.242h1.9v6.4a3.06,3.06,0,0,1-.39,1.558,2.649,2.649,0,0,1-1.1,1.044,3.441,3.441,0,0,1-1.606.368,3.27,3.27,0,0,1-2.285-.746,2.71,2.71,0,0,1-.819-2.111h1.917a1.486,1.486,0,0,0,.286,1,1.143,1.143,0,0,0,.9.324,1.091,1.091,0,0,0,.87-.375,1.582,1.582,0,0,0,.324-1.066Z" transform="translate(241.892 27.812)"/>
  <path id="Trazado_699203" data-name="Trazado 699203" d="M.825,0V-9.242H4.063A4.251,4.251,0,0,1,6.614-8.6a2.2,2.2,0,0,1,.87,1.888,2.088,2.088,0,0,1-.349,1.2,2.017,2.017,0,0,1-.971.759,1.951,1.951,0,0,1,1.12.717,2.121,2.121,0,0,1,.409,1.32A2.439,2.439,0,0,1,6.843-.7,3.829,3.829,0,0,1,4.418,0Zm1.9-4.024V-1.53H4.361A1.574,1.574,0,0,0,5.411-1.85a1.1,1.1,0,0,0,.378-.885A1.161,1.161,0,0,0,4.475-4.024Zm0-1.346H4.139Q5.58-5.4,5.58-6.519a1.062,1.062,0,0,0-.365-.9A1.92,1.92,0,0,0,4.063-7.7H2.729ZM14.682-4.005H11.026V-1.53h4.291V0h-6.2V-9.242H15.3V-7.7H11.026v2.2h3.656Zm9.007.927a3.27,3.27,0,0,1-1.1,2.349A3.868,3.868,0,0,1,19.97.127a3.478,3.478,0,0,1-2.8-1.2,4.906,4.906,0,0,1-1.019-3.285v-.565a5.54,5.54,0,0,1,.47-2.349,3.52,3.52,0,0,1,1.343-1.558A3.761,3.761,0,0,1,20-9.369a3.768,3.768,0,0,1,2.577.857A3.515,3.515,0,0,1,23.7-6.106H21.8a1.93,1.93,0,0,0-.5-1.3,1.845,1.845,0,0,0-1.3-.4,1.618,1.618,0,0,0-1.425.682,3.824,3.824,0,0,0-.486,2.117v.7a4.093,4.093,0,0,0,.454,2.19,1.588,1.588,0,0,0,1.431.692,1.88,1.88,0,0,0,1.317-.4,1.821,1.821,0,0,0,.5-1.247Zm8.842-1.333a5.579,5.579,0,0,1-.482,2.393A3.633,3.633,0,0,1,30.669-.432a3.819,3.819,0,0,1-2.06.559,3.845,3.845,0,0,1-2.05-.552A3.669,3.669,0,0,1,25.162-2a5.42,5.42,0,0,1-.5-2.358v-.457a5.55,5.55,0,0,1,.492-2.4,3.663,3.663,0,0,1,1.39-1.593A3.824,3.824,0,0,1,28.6-9.369a3.824,3.824,0,0,1,2.053.555A3.663,3.663,0,0,1,32.04-7.22a5.534,5.534,0,0,1,.492,2.4ZM30.6-4.831a3.889,3.889,0,0,0-.521-2.209A1.7,1.7,0,0,0,28.6-7.795a1.7,1.7,0,0,0-1.479.746,3.845,3.845,0,0,0-.527,2.187v.451a3.938,3.938,0,0,0,.521,2.2,1.692,1.692,0,0,0,1.5.781,1.677,1.677,0,0,0,1.473-.752A3.915,3.915,0,0,0,30.6-4.38ZM43.291,0H36.956V-1.257l2.99-3.187a7.376,7.376,0,0,0,.911-1.174,1.887,1.887,0,0,0,.3-.952,1.412,1.412,0,0,0-.311-.968,1.123,1.123,0,0,0-.889-.352,1.211,1.211,0,0,0-.981.428,1.7,1.7,0,0,0-.359,1.127H36.772a3.03,3.03,0,0,1,.4-1.542,2.841,2.841,0,0,1,1.139-1.095,3.463,3.463,0,0,1,1.669-.4,3.279,3.279,0,0,1,2.219.686,2.425,2.425,0,0,1,.79,1.936,3.108,3.108,0,0,1-.355,1.4,7.761,7.761,0,0,1-1.219,1.657l-2.1,2.215h3.974Zm7.344-3.821a4.682,4.682,0,0,1-.793,2.933A2.77,2.77,0,0,1,47.519.127a2.789,2.789,0,0,1-2.311-1,4.545,4.545,0,0,1-.819-2.856v-1.7a4.621,4.621,0,0,1,.8-2.939,2.79,2.79,0,0,1,2.314-1,2.793,2.793,0,0,1,2.311.993,4.531,4.531,0,0,1,.819,2.853ZM48.8-5.692a3.384,3.384,0,0,0-.314-1.674,1.062,1.062,0,0,0-.981-.524,1.043,1.043,0,0,0-.955.5,3.167,3.167,0,0,0-.327,1.56v2.249A3.553,3.553,0,0,0,46.531-1.9a1.048,1.048,0,0,0,.987.55,1.03,1.03,0,0,0,.971-.527A3.468,3.468,0,0,0,48.8-3.493ZM56.329,0H54.495V-7.071l-2.19.679V-7.884l3.828-1.371h.2ZM59.6-4.545l.533-4.7h5.18v1.53H61.642l-.229,1.987a2.908,2.908,0,0,1,1.39-.349,2.664,2.664,0,0,1,2.069.819,3.271,3.271,0,0,1,.749,2.292,3.351,3.351,0,0,1-.378,1.6,2.666,2.666,0,0,1-1.082,1.1A3.379,3.379,0,0,1,62.5.127a3.588,3.588,0,0,1-1.555-.34,2.758,2.758,0,0,1-1.133-.955,2.6,2.6,0,0,1-.441-1.4h1.815a1.356,1.356,0,0,0,.4.9,1.278,1.278,0,0,0,.9.321,1.128,1.128,0,0,0,.958-.448,2.073,2.073,0,0,0,.336-1.266A1.714,1.714,0,0,0,63.4-4.272a1.421,1.421,0,0,0-1.1-.419,1.588,1.588,0,0,0-1.06.343l-.178.165Z" transform="translate(290.7 45.789)"/>
  <g id="Grupo_973793" data-name="Grupo 973793">
    <g id="Grupo_973792" data-name="Grupo 973792" clip-path="url(#clip-path)">
      <path id="Trazado_699107" data-name="Trazado 699107" d="M54.93,168.007A94.853,94.853,0,0,1,214.87,98.984l34.8-42.632A149.8,149.8,0,0,0,0,168.007c0,1.114.018,2.222.042,3.331H55.015c-.04-1.109-.085-2.214-.085-3.331" transform="translate(0 12.094)" fill="#0a9444"/>
      <path id="Trazado_699108" data-name="Trazado 699108" d="M148.611,125.073c0,1.337-.045,2.662-.1,3.985l54.93,1.287c.06-1.749.1-3.506.1-5.272a149.85,149.85,0,0,0-6.056-42.266L144.576,97.675a94.843,94.843,0,0,1,4.035,27.4" transform="translate(96.076 55.028)" fill="#d6df35"/>
      <path id="Trazado_699109" data-name="Trazado 699109" d="M145.441,128.619l53.169,13.946a149.721,149.721,0,0,0,4.253-30.686l-54.928-1.287a94.757,94.757,0,0,1-2.493,18.027" transform="translate(96.651 73.492)" fill="#f3ec3b"/>
      <path id="Trazado_699110" data-name="Trazado 699110" d="M154.869,125.378l52.909-14.868a149.851,149.851,0,0,0-43.889-69.391l-34.8,42.634a94.847,94.847,0,0,1,25.782,41.625" transform="translate(85.783 27.325)" fill="#8cc641"/>
      <path id="Trazado_699111" data-name="Trazado 699111" d="M149.792,201.748A94.859,94.859,0,0,1,55,110.2H.025a149.815,149.815,0,0,0,275.762,77.734l-46.634-29.088a94.781,94.781,0,0,1-79.362,42.9" transform="translate(0.017 73.232)" fill="#05683a"/>
      <path id="Trazado_699112" data-name="Trazado 699112" d="M139.852,139.51l48.4,26.027q3.473-6.322,6.342-13l-50.247-22.232a94.641,94.641,0,0,1-4.494,9.2" transform="translate(92.937 86.594)" fill="#f69323"/>
      <path id="Trazado_699113" data-name="Trazado 699113" d="M147.362,121.422a94.2,94.2,0,0,1-4.811,14.789L192.8,158.443a148.523,148.523,0,0,0,7.732-23.075Z" transform="translate(94.73 80.689)" fill="#fcb040"/>
      <path id="Trazado_699114" data-name="Trazado 699114" d="M137.678,141.808,184.313,170.9q2.846-4.414,5.383-9.035l-48.4-26.027q-1.7,3.059-3.619,5.972" transform="translate(91.492 90.268)" fill="#fa582a"/>
      <path id="Trazado_699115" data-name="Trazado 699115" d="M172.378,107.35l17.478-12.484H202.34" transform="translate(114.551 63.042)" fill="none" stroke="#000" stroke-miterlimit="10" stroke-width="1"/>
      <line id="Línea_468" data-name="Línea 468" x2="17.756" transform="translate(292.477 202.296)" fill="none" stroke="#000" stroke-miterlimit="10" stroke-width="1"/>
      <path id="Trazado_699116" data-name="Trazado 699116" d="M171.711,135.2l34.4,11.652,45.5,1.665" transform="translate(114.108 89.845)" fill="none" stroke="#000" stroke-miterlimit="10" stroke-width="1"/>
      <path id="Trazado_699117" data-name="Trazado 699117" d="M170.045,146.2l6.1,12.206,7.768-.554" transform="translate(113.001 97.155)" fill="none" stroke="#000" stroke-miterlimit="10" stroke-width="1"/>
      <path id="Trazado_699118" data-name="Trazado 699118" d="M166.045,154.533l14.981,39.949h8.323" transform="translate(110.343 102.692)" fill="none" stroke="#000" stroke-miterlimit="10" stroke-width="1"/>
    </g>
  </g>
</svg>
