<svg xmlns="http://www.w3.org/2000/svg" width="483.017" height="319.496" viewBox="0 0 483.017 319.496">
  <g id="ORGANIZACIONES" transform="translate(-0.005 -0.005)">
    <g id="Grupo_972380" data-name="Grupo 972380" transform="translate(94.51 277.987)">
      <rect id="Rectángulo_339073" data-name="Rectángulo 339073" width="305.485" height="41.014" rx="13.63" fill="none" stroke="#7cc8c6" stroke-miterlimit="10" stroke-width="1"/>
      <g id="Grupo" transform="translate(24.681 2.128)">
        <path id="Trazado_698298" data-name="Trazado 698298" d="M.554,0,2.27-10.021H5.676a3.882,3.882,0,0,1,1.6.239,1.553,1.553,0,0,1,.725.7,3.233,3.233,0,0,1,.324,1.5,3,3,0,0,1-.689,2.075,3.44,3.44,0,0,1-2.066,1,3.448,3.448,0,0,1,.709.853,9.933,9.933,0,0,1,.789,1.763L7.685,0H6.456L5.875-1.866a9.188,9.188,0,0,0-.74-1.8,1.551,1.551,0,0,0-.547-.629,2.012,2.012,0,0,0-.922-.157H2.418L1.656,0ZM2.6-5.537H4.089a9.878,9.878,0,0,0,1.68-.092,1.789,1.789,0,0,0,.776-.362,1.912,1.912,0,0,0,.527-.687A2.153,2.153,0,0,0,7.267-7.6,1.635,1.635,0,0,0,7.1-8.371.941.941,0,0,0,6.691-8.8a2.229,2.229,0,0,0-.877-.12H3.184ZM13.036-2.468l.991.123A3.467,3.467,0,0,1,12.884-.5a2.444,2.444,0,0,1-1.663.663,2.105,2.105,0,0,1-1.184-.352,2.392,2.392,0,0,1-.849-1.053,4.054,4.054,0,0,1-.315-1.671A5.913,5.913,0,0,1,9.355-5.3a3.84,3.84,0,0,1,1.179-1.617,2.51,2.51,0,0,1,1.511-.509,2.09,2.09,0,0,1,1.685.786,3.385,3.385,0,0,1,.653,2.222,8.282,8.282,0,0,1-.075,1.094h-4.4q-.021.218-.021.389a2.584,2.584,0,0,0,.391,1.551,1.146,1.146,0,0,0,.941.528A1.61,1.61,0,0,0,12.25-1.27,2.682,2.682,0,0,0,13.036-2.468Zm-2.959-1.8h3.349v-.254a2.334,2.334,0,0,0-.384-1.461,1.194,1.194,0,0,0-.979-.487,1.628,1.628,0,0,0-1.181.549A3.5,3.5,0,0,0,10.077-4.266Zm4.477,7.048L16.274-7.26h.95l-.178,1.012a3.911,3.911,0,0,1,.946-.93,1.636,1.636,0,0,1,.857-.246,1.7,1.7,0,0,1,1.392.745A3.553,3.553,0,0,1,20.809-4.5a6.41,6.41,0,0,1-.46,2.468A4.218,4.218,0,0,1,19.133-.308a1.931,1.931,0,0,1-1.226.472q-1.07,0-1.655-1.333l-.678,3.951ZM16.56-2.732a2.254,2.254,0,0,0,.371,1.4,1.129,1.129,0,0,0,.928.481,1.137,1.137,0,0,0,.775-.294,3.361,3.361,0,0,0,.823-1.4A5.808,5.808,0,0,0,19.8-4.507a2.343,2.343,0,0,0-.371-1.424,1.1,1.1,0,0,0-.9-.5,1.32,1.32,0,0,0-.857.379A3.182,3.182,0,0,0,16.9-4.712,5.864,5.864,0,0,0,16.56-2.732ZM21.443,0l1.243-7.26h.9l-.254,1.483q.892-1.647,1.791-1.647a1.537,1.537,0,0,1,.749.267l-.416,1.148a.839.839,0,0,0-.558-.232,1.494,1.494,0,0,0-1.113.735,6.272,6.272,0,0,0-.871,2.594L22.407,0Zm8.184-2.468.991.123A3.467,3.467,0,0,1,29.475-.5a2.444,2.444,0,0,1-1.663.663,2.105,2.105,0,0,1-1.184-.352,2.392,2.392,0,0,1-.849-1.053,4.054,4.054,0,0,1-.315-1.671A5.913,5.913,0,0,1,25.946-5.3a3.84,3.84,0,0,1,1.179-1.617,2.51,2.51,0,0,1,1.511-.509,2.09,2.09,0,0,1,1.685.786,3.385,3.385,0,0,1,.653,2.222A8.282,8.282,0,0,1,30.9-3.322H26.5q-.021.218-.021.389a2.584,2.584,0,0,0,.391,1.551,1.146,1.146,0,0,0,.941.528,1.61,1.61,0,0,0,1.026-.415A2.682,2.682,0,0,0,29.627-2.468Zm-2.959-1.8h3.349v-.254a2.334,2.334,0,0,0-.384-1.461,1.194,1.194,0,0,0-.979-.487,1.628,1.628,0,0,0-1.181.549A3.5,3.5,0,0,0,26.668-4.266ZM31.7-2.481l1.012-.075A1.9,1.9,0,0,0,33.1-1.23a1.385,1.385,0,0,0,1.08.438,1.461,1.461,0,0,0,.984-.311,1,1,0,0,0,.362-.8.977.977,0,0,0-.226-.629,3.519,3.519,0,0,0-1-.684,6.839,6.839,0,0,1-1.172-.714,1.715,1.715,0,0,1-.441-.608,1.981,1.981,0,0,1-.157-.8,2.028,2.028,0,0,1,.588-1.5,2.089,2.089,0,0,1,1.545-.588,2.285,2.285,0,0,1,1.675.6,2.353,2.353,0,0,1,.643,1.692l-1,.082A1.483,1.483,0,0,0,35.584-6.1a1.36,1.36,0,0,0-1-.369,1.15,1.15,0,0,0-.8.277.839.839,0,0,0-.308.639.826.826,0,0,0,.185.54,3.262,3.262,0,0,0,.937.622,5.693,5.693,0,0,1,1.47.97,2.071,2.071,0,0,1,.478,1.381,2.137,2.137,0,0,1-.638,1.552,2.37,2.37,0,0,1-1.771.65,2.4,2.4,0,0,1-1.789-.656A2.523,2.523,0,0,1,31.7-2.345Zm10.056.014.991.123A3.467,3.467,0,0,1,41.6-.5a2.444,2.444,0,0,1-1.663.663,2.105,2.105,0,0,1-1.184-.352,2.392,2.392,0,0,1-.849-1.053,4.054,4.054,0,0,1-.315-1.671A5.913,5.913,0,0,1,38.073-5.3a3.84,3.84,0,0,1,1.179-1.617,2.51,2.51,0,0,1,1.511-.509,2.09,2.09,0,0,1,1.685.786A3.385,3.385,0,0,1,43.1-4.416a8.282,8.282,0,0,1-.075,1.094h-4.4q-.021.218-.021.389A2.584,2.584,0,0,0,39-1.383a1.146,1.146,0,0,0,.941.528,1.61,1.61,0,0,0,1.026-.415A2.682,2.682,0,0,0,41.754-2.468Zm-2.959-1.8h3.349v-.254A2.334,2.334,0,0,0,41.76-5.98a1.194,1.194,0,0,0-.979-.487,1.628,1.628,0,0,0-1.181.549A3.5,3.5,0,0,0,38.795-4.266ZM43.764,0l1.243-7.26h.929l-.214,1.265A4.691,4.691,0,0,1,46.9-7.113a2.038,2.038,0,0,1,1.029-.311,1.467,1.467,0,0,1,1.129.467,1.879,1.879,0,0,1,.432,1.325,7.811,7.811,0,0,1-.158,1.243L48.543,0H47.523l.836-4.6a6.252,6.252,0,0,0,.123-1,.793.793,0,0,0-.218-.591.805.805,0,0,0-.592-.215,1.855,1.855,0,0,0-1.395.677,4.733,4.733,0,0,0-.91,2.352L44.783,0Zm8.654-1L52.245.007a2.179,2.179,0,0,1-.684.116,1.23,1.23,0,0,1-.874-.3,1.051,1.051,0,0,1-.322-.807,9.029,9.029,0,0,1,.149-1.109L51.234-6.3h-.8L50.6-7.26h.8L51.7-9l1.166-.854-.445,2.6h.991l-.164.957h-.991L51.568-2.3q-.13.777-.13.914a.491.491,0,0,0,.106.351.419.419,0,0,0,.316.11A1.769,1.769,0,0,0,52.418-1Zm4.94.1a3.852,3.852,0,0,1-1.052.827,2.259,2.259,0,0,1-1,.239A1.712,1.712,0,0,1,53.993-.4a2.192,2.192,0,0,1-.523-1.545,2.346,2.346,0,0,1,.307-1.217,2.032,2.032,0,0,1,.862-.8,4.078,4.078,0,0,1,1.589-.325q.873-.048,1.2-.1a2.119,2.119,0,0,0,.555-.164,3.286,3.286,0,0,0,.146-.848.887.887,0,0,0-.345-.73,1.573,1.573,0,0,0-1-.275,1.645,1.645,0,0,0-1.707,1.313l-1.025-.1a2.735,2.735,0,0,1,2.793-2.229,2.41,2.41,0,0,1,1.666.55,1.777,1.777,0,0,1,.616,1.384,6.6,6.6,0,0,1-.163,1.341l-.39,1.8a6.83,6.83,0,0,0-.187,1.388A5.312,5.312,0,0,0,58.5,0H57.462A5.724,5.724,0,0,1,57.358-.9ZM57.8-3.678a4.48,4.48,0,0,1-1.3.273,4.968,4.968,0,0,0-1.281.246,1.18,1.18,0,0,0-.543.458,1.3,1.3,0,0,0-.195.711,1.206,1.206,0,0,0,.31.875,1.1,1.1,0,0,0,.828.321,1.692,1.692,0,0,0,.945-.3,2.2,2.2,0,0,0,.742-.868A6.523,6.523,0,0,0,57.8-3.678Zm6.037,1.032,1.012.13A4.277,4.277,0,0,1,63.759-.5a2.277,2.277,0,0,1-1.586.66,1.945,1.945,0,0,1-1.562-.745,3.3,3.3,0,0,1-.619-2.16,6.727,6.727,0,0,1,.455-2.522A3.692,3.692,0,0,1,61.6-6.911a2.533,2.533,0,0,1,1.542-.513,1.926,1.926,0,0,1,1.5.643,2.509,2.509,0,0,1,.574,1.764l-1,.082a1.606,1.606,0,0,0-.332-1.09,1.046,1.046,0,0,0-.819-.379,1.5,1.5,0,0,0-.976.359,2.879,2.879,0,0,0-.754,1.326,6.822,6.822,0,0,0-.319,2.143,2.165,2.165,0,0,0,.347,1.33,1.019,1.019,0,0,0,.828.455,1.335,1.335,0,0,0,.948-.458A3.116,3.116,0,0,0,63.841-2.646ZM66.91-8.62l.24-1.4h1.019l-.24,1.4ZM65.434,0l1.243-7.26H67.7L66.453,0ZM68.2-2.755a5.945,5.945,0,0,1,.882-3.315,2.7,2.7,0,0,1,2.365-1.354,2.154,2.154,0,0,1,1.716.8,3.4,3.4,0,0,1,.677,2.266,5.971,5.971,0,0,1-.461,2.406,3.736,3.736,0,0,1-1.2,1.589,2.6,2.6,0,0,1-1.542.53,2.232,2.232,0,0,1-1.75-.783A3.116,3.116,0,0,1,68.2-2.755Zm1.019-.123a2.5,2.5,0,0,0,.41,1.559,1.252,1.252,0,0,0,1.025.526,1.544,1.544,0,0,0,.971-.393,3.144,3.144,0,0,0,.848-1.3,5,5,0,0,0,.362-1.866,2.564,2.564,0,0,0-.41-1.576,1.232,1.232,0,0,0-1.012-.537,1.638,1.638,0,0,0-1.022.39,2.9,2.9,0,0,0-.834,1.289A5.378,5.378,0,0,0,69.221-2.878Zm1.415-5.264,1.053-1.88h1.278l-1.49,1.88ZM74.4,0l1.243-7.26h.929L76.36-5.995a4.691,4.691,0,0,1,1.181-1.118,2.038,2.038,0,0,1,1.029-.311,1.467,1.467,0,0,1,1.129.467,1.879,1.879,0,0,1,.432,1.325,7.812,7.812,0,0,1-.158,1.243L79.182,0H78.162L79-4.6a6.252,6.252,0,0,0,.123-1A.793.793,0,0,0,78.9-6.19a.805.805,0,0,0-.592-.215,1.855,1.855,0,0,0-1.395.677,4.733,4.733,0,0,0-.91,2.352L75.422,0ZM88-.9a3.852,3.852,0,0,1-1.052.827,2.259,2.259,0,0,1-1,.239A1.712,1.712,0,0,1,84.632-.4a2.192,2.192,0,0,1-.523-1.545,2.346,2.346,0,0,1,.307-1.217,2.032,2.032,0,0,1,.862-.8,4.078,4.078,0,0,1,1.589-.325q.873-.048,1.2-.1a2.119,2.119,0,0,0,.555-.164,3.286,3.286,0,0,0,.146-.848.887.887,0,0,0-.345-.73,1.573,1.573,0,0,0-1-.275,1.645,1.645,0,0,0-1.707,1.313L84.69-5.2a2.735,2.735,0,0,1,2.793-2.229,2.41,2.41,0,0,1,1.666.55,1.777,1.777,0,0,1,.616,1.384A6.6,6.6,0,0,1,89.6-4.149l-.39,1.8a6.83,6.83,0,0,0-.187,1.388A5.311,5.311,0,0,0,89.142,0H88.1A5.725,5.725,0,0,1,88-.9Zm.446-2.775a4.48,4.48,0,0,1-1.3.273,4.968,4.968,0,0,0-1.281.246,1.18,1.18,0,0,0-.543.458,1.3,1.3,0,0,0-.195.711,1.206,1.206,0,0,0,.31.875,1.1,1.1,0,0,0,.828.321,1.692,1.692,0,0,0,.945-.3,2.2,2.2,0,0,0,.742-.868A6.523,6.523,0,0,0,88.442-3.678ZM90.357,0,91.6-7.26H92.62l-.2,1.2a4.227,4.227,0,0,1,1.044-1.083,1.789,1.789,0,0,1,.954-.277,1.33,1.33,0,0,1,.933.349,1.768,1.768,0,0,1,.5,1.012,3.568,3.568,0,0,1,.958-1.022,1.881,1.881,0,0,1,1.061-.338,1.433,1.433,0,0,1,1.1.419,1.713,1.713,0,0,1,.393,1.216,6.974,6.974,0,0,1-.143,1.119L98.384,0H97.364l.859-4.8a5.376,5.376,0,0,0,.107-.848.771.771,0,0,0-.192-.564.688.688,0,0,0-.514-.195,1.615,1.615,0,0,0-.89.311,2.212,2.212,0,0,0-.743.854A6.67,6.67,0,0,0,95.5-3.521L94.87,0H93.851l.87-4.9a4.528,4.528,0,0,0,.092-.718.829.829,0,0,0-.19-.574.609.609,0,0,0-.473-.212,1.744,1.744,0,0,0-1.295.687,4.645,4.645,0,0,0-.884,2.287L91.377,0Zm9.577,0,1.716-10.021h1.019l-.616,3.582a3.581,3.581,0,0,1,.887-.769,1.647,1.647,0,0,1,.8-.215,1.7,1.7,0,0,1,1.4.742,3.616,3.616,0,0,1,.568,2.218A6.365,6.365,0,0,1,105.245-2a3.969,3.969,0,0,1-1.13,1.634,2.143,2.143,0,0,1-1.322.53q-1.226,0-1.732-1.544L100.822,0Zm1.5-2.985-.007.259a2.225,2.225,0,0,0,.373,1.4,1.132,1.132,0,0,0,.921.475,1.336,1.336,0,0,0,.863-.358,3.112,3.112,0,0,0,.771-1.325,5.6,5.6,0,0,0,.346-1.895,2.518,2.518,0,0,0-.367-1.492,1.1,1.1,0,0,0-.922-.5,1.344,1.344,0,0,0-.959.485,3.872,3.872,0,0,0-.788,1.6A5.174,5.174,0,0,0,101.438-2.985Zm6.316-5.635.24-1.4h1.019l-.24,1.4ZM106.278,0l1.243-7.26h1.019L107.3,0Zm6.959-2.468.991.123A3.467,3.467,0,0,1,113.085-.5a2.444,2.444,0,0,1-1.663.663,2.105,2.105,0,0,1-1.184-.352,2.392,2.392,0,0,1-.849-1.053,4.054,4.054,0,0,1-.315-1.671,5.913,5.913,0,0,1,.482-2.386,3.84,3.84,0,0,1,1.179-1.617,2.51,2.51,0,0,1,1.511-.509,2.09,2.09,0,0,1,1.685.786,3.385,3.385,0,0,1,.653,2.222,8.282,8.282,0,0,1-.075,1.094h-4.4q-.021.218-.021.389a2.584,2.584,0,0,0,.391,1.551,1.146,1.146,0,0,0,.941.528,1.61,1.61,0,0,0,1.026-.415A2.682,2.682,0,0,0,113.237-2.468Zm-2.959-1.8h3.349v-.254a2.334,2.334,0,0,0-.384-1.461,1.194,1.194,0,0,0-.979-.487,1.628,1.628,0,0,0-1.181.549A3.5,3.5,0,0,0,110.278-4.266ZM115.247,0l1.243-7.26h.929L117.2-5.995a4.691,4.691,0,0,1,1.181-1.118,2.038,2.038,0,0,1,1.029-.311,1.467,1.467,0,0,1,1.129.467,1.879,1.879,0,0,1,.432,1.325,7.812,7.812,0,0,1-.158,1.243L120.026,0h-1.019l.836-4.6a6.252,6.252,0,0,0,.123-1,.793.793,0,0,0-.218-.591.805.805,0,0,0-.592-.215,1.855,1.855,0,0,0-1.395.677,4.733,4.733,0,0,0-.91,2.352L116.266,0ZM123.9-1,123.729.007a2.179,2.179,0,0,1-.684.116,1.23,1.23,0,0,1-.874-.3,1.051,1.051,0,0,1-.322-.807A9.029,9.029,0,0,1,122-2.094l.721-4.209h-.8l.164-.957h.8L123.18-9l1.166-.854-.445,2.6h.991l-.164.957h-.991L123.051-2.3q-.13.777-.13.914a.491.491,0,0,0,.106.351.419.419,0,0,0,.316.11A1.769,1.769,0,0,0,123.9-1Zm5.3-1.463.991.123A3.467,3.467,0,0,1,129.047-.5a2.444,2.444,0,0,1-1.663.663A2.105,2.105,0,0,1,126.2-.188a2.392,2.392,0,0,1-.849-1.053,4.054,4.054,0,0,1-.315-1.671,5.913,5.913,0,0,1,.482-2.386A3.84,3.84,0,0,1,126.7-6.915a2.51,2.51,0,0,1,1.511-.509,2.09,2.09,0,0,1,1.685.786,3.385,3.385,0,0,1,.653,2.222,8.282,8.282,0,0,1-.075,1.094h-4.4q-.021.218-.021.389a2.584,2.584,0,0,0,.391,1.551,1.146,1.146,0,0,0,.941.528,1.61,1.61,0,0,0,1.026-.415A2.682,2.682,0,0,0,129.2-2.468Zm-2.959-1.8h3.349v-.254a2.334,2.334,0,0,0-.384-1.461,1.194,1.194,0,0,0-.979-.487,1.628,1.628,0,0,0-1.181.549A3.5,3.5,0,0,0,126.24-4.266ZM134.354.656l1.025.116V.937a.908.908,0,0,0,.266.711,1.217,1.217,0,0,0,.832.239,1.512,1.512,0,0,0,1.288-.54,4.838,4.838,0,0,0,.518-1.736l.093-.595A2.193,2.193,0,0,1,136.7,0a1.835,1.835,0,0,1-1.494-.8,3.714,3.714,0,0,1-.616-2.307,5.468,5.468,0,0,1,.465-2.239,4,4,0,0,1,1.123-1.565,2.144,2.144,0,0,1,1.327-.516,1.939,1.939,0,0,1,1.765,1.353l.187-1.189h.923L139.3-.254a5.17,5.17,0,0,1-.826,2.284,2.286,2.286,0,0,1-1.89.875,2.481,2.481,0,0,1-1.7-.5,1.752,1.752,0,0,1-.563-1.377A2.819,2.819,0,0,1,134.354.656Zm1.258-3.873a3.752,3.752,0,0,0,.171,1.27,1.545,1.545,0,0,0,.469.693,1.006,1.006,0,0,0,.633.236A1.448,1.448,0,0,0,137.8-1.4a2.962,2.962,0,0,0,.8-1.263,5.073,5.073,0,0,0,.335-1.813,2.274,2.274,0,0,0-.406-1.434,1.205,1.205,0,0,0-.975-.519,1.354,1.354,0,0,0-.915.42,3.006,3.006,0,0,0-.737,1.284A4.91,4.91,0,0,0,135.611-3.217Zm9.55.749.991.123A3.467,3.467,0,0,1,145.009-.5a2.444,2.444,0,0,1-1.663.663,2.105,2.105,0,0,1-1.184-.352,2.392,2.392,0,0,1-.849-1.053A4.054,4.054,0,0,1,141-2.912,5.913,5.913,0,0,1,141.48-5.3a3.84,3.84,0,0,1,1.179-1.617,2.51,2.51,0,0,1,1.511-.509,2.09,2.09,0,0,1,1.685.786,3.385,3.385,0,0,1,.653,2.222,8.282,8.282,0,0,1-.075,1.094h-4.4q-.021.218-.021.389a2.584,2.584,0,0,0,.391,1.551,1.146,1.146,0,0,0,.941.528,1.61,1.61,0,0,0,1.026-.415A2.682,2.682,0,0,0,145.161-2.468Zm-2.959-1.8h3.349v-.254a2.334,2.334,0,0,0-.384-1.461,1.194,1.194,0,0,0-.979-.487,1.628,1.628,0,0,0-1.181.549A3.5,3.5,0,0,0,142.2-4.266ZM147.171,0l1.243-7.26h.929l-.214,1.265a4.691,4.691,0,0,1,1.181-1.118,2.038,2.038,0,0,1,1.029-.311,1.467,1.467,0,0,1,1.129.467,1.879,1.879,0,0,1,.432,1.325,7.811,7.811,0,0,1-.158,1.243L151.95,0h-1.019l.836-4.6a6.251,6.251,0,0,0,.123-1,.793.793,0,0,0-.218-.591.805.805,0,0,0-.592-.215,1.856,1.856,0,0,0-1.395.677,4.733,4.733,0,0,0-.91,2.352L148.19,0Zm10.76-2.468.991.123A3.467,3.467,0,0,1,157.779-.5a2.444,2.444,0,0,1-1.663.663,2.105,2.105,0,0,1-1.184-.352,2.392,2.392,0,0,1-.849-1.053,4.054,4.054,0,0,1-.315-1.671A5.913,5.913,0,0,1,154.25-5.3a3.84,3.84,0,0,1,1.179-1.617,2.51,2.51,0,0,1,1.511-.509,2.09,2.09,0,0,1,1.685.786,3.385,3.385,0,0,1,.653,2.222,8.282,8.282,0,0,1-.075,1.094h-4.4q-.021.218-.021.389a2.584,2.584,0,0,0,.391,1.551,1.146,1.146,0,0,0,.941.528,1.61,1.61,0,0,0,1.026-.415A2.682,2.682,0,0,0,157.931-2.468Zm-2.959-1.8h3.349v-.254a2.334,2.334,0,0,0-.384-1.461,1.194,1.194,0,0,0-.979-.487,1.628,1.628,0,0,0-1.181.549A3.5,3.5,0,0,0,154.971-4.266ZM159.953,0,161.2-7.26h.9l-.254,1.483q.892-1.647,1.791-1.647a1.536,1.536,0,0,1,.749.267l-.416,1.148a.839.839,0,0,0-.558-.232,1.494,1.494,0,0,0-1.113.735,6.272,6.272,0,0,0-.871,2.594L160.917,0Zm7.826-.9a3.852,3.852,0,0,1-1.052.827,2.259,2.259,0,0,1-1,.239A1.712,1.712,0,0,1,164.414-.4a2.192,2.192,0,0,1-.523-1.545,2.346,2.346,0,0,1,.307-1.217,2.032,2.032,0,0,1,.862-.8,4.078,4.078,0,0,1,1.589-.325q.873-.048,1.2-.1a2.119,2.119,0,0,0,.555-.164,3.286,3.286,0,0,0,.146-.848.887.887,0,0,0-.345-.73,1.573,1.573,0,0,0-1-.275A1.645,1.645,0,0,0,165.5-5.093l-1.025-.1a2.735,2.735,0,0,1,2.793-2.229,2.41,2.41,0,0,1,1.666.55,1.777,1.777,0,0,1,.616,1.384,6.6,6.6,0,0,1-.163,1.341l-.39,1.8a6.83,6.83,0,0,0-.187,1.388,5.312,5.312,0,0,0,.116.964h-1.042A5.723,5.723,0,0,1,167.778-.9Zm.446-2.775a4.481,4.481,0,0,1-1.3.273,4.968,4.968,0,0,0-1.281.246,1.18,1.18,0,0,0-.543.458,1.3,1.3,0,0,0-.195.711,1.206,1.206,0,0,0,.31.875,1.1,1.1,0,0,0,.828.321,1.692,1.692,0,0,0,.945-.3,2.2,2.2,0,0,0,.742-.868A6.523,6.523,0,0,0,168.224-3.678ZM170.071,0l1.716-10.021h1.019L171.091,0Zm5.441,2.8.062-1.162a1.852,1.852,0,0,0,.609.109.715.715,0,0,0,.493-.164,2.7,2.7,0,0,0,.548-.854l.322-.7-.992-7.29h1L178-3.585q.137,1.1.233,2.176l2.657-5.851h1.058L178.16.963a4.99,4.99,0,0,1-1,1.614,1.441,1.441,0,0,1-.954.369A1.739,1.739,0,0,1,175.513,2.8ZM188.84-.9a3.852,3.852,0,0,1-1.052.827,2.259,2.259,0,0,1-1,.239A1.712,1.712,0,0,1,185.476-.4a2.192,2.192,0,0,1-.523-1.545,2.346,2.346,0,0,1,.307-1.217,2.032,2.032,0,0,1,.862-.8,4.078,4.078,0,0,1,1.589-.325q.873-.048,1.2-.1a2.119,2.119,0,0,0,.555-.164,3.286,3.286,0,0,0,.146-.848.887.887,0,0,0-.345-.73,1.573,1.573,0,0,0-1-.275,1.645,1.645,0,0,0-1.707,1.313l-1.025-.1a2.735,2.735,0,0,1,2.793-2.229,2.41,2.41,0,0,1,1.666.55,1.777,1.777,0,0,1,.616,1.384,6.6,6.6,0,0,1-.163,1.341l-.39,1.8a6.83,6.83,0,0,0-.187,1.388,5.312,5.312,0,0,0,.116.964h-1.042A5.723,5.723,0,0,1,188.84-.9Zm.446-2.775a4.481,4.481,0,0,1-1.3.273,4.968,4.968,0,0,0-1.281.246,1.18,1.18,0,0,0-.543.458,1.3,1.3,0,0,0-.195.711,1.206,1.206,0,0,0,.31.875,1.1,1.1,0,0,0,.828.321,1.692,1.692,0,0,0,.945-.3,2.2,2.2,0,0,0,.742-.868A6.523,6.523,0,0,0,189.286-3.678ZM191.2,0l1.243-7.26h1.019l-.2,1.2A4.228,4.228,0,0,1,194.3-7.147a1.789,1.789,0,0,1,.954-.277,1.33,1.33,0,0,1,.933.349,1.768,1.768,0,0,1,.5,1.012,3.568,3.568,0,0,1,.958-1.022,1.881,1.881,0,0,1,1.061-.338,1.433,1.433,0,0,1,1.1.419,1.713,1.713,0,0,1,.393,1.216,6.973,6.973,0,0,1-.143,1.119L199.227,0h-1.019l.859-4.8a5.375,5.375,0,0,0,.107-.848.771.771,0,0,0-.192-.564.688.688,0,0,0-.514-.195,1.615,1.615,0,0,0-.89.311,2.212,2.212,0,0,0-.743.854,6.67,6.67,0,0,0-.492,1.719L195.714,0h-1.019l.87-4.9a4.528,4.528,0,0,0,.092-.718.829.829,0,0,0-.19-.574.609.609,0,0,0-.473-.212,1.744,1.744,0,0,0-1.295.687,4.645,4.645,0,0,0-.884,2.287L192.221,0Zm9.577,0,1.716-10.021h1.019L202.9-6.439a3.581,3.581,0,0,1,.887-.769,1.647,1.647,0,0,1,.8-.215,1.7,1.7,0,0,1,1.4.742,3.616,3.616,0,0,1,.568,2.218A6.365,6.365,0,0,1,206.089-2a3.969,3.969,0,0,1-1.13,1.634,2.143,2.143,0,0,1-1.322.53q-1.226,0-1.732-1.544L201.666,0Zm1.5-2.985-.007.259a2.225,2.225,0,0,0,.373,1.4,1.132,1.132,0,0,0,.921.475,1.336,1.336,0,0,0,.863-.358,3.112,3.112,0,0,0,.771-1.325,5.6,5.6,0,0,0,.346-1.895,2.518,2.518,0,0,0-.367-1.492,1.1,1.1,0,0,0-.922-.5,1.344,1.344,0,0,0-.959.485,3.871,3.871,0,0,0-.788,1.6A5.174,5.174,0,0,0,202.282-2.985ZM208.6-8.62l.24-1.4h1.019l-.24,1.4ZM207.122,0l1.243-7.26h1.019L208.141,0Zm6.959-2.468.991.123A3.467,3.467,0,0,1,213.929-.5a2.444,2.444,0,0,1-1.663.663,2.105,2.105,0,0,1-1.184-.352,2.392,2.392,0,0,1-.849-1.053,4.054,4.054,0,0,1-.315-1.671A5.913,5.913,0,0,1,210.4-5.3a3.84,3.84,0,0,1,1.179-1.617,2.51,2.51,0,0,1,1.511-.509,2.09,2.09,0,0,1,1.685.786,3.385,3.385,0,0,1,.653,2.222,8.282,8.282,0,0,1-.075,1.094h-4.4q-.021.218-.021.389a2.584,2.584,0,0,0,.391,1.551,1.146,1.146,0,0,0,.941.528,1.61,1.61,0,0,0,1.026-.415A2.682,2.682,0,0,0,214.081-2.468Zm-2.959-1.8h3.349v-.254a2.334,2.334,0,0,0-.384-1.461,1.194,1.194,0,0,0-.979-.487,1.628,1.628,0,0,0-1.181.549A3.5,3.5,0,0,0,211.122-4.266ZM216.091,0l1.243-7.26h.929l-.214,1.265a4.691,4.691,0,0,1,1.181-1.118,2.038,2.038,0,0,1,1.029-.311,1.467,1.467,0,0,1,1.129.467,1.879,1.879,0,0,1,.432,1.325,7.811,7.811,0,0,1-.158,1.243L220.87,0h-1.019l.836-4.6a6.251,6.251,0,0,0,.123-1,.793.793,0,0,0-.218-.591A.805.805,0,0,0,220-6.405a1.856,1.856,0,0,0-1.395.677,4.733,4.733,0,0,0-.91,2.352L217.11,0Zm8.654-1L224.572.007a2.179,2.179,0,0,1-.684.116,1.23,1.23,0,0,1-.874-.3,1.051,1.051,0,0,1-.322-.807,9.029,9.029,0,0,1,.149-1.109l.721-4.209h-.8l.164-.957h.8l.3-1.743,1.166-.854-.445,2.6h.991l-.164.957h-.991L223.9-2.3q-.13.777-.13.914a.491.491,0,0,0,.106.351.419.419,0,0,0,.316.11A1.769,1.769,0,0,0,224.745-1Zm5.3-1.463.991.123A3.467,3.467,0,0,1,229.891-.5a2.444,2.444,0,0,1-1.663.663,2.105,2.105,0,0,1-1.184-.352,2.392,2.392,0,0,1-.849-1.053,4.054,4.054,0,0,1-.315-1.671,5.913,5.913,0,0,1,.482-2.386,3.84,3.84,0,0,1,1.179-1.617,2.51,2.51,0,0,1,1.511-.509,2.09,2.09,0,0,1,1.685.786,3.385,3.385,0,0,1,.653,2.222,8.282,8.282,0,0,1-.075,1.094h-4.4q-.021.218-.021.389a2.584,2.584,0,0,0,.391,1.551,1.146,1.146,0,0,0,.941.528,1.61,1.61,0,0,0,1.026-.415A2.682,2.682,0,0,0,230.043-2.468Zm-2.959-1.8h3.349v-.254a2.334,2.334,0,0,0-.384-1.461,1.194,1.194,0,0,0-.979-.487,1.628,1.628,0,0,0-1.181.549A3.5,3.5,0,0,0,227.084-4.266Zm12.182,3.213A2.35,2.35,0,0,1,237.444.164a1.716,1.716,0,0,1-1.4-.745,3.625,3.625,0,0,1-.575-2.235,6.3,6.3,0,0,1,.462-2.444A3.937,3.937,0,0,1,237.072-6.9a2.193,2.193,0,0,1,1.346-.526A1.815,1.815,0,0,1,240.1-6.118l.7-3.9h1.019L240.023,0h-.943Zm-2.783-1.989-.007.294a2.435,2.435,0,0,0,.421,1.477,1.01,1.01,0,0,0,.855.444,1.577,1.577,0,0,0,1.263-.875,5.2,5.2,0,0,0,.752-2.871,2.1,2.1,0,0,0-.386-1.354,1.149,1.149,0,0,0-.918-.479,1.361,1.361,0,0,0-.973.458,3.256,3.256,0,0,0-.731,1.374A5.506,5.506,0,0,0,236.483-3.042ZM246-2.468l.991.123A3.467,3.467,0,0,1,245.853-.5a2.444,2.444,0,0,1-1.663.663,2.105,2.105,0,0,1-1.184-.352,2.392,2.392,0,0,1-.849-1.053,4.054,4.054,0,0,1-.315-1.671,5.913,5.913,0,0,1,.482-2.386A3.84,3.84,0,0,1,243.5-6.915a2.51,2.51,0,0,1,1.511-.509,2.09,2.09,0,0,1,1.685.786,3.385,3.385,0,0,1,.653,2.222,8.282,8.282,0,0,1-.075,1.094h-4.4q-.021.218-.021.389a2.584,2.584,0,0,0,.391,1.551,1.146,1.146,0,0,0,.941.528,1.61,1.61,0,0,0,1.026-.415A2.682,2.682,0,0,0,246-2.468Zm-2.959-1.8h3.349v-.254a2.334,2.334,0,0,0-.384-1.461,1.194,1.194,0,0,0-.979-.487,1.628,1.628,0,0,0-1.181.549A3.5,3.5,0,0,0,243.046-4.266Z" transform="translate(0 13)"/>
        <path id="Trazado_698297" data-name="Trazado 698297" d="M2.646-1,2.473.007a2.179,2.179,0,0,1-.684.116,1.23,1.23,0,0,1-.874-.3A1.051,1.051,0,0,1,.592-.984,9.029,9.029,0,0,1,.741-2.094L1.462-6.3h-.8L.826-7.26h.8L1.924-9,3.09-9.857l-.445,2.6h.991L3.472-6.3H2.481L1.8-2.3q-.13.777-.13.914a.491.491,0,0,0,.106.351.419.419,0,0,0,.316.11A1.769,1.769,0,0,0,2.646-1Zm4.94.1a3.852,3.852,0,0,1-1.052.827,2.259,2.259,0,0,1-1,.239A1.712,1.712,0,0,1,4.221-.4,2.192,2.192,0,0,1,3.7-1.948a2.346,2.346,0,0,1,.307-1.217,2.032,2.032,0,0,1,.862-.8,4.078,4.078,0,0,1,1.589-.325q.873-.048,1.2-.1a2.119,2.119,0,0,0,.555-.164A3.286,3.286,0,0,0,8.355-5.4a.887.887,0,0,0-.345-.73,1.573,1.573,0,0,0-1-.275A1.645,1.645,0,0,0,5.3-5.093L4.279-5.2A2.735,2.735,0,0,1,7.073-7.424a2.41,2.41,0,0,1,1.666.55A1.777,1.777,0,0,1,9.355-5.49a6.6,6.6,0,0,1-.163,1.341l-.39,1.8A6.83,6.83,0,0,0,8.615-.964,5.312,5.312,0,0,0,8.731,0H7.69A5.724,5.724,0,0,1,7.585-.9Zm.446-2.775a4.48,4.48,0,0,1-1.3.273,4.968,4.968,0,0,0-1.281.246,1.18,1.18,0,0,0-.543.458,1.3,1.3,0,0,0-.195.711,1.206,1.206,0,0,0,.31.875,1.1,1.1,0,0,0,.828.321,1.692,1.692,0,0,0,.945-.3,2.2,2.2,0,0,0,.742-.868A6.523,6.523,0,0,0,8.031-3.678ZM9.966,0l1.243-7.26h.9l-.254,1.483q.892-1.647,1.791-1.647a1.537,1.537,0,0,1,.749.267L13.98-6.009a.839.839,0,0,0-.558-.232,1.494,1.494,0,0,0-1.113.735,6.272,6.272,0,0,0-.871,2.594L10.929,0Zm8.184-2.468.991.123A3.467,3.467,0,0,1,18-.5a2.444,2.444,0,0,1-1.663.663A2.105,2.105,0,0,1,15.15-.188,2.392,2.392,0,0,1,14.3-1.241a4.054,4.054,0,0,1-.315-1.671A5.913,5.913,0,0,1,14.468-5.3a3.84,3.84,0,0,1,1.179-1.617,2.51,2.51,0,0,1,1.511-.509,2.09,2.09,0,0,1,1.685.786A3.385,3.385,0,0,1,19.5-4.416a8.282,8.282,0,0,1-.075,1.094h-4.4Q15-3.1,15-2.934A2.584,2.584,0,0,0,15.4-1.383a1.146,1.146,0,0,0,.941.528,1.61,1.61,0,0,0,1.026-.415A2.682,2.682,0,0,0,18.149-2.468Zm-2.959-1.8h3.349v-.254a2.334,2.334,0,0,0-.384-1.461,1.194,1.194,0,0,0-.979-.487,1.628,1.628,0,0,0-1.181.549A3.5,3.5,0,0,0,15.19-4.266ZM24.176-.9a3.852,3.852,0,0,1-1.052.827,2.259,2.259,0,0,1-1,.239A1.712,1.712,0,0,1,20.812-.4a2.192,2.192,0,0,1-.523-1.545A2.346,2.346,0,0,1,20.6-3.165a2.032,2.032,0,0,1,.862-.8,4.078,4.078,0,0,1,1.589-.325q.873-.048,1.2-.1a2.119,2.119,0,0,0,.555-.164,3.286,3.286,0,0,0,.146-.848.887.887,0,0,0-.345-.73,1.573,1.573,0,0,0-1-.275A1.645,1.645,0,0,0,21.9-5.093L20.87-5.2a2.735,2.735,0,0,1,2.793-2.229,2.41,2.41,0,0,1,1.666.55,1.777,1.777,0,0,1,.616,1.384,6.6,6.6,0,0,1-.163,1.341l-.39,1.8a6.83,6.83,0,0,0-.187,1.388A5.311,5.311,0,0,0,25.322,0H24.28A5.725,5.725,0,0,1,24.176-.9Zm.446-2.775a4.48,4.48,0,0,1-1.3.273,4.968,4.968,0,0,0-1.281.246A1.18,1.18,0,0,0,21.5-2.7a1.3,1.3,0,0,0-.195.711,1.206,1.206,0,0,0,.31.875,1.1,1.1,0,0,0,.828.321,1.692,1.692,0,0,0,.945-.3,2.2,2.2,0,0,0,.742-.868A6.523,6.523,0,0,0,24.622-3.678Zm9.135,2.625A2.35,2.35,0,0,1,31.935.164a1.716,1.716,0,0,1-1.4-.745,3.625,3.625,0,0,1-.575-2.235,6.3,6.3,0,0,1,.462-2.444A3.937,3.937,0,0,1,31.563-6.9a2.193,2.193,0,0,1,1.346-.526,1.815,1.815,0,0,1,1.677,1.306l.7-3.9h1.019L34.514,0h-.943ZM30.974-3.042l-.007.294a2.435,2.435,0,0,0,.421,1.477,1.01,1.01,0,0,0,.855.444A1.577,1.577,0,0,0,33.506-1.7a5.2,5.2,0,0,0,.752-2.871,2.1,2.1,0,0,0-.386-1.354,1.149,1.149,0,0,0-.918-.479,1.361,1.361,0,0,0-.973.458,3.256,3.256,0,0,0-.731,1.374A5.506,5.506,0,0,0,30.974-3.042Zm9.522.574.991.123A3.467,3.467,0,0,1,40.344-.5a2.444,2.444,0,0,1-1.663.663A2.105,2.105,0,0,1,37.5-.188a2.392,2.392,0,0,1-.849-1.053,4.054,4.054,0,0,1-.315-1.671A5.913,5.913,0,0,1,36.815-5.3a3.84,3.84,0,0,1,1.179-1.617A2.51,2.51,0,0,1,39.5-7.424a2.09,2.09,0,0,1,1.685.786,3.385,3.385,0,0,1,.653,2.222,8.282,8.282,0,0,1-.075,1.094h-4.4q-.021.218-.021.389a2.584,2.584,0,0,0,.391,1.551,1.146,1.146,0,0,0,.941.528A1.61,1.61,0,0,0,39.71-1.27,2.682,2.682,0,0,0,40.5-2.468Zm-2.959-1.8h3.349v-.254A2.334,2.334,0,0,0,40.5-5.98a1.194,1.194,0,0,0-.979-.487,1.628,1.628,0,0,0-1.181.549A3.5,3.5,0,0,0,37.537-4.266ZM45.623,0l1.716-10.021h1.019L46.642,0Zm6.642-.9a3.852,3.852,0,0,1-1.052.827,2.259,2.259,0,0,1-1,.239A1.712,1.712,0,0,1,48.9-.4a2.192,2.192,0,0,1-.523-1.545,2.346,2.346,0,0,1,.307-1.217,2.032,2.032,0,0,1,.862-.8,4.078,4.078,0,0,1,1.589-.325q.873-.048,1.2-.1a2.119,2.119,0,0,0,.555-.164,3.286,3.286,0,0,0,.146-.848.887.887,0,0,0-.345-.73,1.573,1.573,0,0,0-1-.275,1.645,1.645,0,0,0-1.707,1.313l-1.025-.1a2.735,2.735,0,0,1,2.793-2.229,2.41,2.41,0,0,1,1.666.55,1.777,1.777,0,0,1,.616,1.384,6.6,6.6,0,0,1-.163,1.341l-.39,1.8a6.83,6.83,0,0,0-.187,1.388A5.312,5.312,0,0,0,53.411,0H52.369A5.724,5.724,0,0,1,52.265-.9Zm.446-2.775a4.48,4.48,0,0,1-1.3.273,4.968,4.968,0,0,0-1.281.246,1.18,1.18,0,0,0-.543.458,1.3,1.3,0,0,0-.195.711,1.206,1.206,0,0,0,.31.875,1.1,1.1,0,0,0,.828.321,1.692,1.692,0,0,0,.945-.3,2.2,2.2,0,0,0,.742-.868A6.523,6.523,0,0,0,52.711-3.678Zm1.984,1.2,1.012-.075A1.9,1.9,0,0,0,56.1-1.23a1.385,1.385,0,0,0,1.08.438A1.461,1.461,0,0,0,58.16-1.1a1,1,0,0,0,.362-.8.977.977,0,0,0-.226-.629,3.519,3.519,0,0,0-1-.684,6.839,6.839,0,0,1-1.172-.714,1.715,1.715,0,0,1-.441-.608,1.981,1.981,0,0,1-.157-.8,2.028,2.028,0,0,1,.588-1.5,2.089,2.089,0,0,1,1.545-.588,2.285,2.285,0,0,1,1.675.6,2.353,2.353,0,0,1,.643,1.692l-1,.082A1.483,1.483,0,0,0,58.581-6.1a1.36,1.36,0,0,0-1-.369,1.15,1.15,0,0,0-.8.277.839.839,0,0,0-.308.639.826.826,0,0,0,.185.54,3.262,3.262,0,0,0,.937.622,5.693,5.693,0,0,1,1.47.97,2.071,2.071,0,0,1,.478,1.381A2.137,2.137,0,0,1,58.9-.486a2.37,2.37,0,0,1-1.771.65,2.4,2.4,0,0,1-1.789-.656,2.523,2.523,0,0,1-.649-1.853Zm9.058-.273a5.945,5.945,0,0,1,.882-3.315A2.7,2.7,0,0,1,67-7.424a2.154,2.154,0,0,1,1.716.8,3.4,3.4,0,0,1,.677,2.266,5.971,5.971,0,0,1-.461,2.406,3.736,3.736,0,0,1-1.2,1.589,2.6,2.6,0,0,1-1.542.53,2.232,2.232,0,0,1-1.75-.783A3.116,3.116,0,0,1,63.752-2.755Zm1.019-.123a2.5,2.5,0,0,0,.41,1.559,1.252,1.252,0,0,0,1.025.526,1.544,1.544,0,0,0,.971-.393,3.144,3.144,0,0,0,.848-1.3,5,5,0,0,0,.362-1.866,2.564,2.564,0,0,0-.41-1.576,1.232,1.232,0,0,0-1.012-.537,1.638,1.638,0,0,0-1.022.39,2.9,2.9,0,0,0-.834,1.289A5.378,5.378,0,0,0,64.771-2.878ZM69.965,0l1.243-7.26h.9l-.254,1.483q.892-1.647,1.791-1.647a1.537,1.537,0,0,1,.749.267l-.416,1.148a.839.839,0,0,0-.558-.232,1.494,1.494,0,0,0-1.113.735,6.272,6.272,0,0,0-.871,2.594L70.929,0Zm3.761.656,1.025.116V.937a.908.908,0,0,0,.266.711,1.217,1.217,0,0,0,.832.239,1.512,1.512,0,0,0,1.288-.54A4.838,4.838,0,0,0,77.655-.39l.093-.595A2.193,2.193,0,0,1,76.074,0a1.835,1.835,0,0,1-1.494-.8A3.714,3.714,0,0,1,73.965-3.1a5.468,5.468,0,0,1,.465-2.239,4,4,0,0,1,1.123-1.565,2.144,2.144,0,0,1,1.327-.516,1.939,1.939,0,0,1,1.765,1.353l.187-1.189h.923L78.673-.254a5.17,5.17,0,0,1-.826,2.284,2.286,2.286,0,0,1-1.89.875,2.481,2.481,0,0,1-1.7-.5A1.752,1.752,0,0,1,73.7,1.025,2.82,2.82,0,0,1,73.726.656Zm1.258-3.873a3.752,3.752,0,0,0,.171,1.27,1.545,1.545,0,0,0,.469.693,1.006,1.006,0,0,0,.633.236,1.448,1.448,0,0,0,.912-.379,2.962,2.962,0,0,0,.8-1.263A5.073,5.073,0,0,0,78.3-4.473,2.274,2.274,0,0,0,77.9-5.907a1.205,1.205,0,0,0-.975-.519,1.354,1.354,0,0,0-.915.42,3.006,3.006,0,0,0-.737,1.284A4.909,4.909,0,0,0,74.983-3.217ZM84.175-.9a3.852,3.852,0,0,1-1.052.827,2.259,2.259,0,0,1-1,.239A1.712,1.712,0,0,1,80.811-.4a2.192,2.192,0,0,1-.523-1.545A2.346,2.346,0,0,1,80.6-3.165a2.032,2.032,0,0,1,.862-.8,4.078,4.078,0,0,1,1.589-.325q.873-.048,1.2-.1a2.119,2.119,0,0,0,.555-.164,3.286,3.286,0,0,0,.146-.848.887.887,0,0,0-.345-.73,1.573,1.573,0,0,0-1-.275,1.645,1.645,0,0,0-1.707,1.313l-1.025-.1a2.735,2.735,0,0,1,2.793-2.229,2.41,2.41,0,0,1,1.666.55,1.777,1.777,0,0,1,.616,1.384,6.6,6.6,0,0,1-.163,1.341l-.39,1.8A6.83,6.83,0,0,0,85.2-.964,5.311,5.311,0,0,0,85.321,0H84.279A5.725,5.725,0,0,1,84.175-.9Zm.446-2.775a4.48,4.48,0,0,1-1.3.273,4.968,4.968,0,0,0-1.281.246A1.18,1.18,0,0,0,81.5-2.7a1.3,1.3,0,0,0-.195.711,1.206,1.206,0,0,0,.31.875,1.1,1.1,0,0,0,.828.321,1.692,1.692,0,0,0,.945-.3,2.2,2.2,0,0,0,.742-.868A6.523,6.523,0,0,0,84.621-3.678ZM86.543,0l1.243-7.26h.929L88.5-5.995a4.691,4.691,0,0,1,1.181-1.118,2.038,2.038,0,0,1,1.029-.311,1.467,1.467,0,0,1,1.129.467,1.879,1.879,0,0,1,.432,1.325,7.812,7.812,0,0,1-.158,1.243L91.322,0H90.3l.836-4.6a6.252,6.252,0,0,0,.123-1,.793.793,0,0,0-.218-.591.805.805,0,0,0-.592-.215,1.855,1.855,0,0,0-1.395.677,4.733,4.733,0,0,0-.91,2.352L87.562,0Zm7.827-8.62.24-1.4h1.019l-.24,1.4ZM92.894,0l1.243-7.26h1.019L93.913,0Zm2.434,0,.164-.957,3.2-4.4q.342-.465.766-.964a9.766,9.766,0,0,1-1.047.089H96.2L96.38-7.26h4.6l-.13.779L97.617-2.058q-.273.376-.813,1.032.841-.062,1.156-.062H100.3L100.12,0Zm9.909-.9a3.852,3.852,0,0,1-1.052.827,2.259,2.259,0,0,1-1,.239A1.712,1.712,0,0,1,101.872-.4a2.192,2.192,0,0,1-.523-1.545,2.346,2.346,0,0,1,.307-1.217,2.032,2.032,0,0,1,.862-.8,4.078,4.078,0,0,1,1.589-.325q.873-.048,1.2-.1a2.119,2.119,0,0,0,.555-.164,3.286,3.286,0,0,0,.146-.848.887.887,0,0,0-.345-.73,1.573,1.573,0,0,0-1-.275,1.645,1.645,0,0,0-1.707,1.313l-1.025-.1a2.735,2.735,0,0,1,2.793-2.229,2.41,2.41,0,0,1,1.666.55,1.777,1.777,0,0,1,.616,1.384,6.6,6.6,0,0,1-.163,1.341l-.39,1.8a6.83,6.83,0,0,0-.187,1.388,5.311,5.311,0,0,0,.116.964h-1.042A5.725,5.725,0,0,1,105.236-.9Zm.446-2.775a4.48,4.48,0,0,1-1.3.273,4.968,4.968,0,0,0-1.281.246,1.18,1.18,0,0,0-.543.458,1.3,1.3,0,0,0-.195.711,1.206,1.206,0,0,0,.31.875,1.1,1.1,0,0,0,.828.321,1.692,1.692,0,0,0,.945-.3,2.2,2.2,0,0,0,.742-.868A6.523,6.523,0,0,0,105.682-3.678Zm6.037,1.032,1.012.13A4.277,4.277,0,0,1,111.638-.5a2.277,2.277,0,0,1-1.586.66,1.945,1.945,0,0,1-1.562-.745,3.3,3.3,0,0,1-.619-2.16,6.727,6.727,0,0,1,.455-2.522,3.692,3.692,0,0,1,1.148-1.647,2.533,2.533,0,0,1,1.542-.513,1.926,1.926,0,0,1,1.5.643,2.509,2.509,0,0,1,.574,1.764l-1,.082a1.606,1.606,0,0,0-.332-1.09,1.046,1.046,0,0,0-.819-.379,1.5,1.5,0,0,0-.976.359,2.879,2.879,0,0,0-.754,1.326,6.822,6.822,0,0,0-.319,2.143,2.165,2.165,0,0,0,.347,1.33,1.019,1.019,0,0,0,.828.455,1.335,1.335,0,0,0,.948-.458A3.116,3.116,0,0,0,111.72-2.646Zm3.069-5.975.24-1.4h1.019l-.24,1.4ZM113.313,0l1.243-7.26h1.019L114.332,0Zm2.769-2.755a5.945,5.945,0,0,1,.882-3.315,2.7,2.7,0,0,1,2.365-1.354,2.154,2.154,0,0,1,1.716.8,3.4,3.4,0,0,1,.677,2.266,5.971,5.971,0,0,1-.461,2.406,3.736,3.736,0,0,1-1.2,1.589,2.6,2.6,0,0,1-1.542.53,2.232,2.232,0,0,1-1.75-.783A3.116,3.116,0,0,1,116.081-2.755Zm1.019-.123a2.5,2.5,0,0,0,.41,1.559,1.252,1.252,0,0,0,1.025.526,1.544,1.544,0,0,0,.971-.393,3.144,3.144,0,0,0,.848-1.3,5,5,0,0,0,.362-1.866,2.564,2.564,0,0,0-.41-1.576,1.232,1.232,0,0,0-1.012-.537,1.638,1.638,0,0,0-1.022.39,2.9,2.9,0,0,0-.834,1.289A5.378,5.378,0,0,0,117.1-2.878ZM122.281,0l1.243-7.26h.929l-.214,1.265a4.691,4.691,0,0,1,1.181-1.118,2.038,2.038,0,0,1,1.029-.311,1.467,1.467,0,0,1,1.129.467,1.879,1.879,0,0,1,.432,1.325,7.812,7.812,0,0,1-.158,1.243L127.06,0h-1.019l.836-4.6a6.252,6.252,0,0,0,.123-1,.793.793,0,0,0-.218-.591.805.805,0,0,0-.592-.215,1.855,1.855,0,0,0-1.395.677,4.733,4.733,0,0,0-.91,2.352L123.3,0Zm10.76-2.468.991.123A3.467,3.467,0,0,1,132.889-.5a2.444,2.444,0,0,1-1.663.663,2.105,2.105,0,0,1-1.184-.352,2.392,2.392,0,0,1-.849-1.053,4.054,4.054,0,0,1-.315-1.671A5.913,5.913,0,0,1,129.36-5.3a3.84,3.84,0,0,1,1.179-1.617,2.51,2.51,0,0,1,1.511-.509,2.09,2.09,0,0,1,1.685.786,3.385,3.385,0,0,1,.653,2.222,8.282,8.282,0,0,1-.075,1.094h-4.4q-.021.218-.021.389a2.584,2.584,0,0,0,.391,1.551,1.146,1.146,0,0,0,.941.528,1.61,1.61,0,0,0,1.026-.415A2.682,2.682,0,0,0,133.041-2.468Zm-2.959-1.8h3.349v-.254a2.334,2.334,0,0,0-.384-1.461,1.194,1.194,0,0,0-.979-.487,1.628,1.628,0,0,0-1.181.549A3.5,3.5,0,0,0,130.082-4.266Zm5.031,1.784,1.012-.075a1.9,1.9,0,0,0,.39,1.326,1.385,1.385,0,0,0,1.08.438,1.461,1.461,0,0,0,.984-.311,1,1,0,0,0,.362-.8.977.977,0,0,0-.226-.629,3.519,3.519,0,0,0-1-.684,6.839,6.839,0,0,1-1.172-.714,1.715,1.715,0,0,1-.441-.608,1.981,1.981,0,0,1-.157-.8,2.028,2.028,0,0,1,.588-1.5,2.089,2.089,0,0,1,1.545-.588,2.285,2.285,0,0,1,1.675.6,2.353,2.353,0,0,1,.643,1.692l-1,.082A1.483,1.483,0,0,0,139-6.1a1.36,1.36,0,0,0-1-.369,1.15,1.15,0,0,0-.8.277.839.839,0,0,0-.308.639.826.826,0,0,0,.185.54,3.262,3.262,0,0,0,.937.622,5.693,5.693,0,0,1,1.47.97,2.071,2.071,0,0,1,.478,1.381,2.137,2.137,0,0,1-.638,1.552,2.37,2.37,0,0,1-1.771.65,2.4,2.4,0,0,1-1.789-.656,2.523,2.523,0,0,1-.648-1.853Z" transform="translate(55.384 30.356)"/>
      </g>
    </g>
    <g id="Grupo_972379" data-name="Grupo 972379" transform="translate(37.679 218.553)">
      <path id="Trazado_698293" data-name="Trazado 698293" d="M9.337,0H7.293L6.481-2.114H2.761L1.993,0H0L3.625-9.306H5.611ZM5.878-3.682,4.6-7.135,3.339-3.682Zm2.758-3.06h1.644v.92a2.645,2.645,0,0,1,2.1-1.073,2.263,2.263,0,0,1,1.124.267,2.049,2.049,0,0,1,.781.806,3.114,3.114,0,0,1,.958-.806,2.352,2.352,0,0,1,1.1-.267,2.446,2.446,0,0,1,1.257.3,1.847,1.847,0,0,1,.768.885,3.841,3.841,0,0,1,.184,1.4V0H16.767V-3.853a2.867,2.867,0,0,0-.184-1.295.845.845,0,0,0-.762-.381,1.216,1.216,0,0,0-.7.229,1.268,1.268,0,0,0-.476.67,4.818,4.818,0,0,0-.146,1.393V0H12.711V-3.694a5.124,5.124,0,0,0-.1-1.27.81.81,0,0,0-.3-.425.933.933,0,0,0-.543-.14,1.3,1.3,0,0,0-.743.222,1.219,1.219,0,0,0-.473.641,4.765,4.765,0,0,0-.143,1.39V0H8.635ZM19.092,0V-9.306h1.784v3.352a2.524,2.524,0,0,1,1.955-.939A2.628,2.628,0,0,1,24.869-6a3.693,3.693,0,0,1,.806,2.561,3.9,3.9,0,0,1-.822,2.66,2.565,2.565,0,0,1-2,.933,2.468,2.468,0,0,1-1.139-.289,2.724,2.724,0,0,1-.968-.854V0Zm1.771-3.517a2.867,2.867,0,0,0,.33,1.549,1.411,1.411,0,0,0,1.231.711,1.262,1.262,0,0,0,1.006-.5,2.483,2.483,0,0,0,.416-1.59,2.633,2.633,0,0,0-.419-1.666,1.326,1.326,0,0,0-1.073-.511,1.344,1.344,0,0,0-1.066.5A2.288,2.288,0,0,0,20.863-3.517Zm6.118-4.139v-1.65h1.784v1.65Zm0,7.655V-6.741h1.784V0Zm7.388-2.146,1.777.3A2.915,2.915,0,0,1,35.064-.359a3.179,3.179,0,0,1-1.85.511A3.016,3.016,0,0,1,30.612-1a3.86,3.86,0,0,1-.667-2.323,3.722,3.722,0,0,1,.876-2.625,2.885,2.885,0,0,1,2.215-.949A2.992,2.992,0,0,1,35.41-5.9a4.4,4.4,0,0,1,.832,3.044H31.773A1.8,1.8,0,0,0,32.2-1.622a1.35,1.35,0,0,0,1.028.441,1.092,1.092,0,0,0,.7-.229A1.411,1.411,0,0,0,34.369-2.146Zm.1-1.8a1.717,1.717,0,0,0-.4-1.177,1.227,1.227,0,0,0-.927-.4,1.239,1.239,0,0,0-.965.425A1.646,1.646,0,0,0,31.8-3.948ZM44.338,0H42.555V-3.44a5.317,5.317,0,0,0-.114-1.412.991.991,0,0,0-.371-.5,1.061,1.061,0,0,0-.619-.178,1.43,1.43,0,0,0-.832.254,1.279,1.279,0,0,0-.5.673,5.816,5.816,0,0,0-.136,1.549V0H38.194V-6.741h1.657v.99a2.7,2.7,0,0,1,2.222-1.143,2.676,2.676,0,0,1,1.079.213,1.808,1.808,0,0,1,.74.543,1.966,1.966,0,0,1,.349.749,5.571,5.571,0,0,1,.1,1.2Zm4.773-6.741v1.422H47.892V-2.6a6.757,6.757,0,0,0,.035.962.392.392,0,0,0,.159.225.5.5,0,0,0,.3.089A2.307,2.307,0,0,0,49.1-1.5l.152,1.384a3.546,3.546,0,0,1-1.409.267,2.235,2.235,0,0,1-.87-.162,1.269,1.269,0,0,1-.568-.419,1.654,1.654,0,0,1-.251-.7A8.646,8.646,0,0,1,46.1-2.38V-5.319h-.819V-6.741H46.1V-8.081l1.79-1.041v2.38Zm5.142,4.6,1.777.3A2.915,2.915,0,0,1,54.948-.359,3.179,3.179,0,0,1,53.1.152,3.016,3.016,0,0,1,50.495-1a3.86,3.86,0,0,1-.667-2.323A3.722,3.722,0,0,1,50.7-5.945a2.885,2.885,0,0,1,2.215-.949,2.992,2.992,0,0,1,2.374.993,4.4,4.4,0,0,1,.832,3.044H51.656a1.8,1.8,0,0,0,.432,1.235,1.35,1.35,0,0,0,1.028.441,1.092,1.092,0,0,0,.7-.229A1.411,1.411,0,0,0,54.253-2.146Zm.1-1.8a1.717,1.717,0,0,0-.4-1.177,1.227,1.227,0,0,0-.927-.4,1.239,1.239,0,0,0-.965.425,1.646,1.646,0,0,0-.375,1.155ZM68.4,0H66.738V-.99a2.677,2.677,0,0,1-.974.86,2.5,2.5,0,0,1-1.133.282,2.568,2.568,0,0,1-1.99-.936A3.809,3.809,0,0,1,61.813-3.4,3.764,3.764,0,0,1,62.619-6a2.628,2.628,0,0,1,2.038-.892,2.524,2.524,0,0,1,1.955.939V-9.306H68.4ZM63.634-3.517a3.087,3.087,0,0,0,.3,1.562,1.348,1.348,0,0,0,1.206.7,1.313,1.313,0,0,0,1.047-.524,2.417,2.417,0,0,0,.432-1.565A2.645,2.645,0,0,0,66.2-5.018a1.326,1.326,0,0,0-1.073-.511,1.34,1.34,0,0,0-1.063.5A2.28,2.28,0,0,0,63.634-3.517Zm10.3,1.371,1.777.3A2.915,2.915,0,0,1,74.625-.359a3.179,3.179,0,0,1-1.85.511A3.016,3.016,0,0,1,70.172-1a3.86,3.86,0,0,1-.667-2.323,3.722,3.722,0,0,1,.876-2.625A2.885,2.885,0,0,1,72.6-6.894a2.992,2.992,0,0,1,2.374.993A4.4,4.4,0,0,1,75.8-2.856H71.333a1.8,1.8,0,0,0,.432,1.235,1.35,1.35,0,0,0,1.028.441,1.092,1.092,0,0,0,.7-.229A1.411,1.411,0,0,0,73.93-2.146Zm.1-1.8a1.717,1.717,0,0,0-.4-1.177,1.227,1.227,0,0,0-.927-.4,1.239,1.239,0,0,0-.965.425,1.646,1.646,0,0,0-.375,1.155Zm10.95-2.793v1.422H83.762V-2.6a6.757,6.757,0,0,0,.035.962.392.392,0,0,0,.159.225.5.5,0,0,0,.3.089,2.307,2.307,0,0,0,.717-.171l.152,1.384a3.546,3.546,0,0,1-1.409.267,2.235,2.235,0,0,1-.87-.162,1.269,1.269,0,0,1-.568-.419,1.654,1.654,0,0,1-.251-.7,8.646,8.646,0,0,1-.057-1.257V-5.319h-.819V-6.741h.819V-8.081l1.79-1.041v2.38Zm2.571,2.057-1.619-.292a2.521,2.521,0,0,1,.939-1.447,3.438,3.438,0,0,1,1.98-.47,4.268,4.268,0,0,1,1.777.282,1.773,1.773,0,0,1,.822.717,3.678,3.678,0,0,1,.238,1.6l-.019,2.082A7.228,7.228,0,0,0,91.757-.9a3.826,3.826,0,0,0,.321.9H90.313q-.07-.178-.171-.527-.044-.159-.063-.209A3.216,3.216,0,0,1,89.1-.07,2.8,2.8,0,0,1,87.99.152a2.3,2.3,0,0,1-1.641-.565,1.878,1.878,0,0,1-.6-1.428,1.917,1.917,0,0,1,.273-1.019,1.783,1.783,0,0,1,.765-.686,5.978,5.978,0,0,1,1.419-.416A9.718,9.718,0,0,0,89.938-4.4v-.178a.924.924,0,0,0-.254-.733,1.522,1.522,0,0,0-.958-.219,1.276,1.276,0,0,0-.743.187A1.3,1.3,0,0,0,87.552-4.685Zm2.387,1.447a11.149,11.149,0,0,1-1.085.273,3.27,3.27,0,0,0-.971.311.744.744,0,0,0-.349.628.875.875,0,0,0,.279.647.975.975,0,0,0,.711.273,1.545,1.545,0,0,0,.92-.317,1.117,1.117,0,0,0,.425-.59,3.522,3.522,0,0,0,.07-.87ZM94.9,0H93.117V-6.741h1.657v.958a2.881,2.881,0,0,1,.765-.9,1.407,1.407,0,0,1,.771-.216,2.264,2.264,0,0,1,1.174.336L96.932-5a1.565,1.565,0,0,0-.838-.292.99.99,0,0,0-.635.206,1.41,1.41,0,0,0-.409.746,10.6,10.6,0,0,0-.149,2.26Zm7.383-2.146,1.777.3a2.915,2.915,0,0,1-1.082,1.489,3.179,3.179,0,0,1-1.85.511A3.016,3.016,0,0,1,98.526-1a3.86,3.86,0,0,1-.667-2.323,3.722,3.722,0,0,1,.876-2.625,2.885,2.885,0,0,1,2.215-.949,2.992,2.992,0,0,1,2.374.993,4.4,4.4,0,0,1,.832,3.044H99.687a1.8,1.8,0,0,0,.432,1.235,1.35,1.35,0,0,0,1.028.441,1.092,1.092,0,0,0,.7-.229A1.411,1.411,0,0,0,102.284-2.146Zm.1-1.8a1.717,1.717,0,0,0-.4-1.177,1.227,1.227,0,0,0-.927-.4,1.239,1.239,0,0,0-.965.425,1.646,1.646,0,0,0-.375,1.155Zm5.069-.736-1.619-.292a2.521,2.521,0,0,1,.939-1.447,3.438,3.438,0,0,1,1.98-.47,4.268,4.268,0,0,1,1.777.282,1.773,1.773,0,0,1,.822.717,3.678,3.678,0,0,1,.238,1.6l-.019,2.082A7.228,7.228,0,0,0,111.659-.9a3.826,3.826,0,0,0,.321.9h-1.765q-.07-.178-.171-.527Q110-.686,109.98-.736A3.216,3.216,0,0,1,109-.07a2.8,2.8,0,0,1-1.111.222,2.3,2.3,0,0,1-1.641-.565,1.878,1.878,0,0,1-.6-1.428,1.917,1.917,0,0,1,.273-1.019,1.783,1.783,0,0,1,.765-.686,5.978,5.978,0,0,1,1.419-.416,9.718,9.718,0,0,0,1.733-.438v-.178a.924.924,0,0,0-.254-.733,1.522,1.522,0,0,0-.958-.219,1.276,1.276,0,0,0-.743.187A1.3,1.3,0,0,0,107.454-4.685Zm2.387,1.447a11.149,11.149,0,0,1-1.085.273,3.27,3.27,0,0,0-.971.311.744.744,0,0,0-.349.628.875.875,0,0,0,.279.647.975.975,0,0,0,.711.273,1.545,1.545,0,0,0,.92-.317,1.117,1.117,0,0,0,.425-.59,3.522,3.522,0,0,0,.07-.87Z" transform="translate(300.836 12)"/>
      <path id="Trazado_698296" data-name="Trazado 698296" d="M7.116,0H5.459V-.99a2.677,2.677,0,0,1-.974.86A2.5,2.5,0,0,1,3.352.152a2.568,2.568,0,0,1-1.99-.936A3.809,3.809,0,0,1,.533-3.4,3.764,3.764,0,0,1,1.339-6a2.628,2.628,0,0,1,2.038-.892,2.524,2.524,0,0,1,1.955.939V-9.306H7.116ZM2.355-3.517a3.087,3.087,0,0,0,.3,1.562,1.348,1.348,0,0,0,1.206.7,1.313,1.313,0,0,0,1.047-.524,2.417,2.417,0,0,0,.432-1.565,2.645,2.645,0,0,0-.419-1.673,1.326,1.326,0,0,0-1.073-.511,1.34,1.34,0,0,0-1.063.5A2.28,2.28,0,0,0,2.355-3.517Zm10.3,1.371,1.777.3A2.915,2.915,0,0,1,13.345-.359a3.179,3.179,0,0,1-1.85.511A3.016,3.016,0,0,1,8.892-1,3.86,3.86,0,0,1,8.226-3.32,3.722,3.722,0,0,1,9.1-5.945a2.885,2.885,0,0,1,2.215-.949,2.992,2.992,0,0,1,2.374.993,4.4,4.4,0,0,1,.832,3.044H10.054a1.8,1.8,0,0,0,.432,1.235,1.35,1.35,0,0,0,1.028.441,1.092,1.092,0,0,0,.7-.229A1.411,1.411,0,0,0,12.65-2.146Zm.1-1.8a1.717,1.717,0,0,0-.4-1.177,1.227,1.227,0,0,0-.927-.4,1.239,1.239,0,0,0-.965.425,1.646,1.646,0,0,0-.375,1.155ZM20.61,0V-9.306h1.784V0Zm4.817-4.685-1.619-.292a2.521,2.521,0,0,1,.939-1.447,3.438,3.438,0,0,1,1.98-.47,4.268,4.268,0,0,1,1.777.282,1.773,1.773,0,0,1,.822.717,3.678,3.678,0,0,1,.238,1.6l-.019,2.082A7.228,7.228,0,0,0,29.632-.9a3.826,3.826,0,0,0,.321.9H28.188q-.07-.178-.171-.527-.044-.159-.063-.209a3.216,3.216,0,0,1-.978.667,2.8,2.8,0,0,1-1.111.222,2.3,2.3,0,0,1-1.641-.565,1.878,1.878,0,0,1-.6-1.428A1.917,1.917,0,0,1,23.9-2.86a1.783,1.783,0,0,1,.765-.686,5.978,5.978,0,0,1,1.419-.416A9.718,9.718,0,0,0,27.814-4.4v-.178a.924.924,0,0,0-.254-.733,1.522,1.522,0,0,0-.958-.219,1.276,1.276,0,0,0-.743.187A1.3,1.3,0,0,0,25.427-4.685Zm2.387,1.447a11.149,11.149,0,0,1-1.085.273,3.27,3.27,0,0,0-.971.311.744.744,0,0,0-.349.628.875.875,0,0,0,.279.647A.975.975,0,0,0,26.4-1.1a1.545,1.545,0,0,0,.92-.317,1.117,1.117,0,0,0,.425-.59,3.522,3.522,0,0,0,.07-.87Zm6.2-.229a3.647,3.647,0,0,1,.438-1.72,3.006,3.006,0,0,1,1.241-1.27,3.683,3.683,0,0,1,1.793-.438,3.366,3.366,0,0,1,2.507.993,3.432,3.432,0,0,1,.978,2.51,3.473,3.473,0,0,1-.987,2.536A3.336,3.336,0,0,1,37.5.152a3.915,3.915,0,0,1-1.768-.419A2.874,2.874,0,0,1,34.45-1.495,4.092,4.092,0,0,1,34.012-3.466Zm1.828.1a2.233,2.233,0,0,0,.476,1.536,1.513,1.513,0,0,0,1.174.533,1.5,1.5,0,0,0,1.171-.533,2.264,2.264,0,0,0,.473-1.549,2.223,2.223,0,0,0-.473-1.523,1.5,1.5,0,0,0-1.171-.533,1.513,1.513,0,0,0-1.174.533A2.233,2.233,0,0,0,35.84-3.371ZM43.946,0H42.162V-6.741h1.657v.958a2.881,2.881,0,0,1,.765-.9,1.407,1.407,0,0,1,.771-.216,2.264,2.264,0,0,1,1.174.336L45.977-5a1.565,1.565,0,0,0-.838-.292.99.99,0,0,0-.635.206,1.41,1.41,0,0,0-.409.746,10.6,10.6,0,0,0-.149,2.26ZM47.26.444,49.3.692a.7.7,0,0,0,.235.489,1.341,1.341,0,0,0,.8.19,2.077,2.077,0,0,0,1.047-.209.863.863,0,0,0,.355-.451,2.708,2.708,0,0,0,.083-.819v-.984A2.414,2.414,0,0,1,49.8,0a2.485,2.485,0,0,1-2.152-1.149,3.905,3.905,0,0,1-.622-2.26A3.717,3.717,0,0,1,47.841-6a2.632,2.632,0,0,1,2.028-.9,2.469,2.469,0,0,1,2.063,1.1v-.946H53.6V-.692a6.027,6.027,0,0,1-.2,1.784,2.21,2.21,0,0,1-.552.927,2.443,2.443,0,0,1-.949.527,5,5,0,0,1-1.5.19,3.886,3.886,0,0,1-2.431-.587A1.842,1.842,0,0,1,47.254.66Q47.254.571,47.26.444ZM48.853-3.51a2.431,2.431,0,0,0,.416,1.571,1.285,1.285,0,0,0,1.025.5,1.417,1.417,0,0,0,1.1-.511,2.227,2.227,0,0,0,.451-1.514,2.361,2.361,0,0,0-.432-1.555,1.372,1.372,0,0,0-1.092-.508,1.317,1.317,0,0,0-1.057.5A2.337,2.337,0,0,0,48.853-3.51Zm7.718-1.174-1.619-.292a2.521,2.521,0,0,1,.939-1.447,3.438,3.438,0,0,1,1.98-.47,4.268,4.268,0,0,1,1.777.282,1.773,1.773,0,0,1,.822.717,3.678,3.678,0,0,1,.238,1.6l-.019,2.082A7.228,7.228,0,0,0,60.776-.9,3.826,3.826,0,0,0,61.1,0H59.332q-.07-.178-.171-.527-.044-.159-.063-.209a3.216,3.216,0,0,1-.978.667,2.8,2.8,0,0,1-1.111.222,2.3,2.3,0,0,1-1.641-.565,1.878,1.878,0,0,1-.6-1.428,1.917,1.917,0,0,1,.273-1.019,1.783,1.783,0,0,1,.765-.686,5.978,5.978,0,0,1,1.419-.416A9.718,9.718,0,0,0,58.958-4.4v-.178A.924.924,0,0,0,58.7-5.31a1.522,1.522,0,0,0-.958-.219A1.276,1.276,0,0,0,57-5.342,1.3,1.3,0,0,0,56.571-4.685Zm2.387,1.447a11.149,11.149,0,0,1-1.085.273,3.27,3.27,0,0,0-.971.311.744.744,0,0,0-.349.628.875.875,0,0,0,.279.647.975.975,0,0,0,.711.273,1.545,1.545,0,0,0,.92-.317,1.117,1.117,0,0,0,.425-.59,3.522,3.522,0,0,0,.07-.87ZM68.344,0H66.561V-3.44a5.317,5.317,0,0,0-.114-1.412.991.991,0,0,0-.371-.5,1.061,1.061,0,0,0-.619-.178,1.43,1.43,0,0,0-.832.254,1.279,1.279,0,0,0-.5.673,5.816,5.816,0,0,0-.136,1.549V0H62.2V-6.741h1.657v.99a2.7,2.7,0,0,1,2.222-1.143,2.676,2.676,0,0,1,1.079.213,1.808,1.808,0,0,1,.74.543,1.966,1.966,0,0,1,.349.749,5.571,5.571,0,0,1,.1,1.2Zm1.681-7.655v-1.65h1.784v1.65Zm0,7.655V-6.741h1.784V0Zm2.767,0V-1.39l2.526-2.9q.622-.711.92-1.009-.311.019-.819.025l-2.38.013V-6.741h5.573v1.263L76.036-2.507l-.908.984q.743-.044.92-.044H78.81V0Zm8.934-4.685-1.619-.292a2.521,2.521,0,0,1,.939-1.447,3.438,3.438,0,0,1,1.98-.47,4.268,4.268,0,0,1,1.777.282,1.773,1.773,0,0,1,.822.717,3.678,3.678,0,0,1,.238,1.6l-.019,2.082A7.228,7.228,0,0,0,85.931-.9a3.826,3.826,0,0,0,.321.9H84.487q-.07-.178-.171-.527-.044-.159-.063-.209a3.216,3.216,0,0,1-.978.667,2.8,2.8,0,0,1-1.111.222,2.3,2.3,0,0,1-1.641-.565,1.878,1.878,0,0,1-.6-1.428A1.917,1.917,0,0,1,80.2-2.86a1.783,1.783,0,0,1,.765-.686,5.978,5.978,0,0,1,1.419-.416A9.718,9.718,0,0,0,84.113-4.4v-.178a.924.924,0,0,0-.254-.733,1.522,1.522,0,0,0-.958-.219,1.276,1.276,0,0,0-.743.187A1.3,1.3,0,0,0,81.726-4.685Zm2.387,1.447a11.149,11.149,0,0,1-1.085.273,3.27,3.27,0,0,0-.971.311.744.744,0,0,0-.349.628.875.875,0,0,0,.279.647A.975.975,0,0,0,82.7-1.1a1.545,1.545,0,0,0,.92-.317,1.117,1.117,0,0,0,.425-.59,3.522,3.522,0,0,0,.07-.87Zm9.133-1.511-1.758.317a1.276,1.276,0,0,0-.4-.793,1.217,1.217,0,0,0-.816-.267,1.333,1.333,0,0,0-1.063.46,2.358,2.358,0,0,0-.4,1.539,2.728,2.728,0,0,0,.4,1.695,1.323,1.323,0,0,0,1.082.5,1.2,1.2,0,0,0,.832-.289,1.737,1.737,0,0,0,.457-.993l1.752.3A3.109,3.109,0,0,1,92.287-.463a3.242,3.242,0,0,1-2.076.616,3.086,3.086,0,0,1-2.358-.933,3.618,3.618,0,0,1-.879-2.583,3.626,3.626,0,0,1,.882-2.6,3.134,3.134,0,0,1,2.387-.93,3.256,3.256,0,0,1,1.958.53A2.936,2.936,0,0,1,93.245-4.748Zm1.1-2.907v-1.65h1.784v1.65Zm0,7.655V-6.741h1.784V0Zm3.071-3.466a3.647,3.647,0,0,1,.438-1.72,3.006,3.006,0,0,1,1.241-1.27,3.683,3.683,0,0,1,1.793-.438,3.366,3.366,0,0,1,2.507.993,3.432,3.432,0,0,1,.978,2.51,3.473,3.473,0,0,1-.987,2.536A3.336,3.336,0,0,1,100.9.152a3.915,3.915,0,0,1-1.768-.419,2.874,2.874,0,0,1-1.279-1.228A4.092,4.092,0,0,1,97.414-3.466Zm1.828.1a2.233,2.233,0,0,0,.476,1.536,1.513,1.513,0,0,0,1.174.533,1.5,1.5,0,0,0,1.171-.533,2.264,2.264,0,0,0,.473-1.549,2.223,2.223,0,0,0-.473-1.523,1.5,1.5,0,0,0-1.171-.533,1.513,1.513,0,0,0-1.174.533A2.233,2.233,0,0,0,99.242-3.371Zm.749-4.2.876-1.9h2l-1.746,1.9ZM111.771,0h-1.784V-3.44a5.317,5.317,0,0,0-.114-1.412.991.991,0,0,0-.371-.5,1.061,1.061,0,0,0-.619-.178,1.43,1.43,0,0,0-.832.254,1.279,1.279,0,0,0-.5.673,5.816,5.816,0,0,0-.136,1.549V0h-1.784V-6.741h1.657v.99a2.7,2.7,0,0,1,2.222-1.143,2.676,2.676,0,0,1,1.079.213,1.808,1.808,0,0,1,.74.543,1.966,1.966,0,0,1,.349.749,5.571,5.571,0,0,1,.1,1.2Z" transform="translate(300.836 31.123)"/>
      <path id="Trazado_698294" data-name="Trazado 698294" d="M9.337,0H7.293L6.481-2.114H2.761L1.993,0H0L3.625-9.306H5.611ZM5.878-3.682,4.6-7.135,3.339-3.682Zm2.758-3.06h1.644v.92a2.645,2.645,0,0,1,2.1-1.073,2.263,2.263,0,0,1,1.124.267,2.049,2.049,0,0,1,.781.806,3.114,3.114,0,0,1,.958-.806,2.352,2.352,0,0,1,1.1-.267,2.446,2.446,0,0,1,1.257.3,1.847,1.847,0,0,1,.768.885,3.841,3.841,0,0,1,.184,1.4V0H16.767V-3.853a2.867,2.867,0,0,0-.184-1.295.845.845,0,0,0-.762-.381,1.216,1.216,0,0,0-.7.229,1.268,1.268,0,0,0-.476.67,4.818,4.818,0,0,0-.146,1.393V0H12.711V-3.694a5.124,5.124,0,0,0-.1-1.27.81.81,0,0,0-.3-.425.933.933,0,0,0-.543-.14,1.3,1.3,0,0,0-.743.222,1.219,1.219,0,0,0-.473.641,4.765,4.765,0,0,0-.143,1.39V0H8.635ZM19.092,0V-9.306h1.784v3.352a2.524,2.524,0,0,1,1.955-.939A2.628,2.628,0,0,1,24.869-6a3.693,3.693,0,0,1,.806,2.561,3.9,3.9,0,0,1-.822,2.66,2.565,2.565,0,0,1-2,.933,2.468,2.468,0,0,1-1.139-.289,2.724,2.724,0,0,1-.968-.854V0Zm1.771-3.517a2.867,2.867,0,0,0,.33,1.549,1.411,1.411,0,0,0,1.231.711,1.262,1.262,0,0,0,1.006-.5,2.483,2.483,0,0,0,.416-1.59,2.633,2.633,0,0,0-.419-1.666,1.326,1.326,0,0,0-1.073-.511,1.344,1.344,0,0,0-1.066.5A2.288,2.288,0,0,0,20.863-3.517Zm6.118-4.139v-1.65h1.784v1.65Zm0,7.655V-6.741h1.784V0Zm7.388-2.146,1.777.3A2.915,2.915,0,0,1,35.064-.359a3.179,3.179,0,0,1-1.85.511A3.016,3.016,0,0,1,30.612-1a3.86,3.86,0,0,1-.667-2.323,3.722,3.722,0,0,1,.876-2.625,2.885,2.885,0,0,1,2.215-.949A2.992,2.992,0,0,1,35.41-5.9a4.4,4.4,0,0,1,.832,3.044H31.773A1.8,1.8,0,0,0,32.2-1.622a1.35,1.35,0,0,0,1.028.441,1.092,1.092,0,0,0,.7-.229A1.411,1.411,0,0,0,34.369-2.146Zm.1-1.8a1.717,1.717,0,0,0-.4-1.177,1.227,1.227,0,0,0-.927-.4,1.239,1.239,0,0,0-.965.425A1.646,1.646,0,0,0,31.8-3.948ZM44.338,0H42.555V-3.44a5.317,5.317,0,0,0-.114-1.412.991.991,0,0,0-.371-.5,1.061,1.061,0,0,0-.619-.178,1.43,1.43,0,0,0-.832.254,1.279,1.279,0,0,0-.5.673,5.816,5.816,0,0,0-.136,1.549V0H38.194V-6.741h1.657v.99a2.7,2.7,0,0,1,2.222-1.143,2.676,2.676,0,0,1,1.079.213,1.808,1.808,0,0,1,.74.543,1.966,1.966,0,0,1,.349.749,5.571,5.571,0,0,1,.1,1.2Zm4.9-6.741v1.422H48.02V-2.6a6.757,6.757,0,0,0,.035.962.392.392,0,0,0,.159.225.5.5,0,0,0,.3.089,2.307,2.307,0,0,0,.717-.171l.152,1.384a3.546,3.546,0,0,1-1.409.267,2.235,2.235,0,0,1-.87-.162,1.269,1.269,0,0,1-.568-.419,1.654,1.654,0,0,1-.251-.7A8.646,8.646,0,0,1,46.23-2.38V-5.319h-.819V-6.741h.819V-8.081l1.79-1.041v2.38Zm5.142,4.6,1.777.3A2.915,2.915,0,0,1,55.075-.359a3.179,3.179,0,0,1-1.85.511A3.016,3.016,0,0,1,50.623-1a3.86,3.86,0,0,1-.667-2.323,3.722,3.722,0,0,1,.876-2.625,2.885,2.885,0,0,1,2.215-.949,2.992,2.992,0,0,1,2.374.993,4.4,4.4,0,0,1,.832,3.044H51.784a1.8,1.8,0,0,0,.432,1.235,1.35,1.35,0,0,0,1.028.441,1.092,1.092,0,0,0,.7-.229A1.411,1.411,0,0,0,54.38-2.146Zm.1-1.8a1.717,1.717,0,0,0-.4-1.177,1.227,1.227,0,0,0-.927-.4,1.239,1.239,0,0,0-.965.425,1.646,1.646,0,0,0-.375,1.155ZM62.175.444l2.038.248a.7.7,0,0,0,.235.489,1.341,1.341,0,0,0,.8.19,2.077,2.077,0,0,0,1.047-.209A.863.863,0,0,0,66.65.711a2.708,2.708,0,0,0,.083-.819v-.984A2.414,2.414,0,0,1,64.714,0a2.485,2.485,0,0,1-2.152-1.149,3.905,3.905,0,0,1-.622-2.26A3.717,3.717,0,0,1,62.756-6a2.632,2.632,0,0,1,2.028-.9,2.469,2.469,0,0,1,2.063,1.1v-.946h1.669V-.692a6.027,6.027,0,0,1-.2,1.784,2.21,2.21,0,0,1-.552.927,2.443,2.443,0,0,1-.949.527,5,5,0,0,1-1.5.19,3.886,3.886,0,0,1-2.431-.587A1.842,1.842,0,0,1,62.169.66Q62.169.571,62.175.444ZM63.769-3.51a2.431,2.431,0,0,0,.416,1.571,1.285,1.285,0,0,0,1.025.5,1.417,1.417,0,0,0,1.1-.511,2.227,2.227,0,0,0,.451-1.514,2.361,2.361,0,0,0-.432-1.555,1.372,1.372,0,0,0-1.092-.508,1.317,1.317,0,0,0-1.057.5A2.337,2.337,0,0,0,63.769-3.51ZM74.185-2.146l1.777.3A2.915,2.915,0,0,1,74.88-.359a3.179,3.179,0,0,1-1.85.511A3.016,3.016,0,0,1,70.427-1a3.86,3.86,0,0,1-.667-2.323,3.722,3.722,0,0,1,.876-2.625,2.885,2.885,0,0,1,2.215-.949,2.992,2.992,0,0,1,2.374.993,4.4,4.4,0,0,1,.832,3.044H71.589a1.8,1.8,0,0,0,.432,1.235,1.35,1.35,0,0,0,1.028.441,1.092,1.092,0,0,0,.7-.229A1.411,1.411,0,0,0,74.185-2.146Zm.1-1.8a1.717,1.717,0,0,0-.4-1.177,1.227,1.227,0,0,0-.927-.4A1.239,1.239,0,0,0,72-5.1a1.646,1.646,0,0,0-.375,1.155ZM84.154,0H82.37V-3.44a5.317,5.317,0,0,0-.114-1.412.991.991,0,0,0-.371-.5,1.061,1.061,0,0,0-.619-.178,1.43,1.43,0,0,0-.832.254,1.279,1.279,0,0,0-.5.673,5.816,5.816,0,0,0-.136,1.549V0H78.009V-6.741h1.657v.99a2.7,2.7,0,0,1,2.222-1.143,2.676,2.676,0,0,1,1.079.213,1.808,1.808,0,0,1,.74.543,1.966,1.966,0,0,1,.349.749,5.571,5.571,0,0,1,.1,1.2Zm5.713-2.146,1.777.3A2.915,2.915,0,0,1,90.562-.359a3.179,3.179,0,0,1-1.85.511A3.016,3.016,0,0,1,86.109-1a3.86,3.86,0,0,1-.667-2.323,3.722,3.722,0,0,1,.876-2.625,2.885,2.885,0,0,1,2.215-.949,2.992,2.992,0,0,1,2.374.993,4.4,4.4,0,0,1,.832,3.044H87.271A1.8,1.8,0,0,0,87.7-1.622a1.35,1.35,0,0,0,1.028.441,1.092,1.092,0,0,0,.7-.229A1.411,1.411,0,0,0,89.867-2.146Zm.1-1.8a1.717,1.717,0,0,0-.4-1.177,1.227,1.227,0,0,0-.927-.4,1.239,1.239,0,0,0-.965.425A1.646,1.646,0,0,0,87.3-3.948ZM95.412,0H93.628V-6.741h1.657v.958a2.881,2.881,0,0,1,.765-.9,1.407,1.407,0,0,1,.771-.216A2.264,2.264,0,0,1,98-6.557L97.443-5a1.565,1.565,0,0,0-.838-.292.99.99,0,0,0-.635.206,1.41,1.41,0,0,0-.409.746,10.6,10.6,0,0,0-.149,2.26ZM100.1-4.685l-1.619-.292a2.521,2.521,0,0,1,.939-1.447,3.438,3.438,0,0,1,1.98-.47,4.268,4.268,0,0,1,1.777.282,1.773,1.773,0,0,1,.822.717,3.678,3.678,0,0,1,.238,1.6l-.019,2.082A7.228,7.228,0,0,0,104.3-.9a3.826,3.826,0,0,0,.321.9h-1.765q-.07-.178-.171-.527-.044-.159-.063-.209a3.216,3.216,0,0,1-.978.667,2.8,2.8,0,0,1-1.111.222,2.3,2.3,0,0,1-1.641-.565,1.878,1.878,0,0,1-.6-1.428,1.917,1.917,0,0,1,.273-1.019,1.783,1.783,0,0,1,.765-.686,5.978,5.978,0,0,1,1.419-.416,9.718,9.718,0,0,0,1.733-.438v-.178a.924.924,0,0,0-.254-.733,1.522,1.522,0,0,0-.958-.219,1.276,1.276,0,0,0-.743.187A1.3,1.3,0,0,0,100.1-4.685Zm2.387,1.447a11.149,11.149,0,0,1-1.085.273,3.27,3.27,0,0,0-.971.311.744.744,0,0,0-.349.628.875.875,0,0,0,.279.647.975.975,0,0,0,.711.273,1.545,1.545,0,0,0,.92-.317,1.117,1.117,0,0,0,.425-.59,3.522,3.522,0,0,0,.07-.87ZM105.738,0V-9.306h1.784V0Z" transform="translate(0 17.341)"/>
      <path id="Trazado_698295" data-name="Trazado 698295" d="M.521-3.466a3.647,3.647,0,0,1,.438-1.72A3.006,3.006,0,0,1,2.2-6.456a3.683,3.683,0,0,1,1.793-.438A3.366,3.366,0,0,1,6.5-5.9a3.432,3.432,0,0,1,.978,2.51A3.473,3.473,0,0,1,6.49-.854,3.336,3.336,0,0,1,4.005.152,3.915,3.915,0,0,1,2.238-.267,2.874,2.874,0,0,1,.958-1.495,4.092,4.092,0,0,1,.521-3.466Zm1.828.1a2.233,2.233,0,0,0,.476,1.536A1.513,1.513,0,0,0,4-1.3,1.5,1.5,0,0,0,5.17-1.834a2.264,2.264,0,0,0,.473-1.549A2.223,2.223,0,0,0,5.17-4.907,1.5,1.5,0,0,0,4-5.44a1.513,1.513,0,0,0-1.174.533A2.233,2.233,0,0,0,2.349-3.371Zm10-3.371H14v.92a2.645,2.645,0,0,1,2.1-1.073,2.263,2.263,0,0,1,1.124.267A2.049,2.049,0,0,1,18-5.821a3.114,3.114,0,0,1,.958-.806,2.352,2.352,0,0,1,1.1-.267,2.446,2.446,0,0,1,1.257.3,1.847,1.847,0,0,1,.768.885,3.841,3.841,0,0,1,.184,1.4V0H20.484V-3.853A2.867,2.867,0,0,0,20.3-5.148a.845.845,0,0,0-.762-.381,1.216,1.216,0,0,0-.7.229,1.268,1.268,0,0,0-.476.67,4.818,4.818,0,0,0-.146,1.393V0H16.428V-3.694a5.124,5.124,0,0,0-.1-1.27.81.81,0,0,0-.3-.425.933.933,0,0,0-.543-.14,1.3,1.3,0,0,0-.743.222,1.219,1.219,0,0,0-.473.641,4.765,4.765,0,0,0-.143,1.39V0H12.353ZM24.218-4.685,22.6-4.977a2.521,2.521,0,0,1,.939-1.447,3.438,3.438,0,0,1,1.98-.47,4.268,4.268,0,0,1,1.777.282,1.773,1.773,0,0,1,.822.717,3.678,3.678,0,0,1,.238,1.6l-.019,2.082A7.228,7.228,0,0,0,28.424-.9a3.826,3.826,0,0,0,.321.9H26.98q-.07-.178-.171-.527-.044-.159-.063-.209a3.216,3.216,0,0,1-.978.667,2.8,2.8,0,0,1-1.111.222,2.3,2.3,0,0,1-1.641-.565,1.878,1.878,0,0,1-.6-1.428,1.917,1.917,0,0,1,.273-1.019,1.783,1.783,0,0,1,.765-.686,5.978,5.978,0,0,1,1.419-.416A9.718,9.718,0,0,0,26.605-4.4v-.178a.924.924,0,0,0-.254-.733,1.522,1.522,0,0,0-.958-.219,1.276,1.276,0,0,0-.743.187A1.3,1.3,0,0,0,24.218-4.685Zm2.387,1.447a11.149,11.149,0,0,1-1.085.273,3.27,3.27,0,0,0-.971.311.744.744,0,0,0-.349.628.875.875,0,0,0,.279.647.975.975,0,0,0,.711.273,1.545,1.545,0,0,0,.92-.317,1.117,1.117,0,0,0,.425-.59,3.522,3.522,0,0,0,.07-.87Zm9.133-1.511-1.758.317a1.276,1.276,0,0,0-.4-.793,1.217,1.217,0,0,0-.816-.267,1.333,1.333,0,0,0-1.063.46,2.358,2.358,0,0,0-.4,1.539A2.728,2.728,0,0,0,31.7-1.8a1.323,1.323,0,0,0,1.082.5,1.2,1.2,0,0,0,.832-.289,1.737,1.737,0,0,0,.457-.993l1.752.3A3.109,3.109,0,0,1,34.779-.463,3.242,3.242,0,0,1,32.7.152a3.086,3.086,0,0,1-2.358-.933,3.618,3.618,0,0,1-.879-2.583,3.626,3.626,0,0,1,.882-2.6,3.134,3.134,0,0,1,2.387-.93,3.256,3.256,0,0,1,1.958.53A2.936,2.936,0,0,1,35.738-4.748ZM38.542,0H36.758V-6.741h1.657v.958a2.881,2.881,0,0,1,.765-.9,1.407,1.407,0,0,1,.771-.216,2.264,2.264,0,0,1,1.174.336L40.573-5a1.565,1.565,0,0,0-.838-.292.99.99,0,0,0-.635.206,1.41,1.41,0,0,0-.409.746,10.6,10.6,0,0,0-.149,2.26Zm2.939-3.466a3.647,3.647,0,0,1,.438-1.72,3.006,3.006,0,0,1,1.241-1.27,3.683,3.683,0,0,1,1.793-.438A3.366,3.366,0,0,1,47.46-5.9a3.432,3.432,0,0,1,.978,2.51,3.473,3.473,0,0,1-.987,2.536A3.336,3.336,0,0,1,44.966.152,3.915,3.915,0,0,1,43.2-.267a2.874,2.874,0,0,1-1.279-1.228A4.092,4.092,0,0,1,41.481-3.466Zm1.828.1a2.233,2.233,0,0,0,.476,1.536,1.513,1.513,0,0,0,1.174.533,1.5,1.5,0,0,0,1.171-.533A2.264,2.264,0,0,0,46.6-3.383a2.223,2.223,0,0,0-.473-1.523,1.5,1.5,0,0,0-1.171-.533,1.513,1.513,0,0,0-1.174.533A2.233,2.233,0,0,0,43.309-3.371Zm7.858-1.314-1.619-.292a2.521,2.521,0,0,1,.939-1.447,3.438,3.438,0,0,1,1.98-.47,4.268,4.268,0,0,1,1.777.282,1.773,1.773,0,0,1,.822.717,3.678,3.678,0,0,1,.238,1.6l-.019,2.082A7.228,7.228,0,0,0,55.373-.9a3.826,3.826,0,0,0,.321.9H53.929q-.07-.178-.171-.527-.044-.159-.063-.209a3.216,3.216,0,0,1-.978.667,2.8,2.8,0,0,1-1.111.222,2.3,2.3,0,0,1-1.641-.565,1.878,1.878,0,0,1-.6-1.428,1.917,1.917,0,0,1,.273-1.019,1.783,1.783,0,0,1,.765-.686,5.978,5.978,0,0,1,1.419-.416A9.718,9.718,0,0,0,53.554-4.4v-.178A.924.924,0,0,0,53.3-5.31a1.522,1.522,0,0,0-.958-.219,1.276,1.276,0,0,0-.743.187A1.3,1.3,0,0,0,51.167-4.685Zm2.387,1.447a11.149,11.149,0,0,1-1.085.273,3.27,3.27,0,0,0-.971.311.744.744,0,0,0-.349.628.875.875,0,0,0,.279.647.975.975,0,0,0,.711.273,1.545,1.545,0,0,0,.92-.317,1.117,1.117,0,0,0,.425-.59,3.522,3.522,0,0,0,.07-.87Zm3.121-3.5H58.32v.92a2.645,2.645,0,0,1,2.1-1.073,2.263,2.263,0,0,1,1.124.267,2.049,2.049,0,0,1,.781.806,3.114,3.114,0,0,1,.958-.806,2.352,2.352,0,0,1,1.1-.267,2.446,2.446,0,0,1,1.257.3,1.847,1.847,0,0,1,.768.885,3.841,3.841,0,0,1,.184,1.4V0H64.807V-3.853a2.867,2.867,0,0,0-.184-1.295.845.845,0,0,0-.762-.381,1.216,1.216,0,0,0-.7.229,1.268,1.268,0,0,0-.476.67,4.818,4.818,0,0,0-.146,1.393V0H60.751V-3.694a5.124,5.124,0,0,0-.1-1.27.81.81,0,0,0-.3-.425.933.933,0,0,0-.543-.14,1.3,1.3,0,0,0-.743.222,1.219,1.219,0,0,0-.473.641,4.765,4.765,0,0,0-.143,1.39V0H56.676ZM67.132,0V-9.306h1.784v3.352a2.524,2.524,0,0,1,1.955-.939A2.628,2.628,0,0,1,72.909-6a3.693,3.693,0,0,1,.806,2.561,3.9,3.9,0,0,1-.822,2.66,2.565,2.565,0,0,1-2,.933,2.468,2.468,0,0,1-1.139-.289,2.724,2.724,0,0,1-.968-.854V0ZM68.9-3.517a2.867,2.867,0,0,0,.33,1.549,1.411,1.411,0,0,0,1.231.711,1.262,1.262,0,0,0,1.006-.5,2.483,2.483,0,0,0,.416-1.59,2.633,2.633,0,0,0-.419-1.666A1.326,1.326,0,0,0,70.4-5.529a1.344,1.344,0,0,0-1.066.5A2.288,2.288,0,0,0,68.9-3.517Zm6.246-4.139v-1.65h1.784v1.65Zm0,7.655V-6.741h1.784V0Zm7.388-2.146,1.777.3A2.915,2.915,0,0,1,83.232-.359a3.179,3.179,0,0,1-1.85.511A3.016,3.016,0,0,1,78.78-1a3.86,3.86,0,0,1-.667-2.323,3.722,3.722,0,0,1,.876-2.625A2.885,2.885,0,0,1,81.2-6.894a2.992,2.992,0,0,1,2.374.993,4.4,4.4,0,0,1,.832,3.044H79.941a1.8,1.8,0,0,0,.432,1.235,1.35,1.35,0,0,0,1.028.441,1.092,1.092,0,0,0,.7-.229A1.411,1.411,0,0,0,82.537-2.146Zm.1-1.8a1.717,1.717,0,0,0-.4-1.177,1.227,1.227,0,0,0-.927-.4,1.239,1.239,0,0,0-.965.425,1.646,1.646,0,0,0-.375,1.155ZM92.506,0H90.723V-3.44a5.317,5.317,0,0,0-.114-1.412.991.991,0,0,0-.371-.5,1.061,1.061,0,0,0-.619-.178,1.43,1.43,0,0,0-.832.254,1.279,1.279,0,0,0-.5.673,5.816,5.816,0,0,0-.136,1.549V0H86.362V-6.741h1.657v.99A2.7,2.7,0,0,1,90.24-6.894a2.676,2.676,0,0,1,1.079.213,1.808,1.808,0,0,1,.74.543,1.966,1.966,0,0,1,.349.749,5.571,5.571,0,0,1,.1,1.2Zm4.9-6.741v1.422H96.188V-2.6a6.757,6.757,0,0,0,.035.962.392.392,0,0,0,.159.225.5.5,0,0,0,.3.089A2.307,2.307,0,0,0,97.4-1.5l.152,1.384a3.546,3.546,0,0,1-1.409.267,2.235,2.235,0,0,1-.87-.162,1.269,1.269,0,0,1-.568-.419,1.654,1.654,0,0,1-.251-.7A8.646,8.646,0,0,1,94.4-2.38V-5.319h-.819V-6.741H94.4V-8.081l1.79-1.041v2.38Zm5.142,4.6,1.777.3a2.915,2.915,0,0,1-1.082,1.489,3.179,3.179,0,0,1-1.85.511A3.016,3.016,0,0,1,98.79-1a3.86,3.86,0,0,1-.667-2.323A3.722,3.722,0,0,1,99-5.945a2.885,2.885,0,0,1,2.215-.949,2.992,2.992,0,0,1,2.374.993,4.4,4.4,0,0,1,.832,3.044H99.952a1.8,1.8,0,0,0,.432,1.235,1.35,1.35,0,0,0,1.028.441,1.092,1.092,0,0,0,.7-.229A1.411,1.411,0,0,0,102.548-2.146Zm.1-1.8a1.717,1.717,0,0,0-.4-1.177,1.227,1.227,0,0,0-.927-.4,1.239,1.239,0,0,0-.965.425,1.646,1.646,0,0,0-.375,1.155Z" transform="translate(1.828 36.464)"/>
    </g>
    <g id="Grupo_972378" data-name="Grupo 972378" transform="translate(1.18 1.18)">
      <path id="Trazado_696776" data-name="Trazado 696776" d="M183.193,4.42c58.173,50.642,61.314,135.686,7,189.934q-3.378,3.378-7,6.529l-9.453-9.442c52.967-45.446,56.118-122.039,7.025-171.07q-3.378-3.378-7.025-6.5l9.453-9.442Z" transform="translate(4.53 -1.073)" fill="#7cc8c6" fill-rule="evenodd"/>
      <path id="Trazado_696777" data-name="Trazado 696777" d="M183.193,4.42c58.173,50.642,61.314,135.686,7,189.934q-3.378,3.378-7,6.529l-9.453-9.442c52.967-45.446,56.118-122.039,7.025-171.07q-3.378-3.378-7.025-6.5l9.453-9.442Z" transform="translate(4.53 -1.073)" fill="none" stroke="#fff" stroke-linejoin="round" stroke-width="2.35"/>
      <path id="Trazado_696778" data-name="Trazado 696778" d="M280.906,200.883c-58.173-50.642-61.314-135.686-7-189.934q3.378-3.378,7-6.529l9.453,9.442c-52.967,45.446-56.118,122.039-7.025,171.07q3.378,3.378,7.025,6.5l-9.453,9.442Z" transform="translate(6.562 -1.073)" fill="#7cc8c6" fill-rule="evenodd"/>
      <path id="Trazado_696779" data-name="Trazado 696779" d="M280.906,200.883c-58.173-50.642-61.314-135.686-7-189.934q3.378-3.378,7-6.529l9.453,9.442c-52.967,45.446-56.118,122.039-7.025,171.07q3.378,3.378,7.025,6.5l-9.453,9.442Z" transform="translate(6.562 -1.073)" fill="none" stroke="#fff" stroke-linejoin="round" stroke-width="2.35"/>
      <path id="Trazado_696780" data-name="Trazado 696780" d="M315.48,61.982c0-29.691,25.724-53.752,57.461-53.752S430.4,32.3,430.4,61.982s-25.724,53.752-57.461,53.752S315.48,91.662,315.48,61.982h0Z" transform="translate(9.221 -0.947)" fill="#6dc4ca" fill-rule="evenodd" opacity="0.49"/>
      <path id="Trazado_696781" data-name="Trazado 696781" d="M315.48,61.982c0-29.691,25.724-53.752,57.461-53.752S430.4,32.3,430.4,61.982s-25.724,53.752-57.461,53.752S315.48,91.662,315.48,61.982h0Z" transform="translate(9.221 -0.947)" fill="none" stroke="#fff" stroke-linejoin="round" stroke-width="2.35" opacity="0.49"/>
      <path id="Trazado_698301" data-name="Trazado 698301" d="M4.463-2.9V-4.222H7.89v3.137a4.314,4.314,0,0,1-1.448.851,5.268,5.268,0,0,1-1.92.368A4.31,4.31,0,0,1,2.369-.384,3.3,3.3,0,0,1,.988-1.866a4.791,4.791,0,0,1-.462-2.1A4.532,4.532,0,0,1,1.042-6.15,3.473,3.473,0,0,1,2.551-7.616a4.072,4.072,0,0,1,1.885-.392,3.761,3.761,0,0,1,2.291.615,2.777,2.777,0,0,1,1.061,1.7l-1.579.3a1.668,1.668,0,0,0-.626-.916,1.891,1.891,0,0,0-1.147-.336,2.154,2.154,0,0,0-1.657.661,2.783,2.783,0,0,0-.615,1.96,3.083,3.083,0,0,0,.623,2.1,2.08,2.08,0,0,0,1.633.7,2.738,2.738,0,0,0,1-.2A3.433,3.433,0,0,0,6.284-1.9v-1Zm6.979,1.08,1.5.252A2.467,2.467,0,0,1,12.031-.3a2.69,2.69,0,0,1-1.566.432,2.552,2.552,0,0,1-2.2-.972A3.266,3.266,0,0,1,7.7-2.809,3.15,3.15,0,0,1,8.44-5.03a2.441,2.441,0,0,1,1.875-.8,2.532,2.532,0,0,1,2.009.841,3.719,3.719,0,0,1,.7,2.575H9.246a1.527,1.527,0,0,0,.365,1.045,1.142,1.142,0,0,0,.87.373.924.924,0,0,0,.6-.193A1.194,1.194,0,0,0,11.443-1.815Zm.086-1.525a1.453,1.453,0,0,0-.338-1,1.038,1.038,0,0,0-.784-.341,1.048,1.048,0,0,0-.816.36,1.393,1.393,0,0,0-.317.978ZM16.024,0H14.515V-5.7h1.4v.811a2.438,2.438,0,0,1,.647-.757,1.191,1.191,0,0,1,.653-.183,1.916,1.916,0,0,1,.994.285l-.467,1.316a1.324,1.324,0,0,0-.709-.247A.838.838,0,0,0,16.5-4.3a1.193,1.193,0,0,0-.346.631,8.966,8.966,0,0,0-.126,1.912Zm6.461-1.815,1.5.252A2.467,2.467,0,0,1,23.074-.3a2.69,2.69,0,0,1-1.566.432,2.552,2.552,0,0,1-2.2-.972,3.266,3.266,0,0,1-.564-1.966,3.15,3.15,0,0,1,.741-2.221,2.441,2.441,0,0,1,1.875-.8,2.532,2.532,0,0,1,2.009.841,3.719,3.719,0,0,1,.7,2.575H20.289a1.527,1.527,0,0,0,.365,1.045,1.142,1.142,0,0,0,.87.373.924.924,0,0,0,.6-.193A1.194,1.194,0,0,0,22.486-1.815Zm.086-1.525a1.453,1.453,0,0,0-.338-1,1.038,1.038,0,0,0-.784-.341,1.048,1.048,0,0,0-.816.36,1.393,1.393,0,0,0-.317.978ZM30.811,0H29.3V-2.911a4.5,4.5,0,0,0-.1-1.2.838.838,0,0,0-.314-.422.9.9,0,0,0-.524-.15,1.21,1.21,0,0,0-.7.215,1.082,1.082,0,0,0-.427.569,4.921,4.921,0,0,0-.115,1.311V0H25.612V-5.7h1.4v.838a2.284,2.284,0,0,1,1.88-.967,2.265,2.265,0,0,1,.913.18,1.53,1.53,0,0,1,.626.459,1.664,1.664,0,0,1,.3.634,4.714,4.714,0,0,1,.083,1.015Zm3.824-5.7v1.2H33.6v2.3a5.717,5.717,0,0,0,.03.814.332.332,0,0,0,.134.191.426.426,0,0,0,.255.075,1.952,1.952,0,0,0,.607-.145L34.759-.1a3,3,0,0,1-1.192.226,1.891,1.891,0,0,1-.736-.137,1.074,1.074,0,0,1-.481-.354,1.4,1.4,0,0,1-.212-.588,7.316,7.316,0,0,1-.048-1.063V-4.5H31.4V-5.7h.693V-6.837L33.6-7.718V-5.7Zm4.351,3.889,1.5.252A2.467,2.467,0,0,1,39.574-.3a2.69,2.69,0,0,1-1.566.432,2.552,2.552,0,0,1-2.2-.972,3.266,3.266,0,0,1-.564-1.966,3.15,3.15,0,0,1,.741-2.221,2.441,2.441,0,0,1,1.875-.8,2.532,2.532,0,0,1,2.009.841,3.719,3.719,0,0,1,.7,2.575H36.789a1.527,1.527,0,0,0,.365,1.045,1.142,1.142,0,0,0,.87.373.924.924,0,0,0,.6-.193A1.194,1.194,0,0,0,38.986-1.815Zm.086-1.525a1.453,1.453,0,0,0-.338-1,1.038,1.038,0,0,0-.784-.341,1.048,1.048,0,0,0-.816.36,1.393,1.393,0,0,0-.317.978Zm2.519,1.713,1.515-.231a1.11,1.11,0,0,0,.392.669,1.325,1.325,0,0,0,.827.228,1.493,1.493,0,0,0,.881-.215.48.48,0,0,0,.2-.4.4.4,0,0,0-.107-.285,1.2,1.2,0,0,0-.5-.2A8.142,8.142,0,0,1,42.477-2.8,1.47,1.47,0,0,1,41.8-4.082a1.582,1.582,0,0,1,.585-1.246,2.734,2.734,0,0,1,1.815-.5,3.167,3.167,0,0,1,1.74.381,1.949,1.949,0,0,1,.784,1.128L45.3-4.061a.88.88,0,0,0-.346-.51,1.267,1.267,0,0,0-.728-.177,1.64,1.64,0,0,0-.854.167.358.358,0,0,0-.172.306.334.334,0,0,0,.15.274,5.663,5.663,0,0,0,1.41.424,4.2,4.2,0,0,1,1.684.671,1.4,1.4,0,0,1,.473,1.123,1.723,1.723,0,0,1-.655,1.348,2.9,2.9,0,0,1-1.939.564A3.182,3.182,0,0,1,42.48-.344,2.178,2.178,0,0,1,41.591-1.627Z" transform="translate(357.708 52.801)"/>
      <path id="Trazado_696782" data-name="Trazado 696782" d="M355.21,126.787c0-29.433,25.724-53.3,57.461-53.3s57.461,23.864,57.461,53.3-25.724,53.3-57.461,53.3-57.461-23.864-57.461-53.3Z" transform="translate(10.536 1.213)" fill="#6dc4ca" fill-rule="evenodd" opacity="0.49"/>
      <path id="Trazado_696783" data-name="Trazado 696783" d="M355.21,126.787c0-29.433,25.724-53.3,57.461-53.3s57.461,23.864,57.461,53.3-25.724,53.3-57.461,53.3-57.461-23.864-57.461-53.3Z" transform="translate(10.536 1.213)" fill="none" stroke="#fff" stroke-linejoin="round" stroke-width="2.35" opacity="0.49"/>
      <path id="Trazado_698300" data-name="Trazado 698300" d="M.728,0V-7.158H6.035v1.211H2.173V-4.36H5.767v1.206H2.173v1.948h4V0ZM6.491-5.186H7.756v.708A2.035,2.035,0,0,1,9.372-5.3a1.741,1.741,0,0,1,.864.205,1.576,1.576,0,0,1,.6.62,2.4,2.4,0,0,1,.737-.62,1.809,1.809,0,0,1,.845-.205,1.881,1.881,0,0,1,.967.232,1.421,1.421,0,0,1,.591.681,2.955,2.955,0,0,1,.142,1.074V0H12.746V-2.964a2.205,2.205,0,0,0-.142-1,.65.65,0,0,0-.586-.293.935.935,0,0,0-.542.176.975.975,0,0,0-.366.515A3.706,3.706,0,0,0,11-2.49V0H9.626V-2.842a3.942,3.942,0,0,0-.073-.977.623.623,0,0,0-.227-.327.718.718,0,0,0-.417-.107,1,1,0,0,0-.571.171.937.937,0,0,0-.364.493,3.666,3.666,0,0,0-.11,1.069V0H6.491Zm9.248,0h1.279v.762a1.914,1.914,0,0,1,.674-.635,1.857,1.857,0,0,1,.942-.244,1.977,1.977,0,0,1,1.533.708,2.866,2.866,0,0,1,.63,1.973A2.953,2.953,0,0,1,20.163-.6a1.978,1.978,0,0,1-1.538.72,1.748,1.748,0,0,1-.779-.171,2.625,2.625,0,0,1-.735-.586V1.973H15.739Zm1.357,2.5a2,2,0,0,0,.347,1.292,1.06,1.06,0,0,0,.845.417.991.991,0,0,0,.8-.383A1.975,1.975,0,0,0,19.4-2.612a1.874,1.874,0,0,0-.327-1.211,1.012,1.012,0,0,0-.811-.4,1.053,1.053,0,0,0-.835.388A1.728,1.728,0,0,0,17.1-2.681ZM21.594,0V-7.158h1.372V0Zm5.488-1.65,1.367.229a2.243,2.243,0,0,1-.833,1.145,2.446,2.446,0,0,1-1.423.393,2.32,2.32,0,0,1-2-.884,2.969,2.969,0,0,1-.513-1.787,2.863,2.863,0,0,1,.674-2.019,2.219,2.219,0,0,1,1.7-.73,2.3,2.3,0,0,1,1.826.764,3.381,3.381,0,0,1,.64,2.341H25.085a1.388,1.388,0,0,0,.332.95,1.039,1.039,0,0,0,.791.339.84.84,0,0,0,.542-.176A1.086,1.086,0,0,0,27.082-1.65Zm.078-1.387a1.321,1.321,0,0,0-.308-.906.944.944,0,0,0-.713-.31.953.953,0,0,0-.742.327,1.266,1.266,0,0,0-.288.889Zm3.8-.566-1.245-.225a1.939,1.939,0,0,1,.723-1.113A2.644,2.644,0,0,1,31.96-5.3a3.283,3.283,0,0,1,1.367.217,1.364,1.364,0,0,1,.632.552,2.829,2.829,0,0,1,.183,1.228l-.015,1.6A5.56,5.56,0,0,0,34.194-.7a2.943,2.943,0,0,0,.247.7H33.083q-.054-.137-.132-.405-.034-.122-.049-.161a2.474,2.474,0,0,1-.752.513A2.154,2.154,0,0,1,31.3.117a1.767,1.767,0,0,1-1.262-.435,1.444,1.444,0,0,1-.461-1.1,1.475,1.475,0,0,1,.21-.784,1.372,1.372,0,0,1,.588-.527,4.6,4.6,0,0,1,1.091-.32,7.476,7.476,0,0,0,1.333-.337v-.137a.71.71,0,0,0-.2-.564,1.17,1.17,0,0,0-.737-.168.982.982,0,0,0-.571.144A1,1,0,0,0,30.959-3.6ZM32.795-2.49a8.576,8.576,0,0,1-.835.21,2.515,2.515,0,0,0-.747.239.572.572,0,0,0-.269.483.673.673,0,0,0,.215.5.75.75,0,0,0,.547.21,1.188,1.188,0,0,0,.708-.244.859.859,0,0,0,.327-.454,2.709,2.709,0,0,0,.054-.669ZM40.544,0H39.27V-.762a2.059,2.059,0,0,1-.75.662,1.923,1.923,0,0,1-.872.217A1.975,1.975,0,0,1,36.118-.6a2.93,2.93,0,0,1-.637-2.009,2.9,2.9,0,0,1,.62-2A2.022,2.022,0,0,1,37.668-5.3a1.941,1.941,0,0,1,1.5.723V-7.158h1.372ZM36.882-2.705a2.374,2.374,0,0,0,.229,1.2,1.037,1.037,0,0,0,.928.537,1.01,1.01,0,0,0,.806-.4,1.859,1.859,0,0,0,.332-1.2,2.035,2.035,0,0,0-.322-1.287,1.02,1.02,0,0,0-.825-.393,1.031,1.031,0,0,0-.818.388A1.754,1.754,0,0,0,36.882-2.705Zm4.4.039a2.805,2.805,0,0,1,.337-1.323,2.313,2.313,0,0,1,.955-.977A2.833,2.833,0,0,1,43.957-5.3a2.589,2.589,0,0,1,1.929.764,2.64,2.64,0,0,1,.752,1.931,2.672,2.672,0,0,1-.759,1.951,2.566,2.566,0,0,1-1.912.774,3.011,3.011,0,0,1-1.36-.322,2.211,2.211,0,0,1-.984-.945A3.148,3.148,0,0,1,41.286-2.666Zm1.406.073a1.718,1.718,0,0,0,.366,1.182,1.164,1.164,0,0,0,.9.41,1.156,1.156,0,0,0,.9-.41A1.742,1.742,0,0,0,45.227-2.6a1.71,1.71,0,0,0-.364-1.172,1.156,1.156,0,0,0-.9-.41,1.164,1.164,0,0,0-.9.41A1.718,1.718,0,0,0,42.692-2.593Zm4.243,1.113,1.377-.21a1.009,1.009,0,0,0,.356.608,1.2,1.2,0,0,0,.752.208,1.358,1.358,0,0,0,.8-.2.436.436,0,0,0,.181-.366.36.36,0,0,0-.1-.259,1.093,1.093,0,0,0-.459-.181,7.4,7.4,0,0,1-2.1-.669,1.336,1.336,0,0,1-.615-1.167,1.438,1.438,0,0,1,.532-1.133,2.485,2.485,0,0,1,1.65-.459,2.879,2.879,0,0,1,1.582.347A1.772,1.772,0,0,1,51.6-3.931l-1.294.239a.8.8,0,0,0-.315-.464,1.152,1.152,0,0,0-.662-.161,1.491,1.491,0,0,0-.776.151.325.325,0,0,0-.156.278.3.3,0,0,0,.137.249,5.148,5.148,0,0,0,1.282.386,3.816,3.816,0,0,1,1.531.61,1.269,1.269,0,0,1,.43,1.021,1.566,1.566,0,0,1-.6,1.226,2.637,2.637,0,0,1-1.763.513,2.892,2.892,0,0,1-1.677-.43A1.98,1.98,0,0,1,46.936-1.479Z" transform="translate(406.294 133.167)"/>
      <path id="Trazado_696784" data-name="Trazado 696784" d="M274.87,126.787c0-29.433,25.724-53.3,57.461-53.3s57.461,23.864,57.461,53.3-25.724,53.3-57.461,53.3-57.461-23.864-57.461-53.3Z" transform="translate(7.877 1.213)" fill="#6dc4ca" fill-rule="evenodd" opacity="0.49"/>
      <path id="Trazado_696785" data-name="Trazado 696785" d="M274.87,126.787c0-29.433,25.724-53.3,57.461-53.3s57.461,23.864,57.461,53.3-25.724,53.3-57.461,53.3-57.461-23.864-57.461-53.3Z" transform="translate(7.877 1.213)" fill="none" stroke="#fff" stroke-linejoin="round" stroke-width="2.35" opacity="0.49"/>
      <path id="Trazado_698299" data-name="Trazado 698299" d="M.843,0V-7.81h1.59v6.483H6.386V0ZM7.186,0V-5.7H8.7V0ZM7.074-6.4l.741-1.606H9.507L8.03-6.4ZM15.152,0h-1.4V-.838a2.265,2.265,0,0,1-.824.728,2.115,2.115,0,0,1-.959.239,2.173,2.173,0,0,1-1.684-.792,3.223,3.223,0,0,1-.7-2.21,3.185,3.185,0,0,1,.682-2.2,2.224,2.224,0,0,1,1.724-.755,2.136,2.136,0,0,1,1.654.795V-7.874h1.509ZM11.123-2.976a2.612,2.612,0,0,0,.252,1.321,1.141,1.141,0,0,0,1.021.591,1.111,1.111,0,0,0,.886-.443,2.045,2.045,0,0,0,.365-1.324,2.238,2.238,0,0,0-.354-1.415,1.122,1.122,0,0,0-.908-.432,1.134,1.134,0,0,0-.9.427A1.929,1.929,0,0,0,11.123-2.976Zm8.5,1.16,1.5.252A2.467,2.467,0,0,1,20.209-.3a2.69,2.69,0,0,1-1.566.432,2.552,2.552,0,0,1-2.2-.972,3.266,3.266,0,0,1-.564-1.966,3.15,3.15,0,0,1,.741-2.221,2.441,2.441,0,0,1,1.875-.8,2.532,2.532,0,0,1,2.009.841,3.719,3.719,0,0,1,.7,2.575H17.424a1.527,1.527,0,0,0,.365,1.045,1.142,1.142,0,0,0,.87.373.924.924,0,0,0,.6-.193A1.194,1.194,0,0,0,19.62-1.815Zm.086-1.525a1.453,1.453,0,0,0-.338-1,1.038,1.038,0,0,0-.784-.341,1.048,1.048,0,0,0-.816.36,1.393,1.393,0,0,0-.317.978ZM24.2,0H22.693V-5.7h1.4v.811a2.438,2.438,0,0,1,.647-.757,1.191,1.191,0,0,1,.653-.183,1.916,1.916,0,0,1,.994.285l-.467,1.316a1.324,1.324,0,0,0-.709-.247.838.838,0,0,0-.537.175,1.193,1.193,0,0,0-.346.631A8.966,8.966,0,0,0,24.2-1.762Zm6.461-1.815,1.5.252A2.467,2.467,0,0,1,31.252-.3a2.69,2.69,0,0,1-1.566.432,2.552,2.552,0,0,1-2.2-.972,3.266,3.266,0,0,1-.564-1.966,3.15,3.15,0,0,1,.741-2.221,2.441,2.441,0,0,1,1.875-.8,2.532,2.532,0,0,1,2.009.841,3.719,3.719,0,0,1,.7,2.575H28.467a1.527,1.527,0,0,0,.365,1.045A1.142,1.142,0,0,0,29.7-1a.924.924,0,0,0,.6-.193A1.194,1.194,0,0,0,30.664-1.815Zm.086-1.525a1.453,1.453,0,0,0-.338-1,1.038,1.038,0,0,0-.784-.341,1.048,1.048,0,0,0-.816.36,1.393,1.393,0,0,0-.317.978Zm2.519,1.713,1.515-.231a1.11,1.11,0,0,0,.392.669A1.325,1.325,0,0,0,36-.961a1.493,1.493,0,0,0,.881-.215.48.48,0,0,0,.2-.4.4.4,0,0,0-.107-.285,1.2,1.2,0,0,0-.5-.2A8.142,8.142,0,0,1,34.155-2.8a1.47,1.47,0,0,1-.677-1.284,1.582,1.582,0,0,1,.585-1.246,2.734,2.734,0,0,1,1.815-.5,3.167,3.167,0,0,1,1.74.381A1.949,1.949,0,0,1,38.4-4.324l-1.423.263a.88.88,0,0,0-.346-.51,1.267,1.267,0,0,0-.728-.177,1.64,1.64,0,0,0-.854.167.358.358,0,0,0-.172.306A.334.334,0,0,0,35.03-4a5.663,5.663,0,0,0,1.41.424,4.2,4.2,0,0,1,1.684.671A1.4,1.4,0,0,1,38.6-1.783a1.723,1.723,0,0,1-.655,1.348A2.9,2.9,0,0,1,36,.129a3.182,3.182,0,0,1-1.845-.473A2.178,2.178,0,0,1,33.269-1.627Z" transform="translate(313.564 132.287)"/>
      <path id="Trazado_696786" data-name="Trazado 696786" d="M20.6,40.809C20.6,18.918,39.588,1.18,63.008,1.18s42.408,17.749,42.408,39.629S86.429,80.439,63.008,80.439,20.6,62.69,20.6,40.809Z" transform="translate(-0.537 -1.18)" fill="#6dc4ca" fill-rule="evenodd" opacity="0.49"/>
      <path id="Trazado_696787" data-name="Trazado 696787" d="M20.6,40.809C20.6,18.918,39.588,1.18,63.008,1.18s42.408,17.749,42.408,39.629S86.429,80.439,63.008,80.439,20.6,62.69,20.6,40.809Z" transform="translate(-0.537 -1.18)" fill="none" stroke="#fff" stroke-linejoin="round" stroke-width="2.35" opacity="0.49"/>
      <path id="Trazado_698304" data-name="Trazado 698304" d="M.8,0V-7.874H3.352a9.252,9.252,0,0,1,1.891.118,2.065,2.065,0,0,1,1.133.771,2.444,2.444,0,0,1,.457,1.533,2.569,2.569,0,0,1-.263,1.219,2.159,2.159,0,0,1-.669.776,2.3,2.3,0,0,1-.824.373,9.075,9.075,0,0,1-1.649.113H2.39V0ZM2.39-6.542v2.234h.87a4.111,4.111,0,0,0,1.257-.124,1.044,1.044,0,0,0,.5-.387,1.058,1.058,0,0,0,.18-.612,1.017,1.017,0,0,0-.252-.709A1.1,1.1,0,0,0,4.3-6.488a7.642,7.642,0,0,0-1.144-.054ZM7.777-2.933a3.086,3.086,0,0,1,.371-1.456A2.544,2.544,0,0,1,9.2-5.462a3.116,3.116,0,0,1,1.517-.371,2.848,2.848,0,0,1,2.122.841,2.9,2.9,0,0,1,.827,2.124,2.939,2.939,0,0,1-.835,2.146,2.823,2.823,0,0,1-2.1.851,3.312,3.312,0,0,1-1.5-.354A2.432,2.432,0,0,1,8.148-1.265,3.463,3.463,0,0,1,7.777-2.933Zm1.547.081a1.89,1.89,0,0,0,.4,1.3,1.28,1.28,0,0,0,.994.451,1.272,1.272,0,0,0,.991-.451,1.916,1.916,0,0,0,.4-1.311,1.881,1.881,0,0,0-.4-1.289,1.272,1.272,0,0,0-.991-.451,1.28,1.28,0,0,0-.994.451A1.89,1.89,0,0,0,9.324-2.852ZM14.523,0V-7.874h1.509V0Zm2.734,0V-5.7h1.509V0Zm-.113-6.4.741-1.606h1.692L18.1-6.4Zm5.462.7v1.2H21.576v2.3a5.718,5.718,0,0,0,.03.814.332.332,0,0,0,.134.191.426.426,0,0,0,.255.075,1.952,1.952,0,0,0,.607-.145L22.73-.1a3,3,0,0,1-1.192.226A1.891,1.891,0,0,1,20.8-.008a1.074,1.074,0,0,1-.481-.354,1.4,1.4,0,0,1-.212-.588,7.316,7.316,0,0,1-.048-1.063V-4.5h-.693V-5.7h.693V-6.837l1.515-.881V-5.7Zm1.047-.773v-1.4h1.509v1.4Zm0,6.478V-5.7h1.509V0Zm7.707-4.018-1.488.269a1.08,1.08,0,0,0-.341-.671,1.03,1.03,0,0,0-.69-.226,1.128,1.128,0,0,0-.9.389,2,2,0,0,0-.336,1.3,2.308,2.308,0,0,0,.341,1.434,1.12,1.12,0,0,0,.916.419,1.017,1.017,0,0,0,.7-.244,1.47,1.47,0,0,0,.387-.841l1.482.252a2.631,2.631,0,0,1-.886,1.542,2.743,2.743,0,0,1-1.756.521,2.611,2.611,0,0,1-2-.79,3.061,3.061,0,0,1-.744-2.186,3.068,3.068,0,0,1,.747-2.2,2.652,2.652,0,0,1,2.02-.787,2.755,2.755,0,0,1,1.657.448A2.485,2.485,0,0,1,31.362-4.018Zm2.594.054-1.37-.247a2.133,2.133,0,0,1,.795-1.225,2.909,2.909,0,0,1,1.676-.4,3.612,3.612,0,0,1,1.5.239,1.5,1.5,0,0,1,.7.607,3.112,3.112,0,0,1,.2,1.351l-.016,1.762a6.116,6.116,0,0,0,.073,1.109A3.237,3.237,0,0,0,37.786,0H36.292q-.059-.15-.145-.446-.038-.134-.054-.177a2.721,2.721,0,0,1-.827.564,2.369,2.369,0,0,1-.94.188,1.944,1.944,0,0,1-1.388-.478,1.589,1.589,0,0,1-.508-1.208,1.622,1.622,0,0,1,.231-.862A1.509,1.509,0,0,1,33.309-3a5.058,5.058,0,0,1,1.2-.352,8.223,8.223,0,0,0,1.466-.371v-.15a.781.781,0,0,0-.215-.62,1.287,1.287,0,0,0-.811-.185,1.08,1.08,0,0,0-.628.158A1.1,1.1,0,0,0,33.956-3.964Zm2.02,1.225a9.434,9.434,0,0,1-.918.231,2.767,2.767,0,0,0-.822.263.629.629,0,0,0-.3.532.74.74,0,0,0,.236.548.825.825,0,0,0,.6.231,1.307,1.307,0,0,0,.779-.269.945.945,0,0,0,.36-.5,2.98,2.98,0,0,0,.059-.736Z" transform="translate(42.233 42.356)"/>
      <path id="Trazado_696788" data-name="Trazado 696788" d="M30.31,99.875c0-6.292,5.517-11.385,12.314-11.385s12.314,5.1,12.314,11.385-5.517,11.385-12.314,11.385-12.314-5.1-12.314-11.385h0Z" transform="translate(-0.216 1.709)" fill="#6dc4ca" fill-rule="evenodd" opacity="0.49"/>
      <path id="Trazado_696789" data-name="Trazado 696789" d="M30.31,99.875c0-6.292,5.517-11.385,12.314-11.385s12.314,5.1,12.314,11.385-5.517,11.385-12.314,11.385-12.314-5.1-12.314-11.385h0Z" transform="translate(-0.216 1.709)" fill="none" stroke="#fff" stroke-linejoin="round" stroke-width="2.35" opacity="0.49"/>
      <path id="Trazado_696790" data-name="Trazado 696790" d="M107.12,15.215a11.87,11.87,0,0,1,23.72,0,11.87,11.87,0,0,1-23.72,0h0Z" transform="translate(2.326 -1.092)" fill="#6dc4ca" fill-rule="evenodd" opacity="0.49"/>
      <path id="Trazado_696791" data-name="Trazado 696791" d="M107.12,15.215a11.87,11.87,0,0,1,23.72,0,11.87,11.87,0,0,1-23.72,0h0Z" transform="translate(2.326 -1.092)" fill="none" stroke="#fff" stroke-linejoin="round" stroke-width="2.35" opacity="0.49"/>
      <path id="Trazado_696792" data-name="Trazado 696792" d="M107.12,66.379c0-21.891,18.988-39.629,42.408-39.629S191.937,44.5,191.937,66.379s-18.988,39.629-42.408,39.629S107.12,88.26,107.12,66.379h0Z" transform="translate(2.326 -0.334)" fill="#6dc4ca" fill-rule="evenodd" opacity="0.49"/>
      <path id="Trazado_696793" data-name="Trazado 696793" d="M107.12,66.379c0-21.891,18.988-39.629,42.408-39.629S191.937,44.5,191.937,66.379s-18.988,39.629-42.408,39.629S107.12,88.26,107.12,66.379h0Z" transform="translate(2.326 -0.334)" fill="none" stroke="#fff" stroke-linejoin="round" stroke-width="2.35" opacity="0.49"/>
      <path id="Trazado_698305" data-name="Trazado 698305" d="M.728,0V-7.158H6.035v1.211H2.173V-4.36H5.767v1.206H2.173v1.948h4V0ZM11.115-3.652l-1.353.244a.982.982,0,0,0-.31-.61.936.936,0,0,0-.627-.205,1.025,1.025,0,0,0-.818.354A1.814,1.814,0,0,0,7.7-2.686a2.1,2.1,0,0,0,.31,1.3A1.018,1.018,0,0,0,8.845-1a.925.925,0,0,0,.64-.222,1.336,1.336,0,0,0,.352-.764l1.348.229a2.391,2.391,0,0,1-.806,1.4,2.494,2.494,0,0,1-1.6.474A2.374,2.374,0,0,1,6.967-.6a2.783,2.783,0,0,1-.676-1.987,2.789,2.789,0,0,1,.679-2A2.411,2.411,0,0,1,8.806-5.3a2.5,2.5,0,0,1,1.506.408A2.259,2.259,0,0,1,11.115-3.652Zm1.016.986a2.805,2.805,0,0,1,.337-1.323,2.313,2.313,0,0,1,.955-.977A2.833,2.833,0,0,1,14.8-5.3a2.589,2.589,0,0,1,1.929.764,2.64,2.64,0,0,1,.752,1.931,2.672,2.672,0,0,1-.759,1.951,2.566,2.566,0,0,1-1.912.774,3.011,3.011,0,0,1-1.36-.322,2.211,2.211,0,0,1-.984-.945A3.148,3.148,0,0,1,12.131-2.666Zm1.406.073A1.718,1.718,0,0,0,13.9-1.411a1.164,1.164,0,0,0,.9.41,1.156,1.156,0,0,0,.9-.41A1.742,1.742,0,0,0,16.071-2.6a1.71,1.71,0,0,0-.364-1.172,1.156,1.156,0,0,0-.9-.41,1.164,1.164,0,0,0-.9.41A1.718,1.718,0,0,0,13.537-2.593ZM22.98,0H21.608V-2.646a4.09,4.09,0,0,0-.088-1.086.762.762,0,0,0-.286-.383.816.816,0,0,0-.476-.137,1.1,1.1,0,0,0-.64.2.984.984,0,0,0-.388.518,4.474,4.474,0,0,0-.1,1.191V0H18.254V-5.186h1.274v.762A2.076,2.076,0,0,1,21.237-5.3a2.059,2.059,0,0,1,.83.164,1.391,1.391,0,0,1,.569.417,1.512,1.512,0,0,1,.269.576,4.286,4.286,0,0,1,.076.923Zm.781-2.666A2.805,2.805,0,0,1,24.1-3.989a2.313,2.313,0,0,1,.955-.977A2.833,2.833,0,0,1,26.433-5.3a2.589,2.589,0,0,1,1.929.764,2.64,2.64,0,0,1,.752,1.931,2.672,2.672,0,0,1-.759,1.951,2.566,2.566,0,0,1-1.912.774,3.011,3.011,0,0,1-1.36-.322A2.211,2.211,0,0,1,24.1-1.15,3.148,3.148,0,0,1,23.762-2.666Zm1.406.073a1.718,1.718,0,0,0,.366,1.182,1.164,1.164,0,0,0,.9.41,1.156,1.156,0,0,0,.9-.41A1.742,1.742,0,0,0,27.7-2.6a1.71,1.71,0,0,0-.364-1.172,1.156,1.156,0,0,0-.9-.41,1.164,1.164,0,0,0-.9.41A1.718,1.718,0,0,0,25.168-2.593Zm4.624-2.593h1.265v.708A2.035,2.035,0,0,1,32.673-5.3a1.741,1.741,0,0,1,.864.205,1.576,1.576,0,0,1,.6.62,2.4,2.4,0,0,1,.737-.62A1.809,1.809,0,0,1,35.72-5.3a1.881,1.881,0,0,1,.967.232,1.421,1.421,0,0,1,.591.681,2.955,2.955,0,0,1,.142,1.074V0H36.047V-2.964a2.205,2.205,0,0,0-.142-1,.65.65,0,0,0-.586-.293.935.935,0,0,0-.542.176.975.975,0,0,0-.366.515A3.706,3.706,0,0,0,34.3-2.49V0H32.927V-2.842a3.942,3.942,0,0,0-.073-.977.623.623,0,0,0-.227-.327.718.718,0,0,0-.417-.107,1,1,0,0,0-.571.171.937.937,0,0,0-.364.493,3.666,3.666,0,0,0-.11,1.069V0H29.792ZM39.079,0V-5.186h1.372V0Zm-.1-5.82.674-1.46h1.538L39.846-5.82ZM42.59-3.6l-1.245-.225a1.939,1.939,0,0,1,.723-1.113A2.644,2.644,0,0,1,43.591-5.3a3.283,3.283,0,0,1,1.367.217,1.364,1.364,0,0,1,.632.552,2.829,2.829,0,0,1,.183,1.228l-.015,1.6A5.56,5.56,0,0,0,45.825-.7a2.943,2.943,0,0,0,.247.7H44.714q-.054-.137-.132-.405-.034-.122-.049-.161a2.474,2.474,0,0,1-.752.513,2.154,2.154,0,0,1-.854.171,1.767,1.767,0,0,1-1.262-.435,1.444,1.444,0,0,1-.461-1.1,1.475,1.475,0,0,1,.21-.784A1.372,1.372,0,0,1,42-2.727a4.6,4.6,0,0,1,1.091-.32,7.476,7.476,0,0,0,1.333-.337v-.137a.71.71,0,0,0-.2-.564,1.17,1.17,0,0,0-.737-.168.982.982,0,0,0-.571.144A1,1,0,0,0,42.59-3.6ZM44.426-2.49a8.576,8.576,0,0,1-.835.21,2.515,2.515,0,0,0-.747.239.572.572,0,0,0-.269.483.673.673,0,0,0,.215.5.75.75,0,0,0,.547.21,1.188,1.188,0,0,0,.708-.244.859.859,0,0,0,.327-.454,2.709,2.709,0,0,0,.054-.669Z" transform="translate(125.118 67.401)"/>
      <path id="Trazado_696794" data-name="Trazado 696794" d="M174.22,115.745a11.87,11.87,0,1,1,11.86,11.385,11.627,11.627,0,0,1-11.86-11.385h0Z" transform="translate(4.546 2.234)" fill="#6dc4ca" fill-rule="evenodd" opacity="0.49"/>
      <path id="Trazado_696795" data-name="Trazado 696795" d="M174.22,115.745a11.87,11.87,0,1,1,11.86,11.385,11.627,11.627,0,0,1-11.86-11.385h0Z" transform="translate(4.546 2.234)" fill="none" stroke="#fff" stroke-linejoin="round" stroke-width="2.35" opacity="0.49"/>
      <path id="Trazado_696796" data-name="Trazado 696796" d="M1.18,157.645c0-21.633,18.988-39.175,42.408-39.175S86,136.012,86,157.645,67.009,196.82,43.588,196.82,1.18,179.278,1.18,157.645Z" transform="translate(-1.18 2.701)" fill="#6dc4ca" fill-rule="evenodd" opacity="0.49"/>
      <path id="Trazado_696797" data-name="Trazado 696797" d="M1.18,157.645c0-21.633,18.988-39.175,42.408-39.175S86,136.012,86,157.645,67.009,196.82,43.588,196.82,1.18,179.278,1.18,157.645Z" transform="translate(-1.18 2.701)" fill="none" stroke="#fff" stroke-linejoin="round" stroke-width="2.35" opacity="0.49"/>
      <path id="Trazado_698303" data-name="Trazado 698303" d="M2.339,0V-5.947H.215V-7.158H5.9v1.211H3.784V0ZM8.794-1.65l1.367.229A2.243,2.243,0,0,1,9.329-.276,2.446,2.446,0,0,1,7.905.117a2.32,2.32,0,0,1-2-.884,2.969,2.969,0,0,1-.513-1.787,2.863,2.863,0,0,1,.674-2.019,2.219,2.219,0,0,1,1.7-.73,2.3,2.3,0,0,1,1.826.764,3.381,3.381,0,0,1,.64,2.341H6.8a1.388,1.388,0,0,0,.332.95,1.039,1.039,0,0,0,.791.339.84.84,0,0,0,.542-.176A1.086,1.086,0,0,0,8.794-1.65Zm.078-1.387a1.321,1.321,0,0,0-.308-.906.944.944,0,0,0-.713-.31.953.953,0,0,0-.742.327,1.266,1.266,0,0,0-.288.889Zm7.295-.615-1.353.244a.982.982,0,0,0-.31-.61.936.936,0,0,0-.627-.205,1.025,1.025,0,0,0-.818.354,1.814,1.814,0,0,0-.305,1.184,2.1,2.1,0,0,0,.31,1.3A1.018,1.018,0,0,0,13.9-1a.925.925,0,0,0,.64-.222,1.336,1.336,0,0,0,.352-.764l1.348.229a2.391,2.391,0,0,1-.806,1.4,2.494,2.494,0,0,1-1.6.474A2.374,2.374,0,0,1,12.019-.6a2.783,2.783,0,0,1-.676-1.987,2.789,2.789,0,0,1,.679-2A2.411,2.411,0,0,1,13.857-5.3a2.5,2.5,0,0,1,1.506.408A2.259,2.259,0,0,1,16.167-3.652ZM22.217,0H20.845V-2.646a4.09,4.09,0,0,0-.088-1.086.762.762,0,0,0-.286-.383A.816.816,0,0,0,20-4.253a1.1,1.1,0,0,0-.64.2.984.984,0,0,0-.388.518,4.474,4.474,0,0,0-.1,1.191V0H17.49V-5.186h1.274v.762A2.076,2.076,0,0,1,20.474-5.3a2.059,2.059,0,0,1,.83.164,1.391,1.391,0,0,1,.569.417,1.512,1.512,0,0,1,.269.576,4.286,4.286,0,0,1,.076.923ZM23-2.666a2.805,2.805,0,0,1,.337-1.323,2.313,2.313,0,0,1,.955-.977A2.833,2.833,0,0,1,25.669-5.3a2.589,2.589,0,0,1,1.929.764,2.64,2.64,0,0,1,.752,1.931A2.672,2.672,0,0,1,27.59-.657a2.566,2.566,0,0,1-1.912.774,3.011,3.011,0,0,1-1.36-.322,2.211,2.211,0,0,1-.984-.945A3.148,3.148,0,0,1,23-2.666Zm1.406.073a1.718,1.718,0,0,0,.366,1.182,1.164,1.164,0,0,0,.9.41,1.156,1.156,0,0,0,.9-.41A1.742,1.742,0,0,0,26.938-2.6a1.71,1.71,0,0,0-.364-1.172,1.156,1.156,0,0,0-.9-.41,1.164,1.164,0,0,0-.9.41A1.718,1.718,0,0,0,24.4-2.593ZM29.131,0V-7.158H30.5V0ZM31.3-2.666a2.805,2.805,0,0,1,.337-1.323,2.313,2.313,0,0,1,.955-.977A2.833,2.833,0,0,1,33.97-5.3a2.589,2.589,0,0,1,1.929.764,2.64,2.64,0,0,1,.752,1.931,2.672,2.672,0,0,1-.759,1.951,2.566,2.566,0,0,1-1.912.774,3.011,3.011,0,0,1-1.36-.322,2.211,2.211,0,0,1-.984-.945A3.148,3.148,0,0,1,31.3-2.666Zm1.406.073a1.718,1.718,0,0,0,.366,1.182,1.164,1.164,0,0,0,.9.41,1.156,1.156,0,0,0,.9-.41A1.742,1.742,0,0,0,35.239-2.6a1.71,1.71,0,0,0-.364-1.172,1.156,1.156,0,0,0-.9-.41,1.164,1.164,0,0,0-.9.41A1.718,1.718,0,0,0,32.705-2.593ZM37.3.342l1.567.19a.535.535,0,0,0,.181.376,1.032,1.032,0,0,0,.615.146,1.6,1.6,0,0,0,.806-.161.664.664,0,0,0,.273-.347,2.083,2.083,0,0,0,.063-.63V-.84A1.857,1.857,0,0,1,39.258,0,1.912,1.912,0,0,1,37.6-.884a3,3,0,0,1-.479-1.738,2.859,2.859,0,0,1,.627-1.992,2.025,2.025,0,0,1,1.56-.688,1.9,1.9,0,0,1,1.587.845v-.728h1.284V-.532A4.636,4.636,0,0,1,42.031.84a1.7,1.7,0,0,1-.425.713,1.879,1.879,0,0,1-.73.405,3.843,3.843,0,0,1-1.155.146,2.989,2.989,0,0,1-1.87-.452A1.417,1.417,0,0,1,37.3.508Q37.3.439,37.3.342ZM38.53-2.7a1.87,1.87,0,0,0,.32,1.208.989.989,0,0,0,.789.383,1.09,1.09,0,0,0,.85-.393,1.713,1.713,0,0,0,.347-1.165,1.816,1.816,0,0,0-.332-1.2,1.055,1.055,0,0,0-.84-.391,1.013,1.013,0,0,0-.813.383A1.8,1.8,0,0,0,38.53-2.7ZM43.247,0V-5.186h1.372V0Zm-.1-5.82.674-1.46h1.538L44.014-5.82ZM46.758-3.6l-1.245-.225a1.939,1.939,0,0,1,.723-1.113A2.644,2.644,0,0,1,47.759-5.3a3.283,3.283,0,0,1,1.367.217,1.364,1.364,0,0,1,.632.552,2.829,2.829,0,0,1,.183,1.228l-.015,1.6A5.56,5.56,0,0,0,49.992-.7a2.943,2.943,0,0,0,.247.7H48.882q-.054-.137-.132-.405-.034-.122-.049-.161a2.474,2.474,0,0,1-.752.513,2.154,2.154,0,0,1-.854.171,1.767,1.767,0,0,1-1.262-.435,1.444,1.444,0,0,1-.461-1.1,1.475,1.475,0,0,1,.21-.784,1.372,1.372,0,0,1,.588-.527,4.6,4.6,0,0,1,1.091-.32,7.476,7.476,0,0,0,1.333-.337v-.137a.71.71,0,0,0-.2-.564,1.17,1.17,0,0,0-.737-.168.982.982,0,0,0-.571.144A1,1,0,0,0,46.758-3.6ZM48.594-2.49a8.576,8.576,0,0,1-.835.21,2.515,2.515,0,0,0-.747.239.572.572,0,0,0-.269.483.673.673,0,0,0,.215.5.75.75,0,0,0,.547.21,1.188,1.188,0,0,0,.708-.244.859.859,0,0,0,.327-.454,2.709,2.709,0,0,0,.054-.669Z" transform="translate(13.461 161.836)"/>
      <path id="Trazado_696798" data-name="Trazado 696798" d="M92.11,151.929c0-21.891,18.988-39.629,42.408-39.629s42.408,17.749,42.408,39.629-18.988,39.629-42.408,39.629S92.11,173.81,92.11,151.929Z" transform="translate(1.829 2.497)" fill="#6dc4ca" fill-rule="evenodd" opacity="0.49"/>
      <path id="Trazado_696799" data-name="Trazado 696799" d="M92.11,151.929c0-21.891,18.988-39.629,42.408-39.629s42.408,17.749,42.408,39.629-18.988,39.629-42.408,39.629S92.11,173.81,92.11,151.929Z" transform="translate(1.829 2.497)" fill="none" stroke="#fff" stroke-linejoin="round" stroke-width="2.35" opacity="0.49"/>
      <path id="Trazado_698302" data-name="Trazado 698302" d="M5.838-2.9l1.542.489A3.457,3.457,0,0,1,6.2-.491,3.363,3.363,0,0,1,4.109.134,3.387,3.387,0,0,1,1.531-.937a4.1,4.1,0,0,1-1.01-2.93A4.3,4.3,0,0,1,1.536-6.921,3.481,3.481,0,0,1,4.206-8.008a3.275,3.275,0,0,1,2.347.854A3.106,3.106,0,0,1,7.358-5.7l-1.574.376A1.669,1.669,0,0,0,5.2-6.295a1.67,1.67,0,0,0-1.077-.354A1.792,1.792,0,0,0,2.7-6.021a3.08,3.08,0,0,0-.545,2.036A3.3,3.3,0,0,0,2.7-1.858a1.744,1.744,0,0,0,1.4.634,1.593,1.593,0,0,0,1.09-.4A2.34,2.34,0,0,0,5.838-2.9Zm6.1,2.9V-.854a2.2,2.2,0,0,1-.819.72,2.3,2.3,0,0,1-1.072.263A2.1,2.1,0,0,1,9.015-.124a1.49,1.49,0,0,1-.661-.709,3.164,3.164,0,0,1-.2-1.262V-5.7H9.659v2.621a7.269,7.269,0,0,0,.083,1.474.8.8,0,0,0,.3.43.933.933,0,0,0,.559.158,1.188,1.188,0,0,0,.693-.212,1.079,1.079,0,0,0,.419-.526A6.11,6.11,0,0,0,11.829-3.3V-5.7h1.509V0Zm2.643,0V-7.874h1.509V0Zm5.35-5.7v1.2H18.9v2.3a5.718,5.718,0,0,0,.03.814.332.332,0,0,0,.134.191.426.426,0,0,0,.255.075,1.952,1.952,0,0,0,.607-.145L20.052-.1A3,3,0,0,1,18.86.129a1.891,1.891,0,0,1-.736-.137,1.074,1.074,0,0,1-.481-.354,1.4,1.4,0,0,1-.212-.588,7.316,7.316,0,0,1-.048-1.063V-4.5H16.69V-5.7h.693V-6.837L18.9-7.718V-5.7Zm4.8,5.7V-.854a2.2,2.2,0,0,1-.819.72A2.3,2.3,0,0,1,22.84.129a2.1,2.1,0,0,1-1.031-.252,1.49,1.49,0,0,1-.661-.709,3.164,3.164,0,0,1-.2-1.262V-5.7h1.509v2.621a7.269,7.269,0,0,0,.083,1.474.8.8,0,0,0,.3.43.933.933,0,0,0,.559.158,1.188,1.188,0,0,0,.693-.212,1.079,1.079,0,0,0,.419-.526A6.11,6.11,0,0,0,24.623-3.3V-5.7h1.509V0Zm4.087,0H27.309V-5.7h1.4v.811a2.438,2.438,0,0,1,.647-.757,1.191,1.191,0,0,1,.653-.183A1.916,1.916,0,0,1,31-5.548l-.467,1.316a1.324,1.324,0,0,0-.709-.247.838.838,0,0,0-.537.175,1.193,1.193,0,0,0-.346.631,8.966,8.966,0,0,0-.126,1.912ZM33.1-3.964l-1.37-.247a2.133,2.133,0,0,1,.795-1.225,2.909,2.909,0,0,1,1.676-.4,3.612,3.612,0,0,1,1.5.239,1.5,1.5,0,0,1,.7.607,3.112,3.112,0,0,1,.2,1.351L36.59-1.875a6.116,6.116,0,0,0,.073,1.109A3.237,3.237,0,0,0,36.934,0H35.441q-.059-.15-.145-.446-.038-.134-.054-.177a2.721,2.721,0,0,1-.827.564,2.369,2.369,0,0,1-.94.188,1.944,1.944,0,0,1-1.388-.478,1.589,1.589,0,0,1-.508-1.208,1.622,1.622,0,0,1,.231-.862A1.509,1.509,0,0,1,32.457-3a5.058,5.058,0,0,1,1.2-.352,8.223,8.223,0,0,0,1.466-.371v-.15a.781.781,0,0,0-.215-.62,1.287,1.287,0,0,0-.811-.185,1.08,1.08,0,0,0-.628.158A1.1,1.1,0,0,0,33.1-3.964Zm2.02,1.225a9.434,9.434,0,0,1-.918.231,2.767,2.767,0,0,0-.822.263.629.629,0,0,0-.3.532.74.74,0,0,0,.236.548.825.825,0,0,0,.6.231A1.307,1.307,0,0,0,34.7-1.2a.945.945,0,0,0,.36-.5,2.98,2.98,0,0,0,.059-.736Z" transform="translate(116.998 156.524)"/>
      <path id="Trazado_696800" data-name="Trazado 696800" d="M64.74,102.777c0-10.816,9.184-19.587,20.517-19.587s20.517,8.771,20.517,19.587-9.184,19.587-20.517,19.587S64.74,113.594,64.74,102.777Z" transform="translate(0.923 1.534)" fill="#6dc4ca" fill-rule="evenodd" opacity="0.49"/>
      <path id="Trazado_696801" data-name="Trazado 696801" d="M64.74,102.777c0-10.816,9.184-19.587,20.517-19.587s20.517,8.771,20.517,19.587-9.184,19.587-20.517,19.587S64.74,113.594,64.74,102.777Z" transform="translate(0.923 1.534)" fill="none" stroke="#fff" stroke-linejoin="round" stroke-width="2.35" opacity="0.49"/>
      <path id="Trazado_696802" data-name="Trazado 696802" d="M3.82,111.247a8.9,8.9,0,0,1,9.122-8.657,8.669,8.669,0,1,1,0,17.315,8.9,8.9,0,0,1-9.122-8.657h0Z" transform="translate(-1.093 2.176)" fill="#6dc4ca" fill-rule="evenodd" opacity="0.49"/>
      <path id="Trazado_696803" data-name="Trazado 696803" d="M3.82,111.247a8.9,8.9,0,0,1,9.122-8.657,8.669,8.669,0,1,1,0,17.315,8.9,8.9,0,0,1-9.122-8.657h0Z" transform="translate(-1.093 2.176)" fill="none" stroke="#fff" stroke-linejoin="round" stroke-width="2.35" opacity="0.49"/>
    </g>
  </g>
</svg>
