<svg xmlns="http://www.w3.org/2000/svg" width="93.302" height="93.302" viewBox="0 0 93.302 93.302">
  <g id="Grupo_973426" data-name="Grupo 973426" transform="translate(-741 -3682)">
    <circle id="Elipse_5278" data-name="Elipse 5278" cx="46.651" cy="46.651" r="46.651" transform="translate(741 3682)" fill="#0f58b9"/>
    <g id="sistema-legal" transform="translate(758.852 3696.535)">
      <g id="Grupo_946767" data-name="Grupo 946767" transform="translate(1.169 1.171)">
        <g id="Grupo_946765" data-name="Grupo 946765">
          <path id="Trazado_678422" data-name="Trazado 678422" d="M90.762,8l45.917.24A1.431,1.431,0,0,1,138.1,9.669V69.779a1.431,1.431,0,0,1-1.429,1.429H90.755a1.431,1.431,0,0,1-1.429-1.429V9.429A1.429,1.429,0,0,1,90.762,8Z" transform="translate(-81.679 -8)" fill="#d1d1d6" fill-rule="evenodd"/>
          <path id="Trazado_678423" data-name="Trazado 678423" d="M90.762,8l2.745.014V71.208H90.755a1.431,1.431,0,0,1-1.429-1.429V9.429A1.429,1.429,0,0,1,90.762,8Z" transform="translate(-81.679 -8)" fill="#a0a0a3" fill-rule="evenodd"/>
          <path id="Trazado_678424" data-name="Trazado 678424" d="M38.513,60.249l45.917.24a1.431,1.431,0,0,1,1.421,1.429v60.111a1.431,1.431,0,0,1-1.429,1.429H38.506a1.431,1.431,0,0,1-1.429-1.429V61.678a1.429,1.429,0,0,1,1.436-1.429Z" transform="translate(-37.077 -52.602)" fill="#eceff1" fill-rule="evenodd"/>
          <path id="Trazado_678425" data-name="Trazado 678425" d="M38.513,60.249l2.745.014v63.194H38.506a1.431,1.431,0,0,1-1.429-1.429V61.678a1.429,1.429,0,0,1,1.436-1.429Z" transform="translate(-37.077 -52.601)" fill="#d1d1d6" fill-rule="evenodd"/>
          <path id="Trazado_678426" data-name="Trazado 678426" d="M262.778,60.2H272V70.683a.429.429,0,0,1-.668.356l-3.513-2.368a.421.421,0,0,0-.469-.007l-3.914,2.474a.429.429,0,0,1-.658-.362V60.2Z" transform="translate(-229.744 -52.558)" fill="#ffd064" fill-rule="evenodd"/>
          <path id="Trazado_678427" data-name="Trazado 678427" d="M316.021,60.411V70.525l.761.513a.429.429,0,0,0,.668-.356V60.2h-1.429Z" transform="translate(-275.194 -52.557)" fill="#ffc338" fill-rule="evenodd"/>
        </g>
        <g id="Grupo_946766" data-name="Grupo 946766" transform="translate(21.506 33.946)">
          <path id="Trazado_678428" data-name="Trazado 678428" d="M201.577,462.779l-.933-4.141a1.182,1.182,0,0,0-1.185-.887H186.127a1.182,1.182,0,0,0-1.185.887l-.933,4.141Z" transform="translate(-184.009 -425.869)" fill="#837683" fill-rule="evenodd"/>
          <path id="Trazado_678429" data-name="Trazado 678429" d="M283.355,462.779l-.933-4.141a1.182,1.182,0,0,0-1.185-.887h-1.429a1.181,1.181,0,0,1,1.185.887l.933,4.141Z" transform="translate(-265.787 -425.869)" fill="#685e68" fill-rule="evenodd"/>
          <path id="Trazado_678430" data-name="Trazado 678430" d="M305.62,331.281,302.2,334.7l20.293,21.29a1.763,1.763,0,0,0,1.209.57,1.483,1.483,0,0,0,1.18-.437l2.158-2.158a1.483,1.483,0,0,0,.437-1.18,1.763,1.763,0,0,0-.57-1.21Z" transform="translate(-284.904 -317.91)" fill="#e3a76f" fill-rule="evenodd"/>
          <path id="Trazado_678431" data-name="Trazado 678431" d="M319.656,331.28l-1.01,1.01,21.29,20.293a1.763,1.763,0,0,1,.57,1.21,1.484,1.484,0,0,1-.437,1.18l1.01-1.01a1.483,1.483,0,0,0,.437-1.18,1.763,1.763,0,0,0-.57-1.21Z" transform="translate(-298.94 -317.909)" fill="#c48958" fill-rule="evenodd"/>
          <path id="Trazado_678432" data-name="Trazado 678432" d="M249.251,274.87c1.234-1.048,2.73-2.185,4.815-3.736l-7.287-7.287c-4.76,6.4-5.611,7.25-12.009,12.009l7.287,7.287c1.551-2.085,2.687-3.581,3.736-4.815A28.443,28.443,0,0,1,249.251,274.87Z" transform="translate(-227.341 -260.347)" fill="#c48958" fill-rule="evenodd"/>
          <path id="Trazado_678433" data-name="Trazado 678433" d="M247.791,264.858l-1.01-1.01c-4.76,6.4-5.611,7.25-12.009,12.009l1.01,1.01C242.179,272.108,243.031,271.256,247.791,264.858Z" transform="translate(-227.341 -260.347)" fill="#ab7448" fill-rule="evenodd"/>
          <path id="Trazado_678434" data-name="Trazado 678434" d="M306.975,240.282l-1.727,1.727a1.225,1.225,0,0,0,0,1.727l8.368,8.368a1.225,1.225,0,0,0,1.727,0l1.727-1.727a1.225,1.225,0,0,0,0-1.727l-8.368-8.368a1.224,1.224,0,0,0-1.727,0Z" transform="translate(-287.199 -239.926)" fill="#e3a76f" fill-rule="evenodd"/>
          <path id="Trazado_678435" data-name="Trazado 678435" d="M313.232,240.282l-1.01,1.01a1.224,1.224,0,0,1,1.727,0l8.368,8.368a1.225,1.225,0,0,1,0,1.727l1.01-1.01a1.225,1.225,0,0,0,0-1.727l-8.368-8.368A1.224,1.224,0,0,0,313.232,240.282Z" transform="translate(-293.456 -239.926)" fill="#c48958" fill-rule="evenodd"/>
          <path id="Trazado_678436" data-name="Trazado 678436" d="M212.933,334.324l-1.727,1.727a1.224,1.224,0,0,0,0,1.726l8.368,8.368a1.224,1.224,0,0,0,1.727,0l1.727-1.727a1.225,1.225,0,0,0,0-1.727l-8.368-8.368a1.224,1.224,0,0,0-1.727,0Z" transform="translate(-206.922 -320.204)" fill="#e3a76f" fill-rule="evenodd"/>
          <path id="Trazado_678437" data-name="Trazado 678437" d="M221.3,352.4l1.01-1.01a1.224,1.224,0,0,1-1.727,0l-8.368-8.368a1.224,1.224,0,0,1,0-1.727l-1.01,1.01a1.225,1.225,0,0,0,0,1.727l8.368,8.368A1.224,1.224,0,0,0,221.3,352.4Z" transform="translate(-206.921 -326.46)" fill="#c48958" fill-rule="evenodd"/>
        </g>
      </g>
      <path id="Trazado_678438" data-name="Trazado 678438" d="M93.169,70.055a.635.635,0,0,0-.207-.427L73.687,51.274c-.644.6-1.25,1.2-1.849,1.849L90.2,72.387a.593.593,0,0,0,.428.208.31.31,0,0,0,.283-.1l2.161-2.159a.321.321,0,0,0,.1-.286Zm-15.31-7.222v8.022H70.267l-.726-3.227a2.342,2.342,0,0,0-2.327-1.8H53.882a2.344,2.344,0,0,0-2.327,1.8l-.726,3.227h-19.4V10l30.69.16V20.17a1.171,1.171,0,0,0,1.8.991l4.163-2.63,3.777,2.547a1.172,1.172,0,0,0,1.827-.97V10.215l4.174.022V38.414l-3.766-3.766a2.394,2.394,0,0,0-3.382,0l-1.727,1.727A2.394,2.394,0,0,0,68.93,39.7a35.059,35.059,0,0,1-8.659,8.659,2.393,2.393,0,0,0-3.324.053l-1.727,1.727a2.394,2.394,0,0,0,0,3.382l8.367,8.367a2.394,2.394,0,0,0,3.383,0L68.7,60.161a2.393,2.393,0,0,0,.055-3.322c.536-.7,1.045-1.347,1.541-1.944Zm-9.992,8.022-.6-2.679a.141.141,0,0,0-.049-.007H53.882a.142.142,0,0,0-.05.007l-.6,2.679Zm-3.4-52.811,3.011-1.9a1.175,1.175,0,0,1,1.281.019l2.588,1.745V10.2l-6.879-.037ZM75.458,49.727c.6-.5,1.246-1.007,1.953-1.547a2.419,2.419,0,0,0,.448.329v3.5ZM72.436,36.3a.047.047,0,0,0-.036-.013.049.049,0,0,0-.035.013L70.64,38.031a.054.054,0,0,0,0,.07l8.368,8.367a.053.053,0,0,0,.07,0L80.8,44.742a.052.052,0,0,0,0-.07ZM58.674,50.068a.055.055,0,0,0-.071,0l-1.727,1.726a.056.056,0,0,0,0,.07l8.367,8.368a.054.054,0,0,0,.07,0l1.727-1.726a.056.056,0,0,0,0-.072Zm17.064-3.556a41.533,41.533,0,0,0-8.654,8.654l-5.137-5.139A36.457,36.457,0,0,0,70.6,41.374ZM39.078,7.693V2.342H85.506V59.3L80.2,54.244v-5.72a2.334,2.334,0,0,0,.533-.4L82.46,46.4a2.4,2.4,0,0,0,0-3.382l-2.26-2.26V9.073A1.169,1.169,0,0,0,79.037,7.9ZM94.729,72l-2.161,2.157a2.62,2.62,0,0,1-1.9.783c-.055,0-.117,0-.173,0A2.935,2.935,0,0,1,88.505,74L80.2,65.29v6.737A1.172,1.172,0,0,1,79.03,73.2H30.261a1.171,1.171,0,0,1-1.17-1.171V8.817a1.171,1.171,0,0,1,1.17-1.171h.006l6.469.034V1.171A1.171,1.171,0,0,1,37.907,0h48.77a1.17,1.17,0,0,1,1.17,1.171V61.527l6.723,6.4a2.948,2.948,0,0,1,.939,1.993A2.664,2.664,0,0,1,94.729,72ZM40.214,21.043H52.042a1.171,1.171,0,0,0,0-2.342H40.214a1.171,1.171,0,0,0,0,2.342Zm11.827,40.19H40.214a1.171,1.171,0,1,0,0,2.342H52.042a1.171,1.171,0,0,0,0-2.342Zm0-8.505H40.214a1.171,1.171,0,0,0,0,2.342H52.042a1.171,1.171,0,0,0,0-2.342Zm0-8.507H40.214a1.171,1.171,0,0,0,0,2.342H52.042a1.171,1.171,0,0,0,0-2.342Zm11.081-7.336a1.171,1.171,0,0,0-1.171-1.171H40.214a1.171,1.171,0,0,0,0,2.342H61.952A1.171,1.171,0,0,0,63.123,36.885ZM39.043,28.378a1.171,1.171,0,0,0,1.171,1.171H69.078a1.171,1.171,0,0,0,0-2.342H40.214a1.171,1.171,0,0,0-1.171,1.171Z" transform="translate(-29.091 0)" fill-rule="evenodd"/>
    </g>
  </g>
</svg>
