<svg xmlns="http://www.w3.org/2000/svg" xmlns:xlink="http://www.w3.org/1999/xlink" width="607" height="347.757" viewBox="0 0 607 347.757">
  <defs>
    <linearGradient id="linear-gradient" x1="0.5" y1="1" x2="0.5" gradientUnits="objectBoundingBox">
      <stop offset="0" stop-color="#5fa199"/>
      <stop offset="0.366" stop-color="#f6faf9"/>
      <stop offset="0.61" stop-color="#fff"/>
      <stop offset="1" stop-color="#5fa199"/>
    </linearGradient>
    <linearGradient id="linear-gradient-6" x1="0" y1="0.5" x2="1" y2="0.5" xlink:href="#linear-gradient"/>
    <linearGradient id="linear-gradient-8" x1="0.019" y1="0.518" x2="0.97" y2="0.518" xlink:href="#linear-gradient"/>
    <radialGradient id="radial-gradient" cx="0.5" cy="0.5" r="0.5" gradientUnits="objectBoundingBox">
      <stop offset="0.141" stop-color="#f6faf9"/>
      <stop offset="0.232" stop-color="#f0f6f5"/>
      <stop offset="0.379" stop-color="#deebe9"/>
      <stop offset="0.564" stop-color="#bfd7d5"/>
      <stop offset="0.779" stop-color="#93bbb8"/>
      <stop offset="1" stop-color="#5fa199"/>
    </radialGradient>
    <radialGradient id="radial-gradient-2" cx="0.5" cy="0.5" r="0.5" gradientTransform="translate(0)" xlink:href="#radial-gradient"/>
  </defs>
  <g id="Grafico_diagrama_de_fliujo-01" data-name="Grafico_diagrama_de fliujo-01" transform="translate(-3.669 -9.111)">
    <path id="Trazado_696827" data-name="Trazado 696827" d="M267.685,152.324a.684.684,0,0,0-.346-.6l-7.544-4.367a.692.692,0,0,0-1.039.6l0,3.043-56.077-.186a1.156,1.156,0,0,0-.013,2.312l56.088.183-.005,3.364a.7.7,0,0,0,.192.481.716.716,0,0,0,.153.122.692.692,0,0,0,.694,0l7.555-4.35A.7.7,0,0,0,267.685,152.324Z" transform="translate(55.871 39.014)" fill="#3ca1ad"/>
    <path id="Trazado_696828" data-name="Trazado 696828" d="M163.072,246.515a.682.682,0,0,0-.346-.6l-7.544-4.368a.692.692,0,0,0-1.039.6l0,3.043L98.062,245a1.155,1.155,0,0,0-1.159,1.15,1.141,1.141,0,0,0,.321.8,1.158,1.158,0,0,0,.827.358l56.088.185,0,3.364a.706.706,0,0,0,.191.481.722.722,0,0,0,.153.123.7.7,0,0,0,.694,0l7.553-4.35A.7.7,0,0,0,163.072,246.515Z" transform="translate(26.329 65.612)" fill="#3ca1ad"/>
    <path id="Trazado_696829" data-name="Trazado 696829" d="M408.6,246.515a.682.682,0,0,0-.346-.6l-7.544-4.368a.693.693,0,0,0-1.039.6l-.005,3.043L343.592,245a1.155,1.155,0,0,0-1.159,1.15,1.141,1.141,0,0,0,.321.8,1.155,1.155,0,0,0,.827.358l56.088.185-.006,3.364a.707.707,0,0,0,.192.481.683.683,0,0,0,.151.123.7.7,0,0,0,.694,0l7.556-4.35A.693.693,0,0,0,408.6,246.515Z" transform="translate(95.665 65.612)" fill="#3ca1ad"/>
    <path id="Trazado_696830" data-name="Trazado 696830" d="M287.819,245.435a.684.684,0,0,0-.346-.6l-7.544-4.368a.693.693,0,0,0-1.039.6l-.005,3.044-56.077-.187a1.157,1.157,0,0,0-1.161,1.149,1.157,1.157,0,0,0,1.148,1.162l56.088.183-.005,3.364a.7.7,0,0,0,.192.481.678.678,0,0,0,.845.122l7.556-4.351A.685.685,0,0,0,287.819,245.435Z" transform="translate(61.556 65.307)" fill="#3ca1ad"/>
    <path id="Trazado_696831" data-name="Trazado 696831" d="M389.55,151.324a.679.679,0,0,0-.346-.6l-7.544-4.367a.692.692,0,0,0-1.037.6L380.617,150l-56.077-.186a1.154,1.154,0,0,0-1.159,1.15,1.143,1.143,0,0,0,.321.8,1.158,1.158,0,0,0,.827.358l56.087.183-.005,3.364a.7.7,0,0,0,.192.481.683.683,0,0,0,.846.121l7.553-4.35A.688.688,0,0,0,389.55,151.324Z" transform="translate(90.285 38.731)" fill="#3ca1ad"/>
    <rect id="Rectángulo_339108" data-name="Rectángulo 339108" width="49.919" height="34.758" transform="translate(16.429 54.642)" stroke="#5b9992" stroke-miterlimit="10" stroke-width="1" fill="url(#linear-gradient)"/>
    <rect id="Rectángulo_339109" data-name="Rectángulo 339109" width="82.73" height="45.407" transform="translate(177.174 167.165)" stroke="#5b9992" stroke-miterlimit="10" stroke-width="1" fill="url(#linear-gradient)"/>
    <rect id="Rectángulo_339110" data-name="Rectángulo 339110" width="86.737" height="45.457" transform="translate(352.819 289.332)" stroke="#5b9992" stroke-miterlimit="10" stroke-width="1" fill="url(#linear-gradient)"/>
    <rect id="Rectángulo_339111" data-name="Rectángulo 339111" width="73.829" height="38.692" transform="translate(49.937 292.559)" stroke="#5b9992" stroke-miterlimit="10" stroke-width="1" fill="url(#linear-gradient)"/>
    <rect id="Rectángulo_339112" data-name="Rectángulo 339112" width="82.731" height="45.407" transform="translate(486.97 167.165)" stroke="#5b9992" stroke-miterlimit="10" stroke-width="1" fill="url(#linear-gradient)"/>
    <g id="Grupo_972532" data-name="Grupo 972532" transform="translate(69.338 66.731)">
      <path id="Trazado_698338" data-name="Trazado 698338" d="M4.526-3.278H.6V-4.315H4.526Zm0,1.9H.6V-2.413H4.526Zm8.692-1.679A3.863,3.863,0,0,1,12.885-1.4a2.515,2.515,0,0,1-.956,1.1A2.644,2.644,0,0,1,10.5.088,2.662,2.662,0,0,1,9.083-.294a2.54,2.54,0,0,1-.967-1.092A3.752,3.752,0,0,1,7.77-3.019v-.316A3.842,3.842,0,0,1,8.11-5a2.536,2.536,0,0,1,.962-1.1,2.647,2.647,0,0,1,1.422-.385,2.647,2.647,0,0,1,1.422.385A2.536,2.536,0,0,1,12.878-5a3.831,3.831,0,0,1,.341,1.659Zm-1.336-.29a2.693,2.693,0,0,0-.36-1.529A1.174,1.174,0,0,0,10.494-5.4,1.175,1.175,0,0,0,9.47-4.88a2.662,2.662,0,0,0-.365,1.514v.312a2.726,2.726,0,0,0,.36,1.521A1.171,1.171,0,0,0,10.5-.993a1.161,1.161,0,0,0,1.02-.521,2.71,2.71,0,0,0,.36-1.518Zm6.491,1.011a2.852,2.852,0,0,1-.5,1.76,1.6,1.6,0,0,1-1.347.661,1.481,1.481,0,0,1-1.165-.5V1.828h-1.27V-4.755h1.178l.044.466a1.493,1.493,0,0,1,1.2-.554,1.61,1.61,0,0,1,1.367.65A2.929,2.929,0,0,1,18.374-2.4ZM17.1-2.426a1.871,1.871,0,0,0-.235-1.024.766.766,0,0,0-.683-.36.832.832,0,0,0-.822.457v1.947a.846.846,0,0,0,.831.47Q17.1-.936,17.1-2.426ZM21.349.088a2.334,2.334,0,0,1-1.7-.642,2.281,2.281,0,0,1-.657-1.709v-.123a2.872,2.872,0,0,1,.277-1.281,2.032,2.032,0,0,1,.784-.87,2.2,2.2,0,0,1,1.158-.305,1.973,1.973,0,0,1,1.536.615,2.5,2.5,0,0,1,.56,1.745v.519H20.276a1.18,1.18,0,0,0,.371.747,1.123,1.123,0,0,0,.784.281,1.371,1.371,0,0,0,1.147-.532l.624.7a1.907,1.907,0,0,1-.773.631A2.538,2.538,0,0,1,21.349.088ZM21.2-3.819a.794.794,0,0,0-.613.256,1.326,1.326,0,0,0-.3.733h1.767v-.1a.946.946,0,0,0-.229-.655A.819.819,0,0,0,21.2-3.819Zm5.493.255A3.45,3.45,0,0,0,26.24-3.6a.93.93,0,0,0-.945.488V0h-1.27V-4.755h1.2l.035.567a1.177,1.177,0,0,1,1.059-.655,1.331,1.331,0,0,1,.4.057ZM29.931,0A1.41,1.41,0,0,1,29.8-.426a1.537,1.537,0,0,1-1.2.514,1.688,1.688,0,0,1-1.158-.4,1.3,1.3,0,0,1-.459-1.02,1.344,1.344,0,0,1,.56-1.16A2.765,2.765,0,0,1,29.167-2.9h.584v-.272a.784.784,0,0,0-.169-.527.666.666,0,0,0-.534-.2.757.757,0,0,0-.5.154.523.523,0,0,0-.182.422h-1.27a1.276,1.276,0,0,1,.255-.765,1.685,1.685,0,0,1,.721-.552,2.627,2.627,0,0,1,1.046-.2,2.075,2.075,0,0,1,1.4.442,1.545,1.545,0,0,1,.516,1.241V-1.1a2.273,2.273,0,0,0,.189,1.024V0Zm-1.05-.883a1.094,1.094,0,0,0,.519-.125.823.823,0,0,0,.352-.336v-.817h-.475q-.954,0-1.015.659l0,.075a.508.508,0,0,0,.167.391A.649.649,0,0,0,28.881-.883Zm5.1-.053a.833.833,0,0,0,.571-.193.677.677,0,0,0,.229-.514h1.191a1.629,1.629,0,0,1-.264.885A1.74,1.74,0,0,1,35-.134a2.221,2.221,0,0,1-1,.222A2.064,2.064,0,0,1,32.392-.56,2.565,2.565,0,0,1,31.8-2.351v-.083a2.536,2.536,0,0,1,.584-1.753,2.04,2.04,0,0,1,1.6-.655,2,2,0,0,1,1.43.508,1.8,1.8,0,0,1,.547,1.351H34.778a.873.873,0,0,0-.229-.6.762.762,0,0,0-.58-.232.765.765,0,0,0-.67.323,1.875,1.875,0,0,0-.226,1.05v.132A1.9,1.9,0,0,0,33.3-1.257.775.775,0,0,0,33.979-.936ZM38.035,0H36.76V-4.755h1.274ZM36.686-5.985a.625.625,0,0,1,.191-.47A.718.718,0,0,1,37.4-6.64a.72.72,0,0,1,.519.185.622.622,0,0,1,.193.47.624.624,0,0,1-.2.475.722.722,0,0,1-.516.185.722.722,0,0,1-.516-.185A.624.624,0,0,1,36.686-5.985Zm2.2,3.564a2.82,2.82,0,0,1,.272-1.261,2,2,0,0,1,.784-.857,2.289,2.289,0,0,1,1.189-.3,2.165,2.165,0,0,1,1.571.589,2.363,2.363,0,0,1,.679,1.6l.009.325a2.485,2.485,0,0,1-.611,1.756,2.123,2.123,0,0,1-1.639.661A2.134,2.134,0,0,1,39.5-.571a2.529,2.529,0,0,1-.613-1.793Zm1.27.09a1.777,1.777,0,0,0,.255,1.036.841.841,0,0,0,.729.359.843.843,0,0,0,.721-.354,1.945,1.945,0,0,0,.259-1.133,1.76,1.76,0,0,0-.259-1.03.843.843,0,0,0-.729-.365.829.829,0,0,0-.721.363A1.978,1.978,0,0,0,40.153-2.331ZM41.379-6.75h1.384L41.546-5.388H40.513Zm3.959,2,.04.549a1.66,1.66,0,0,1,1.367-.637A1.38,1.38,0,0,1,47.87-4.4a2.071,2.071,0,0,1,.378,1.327V0h-1.27V-3.041a.824.824,0,0,0-.176-.587.787.787,0,0,0-.584-.182.874.874,0,0,0-.8.457V0h-1.27V-4.755Z" transform="translate(0 9)" fill="#02346a"/>
    </g>
    <g id="Grupo_972533" data-name="Grupo 972533" transform="translate(360.477 56.144)">
      <path id="Trazado_698340" data-name="Trazado 698340" d="M1.973,0H.655V-6.4H1.973ZM4.28-4.755l.04.549a1.66,1.66,0,0,1,1.367-.637A1.38,1.38,0,0,1,6.812-4.4a2.071,2.071,0,0,1,.378,1.327V0H5.919V-3.041a.824.824,0,0,0-.176-.587.787.787,0,0,0-.584-.182.874.874,0,0,0-.8.457V0H3.085V-4.755ZM9.492,0H8.218V-4.755H9.492ZM8.143-5.985a.625.625,0,0,1,.191-.47.718.718,0,0,1,.521-.185.72.72,0,0,1,.519.185.622.622,0,0,1,.193.47.624.624,0,0,1-.2.475.722.722,0,0,1-.516.185.722.722,0,0,1-.516-.185A.624.624,0,0,1,8.143-5.985ZM12.516-.936a.833.833,0,0,0,.571-.193.677.677,0,0,0,.229-.514h1.191a1.629,1.629,0,0,1-.264.885,1.74,1.74,0,0,1-.71.624,2.221,2.221,0,0,1-1,.222A2.064,2.064,0,0,1,10.929-.56a2.565,2.565,0,0,1-.589-1.791v-.083a2.536,2.536,0,0,1,.584-1.753,2.04,2.04,0,0,1,1.6-.655,2,2,0,0,1,1.43.508,1.8,1.8,0,0,1,.547,1.351H13.315a.873.873,0,0,0-.229-.6.762.762,0,0,0-.58-.232.765.765,0,0,0-.67.323,1.875,1.875,0,0,0-.226,1.05v.132a1.9,1.9,0,0,0,.224,1.056A.775.775,0,0,0,12.516-.936ZM16.572,0H15.3V-4.755h1.274ZM15.223-5.985a.625.625,0,0,1,.191-.47.718.718,0,0,1,.521-.185.72.72,0,0,1,.519.185.622.622,0,0,1,.193.47.624.624,0,0,1-.2.475.722.722,0,0,1-.516.185.722.722,0,0,1-.516-.185A.624.624,0,0,1,15.223-5.985Zm2.2,3.564a2.82,2.82,0,0,1,.272-1.261,2,2,0,0,1,.784-.857,2.289,2.289,0,0,1,1.189-.3,2.165,2.165,0,0,1,1.571.589,2.363,2.363,0,0,1,.679,1.6l.009.325a2.485,2.485,0,0,1-.611,1.756,2.123,2.123,0,0,1-1.639.661,2.134,2.134,0,0,1-1.641-.659,2.529,2.529,0,0,1-.613-1.793Zm1.27.09a1.777,1.777,0,0,0,.255,1.036.841.841,0,0,0,.729.359A.843.843,0,0,0,20.4-1.29a1.945,1.945,0,0,0,.259-1.133,1.76,1.76,0,0,0-.259-1.03.843.843,0,0,0-.729-.365.829.829,0,0,0-.721.363A1.978,1.978,0,0,0,18.69-2.331Zm8.033.534L27.6-4.755h1.362L27.053.738l-.105.25a1.449,1.449,0,0,1-1.406.932,2,2,0,0,1-.562-.083V.875l.193,0a1.045,1.045,0,0,0,.538-.11A.722.722,0,0,0,25.989.4l.149-.391L24.473-4.755H25.84ZM32.014,0V-3.823h-.708v-.932h.708v-.22a1.783,1.783,0,0,1,.552-1.382A2.219,2.219,0,0,1,34.1-6.842a5.08,5.08,0,0,1,1.441.259l-.185,1.05a5.624,5.624,0,0,0-.668-.165,3.282,3.282,0,0,0-.51-.037q-.888,0-.888.787v.193h.936v.932h-.936V0Zm4.118,0H34.857V-4.755h1.274Zm2.219-4.755.04.549a1.66,1.66,0,0,1,1.367-.637,1.38,1.38,0,0,1,1.125.444,2.071,2.071,0,0,1,.378,1.327V0H39.99V-3.041a.824.824,0,0,0-.176-.587.787.787,0,0,0-.584-.182.874.874,0,0,0-.8.457V0h-1.27V-4.755ZM42.289-.624a.639.639,0,0,1,.2-.492A.725.725,0,0,1,43-1.305a.731.731,0,0,1,.516.189.639.639,0,0,1,.2.492.631.631,0,0,1-.2.486A.734.734,0,0,1,43,.048a.728.728,0,0,1-.514-.187A.631.631,0,0,1,42.289-.624Zm2.615,0a.639.639,0,0,1,.2-.492.725.725,0,0,1,.512-.189.731.731,0,0,1,.516.189.639.639,0,0,1,.2.492.631.631,0,0,1-.2.486.734.734,0,0,1-.519.187.728.728,0,0,1-.514-.187A.631.631,0,0,1,44.9-.624Zm2.615,0a.639.639,0,0,1,.2-.492.725.725,0,0,1,.512-.189.731.731,0,0,1,.516.189.639.639,0,0,1,.2.492.631.631,0,0,1-.2.486.734.734,0,0,1-.519.187.728.728,0,0,1-.514-.187A.631.631,0,0,1,47.518-.624ZM4.526,7.722H.6V6.685H4.526Zm0,1.9H.6V8.587H4.526ZM9.365,11H8.046V4.6H9.365Zm2.307-4.755.04.549a1.66,1.66,0,0,1,1.367-.637A1.38,1.38,0,0,1,14.2,6.6a2.071,2.071,0,0,1,.378,1.327V11h-1.27V7.959a.824.824,0,0,0-.176-.587.787.787,0,0,0-.584-.182.874.874,0,0,0-.8.457V11h-1.27V6.245Zm6.447,3.441a.409.409,0,0,0-.231-.367,2.621,2.621,0,0,0-.74-.24q-1.7-.356-1.7-1.441a1.307,1.307,0,0,1,.525-1.057,2.118,2.118,0,0,1,1.373-.424,2.28,2.28,0,0,1,1.448.426,1.343,1.343,0,0,1,.543,1.107H18.07a.615.615,0,0,0-.176-.45.744.744,0,0,0-.549-.178.76.76,0,0,0-.5.145.458.458,0,0,0-.176.369.391.391,0,0,0,.2.341,2.057,2.057,0,0,0,.675.224,5.51,5.51,0,0,1,.8.213,1.314,1.314,0,0,1,1.006,1.279,1.24,1.24,0,0,1-.558,1.052,2.408,2.408,0,0,1-1.441.4,2.515,2.515,0,0,1-1.061-.213,1.781,1.781,0,0,1-.727-.584,1.358,1.358,0,0,1-.264-.8h1.2a.663.663,0,0,0,.25.519.994.994,0,0,0,.624.18.92.92,0,0,0,.552-.138A.431.431,0,0,0,18.119,9.686Zm4.9.831a1.593,1.593,0,0,1-1.3.571,1.5,1.5,0,0,1-1.167-.439,1.876,1.876,0,0,1-.411-1.288V6.245h1.27V9.32q0,.743.677.743a.917.917,0,0,0,.888-.449V6.245h1.274V11h-1.2ZM26.4,6.245l.04.532a1.671,1.671,0,0,1,1.367-.62,1.268,1.268,0,0,1,1.261.725,1.633,1.633,0,0,1,1.428-.725,1.418,1.418,0,0,1,1.151.45,2.07,2.07,0,0,1,.378,1.356V11H30.749V7.968a.905.905,0,0,0-.158-.591.7.7,0,0,0-.558-.187.793.793,0,0,0-.791.545l0,3.265h-1.27V7.972a.894.894,0,0,0-.163-.6.708.708,0,0,0-.554-.185.823.823,0,0,0-.782.448V11h-1.27V6.245Zm6.4,2.333a2.82,2.82,0,0,1,.272-1.261,2,2,0,0,1,.784-.857,2.289,2.289,0,0,1,1.189-.3,2.165,2.165,0,0,1,1.571.589,2.363,2.363,0,0,1,.679,1.6l.009.325a2.485,2.485,0,0,1-.611,1.756,2.367,2.367,0,0,1-3.281,0A2.529,2.529,0,0,1,32.8,8.636Zm1.27.09a1.777,1.777,0,0,0,.255,1.036.916.916,0,0,0,1.45,0,1.945,1.945,0,0,0,.259-1.133,1.76,1.76,0,0,0-.259-1.03.843.843,0,0,0-.729-.365.829.829,0,0,0-.721.363A1.978,1.978,0,0,0,34.071,8.669Zm6.592,1.017a.409.409,0,0,0-.231-.367,2.621,2.621,0,0,0-.74-.24Q38,8.724,38,7.638a1.307,1.307,0,0,1,.525-1.057,2.118,2.118,0,0,1,1.373-.424,2.28,2.28,0,0,1,1.448.426,1.343,1.343,0,0,1,.543,1.107h-1.27a.615.615,0,0,0-.176-.45.744.744,0,0,0-.549-.178.76.76,0,0,0-.5.145.458.458,0,0,0-.176.369.391.391,0,0,0,.2.341,2.057,2.057,0,0,0,.675.224,5.51,5.51,0,0,1,.8.213A1.314,1.314,0,0,1,41.9,9.633a1.24,1.24,0,0,1-.558,1.052,2.408,2.408,0,0,1-1.441.4,2.515,2.515,0,0,1-1.061-.213,1.781,1.781,0,0,1-.727-.584,1.358,1.358,0,0,1-.264-.8h1.2a.663.663,0,0,0,.25.519.994.994,0,0,0,.624.18.92.92,0,0,0,.552-.138A.431.431,0,0,0,40.663,9.686Zm8.574-1.02a2.852,2.852,0,0,1-.5,1.76,1.6,1.6,0,0,1-1.347.661,1.481,1.481,0,0,1-1.165-.5v2.241h-1.27V6.245h1.178l.044.466a1.493,1.493,0,0,1,1.2-.554,1.61,1.61,0,0,1,1.367.65A2.929,2.929,0,0,1,49.236,8.6Zm-1.27-.092a1.871,1.871,0,0,0-.235-1.024.766.766,0,0,0-.683-.36.832.832,0,0,0-.822.457V9.594a.846.846,0,0,0,.831.47Q47.966,10.064,47.966,8.574ZM52.778,11a1.41,1.41,0,0,1-.127-.426,1.537,1.537,0,0,1-1.2.514,1.688,1.688,0,0,1-1.158-.4,1.3,1.3,0,0,1-.459-1.02,1.344,1.344,0,0,1,.56-1.16A2.765,2.765,0,0,1,52.014,8.1H52.6V7.823a.784.784,0,0,0-.169-.527.666.666,0,0,0-.534-.2.757.757,0,0,0-.5.154.523.523,0,0,0-.182.422h-1.27a1.276,1.276,0,0,1,.255-.765,1.685,1.685,0,0,1,.721-.552,2.627,2.627,0,0,1,1.046-.2,2.075,2.075,0,0,1,1.4.442,1.545,1.545,0,0,1,.516,1.241V9.9a2.273,2.273,0,0,0,.189,1.024V11Zm-1.05-.883a1.094,1.094,0,0,0,.519-.125.823.823,0,0,0,.352-.336V8.838h-.475q-.954,0-1.015.659l0,.075a.508.508,0,0,0,.167.391A.649.649,0,0,0,51.728,10.117ZM57.52,7.436a3.45,3.45,0,0,0-.457-.035.93.93,0,0,0-.945.488V11h-1.27V6.245h1.2l.035.567a1.177,1.177,0,0,1,1.059-.655,1.331,1.331,0,0,1,.4.057ZM60.754,11a1.41,1.41,0,0,1-.127-.426,1.537,1.537,0,0,1-1.2.514,1.688,1.688,0,0,1-1.158-.4,1.3,1.3,0,0,1-.459-1.02,1.344,1.344,0,0,1,.56-1.16A2.765,2.765,0,0,1,59.99,8.1h.584V7.823a.784.784,0,0,0-.169-.527.666.666,0,0,0-.534-.2.757.757,0,0,0-.5.154.523.523,0,0,0-.182.422h-1.27a1.276,1.276,0,0,1,.255-.765,1.685,1.685,0,0,1,.721-.552,2.627,2.627,0,0,1,1.046-.2,2.075,2.075,0,0,1,1.4.442,1.545,1.545,0,0,1,.516,1.241V9.9a2.273,2.273,0,0,0,.189,1.024V11Zm-1.05-.883a1.094,1.094,0,0,0,.519-.125.823.823,0,0,0,.352-.336V8.838H60.1q-.954,0-1.015.659l0,.075a.508.508,0,0,0,.167.391A.649.649,0,0,0,59.7,10.117Zm3.186.259a.639.639,0,0,1,.2-.492.794.794,0,0,1,1.028,0,.639.639,0,0,1,.2.492.631.631,0,0,1-.2.486.807.807,0,0,1-1.033,0A.631.631,0,0,1,62.89,10.376Zm2.615,0a.639.639,0,0,1,.2-.492.794.794,0,0,1,1.028,0,.639.639,0,0,1,.2.492.631.631,0,0,1-.2.486.807.807,0,0,1-1.033,0A.631.631,0,0,1,65.5,10.376Zm2.615,0a.639.639,0,0,1,.2-.492.794.794,0,0,1,1.028,0,.639.639,0,0,1,.2.492.631.631,0,0,1-.2.486.807.807,0,0,1-1.033,0A.631.631,0,0,1,68.12,10.376ZM5.181,19.658H4.131V22H2.813V15.6H5.19a2.688,2.688,0,0,1,1.749.505,1.744,1.744,0,0,1,.615,1.428,1.969,1.969,0,0,1-.283,1.092,1.933,1.933,0,0,1-.859.7L7.8,21.938V22H6.381ZM4.131,18.59H5.194a1.089,1.089,0,0,0,.769-.253.9.9,0,0,0,.272-.7.967.967,0,0,0-.257-.712,1.068,1.068,0,0,0-.789-.259H4.131Zm6.53,3.5a2.334,2.334,0,0,1-1.7-.642A2.281,2.281,0,0,1,8.3,19.737v-.123a2.872,2.872,0,0,1,.277-1.281,2.032,2.032,0,0,1,.784-.87,2.2,2.2,0,0,1,1.158-.305,1.973,1.973,0,0,1,1.536.615,2.5,2.5,0,0,1,.56,1.745v.519H9.589a1.18,1.18,0,0,0,.371.747,1.123,1.123,0,0,0,.784.281,1.371,1.371,0,0,0,1.147-.532l.624.7a1.907,1.907,0,0,1-.773.631A2.538,2.538,0,0,1,10.661,22.088Zm-.145-3.907a.794.794,0,0,0-.613.256,1.326,1.326,0,0,0-.3.733h1.767v-.1a.946.946,0,0,0-.229-.655A.819.819,0,0,0,10.516,18.181Zm5.4,2.5a.409.409,0,0,0-.231-.367,2.621,2.621,0,0,0-.74-.24q-1.7-.356-1.7-1.441a1.307,1.307,0,0,1,.525-1.057,2.118,2.118,0,0,1,1.373-.424,2.28,2.28,0,0,1,1.448.426,1.343,1.343,0,0,1,.543,1.107h-1.27a.615.615,0,0,0-.176-.45.744.744,0,0,0-.549-.178.76.76,0,0,0-.5.145.458.458,0,0,0-.176.369.391.391,0,0,0,.2.341,2.057,2.057,0,0,0,.675.224,5.51,5.51,0,0,1,.8.213,1.314,1.314,0,0,1,1.006,1.279,1.24,1.24,0,0,1-.558,1.052,2.408,2.408,0,0,1-1.441.4,2.515,2.515,0,0,1-1.061-.213,1.781,1.781,0,0,1-.727-.584,1.358,1.358,0,0,1-.264-.8h1.2a.663.663,0,0,0,.25.519.994.994,0,0,0,.624.18.92.92,0,0,0,.552-.138A.431.431,0,0,0,15.913,20.686Zm4.9.831a1.593,1.593,0,0,1-1.3.571,1.5,1.5,0,0,1-1.167-.439,1.876,1.876,0,0,1-.411-1.288V17.245H19.2V20.32q0,.743.677.743a.917.917,0,0,0,.888-.449v-3.37h1.274V22h-1.2ZM24.341,22H23.067V15.25h1.274Zm2.566-5.924v1.169h.813v.932h-.813V20.55a.567.567,0,0,0,.1.378.508.508,0,0,0,.387.114,2.025,2.025,0,0,0,.374-.031v.962a2.615,2.615,0,0,1-.769.114,1.213,1.213,0,0,1-1.362-1.349V18.177h-.694v-.932h.694V16.076ZM31.184,22a1.41,1.41,0,0,1-.127-.426,1.537,1.537,0,0,1-1.2.514,1.688,1.688,0,0,1-1.158-.4,1.3,1.3,0,0,1-.459-1.02,1.344,1.344,0,0,1,.56-1.16,2.765,2.765,0,0,1,1.619-.409H31v-.272a.784.784,0,0,0-.169-.527.666.666,0,0,0-.534-.2.757.757,0,0,0-.5.154.523.523,0,0,0-.182.422h-1.27a1.276,1.276,0,0,1,.255-.765,1.685,1.685,0,0,1,.721-.552,2.627,2.627,0,0,1,1.046-.2,2.075,2.075,0,0,1,1.4.442,1.545,1.545,0,0,1,.516,1.241V20.9a2.273,2.273,0,0,0,.189,1.024V22Zm-1.05-.883a1.094,1.094,0,0,0,.519-.125A.823.823,0,0,0,31,20.655v-.817h-.475q-.954,0-1.015.659l0,.075a.508.508,0,0,0,.167.391A.649.649,0,0,0,30.133,21.117Zm2.922-1.529a2.865,2.865,0,0,1,.5-1.771,1.618,1.618,0,0,1,1.365-.659,1.456,1.456,0,0,1,1.147.519V15.25H37.34V22H36.193l-.062-.505a1.5,1.5,0,0,1-1.222.593,1.614,1.614,0,0,1-1.347-.661A2.958,2.958,0,0,1,33.056,19.587Zm1.27.095a1.877,1.877,0,0,0,.233,1.026.759.759,0,0,0,.677.357.85.85,0,0,0,.831-.5V18.687a.838.838,0,0,0-.822-.5Q34.326,18.19,34.326,19.682Zm3.8-.1a2.82,2.82,0,0,1,.272-1.261,2,2,0,0,1,.784-.857,2.289,2.289,0,0,1,1.189-.3,2.165,2.165,0,0,1,1.571.589,2.363,2.363,0,0,1,.679,1.6l.009.325a2.485,2.485,0,0,1-.611,1.756,2.367,2.367,0,0,1-3.281,0,2.529,2.529,0,0,1-.613-1.793Zm1.27.09a1.777,1.777,0,0,0,.255,1.036.916.916,0,0,0,1.45,0,1.945,1.945,0,0,0,.259-1.133,1.76,1.76,0,0,0-.259-1.03.843.843,0,0,0-.729-.365.829.829,0,0,0-.721.363A1.978,1.978,0,0,0,39.4,19.669Zm6.592,1.017a.409.409,0,0,0-.231-.367,2.621,2.621,0,0,0-.74-.24q-1.7-.356-1.7-1.441a1.307,1.307,0,0,1,.525-1.057,2.118,2.118,0,0,1,1.373-.424,2.28,2.28,0,0,1,1.448.426,1.343,1.343,0,0,1,.543,1.107H45.94a.615.615,0,0,0-.176-.45.744.744,0,0,0-.549-.178.76.76,0,0,0-.5.145.458.458,0,0,0-.176.369.391.391,0,0,0,.2.341,2.057,2.057,0,0,0,.675.224,5.51,5.51,0,0,1,.8.213,1.314,1.314,0,0,1,1.006,1.279,1.24,1.24,0,0,1-.558,1.052,2.408,2.408,0,0,1-1.441.4,2.515,2.515,0,0,1-1.061-.213,1.781,1.781,0,0,1-.727-.584,1.358,1.358,0,0,1-.264-.8h1.2a.663.663,0,0,0,.25.519.994.994,0,0,0,.624.18.92.92,0,0,0,.552-.138A.431.431,0,0,0,45.989,20.686Zm4.1-1.1a2.865,2.865,0,0,1,.5-1.771,1.618,1.618,0,0,1,1.365-.659,1.456,1.456,0,0,1,1.147.519V15.25h1.274V22H53.222l-.062-.505a1.5,1.5,0,0,1-1.222.593,1.614,1.614,0,0,1-1.347-.661A2.958,2.958,0,0,1,50.084,19.587Zm1.27.095a1.877,1.877,0,0,0,.233,1.026.759.759,0,0,0,.677.357.85.85,0,0,0,.831-.5V18.687a.838.838,0,0,0-.822-.5Q51.354,18.19,51.354,19.682Zm6.188,2.406a2.334,2.334,0,0,1-1.7-.642,2.281,2.281,0,0,1-.657-1.709v-.123a2.872,2.872,0,0,1,.277-1.281,2.032,2.032,0,0,1,.784-.87,2.2,2.2,0,0,1,1.158-.305,1.973,1.973,0,0,1,1.536.615,2.5,2.5,0,0,1,.56,1.745v.519H56.47a1.18,1.18,0,0,0,.371.747,1.123,1.123,0,0,0,.784.281,1.371,1.371,0,0,0,1.147-.532l.624.7a1.907,1.907,0,0,1-.773.631A2.538,2.538,0,0,1,57.542,22.088ZM57.4,18.181a.794.794,0,0,0-.613.256,1.326,1.326,0,0,0-.3.733H58.25v-.1a.946.946,0,0,0-.229-.655A.819.819,0,0,0,57.4,18.181Zm2.887,3.195a.639.639,0,0,1,.2-.492.794.794,0,0,1,1.028,0,.639.639,0,0,1,.2.492.631.631,0,0,1-.2.486.807.807,0,0,1-1.033,0A.631.631,0,0,1,60.284,21.376Zm2.615,0a.639.639,0,0,1,.2-.492.794.794,0,0,1,1.028,0,.639.639,0,0,1,.2.492.631.631,0,0,1-.2.486.807.807,0,0,1-1.033,0A.631.631,0,0,1,62.9,21.376Zm2.615,0a.639.639,0,0,1,.2-.492.794.794,0,0,1,1.028,0,.639.639,0,0,1,.2.492.631.631,0,0,1-.2.486.807.807,0,0,1-1.033,0A.631.631,0,0,1,65.514,21.376Z" transform="translate(0 9)" fill="#02346a"/>
    </g>
    <g id="Grupo_972534" data-name="Grupo 972534" transform="translate(514.375 61.791)">
      <path id="Trazado_698329" data-name="Trazado 698329" d="M.571,0V-6.4H2.54a2.99,2.99,0,0,1,1.51.38A2.651,2.651,0,0,1,5.089-4.937a3.334,3.334,0,0,1,.374,1.593v.294A3.344,3.344,0,0,1,5.1-1.463,2.628,2.628,0,0,1,4.061-.387,3.012,3.012,0,0,1,2.553,0ZM1.89-5.331v4.271h.637a1.432,1.432,0,0,0,1.182-.505A2.284,2.284,0,0,0,4.126-3.01v-.338a2.32,2.32,0,0,0-.4-1.479,1.427,1.427,0,0,0-1.182-.5ZM7.677,0H6.4V-4.755H7.677ZM6.328-5.985a.625.625,0,0,1,.191-.47A.718.718,0,0,1,7.04-6.64a.72.72,0,0,1,.519.185.622.622,0,0,1,.193.47.624.624,0,0,1-.2.475.722.722,0,0,1-.516.185.722.722,0,0,1-.516-.185A.624.624,0,0,1,6.328-5.985ZM11.4-3.564a3.45,3.45,0,0,0-.457-.035.93.93,0,0,0-.945.488V0H8.723V-4.755h1.2l.035.567a1.177,1.177,0,0,1,1.059-.655,1.331,1.331,0,0,1,.4.057ZM14.111.088a2.334,2.334,0,0,1-1.7-.642,2.281,2.281,0,0,1-.657-1.709v-.123a2.872,2.872,0,0,1,.277-1.281,2.032,2.032,0,0,1,.784-.87,2.2,2.2,0,0,1,1.158-.305,1.973,1.973,0,0,1,1.536.615,2.5,2.5,0,0,1,.56,1.745v.519H13.039a1.18,1.18,0,0,0,.371.747,1.123,1.123,0,0,0,.784.281,1.371,1.371,0,0,0,1.147-.532l.624.7a1.907,1.907,0,0,1-.773.631A2.538,2.538,0,0,1,14.111.088Zm-.145-3.907a.794.794,0,0,0-.613.256,1.326,1.326,0,0,0-.3.733h1.767v-.1a.946.946,0,0,0-.229-.655A.819.819,0,0,0,13.966-3.819Zm4.8,2.883a.833.833,0,0,0,.571-.193.677.677,0,0,0,.229-.514h1.191a1.629,1.629,0,0,1-.264.885,1.74,1.74,0,0,1-.71.624,2.221,2.221,0,0,1-1,.222A2.064,2.064,0,0,1,17.178-.56a2.565,2.565,0,0,1-.589-1.791v-.083a2.536,2.536,0,0,1,.584-1.753,2.04,2.04,0,0,1,1.6-.655,2,2,0,0,1,1.43.508,1.8,1.8,0,0,1,.547,1.351H19.564a.873.873,0,0,0-.229-.6.762.762,0,0,0-.58-.232.765.765,0,0,0-.67.323,1.875,1.875,0,0,0-.226,1.05v.132a1.9,1.9,0,0,0,.224,1.056A.775.775,0,0,0,18.765-.936Zm4.693,0a.833.833,0,0,0,.571-.193.677.677,0,0,0,.229-.514h1.191a1.629,1.629,0,0,1-.264.885,1.74,1.74,0,0,1-.71.624,2.221,2.221,0,0,1-1,.222A2.064,2.064,0,0,1,21.872-.56a2.565,2.565,0,0,1-.589-1.791v-.083a2.536,2.536,0,0,1,.584-1.753,2.04,2.04,0,0,1,1.6-.655,2,2,0,0,1,1.43.508,1.8,1.8,0,0,1,.547,1.351H24.258a.873.873,0,0,0-.229-.6.762.762,0,0,0-.58-.232.765.765,0,0,0-.67.323,1.875,1.875,0,0,0-.226,1.05v.132a1.9,1.9,0,0,0,.224,1.056A.775.775,0,0,0,23.458-.936ZM27.514,0H26.24V-4.755h1.274ZM26.165-5.985a.625.625,0,0,1,.191-.47.718.718,0,0,1,.521-.185.72.72,0,0,1,.519.185.622.622,0,0,1,.193.47.624.624,0,0,1-.2.475.722.722,0,0,1-.516.185.722.722,0,0,1-.516-.185A.624.624,0,0,1,26.165-5.985Zm2.2,3.564a2.82,2.82,0,0,1,.272-1.261,2,2,0,0,1,.784-.857,2.289,2.289,0,0,1,1.189-.3,2.165,2.165,0,0,1,1.571.589,2.363,2.363,0,0,1,.679,1.6l.009.325a2.485,2.485,0,0,1-.611,1.756,2.123,2.123,0,0,1-1.639.661,2.134,2.134,0,0,1-1.641-.659,2.529,2.529,0,0,1-.613-1.793Zm1.27.09a1.777,1.777,0,0,0,.255,1.036.841.841,0,0,0,.729.359.843.843,0,0,0,.721-.354A1.945,1.945,0,0,0,31.6-2.424a1.76,1.76,0,0,0-.259-1.03.843.843,0,0,0-.729-.365.829.829,0,0,0-.721.363A1.978,1.978,0,0,0,29.632-2.331ZM30.858-6.75h1.384L31.025-5.388H29.993Zm3.959,2,.04.549a1.66,1.66,0,0,1,1.367-.637,1.38,1.38,0,0,1,1.125.444,2.071,2.071,0,0,1,.378,1.327V0h-1.27V-3.041a.824.824,0,0,0-.176-.587A.787.787,0,0,0,35.7-3.81a.874.874,0,0,0-.8.457V0h-1.27V-4.755Zm5.915,2.342a2.865,2.865,0,0,1,.5-1.771A1.618,1.618,0,0,1,42.6-4.843a1.456,1.456,0,0,1,1.147.519V-6.75h1.274V0H43.871l-.062-.505a1.5,1.5,0,0,1-1.222.593A1.614,1.614,0,0,1,41.24-.573,2.958,2.958,0,0,1,40.733-2.413ZM42-2.318a1.877,1.877,0,0,0,.233,1.026.759.759,0,0,0,.677.357.85.85,0,0,0,.831-.5V-3.313a.838.838,0,0,0-.822-.5Q42-3.81,42-2.318ZM48.19.088a2.334,2.334,0,0,1-1.7-.642,2.281,2.281,0,0,1-.657-1.709v-.123a2.872,2.872,0,0,1,.277-1.281,2.032,2.032,0,0,1,.784-.87,2.2,2.2,0,0,1,1.158-.305,1.973,1.973,0,0,1,1.536.615,2.5,2.5,0,0,1,.56,1.745v.519H47.118a1.18,1.18,0,0,0,.371.747,1.123,1.123,0,0,0,.784.281,1.371,1.371,0,0,0,1.147-.532l.624.7a1.907,1.907,0,0,1-.773.631A2.538,2.538,0,0,1,48.19.088Zm-.145-3.907a.794.794,0,0,0-.613.256,1.326,1.326,0,0,0-.3.733H48.9v-.1a.946.946,0,0,0-.229-.655A.819.819,0,0,0,48.045-3.819Zm8.249-1.947a6.112,6.112,0,0,0-.7-.044q-.861,0-.861.734v.321h.945v.932h-.945V0H53.455V-3.823h-.708v-.932h.708v-.369A1.625,1.625,0,0,1,53.974-6.4a2.12,2.12,0,0,1,1.441-.446q.664,0,2.153.141V0H56.294ZM61.471-.483a1.593,1.593,0,0,1-1.3.571A1.5,1.5,0,0,1,59-.352a1.876,1.876,0,0,1-.411-1.288V-4.755h1.27V-1.68q0,.743.677.743a.917.917,0,0,0,.888-.449v-3.37H62.7V0h-1.2ZM65-4.755V.259a1.7,1.7,0,0,1-.417,1.224,1.587,1.587,0,0,1-1.2.437,2.582,2.582,0,0,1-.628-.075V.839a2.384,2.384,0,0,0,.4.04q.576,0,.576-.611V-4.755Zm-1.375-1.23a.625.625,0,0,1,.191-.47.718.718,0,0,1,.521-.185.718.718,0,0,1,.521.185.625.625,0,0,1,.191.47.624.624,0,0,1-.2.475.722.722,0,0,1-.516.185.722.722,0,0,1-.516-.185A.624.624,0,0,1,63.628-5.985ZM65.8-2.421a2.82,2.82,0,0,1,.272-1.261,2,2,0,0,1,.784-.857,2.289,2.289,0,0,1,1.189-.3,2.165,2.165,0,0,1,1.571.589,2.363,2.363,0,0,1,.679,1.6l.009.325a2.485,2.485,0,0,1-.611,1.756,2.123,2.123,0,0,1-1.639.661,2.134,2.134,0,0,1-1.641-.659A2.529,2.529,0,0,1,65.8-2.364Zm1.27.09a1.777,1.777,0,0,0,.255,1.036.841.841,0,0,0,.729.359.843.843,0,0,0,.721-.354,1.945,1.945,0,0,0,.259-1.133,1.76,1.76,0,0,0-.259-1.03.843.843,0,0,0-.729-.365.829.829,0,0,0-.721.363A1.978,1.978,0,0,0,67.069-2.331ZM.29,8.587a2.865,2.865,0,0,1,.5-1.771,1.618,1.618,0,0,1,1.365-.659A1.456,1.456,0,0,1,3.3,6.676V4.25H4.575V11H3.428l-.062-.505a1.5,1.5,0,0,1-1.222.593A1.614,1.614,0,0,1,.8,10.427,2.958,2.958,0,0,1,.29,8.587Zm1.27.095a1.877,1.877,0,0,0,.233,1.026.759.759,0,0,0,.677.357.85.85,0,0,0,.831-.5V7.687a.838.838,0,0,0-.822-.5Q1.56,7.19,1.56,8.682Zm6.188,2.406a2.334,2.334,0,0,1-1.7-.642,2.281,2.281,0,0,1-.657-1.709V8.614a2.872,2.872,0,0,1,.277-1.281,2.032,2.032,0,0,1,.784-.87,2.2,2.2,0,0,1,1.158-.305,1.973,1.973,0,0,1,1.536.615A2.5,2.5,0,0,1,9.7,8.517v.519H6.675a1.18,1.18,0,0,0,.371.747,1.123,1.123,0,0,0,.784.281,1.371,1.371,0,0,0,1.147-.532l.624.7a1.907,1.907,0,0,1-.773.631A2.538,2.538,0,0,1,7.748,11.088ZM7.6,7.181a.794.794,0,0,0-.613.256,1.326,1.326,0,0,0-.3.733H8.455v-.1a.946.946,0,0,0-.229-.655A.819.819,0,0,0,7.6,7.181ZM14.005,11H12.731V4.25h1.274Zm3.8,0a1.41,1.41,0,0,1-.127-.426,1.537,1.537,0,0,1-1.2.514,1.688,1.688,0,0,1-1.158-.4,1.3,1.3,0,0,1-.459-1.02,1.344,1.344,0,0,1,.56-1.16A2.765,2.765,0,0,1,17.042,8.1h.584V7.823a.784.784,0,0,0-.169-.527.666.666,0,0,0-.534-.2.757.757,0,0,0-.5.154.523.523,0,0,0-.182.422h-1.27a1.276,1.276,0,0,1,.255-.765,1.685,1.685,0,0,1,.721-.552,2.627,2.627,0,0,1,1.046-.2,2.075,2.075,0,0,1,1.4.442A1.545,1.545,0,0,1,18.9,7.84V9.9a2.273,2.273,0,0,0,.189,1.024V11Zm-1.05-.883a1.094,1.094,0,0,0,.519-.125.823.823,0,0,0,.352-.336V8.838h-.475q-.954,0-1.015.659l0,.075a.508.508,0,0,0,.167.391A.649.649,0,0,0,16.756,10.117Zm5.7-.431a.409.409,0,0,0-.231-.367,2.621,2.621,0,0,0-.74-.24q-1.7-.356-1.7-1.441a1.307,1.307,0,0,1,.525-1.057,2.118,2.118,0,0,1,1.373-.424,2.28,2.28,0,0,1,1.448.426,1.343,1.343,0,0,1,.543,1.107H22.4a.615.615,0,0,0-.176-.45.744.744,0,0,0-.549-.178.76.76,0,0,0-.5.145.458.458,0,0,0-.176.369.391.391,0,0,0,.2.341,2.057,2.057,0,0,0,.675.224,5.51,5.51,0,0,1,.8.213,1.314,1.314,0,0,1,1.006,1.279,1.24,1.24,0,0,1-.558,1.052,2.408,2.408,0,0,1-1.441.4,2.515,2.515,0,0,1-1.061-.213,1.781,1.781,0,0,1-.727-.584,1.358,1.358,0,0,1-.264-.8h1.2a.663.663,0,0,0,.25.519.994.994,0,0,0,.624.18.92.92,0,0,0,.552-.138A.431.431,0,0,0,22.452,9.686ZM29.5,11a1.41,1.41,0,0,1-.127-.426,1.537,1.537,0,0,1-1.2.514,1.688,1.688,0,0,1-1.158-.4,1.3,1.3,0,0,1-.459-1.02,1.344,1.344,0,0,1,.56-1.16A2.765,2.765,0,0,1,28.736,8.1h.584V7.823a.784.784,0,0,0-.169-.527.666.666,0,0,0-.534-.2.757.757,0,0,0-.5.154.523.523,0,0,0-.182.422h-1.27a1.276,1.276,0,0,1,.255-.765,1.685,1.685,0,0,1,.721-.552,2.627,2.627,0,0,1,1.046-.2,2.075,2.075,0,0,1,1.4.442,1.545,1.545,0,0,1,.516,1.241V9.9a2.273,2.273,0,0,0,.189,1.024V11Zm-1.05-.883a1.094,1.094,0,0,0,.519-.125.823.823,0,0,0,.352-.336V8.838h-.475q-.954,0-1.015.659l0,.075a.508.508,0,0,0,.167.391A.649.649,0,0,0,28.45,10.117Zm5.1-.053a.833.833,0,0,0,.571-.193.677.677,0,0,0,.229-.514h1.191a1.629,1.629,0,0,1-.264.885,1.74,1.74,0,0,1-.71.624,2.221,2.221,0,0,1-1,.222,2.064,2.064,0,0,1-1.608-.648,2.565,2.565,0,0,1-.589-1.791V8.565a2.536,2.536,0,0,1,.584-1.753,2.04,2.04,0,0,1,1.6-.655,2,2,0,0,1,1.43.508,1.8,1.8,0,0,1,.547,1.351H34.348a.873.873,0,0,0-.229-.6.849.849,0,0,0-1.25.092,1.875,1.875,0,0,0-.226,1.05v.132a1.9,1.9,0,0,0,.224,1.056A.775.775,0,0,0,33.548,10.064Zm4.236-4.988V6.245H38.6v.932h-.813V9.55a.567.567,0,0,0,.1.378.508.508,0,0,0,.387.114,2.025,2.025,0,0,0,.374-.031v.962a2.615,2.615,0,0,1-.769.114,1.213,1.213,0,0,1-1.362-1.349V7.177H35.82V6.245h.694V5.076ZM40.645,11H39.371V6.245h1.274ZM39.3,5.015a.625.625,0,0,1,.191-.47.824.824,0,0,1,1.039,0,.671.671,0,0,1,0,.945.815.815,0,0,1-1.033,0A.624.624,0,0,1,39.3,5.015Zm4.175,4.434.883-3.2h1.327L44.077,11H42.864l-1.6-4.755h1.327ZM47.58,11H46.305V6.245H47.58ZM46.23,5.015a.625.625,0,0,1,.191-.47.824.824,0,0,1,1.039,0,.671.671,0,0,1,0,.945.815.815,0,0,1-1.033,0A.624.624,0,0,1,46.23,5.015Zm2.2,3.573a2.865,2.865,0,0,1,.5-1.771,1.618,1.618,0,0,1,1.365-.659,1.456,1.456,0,0,1,1.147.519V4.25h1.274V11H51.565l-.062-.505a1.5,1.5,0,0,1-1.222.593,1.614,1.614,0,0,1-1.347-.661A2.958,2.958,0,0,1,48.428,8.587Zm1.27.095a1.877,1.877,0,0,0,.233,1.026.759.759,0,0,0,.677.357.85.85,0,0,0,.831-.5V7.687a.838.838,0,0,0-.822-.5Q49.7,7.19,49.7,8.682ZM56.452,11a1.41,1.41,0,0,1-.127-.426,1.537,1.537,0,0,1-1.2.514,1.688,1.688,0,0,1-1.158-.4,1.3,1.3,0,0,1-.459-1.02,1.344,1.344,0,0,1,.56-1.16A2.765,2.765,0,0,1,55.688,8.1h.584V7.823A.784.784,0,0,0,56.1,7.3a.666.666,0,0,0-.534-.2.757.757,0,0,0-.5.154.523.523,0,0,0-.182.422h-1.27a1.276,1.276,0,0,1,.255-.765,1.685,1.685,0,0,1,.721-.552,2.627,2.627,0,0,1,1.046-.2,2.075,2.075,0,0,1,1.4.442,1.545,1.545,0,0,1,.516,1.241V9.9a2.273,2.273,0,0,0,.189,1.024V11Zm-1.05-.883a1.094,1.094,0,0,0,.519-.125.823.823,0,0,0,.352-.336V8.838H55.8q-.954,0-1.015.659l0,.075a.508.508,0,0,0,.167.391A.649.649,0,0,0,55.4,10.117Zm2.922-1.529a2.865,2.865,0,0,1,.5-1.771,1.618,1.618,0,0,1,1.365-.659,1.456,1.456,0,0,1,1.147.519V4.25h1.274V11H61.462l-.062-.505a1.5,1.5,0,0,1-1.222.593,1.614,1.614,0,0,1-1.347-.661A2.958,2.958,0,0,1,58.324,8.587Zm1.27.095a1.877,1.877,0,0,0,.233,1.026.759.759,0,0,0,.677.357.85.85,0,0,0,.831-.5V7.687a.838.838,0,0,0-.822-.5Q59.594,7.19,59.594,8.682Zm6.188,2.406a2.334,2.334,0,0,1-1.7-.642,2.281,2.281,0,0,1-.657-1.709V8.614A2.872,2.872,0,0,1,63.7,7.333a2.032,2.032,0,0,1,.784-.87,2.2,2.2,0,0,1,1.158-.305,1.973,1.973,0,0,1,1.536.615,2.5,2.5,0,0,1,.56,1.745v.519H64.709a1.18,1.18,0,0,0,.371.747,1.123,1.123,0,0,0,.784.281,1.371,1.371,0,0,0,1.147-.532l.624.7a1.907,1.907,0,0,1-.773.631A2.538,2.538,0,0,1,65.782,11.088Zm-.145-3.907a.794.794,0,0,0-.613.256,1.326,1.326,0,0,0-.3.733h1.767v-.1a.946.946,0,0,0-.229-.655A.819.819,0,0,0,65.637,7.181Zm5.4,2.5a.409.409,0,0,0-.231-.367,2.621,2.621,0,0,0-.74-.24q-1.7-.356-1.7-1.441a1.307,1.307,0,0,1,.525-1.057,2.118,2.118,0,0,1,1.373-.424,2.28,2.28,0,0,1,1.448.426,1.343,1.343,0,0,1,.543,1.107h-1.27a.615.615,0,0,0-.176-.45.744.744,0,0,0-.549-.178.76.76,0,0,0-.5.145.458.458,0,0,0-.176.369.391.391,0,0,0,.2.341,2.057,2.057,0,0,0,.675.224,5.51,5.51,0,0,1,.8.213,1.314,1.314,0,0,1,1.006,1.279,1.24,1.24,0,0,1-.558,1.052,2.408,2.408,0,0,1-1.441.4,2.515,2.515,0,0,1-1.061-.213,1.781,1.781,0,0,1-.727-.584,1.358,1.358,0,0,1-.264-.8h1.2a.663.663,0,0,0,.25.519.994.994,0,0,0,.624.18.92.92,0,0,0,.552-.138A.431.431,0,0,0,71.033,9.686Z" transform="translate(0 9)" fill="#02346a"/>
    </g>
    <g id="Grupo_972535" data-name="Grupo 972535" transform="translate(193.91 67.437)">
      <path id="Trazado_698339" data-name="Trazado 698339" d="M4.526-3.278H.6V-4.315H4.526Zm0,1.9H.6V-2.413H4.526ZM7.963,0V-6.4H9.932a2.99,2.99,0,0,1,1.51.38A2.651,2.651,0,0,1,12.48-4.937a3.334,3.334,0,0,1,.374,1.593v.294a3.344,3.344,0,0,1-.367,1.586A2.628,2.628,0,0,1,11.452-.387,3.012,3.012,0,0,1,9.945,0ZM9.281-5.331v4.271h.637A1.432,1.432,0,0,0,11.1-1.564a2.284,2.284,0,0,0,.417-1.446v-.338a2.32,2.32,0,0,0-.4-1.479,1.427,1.427,0,0,0-1.182-.5ZM15.917.088a2.334,2.334,0,0,1-1.7-.642,2.281,2.281,0,0,1-.657-1.709v-.123a2.872,2.872,0,0,1,.277-1.281,2.032,2.032,0,0,1,.784-.87,2.2,2.2,0,0,1,1.158-.305,1.973,1.973,0,0,1,1.536.615,2.5,2.5,0,0,1,.56,1.745v.519H14.845a1.18,1.18,0,0,0,.371.747A1.123,1.123,0,0,0,16-.936a1.371,1.371,0,0,0,1.147-.532l.624.7A1.907,1.907,0,0,1,17-.138,2.538,2.538,0,0,1,15.917.088Zm-.145-3.907a.794.794,0,0,0-.613.256,1.326,1.326,0,0,0-.3.733h1.767v-.1a.946.946,0,0,0-.229-.655A.819.819,0,0,0,15.772-3.819Zm4.8,2.883a.833.833,0,0,0,.571-.193.677.677,0,0,0,.229-.514h1.191a1.629,1.629,0,0,1-.264.885,1.74,1.74,0,0,1-.71.624,2.221,2.221,0,0,1-1,.222A2.064,2.064,0,0,1,18.984-.56,2.565,2.565,0,0,1,18.4-2.351v-.083a2.536,2.536,0,0,1,.584-1.753,2.04,2.04,0,0,1,1.6-.655,2,2,0,0,1,1.43.508,1.8,1.8,0,0,1,.547,1.351H21.371a.873.873,0,0,0-.229-.6.762.762,0,0,0-.58-.232.765.765,0,0,0-.67.323,1.875,1.875,0,0,0-.226,1.05v.132a1.9,1.9,0,0,0,.224,1.056A.775.775,0,0,0,20.571-.936ZM24.627,0H23.353V-4.755h1.274ZM23.278-5.985a.625.625,0,0,1,.191-.47.718.718,0,0,1,.521-.185.72.72,0,0,1,.519.185.622.622,0,0,1,.193.47.624.624,0,0,1-.2.475.722.722,0,0,1-.516.185.722.722,0,0,1-.516-.185A.624.624,0,0,1,23.278-5.985Zm4.97,4.671a.409.409,0,0,0-.231-.367,2.621,2.621,0,0,0-.74-.24q-1.7-.356-1.7-1.441a1.307,1.307,0,0,1,.525-1.057,2.118,2.118,0,0,1,1.373-.424,2.28,2.28,0,0,1,1.448.426,1.343,1.343,0,0,1,.543,1.107H28.2a.615.615,0,0,0-.176-.45.744.744,0,0,0-.549-.178.76.76,0,0,0-.5.145.458.458,0,0,0-.176.369.391.391,0,0,0,.2.341,2.057,2.057,0,0,0,.675.224,5.51,5.51,0,0,1,.8.213,1.314,1.314,0,0,1,1.006,1.279,1.24,1.24,0,0,1-.558,1.052,2.408,2.408,0,0,1-1.441.4,2.515,2.515,0,0,1-1.061-.213,1.781,1.781,0,0,1-.727-.584,1.358,1.358,0,0,1-.264-.8h1.2a.663.663,0,0,0,.25.519.994.994,0,0,0,.624.18.92.92,0,0,0,.552-.138A.431.431,0,0,0,28.248-1.314ZM31.641,0H30.366V-4.755h1.274ZM30.292-5.985a.625.625,0,0,1,.191-.47A.718.718,0,0,1,31-6.64a.72.72,0,0,1,.519.185.622.622,0,0,1,.193.47.624.624,0,0,1-.2.475A.722.722,0,0,1,31-5.326a.722.722,0,0,1-.516-.185A.624.624,0,0,1,30.292-5.985Zm2.2,3.564a2.82,2.82,0,0,1,.272-1.261,2,2,0,0,1,.784-.857,2.289,2.289,0,0,1,1.189-.3,2.165,2.165,0,0,1,1.571.589,2.363,2.363,0,0,1,.679,1.6l.009.325a2.485,2.485,0,0,1-.611,1.756,2.123,2.123,0,0,1-1.639.661A2.134,2.134,0,0,1,33.1-.571a2.529,2.529,0,0,1-.613-1.793Zm1.27.09a1.777,1.777,0,0,0,.255,1.036.841.841,0,0,0,.729.359.843.843,0,0,0,.721-.354,1.945,1.945,0,0,0,.259-1.133,1.76,1.76,0,0,0-.259-1.03.843.843,0,0,0-.729-.365.829.829,0,0,0-.721.363A1.978,1.978,0,0,0,33.759-2.331Zm5.186-2.424.04.549a1.66,1.66,0,0,1,1.367-.637,1.38,1.38,0,0,1,1.125.444,2.071,2.071,0,0,1,.378,1.327V0h-1.27V-3.041a.824.824,0,0,0-.176-.587.787.787,0,0,0-.584-.182.874.874,0,0,0-.8.457V0h-1.27V-4.755ZM45,.088a2.334,2.334,0,0,1-1.7-.642,2.281,2.281,0,0,1-.657-1.709v-.123a2.872,2.872,0,0,1,.277-1.281,2.032,2.032,0,0,1,.784-.87,2.2,2.2,0,0,1,1.158-.305,1.973,1.973,0,0,1,1.536.615,2.5,2.5,0,0,1,.56,1.745v.519H43.932a1.18,1.18,0,0,0,.371.747,1.123,1.123,0,0,0,.784.281,1.371,1.371,0,0,0,1.147-.532l.624.7a1.907,1.907,0,0,1-.773.631A2.538,2.538,0,0,1,45,.088Zm-.145-3.907a.794.794,0,0,0-.613.256,1.326,1.326,0,0,0-.3.733h1.767v-.1a.946.946,0,0,0-.229-.655A.819.819,0,0,0,44.859-3.819Zm5.4,2.5a.409.409,0,0,0-.231-.367,2.621,2.621,0,0,0-.74-.24q-1.7-.356-1.7-1.441a1.307,1.307,0,0,1,.525-1.057,2.118,2.118,0,0,1,1.373-.424,2.28,2.28,0,0,1,1.448.426,1.343,1.343,0,0,1,.543,1.107h-1.27a.615.615,0,0,0-.176-.45.744.744,0,0,0-.549-.178.76.76,0,0,0-.5.145.458.458,0,0,0-.176.369.391.391,0,0,0,.2.341,2.057,2.057,0,0,0,.675.224,5.51,5.51,0,0,1,.8.213,1.314,1.314,0,0,1,1.006,1.279,1.24,1.24,0,0,1-.558,1.052,2.408,2.408,0,0,1-1.441.4A2.515,2.515,0,0,1,48.43-.125,1.781,1.781,0,0,1,47.7-.71a1.358,1.358,0,0,1-.264-.8h1.2a.663.663,0,0,0,.25.519.994.994,0,0,0,.624.18.92.92,0,0,0,.552-.138A.431.431,0,0,0,50.256-1.314Zm8.574-1.02a2.852,2.852,0,0,1-.5,1.76,1.6,1.6,0,0,1-1.347.661,1.481,1.481,0,0,1-1.165-.5V1.828h-1.27V-4.755h1.178l.044.466a1.493,1.493,0,0,1,1.2-.554,1.61,1.61,0,0,1,1.367.65A2.929,2.929,0,0,1,58.83-2.4Zm-1.27-.092a1.871,1.871,0,0,0-.235-1.024.766.766,0,0,0-.683-.36.832.832,0,0,0-.822.457v1.947a.846.846,0,0,0,.831.47Q57.56-.936,57.56-2.426ZM61.8.088a2.334,2.334,0,0,1-1.7-.642,2.281,2.281,0,0,1-.657-1.709v-.123a2.872,2.872,0,0,1,.277-1.281,2.032,2.032,0,0,1,.784-.87,2.2,2.2,0,0,1,1.158-.305,1.973,1.973,0,0,1,1.536.615,2.5,2.5,0,0,1,.56,1.745v.519H60.732a1.18,1.18,0,0,0,.371.747,1.123,1.123,0,0,0,.784.281,1.371,1.371,0,0,0,1.147-.532l.624.7a1.907,1.907,0,0,1-.773.631A2.538,2.538,0,0,1,61.8.088ZM61.66-3.819a.794.794,0,0,0-.613.256,1.326,1.326,0,0,0-.3.733h1.767v-.1a.946.946,0,0,0-.229-.655A.819.819,0,0,0,61.66-3.819Zm3.99-.936.04.549a1.66,1.66,0,0,1,1.367-.637,1.38,1.38,0,0,1,1.125.444,2.071,2.071,0,0,1,.378,1.327V0h-1.27V-3.041a.824.824,0,0,0-.176-.587.787.787,0,0,0-.584-.182.874.874,0,0,0-.8.457V0h-1.27V-4.755Zm3.674,2.342a2.865,2.865,0,0,1,.5-1.771,1.618,1.618,0,0,1,1.365-.659,1.456,1.456,0,0,1,1.147.519V-6.75h1.274V0H72.461L72.4-.505a1.5,1.5,0,0,1-1.222.593,1.614,1.614,0,0,1-1.347-.661A2.958,2.958,0,0,1,69.324-2.413Zm1.27.095a1.877,1.877,0,0,0,.233,1.026.759.759,0,0,0,.677.357.85.85,0,0,0,.831-.5V-3.313a.838.838,0,0,0-.822-.5Q70.594-3.81,70.594-2.318ZM75.933,0H74.659V-4.755h1.274ZM74.584-5.985a.625.625,0,0,1,.191-.47A.718.718,0,0,1,75.3-6.64a.72.72,0,0,1,.519.185.622.622,0,0,1,.193.47.624.624,0,0,1-.2.475.722.722,0,0,1-.516.185.722.722,0,0,1-.516-.185A.624.624,0,0,1,74.584-5.985ZM79.167.088a2.334,2.334,0,0,1-1.7-.642,2.281,2.281,0,0,1-.657-1.709v-.123a2.872,2.872,0,0,1,.277-1.281,2.032,2.032,0,0,1,.784-.87,2.2,2.2,0,0,1,1.158-.305,1.973,1.973,0,0,1,1.536.615,2.5,2.5,0,0,1,.56,1.745v.519H78.1a1.18,1.18,0,0,0,.371.747,1.123,1.123,0,0,0,.784.281A1.371,1.371,0,0,0,80.4-1.468l.624.7a1.907,1.907,0,0,1-.773.631A2.538,2.538,0,0,1,79.167.088Zm-.145-3.907a.794.794,0,0,0-.613.256,1.326,1.326,0,0,0-.3.733h1.767v-.1a.946.946,0,0,0-.229-.655A.819.819,0,0,0,79.022-3.819Zm3.99-.936.04.549a1.66,1.66,0,0,1,1.367-.637,1.38,1.38,0,0,1,1.125.444,2.071,2.071,0,0,1,.378,1.327V0h-1.27V-3.041a.824.824,0,0,0-.176-.587.787.787,0,0,0-.584-.182.874.874,0,0,0-.8.457V0h-1.27V-4.755ZM88.4-5.924v1.169h.813v.932H88.4V-1.45a.567.567,0,0,0,.1.378.508.508,0,0,0,.387.114,2.025,2.025,0,0,0,.374-.031v.962A2.615,2.615,0,0,1,88.5.088a1.213,1.213,0,0,1-1.362-1.349V-3.823H86.44v-.932h.694V-5.924ZM92.114.088a2.334,2.334,0,0,1-1.7-.642,2.281,2.281,0,0,1-.657-1.709v-.123a2.872,2.872,0,0,1,.277-1.281,2.032,2.032,0,0,1,.784-.87,2.2,2.2,0,0,1,1.158-.305,1.973,1.973,0,0,1,1.536.615,2.5,2.5,0,0,1,.56,1.745v.519H91.042a1.18,1.18,0,0,0,.371.747,1.123,1.123,0,0,0,.784.281,1.371,1.371,0,0,0,1.147-.532l.624.7a1.907,1.907,0,0,1-.773.631A2.538,2.538,0,0,1,92.114.088Zm-.145-3.907a.794.794,0,0,0-.613.256,1.326,1.326,0,0,0-.3.733h1.767v-.1a.946.946,0,0,0-.229-.655A.819.819,0,0,0,91.969-3.819Zm5.4,2.5a.409.409,0,0,0-.231-.367,2.621,2.621,0,0,0-.74-.24q-1.7-.356-1.7-1.441a1.307,1.307,0,0,1,.525-1.057A2.118,2.118,0,0,1,96.6-4.843a2.28,2.28,0,0,1,1.448.426,1.343,1.343,0,0,1,.543,1.107h-1.27a.615.615,0,0,0-.176-.45.744.744,0,0,0-.549-.178.76.76,0,0,0-.5.145.458.458,0,0,0-.176.369.391.391,0,0,0,.2.341,2.057,2.057,0,0,0,.675.224,5.51,5.51,0,0,1,.8.213A1.314,1.314,0,0,1,98.6-1.367a1.24,1.24,0,0,1-.558,1.052,2.408,2.408,0,0,1-1.441.4,2.515,2.515,0,0,1-1.061-.213,1.781,1.781,0,0,1-.727-.584,1.358,1.358,0,0,1-.264-.8h1.2A.663.663,0,0,0,96-.993a.994.994,0,0,0,.624.18.92.92,0,0,0,.552-.138A.431.431,0,0,0,97.365-1.314Z" transform="translate(0 9)" fill="#02346a"/>
    </g>
    <path id="Trazado_696832" data-name="Trazado 696832" d="M162.178,64.855,134.731,92.3l-27.45-27.447,27.45-27.45Z" transform="translate(29.26 7.99)" stroke="#5b9992" stroke-miterlimit="10" stroke-width="1" fill="url(#linear-gradient-6)"/>
    <path id="Trazado_696833" data-name="Trazado 696833" d="M346.35,158.943,303.3,202l-43.053-43.053L303.3,115.892Z" transform="translate(72.456 30.154)" stroke="#5b9992" stroke-miterlimit="10" stroke-width="1" fill="url(#linear-gradient-6)"/>
    <path id="Trazado_696834" data-name="Trazado 696834" d="M249.189,255.7l-43.977,43.976-46.562-46.562,43.978-43.976Z" transform="translate(43.766 56.486)" stroke="#5b9992" stroke-miterlimit="10" stroke-width="1" fill="url(#linear-gradient-8)"/>
    <circle id="Elipse_5633" data-name="Elipse 5633" cx="22.584" cy="22.584" r="22.584" transform="translate(311.854 50.612)" stroke="#5b9992" stroke-miterlimit="10" stroke-width="1" fill="url(#radial-gradient)"/>
    <g id="Grupo_972536" data-name="Grupo 972536" transform="translate(194.917 10.728)">
      <text id="Símbolos_para_el_diagrama_de_flujo" data-name="Símbolos para el diagrama de flujo" transform="translate(0 12)" fill="#02346a" font-size="13" font-family="Roboto-Bold, Roboto" font-weight="700"><tspan x="0" y="0">Símbolos para el diagrama de flujo</tspan></text>
    </g>
    <path id="Trazado_696835" data-name="Trazado 696835" d="M401.833,61.216a.52.52,0,0,0-.263-.46l-5.776-3.343a.53.53,0,0,0-.794.458L395,60.2l-42.926-.142a.886.886,0,0,0-.887.881.865.865,0,0,0,.246.616.876.876,0,0,0,.632.273l42.933.141,0,2.574a.543.543,0,0,0,.146.368.535.535,0,0,0,.118.094.528.528,0,0,0,.53,0l5.785-3.329A.528.528,0,0,0,401.833,61.216Z" transform="translate(98.136 13.62)" fill="#3ca1ad"/>
    <path id="Trazado_696836" data-name="Trazado 696836" d="M150.051,152.324a.684.684,0,0,0-.346-.6l-7.544-4.367a.692.692,0,0,0-1.037.6l0,3.043-67.14-.186a1.156,1.156,0,0,0-1.161,1.15,1.143,1.143,0,0,0,.321.8,1.155,1.155,0,0,0,.827.358l67.153.183,0,3.364a.706.706,0,0,0,.191.481.716.716,0,0,0,.153.122.692.692,0,0,0,.694,0l7.553-4.35A.7.7,0,0,0,150.051,152.324Z" transform="translate(19.528 39.014)" fill="#3ca1ad"/>
    <path id="Trazado_696837" data-name="Trazado 696837" d="M70.027,236.716a.682.682,0,0,0,.6-.346L75,228.827a.693.693,0,0,0-.6-1.039l-3.043,0,.187-27.034a1.155,1.155,0,0,0-1.15-1.159,1.143,1.143,0,0,0-.8.321,1.157,1.157,0,0,0-.358.827l-.088-2.029-.095,29.072-3.364,0a.7.7,0,0,0-.481.191.709.709,0,0,0-.122.153.692.692,0,0,0,0,.694l4.35,7.553A.683.683,0,0,0,70.027,236.716Z" transform="translate(17.316 53.542)" fill="#3ca1ad"/>
    <text id="_" data-name="=" transform="translate(503.788 74.921)" fill="#02346a" font-size="9" font-family="Roboto-Bold, Roboto" font-weight="700"><tspan x="0" y="0">=</tspan></text>
    <line id="Línea_250" data-name="Línea 250" x2="607" transform="translate(3.669 124.334)" fill="none" stroke="#daebf1" stroke-miterlimit="10" stroke-width="2"/>
    <circle id="Elipse_5634" data-name="Elipse 5634" cx="29.505" cy="29.505" r="29.505" transform="translate(52.769 160.054)" stroke="#5b9992" stroke-miterlimit="10" stroke-width="1" fill="url(#radial-gradient-2)"/>
    <circle id="Elipse_5635" data-name="Elipse 5635" cx="29.504" cy="29.504" r="29.504" transform="translate(507.786 282.223)" stroke="#5b9992" stroke-miterlimit="10" stroke-width="1" fill="url(#radial-gradient)"/>
    <g id="Grupo_972537" data-name="Grupo 972537" transform="translate(66.501 182.781)">
      <path id="Trazado_698333" data-name="Trazado 698333" d="M2.85,0H.946V-9.242h1.9ZM6.183-6.868l.057.793A2.4,2.4,0,0,1,8.214-7a1.993,1.993,0,0,1,1.625.641,2.991,2.991,0,0,1,.546,1.917V0H8.55V-4.393A1.19,1.19,0,0,0,8.3-5.24,1.137,1.137,0,0,0,7.452-5.5a1.262,1.262,0,0,0-1.162.66V0H4.456V-6.868ZM13.711,0H11.87V-6.868h1.841ZM11.762-8.646a.9.9,0,0,1,.276-.679,1.037,1.037,0,0,1,.752-.267,1.04,1.04,0,0,1,.749.267.9.9,0,0,1,.279.679.9.9,0,0,1-.282.686,1.042,1.042,0,0,1-.746.267,1.042,1.042,0,0,1-.746-.267A.9.9,0,0,1,11.762-8.646Zm6.316,7.293a1.2,1.2,0,0,0,.825-.279.979.979,0,0,0,.33-.743h1.72a2.353,2.353,0,0,1-.381,1.279,2.513,2.513,0,0,1-1.025.9A3.208,3.208,0,0,1,18.11.127a2.982,2.982,0,0,1-2.323-.936A3.705,3.705,0,0,1,14.936-3.4v-.121a3.663,3.663,0,0,1,.844-2.533A2.947,2.947,0,0,1,18.1-7a2.889,2.889,0,0,1,2.066.733,2.6,2.6,0,0,1,.79,1.952h-1.72a1.261,1.261,0,0,0-.33-.871,1.1,1.1,0,0,0-.838-.335,1.1,1.1,0,0,0-.968.467,2.708,2.708,0,0,0-.327,1.516v.191a2.742,2.742,0,0,0,.324,1.526A1.119,1.119,0,0,0,18.078-1.352ZM23.937,0H22.1V-6.868h1.841ZM21.988-8.646a.9.9,0,0,1,.276-.679,1.037,1.037,0,0,1,.752-.267,1.04,1.04,0,0,1,.749.267.9.9,0,0,1,.279.679.9.9,0,0,1-.282.686,1.042,1.042,0,0,1-.746.267,1.042,1.042,0,0,1-.746-.267A.9.9,0,0,1,21.988-8.646ZM25.162-3.5a4.073,4.073,0,0,1,.394-1.822,2.881,2.881,0,0,1,1.133-1.238A3.306,3.306,0,0,1,28.406-7a3.127,3.127,0,0,1,2.269.851,3.414,3.414,0,0,1,.981,2.311l.013.47a3.59,3.59,0,0,1-.882,2.536,3.067,3.067,0,0,1-2.368.955,3.082,3.082,0,0,1-2.371-.952,3.653,3.653,0,0,1-.885-2.59ZM27-3.367a2.567,2.567,0,0,0,.368,1.5,1.215,1.215,0,0,0,1.054.518,1.217,1.217,0,0,0,1.041-.512A2.809,2.809,0,0,0,29.834-3.5a2.542,2.542,0,0,0-.375-1.488,1.217,1.217,0,0,0-1.054-.528,1.2,1.2,0,0,0-1.041.524A2.857,2.857,0,0,0,27-3.367Z" transform="translate(0 12)" fill="#02346a"/>
    </g>
    <g id="Grupo_972538" data-name="Grupo 972538" transform="translate(185.047 175.767)">
      <g id="Grupo">
        <path id="Trazado_698328" data-name="Trazado 698328" d="M.762,0V-8.531H3.387A3.986,3.986,0,0,1,5.4-8.024,3.534,3.534,0,0,1,6.785-6.583a4.446,4.446,0,0,1,.5,2.124v.393a4.458,4.458,0,0,1-.489,2.115A3.5,3.5,0,0,1,5.414-.516,4.016,4.016,0,0,1,3.4,0ZM2.52-7.107v5.7h.85a1.909,1.909,0,0,0,1.576-.674A3.045,3.045,0,0,0,5.5-4.014v-.451a3.093,3.093,0,0,0-.539-1.972,1.9,1.9,0,0,0-1.576-.671ZM10.236,0h-1.7V-6.34h1.7Zm-1.8-7.98a.834.834,0,0,1,.255-.627.958.958,0,0,1,.694-.246.96.96,0,0,1,.691.246.829.829,0,0,1,.258.627.831.831,0,0,1-.261.633.962.962,0,0,1-.688.246A.962.962,0,0,1,8.7-7.348.831.831,0,0,1,8.438-7.98Zm6.627,6.229a.546.546,0,0,0-.308-.489,3.494,3.494,0,0,0-.987-.319q-2.262-.475-2.262-1.922a1.742,1.742,0,0,1,.7-1.409,2.825,2.825,0,0,1,1.831-.565,3.04,3.04,0,0,1,1.931.568,1.791,1.791,0,0,1,.724,1.477H15a.819.819,0,0,0-.234-.6.992.992,0,0,0-.732-.237,1.013,1.013,0,0,0-.662.193.61.61,0,0,0-.234.492.522.522,0,0,0,.267.454,2.743,2.743,0,0,0,.9.3,7.346,7.346,0,0,1,1.066.284,1.752,1.752,0,0,1,1.342,1.705,1.654,1.654,0,0,1-.744,1.4,3.21,3.21,0,0,1-1.922.536A3.353,3.353,0,0,1,12.63-.167a2.374,2.374,0,0,1-.97-.779,1.811,1.811,0,0,1-.352-1.069h1.605a.884.884,0,0,0,.334.691,1.325,1.325,0,0,0,.832.24,1.226,1.226,0,0,0,.735-.185A.574.574,0,0,0,15.064-1.752ZM20.719.117a3.112,3.112,0,0,1-2.271-.855,3.041,3.041,0,0,1-.876-2.279v-.164a3.83,3.83,0,0,1,.369-1.708,2.709,2.709,0,0,1,1.046-1.16,2.936,2.936,0,0,1,1.544-.407,2.631,2.631,0,0,1,2.048.82,3.333,3.333,0,0,1,.747,2.326v.691H19.289a1.573,1.573,0,0,0,.5,1,1.5,1.5,0,0,0,1.046.375,1.828,1.828,0,0,0,1.529-.709l.832.932a2.542,2.542,0,0,1-1.031.841A3.383,3.383,0,0,1,20.719.117Zm-.193-5.209a1.058,1.058,0,0,0-.817.341,1.768,1.768,0,0,0-.4.977h2.355v-.135a1.261,1.261,0,0,0-.3-.874A1.092,1.092,0,0,0,20.525-5.092Zm5.32-1.248.053.732a2.213,2.213,0,0,1,1.822-.85,1.84,1.84,0,0,1,1.5.592,2.761,2.761,0,0,1,.5,1.77V0H28.031V-4.055a1.1,1.1,0,0,0-.234-.782,1.049,1.049,0,0,0-.779-.243,1.165,1.165,0,0,0-1.072.609V0H24.252V-6.34Zm3.363-2.584a1.64,1.64,0,0,1-.387,1.11,1.2,1.2,0,0,1-.943.448,1.431,1.431,0,0,1-.4-.05,2.654,2.654,0,0,1-.478-.214,2.576,2.576,0,0,0-.439-.2,1.074,1.074,0,0,0-.293-.038.47.47,0,0,0-.349.146.57.57,0,0,0-.144.416L24.8-7.365a1.665,1.665,0,0,1,.384-1.107,1.184,1.184,0,0,1,.94-.457,1.211,1.211,0,0,1,.331.044,3.645,3.645,0,0,1,.507.214,3.294,3.294,0,0,0,.486.205,1.11,1.11,0,0,0,.281.035.494.494,0,0,0,.354-.144.546.546,0,0,0,.149-.413Zm1.535,5.7a3.76,3.76,0,0,1,.363-1.682,2.659,2.659,0,0,1,1.046-1.143,3.051,3.051,0,0,1,1.585-.4,2.887,2.887,0,0,1,2.095.785,3.151,3.151,0,0,1,.905,2.133l.012.434a3.314,3.314,0,0,1-.814,2.341A2.831,2.831,0,0,1,33.75.117a2.845,2.845,0,0,1-2.188-.879,3.372,3.372,0,0,1-.817-2.391Zm1.693.12a2.37,2.37,0,0,0,.34,1.382,1.121,1.121,0,0,0,.973.478,1.124,1.124,0,0,0,.961-.472,2.593,2.593,0,0,0,.346-1.511A2.346,2.346,0,0,0,34.711-4.6a1.124,1.124,0,0,0-.973-.487,1.105,1.105,0,0,0-.961.484A2.637,2.637,0,0,0,32.438-3.108Zm8.08-.108a3.821,3.821,0,0,1,.665-2.361A2.158,2.158,0,0,1,43-6.457a1.942,1.942,0,0,1,1.529.691V-9h1.7V0H44.7l-.082-.674A1.993,1.993,0,0,1,42.99.117a2.152,2.152,0,0,1-1.8-.882A3.944,3.944,0,0,1,40.518-3.217Zm1.693.126a2.5,2.5,0,0,0,.311,1.367,1.012,1.012,0,0,0,.9.475,1.133,1.133,0,0,0,1.107-.663V-4.417a1.117,1.117,0,0,0-1.1-.663Q42.211-5.08,42.211-3.091ZM50.461.117A3.112,3.112,0,0,1,48.19-.738a3.041,3.041,0,0,1-.876-2.279v-.164a3.83,3.83,0,0,1,.369-1.708,2.709,2.709,0,0,1,1.046-1.16,2.936,2.936,0,0,1,1.544-.407,2.631,2.631,0,0,1,2.048.82,3.333,3.333,0,0,1,.747,2.326v.691H49.031a1.573,1.573,0,0,0,.5,1,1.5,1.5,0,0,0,1.046.375A1.828,1.828,0,0,0,52.1-1.957l.832.932A2.542,2.542,0,0,1,51.9-.185,3.383,3.383,0,0,1,50.461.117Zm-.193-5.209a1.058,1.058,0,0,0-.817.341,1.768,1.768,0,0,0-.4.977H51.4v-.135a1.261,1.261,0,0,0-.3-.874A1.092,1.092,0,0,0,50.268-5.092Z" transform="translate(2.212 11)" fill="#02346a"/>
        <path id="Trazado_698327" data-name="Trazado 698327" d="M6.357-3.111A3.8,3.8,0,0,1,5.692-.765,2.132,2.132,0,0,1,3.9.117,1.975,1.975,0,0,1,2.344-.551V2.438H.65V-6.34h1.57l.059.621a1.99,1.99,0,0,1,1.605-.738,2.147,2.147,0,0,1,1.822.867A3.905,3.905,0,0,1,6.357-3.2ZM4.664-3.234A2.5,2.5,0,0,0,4.351-4.6a1.021,1.021,0,0,0-.911-.48,1.109,1.109,0,0,0-1.1.609v2.6a1.128,1.128,0,0,0,1.107.627Q4.664-1.248,4.664-3.234Zm6.3-1.518a4.6,4.6,0,0,0-.609-.047,1.24,1.24,0,0,0-1.26.65V0H7.406V-6.34h1.6l.047.756a1.569,1.569,0,0,1,1.412-.873,1.774,1.774,0,0,1,.527.076Zm.34,1.523a3.76,3.76,0,0,1,.363-1.682,2.659,2.659,0,0,1,1.046-1.143,3.051,3.051,0,0,1,1.585-.4,2.887,2.887,0,0,1,2.095.785A3.151,3.151,0,0,1,17.3-3.539l.012.434A3.314,3.314,0,0,1,16.5-.765a2.831,2.831,0,0,1-2.186.882,2.845,2.845,0,0,1-2.188-.879,3.372,3.372,0,0,1-.817-2.391ZM13-3.108a2.37,2.37,0,0,0,.34,1.382,1.121,1.121,0,0,0,.973.478,1.124,1.124,0,0,0,.961-.472,2.593,2.593,0,0,0,.346-1.511A2.346,2.346,0,0,0,15.275-4.6a1.124,1.124,0,0,0-.973-.487,1.105,1.105,0,0,0-.961.484A2.637,2.637,0,0,0,13-3.108Zm5.092-.108a3.821,3.821,0,0,1,.665-2.361,2.158,2.158,0,0,1,1.819-.879,1.942,1.942,0,0,1,1.529.691V-9h1.7V0H22.277L22.2-.674a1.993,1.993,0,0,1-1.629.791,2.152,2.152,0,0,1-1.8-.882A3.944,3.944,0,0,1,18.094-3.217Zm1.693.126A2.5,2.5,0,0,0,20.1-1.723a1.012,1.012,0,0,0,.9.475,1.133,1.133,0,0,0,1.107-.663V-4.417a1.117,1.117,0,0,0-1.1-.663Q19.787-5.08,19.787-3.091ZM28.916-.645a2.124,2.124,0,0,1-1.734.762,2,2,0,0,1-1.556-.586,2.5,2.5,0,0,1-.548-1.717V-6.34h1.693v4.1q0,.991.9.991a1.223,1.223,0,0,0,1.184-.6V-6.34h1.7V0H28.963Zm5.555-.6a1.111,1.111,0,0,0,.762-.258.9.9,0,0,0,.3-.686h1.588a2.172,2.172,0,0,1-.352,1.181,2.32,2.32,0,0,1-.946.832,2.962,2.962,0,0,1-1.327.3,2.752,2.752,0,0,1-2.145-.864,3.42,3.42,0,0,1-.785-2.388v-.111a3.381,3.381,0,0,1,.779-2.338,2.72,2.72,0,0,1,2.139-.873A2.667,2.667,0,0,1,36.4-5.78a2.4,2.4,0,0,1,.729,1.8H35.537a1.164,1.164,0,0,0-.3-.8,1.016,1.016,0,0,0-.773-.309,1.02,1.02,0,0,0-.894.431,2.5,2.5,0,0,0-.3,1.4v.176a2.531,2.531,0,0,0,.3,1.408A1.033,1.033,0,0,0,34.471-1.248Zm6.258,0a1.111,1.111,0,0,0,.762-.258.9.9,0,0,0,.3-.686h1.588a2.172,2.172,0,0,1-.352,1.181,2.32,2.32,0,0,1-.946.832,2.962,2.962,0,0,1-1.327.3,2.752,2.752,0,0,1-2.145-.864,3.42,3.42,0,0,1-.785-2.388v-.111a3.381,3.381,0,0,1,.779-2.338,2.72,2.72,0,0,1,2.139-.873,2.667,2.667,0,0,1,1.907.677,2.4,2.4,0,0,1,.729,1.8H41.795a1.164,1.164,0,0,0-.3-.8,1.016,1.016,0,0,0-.773-.309,1.02,1.02,0,0,0-.894.431,2.5,2.5,0,0,0-.3,1.4v.176a2.531,2.531,0,0,0,.3,1.408A1.033,1.033,0,0,0,40.729-1.248ZM46.137,0h-1.7V-6.34h1.7Zm-1.8-7.98a.834.834,0,0,1,.255-.627.958.958,0,0,1,.694-.246.96.96,0,0,1,.691.246.829.829,0,0,1,.258.627.831.831,0,0,1-.261.633.962.962,0,0,1-.688.246.962.962,0,0,1-.688-.246A.831.831,0,0,1,44.338-7.98Zm2.93,4.752a3.76,3.76,0,0,1,.363-1.682,2.659,2.659,0,0,1,1.046-1.143,3.051,3.051,0,0,1,1.585-.4,2.887,2.887,0,0,1,2.095.785,3.151,3.151,0,0,1,.905,2.133l.012.434a3.314,3.314,0,0,1-.814,2.341,2.831,2.831,0,0,1-2.186.882,2.845,2.845,0,0,1-2.188-.879,3.372,3.372,0,0,1-.817-2.391Zm1.693.12a2.37,2.37,0,0,0,.34,1.382,1.121,1.121,0,0,0,.973.478,1.124,1.124,0,0,0,.961-.472,2.593,2.593,0,0,0,.346-1.511A2.346,2.346,0,0,0,51.234-4.6a1.124,1.124,0,0,0-.973-.487,1.105,1.105,0,0,0-.961.484A2.637,2.637,0,0,0,48.961-3.108ZM50.6-9h1.846L50.818-7.184H49.441Zm5.279,2.66.053.732a2.213,2.213,0,0,1,1.822-.85,1.84,1.84,0,0,1,1.5.592,2.761,2.761,0,0,1,.5,1.77V0H58.061V-4.055a1.1,1.1,0,0,0-.234-.782,1.049,1.049,0,0,0-.779-.243,1.165,1.165,0,0,0-1.072.609V0H54.281V-6.34Z" transform="translate(0 24.831)" fill="#02346a"/>
      </g>
    </g>
    <g id="Grupo_972539" data-name="Grupo 972539" transform="translate(365.233 296.089)">
      <path id="Trazado_698336" data-name="Trazado 698336" d="M.762,0V-8.531H3.387A3.986,3.986,0,0,1,5.4-8.024,3.534,3.534,0,0,1,6.785-6.583a4.446,4.446,0,0,1,.5,2.124v.393a4.458,4.458,0,0,1-.489,2.115A3.5,3.5,0,0,1,5.414-.516,4.016,4.016,0,0,1,3.4,0ZM2.52-7.107v5.7h.85a1.909,1.909,0,0,0,1.576-.674A3.045,3.045,0,0,0,5.5-4.014v-.451a3.093,3.093,0,0,0-.539-1.972,1.9,1.9,0,0,0-1.576-.671ZM10.236,0h-1.7V-6.34h1.7Zm-1.8-7.98a.834.834,0,0,1,.255-.627.958.958,0,0,1,.694-.246.96.96,0,0,1,.691.246.829.829,0,0,1,.258.627.831.831,0,0,1-.261.633.962.962,0,0,1-.688.246A.962.962,0,0,1,8.7-7.348.831.831,0,0,1,8.438-7.98Zm6.627,6.229a.546.546,0,0,0-.308-.489,3.494,3.494,0,0,0-.987-.319q-2.262-.475-2.262-1.922a1.742,1.742,0,0,1,.7-1.409,2.825,2.825,0,0,1,1.831-.565,3.04,3.04,0,0,1,1.931.568,1.791,1.791,0,0,1,.724,1.477H15a.819.819,0,0,0-.234-.6.992.992,0,0,0-.732-.237,1.013,1.013,0,0,0-.662.193.61.61,0,0,0-.234.492.522.522,0,0,0,.267.454,2.743,2.743,0,0,0,.9.3,7.346,7.346,0,0,1,1.066.284,1.752,1.752,0,0,1,1.342,1.705,1.654,1.654,0,0,1-.744,1.4,3.21,3.21,0,0,1-1.922.536A3.353,3.353,0,0,1,12.63-.167a2.374,2.374,0,0,1-.97-.779,1.811,1.811,0,0,1-.352-1.069h1.605a.884.884,0,0,0,.334.691,1.325,1.325,0,0,0,.832.24,1.226,1.226,0,0,0,.735-.185A.574.574,0,0,0,15.064-1.752ZM20.719.117a3.112,3.112,0,0,1-2.271-.855,3.041,3.041,0,0,1-.876-2.279v-.164a3.83,3.83,0,0,1,.369-1.708,2.709,2.709,0,0,1,1.046-1.16,2.936,2.936,0,0,1,1.544-.407,2.631,2.631,0,0,1,2.048.82,3.333,3.333,0,0,1,.747,2.326v.691H19.289a1.573,1.573,0,0,0,.5,1,1.5,1.5,0,0,0,1.046.375,1.828,1.828,0,0,0,1.529-.709l.832.932a2.542,2.542,0,0,1-1.031.841A3.383,3.383,0,0,1,20.719.117Zm-.193-5.209a1.058,1.058,0,0,0-.817.341,1.768,1.768,0,0,0-.4.977h2.355v-.135a1.261,1.261,0,0,0-.3-.874A1.092,1.092,0,0,0,20.525-5.092Zm5.32-1.248.053.732a2.213,2.213,0,0,1,1.822-.85,1.84,1.84,0,0,1,1.5.592,2.761,2.761,0,0,1,.5,1.77V0H28.031V-4.055a1.1,1.1,0,0,0-.234-.782,1.049,1.049,0,0,0-.779-.243,1.165,1.165,0,0,0-1.072.609V0H24.252V-6.34Zm3.363-2.584a1.64,1.64,0,0,1-.387,1.11,1.2,1.2,0,0,1-.943.448,1.431,1.431,0,0,1-.4-.05,2.654,2.654,0,0,1-.478-.214,2.576,2.576,0,0,0-.439-.2,1.074,1.074,0,0,0-.293-.038.47.47,0,0,0-.349.146.57.57,0,0,0-.144.416L24.8-7.365a1.665,1.665,0,0,1,.384-1.107,1.184,1.184,0,0,1,.94-.457,1.211,1.211,0,0,1,.331.044,3.645,3.645,0,0,1,.507.214,3.294,3.294,0,0,0,.486.205,1.11,1.11,0,0,0,.281.035.494.494,0,0,0,.354-.144.546.546,0,0,0,.149-.413Zm1.535,5.7a3.76,3.76,0,0,1,.363-1.682,2.659,2.659,0,0,1,1.046-1.143,3.051,3.051,0,0,1,1.585-.4,2.887,2.887,0,0,1,2.095.785,3.151,3.151,0,0,1,.905,2.133l.012.434a3.314,3.314,0,0,1-.814,2.341A2.831,2.831,0,0,1,33.75.117a2.845,2.845,0,0,1-2.188-.879,3.372,3.372,0,0,1-.817-2.391Zm1.693.12a2.37,2.37,0,0,0,.34,1.382,1.121,1.121,0,0,0,.973.478,1.124,1.124,0,0,0,.961-.472,2.593,2.593,0,0,0,.346-1.511A2.346,2.346,0,0,0,34.711-4.6a1.124,1.124,0,0,0-.973-.487,1.105,1.105,0,0,0-.961.484A2.637,2.637,0,0,0,32.438-3.108Zm8.08-.108a3.821,3.821,0,0,1,.665-2.361A2.158,2.158,0,0,1,43-6.457a1.942,1.942,0,0,1,1.529.691V-9h1.7V0H44.7l-.082-.674A1.993,1.993,0,0,1,42.99.117a2.152,2.152,0,0,1-1.8-.882A3.944,3.944,0,0,1,40.518-3.217Zm1.693.126a2.5,2.5,0,0,0,.311,1.367,1.012,1.012,0,0,0,.9.475,1.133,1.133,0,0,0,1.107-.663V-4.417a1.117,1.117,0,0,0-1.1-.663Q42.211-5.08,42.211-3.091ZM50.461.117A3.112,3.112,0,0,1,48.19-.738a3.041,3.041,0,0,1-.876-2.279v-.164a3.83,3.83,0,0,1,.369-1.708,2.709,2.709,0,0,1,1.046-1.16,2.936,2.936,0,0,1,1.544-.407,2.631,2.631,0,0,1,2.048.82,3.333,3.333,0,0,1,.747,2.326v.691H49.031a1.573,1.573,0,0,0,.5,1,1.5,1.5,0,0,0,1.046.375A1.828,1.828,0,0,0,52.1-1.957l.832.932A2.542,2.542,0,0,1,51.9-.185,3.383,3.383,0,0,1,50.461.117Zm-.193-5.209a1.058,1.058,0,0,0-.817.341,1.768,1.768,0,0,0-.4.977H51.4v-.135a1.261,1.261,0,0,0-.3-.874A1.092,1.092,0,0,0,50.268-5.092ZM6.357,9.889a3.8,3.8,0,0,1-.665,2.347,2.132,2.132,0,0,1-1.8.882,1.975,1.975,0,0,1-1.553-.668v2.988H.65V6.66h1.57l.059.621a1.99,1.99,0,0,1,1.605-.738,2.147,2.147,0,0,1,1.822.867A3.905,3.905,0,0,1,6.357,9.8ZM4.664,9.766A2.5,2.5,0,0,0,4.351,8.4a1.021,1.021,0,0,0-.911-.48,1.109,1.109,0,0,0-1.1.609v2.6a1.128,1.128,0,0,0,1.107.627Q4.664,11.752,4.664,9.766Zm6.3-1.518a4.6,4.6,0,0,0-.609-.047,1.24,1.24,0,0,0-1.26.65V13H7.406V6.66h1.6l.047.756a1.569,1.569,0,0,1,1.412-.873,1.774,1.774,0,0,1,.527.076Zm.34,1.523a3.76,3.76,0,0,1,.363-1.682,2.659,2.659,0,0,1,1.046-1.143,3.051,3.051,0,0,1,1.585-.4,2.887,2.887,0,0,1,2.095.785A3.151,3.151,0,0,1,17.3,9.461l.012.434a3.314,3.314,0,0,1-.814,2.341,2.831,2.831,0,0,1-2.186.882,2.845,2.845,0,0,1-2.188-.879,3.372,3.372,0,0,1-.817-2.391ZM13,9.892a2.37,2.37,0,0,0,.34,1.382,1.221,1.221,0,0,0,1.934.006,2.593,2.593,0,0,0,.346-1.511A2.346,2.346,0,0,0,15.275,8.4a1.124,1.124,0,0,0-.973-.487,1.105,1.105,0,0,0-.961.484A2.637,2.637,0,0,0,13,9.892Zm5.092-.108a3.821,3.821,0,0,1,.665-2.361,2.158,2.158,0,0,1,1.819-.879,1.942,1.942,0,0,1,1.529.691V4h1.7v9H22.277l-.082-.674a1.993,1.993,0,0,1-1.629.791,2.152,2.152,0,0,1-1.8-.882A3.944,3.944,0,0,1,18.094,9.783Zm1.693.126a2.5,2.5,0,0,0,.311,1.367,1.012,1.012,0,0,0,.9.475,1.133,1.133,0,0,0,1.107-.663V8.583a1.117,1.117,0,0,0-1.1-.663Q19.787,7.92,19.787,9.909Zm9.129,2.446a2.124,2.124,0,0,1-1.734.762,2,2,0,0,1-1.556-.586,2.5,2.5,0,0,1-.548-1.717V6.66h1.693v4.1q0,.991.9.991a1.223,1.223,0,0,0,1.184-.6V6.66h1.7V13H28.963Zm5.555-.6a1.111,1.111,0,0,0,.762-.258.9.9,0,0,0,.3-.686h1.588a2.172,2.172,0,0,1-.352,1.181,2.32,2.32,0,0,1-.946.832,2.962,2.962,0,0,1-1.327.3,2.752,2.752,0,0,1-2.145-.864,3.42,3.42,0,0,1-.785-2.388V9.754a3.381,3.381,0,0,1,.779-2.338,2.72,2.72,0,0,1,2.139-.873A2.667,2.667,0,0,1,36.4,7.22a2.4,2.4,0,0,1,.729,1.8H35.537a1.164,1.164,0,0,0-.3-.8,1.132,1.132,0,0,0-1.667.122,2.5,2.5,0,0,0-.3,1.4v.176a2.531,2.531,0,0,0,.3,1.408A1.033,1.033,0,0,0,34.471,11.752Zm6.258,0a1.111,1.111,0,0,0,.762-.258.9.9,0,0,0,.3-.686h1.588a2.172,2.172,0,0,1-.352,1.181,2.32,2.32,0,0,1-.946.832,2.962,2.962,0,0,1-1.327.3,2.752,2.752,0,0,1-2.145-.864,3.42,3.42,0,0,1-.785-2.388V9.754a3.381,3.381,0,0,1,.779-2.338,2.72,2.72,0,0,1,2.139-.873,2.667,2.667,0,0,1,1.907.677,2.4,2.4,0,0,1,.729,1.8H41.795a1.164,1.164,0,0,0-.3-.8,1.132,1.132,0,0,0-1.667.122,2.5,2.5,0,0,0-.3,1.4v.176a2.531,2.531,0,0,0,.3,1.408A1.033,1.033,0,0,0,40.729,11.752ZM46.137,13h-1.7V6.66h1.7Zm-1.8-7.98a.834.834,0,0,1,.255-.627,1.1,1.1,0,0,1,1.386,0,.829.829,0,0,1,.258.627.831.831,0,0,1-.261.633,1.086,1.086,0,0,1-1.377,0A.831.831,0,0,1,44.338,5.02Zm2.93,4.752a3.76,3.76,0,0,1,.363-1.682,2.659,2.659,0,0,1,1.046-1.143,3.051,3.051,0,0,1,1.585-.4,2.887,2.887,0,0,1,2.095.785,3.151,3.151,0,0,1,.905,2.133l.012.434a3.314,3.314,0,0,1-.814,2.341,3.157,3.157,0,0,1-4.374,0,3.372,3.372,0,0,1-.817-2.391Zm1.693.12a2.37,2.37,0,0,0,.34,1.382,1.221,1.221,0,0,0,1.934.006,2.593,2.593,0,0,0,.346-1.511A2.346,2.346,0,0,0,51.234,8.4a1.124,1.124,0,0,0-.973-.487,1.105,1.105,0,0,0-.961.484A2.637,2.637,0,0,0,48.961,9.892ZM50.6,4h1.846L50.818,5.816H49.441Zm5.279,2.66.053.732a2.213,2.213,0,0,1,1.822-.85,1.84,1.84,0,0,1,1.5.592,2.761,2.761,0,0,1,.5,1.77V13H58.061V8.945a1.1,1.1,0,0,0-.234-.782,1.049,1.049,0,0,0-.779-.243,1.165,1.165,0,0,0-1.072.609V13H54.281V6.66Z" transform="translate(0 11)" fill="#02346a"/>
    </g>
    <g id="Grupo_972540" data-name="Grupo 972540" transform="translate(345.87 175.306)">
      <path id="Trazado_698332" data-name="Trazado 698332" d="M5.895-3.7H2.52v2.285H6.48V0H.762V-8.531H6.469v1.424H2.52v2.033H5.895ZM9.621-2.068,10.8-6.34h1.77L10.43,0H8.813L6.674-6.34h1.77ZM16.9,0a1.88,1.88,0,0,1-.17-.568,2.049,2.049,0,0,1-1.6.686,2.251,2.251,0,0,1-1.544-.539,1.734,1.734,0,0,1-.612-1.359,1.792,1.792,0,0,1,.747-1.547,3.686,3.686,0,0,1,2.159-.545h.779v-.363a1.045,1.045,0,0,0-.226-.7.887.887,0,0,0-.712-.264A1.009,1.009,0,0,0,15.05-5a.7.7,0,0,0-.243.563H13.113a1.7,1.7,0,0,1,.34-1.02,2.246,2.246,0,0,1,.961-.735,3.5,3.5,0,0,1,1.395-.267,2.767,2.767,0,0,1,1.86.589,2.06,2.06,0,0,1,.688,1.655v2.748A3.031,3.031,0,0,0,18.609-.1V0ZM15.5-1.178a1.458,1.458,0,0,0,.691-.167,1.1,1.1,0,0,0,.469-.448v-1.09h-.633q-1.271,0-1.354.879l-.006.1a.678.678,0,0,0,.223.521A.865.865,0,0,0,15.5-1.178ZM21.445,0h-1.7V-9h1.7Zm5.191-.645A2.124,2.124,0,0,1,24.9.117a2,2,0,0,1-1.556-.586A2.5,2.5,0,0,1,22.8-2.186V-6.34h1.693v4.1q0,.991.9.991a1.223,1.223,0,0,0,1.184-.6V-6.34h1.7V0H26.684ZM33.229,0a1.88,1.88,0,0,1-.17-.568,2.049,2.049,0,0,1-1.6.686,2.251,2.251,0,0,1-1.544-.539A1.734,1.734,0,0,1,29.3-1.781a1.792,1.792,0,0,1,.747-1.547,3.686,3.686,0,0,1,2.159-.545h.779v-.363a1.045,1.045,0,0,0-.226-.7.887.887,0,0,0-.712-.264A1.009,1.009,0,0,0,31.38-5a.7.7,0,0,0-.243.563H29.443a1.7,1.7,0,0,1,.34-1.02,2.246,2.246,0,0,1,.961-.735,3.5,3.5,0,0,1,1.395-.267A2.767,2.767,0,0,1,34-5.868a2.06,2.06,0,0,1,.688,1.655v2.748A3.031,3.031,0,0,0,34.939-.1V0Zm-1.4-1.178a1.458,1.458,0,0,0,.691-.167,1.1,1.1,0,0,0,.469-.448v-1.09h-.633Q31.084-2.883,31-2L31-1.9a.678.678,0,0,0,.223.521A.865.865,0,0,0,31.828-1.178Zm6.8-.07a1.111,1.111,0,0,0,.762-.258.9.9,0,0,0,.3-.686h1.588a2.172,2.172,0,0,1-.352,1.181,2.32,2.32,0,0,1-.946.832,2.962,2.962,0,0,1-1.327.3A2.752,2.752,0,0,1,36.51-.747a3.42,3.42,0,0,1-.785-2.388v-.111A3.381,3.381,0,0,1,36.5-5.584a2.72,2.72,0,0,1,2.139-.873,2.667,2.667,0,0,1,1.907.677,2.4,2.4,0,0,1,.729,1.8H39.691a1.164,1.164,0,0,0-.3-.8,1.016,1.016,0,0,0-.773-.309,1.02,1.02,0,0,0-.894.431,2.5,2.5,0,0,0-.3,1.4v.176a2.531,2.531,0,0,0,.3,1.408A1.033,1.033,0,0,0,38.625-1.248ZM44.033,0h-1.7V-6.34h1.7Zm-1.8-7.98a.834.834,0,0,1,.255-.627.958.958,0,0,1,.694-.246.96.96,0,0,1,.691.246.829.829,0,0,1,.258.627.831.831,0,0,1-.261.633.962.962,0,0,1-.688.246.962.962,0,0,1-.688-.246A.831.831,0,0,1,42.234-7.98Zm2.93,4.752a3.76,3.76,0,0,1,.363-1.682,2.659,2.659,0,0,1,1.046-1.143,3.051,3.051,0,0,1,1.585-.4,2.887,2.887,0,0,1,2.095.785,3.151,3.151,0,0,1,.905,2.133l.012.434a3.314,3.314,0,0,1-.814,2.341A2.831,2.831,0,0,1,48.17.117a2.845,2.845,0,0,1-2.188-.879,3.372,3.372,0,0,1-.817-2.391Zm1.693.12a2.37,2.37,0,0,0,.34,1.382,1.121,1.121,0,0,0,.973.478,1.124,1.124,0,0,0,.961-.472,2.593,2.593,0,0,0,.346-1.511A2.346,2.346,0,0,0,49.131-4.6a1.124,1.124,0,0,0-.973-.487,1.105,1.105,0,0,0-.961.484A2.637,2.637,0,0,0,46.857-3.108ZM48.492-9h1.846L48.715-7.184H47.338Zm5.279,2.66.053.732a2.213,2.213,0,0,1,1.822-.85,1.84,1.84,0,0,1,1.5.592,2.761,2.761,0,0,1,.5,1.77V0H55.957V-4.055a1.1,1.1,0,0,0-.234-.782,1.049,1.049,0,0,0-.779-.243,1.165,1.165,0,0,0-1.072.609V0H52.178V-6.34ZM3.375,9.783A3.821,3.821,0,0,1,4.04,7.422a2.158,2.158,0,0,1,1.819-.879,1.942,1.942,0,0,1,1.529.691V4h1.7v9H7.559l-.082-.674a1.993,1.993,0,0,1-1.629.791,2.152,2.152,0,0,1-1.8-.882A3.944,3.944,0,0,1,3.375,9.783Zm1.693.126a2.5,2.5,0,0,0,.311,1.367,1.012,1.012,0,0,0,.9.475,1.133,1.133,0,0,0,1.107-.663V8.583a1.117,1.117,0,0,0-1.1-.663Q5.068,7.92,5.068,9.909Zm8.25,3.208a3.112,3.112,0,0,1-2.271-.855,3.041,3.041,0,0,1-.876-2.279V9.818a3.83,3.83,0,0,1,.369-1.708,2.709,2.709,0,0,1,1.046-1.16,2.936,2.936,0,0,1,1.544-.407,2.631,2.631,0,0,1,2.048.82,3.333,3.333,0,0,1,.747,2.326v.691H11.889a1.573,1.573,0,0,0,.5,1,1.5,1.5,0,0,0,1.046.375,1.828,1.828,0,0,0,1.529-.709l.832.932a2.542,2.542,0,0,1-1.031.841A3.383,3.383,0,0,1,13.318,13.117Zm-.193-5.209a1.058,1.058,0,0,0-.817.341,1.768,1.768,0,0,0-.4.977h2.355V9.091a1.261,1.261,0,0,0-.3-.874A1.092,1.092,0,0,0,13.125,7.908Zm6.486,1.875a3.821,3.821,0,0,1,.665-2.361A2.158,2.158,0,0,1,22.1,6.543a1.942,1.942,0,0,1,1.529.691V4h1.7v9H23.795l-.082-.674a1.993,1.993,0,0,1-1.629.791,2.152,2.152,0,0,1-1.8-.882A3.944,3.944,0,0,1,19.611,9.783Zm1.693.126a2.5,2.5,0,0,0,.311,1.367,1.012,1.012,0,0,0,.9.475,1.133,1.133,0,0,0,1.107-.663V8.583a1.117,1.117,0,0,0-1.1-.663Q21.3,7.92,21.3,9.909ZM28.424,13h-1.7V6.66h1.7Zm-1.8-7.98a.834.834,0,0,1,.255-.627,1.1,1.1,0,0,1,1.386,0,.829.829,0,0,1,.258.627.831.831,0,0,1-.261.633,1.086,1.086,0,0,1-1.377,0A.831.831,0,0,1,26.625,5.02Zm6.627,6.229a.546.546,0,0,0-.308-.489,3.494,3.494,0,0,0-.987-.319Q29.7,9.965,29.7,8.518a1.742,1.742,0,0,1,.7-1.409,2.825,2.825,0,0,1,1.831-.565,3.04,3.04,0,0,1,1.931.568,1.791,1.791,0,0,1,.724,1.477H33.188a.819.819,0,0,0-.234-.6.992.992,0,0,0-.732-.237,1.013,1.013,0,0,0-.662.193.61.61,0,0,0-.234.492.522.522,0,0,0,.267.454,2.743,2.743,0,0,0,.9.3,7.346,7.346,0,0,1,1.066.284A1.752,1.752,0,0,1,34.9,11.178a1.654,1.654,0,0,1-.744,1.4,3.21,3.21,0,0,1-1.922.536,3.353,3.353,0,0,1-1.415-.284,2.374,2.374,0,0,1-.97-.779,1.811,1.811,0,0,1-.352-1.069H31.1a.884.884,0,0,0,.334.691,1.325,1.325,0,0,0,.832.24A1.226,1.226,0,0,0,33,11.731.574.574,0,0,0,33.252,11.248Zm5.654,1.869a3.112,3.112,0,0,1-2.271-.855,3.041,3.041,0,0,1-.876-2.279V9.818a3.83,3.83,0,0,1,.369-1.708,2.709,2.709,0,0,1,1.046-1.16,2.936,2.936,0,0,1,1.544-.407,2.631,2.631,0,0,1,2.048.82,3.333,3.333,0,0,1,.747,2.326v.691H37.477a1.573,1.573,0,0,0,.5,1,1.5,1.5,0,0,0,1.046.375,1.828,1.828,0,0,0,1.529-.709l.832.932a2.542,2.542,0,0,1-1.031.841A3.383,3.383,0,0,1,38.906,13.117Zm-.193-5.209a1.058,1.058,0,0,0-.817.341,1.768,1.768,0,0,0-.4.977H39.85V9.091a1.261,1.261,0,0,0-.3-.874A1.092,1.092,0,0,0,38.713,7.908Zm5.32-1.248.053.732a2.213,2.213,0,0,1,1.822-.85,1.84,1.84,0,0,1,1.5.592,2.761,2.761,0,0,1,.5,1.77V13H46.219V8.945a1.1,1.1,0,0,0-.234-.782,1.049,1.049,0,0,0-.779-.243,1.165,1.165,0,0,0-1.072.609V13H42.439V6.66ZM47.4,4.076a1.64,1.64,0,0,1-.387,1.11,1.2,1.2,0,0,1-.943.448,1.431,1.431,0,0,1-.4-.05,2.654,2.654,0,0,1-.478-.214,2.576,2.576,0,0,0-.439-.2,1.074,1.074,0,0,0-.293-.038.47.47,0,0,0-.349.146.57.57,0,0,0-.144.416l-.984-.059a1.665,1.665,0,0,1,.384-1.107,1.184,1.184,0,0,1,.94-.457,1.211,1.211,0,0,1,.331.044,3.645,3.645,0,0,1,.507.214,3.294,3.294,0,0,0,.486.205,1.11,1.11,0,0,0,.281.035.494.494,0,0,0,.354-.144.546.546,0,0,0,.149-.413Zm1.535,5.7a3.76,3.76,0,0,1,.363-1.682,2.659,2.659,0,0,1,1.046-1.143,3.051,3.051,0,0,1,1.585-.4,2.887,2.887,0,0,1,2.095.785,3.151,3.151,0,0,1,.905,2.133l.012.434a3.314,3.314,0,0,1-.814,2.341,3.157,3.157,0,0,1-4.374,0,3.372,3.372,0,0,1-.817-2.391Zm1.693.12a2.37,2.37,0,0,0,.34,1.382,1.221,1.221,0,0,0,1.934.006,2.593,2.593,0,0,0,.346-1.511A2.346,2.346,0,0,0,52.9,8.4a1.124,1.124,0,0,0-.973-.487,1.105,1.105,0,0,0-.961.484A2.637,2.637,0,0,0,50.625,9.892Z" transform="translate(0 11)" fill="#02346a"/>
    </g>
    <g id="Grupo_972541" data-name="Grupo 972541" transform="translate(219.195 298.856)">
      <path id="Trazado_698335" data-name="Trazado 698335" d="M5.895-3.7H2.52v2.285H6.48V0H.762V-8.531H6.469v1.424H2.52v2.033H5.895ZM9.621-2.068,10.8-6.34h1.77L10.43,0H8.813L6.674-6.34h1.77ZM16.9,0a1.88,1.88,0,0,1-.17-.568,2.049,2.049,0,0,1-1.6.686,2.251,2.251,0,0,1-1.544-.539,1.734,1.734,0,0,1-.612-1.359,1.792,1.792,0,0,1,.747-1.547,3.686,3.686,0,0,1,2.159-.545h.779v-.363a1.045,1.045,0,0,0-.226-.7.887.887,0,0,0-.712-.264A1.009,1.009,0,0,0,15.05-5a.7.7,0,0,0-.243.563H13.113a1.7,1.7,0,0,1,.34-1.02,2.246,2.246,0,0,1,.961-.735,3.5,3.5,0,0,1,1.395-.267,2.767,2.767,0,0,1,1.86.589,2.06,2.06,0,0,1,.688,1.655v2.748A3.031,3.031,0,0,0,18.609-.1V0ZM15.5-1.178a1.458,1.458,0,0,0,.691-.167,1.1,1.1,0,0,0,.469-.448v-1.09h-.633q-1.271,0-1.354.879l-.006.1a.678.678,0,0,0,.223.521A.865.865,0,0,0,15.5-1.178ZM21.445,0h-1.7V-9h1.7Zm5.191-.645A2.124,2.124,0,0,1,24.9.117a2,2,0,0,1-1.556-.586A2.5,2.5,0,0,1,22.8-2.186V-6.34h1.693v4.1q0,.991.9.991a1.223,1.223,0,0,0,1.184-.6V-6.34h1.7V0H26.684ZM33.229,0a1.88,1.88,0,0,1-.17-.568,2.049,2.049,0,0,1-1.6.686,2.251,2.251,0,0,1-1.544-.539A1.734,1.734,0,0,1,29.3-1.781a1.792,1.792,0,0,1,.747-1.547,3.686,3.686,0,0,1,2.159-.545h.779v-.363a1.045,1.045,0,0,0-.226-.7.887.887,0,0,0-.712-.264A1.009,1.009,0,0,0,31.38-5a.7.7,0,0,0-.243.563H29.443a1.7,1.7,0,0,1,.34-1.02,2.246,2.246,0,0,1,.961-.735,3.5,3.5,0,0,1,1.395-.267A2.767,2.767,0,0,1,34-5.868a2.06,2.06,0,0,1,.688,1.655v2.748A3.031,3.031,0,0,0,34.939-.1V0Zm-1.4-1.178a1.458,1.458,0,0,0,.691-.167,1.1,1.1,0,0,0,.469-.448v-1.09h-.633Q31.084-2.883,31-2L31-1.9a.678.678,0,0,0,.223.521A.865.865,0,0,0,31.828-1.178Zm6.8-.07a1.111,1.111,0,0,0,.762-.258.9.9,0,0,0,.3-.686h1.588a2.172,2.172,0,0,1-.352,1.181,2.32,2.32,0,0,1-.946.832,2.962,2.962,0,0,1-1.327.3A2.752,2.752,0,0,1,36.51-.747a3.42,3.42,0,0,1-.785-2.388v-.111A3.381,3.381,0,0,1,36.5-5.584a2.72,2.72,0,0,1,2.139-.873,2.667,2.667,0,0,1,1.907.677,2.4,2.4,0,0,1,.729,1.8H39.691a1.164,1.164,0,0,0-.3-.8,1.016,1.016,0,0,0-.773-.309,1.02,1.02,0,0,0-.894.431,2.5,2.5,0,0,0-.3,1.4v.176a2.531,2.531,0,0,0,.3,1.408A1.033,1.033,0,0,0,38.625-1.248ZM44.033,0h-1.7V-6.34h1.7Zm-1.8-7.98a.834.834,0,0,1,.255-.627.958.958,0,0,1,.694-.246.96.96,0,0,1,.691.246.829.829,0,0,1,.258.627.831.831,0,0,1-.261.633.962.962,0,0,1-.688.246.962.962,0,0,1-.688-.246A.831.831,0,0,1,42.234-7.98Zm2.93,4.752a3.76,3.76,0,0,1,.363-1.682,2.659,2.659,0,0,1,1.046-1.143,3.051,3.051,0,0,1,1.585-.4,2.887,2.887,0,0,1,2.095.785,3.151,3.151,0,0,1,.905,2.133l.012.434a3.314,3.314,0,0,1-.814,2.341A2.831,2.831,0,0,1,48.17.117a2.845,2.845,0,0,1-2.188-.879,3.372,3.372,0,0,1-.817-2.391Zm1.693.12a2.37,2.37,0,0,0,.34,1.382,1.121,1.121,0,0,0,.973.478,1.124,1.124,0,0,0,.961-.472,2.593,2.593,0,0,0,.346-1.511A2.346,2.346,0,0,0,49.131-4.6a1.124,1.124,0,0,0-.973-.487,1.105,1.105,0,0,0-.961.484A2.637,2.637,0,0,0,46.857-3.108ZM48.492-9h1.846L48.715-7.184H47.338Zm5.279,2.66.053.732a2.213,2.213,0,0,1,1.822-.85,1.84,1.84,0,0,1,1.5.592,2.761,2.761,0,0,1,.5,1.77V0H55.957V-4.055a1.1,1.1,0,0,0-.234-.782,1.049,1.049,0,0,0-.779-.243,1.165,1.165,0,0,0-1.072.609V0H52.178V-6.34ZM3.393,9.783a3.716,3.716,0,0,1,.694-2.35,2.25,2.25,0,0,1,1.872-.891,1.973,1.973,0,0,1,1.623.715l.07-.6H9.188v6.129a2.71,2.71,0,0,1-.378,1.447,2.427,2.427,0,0,1-1.063.938,3.739,3.739,0,0,1-1.605.322,3.476,3.476,0,0,1-1.359-.278,2.413,2.413,0,0,1-1-.718l.75-1.031a1.984,1.984,0,0,0,1.535.709,1.452,1.452,0,0,0,1.049-.36,1.352,1.352,0,0,0,.375-1.022v-.34a1.959,1.959,0,0,1-1.541.662A2.244,2.244,0,0,1,4.1,12.224a3.715,3.715,0,0,1-.706-2.37Zm1.693.126a2.314,2.314,0,0,0,.346,1.353,1.1,1.1,0,0,0,.949.49,1.176,1.176,0,0,0,1.107-.581V8.5a1.173,1.173,0,0,0-1.1-.581,1.107,1.107,0,0,0-.958.5A2.608,2.608,0,0,0,5.086,9.909ZM12.275,13h-1.7V4h1.7Zm1.131-3.229A3.76,3.76,0,0,1,13.77,8.09a2.659,2.659,0,0,1,1.046-1.143,3.051,3.051,0,0,1,1.585-.4,2.887,2.887,0,0,1,2.095.785A3.151,3.151,0,0,1,19.4,9.461l.012.434a3.314,3.314,0,0,1-.814,2.341,2.831,2.831,0,0,1-2.186.882,2.845,2.845,0,0,1-2.188-.879,3.372,3.372,0,0,1-.817-2.391Zm1.693.12a2.37,2.37,0,0,0,.34,1.382,1.221,1.221,0,0,0,1.934.006,2.593,2.593,0,0,0,.346-1.511A2.346,2.346,0,0,0,17.373,8.4a1.124,1.124,0,0,0-.973-.487,1.105,1.105,0,0,0-.961.484A2.637,2.637,0,0,0,15.1,9.892Zm11.068,0a3.839,3.839,0,0,1-.65,2.376,2.154,2.154,0,0,1-1.816.853,1.979,1.979,0,0,1-1.646-.791L21.979,13H20.455V4h1.693V7.229a1.929,1.929,0,0,1,1.541-.686,2.172,2.172,0,0,1,1.819.853,3.845,3.845,0,0,1,.659,2.4Zm-1.693-.123a2.522,2.522,0,0,0-.3-1.4,1.03,1.03,0,0,0-.908-.442,1.117,1.117,0,0,0-1.113.662v2.5a1.132,1.132,0,0,0,1.125.668,1.045,1.045,0,0,0,1.078-.809A4.171,4.171,0,0,0,24.475,9.766ZM30.885,13a1.88,1.88,0,0,1-.17-.568,2.049,2.049,0,0,1-1.6.686,2.251,2.251,0,0,1-1.544-.539,1.734,1.734,0,0,1-.612-1.359,1.792,1.792,0,0,1,.747-1.547,3.686,3.686,0,0,1,2.159-.545h.779V8.764a1.045,1.045,0,0,0-.226-.7.887.887,0,0,0-.712-.264A1.009,1.009,0,0,0,29.036,8a.7.7,0,0,0-.243.563H27.1a1.7,1.7,0,0,1,.34-1.02A2.246,2.246,0,0,1,28.4,6.81a3.5,3.5,0,0,1,1.395-.267,2.767,2.767,0,0,1,1.86.589,2.06,2.06,0,0,1,.688,1.655v2.748A3.031,3.031,0,0,0,32.6,12.9V13Zm-1.4-1.178a1.458,1.458,0,0,0,.691-.167,1.1,1.1,0,0,0,.469-.448v-1.09h-.633q-1.271,0-1.354.879l-.006.1a.678.678,0,0,0,.223.521A.865.865,0,0,0,29.484,11.822ZM35.432,13h-1.7V4h1.7Z" transform="translate(0 11)" fill="#02346a"/>
    </g>
    <g id="Grupo_972542" data-name="Grupo 972542" transform="translate(495.078 175.306)">
      <g id="Grupo-2" data-name="Grupo">
        <path id="Trazado_698331" data-name="Trazado 698331" d="M2.52-3.006V0H.762V-8.531H4.09a3.85,3.85,0,0,1,1.69.352,2.591,2.591,0,0,1,1.122,1,2.786,2.786,0,0,1,.393,1.474,2.45,2.45,0,0,1-.858,1.978,3.575,3.575,0,0,1-2.376.724Zm0-1.424H4.09a1.544,1.544,0,0,0,1.063-.328A1.193,1.193,0,0,0,5.52-5.7,1.407,1.407,0,0,0,5.15-6.709a1.379,1.379,0,0,0-1.02-.4H2.52Zm9.434-.322a4.6,4.6,0,0,0-.609-.047,1.24,1.24,0,0,0-1.26.65V0H8.391V-6.34h1.6l.047.756a1.569,1.569,0,0,1,1.412-.873,1.774,1.774,0,0,1,.527.076Zm.34,1.523a3.76,3.76,0,0,1,.363-1.682A2.659,2.659,0,0,1,13.7-6.053a3.051,3.051,0,0,1,1.585-.4,2.887,2.887,0,0,1,2.095.785,3.151,3.151,0,0,1,.905,2.133l.012.434a3.314,3.314,0,0,1-.814,2.341A2.831,2.831,0,0,1,15.3.117,2.845,2.845,0,0,1,13.11-.762a3.372,3.372,0,0,1-.817-2.391Zm1.693.12a2.37,2.37,0,0,0,.34,1.382,1.121,1.121,0,0,0,.973.478,1.124,1.124,0,0,0,.961-.472,2.593,2.593,0,0,0,.346-1.511A2.346,2.346,0,0,0,16.26-4.6a1.124,1.124,0,0,0-.973-.487,1.105,1.105,0,0,0-.961.484A2.637,2.637,0,0,0,13.986-3.108Zm5.092-.108a3.821,3.821,0,0,1,.665-2.361,2.158,2.158,0,0,1,1.819-.879,1.942,1.942,0,0,1,1.529.691V-9h1.7V0H23.262L23.18-.674a1.993,1.993,0,0,1-1.629.791,2.152,2.152,0,0,1-1.8-.882A3.944,3.944,0,0,1,19.078-3.217Zm1.693.126a2.5,2.5,0,0,0,.311,1.367,1.012,1.012,0,0,0,.9.475,1.133,1.133,0,0,0,1.107-.663V-4.417A1.117,1.117,0,0,0,22-5.08Q20.771-5.08,20.771-3.091ZM29.9-.645a2.124,2.124,0,0,1-1.734.762A2,2,0,0,1,26.61-.469a2.5,2.5,0,0,1-.548-1.717V-6.34h1.693v4.1q0,.991.9.991a1.223,1.223,0,0,0,1.184-.6V-6.34h1.7V0H29.947Zm5.555-.6a1.111,1.111,0,0,0,.762-.258.9.9,0,0,0,.3-.686h1.588a2.172,2.172,0,0,1-.352,1.181,2.32,2.32,0,0,1-.946.832,2.962,2.962,0,0,1-1.327.3A2.752,2.752,0,0,1,33.34-.747a3.42,3.42,0,0,1-.785-2.388v-.111a3.381,3.381,0,0,1,.779-2.338,2.72,2.72,0,0,1,2.139-.873,2.667,2.667,0,0,1,1.907.677,2.4,2.4,0,0,1,.729,1.8H36.521a1.164,1.164,0,0,0-.3-.8,1.016,1.016,0,0,0-.773-.309,1.02,1.02,0,0,0-.894.431,2.5,2.5,0,0,0-.3,1.4v.176a2.531,2.531,0,0,0,.3,1.408A1.033,1.033,0,0,0,35.455-1.248Zm6.258,0a1.111,1.111,0,0,0,.762-.258.9.9,0,0,0,.3-.686h1.588a2.172,2.172,0,0,1-.352,1.181,2.32,2.32,0,0,1-.946.832,2.962,2.962,0,0,1-1.327.3A2.752,2.752,0,0,1,39.6-.747a3.42,3.42,0,0,1-.785-2.388v-.111a3.381,3.381,0,0,1,.779-2.338,2.72,2.72,0,0,1,2.139-.873,2.667,2.667,0,0,1,1.907.677,2.4,2.4,0,0,1,.729,1.8H42.779a1.164,1.164,0,0,0-.3-.8,1.016,1.016,0,0,0-.773-.309,1.02,1.02,0,0,0-.894.431,2.5,2.5,0,0,0-.3,1.4v.176a2.531,2.531,0,0,0,.3,1.408A1.033,1.033,0,0,0,41.713-1.248ZM47.121,0h-1.7V-6.34h1.7Zm-1.8-7.98a.834.834,0,0,1,.255-.627.958.958,0,0,1,.694-.246.96.96,0,0,1,.691.246.829.829,0,0,1,.258.627.831.831,0,0,1-.261.633.962.962,0,0,1-.688.246.962.962,0,0,1-.688-.246A.831.831,0,0,1,45.322-7.98Zm2.93,4.752a3.76,3.76,0,0,1,.363-1.682,2.659,2.659,0,0,1,1.046-1.143,3.051,3.051,0,0,1,1.585-.4,2.887,2.887,0,0,1,2.095.785,3.151,3.151,0,0,1,.905,2.133l.012.434a3.314,3.314,0,0,1-.814,2.341,2.831,2.831,0,0,1-2.186.882,2.845,2.845,0,0,1-2.188-.879,3.372,3.372,0,0,1-.817-2.391Zm1.693.12a2.37,2.37,0,0,0,.34,1.382,1.121,1.121,0,0,0,.973.478,1.124,1.124,0,0,0,.961-.472,2.593,2.593,0,0,0,.346-1.511A2.346,2.346,0,0,0,52.219-4.6a1.124,1.124,0,0,0-.973-.487,1.105,1.105,0,0,0-.961.484A2.637,2.637,0,0,0,49.945-3.108ZM51.58-9h1.846L51.8-7.184H50.426Zm5.279,2.66.053.732a2.213,2.213,0,0,1,1.822-.85,1.84,1.84,0,0,1,1.5.592,2.761,2.761,0,0,1,.5,1.77V0H59.045V-4.055a1.1,1.1,0,0,0-.234-.782,1.049,1.049,0,0,0-.779-.243,1.165,1.165,0,0,0-1.072.609V0H55.266V-6.34Z" transform="translate(0 11)" fill="#02346a"/>
        <path id="Trazado_698330" data-name="Trazado 698330" d="M.387-3.217a3.821,3.821,0,0,1,.665-2.361,2.158,2.158,0,0,1,1.819-.879A1.942,1.942,0,0,1,4.4-5.766V-9H6.1V0H4.57L4.488-.674A1.993,1.993,0,0,1,2.859.117a2.152,2.152,0,0,1-1.8-.882A3.944,3.944,0,0,1,.387-3.217Zm1.693.126a2.5,2.5,0,0,0,.311,1.367,1.012,1.012,0,0,0,.9.475A1.133,1.133,0,0,0,4.4-1.911V-4.417A1.117,1.117,0,0,0,3.3-5.08Q2.08-5.08,2.08-3.091ZM10.33.117A3.112,3.112,0,0,1,8.06-.738a3.041,3.041,0,0,1-.876-2.279v-.164A3.83,3.83,0,0,1,7.553-4.89,2.709,2.709,0,0,1,8.6-6.05a2.936,2.936,0,0,1,1.544-.407,2.631,2.631,0,0,1,2.048.82,3.333,3.333,0,0,1,.747,2.326v.691H8.9a1.573,1.573,0,0,0,.5,1,1.5,1.5,0,0,0,1.046.375,1.828,1.828,0,0,0,1.529-.709l.832.932a2.542,2.542,0,0,1-1.031.841A3.383,3.383,0,0,1,10.33.117Zm-.193-5.209a1.058,1.058,0,0,0-.817.341,1.768,1.768,0,0,0-.4.977h2.355v-.135a1.261,1.261,0,0,0-.3-.874A1.092,1.092,0,0,0,10.137-5.092Zm12.457,1.98a3.8,3.8,0,0,1-.665,2.347,2.132,2.132,0,0,1-1.8.882A1.975,1.975,0,0,1,18.58-.551V2.438H16.887V-6.34h1.57l.059.621a1.99,1.99,0,0,1,1.605-.738,2.147,2.147,0,0,1,1.822.867,3.905,3.905,0,0,1,.65,2.391ZM20.9-3.234A2.5,2.5,0,0,0,20.587-4.6a1.021,1.021,0,0,0-.911-.48,1.109,1.109,0,0,0-1.1.609v2.6a1.128,1.128,0,0,0,1.107.627Q20.9-1.248,20.9-3.234Zm6.3-1.518A4.6,4.6,0,0,0,26.6-4.8a1.24,1.24,0,0,0-1.26.65V0H23.643V-6.34h1.6l.047.756A1.569,1.569,0,0,1,26.7-6.457a1.774,1.774,0,0,1,.527.076ZM31.816-.645a2.124,2.124,0,0,1-1.734.762,2,2,0,0,1-1.556-.586,2.5,2.5,0,0,1-.548-1.717V-6.34h1.693v4.1q0,.991.9.991a1.223,1.223,0,0,0,1.184-.6V-6.34h1.7V0H31.863Zm5.836.762a3.112,3.112,0,0,1-2.271-.855,3.041,3.041,0,0,1-.876-2.279v-.164a3.83,3.83,0,0,1,.369-1.708,2.709,2.709,0,0,1,1.046-1.16,2.936,2.936,0,0,1,1.544-.407,2.631,2.631,0,0,1,2.048.82,3.333,3.333,0,0,1,.747,2.326v.691H36.223a1.573,1.573,0,0,0,.5,1,1.5,1.5,0,0,0,1.046.375,1.828,1.828,0,0,0,1.529-.709l.832.932a2.542,2.542,0,0,1-1.031.841A3.383,3.383,0,0,1,37.652.117Zm-.193-5.209a1.058,1.058,0,0,0-.817.341,1.768,1.768,0,0,0-.4.977H38.6v-.135a1.261,1.261,0,0,0-.3-.874A1.092,1.092,0,0,0,37.459-5.092Zm9.475,1.98a3.839,3.839,0,0,1-.65,2.376,2.154,2.154,0,0,1-1.816.853A1.979,1.979,0,0,1,42.82-.674L42.744,0H41.221V-9h1.693v3.229a1.929,1.929,0,0,1,1.541-.686,2.172,2.172,0,0,1,1.819.853,3.845,3.845,0,0,1,.659,2.4ZM45.24-3.234a2.522,2.522,0,0,0-.3-1.4,1.03,1.03,0,0,0-.908-.442,1.117,1.117,0,0,0-1.113.662v2.5a1.132,1.132,0,0,0,1.125.668,1.045,1.045,0,0,0,1.078-.809A4.171,4.171,0,0,0,45.24-3.234ZM51.65,0a1.88,1.88,0,0,1-.17-.568,2.049,2.049,0,0,1-1.6.686,2.251,2.251,0,0,1-1.544-.539,1.734,1.734,0,0,1-.612-1.359,1.792,1.792,0,0,1,.747-1.547,3.686,3.686,0,0,1,2.159-.545h.779v-.363a1.045,1.045,0,0,0-.226-.7.887.887,0,0,0-.712-.264A1.009,1.009,0,0,0,49.8-5a.7.7,0,0,0-.243.563H47.865a1.7,1.7,0,0,1,.34-1.02,2.246,2.246,0,0,1,.961-.735,3.5,3.5,0,0,1,1.395-.267,2.767,2.767,0,0,1,1.86.589,2.06,2.06,0,0,1,.688,1.655v2.748A3.031,3.031,0,0,0,53.361-.1V0Zm-1.4-1.178a1.458,1.458,0,0,0,.691-.167,1.1,1.1,0,0,0,.469-.448v-1.09h-.633q-1.271,0-1.354.879l-.006.1a.678.678,0,0,0,.223.521A.865.865,0,0,0,50.25-1.178Z" transform="translate(5.707 24.831)" fill="#02346a"/>
      </g>
    </g>
    <g id="Grupo_972543" data-name="Grupo 972543" transform="translate(63.012 304.187)">
      <path id="Trazado_698334" data-name="Trazado 698334" d="M2.52-3.006V0H.762V-8.531H4.09a3.85,3.85,0,0,1,1.69.352,2.591,2.591,0,0,1,1.122,1,2.786,2.786,0,0,1,.393,1.474,2.45,2.45,0,0,1-.858,1.978,3.575,3.575,0,0,1-2.376.724Zm0-1.424H4.09a1.544,1.544,0,0,0,1.063-.328A1.193,1.193,0,0,0,5.52-5.7,1.407,1.407,0,0,0,5.15-6.709a1.379,1.379,0,0,0-1.02-.4H2.52Zm9.434-.322a4.6,4.6,0,0,0-.609-.047,1.24,1.24,0,0,0-1.26.65V0H8.391V-6.34h1.6l.047.756a1.569,1.569,0,0,1,1.412-.873,1.774,1.774,0,0,1,.527.076ZM16.564-.645A2.124,2.124,0,0,1,14.83.117a2,2,0,0,1-1.556-.586,2.5,2.5,0,0,1-.548-1.717V-6.34H14.42v4.1q0,.991.9.991a1.223,1.223,0,0,0,1.184-.6V-6.34h1.7V0H16.611ZM22.4.117A3.112,3.112,0,0,1,20.13-.738a3.041,3.041,0,0,1-.876-2.279v-.164a3.83,3.83,0,0,1,.369-1.708,2.709,2.709,0,0,1,1.046-1.16,2.936,2.936,0,0,1,1.544-.407,2.631,2.631,0,0,1,2.048.82,3.333,3.333,0,0,1,.747,2.326v.691H20.971a1.573,1.573,0,0,0,.5,1,1.5,1.5,0,0,0,1.046.375,1.828,1.828,0,0,0,1.529-.709l.832.932a2.542,2.542,0,0,1-1.031.841A3.383,3.383,0,0,1,22.4.117Zm-.193-5.209a1.058,1.058,0,0,0-.817.341,1.768,1.768,0,0,0-.4.977h2.355v-.135a1.261,1.261,0,0,0-.3-.874A1.092,1.092,0,0,0,22.207-5.092Zm9.475,1.98a3.839,3.839,0,0,1-.65,2.376,2.154,2.154,0,0,1-1.816.853,1.979,1.979,0,0,1-1.646-.791L27.492,0H25.969V-9h1.693v3.229A1.929,1.929,0,0,1,29.2-6.457a2.172,2.172,0,0,1,1.819.853,3.845,3.845,0,0,1,.659,2.4Zm-1.693-.123a2.522,2.522,0,0,0-.3-1.4,1.03,1.03,0,0,0-.908-.442,1.117,1.117,0,0,0-1.113.662v2.5a1.132,1.132,0,0,0,1.125.668,1.045,1.045,0,0,0,1.078-.809A4.171,4.171,0,0,0,29.988-3.234ZM36.4,0a1.88,1.88,0,0,1-.17-.568,2.049,2.049,0,0,1-1.6.686,2.251,2.251,0,0,1-1.544-.539,1.734,1.734,0,0,1-.612-1.359,1.792,1.792,0,0,1,.747-1.547,3.686,3.686,0,0,1,2.159-.545h.779v-.363a1.045,1.045,0,0,0-.226-.7.887.887,0,0,0-.712-.264A1.009,1.009,0,0,0,34.55-5a.7.7,0,0,0-.243.563H32.613a1.7,1.7,0,0,1,.34-1.02,2.246,2.246,0,0,1,.961-.735,3.5,3.5,0,0,1,1.395-.267,2.767,2.767,0,0,1,1.86.589,2.06,2.06,0,0,1,.688,1.655v2.748A3.031,3.031,0,0,0,38.109-.1V0ZM35-1.178a1.458,1.458,0,0,0,.691-.167,1.1,1.1,0,0,0,.469-.448v-1.09h-.633q-1.271,0-1.354.879l-.006.1a.678.678,0,0,0,.223.521A.865.865,0,0,0,35-1.178Z" transform="translate(0 11)" fill="#02346a"/>
    </g>
    <g id="Grupo_972544" data-name="Grupo 972544" transform="translate(526.284 304.128)">
      <path id="Trazado_698337" data-name="Trazado 698337" d="M5.895-3.486H2.52V0H.762V-8.531H6.316v1.424H2.52v2.2H5.895ZM9.012,0h-1.7V-6.34h1.7Zm-1.8-7.98a.834.834,0,0,1,.255-.627.958.958,0,0,1,.694-.246.96.96,0,0,1,.691.246.829.829,0,0,1,.258.627.831.831,0,0,1-.261.633.962.962,0,0,1-.688.246.962.962,0,0,1-.688-.246A.831.831,0,0,1,7.213-7.98ZM11.965-6.34l.053.732a2.213,2.213,0,0,1,1.822-.85,1.84,1.84,0,0,1,1.5.592,2.761,2.761,0,0,1,.5,1.77V0H14.15V-4.055a1.1,1.1,0,0,0-.234-.782,1.049,1.049,0,0,0-.779-.243,1.165,1.165,0,0,0-1.072.609V0H10.371V-6.34Z" transform="translate(0 11)" fill="#02346a"/>
    </g>
    <path id="Trazado_696838" data-name="Trazado 696838" d="M509.079,167.794v40.57H69.278" transform="translate(18.528 44.811)" fill="none" stroke="#5b9992" stroke-miterlimit="10" stroke-width="2"/>
    <rect id="Rectángulo_339113" data-name="Rectángulo 339113" width="264.529" height="18.761" transform="translate(172.551 9.111)" fill="#5b9992" opacity="0.2"/>
  </g>
</svg>
