<svg id="Grupo_973801" data-name="Grupo 973801" xmlns="http://www.w3.org/2000/svg" xmlns:xlink="http://www.w3.org/1999/xlink" width="468.702" height="307.43" viewBox="0 0 468.702 307.43">
  <defs>
    <clipPath id="clip-path">
      <rect id="Rectángulo_339789" data-name="Rectángulo 339789" width="468.702" height="307.43" fill="none"/>
    </clipPath>
    <clipPath id="clip-path-2">
      <path id="Trazado_699224" data-name="Trazado 699224" d="M0,0H468.7V307.43H0Z" fill="none"/>
    </clipPath>
  </defs>
  <g id="Grupo_973796" data-name="Grupo 973796">
    <g id="Grupo_973795" data-name="Grupo 973795" clip-path="url(#clip-path)">
      <path id="Trazado_699119" data-name="Trazado 699119" d="M221.554,88.744l-56.018.445c.01.563.044,1.12.044,1.687,0,.4-.027.8-.031,1.207l56.01.482c.007-.563.022-1.123.022-1.689,0-.713-.017-1.422-.027-2.131" transform="translate(115.381 61.856)" fill="#2fa000"/>
      <path id="Trazado_699120" data-name="Trazado 699120" d="M165.6,92.146l56.019-.445q-.051-3.622-.265-7.2l-55.91,3.4c.087,1.407.132,2.822.156,4.243" transform="translate(115.316 58.899)" fill="#fc2a00"/>
      <path id="Trazado_699121" data-name="Trazado 699121" d="M166.824,101.465l55.908-3.4a152.231,152.231,0,0,0-5.663-33.019L163.461,81.4a96.465,96.465,0,0,1,3.363,20.067" transform="translate(113.935 45.337)" fill="#f6ed31"/>
      <path id="Trazado_699122" data-name="Trazado 699122" d="M178.173,114.63l53.61-16.354a152.938,152.938,0,0,0-56.59-80.909L142.354,62.738a96.817,96.817,0,0,1,35.819,51.891" transform="translate(99.223 12.105)" fill="#a9bf0a"/>
      <path id="Trazado_699123" data-name="Trazado 699123" d="M171.292,249.461A96.73,96.73,0,1,1,228.64,74.844l32.839-45.371A152.736,152.736,0,1,0,324,154.422l-56.012-.484a96.715,96.715,0,0,1-96.7,95.523" transform="translate(12.937)" fill="#fcb040"/>
      <path id="Trazado_699124" data-name="Trazado 699124" d="M179.387,49.814l11.879-25.455h12.728" transform="translate(125.035 16.979)" fill="none" stroke="#000" stroke-miterlimit="10" stroke-width="1"/>
      <path id="Trazado_699125" data-name="Trazado 699125" d="M195.887,84.814l11.879-25.455h12.728" transform="translate(136.536 41.374)" fill="none" stroke="#000" stroke-miterlimit="10" stroke-width="1"/>
      <line id="Línea_469" data-name="Línea 469" x2="84.851" transform="translate(333.271 146.553)" fill="none" stroke="#000" stroke-miterlimit="10" stroke-width="1"/>
      <path id="Trazado_699126" data-name="Trazado 699126" d="M216.9,136.432H205.023V90h-7.637" transform="translate(137.582 62.728)" fill="none" stroke="#000" stroke-miterlimit="10" stroke-width="1"/>
    </g>
  </g>
  <path id="Trazado_699208" data-name="Trazado 699208" d="M7.871-2.933A3.4,3.4,0,0,1,6.789-.67a3.547,3.547,0,0,1-2.422.8A3.257,3.257,0,0,1,1.742-1.047,4.724,4.724,0,0,1,.755-4.189v-.889a5.266,5.266,0,0,1,.46-2.266,3.438,3.438,0,0,1,1.3-1.5,3.632,3.632,0,0,1,1.955-.524,3.34,3.34,0,0,1,2.361.822A3.441,3.441,0,0,1,7.871-6.271H6.646a2.655,2.655,0,0,0-.689-1.6,2.084,2.084,0,0,0-1.482-.5,2.181,2.181,0,0,0-1.831.864A3.966,3.966,0,0,0,1.98-5.05v.9a4.077,4.077,0,0,0,.628,2.4A2.031,2.031,0,0,0,4.367-.87a2.345,2.345,0,0,0,1.558-.46,2.554,2.554,0,0,0,.72-1.6ZM13.59,0a2.467,2.467,0,0,1-.165-.724A2.62,2.62,0,0,1,11.47.127,2.424,2.424,0,0,1,9.8-.448,1.859,1.859,0,0,1,9.153-1.9a1.942,1.942,0,0,1,.816-1.666,3.846,3.846,0,0,1,2.295-.594h1.143V-4.7a1.319,1.319,0,0,0-.368-.981,1.48,1.48,0,0,0-1.085-.365,1.712,1.712,0,0,0-1.054.317.935.935,0,0,0-.425.768H9.293a1.621,1.621,0,0,1,.365-.993,2.491,2.491,0,0,1,.99-.759A3.331,3.331,0,0,1,12.022-7a2.715,2.715,0,0,1,1.86.594,2.141,2.141,0,0,1,.7,1.635v3.161a3.865,3.865,0,0,0,.241,1.5V0ZM11.642-.9a2.064,2.064,0,0,0,1.047-.286,1.728,1.728,0,0,0,.717-.743V-3.333h-.92q-2.158,0-2.158,1.263a1.069,1.069,0,0,0,.368.863A1.415,1.415,0,0,0,11.642-.9Zm8.1-4.919a3.519,3.519,0,0,0-.578-.044,1.547,1.547,0,0,0-1.568.984V0H16.421V-6.868h1.143l.019.793A1.829,1.829,0,0,1,19.221-7a1.2,1.2,0,0,1,.521.089Zm4.4,0a3.519,3.519,0,0,0-.578-.044,1.547,1.547,0,0,0-1.568.984V0H20.82V-6.868h1.143l.019.793A1.829,1.829,0,0,1,23.62-7a1.2,1.2,0,0,1,.521.089ZM27.832.127A3,3,0,0,1,25.559-.79a3.4,3.4,0,0,1-.876-2.453v-.216a4.121,4.121,0,0,1,.39-1.825,3.045,3.045,0,0,1,1.092-1.257A2.745,2.745,0,0,1,27.686-7a2.572,2.572,0,0,1,2.082.882,3.82,3.82,0,0,1,.743,2.526V-3.1H25.858a2.441,2.441,0,0,0,.594,1.641A1.866,1.866,0,0,0,27.9-.832a2.045,2.045,0,0,0,1.054-.254,2.648,2.648,0,0,0,.755-.673l.717.559A2.884,2.884,0,0,1,27.832.127ZM27.686-6.03a1.566,1.566,0,0,0-1.193.517,2.515,2.515,0,0,0-.6,1.45h3.44v-.089a2.237,2.237,0,0,0-.482-1.387A1.475,1.475,0,0,0,27.686-6.03Zm5.776-2.5v1.663h1.282v.908H33.462V-1.7a.953.953,0,0,0,.171.62.721.721,0,0,0,.584.207,2.843,2.843,0,0,0,.559-.076V0a3.424,3.424,0,0,1-.9.126,1.462,1.462,0,0,1-1.187-.476,2.045,2.045,0,0,1-.4-1.352V-5.96h-1.25v-.908h1.25V-8.531Zm5.5,8.658A3,3,0,0,1,36.693-.79a3.4,3.4,0,0,1-.876-2.453v-.216a4.121,4.121,0,0,1,.39-1.825A3.045,3.045,0,0,1,37.3-6.541,2.745,2.745,0,0,1,38.82-7a2.572,2.572,0,0,1,2.082.882,3.82,3.82,0,0,1,.743,2.526V-3.1H36.991a2.441,2.441,0,0,0,.594,1.641,1.866,1.866,0,0,0,1.444.625,2.045,2.045,0,0,0,1.054-.254,2.648,2.648,0,0,0,.755-.673l.717.559A2.884,2.884,0,0,1,38.966.127ZM38.82-6.03a1.566,1.566,0,0,0-1.193.517,2.515,2.515,0,0,0-.6,1.45h3.44v-.089a2.237,2.237,0,0,0-.482-1.387A1.475,1.475,0,0,0,38.82-6.03Zm7.5.216a3.519,3.519,0,0,0-.578-.044,1.547,1.547,0,0,0-1.568.984V0H43V-6.868h1.143l.019.793A1.829,1.829,0,0,1,45.8-7a1.2,1.2,0,0,1,.521.089ZM46.847-3.5a4.057,4.057,0,0,1,.4-1.815,2.96,2.96,0,0,1,1.1-1.244A3.007,3.007,0,0,1,49.963-7a2.9,2.9,0,0,1,2.269.971A3.736,3.736,0,0,1,53.1-3.44v.083a4.092,4.092,0,0,1-.384,1.8,2.916,2.916,0,0,1-1.1,1.241,3.041,3.041,0,0,1-1.641.444,2.889,2.889,0,0,1-2.263-.971,3.718,3.718,0,0,1-.866-2.571Zm1.181.14a2.938,2.938,0,0,0,.53,1.834,1.7,1.7,0,0,0,1.419.692,1.686,1.686,0,0,0,1.422-.7A3.213,3.213,0,0,0,51.925-3.5a2.933,2.933,0,0,0-.536-1.831,1.705,1.705,0,0,0-1.425-.7,1.686,1.686,0,0,0-1.4.692A3.189,3.189,0,0,0,48.027-3.358Z" transform="translate(3.941 263.362)"/>
  <g id="Grupo_973798" data-name="Grupo 973798">
    <g id="Enmascarar_grupo_92" data-name="Enmascarar grupo 92" clip-path="url(#clip-path-2)">
      <path id="Trazado_699222" data-name="Trazado 699222" d="M5.726-3.1H7.008v.958H5.726V0H4.545V-2.146H.336v-.692l4.139-6.4h1.25Zm-4.056,0H4.545V-7.636l-.14.254ZM9.775-5.192h.882a1.939,1.939,0,0,0,1.308-.438,1.463,1.463,0,0,0,.476-1.149A1.434,1.434,0,0,0,10.823-8.4a1.684,1.684,0,0,0-1.216.435,1.522,1.522,0,0,0-.454,1.152H7.979a2.358,2.358,0,0,1,.8-1.825,2.925,2.925,0,0,1,2.041-.727,2.891,2.891,0,0,1,2.05.692,2.5,2.5,0,0,1,.743,1.923,2.029,2.029,0,0,1-.39,1.168,2.357,2.357,0,0,1-1.063.844,2.271,2.271,0,0,1,1.177.8,2.221,2.221,0,0,1,.416,1.365A2.521,2.521,0,0,1,12.943-.6a3.043,3.043,0,0,1-2.114.73,3.123,3.123,0,0,1-2.117-.7A2.337,2.337,0,0,1,7.9-2.437H9.077A1.511,1.511,0,0,0,9.553-1.27a1.811,1.811,0,0,0,1.276.438,1.777,1.777,0,0,0,1.3-.444,1.712,1.712,0,0,0,.451-1.276,1.554,1.554,0,0,0-.5-1.238,2.157,2.157,0,0,0-1.428-.444H9.775ZM20.325-3.1h1.282v.958H20.325V0H19.145V-2.146H14.936v-.692l4.139-6.4h1.25Zm-4.056,0h2.875V-7.636L19-7.382ZM22.813-.616a.735.735,0,0,1,.181-.508.689.689,0,0,1,.543-.2.71.71,0,0,1,.549.2.721.721,0,0,1,.187.508.681.681,0,0,1-.187.489.723.723,0,0,1-.549.2.7.7,0,0,1-.543-.2A.7.7,0,0,1,22.813-.616ZM31.033-3.1h1.282v.958H31.033V0H29.853V-2.146H25.644v-.692l4.139-6.4h1.25Zm-4.056,0h2.875V-7.636l-.14.254Zm6.938-1.53.47-4.608H39.12v1.085H35.382L35.1-5.637a2.983,2.983,0,0,1,1.542-.4,2.55,2.55,0,0,1,2.006.835,3.271,3.271,0,0,1,.743,2.257A3.158,3.158,0,0,1,38.622-.7a2.811,2.811,0,0,1-2.155.822,2.921,2.921,0,0,1-2-.679,2.711,2.711,0,0,1-.882-1.879H34.7a1.865,1.865,0,0,0,.565,1.2,1.757,1.757,0,0,0,1.206.4,1.585,1.585,0,0,0,1.285-.559,2.335,2.335,0,0,0,.467-1.542,2.143,2.143,0,0,0-.5-1.489,1.717,1.717,0,0,0-1.343-.562,1.936,1.936,0,0,0-1.206.336l-.311.254Zm11.261.571a2.873,2.873,0,0,1-.879.7,2.385,2.385,0,0,1-1.12.267,2.463,2.463,0,0,1-1.393-.394,2.558,2.558,0,0,1-.917-1.108,3.776,3.776,0,0,1-.324-1.577,3.847,3.847,0,0,1,.352-1.669,2.588,2.588,0,0,1,1-1.136A2.851,2.851,0,0,1,43.4-9.369a2.581,2.581,0,0,1,2.161,1.025,4.471,4.471,0,0,1,.79,2.8v.343A5.974,5.974,0,0,1,45.29-1.266,4.1,4.1,0,0,1,42.072.006h-.229v-1h.248a3.233,3.233,0,0,0,2.234-.757A3.248,3.248,0,0,0,45.176-4.062Zm-1.809,0a1.813,1.813,0,0,0,1.089-.362,2.133,2.133,0,0,0,.727-.9v-.47a3.232,3.232,0,0,0-.5-1.879,1.5,1.5,0,0,0-1.27-.724,1.508,1.508,0,0,0-1.244.594,2.448,2.448,0,0,0-.47,1.565,2.548,2.548,0,0,0,.454,1.558A1.437,1.437,0,0,0,43.367-4.062Zm11.3-4.183H51.7V0H50.483V-8.246H47.518v-1h7.147Zm2.2-1H58.09V-2.7a2.711,2.711,0,0,1-.8,2.076A2.974,2.974,0,0,1,55.17.127a3.056,3.056,0,0,1-2.146-.7,2.544,2.544,0,0,1-.768-1.974h1.219a1.7,1.7,0,0,0,.435,1.238,1.685,1.685,0,0,0,1.26.444,1.634,1.634,0,0,0,1.222-.476,1.844,1.844,0,0,0,.473-1.333Z" transform="translate(0 281.689)"/>
      <path id="Trazado_699223" data-name="Trazado 699223" d="M6.373-6.83A2.146,2.146,0,0,1,6.008-5.6a2.483,2.483,0,0,1-.987.844,2.649,2.649,0,0,1,1.146.908,2.284,2.284,0,0,1,.422,1.352A2.415,2.415,0,0,1,5.78-.584,3.109,3.109,0,0,1,3.65.127,3.1,3.1,0,0,1,1.514-.587a2.426,2.426,0,0,1-.8-1.907A2.352,2.352,0,0,1,1.12-3.847a2.548,2.548,0,0,1,1.133-.914A2.422,2.422,0,0,1,1.282-5.6,2.177,2.177,0,0,1,.927-6.83a2.389,2.389,0,0,1,.749-1.854A2.81,2.81,0,0,1,3.65-9.369a2.812,2.812,0,0,1,1.971.686A2.384,2.384,0,0,1,6.373-6.83ZM5.415-2.52a1.7,1.7,0,0,0-.492-1.263,1.745,1.745,0,0,0-1.285-.489,1.714,1.714,0,0,0-1.273.482,1.723,1.723,0,0,0-.479,1.27,1.641,1.641,0,0,0,.467,1.238,1.791,1.791,0,0,0,1.3.451,1.786,1.786,0,0,0,1.295-.454A1.637,1.637,0,0,0,5.415-2.52ZM3.65-8.4a1.515,1.515,0,0,0-1.12.428A1.574,1.574,0,0,0,2.1-6.811a1.566,1.566,0,0,0,.422,1.139,1.5,1.5,0,0,0,1.127.435,1.5,1.5,0,0,0,1.127-.435A1.566,1.566,0,0,0,5.2-6.811,1.567,1.567,0,0,0,4.761-7.96,1.494,1.494,0,0,0,3.65-8.4ZM13.673-6.83A2.146,2.146,0,0,1,13.308-5.6a2.483,2.483,0,0,1-.987.844,2.649,2.649,0,0,1,1.146.908,2.284,2.284,0,0,1,.422,1.352,2.415,2.415,0,0,1-.809,1.911,3.109,3.109,0,0,1-2.13.711A3.1,3.1,0,0,1,8.814-.587a2.426,2.426,0,0,1-.8-1.907A2.352,2.352,0,0,1,8.42-3.847a2.548,2.548,0,0,1,1.133-.914A2.422,2.422,0,0,1,8.582-5.6,2.177,2.177,0,0,1,8.227-6.83a2.389,2.389,0,0,1,.749-1.854,2.81,2.81,0,0,1,1.974-.686,2.812,2.812,0,0,1,1.971.686A2.384,2.384,0,0,1,13.673-6.83Zm-.958,4.31a1.7,1.7,0,0,0-.492-1.263,1.745,1.745,0,0,0-1.285-.489,1.714,1.714,0,0,0-1.273.482,1.723,1.723,0,0,0-.479,1.27,1.641,1.641,0,0,0,.467,1.238,1.791,1.791,0,0,0,1.3.451,1.786,1.786,0,0,0,1.295-.454A1.637,1.637,0,0,0,12.714-2.52ZM10.95-8.4a1.515,1.515,0,0,0-1.12.428A1.574,1.574,0,0,0,9.4-6.811a1.566,1.566,0,0,0,.422,1.139,1.5,1.5,0,0,0,1.127.435,1.5,1.5,0,0,0,1.127-.435A1.566,1.566,0,0,0,12.5-6.811a1.567,1.567,0,0,0-.438-1.149A1.494,1.494,0,0,0,10.95-8.4Zm7.535.939a1.875,1.875,0,0,1,.53-1.371,1.826,1.826,0,0,1,1.362-.54,1.815,1.815,0,0,1,1.368.543,1.94,1.94,0,0,1,.524,1.406v.451a1.851,1.851,0,0,1-.53,1.368,1.827,1.827,0,0,1-1.349.53,1.867,1.867,0,0,1-1.365-.53,1.89,1.89,0,0,1-.54-1.412Zm.876.486a1.2,1.2,0,0,0,.279.818.942.942,0,0,0,.749.321.924.924,0,0,0,.727-.312A1.24,1.24,0,0,0,21.392-7v-.464a1.231,1.231,0,0,0-.273-.821.919.919,0,0,0-.743-.324.919.919,0,0,0-.743.324,1.27,1.27,0,0,0-.273.846Zm3.625,4.713a1.865,1.865,0,0,1,.53-1.368,1.832,1.832,0,0,1,1.362-.536,1.848,1.848,0,0,1,1.365.533,1.913,1.913,0,0,1,.533,1.416v.451A1.865,1.865,0,0,1,26.244-.4a1.824,1.824,0,0,1-1.355.536A1.867,1.867,0,0,1,23.524-.4a1.89,1.89,0,0,1-.54-1.412Zm.876.493a1.21,1.21,0,0,0,.279.824.942.942,0,0,0,.749.321.917.917,0,0,0,.73-.315,1.262,1.262,0,0,0,.273-.856V-2.27a1.207,1.207,0,0,0-.276-.821.93.93,0,0,0-.74-.318.939.939,0,0,0-.733.315,1.225,1.225,0,0,0-.282.849ZM20.655-.7l-.667-.419L24.5-8.341l.667.419Z" transform="translate(21.444 300.017)"/>
    </g>
  </g>
  <path id="Trazado_699209" data-name="Trazado 699209" d="M6.17-4.082H2.292V0H1.073V-9.242H6.8v1H2.292v3.167H6.17ZM10.661.127A3,3,0,0,1,8.389-.79a3.4,3.4,0,0,1-.876-2.453v-.216A4.121,4.121,0,0,1,7.9-5.284,3.045,3.045,0,0,1,8.995-6.541,2.745,2.745,0,0,1,10.515-7a2.572,2.572,0,0,1,2.082.882,3.82,3.82,0,0,1,.743,2.526V-3.1H8.687A2.441,2.441,0,0,0,9.28-1.457a1.866,1.866,0,0,0,1.444.625,2.045,2.045,0,0,0,1.054-.254,2.648,2.648,0,0,0,.755-.673l.717.559A2.884,2.884,0,0,1,10.661.127ZM10.515-6.03a1.566,1.566,0,0,0-1.193.517,2.515,2.515,0,0,0-.6,1.45h3.44v-.089a2.237,2.237,0,0,0-.482-1.387A1.475,1.475,0,0,0,10.515-6.03Zm7.5.216a3.519,3.519,0,0,0-.578-.044,1.547,1.547,0,0,0-1.568.984V0H14.7V-6.868h1.143l.019.793A1.829,1.829,0,0,1,17.5-7a1.2,1.2,0,0,1,.521.089Zm4.4,0a3.519,3.519,0,0,0-.578-.044,1.547,1.547,0,0,0-1.568.984V0H19.1V-6.868H20.24l.019.793A1.829,1.829,0,0,1,21.9-7a1.2,1.2,0,0,1,.521.089ZM22.941-3.5a4.057,4.057,0,0,1,.4-1.815,2.96,2.96,0,0,1,1.1-1.244A3.007,3.007,0,0,1,26.058-7a2.9,2.9,0,0,1,2.269.971,3.736,3.736,0,0,1,.866,2.583v.083a4.092,4.092,0,0,1-.384,1.8,2.916,2.916,0,0,1-1.1,1.241A3.041,3.041,0,0,1,26.07.127a2.889,2.889,0,0,1-2.263-.971,3.718,3.718,0,0,1-.866-2.571Zm1.181.14a2.938,2.938,0,0,0,.53,1.834,1.7,1.7,0,0,0,1.419.692,1.686,1.686,0,0,0,1.422-.7A3.213,3.213,0,0,0,28.019-3.5a2.933,2.933,0,0,0-.536-1.831,1.705,1.705,0,0,0-1.425-.7,1.686,1.686,0,0,0-1.4.692A3.189,3.189,0,0,0,24.122-3.358Zm8.624,1.765,1.7-5.275h1.2L33.184,0h-.9L29.8-6.868H31ZM38.053,0H36.878V-6.868h1.174Zm-1.27-8.69a.7.7,0,0,1,.175-.482.655.655,0,0,1,.517-.2.666.666,0,0,1,.521.2.694.694,0,0,1,.178.482A.671.671,0,0,1,38-8.214a.678.678,0,0,1-.521.19.667.667,0,0,1-.517-.19A.678.678,0,0,1,36.783-8.69ZM44.172,0a2.467,2.467,0,0,1-.165-.724,2.62,2.62,0,0,1-1.955.851,2.424,2.424,0,0,1-1.666-.574A1.859,1.859,0,0,1,39.735-1.9a1.942,1.942,0,0,1,.816-1.666,3.846,3.846,0,0,1,2.295-.594h1.143V-4.7a1.319,1.319,0,0,0-.368-.981,1.48,1.48,0,0,0-1.085-.365,1.712,1.712,0,0,0-1.054.317.935.935,0,0,0-.425.768H39.874a1.621,1.621,0,0,1,.365-.993,2.491,2.491,0,0,1,.99-.759A3.331,3.331,0,0,1,42.6-7a2.715,2.715,0,0,1,1.86.594,2.141,2.141,0,0,1,.7,1.635v3.161A3.865,3.865,0,0,0,45.4-.1V0ZM42.223-.9a2.064,2.064,0,0,0,1.047-.286,1.728,1.728,0,0,0,.717-.743V-3.333h-.92q-2.158,0-2.158,1.263a1.069,1.069,0,0,0,.368.863A1.415,1.415,0,0,0,42.223-.9Zm8.1-4.919a3.519,3.519,0,0,0-.578-.044,1.547,1.547,0,0,0-1.568.984V0H47V-6.868h1.143l.019.793A1.829,1.829,0,0,1,49.8-7a1.2,1.2,0,0,1,.521.089ZM52.678,0H51.5V-6.868h1.174Zm-1.27-8.69a.7.7,0,0,1,.175-.482.655.655,0,0,1,.517-.2.666.666,0,0,1,.521.2.694.694,0,0,1,.178.482.671.671,0,0,1-.178.476.678.678,0,0,1-.521.19.667.667,0,0,1-.517-.19A.678.678,0,0,1,51.408-8.69ZM54.245-3.5a4.057,4.057,0,0,1,.4-1.815,2.96,2.96,0,0,1,1.1-1.244A3.007,3.007,0,0,1,57.362-7a2.9,2.9,0,0,1,2.269.971A3.736,3.736,0,0,1,60.5-3.44v.083a4.092,4.092,0,0,1-.384,1.8,2.916,2.916,0,0,1-1.1,1.241,3.041,3.041,0,0,1-1.641.444,2.889,2.889,0,0,1-2.263-.971,3.718,3.718,0,0,1-.866-2.571Zm1.181.14a2.938,2.938,0,0,0,.53,1.834,1.7,1.7,0,0,0,1.419.692,1.686,1.686,0,0,0,1.422-.7A3.213,3.213,0,0,0,59.324-3.5a2.933,2.933,0,0,0-.536-1.831,1.705,1.705,0,0,0-1.425-.7,1.686,1.686,0,0,0-1.4.692A3.189,3.189,0,0,0,55.426-3.358Z" transform="translate(363.829 201.139)"/>
  <path id="Trazado_699210" data-name="Trazado 699210" d="M6.824,0H.768V-.844L3.967-4.4A7.6,7.6,0,0,0,4.948-5.71a2.188,2.188,0,0,0,.27-1.044A1.658,1.658,0,0,0,4.78-7.941,1.531,1.531,0,0,0,3.612-8.4a1.814,1.814,0,0,0-1.362.5,1.9,1.9,0,0,0-.486,1.387H.59a2.726,2.726,0,0,1,.822-2.063,3.047,3.047,0,0,1,2.2-.787,2.928,2.928,0,0,1,2.038.676,2.306,2.306,0,0,1,.749,1.8,5.287,5.287,0,0,1-1.739,3.25L2.184-.958h4.64Zm5.745-4.062a2.873,2.873,0,0,1-.879.7,2.385,2.385,0,0,1-1.12.267,2.463,2.463,0,0,1-1.393-.394,2.558,2.558,0,0,1-.917-1.108A3.776,3.776,0,0,1,7.935-6.17a3.847,3.847,0,0,1,.352-1.669,2.588,2.588,0,0,1,1-1.136A2.851,2.851,0,0,1,10.8-9.369a2.581,2.581,0,0,1,2.161,1.025,4.471,4.471,0,0,1,.79,2.8v.343a5.974,5.974,0,0,1-1.066,3.939A4.1,4.1,0,0,1,9.464.006H9.236v-1h.248a3.233,3.233,0,0,0,2.234-.757A3.248,3.248,0,0,0,12.568-4.062Zm-1.809,0a1.813,1.813,0,0,0,1.089-.362,2.133,2.133,0,0,0,.727-.9v-.47a3.232,3.232,0,0,0-.5-1.879,1.5,1.5,0,0,0-1.27-.724A1.508,1.508,0,0,0,9.56-7.8a2.448,2.448,0,0,0-.47,1.565,2.548,2.548,0,0,0,.454,1.558A1.437,1.437,0,0,0,10.759-4.062ZM19.227,0H18.046V-7.827l-2.368.87V-8.023l3.364-1.263h.184ZM29.358-8.246H26.387V0H25.175V-8.246H22.21v-1h7.147Zm2.186-1h1.225V-2.7a2.711,2.711,0,0,1-.8,2.076,2.974,2.974,0,0,1-2.123.749,3.056,3.056,0,0,1-2.146-.7,2.544,2.544,0,0,1-.768-1.974h1.219a1.694,1.694,0,0,0,.435,1.238,1.685,1.685,0,0,0,1.26.444,1.634,1.634,0,0,0,1.222-.476,1.844,1.844,0,0,0,.473-1.333Z" transform="translate(379.164 219.467)"/>
  <path id="Trazado_699211" data-name="Trazado 699211" d="M6.563-3.942a5.371,5.371,0,0,1-.7,3.066,2.506,2.506,0,0,1-2.2,1,2.524,2.524,0,0,1-2.19-.981A5.1,5.1,0,0,1,.73-3.783V-5.351a5.251,5.251,0,0,1,.7-3.028,2.525,2.525,0,0,1,2.209-.99,2.548,2.548,0,0,1,2.2.955,5.068,5.068,0,0,1,.724,2.948ZM5.389-5.548A4.3,4.3,0,0,0,4.97-7.722,1.442,1.442,0,0,0,3.644-8.4a1.423,1.423,0,0,0-1.314.679A4.2,4.2,0,0,0,1.9-5.637v1.879a4.372,4.372,0,0,0,.435,2.212,1.439,1.439,0,0,0,1.317.714A1.42,1.42,0,0,0,4.948-1.5a4.214,4.214,0,0,0,.441-2.12ZM8.214-.616a.735.735,0,0,1,.181-.508.689.689,0,0,1,.543-.2.71.71,0,0,1,.549.2.721.721,0,0,1,.187.508.681.681,0,0,1-.187.489.723.723,0,0,1-.549.2.7.7,0,0,1-.543-.2A.7.7,0,0,1,8.214-.616Zm9.071-3.326a5.371,5.371,0,0,1-.7,3.066,2.506,2.506,0,0,1-2.2,1,2.524,2.524,0,0,1-2.19-.981,5.1,5.1,0,0,1-.736-2.929V-5.351a5.251,5.251,0,0,1,.7-3.028,2.525,2.525,0,0,1,2.209-.99,2.548,2.548,0,0,1,2.2.955,5.068,5.068,0,0,1,.724,2.948ZM16.11-5.548a4.3,4.3,0,0,0-.419-2.174A1.442,1.442,0,0,0,14.365-8.4a1.423,1.423,0,0,0-1.314.679,4.2,4.2,0,0,0-.425,2.088v1.879a4.372,4.372,0,0,0,.435,2.212,1.439,1.439,0,0,0,1.317.714A1.42,1.42,0,0,0,15.669-1.5a4.214,4.214,0,0,0,.441-2.12Zm7.287-3.7v1h-.216A3.092,3.092,0,0,0,21-7.439a3.381,3.381,0,0,0-.939,2.215,2.507,2.507,0,0,1,1.993-.838,2.4,2.4,0,0,1,1.927.851,3.281,3.281,0,0,1,.72,2.2A3.27,3.27,0,0,1,23.921-.73a2.678,2.678,0,0,1-2.085.857A2.638,2.638,0,0,1,19.684-.892a4.038,4.038,0,0,1-.825-2.625v-.451a6.084,6.084,0,0,1,1.089-3.9,4,4,0,0,1,3.24-1.381ZM21.855-5.084a1.874,1.874,0,0,0-1.111.362,1.885,1.885,0,0,0-.7.908v.432a3.032,3.032,0,0,0,.514,1.841,1.541,1.541,0,0,0,1.282.7,1.493,1.493,0,0,0,1.247-.584,2.423,2.423,0,0,0,.454-1.53,2.424,2.424,0,0,0-.46-1.539A1.475,1.475,0,0,0,21.855-5.084Zm7.351-2.38a1.875,1.875,0,0,1,.53-1.371,1.826,1.826,0,0,1,1.362-.54,1.815,1.815,0,0,1,1.368.543,1.94,1.94,0,0,1,.524,1.406v.451a1.851,1.851,0,0,1-.53,1.368,1.827,1.827,0,0,1-1.349.53,1.867,1.867,0,0,1-1.365-.53,1.89,1.89,0,0,1-.54-1.412Zm.876.486a1.2,1.2,0,0,0,.279.818.942.942,0,0,0,.749.321.924.924,0,0,0,.727-.312A1.24,1.24,0,0,0,32.113-7v-.464a1.231,1.231,0,0,0-.273-.821.919.919,0,0,0-.743-.324.919.919,0,0,0-.743.324,1.27,1.27,0,0,0-.273.846Zm3.625,4.713a1.865,1.865,0,0,1,.53-1.368A1.832,1.832,0,0,1,35.6-4.17a1.848,1.848,0,0,1,1.365.533A1.913,1.913,0,0,1,37.5-2.222v.451A1.865,1.865,0,0,1,36.966-.4,1.824,1.824,0,0,1,35.61.133,1.867,1.867,0,0,1,34.246-.4a1.89,1.89,0,0,1-.54-1.412Zm.876.493a1.21,1.21,0,0,0,.279.824.942.942,0,0,0,.749.321.917.917,0,0,0,.73-.315,1.262,1.262,0,0,0,.273-.856V-2.27a1.207,1.207,0,0,0-.276-.821.93.93,0,0,0-.74-.318.939.939,0,0,0-.733.315,1.225,1.225,0,0,0-.282.849ZM31.376-.7l-.667-.419,4.513-7.224.667.419Z" transform="translate(379.439 237.794)"/>
  <g id="Grupo_973800" data-name="Grupo 973800">
    <g id="Enmascarar_grupo_91" data-name="Enmascarar grupo 91" clip-path="url(#clip-path-2)">
      <path id="Trazado_699219" data-name="Trazado 699219" d="M6.17-4.082H2.292V0H1.073V-9.242H6.8v1H2.292v3.167H6.17ZM9.35,0H8.176V-9.75H9.35Zm6.119-.679a2.494,2.494,0,0,1-2.012.806,2.135,2.135,0,0,1-1.673-.638A2.761,2.761,0,0,1,11.2-2.4V-6.868h1.174v4.437q0,1.562,1.27,1.562a1.758,1.758,0,0,0,1.79-1v-5h1.174V0H15.495Zm5.192-.914,1.7-5.275h1.2L21.1,0h-.9L17.716-6.868h1.2ZM25.968,0H24.794V-6.868h1.174ZM24.7-8.69a.7.7,0,0,1,.175-.482.655.655,0,0,1,.517-.2.666.666,0,0,1,.521.2.694.694,0,0,1,.178.482.671.671,0,0,1-.178.476.678.678,0,0,1-.521.19.667.667,0,0,1-.517-.19A.678.678,0,0,1,24.7-8.69ZM32.087,0a2.467,2.467,0,0,1-.165-.724,2.62,2.62,0,0,1-1.955.851A2.424,2.424,0,0,1,28.3-.448,1.859,1.859,0,0,1,27.65-1.9a1.942,1.942,0,0,1,.816-1.666,3.846,3.846,0,0,1,2.295-.594H31.9V-4.7a1.319,1.319,0,0,0-.368-.981,1.48,1.48,0,0,0-1.085-.365,1.712,1.712,0,0,0-1.054.317.935.935,0,0,0-.425.768H27.79a1.621,1.621,0,0,1,.365-.993,2.491,2.491,0,0,1,.99-.759A3.331,3.331,0,0,1,30.52-7a2.715,2.715,0,0,1,1.86.594,2.141,2.141,0,0,1,.7,1.635v3.161a3.865,3.865,0,0,0,.241,1.5V0ZM30.139-.9a2.064,2.064,0,0,0,1.047-.286,1.728,1.728,0,0,0,.717-.743V-3.333h-.92q-2.158,0-2.158,1.263a1.069,1.069,0,0,0,.368.863A1.415,1.415,0,0,0,30.139-.9Zm6.056.9H35.02V-9.75h1.174Z" transform="translate(425.016 133.822)"/>
      <path id="Trazado_699220" data-name="Trazado 699220" d="M4.627,0H3.447V-7.827l-2.368.87V-8.023L4.443-9.287h.184Zm9.407-8.582L10.207,0H8.976l3.815-8.277h-5v-.965h6.246Zm5.941-.667v1H19.76a3.092,3.092,0,0,0-2.184.813,3.381,3.381,0,0,0-.939,2.215,2.507,2.507,0,0,1,1.993-.838,2.4,2.4,0,0,1,1.927.851,3.281,3.281,0,0,1,.72,2.2A3.27,3.27,0,0,1,20.5-.73a2.678,2.678,0,0,1-2.085.857A2.638,2.638,0,0,1,16.263-.892a4.038,4.038,0,0,1-.825-2.625v-.451a6.084,6.084,0,0,1,1.089-3.9,4,4,0,0,1,3.24-1.381ZM18.434-5.084a1.874,1.874,0,0,0-1.111.362,1.885,1.885,0,0,0-.7.908v.432a3.032,3.032,0,0,0,.514,1.841,1.541,1.541,0,0,0,1.282.7,1.493,1.493,0,0,0,1.247-.584,2.423,2.423,0,0,0,.454-1.53,2.424,2.424,0,0,0-.46-1.539A1.475,1.475,0,0,0,18.434-5.084ZM29.358-8.246H26.387V0H25.175V-8.246H22.21v-1h7.147Zm2.186-1h1.225V-2.7a2.711,2.711,0,0,1-.8,2.076,2.974,2.974,0,0,1-2.123.749,3.056,3.056,0,0,1-2.146-.7,2.544,2.544,0,0,1-.768-1.974h1.219a1.694,1.694,0,0,0,.435,1.238,1.685,1.685,0,0,0,1.26.444,1.634,1.634,0,0,0,1.222-.476,1.844,1.844,0,0,0,.473-1.333Z" transform="translate(426.117 152.149)"/>
    </g>
  </g>
  <path id="Trazado_699212" data-name="Trazado 699212" d="M6.563-3.942a5.371,5.371,0,0,1-.7,3.066,2.506,2.506,0,0,1-2.2,1,2.524,2.524,0,0,1-2.19-.981A5.1,5.1,0,0,1,.73-3.783V-5.351a5.251,5.251,0,0,1,.7-3.028,2.525,2.525,0,0,1,2.209-.99,2.548,2.548,0,0,1,2.2.955,5.068,5.068,0,0,1,.724,2.948ZM5.389-5.548A4.3,4.3,0,0,0,4.97-7.722,1.442,1.442,0,0,0,3.644-8.4a1.423,1.423,0,0,0-1.314.679A4.2,4.2,0,0,0,1.9-5.637v1.879a4.372,4.372,0,0,0,.435,2.212,1.439,1.439,0,0,0,1.317.714A1.42,1.42,0,0,0,4.948-1.5a4.214,4.214,0,0,0,.441-2.12ZM8.214-.616a.735.735,0,0,1,.181-.508.689.689,0,0,1,.543-.2.71.71,0,0,1,.549.2.721.721,0,0,1,.187.508.681.681,0,0,1-.187.489.723.723,0,0,1-.549.2.7.7,0,0,1-.543-.2A.7.7,0,0,1,8.214-.616Zm9.071-3.326a5.371,5.371,0,0,1-.7,3.066,2.506,2.506,0,0,1-2.2,1,2.524,2.524,0,0,1-2.19-.981,5.1,5.1,0,0,1-.736-2.929V-5.351a5.251,5.251,0,0,1,.7-3.028,2.525,2.525,0,0,1,2.209-.99,2.548,2.548,0,0,1,2.2.955,5.068,5.068,0,0,1,.724,2.948ZM16.11-5.548a4.3,4.3,0,0,0-.419-2.174A1.442,1.442,0,0,0,14.365-8.4a1.423,1.423,0,0,0-1.314.679,4.2,4.2,0,0,0-.425,2.088v1.879a4.372,4.372,0,0,0,.435,2.212,1.439,1.439,0,0,0,1.317.714A1.42,1.42,0,0,0,15.669-1.5a4.214,4.214,0,0,0,.441-2.12ZM23.747-3.1h1.282v.958H23.747V0H22.566V-2.146H18.357v-.692l4.139-6.4h1.25Zm-4.056,0h2.875V-7.636l-.14.254Zm9.515-4.361a1.875,1.875,0,0,1,.53-1.371,1.826,1.826,0,0,1,1.362-.54,1.815,1.815,0,0,1,1.368.543,1.94,1.94,0,0,1,.524,1.406v.451a1.851,1.851,0,0,1-.53,1.368,1.827,1.827,0,0,1-1.349.53,1.867,1.867,0,0,1-1.365-.53,1.89,1.89,0,0,1-.54-1.412Zm.876.486a1.2,1.2,0,0,0,.279.818.942.942,0,0,0,.749.321.924.924,0,0,0,.727-.312A1.24,1.24,0,0,0,32.113-7v-.464a1.231,1.231,0,0,0-.273-.821.919.919,0,0,0-.743-.324.919.919,0,0,0-.743.324,1.27,1.27,0,0,0-.273.846Zm3.625,4.713a1.865,1.865,0,0,1,.53-1.368A1.832,1.832,0,0,1,35.6-4.17a1.848,1.848,0,0,1,1.365.533A1.913,1.913,0,0,1,37.5-2.222v.451A1.865,1.865,0,0,1,36.966-.4,1.824,1.824,0,0,1,35.61.133,1.867,1.867,0,0,1,34.246-.4a1.89,1.89,0,0,1-.54-1.412Zm.876.493a1.21,1.21,0,0,0,.279.824.942.942,0,0,0,.749.321.917.917,0,0,0,.73-.315,1.262,1.262,0,0,0,.273-.856V-2.27a1.207,1.207,0,0,0-.276-.821.93.93,0,0,0-.74-.318.939.939,0,0,0-.733.315,1.225,1.225,0,0,0-.282.849ZM31.376-.7l-.667-.419,4.513-7.224.667.419Z" transform="translate(426.392 170.477)"/>
  <path id="Trazado_699213" data-name="Trazado 699213" d="M2.647-9.242,5.668-1.7,8.69-9.242h1.581V0H9.052V-3.6l.114-3.885L6.132,0H5.2L2.171-7.465,2.292-3.6V0H1.073V-9.242ZM16.479,0a2.467,2.467,0,0,1-.165-.724,2.62,2.62,0,0,1-1.955.851,2.424,2.424,0,0,1-1.666-.574A1.859,1.859,0,0,1,12.042-1.9a1.942,1.942,0,0,1,.816-1.666,3.846,3.846,0,0,1,2.295-.594h1.143V-4.7a1.319,1.319,0,0,0-.368-.981,1.48,1.48,0,0,0-1.085-.365,1.712,1.712,0,0,0-1.054.317.935.935,0,0,0-.425.768H12.181a1.621,1.621,0,0,1,.365-.993,2.491,2.491,0,0,1,.99-.759A3.331,3.331,0,0,1,14.911-7a2.715,2.715,0,0,1,1.86.594,2.141,2.141,0,0,1,.7,1.635v3.161A3.865,3.865,0,0,0,17.71-.1V0ZM14.53-.9a2.064,2.064,0,0,0,1.047-.286,1.728,1.728,0,0,0,.717-.743V-3.333h-.92q-2.158,0-2.158,1.263a1.069,1.069,0,0,0,.368.863A1.415,1.415,0,0,0,14.53-.9Zm8.1-4.919a3.519,3.519,0,0,0-.578-.044,1.547,1.547,0,0,0-1.568.984V0H19.31V-6.868h1.143l.019.793A1.829,1.829,0,0,1,22.109-7a1.2,1.2,0,0,1,.521.089ZM24.984,0H23.8V-6.868h1.181ZM25-9.744h1.422l-1.7,1.866-.946,0Zm3.517,1.212v1.663H29.8v.908H28.514V-1.7a.953.953,0,0,0,.171.62.721.721,0,0,0,.584.207,2.843,2.843,0,0,0,.559-.076V0a3.424,3.424,0,0,1-.9.126,1.462,1.462,0,0,1-1.187-.476,2.045,2.045,0,0,1-.4-1.352V-5.96h-1.25v-.908h1.25V-8.531ZM32.443,0H31.269V-6.868h1.174Zm-1.27-8.69a.7.7,0,0,1,.175-.482.655.655,0,0,1,.517-.2.666.666,0,0,1,.521.2.694.694,0,0,1,.178.482.671.671,0,0,1-.178.476.678.678,0,0,1-.521.19.667.667,0,0,1-.517-.19A.678.678,0,0,1,31.173-8.69Zm4.253,1.822.032.762A2.536,2.536,0,0,1,37.5-7a1.964,1.964,0,0,1,1.961,1.1,2.6,2.6,0,0,1,.892-.8,2.634,2.634,0,0,1,1.3-.3q2.26,0,2.3,2.393V0H42.771V-4.532a1.577,1.577,0,0,0-.336-1.1A1.482,1.482,0,0,0,41.3-6a1.557,1.557,0,0,0-1.085.39,1.584,1.584,0,0,0-.5,1.051V0H38.537V-4.5A1.31,1.31,0,0,0,37.07-6a1.571,1.571,0,0,0-1.581.984V0H34.315V-6.868ZM45.4-3.5a4.057,4.057,0,0,1,.4-1.815,2.96,2.96,0,0,1,1.1-1.244A3.007,3.007,0,0,1,48.521-7a2.9,2.9,0,0,1,2.269.971,3.736,3.736,0,0,1,.866,2.583v.083a4.092,4.092,0,0,1-.384,1.8,2.916,2.916,0,0,1-1.1,1.241,3.041,3.041,0,0,1-1.641.444,2.889,2.889,0,0,1-2.263-.971A3.718,3.718,0,0,1,45.4-3.415Zm1.181.14a2.938,2.938,0,0,0,.53,1.834,1.7,1.7,0,0,0,1.419.692,1.686,1.686,0,0,0,1.422-.7A3.213,3.213,0,0,0,50.483-3.5a2.933,2.933,0,0,0-.536-1.831,1.705,1.705,0,0,0-1.425-.7,1.686,1.686,0,0,0-1.4.692A3.189,3.189,0,0,0,46.585-3.358Z" transform="translate(361.297 76.119)"/>
  <path id="Trazado_699214" data-name="Trazado 699214" d="M4.627,0H3.447V-7.827l-2.368.87V-8.023L4.443-9.287h.184Zm7.3,0H10.747V-7.827l-2.368.87V-8.023l3.364-1.263h.184Zm3.586-.616a.735.735,0,0,1,.181-.508.689.689,0,0,1,.543-.2.71.71,0,0,1,.549.2.721.721,0,0,1,.187.508.681.681,0,0,1-.187.489.723.723,0,0,1-.549.2.7.7,0,0,1-.543-.2A.7.7,0,0,1,15.514-.616ZM23.747-3.1h1.282v.958H23.747V0H22.566V-2.146H18.357v-.692l4.139-6.4h1.25Zm-4.056,0h2.875V-7.636l-.14.254ZM29.948,0H28.768V-7.827l-2.368.87V-8.023l3.364-1.263h.184Zm9.407-8.582L35.528,0H34.3l3.815-8.277h-5v-.965h6.246Zm8.023.336H44.408V0H43.2V-8.246H40.231v-1h7.147Zm2.2-1H50.8V-2.7a2.711,2.711,0,0,1-.8,2.076,2.974,2.974,0,0,1-2.123.749,3.056,3.056,0,0,1-2.146-.7,2.544,2.544,0,0,1-.768-1.974h1.219a1.7,1.7,0,0,0,.435,1.238,1.685,1.685,0,0,0,1.26.444A1.634,1.634,0,0,0,49.1-1.346a1.844,1.844,0,0,0,.473-1.333Z" transform="translate(360.656 94.447)"/>
  <path id="Trazado_699215" data-name="Trazado 699215" d="M6.824,0H.768V-.844L3.967-4.4A7.6,7.6,0,0,0,4.948-5.71a2.188,2.188,0,0,0,.27-1.044A1.658,1.658,0,0,0,4.78-7.941,1.531,1.531,0,0,0,3.612-8.4a1.814,1.814,0,0,0-1.362.5,1.9,1.9,0,0,0-.486,1.387H.59a2.726,2.726,0,0,1,.822-2.063,3.047,3.047,0,0,1,2.2-.787,2.928,2.928,0,0,1,2.038.676,2.306,2.306,0,0,1,.749,1.8,5.287,5.287,0,0,1-1.739,3.25L2.184-.958h4.64Zm4.361-7.465a1.875,1.875,0,0,1,.53-1.371,1.826,1.826,0,0,1,1.362-.54,1.815,1.815,0,0,1,1.368.543,1.94,1.94,0,0,1,.524,1.406v.451a1.851,1.851,0,0,1-.53,1.368,1.827,1.827,0,0,1-1.349.53,1.867,1.867,0,0,1-1.365-.53,1.89,1.89,0,0,1-.54-1.412Zm.876.486a1.2,1.2,0,0,0,.279.818.942.942,0,0,0,.749.321.924.924,0,0,0,.727-.312A1.24,1.24,0,0,0,14.092-7v-.464a1.231,1.231,0,0,0-.273-.821.919.919,0,0,0-.743-.324.919.919,0,0,0-.743.324,1.27,1.27,0,0,0-.273.846Zm3.625,4.713a1.865,1.865,0,0,1,.53-1.368,1.832,1.832,0,0,1,1.362-.536,1.848,1.848,0,0,1,1.365.533,1.913,1.913,0,0,1,.533,1.416v.451A1.865,1.865,0,0,1,18.945-.4a1.824,1.824,0,0,1-1.355.536A1.867,1.867,0,0,1,16.225-.4a1.89,1.89,0,0,1-.54-1.412Zm.876.493a1.21,1.21,0,0,0,.279.824.942.942,0,0,0,.749.321.917.917,0,0,0,.73-.315,1.262,1.262,0,0,0,.273-.856V-2.27a1.207,1.207,0,0,0-.276-.821.93.93,0,0,0-.74-.318.939.939,0,0,0-.733.315,1.225,1.225,0,0,0-.282.849ZM13.355-.7l-.667-.419L17.2-8.341l.667.419Z" transform="translate(382.1 112.775)"/>
  <path id="Trazado_699216" data-name="Trazado 699216" d="M6.176-2.418H2.3L1.435,0H.178L3.707-9.242H4.773L8.309,0H7.059Zm-3.5-1H5.814L4.24-7.738ZM12.219.127A3,3,0,0,1,9.947-.79a3.4,3.4,0,0,1-.876-2.453v-.216a4.121,4.121,0,0,1,.39-1.825,3.045,3.045,0,0,1,1.092-1.257A2.745,2.745,0,0,1,12.073-7a2.572,2.572,0,0,1,2.082.882A3.82,3.82,0,0,1,14.9-3.586V-3.1H10.245a2.441,2.441,0,0,0,.594,1.641,1.866,1.866,0,0,0,1.444.625,2.045,2.045,0,0,0,1.054-.254,2.648,2.648,0,0,0,.755-.673l.717.559A2.884,2.884,0,0,1,12.219.127ZM12.073-6.03a1.566,1.566,0,0,0-1.193.517,2.515,2.515,0,0,0-.6,1.45h3.44v-.089a2.237,2.237,0,0,0-.482-1.387A1.475,1.475,0,0,0,12.073-6.03Zm.571-3.72h1.422l-1.7,1.866-.946,0Zm6.932,3.936A3.519,3.519,0,0,0,19-5.859a1.547,1.547,0,0,0-1.568.984V0H16.256V-6.868H17.4l.019.793A1.829,1.829,0,0,1,19.056-7a1.2,1.2,0,0,1,.521.089ZM23.268.127A3,3,0,0,1,21-.79a3.4,3.4,0,0,1-.876-2.453v-.216a4.121,4.121,0,0,1,.39-1.825A3.045,3.045,0,0,1,21.6-6.541,2.745,2.745,0,0,1,23.122-7a2.572,2.572,0,0,1,2.082.882,3.82,3.82,0,0,1,.743,2.526V-3.1H21.294a2.441,2.441,0,0,0,.594,1.641,1.866,1.866,0,0,0,1.444.625,2.045,2.045,0,0,0,1.054-.254,2.648,2.648,0,0,0,.755-.673l.717.559A2.884,2.884,0,0,1,23.268.127ZM23.122-6.03a1.566,1.566,0,0,0-1.193.517,2.515,2.515,0,0,0-.6,1.45h3.44v-.089a2.237,2.237,0,0,0-.482-1.387A1.475,1.475,0,0,0,23.122-6.03ZM26.994-3.5a4.057,4.057,0,0,1,.4-1.815,2.96,2.96,0,0,1,1.1-1.244A3.007,3.007,0,0,1,30.111-7a2.9,2.9,0,0,1,2.269.971,3.736,3.736,0,0,1,.866,2.583v.083a4.092,4.092,0,0,1-.384,1.8,2.916,2.916,0,0,1-1.1,1.241,3.041,3.041,0,0,1-1.641.444A2.889,2.889,0,0,1,27.86-.844a3.718,3.718,0,0,1-.866-2.571Zm1.181.14a2.938,2.938,0,0,0,.53,1.834,1.7,1.7,0,0,0,1.419.692,1.686,1.686,0,0,0,1.422-.7A3.213,3.213,0,0,0,32.072-3.5a2.933,2.933,0,0,0-.536-1.831,1.705,1.705,0,0,0-1.425-.7,1.686,1.686,0,0,0-1.4.692A3.189,3.189,0,0,0,28.175-3.358Z" transform="translate(338.662 15.592)"/>
  <path id="Trazado_699217" data-name="Trazado 699217" d="M5.726-3.1H7.008v.958H5.726V0H4.545V-2.146H.336v-.692l4.139-6.4h1.25Zm-4.056,0H4.545V-7.636l-.14.254Zm12-3.726A2.146,2.146,0,0,1,13.308-5.6a2.483,2.483,0,0,1-.987.844,2.649,2.649,0,0,1,1.146.908,2.284,2.284,0,0,1,.422,1.352,2.415,2.415,0,0,1-.809,1.911,3.109,3.109,0,0,1-2.13.711A3.1,3.1,0,0,1,8.814-.587a2.426,2.426,0,0,1-.8-1.907A2.352,2.352,0,0,1,8.42-3.847a2.548,2.548,0,0,1,1.133-.914A2.422,2.422,0,0,1,8.582-5.6,2.177,2.177,0,0,1,8.227-6.83a2.389,2.389,0,0,1,.749-1.854,2.81,2.81,0,0,1,1.974-.686,2.812,2.812,0,0,1,1.971.686A2.384,2.384,0,0,1,13.673-6.83Zm-.958,4.31a1.7,1.7,0,0,0-.492-1.263,1.745,1.745,0,0,0-1.285-.489,1.714,1.714,0,0,0-1.273.482,1.723,1.723,0,0,0-.479,1.27,1.641,1.641,0,0,0,.467,1.238,1.791,1.791,0,0,0,1.3.451,1.786,1.786,0,0,0,1.295-.454A1.637,1.637,0,0,0,12.714-2.52ZM10.95-8.4a1.515,1.515,0,0,0-1.12.428A1.574,1.574,0,0,0,9.4-6.811a1.566,1.566,0,0,0,.422,1.139,1.5,1.5,0,0,0,1.127.435,1.5,1.5,0,0,0,1.127-.435A1.566,1.566,0,0,0,12.5-6.811a1.567,1.567,0,0,0-.438-1.149A1.494,1.494,0,0,0,10.95-8.4ZM15.514-.616a.735.735,0,0,1,.181-.508.689.689,0,0,1,.543-.2.71.71,0,0,1,.549.2.721.721,0,0,1,.187.508.681.681,0,0,1-.187.489.723.723,0,0,1-.549.2.7.7,0,0,1-.543-.2A.7.7,0,0,1,15.514-.616ZM22.648,0H21.468V-7.827l-2.368.87V-8.023l3.364-1.263h.184Zm7.941-4.062a2.873,2.873,0,0,1-.879.7,2.385,2.385,0,0,1-1.12.267A2.463,2.463,0,0,1,27.2-3.485a2.558,2.558,0,0,1-.917-1.108,3.776,3.776,0,0,1-.324-1.577,3.847,3.847,0,0,1,.352-1.669,2.588,2.588,0,0,1,1-1.136,2.851,2.851,0,0,1,1.511-.394A2.581,2.581,0,0,1,30.98-8.344a4.471,4.471,0,0,1,.79,2.8v.343A5.974,5.974,0,0,1,30.7-1.266,4.1,4.1,0,0,1,27.485.006h-.229v-1H27.5a3.233,3.233,0,0,0,2.234-.757A3.248,3.248,0,0,0,30.589-4.062Zm-1.809,0a1.813,1.813,0,0,0,1.089-.362,2.133,2.133,0,0,0,.727-.9v-.47a3.232,3.232,0,0,0-.5-1.879,1.5,1.5,0,0,0-1.27-.724,1.508,1.508,0,0,0-1.244.594,2.448,2.448,0,0,0-.47,1.565,2.548,2.548,0,0,0,.454,1.558A1.437,1.437,0,0,0,28.78-4.062Zm9.109,0a2.873,2.873,0,0,1-.879.7,2.385,2.385,0,0,1-1.12.267A2.463,2.463,0,0,1,34.5-3.485a2.558,2.558,0,0,1-.917-1.108,3.776,3.776,0,0,1-.324-1.577,3.847,3.847,0,0,1,.352-1.669,2.588,2.588,0,0,1,1-1.136,2.851,2.851,0,0,1,1.511-.394A2.581,2.581,0,0,1,38.28-8.344a4.471,4.471,0,0,1,.79,2.8v.343A5.974,5.974,0,0,1,38-1.266,4.1,4.1,0,0,1,34.785.006h-.229v-1H34.8a3.233,3.233,0,0,0,2.234-.757A3.248,3.248,0,0,0,37.889-4.062Zm-1.809,0a1.813,1.813,0,0,0,1.089-.362,2.133,2.133,0,0,0,.727-.9v-.47a3.232,3.232,0,0,0-.5-1.879,1.5,1.5,0,0,0-1.27-.724A1.508,1.508,0,0,0,34.88-7.8a2.448,2.448,0,0,0-.47,1.565,2.548,2.548,0,0,0,.454,1.558A1.437,1.437,0,0,0,36.08-4.062Zm11.3-4.183H44.408V0H43.2V-8.246H40.231v-1h7.147Zm2.2-1H50.8V-2.7a2.711,2.711,0,0,1-.8,2.076,2.974,2.974,0,0,1-2.123.749,3.056,3.056,0,0,1-2.146-.7,2.544,2.544,0,0,1-.768-1.974h1.219a1.7,1.7,0,0,0,.435,1.238,1.685,1.685,0,0,0,1.26.444A1.634,1.634,0,0,0,49.1-1.346a1.844,1.844,0,0,0,.473-1.333Z" transform="translate(327.284 33.92)"/>
  <path id="Trazado_699218" data-name="Trazado 699218" d="M4.627,0H3.447V-7.827l-2.368.87V-8.023L4.443-9.287h.184Zm9.236-3.942a5.371,5.371,0,0,1-.7,3.066,2.506,2.506,0,0,1-2.2,1,2.524,2.524,0,0,1-2.19-.981A5.1,5.1,0,0,1,8.03-3.783V-5.351a5.251,5.251,0,0,1,.7-3.028,2.525,2.525,0,0,1,2.209-.99,2.548,2.548,0,0,1,2.2.955,5.068,5.068,0,0,1,.724,2.948ZM12.689-5.548a4.3,4.3,0,0,0-.419-2.174A1.442,1.442,0,0,0,10.943-8.4a1.423,1.423,0,0,0-1.314.679A4.2,4.2,0,0,0,9.2-5.637v1.879a4.372,4.372,0,0,0,.435,2.212,1.439,1.439,0,0,0,1.317.714A1.42,1.42,0,0,0,12.248-1.5a4.214,4.214,0,0,0,.441-2.12Zm5.8-1.917a1.875,1.875,0,0,1,.53-1.371,1.826,1.826,0,0,1,1.362-.54,1.815,1.815,0,0,1,1.368.543,1.94,1.94,0,0,1,.524,1.406v.451a1.851,1.851,0,0,1-.53,1.368,1.827,1.827,0,0,1-1.349.53,1.867,1.867,0,0,1-1.365-.53,1.89,1.89,0,0,1-.54-1.412Zm.876.486a1.2,1.2,0,0,0,.279.818.942.942,0,0,0,.749.321.924.924,0,0,0,.727-.312A1.24,1.24,0,0,0,21.392-7v-.464a1.231,1.231,0,0,0-.273-.821.919.919,0,0,0-.743-.324.919.919,0,0,0-.743.324,1.27,1.27,0,0,0-.273.846Zm3.625,4.713a1.865,1.865,0,0,1,.53-1.368,1.832,1.832,0,0,1,1.362-.536,1.848,1.848,0,0,1,1.365.533,1.913,1.913,0,0,1,.533,1.416v.451A1.865,1.865,0,0,1,26.244-.4a1.824,1.824,0,0,1-1.355.536A1.867,1.867,0,0,1,23.524-.4a1.89,1.89,0,0,1-.54-1.412Zm.876.493a1.21,1.21,0,0,0,.279.824.942.942,0,0,0,.749.321.917.917,0,0,0,.73-.315,1.262,1.262,0,0,0,.273-.856V-2.27a1.207,1.207,0,0,0-.276-.821.93.93,0,0,0-.74-.318.939.939,0,0,0-.733.315,1.225,1.225,0,0,0-.282.849ZM20.655-.7l-.667-.419L24.5-8.341l.667.419Z" transform="translate(344.436 52.247)"/>
</svg>
