<svg xmlns="http://www.w3.org/2000/svg" xmlns:xlink="http://www.w3.org/1999/xlink" width="94" height="94" viewBox="0 0 94 94">
  <defs>
    <clipPath id="clip-path">
      <circle id="Elipse_5568" data-name="Elipse 5568" cx="47" cy="47" r="47" transform="translate(855.441 1977)" fill="#0f58b9"/>
    </clipPath>
  </defs>
  <g id="Grupo_971806" data-name="Grupo 971806" transform="translate(-1299 -1972)">
    <g id="Grupo_973110" data-name="Grupo 973110" transform="translate(-139.815 -27.939)">
      <g id="Grupo_973109" data-name="Grupo 973109" transform="translate(683.375 22.939)">
        <g id="Enmascarar_grupo_45" data-name="Enmascarar grupo 45" transform="translate(-100)" clip-path="url(#clip-path)">
          <circle id="Elipse_5640" data-name="Elipse 5640" cx="49.833" cy="49.833" r="49.833" transform="translate(852.607 1976.992)" fill="#25ffff"/>
          <path id="Trazado_697774" data-name="Trazado 697774" d="M99.8,103.281c0,16.813-20.276,34.6-51.926,34.6S-8.54,118.519-8.54,101.706,16.22,76.99,47.877,76.99,99.8,86.468,99.8,103.281Z" transform="translate(854.818 1956.143)" fill="#2e0877"/>
        </g>
      </g>
      <g id="competencia" transform="translate(1440.065 1987.439)">
        <path id="Trazado_663357" data-name="Trazado 663357" d="M33.563,57.563A4.563,4.563,0,0,1,29,53h9.126A4.563,4.563,0,0,1,33.563,57.563Z" transform="translate(12.117 15.111)" fill="#e8e8e8"/>
        <path id="Trazado_663358" data-name="Trazado 663358" d="M68.3,46.648A10.647,10.647,0,0,0,57.467,36a10.782,10.782,0,0,0-10.46,10.254,10.586,10.586,0,0,0,3.036,7.83,10.051,10.051,0,0,1,3.042,7v.77h9.126v-.777a9.727,9.727,0,0,1,2.94-6.894,10.581,10.581,0,0,0,3.144-7.54Z" transform="translate(13.891 5.492)" fill="#f2e079"/>
        <path id="Trazado_663359" data-name="Trazado 663359" d="M62.169,50.084a6.084,6.084,0,0,0-12.169,0v1.771a9.517,9.517,0,0,1,1.521,5.067v.768h9.126v-.777A9.525,9.525,0,0,1,62.169,51.8Z" transform="translate(15.455 9.661)" fill="#8acbe6"/>
        <path id="Trazado_663360" data-name="Trazado 663360" d="M52.421,39.211A15.211,15.211,0,1,0,27.43,50.844a6.076,6.076,0,0,1,2.175,4.65v3.491H44.816V55.494a6,6,0,0,1,2.134-4.615A15.153,15.153,0,0,0,52.421,39.211Z" transform="translate(8.469 0)" fill="#ffed80"/>
        <path id="Trazado_663361" data-name="Trazado 663361" d="M44.253,45.787V44.126a9.126,9.126,0,0,0-18.253,0V45.8a6.038,6.038,0,0,1,1.521,3.967v3.491H42.732V49.762a6.006,6.006,0,0,1,1.521-3.975Z" transform="translate(10.554 5.732)" fill="#99e1ff"/>
        <circle id="Elipse_5570" data-name="Elipse 5570" cx="4.685" cy="4.685" r="4.685" transform="translate(41.169 31.819)" fill="#edbf89"/>
        <circle id="Elipse_5571" data-name="Elipse 5571" cx="2.928" cy="2.928" r="2.928" transform="translate(68.7 47.456)" fill="#edbf89"/>
        <path id="Trazado_663362" data-name="Trazado 663362" d="M33.042,35,30,41.084l3.042,6.084,3.042-6.084Z" transform="translate(12.638 5.732)" fill="#26547c"/>
        <path id="Trazado_663373" data-name="Trazado 663373" d="M40.69,52.042H28.521a1.521,1.521,0,1,1,0-3.042H40.69a1.521,1.521,0,1,1,0,3.042Z" transform="translate(11.075 13.027)" fill="#e8e8e8"/>
        <path id="Trazado_663374" data-name="Trazado 663374" d="M58.605,58.042H52.521a1.521,1.521,0,1,1,0-3.042h6.084a1.521,1.521,0,1,1,0,3.042Z" transform="translate(15.976 15.393)" fill="#e8e8e8"/>
        <path id="Trazado_663375" data-name="Trazado 663375" d="M56.563,61.042H53.521a1.521,1.521,0,1,1,0-3.042h3.042a1.521,1.521,0,1,1,0,3.042Z" transform="translate(16.497 16.956)" fill="#e8e8e8"/>
        <path id="Trazado_663376" data-name="Trazado 663376" d="M25.153,48.577A10.576,10.576,0,0,0,14.4,38,10.71,10.71,0,0,0,4.006,48.187a10.516,10.516,0,0,0,3.016,7.778,9.984,9.984,0,0,1,3.022,6.956v.765H19.11v-.772a9.663,9.663,0,0,1,2.921-6.848,10.51,10.51,0,0,0,3.123-7.49Z" transform="translate(5.316 5.896)" fill="#f2e079"/>
        <path id="Trazado_663377" data-name="Trazado 663377" d="M19.087,52.044A6.044,6.044,0,1,0,7,52.044V53.8a9.453,9.453,0,0,1,1.511,5.033V59.6h9.066v-.772a9.462,9.462,0,0,1,1.511-5.083Z" transform="translate(6.85 9.983)" fill="#8acbe6"/>
        <ellipse id="Elipse_5572" data-name="Elipse 5572" cx="2.908" cy="2.908" rx="2.908" ry="2.908" transform="translate(16.894 50.288)" fill="#edbf89"/>
        <path id="Trazado_663378" data-name="Trazado 663378" d="M15.555,60.022H9.511a1.511,1.511,0,0,1,0-3.022h6.044a1.511,1.511,0,0,1,0,3.022Z" transform="translate(7.36 15.604)" fill="#e8e8e8"/>
        <path id="Trazado_663379" data-name="Trazado 663379" d="M13.533,63.022H10.511a1.511,1.511,0,0,1,0-3.022h3.022a1.511,1.511,0,0,1,0,3.022Z" transform="translate(7.871 17.137)" fill="#e8e8e8"/>
      </g>
      <g id="Grupo_973111" data-name="Grupo 973111" transform="translate(1466.563 2049.582)">
        <path id="Trazado_663338" data-name="Trazado 663338" d="M267.68,79.671h10.6V95.437c0,1.632-2.372,2.491-5.3,2.491s-5.3-.859-5.3-2.491Z" transform="translate(-267.68 -76.716)" fill="#f5b945" fill-rule="evenodd"/>
        <g id="Grupo_971768" data-name="Grupo 971768" transform="translate(0 0)">
          <ellipse id="Elipse_5565" data-name="Elipse 5565" cx="5.298" cy="2.955" rx="5.298" ry="2.955" fill="#fdcd56"/>
          <path id="Trazado_663339" data-name="Trazado 663339" d="M299.678,36.484a6.184,6.184,0,0,0-3.113.764c-.288.175-.885.617-.885,1.041s.6.866.885,1.041a6.724,6.724,0,0,0,6.227,0c.288-.175.885-.618.885-1.041s-.6-.866-.885-1.041A6.184,6.184,0,0,0,299.678,36.484Z" transform="translate(-294.38 -35.533)" fill="#f5b945" fill-rule="evenodd"/>
          <path id="Trazado_663340" data-name="Trazado 663340" d="M358.551,49.153a.324.324,0,1,1,.3-.574,1.157,1.157,0,0,0,.224.1.979.979,0,0,0,.27.031,1,1,0,0,0,.356-.059,1,1,0,0,0-.356-.059,1.582,1.582,0,0,1-.689-.147.592.592,0,0,1,0-1.124,1.377,1.377,0,0,1,.361-.116.324.324,0,0,1,.638,0c.057.01.115.023.17.037a1.1,1.1,0,0,1,.413.185.324.324,0,0,1-.419.495.636.636,0,0,0-.156-.053,1.4,1.4,0,0,0-.317-.048.987.987,0,0,0-.356.06,1,1,0,0,0,.356.059,1.582,1.582,0,0,1,.689.147.592.592,0,0,1,0,1.124,1.392,1.392,0,0,1-.364.117.324.324,0,0,1-.63,0,1.4,1.4,0,0,1-.139-.032A1.746,1.746,0,0,1,358.551,49.153Zm1.231-.505c.006.008.009.012.009,0S359.788,48.639,359.782,48.647Zm-.881-.767c0,.012,0,.008.009,0S358.9,47.868,358.9,47.88Z" transform="translate(-354.048 -45.501)" fill="#daa33b" fill-rule="evenodd"/>
        </g>
        <path id="Trazado_663341" data-name="Trazado 663341" d="M272.978,150.194c2.926,0,5.3-.859,5.3-2.491v-2.186c0,1.632-2.372,2.491-5.3,2.491s-5.3-.859-5.3-2.491V147.7C267.68,149.335,270.052,150.194,272.978,150.194Zm0-8.744c2.926,0,5.3-.859,5.3-2.491v-2.186c0,1.632-2.372,2.491-5.3,2.491s-5.3-.859-5.3-2.491v2.186C267.68,140.591,270.052,141.45,272.978,141.45Zm0,4.372c-2.926,0-5.3-.859-5.3-2.491v-2.186c0,1.632,2.372,2.491,5.3,2.491s5.3-.859,5.3-2.491v2.186C278.276,144.963,275.9,145.822,272.978,145.822Z" transform="translate(-267.68 -131.168)" fill="#daa33b" fill-rule="evenodd"/>
      </g>
      <g id="Grupo_973112" data-name="Grupo 973112" transform="translate(1493.563 2049.582)">
        <path id="Trazado_663338-2" data-name="Trazado 663338" d="M267.68,79.671h11.179V96.3c0,1.722-2.5,2.628-5.59,2.628s-5.59-.906-5.59-2.628Z" transform="translate(-267.68 -76.553)" fill="#f5b945" fill-rule="evenodd"/>
        <g id="Grupo_971768-2" data-name="Grupo 971768" transform="translate(0 0)">
          <ellipse id="Elipse_5565-2" data-name="Elipse 5565" cx="5.59" cy="3.118" rx="5.59" ry="3.118" fill="#fdcd56"/>
          <path id="Trazado_663339-2" data-name="Trazado 663339" d="M299.9,36.484a6.524,6.524,0,0,0-3.285.806c-.3.185-.934.651-.934,1.1s.63.913.934,1.1a7.094,7.094,0,0,0,6.569,0c.3-.185.934-.652.934-1.1s-.63-.913-.934-1.1A6.524,6.524,0,0,0,299.9,36.484Z" transform="translate(-294.308 -35.481)" fill="#f5b945" fill-rule="evenodd"/>
          <path id="Trazado_663340-2" data-name="Trazado 663340" d="M358.567,49.275a.342.342,0,1,1,.319-.605,1.221,1.221,0,0,0,.236.1,1.033,1.033,0,0,0,.284.032,1.051,1.051,0,0,0,.375-.062,1.051,1.051,0,0,0-.375-.062,1.669,1.669,0,0,1-.727-.155.624.624,0,0,1,0-1.185,1.452,1.452,0,0,1,.381-.122.342.342,0,0,1,.673,0c.06.011.121.024.179.039a1.162,1.162,0,0,1,.435.2.342.342,0,0,1-.442.522.671.671,0,0,0-.165-.056,1.482,1.482,0,0,0-.335-.051,1.041,1.041,0,0,0-.375.063,1.051,1.051,0,0,0,.375.062,1.669,1.669,0,0,1,.727.155.624.624,0,0,1,0,1.185,1.468,1.468,0,0,1-.384.124.342.342,0,0,1-.665.005,1.475,1.475,0,0,1-.147-.034A1.841,1.841,0,0,1,358.567,49.275Zm1.3-.533c.006.008.009.013.009,0S359.872,48.733,359.866,48.741Zm-.93-.809c0,.013,0,.008.009,0S358.937,47.92,358.937,47.932Z" transform="translate(-353.816 -45.422)" fill="#daa33b" fill-rule="evenodd"/>
        </g>
        <path id="Trazado_663341-2" data-name="Trazado 663341" d="M273.27,150.932c3.087,0,5.59-.906,5.59-2.628V146c0,1.722-2.5,2.628-5.59,2.628s-5.59-.906-5.59-2.628V148.3C267.68,150.026,270.183,150.932,273.27,150.932Zm0-9.225c3.087,0,5.59-.906,5.59-2.628v-2.306c0,1.722-2.5,2.628-5.59,2.628s-5.59-.906-5.59-2.628v2.306C267.68,140.8,270.183,141.707,273.27,141.707Zm0,4.613c-3.087,0-5.59-.906-5.59-2.628v-2.306c0,1.722,2.5,2.628,5.59,2.628s5.59-.906,5.59-2.628v2.306C278.859,145.414,276.357,146.32,273.27,146.32Z" transform="translate(-267.68 -130.86)" fill="#daa33b" fill-rule="evenodd"/>
      </g>
    </g>
  </g>
</svg>
