<svg id="Grupo_973569" data-name="Grupo 973569" xmlns="http://www.w3.org/2000/svg" xmlns:xlink="http://www.w3.org/1999/xlink" width="163" height="163" viewBox="0 0 163 163">
  <defs>
    <clipPath id="clip-path">
      <rect id="Rectángulo_339650" data-name="Rectángulo 339650" width="163" height="163" fill="none"/>
    </clipPath>
  </defs>
  <g id="Grupo_973568" data-name="Grupo 973568" clip-path="url(#clip-path)">
    <path id="Trazado_698912" data-name="Trazado 698912" d="M163,81.5A81.5,81.5,0,1,1,81.5,0,81.5,81.5,0,0,1,163,81.5" fill="#cfb7ff"/>
    <path id="Trazado_698913" data-name="Trazado 698913" d="M114.638,226.446l43.661-.832,37.008-28.275s-2.079-9.148-9.564-4.574-22.454,12.059-22.454,12.059-1.248-5.406-15.8-3.327c0,0-15.8-11.643-33.265,1.663Z" transform="translate(-60.79 -101.909)" fill="#ece3ff"/>
    <path id="Trazado_698914" data-name="Trazado 698914" d="M118.627,51.536A16.425,16.425,0,1,1,102.2,35.111a16.425,16.425,0,0,1,16.425,16.425" transform="translate(-45.652 -18.686)" fill="#25ffff"/>
    <path id="Trazado_698915" data-name="Trazado 698915" d="M127.32,131.268l-.208-43.661s17.048-5.2,16.009-21.831H192.6v60.085l-19.336,12.059s-.832-1.663-6.029-3.326-15.8-2.079-15.8-2.079-10.188-6.653-24.118-1.248" transform="translate(-67.65 -35.007)" fill="#fce182"/>
    <path id="Trazado_698916" data-name="Trazado 698916" d="M145.465,150.851q0-3.235,0-6.469c0-.774,0-.763-.8-.777a28.646,28.646,0,0,1-3.082-.1c-1.615-.2-2.121-1.46-1.187-2.79a4.717,4.717,0,0,1,.538-.611q4.183-4.186,8.371-8.366c1.171-1.167,2.031-1.189,3.2-.031q4.4,4.376,8.78,8.781a4.112,4.112,0,0,1,.52.626,1.451,1.451,0,0,1-.937,2.368,12.372,12.372,0,0,1-2.144.117c-.66.015-1.323.026-1.981-.014-.433-.026-.518.14-.516.534q.025,6.093.021,12.186c0,.428.015.857-.016,1.282a1.706,1.706,0,0,1-1.545,1.7,9.672,9.672,0,0,1-1.394.07q-2.856.013-5.713.007c-1.43,0-2.082-.617-2.1-2.044-.022-2.156-.006-4.312-.006-6.468h-.007m5.5-15.667-5.053,4.934c.566,0,1.043-.028,1.515.006a1.6,1.6,0,0,1,1.492,1.327,3.966,3.966,0,0,1,.07.809c0,4.353-.008,8.707-.033,13.06,0,.449.137.567.564.555.932-.028,1.865-.007,2.8-.011.165,0,.33-.029.508-.046,0-.371,0-.681,0-.99-.018-4.236-.044-8.473-.051-12.709a1.755,1.755,0,0,1,2-2.009c.352,0,.7,0,1.158,0l-4.963-4.924" transform="translate(-74.47 -69.641)" fill="#161615"/>
    <path id="Trazado_698917" data-name="Trazado 698917" d="M225.218,179.522c-2.312,0-4.624.015-6.936-.006-1.312-.011-1.9-.585-2.03-1.9a2.872,2.872,0,0,1-.018-.29c0-2.254-.017-4.508.007-6.762a1.777,1.777,0,0,1,2.028-2q7.023-.02,14.047.007a1.752,1.752,0,0,1,1.951,2q0,3.41,0,6.821a1.866,1.866,0,0,1-2.11,2.127c-2.312.015-4.624,0-6.936,0Zm5.526-7.458h-1.376c-3.027,0-6.054-.005-9.081.012-.192,0-.546.174-.55.277-.039,1.176-.025,2.353-.025,3.554h11.032Z" transform="translate(-115.078 -89.706)" fill="#161615"/>
    <path id="Trazado_698918" data-name="Trazado 698918" d="M105.528,66.873c1.842-2.317,3.651-4.6,5.464-6.87,1.343-1.685,2.68-3.374,4.047-5.04a1.694,1.694,0,0,1,2.982.6,1.951,1.951,0,0,1-.535,1.767q-1.633,2.087-3.272,4.169-3.4,4.322-6.814,8.64a6.687,6.687,0,0,1-.577.655,1.617,1.617,0,0,1-2.349.059c-.655-.631-1.242-1.335-1.834-2.027-1.236-1.446-2.483-2.885-3.665-4.374a2.6,2.6,0,0,1-.534-1.415A1.5,1.5,0,0,1,99.527,61.6a1.535,1.535,0,0,1,1.8.452c.745.792,1.46,1.611,2.174,2.431.674.775,1.33,1.565,2.028,2.388" transform="translate(-52.39 -28.896)" fill="#161615"/>
    <path id="Trazado_698919" data-name="Trazado 698919" d="M225.31,156.722c-2.115,0-4.231.008-6.346-.007a5.433,5.433,0,0,1-1.379-.147,1.623,1.623,0,0,1-1.209-1.762,1.643,1.643,0,0,1,1.382-1.508,5.826,5.826,0,0,1,1.04-.09q6.55-.011,13.1,0a5.064,5.064,0,0,1,1.1.105,1.746,1.746,0,0,1,1.343,1.633,1.668,1.668,0,0,1-1.189,1.618,4.073,4.073,0,0,1-1.144.152c-2.232.014-4.463.007-6.7.008" transform="translate(-115.155 -81.535)" fill="#161615"/>
    <path id="Trazado_698920" data-name="Trazado 698920" d="M68.306,199.623H79.268v36.4a3.717,3.717,0,0,1-.392.041c-3.342.008-6.684.008-10.026.025-.372,0-.552-.043-.552-.494q.018-17.346.008-34.691v-1.282m5.581,10.809a1.723,1.723,0,0,0,1.77-1.642,1.76,1.76,0,0,0-1.667-1.755,1.7,1.7,0,0,0-1.751,1.651,1.688,1.688,0,0,0,1.649,1.746" transform="translate(-36.349 -106.241)" fill="#7125c8"/>
    <path id="Trazado_698921" data-name="Trazado 698921" d="M184.8,67.6h11.023V82.493c-.81-.364-1.579-.708-2.347-1.055s-1.527-.67-2.274-1.04a1.971,1.971,0,0,0-1.837.02c-1.35.637-2.713,1.247-4.072,1.865-.134.061-.277.1-.493.184Z" transform="translate(-98.352 -35.978)" fill="#2e0877"/>
    <path id="Trazado_698922" data-name="Trazado 698922" d="M99.42,207.264c1.2,0,2.3.006,3.406,0,.343,0,.406.16.406.471q-.022,15.935-.019,31.871c0,.4-.075.552-.5.54-.912-.024-1.825-.011-2.738.013-.409.011-.572-.091-.572-.552q.025-15.674.017-31.349v-.991" transform="translate(-52.903 -110.306)" fill="#7125c8"/>
    <path id="Trazado_698923" data-name="Trazado 698923" d="M157.766,140.11l4.963,4.924c-.453,0-.806,0-1.158,0a1.755,1.755,0,0,0-2,2.009c.007,4.236.033,8.473.051,12.709,0,.31,0,.619,0,.99-.178.017-.343.046-.508.046-.932,0-1.866-.016-2.8.011-.427.013-.567-.106-.564-.555.026-4.353.029-8.707.033-13.06a3.965,3.965,0,0,0-.07-.809,1.6,1.6,0,0,0-1.492-1.327c-.472-.034-.95-.006-1.515-.006l5.053-4.934" transform="translate(-81.275 -74.567)" fill="#25ffff"/>
    <path id="Trazado_698924" data-name="Trazado 698924" d="M234.7,176.054V179.9H223.673c0-1.2-.014-2.378.025-3.554,0-.1.358-.276.55-.277,3.027-.017,6.054-.012,9.081-.012Z" transform="translate(-119.039 -93.697)" fill="#0b428a"/>
    <path id="Trazado_698925" data-name="Trazado 698925" d="M78.371,218.863a1.688,1.688,0,0,1-1.649-1.746,1.7,1.7,0,0,1,1.751-1.651,1.76,1.76,0,0,1,1.667,1.755,1.723,1.723,0,0,1-1.77,1.642" transform="translate(-40.832 -114.672)" fill="#161615"/>
    <path id="Trazado_698926" data-name="Trazado 698926" d="M155.322,47.535H133.43c-.014.212-.038.416-.038.621q0,8.28,0,16.559c0,1.8-1.184,2.579-2.828,1.825-1.921-.881-3.832-1.783-5.761-2.645a1.173,1.173,0,0,0-.85-.01c-1.652.722-3.286,1.489-4.927,2.236-.388.177-.777.355-1.177.5a1.639,1.639,0,0,1-2.425-1.572c-.068-1.2-.02-2.408-.024-3.613q-.022-6.472-.046-12.944c0-.289,0-.578,0-.934h-6.437c0,1,.066,2.011-.011,3.007a19.746,19.746,0,0,1-6,13.022,20.179,20.179,0,0,1-9.032,5.068.549.549,0,0,0-.494.632q.015,20.408.007,40.815v1.361c.822-.225,1.574-.446,2.333-.637A40.1,40.1,0,0,1,104.7,109.6a29.224,29.224,0,0,1,11.051,2.253c.851.324,1.673.735,2.538,1.011a7.4,7.4,0,0,0,2.147.417c3.07.021,6.14-.026,9.209-.061a6.464,6.464,0,0,1,5.8,3.07.792.792,0,0,0,.549.295c.718.035,1.438.034,2.156.005a1.745,1.745,0,0,0,.762-.221c1.856-1.055,3.7-2.13,5.55-3.2,3.479-2.005,6.953-4.016,10.444-6a.817.817,0,0,0,.416-.86q0-9.883.009-19.766c0-2.741,0-5.481,0-8.221a5.539,5.539,0,0,1,.083-1.042,1.669,1.669,0,0,1,3.232-.23,3.844,3.844,0,0,1,.16,1.143q.013,12.974.007,25.947v.721c.607-.181,1.168-.4,1.748-.513a6.211,6.211,0,0,1,7.474,5.438,6.113,6.113,0,0,1-2.283,5.686c-1.8,1.543-3.682,2.981-5.545,4.446q-6.161,4.845-12.339,9.668-5.121,4-10.264,7.969a41.049,41.049,0,0,1-3.589,2.58A13.549,13.549,0,0,1,126.893,142c-4.625.025-9.25.012-13.875.009a3.335,3.335,0,0,1-.749-.083,1.717,1.717,0,0,1,.181-3.387,9.364,9.364,0,0,1,1.106-.04c4.236,0,8.475-.091,12.708.021a12.33,12.33,0,0,0,8.578-3.108c3.217-2.688,6.593-5.187,9.9-7.767q3.194-2.491,6.39-4.979,6.159-4.8,12.321-9.592a2.673,2.673,0,0,0,1.167-2.888,3.148,3.148,0,0,0-2.412-2.5,2.836,2.836,0,0,0-2.159.49c-3.372,1.962-6.732,3.944-10.11,5.9-4.521,2.611-9.057,5.194-13.576,7.808a2.189,2.189,0,0,0-.742.764,6.227,6.227,0,0,1-5.585,3.407c-6.9.025-13.8.014-20.7.007a3.733,3.733,0,0,1-1.142-.178,1.667,1.667,0,0,1,.156-3.19,5.507,5.507,0,0,1,1.213-.118q8.919-.006,17.838,0c.913,0,1.828.047,2.738-.005a2.733,2.733,0,0,0,2.188-4.45,2.794,2.794,0,0,0-2.36-1.4c-3.166-.039-6.333-.07-9.5-.045a7.378,7.378,0,0,1-2.787-.439,49.074,49.074,0,0,0-9.848-2.941,19.366,19.366,0,0,0-3.25-.176,31.317,31.317,0,0,0-15.129,3.843,29.292,29.292,0,0,0-2.869,1.885,1.148,1.148,0,0,0-.373.824c-.024,6.1-.015,12.2-.038,18.307,0,.558.282.524.655.524q8.657-.011,17.314-.01a7.439,7.439,0,0,1,1.047.046,1.7,1.7,0,0,1,.247,3.32,4.351,4.351,0,0,1-1.149.141q-8.716.014-17.431.009h-.672v.654c0,1.535.016,3.071-.007,4.606a1.853,1.853,0,0,1-2.021,1.982q-10.581.01-21.162,0a1.913,1.913,0,0,1-2.123-2.14q0-19.592,0-39.183a1.9,1.9,0,0,1,2.106-2.149q6.966-.025,13.933,0a1.779,1.779,0,0,1,1.975,1.836,5.033,5.033,0,0,1,.013,1.221c-.075.509.139.586.574.58,1.477-.023,2.954-.018,4.43-.02,1.62,0,2.229.574,2.293,2.18.021.524.019,1.049.023,1.574s0,1.032,0,1.6a1.819,1.819,0,0,0,.3-.094c1.005-.547,2.018-1.082,3-1.661a.894.894,0,0,0,.372-.606c.053-.578.025-1.164.025-1.747q0-20.35.008-40.7c0-.575-.167-.683-.716-.7a19.665,19.665,0,0,1-16-8.127,19.386,19.386,0,0,1-3.987-10.993,19.025,19.025,0,0,1,4.147-12.738,19.034,19.034,0,0,1,10.1-7.119,12.338,12.338,0,0,1,1.59-.342,1.7,1.7,0,0,1,1.881,1.3A1.661,1.661,0,0,1,86,33.093a6.7,6.7,0,0,1-1.1.358A16.437,16.437,0,0,0,82.057,64.2,16.437,16.437,0,1,0,94.684,33.888c-.657-.232-1.34-.387-2.006-.593a1.717,1.717,0,1,1,.856-3.308,19.465,19.465,0,0,1,9,4.776,20.6,20.6,0,0,1,5.5,8.657.689.689,0,0,0,.778.572q23.726-.031,47.453-.031a5.488,5.488,0,0,1,.813.049,1.84,1.84,0,0,1,1.74,1.966c0,.078,0,.156,0,.233,0,7.755.01,15.51-.022,23.265a3.027,3.027,0,0,1-.506,1.611,1.51,1.51,0,0,1-1.779.52,1.626,1.626,0,0,1-1.163-1.52,12.451,12.451,0,0,1-.021-1.282q0-10.2-.005-20.408v-.86M64.356,109.3v1.282q0,17.345-.008,34.691c0,.451.18.5.552.494,3.342-.016,6.684-.017,10.026-.025a3.713,3.713,0,0,0,.392-.041V109.3Zm54.491-61.759V62.4c.216-.08.359-.123.494-.184,1.359-.618,2.722-1.228,4.072-1.866a1.975,1.975,0,0,1,1.837-.02c.746.37,1.514.7,2.273,1.041s1.537.691,2.347,1.055V47.539ZM78.916,112.874v.991q0,15.674-.017,31.349c0,.461.162.563.572.552.912-.024,1.826-.036,2.738-.013.426.011.5-.14.5-.54q-.007-15.935.019-31.871c0-.312-.062-.474-.406-.471-1.105.009-2.211,0-3.406,0" transform="translate(-32.398 -15.915)" fill="#161615"/>
  </g>
</svg>
