<svg xmlns="http://www.w3.org/2000/svg" xmlns:xlink="http://www.w3.org/1999/xlink" width="163" height="163" viewBox="0 0 163 163">
  <defs>
    <clipPath id="clip-path">
      <rect id="Rectángulo_339623" data-name="Rectángulo 339623" width="163" height="163" transform="translate(0 -0.333)" fill="none"/>
    </clipPath>
  </defs>
  <g id="Grupo_973557" data-name="Grupo 973557" transform="translate(0 0.741)">
    <g id="Grupo_973556" data-name="Grupo 973556" transform="translate(0 -0.408)" clip-path="url(#clip-path)">
      <path id="Trazado_698844" data-name="Trazado 698844" d="M162.876,81.438A81.438,81.438,0,1,1,81.438,0a81.438,81.438,0,0,1,81.438,81.438" transform="translate(0 0.238)" fill="#cfb7ff"/>
      <path id="Trazado_698845" data-name="Trazado 698845" d="M131.427,101.664c2.764-1.219,4.2-2.574,4.392-5.744.771-12.745,2.024-25.459,3-38.193.161-2.1.964-2.91,3.034-2.819,2.411.106,4.833.105,7.244,0,2.1-.091,2.863.778,2.975,2.865.514,9.564,1.156,19.122,1.78,29.117.988-.617,1.711-1.116,2.476-1.537,1.768-.976,3-.278,3.146,1.761.038.543.008,1.091.008,1.636,0,12.625.085,25.251-.065,37.875-.033,2.789.6,4.834,2.748,6.69,2.644,2.289,2.495,2.42.294,5.21-.329.417-.645,1.272-.442,1.579a2.383,2.383,0,0,0,1.639.845c3.216.253,3.3.308,3.307,3.64,0,1.559-.069,3.121.017,4.675.115,2.052-.647,3.061-2.823,2.99a6.7,6.7,0,0,0-2.2.752,6.515,6.515,0,0,0,.977,2.117c1.528,1.461,1.517,2.713-.031,4.128-1.436,1.314-2.791,2.719-4.141,4.122-1.233,1.28-2.338,1.2-3.611-.005a9.755,9.755,0,0,0-2.268-1.228,7.252,7.252,0,0,0-.835,2.37c.057,2.5-1.44,2.683-3.368,2.682q-42.775-.039-85.55-.018c-1.948,0-3.9-.036-5.843.009-1.763.042-2.551-.738-2.549-2.518q.028-27.472.027-54.944c0-.518.047-1.3.367-1.512,1.955-1.292,1.478-3.23,1.48-5.034q.02-13.56,0-27.121c0-1.121.27-2.3-1.166-2.95-.395-.18-.648-1.05-.667-1.614-.075-2.257-.027-4.519-.035-6.779a2.007,2.007,0,0,1,2.283-2.3c.467,0,.935,0,1.4,0q35.645,0,71.292,0c3.368,0,3.568.2,3.573,3.578a43.857,43.857,0,0,1-.051,4.9,9.463,9.463,0,0,1-1.105,2.59c-.23.507-.679,1.007-.682,1.512-.043,8.8-.031,17.6-.031,26.663m-72.773,35.58v26H90.279c0-5.17,0-10.152,0-15.134,0-3.116.257-3.38,3.3-3.382q13.2-.008,26.4,0c3.924,0,3.973.048,3.974,3.874q0,7.321,0,14.644h10.281c-1.766-1.63-3.064-2.857-4.4-4.047-1.449-1.294-1.554-2.509-.111-3.951a7.534,7.534,0,0,0,1.075-2.293,9.923,9.923,0,0,0-2.47-.7c-1.774-.038-2.569-.806-2.519-2.57.043-1.557.008-3.115.008-4.673,0-3.649,0-3.621,3.587-4.056a2.066,2.066,0,0,0,1.385-.876,1.436,1.436,0,0,0-.34-1.381,8.089,8.089,0,0,0-3.428-1.387c-22.035-.081-44.07-.06-66.105-.06H58.654m-.022-24.48h96.911V90.392c-9.63,6.417-18.989,12.7-28.415,18.878a18.877,18.877,0,0,1-4.1,1.5,20.688,20.688,0,0,1-.91-4.1c-.107-5.326-.044-10.657-.044-16.323-1.127.711-1.909,1.179-2.667,1.684-9,6-17.975,12.019-27.007,17.963-.811.534-2.2,1.041-2.872.7s-1.052-1.776-1.07-2.74c-.1-5.216-.042-10.435-.056-15.652,0-.562-.112-1.125-.2-1.9-9.5,6.333-18.719,12.541-28.021,18.631-1.488.974-2.01,2.009-1.551,3.739m67.183-7.607.928.3a10.058,10.058,0,0,0,.9-2.822c.069-9.041.044-18.082.034-27.124,0-.591-.107-1.181-.162-1.749H60.576v30.515l9.209-6.159c-3.714-.328-3.817-.44-3.818-3.743,0-5.3.065-10.6-.032-15.9-.041-2.247.847-3.075,3.049-2.994,3.035.11,6.079.1,9.116,0,2.15-.068,2.9.867,2.857,2.943-.088,3.938-.026,7.88-.026,12.208a33.454,33.454,0,0,1,3.216-2.051,3.927,3.927,0,0,0,2.434-4.432c-.2-1.928.02-3.9-.059-5.841-.08-1.966.7-2.873,2.73-2.824,3.193.077,6.39.064,9.584,0,1.868-.036,2.7.726,2.684,2.631-.047,5.69-.056,11.38.005,17.069.022,1.991-.763,2.86-2.771,2.785-2.149-.08-4.3-.018-6.413-.018v7.579c4.776-3.186,9.333-6.16,13.789-9.277a3.264,3.264,0,0,0,.939-2.352q.123-7.831.021-15.665c-.025-2.017.82-2.8,2.8-2.756,3.193.077,6.39.063,9.584.005,1.914-.034,2.666.838,2.615,2.7-.064,2.33-.015,4.664-.015,7.02,3.239-.606,3.738-.175,3.74,3.117q.006,8.414,0,16.827m7.269,30.9c2.555,1.6,2.136,3.339,1.3,5.693-.906,2.562-2.393,3.3-4.718,3.012v3.869c4.378-1.462,4.367,2.3,5.263,4.555.421,1.06-.593,2.69-.957,4.061l-.76.038,2.683,2.491c1.51-2.33,3.218-2.082,5.594-1.205,2.523.932,3.359,2.343,3.094,4.684H147.5c.867-1.608,1.234-3.446,2.2-3.854,2.322-.976,5.008-3.625,6.9-.126l3-1.974-.766-.131c-.395-1.3-1.429-2.834-1.057-3.853.874-2.391,1.074-5.967,5.285-4.823v-3.921c-3.866,1.24-3.937-1.933-5.112-3.984-1.233-2.15.311-3.259,1.479-4.513l-2.361-2.671q-.03.4-.06.8c-1.371.352-2.988,1.34-4.062.925-2.276-.881-5.936-.962-4.615-5.238h-3.982c1.365,4.2-2.144,4.375-4.394,5.163-1.176.412-2.82-.513-4.252-.834q0-.36,0-.719l-2.625,2.556m-3.639-69.744H58.59v3.462h70.857Zm26.882,57.836H60.6c-.234,0-.468.013-.7,0-1.525-.091-1.653.622-1.108,1.868h2.874q43.361,0,86.722,0c3.346,0,3.4.086,3.647,3.3.046.588.4,1.464.826,1.628a1.845,1.845,0,0,0,1.711-.581c.67-1.867,1.11-3.818,1.759-6.215m-52.8,39.1h7.2V148.578h-7.2ZM69.8,94.212a30.062,30.062,0,0,0,5.114-.082c.834-.151,2.135-1.121,2.164-1.77.194-4.308.1-8.629.1-12.939H69.8ZM149.573,83.1h-9c-.343,4.335-.683,8.629-1.063,13.417,2.463-1.634,4.428-3.359,6.71-4.359,4.092-1.793,4.439-4.822,3.554-8.52a5.472,5.472,0,0,0-.2-.538M90.164,79.361c.147,1.952-.38,4.412.558,5.271,1.542,1.412,1.382,2.8,1.42,4.364.042,1.687.009,3.376.009,5.046h5.485V79.361ZM110.94,93.125c2.434-1.625,4.508-2.973,6.532-4.395a1.931,1.931,0,0,0,.814-1.259c.075-2.692.037-5.388.037-8.031H110.94Zm31.607,23.656h-22.2v3.471h22.2Zm-70.865,16.56H93.916v-3.46H71.682Zm22.3-16.538H71.746v3.426H93.978Zm.212,46.515H99.5V148.568H94.19Zm25.849-14.661h-5.324v14.667h5.324Zm29.536-69.545c-.194-3.116-.375-6.044-.564-9.075h-7.386c-.247,3.06-.485,5.994-.734,9.075Zm-51.691,54.25H116.3v-3.5H97.884Zm-.021-13.117h18.494v-3.458H97.864ZM148.842,66.07c-.2-2.605-.385-4.951-.566-7.279h-5.782c-.168,2.459-.33,4.818-.5,7.279Zm-15.262,63.841h-13.2V133.5a49.955,49.955,0,0,1,5.96.043,6.66,6.66,0,0,0,7.238-3.632m-74.987,3.432h9.145v-3.459H58.592Zm97.05-16.561h-9.116v3.472h9.116Zm-87.846.026H58.657v3.416H67.8Z" transform="translate(-29.15 -29)" fill="#161615"/>
      <path id="Trazado_698846" data-name="Trazado 698846" d="M63.119,231.056h2.257c22.035,0,44.07-.021,66.105.059a8.1,8.1,0,0,1,3.428,1.387,1.436,1.436,0,0,1,.34,1.381,2.065,2.065,0,0,1-1.385.876c-3.582.436-3.586.408-3.587,4.057,0,1.558.036,3.116-.008,4.673-.05,1.765.746,2.532,2.52,2.57a9.964,9.964,0,0,1,2.47.7,7.537,7.537,0,0,1-1.075,2.294c-1.442,1.441-1.338,2.656.112,3.951,1.332,1.189,2.629,2.417,4.4,4.047H128.41q0-7.324,0-14.644c0-3.826-.05-3.874-3.974-3.874q-13.2,0-26.4,0c-3.038,0-3.292.266-3.3,3.381,0,4.982,0,9.964,0,15.135H63.119Z" transform="translate(-33.615 -122.812)" fill="#25ffff"/>
      <path id="Trazado_698847" data-name="Trazado 698847" d="M62.888,153.152c-.459-1.73.064-2.765,1.551-3.739,9.3-6.089,18.525-12.3,28.021-18.631.084.78.195,1.343.2,1.9.014,5.218-.044,10.436.055,15.652.019.964.406,2.4,1.07,2.74s2.061-.161,2.872-.7c9.031-5.943,18.01-11.966,27.006-17.963.758-.5,1.539-.974,2.667-1.684,0,5.667-.064,11,.043,16.323a20.693,20.693,0,0,0,.91,4.1,18.877,18.877,0,0,0,4.1-1.5c9.426-6.18,18.785-12.461,28.415-18.878v22.372Z" transform="translate(-33.406 -69.388)" fill="#7125c8"/>
      <path id="Trazado_698848" data-name="Trazado 698848" d="M132.47,126.647q0-8.414,0-16.827c0-3.292-.5-3.723-3.74-3.117,0-2.357-.049-4.69.015-7.02.051-1.86-.7-2.732-2.615-2.7-3.194.058-6.391.072-9.584-.005-1.982-.048-2.827.739-2.8,2.756q.1,7.832-.021,15.665a3.261,3.261,0,0,1-.938,2.351c-4.457,3.117-9.013,6.091-13.789,9.277v-7.579c2.11,0,4.263-.062,6.412.018,2.008.075,2.793-.794,2.771-2.785-.062-5.689-.052-11.38-.005-17.069.015-1.9-.815-2.666-2.684-2.631-3.194.06-6.391.073-9.584,0-2.034-.049-2.81.857-2.73,2.824.079,1.945-.14,3.912.059,5.841a3.927,3.927,0,0,1-2.434,4.432,33.522,33.522,0,0,0-3.216,2.051c0-4.328-.062-8.269.026-12.208.046-2.077-.707-3.012-2.857-2.943-3.036.1-6.08.107-9.115,0-2.2-.08-3.09.748-3.049,2.995.1,5.3.029,10.6.031,15.9,0,3.3.1,3.414,3.819,3.742l-9.21,6.159V95.252h66.937c.055.567.162,1.158.162,1.749.011,9.041.035,18.083-.034,27.124a10.059,10.059,0,0,1-.9,2.822l-.928-.3" transform="translate(-35.804 -50.49)" fill="#25ffff"/>
      <path id="Trazado_698849" data-name="Trazado 698849" d="M218.459,221.5l2.625-2.556q0,.36,0,.719c1.432.321,3.076,1.246,4.252.834,2.251-.788,5.76-.958,4.394-5.163h3.982c-1.321,4.276,2.339,4.357,4.615,5.237,1.074.416,2.691-.572,4.062-.924q.03-.4.06-.8l2.361,2.671c-1.167,1.254-2.711,2.363-1.479,4.513,1.176,2.05,1.247,5.223,5.113,3.984v3.921c-4.211-1.144-4.411,2.433-5.285,4.823-.373,1.019.662,2.553,1.057,3.853l.766.131-3,1.974c-1.893-3.5-4.578-.85-6.9.126-.968.407-1.335,2.245-2.2,3.854h-2.913c.265-2.341-.571-3.753-3.094-4.684-2.376-.877-4.084-1.126-5.594,1.205l-2.683-2.491.76-.038c.364-1.371,1.378-3,.957-4.061-.9-2.258-.885-6.017-5.263-4.555V230.2c2.325.293,3.811-.45,4.718-3.012.833-2.354,1.253-4.1-1.3-5.693m11.824,22.459c2.266-1.41,4.507-2.8,6.742-4.2,4.014-2.512,5.482-9,2.58-12.232l-2.7,1.53c.762,4.834.134,6.415-2.935,8L230.3,235.04c-2.627,3.053-2.663,5.884-.014,8.915m2.928-23.826c-.627.3-1.658.448-1.951.993-1.046,1.947-3.158,2.1-4.728,3.136-4.34,2.855-5.325,9.214-2.707,12.26,1.705-.724,3.274-1.212,2.452-3.9-.735-2.4.959-4.578,3.4-5.6l3.524,2.028c2.606-3,2.786-5.833.01-8.921" transform="translate(-114.524 -114.439)" fill="#fce182"/>
      <rect id="Rectángulo_339611" data-name="Rectángulo 339611" width="70.857" height="3.462" transform="translate(29.44 37.314)" fill="#fce182"/>
      <path id="Trazado_698850" data-name="Trazado 698850" d="M160.61,203.036c-.651,2.4-1.09,4.347-1.76,6.214a1.843,1.843,0,0,1-1.711.581c-.43-.164-.78-1.039-.826-1.628-.25-3.214-.3-3.3-3.647-3.3h-89.6c-.545-1.247-.417-1.959,1.108-1.868.233.014.467,0,.7,0H160.61" transform="translate(-33.432 -107.887)" fill="#fce182"/>
      <rect id="Rectángulo_339612" data-name="Rectángulo 339612" width="7.199" height="14.668" transform="translate(74.383 119.578)" fill="#dbfdfd"/>
      <path id="Trazado_698851" data-name="Trazado 698851" d="M86.972,122.148V107.357H94.35c0,4.309.093,8.631-.1,12.939-.029.648-1.33,1.619-2.164,1.77a30.058,30.058,0,0,1-5.114.082" transform="translate(-46.318 -56.936)" fill="#dbfdfd"/>
      <path id="Trazado_698852" data-name="Trazado 698852" d="M246.157,115.223a5.621,5.621,0,0,1,.2.538c.885,3.7.538,6.728-3.554,8.52-2.283,1-4.247,2.725-6.71,4.359.38-4.788.719-9.083,1.063-13.417Z" transform="translate(-125.734 -61.125)" fill="#0b428a"/>
      <path id="Trazado_698853" data-name="Trazado 698853" d="M130.51,107.228h7.473v14.681H132.5c0-1.669.032-3.359-.009-5.046-.038-1.569.122-2.952-1.42-4.364-.938-.859-.411-3.319-.558-5.271" transform="translate(-69.495 -56.868)" fill="#dbfdfd"/>
      <path id="Trazado_698854" data-name="Trazado 698854" d="M174.976,121.084V107.4h7.384c0,2.643.037,5.339-.038,8.031a1.931,1.931,0,0,1-.814,1.259c-2.024,1.421-4.1,2.77-6.532,4.395" transform="translate(-93.186 -56.959)" fill="#dbfdfd"/>
      <rect id="Rectángulo_339613" data-name="Rectángulo 339613" width="22.202" height="3.471" transform="translate(91.196 87.782)" fill="#dbfdfd"/>
      <rect id="Rectángulo_339614" data-name="Rectángulo 339614" width="22.234" height="3.46" transform="translate(42.532 100.882)" fill="#dbfdfd"/>
      <rect id="Rectángulo_339615" data-name="Rectángulo 339615" width="22.232" height="3.426" transform="translate(42.597 87.803)" fill="#dbfdfd"/>
      <rect id="Rectángulo_339616" data-name="Rectángulo 339616" width="5.312" height="14.751" transform="translate(65.04 119.567)" fill="#dbfdfd"/>
      <rect id="Rectángulo_339617" data-name="Rectángulo 339617" width="5.324" height="14.667" transform="translate(85.566 119.657)" fill="#dbfdfd"/>
      <path id="Trazado_698855" data-name="Trazado 698855" d="M247.735,96.359H239.05c.25-3.08.487-6.015.734-9.075h7.386c.188,3.031.37,5.958.564,9.075" transform="translate(-127.309 -46.246)" fill="#0b428a"/>
      <rect id="Rectángulo_339618" data-name="Rectángulo 339618" width="18.411" height="3.503" transform="translate(68.734 100.86)" fill="#dbfdfd"/>
      <rect id="Rectángulo_339619" data-name="Rectángulo 339619" width="18.494" height="3.458" transform="translate(68.714 87.788)" fill="#dbfdfd"/>
      <path id="Trazado_698856" data-name="Trazado 698856" d="M248.258,70.5h-6.847c.169-2.461.33-4.82.5-7.279h5.782c.181,2.329.364,4.674.566,7.279" transform="translate(-128.566 -33.432)" fill="#0b428a"/>
      <path id="Trazado_698857" data-name="Trazado 698857" d="M208.372,215.371A6.661,6.661,0,0,1,201.133,219a49.951,49.951,0,0,0-5.959-.043v-3.589Z" transform="translate(-103.942 -114.46)" fill="#dbfdfd"/>
      <rect id="Rectángulo_339620" data-name="Rectángulo 339620" width="9.145" height="3.459" transform="translate(29.443 100.884)" fill="#dbfdfd"/>
      <rect id="Rectángulo_339621" data-name="Rectángulo 339621" width="9.116" height="3.472" transform="translate(117.376 87.781)" fill="#dbfdfd"/>
      <rect id="Rectángulo_339622" data-name="Rectángulo 339622" width="9.139" height="3.416" transform="translate(29.508 87.807)" fill="#dbfdfd"/>
      <path id="Trazado_698858" data-name="Trazado 698858" d="M245.4,257.851c-2.649-3.031-2.612-5.862.015-8.915l3.677,2.017c3.069-1.586,3.7-3.167,2.935-8l2.7-1.53c2.9,3.231,1.434,9.72-2.58,12.232-2.235,1.4-4.476,2.786-6.742,4.2" transform="translate(-129.641 -128.334)" fill="#161615"/>
      <path id="Trazado_698859" data-name="Trazado 698859" d="M241.577,225.6c2.776,3.088,2.6,5.917-.01,8.921l-3.524-2.028c-2.441,1.024-4.135,3.2-3.4,5.6.823,2.683-.746,3.171-2.452,3.9-2.618-3.046-1.633-9.405,2.707-12.26,1.57-1.033,3.682-1.189,4.728-3.136.293-.546,1.324-.694,1.951-.993" transform="translate(-122.89 -119.906)" fill="#161615"/>
    </g>
  </g>
</svg>
